<?xml version="1.0" encoding="utf-8"?>
<!-- Generator: Adobe Illustrator 24.0.1, SVG Export Plug-In . SVG Version: 6.00 Build 0)  -->
<svg version="1.1" id="Layer_1" xmlns="http://www.w3.org/2000/svg" xmlns:xlink="http://www.w3.org/1999/xlink" x="0px" y="0px"
	 viewBox="0 0 878 790.1" style="enable-background:new 0 0 878 790.1;" xml:space="preserve">
<style type="text/css">
	.st0{fill:#666666;}
	.st1{fill:none;stroke:#000000;stroke-width:0.75;stroke-miterlimit:10;}
	.st2{fill:none;stroke:#000000;stroke-miterlimit:10;}
	.st3{fill:none;stroke:#000000;stroke-width:0.5;stroke-miterlimit:10;}
	.st4{fill:#A3A1A2;}
</style>
<g id="Layer_2_1_">
	<rect x="0.1" class="st0" width="881.3" height="790.1"/>
</g>
<polygon class="st1" points="224.1,532.3 270.4,531.1 270.4,515.1 "/>
<path class="st2" d="M666.6,595.9l-1.2-2.8c0,0-4.2-4.6-5.2-4.7S648.9,577,648.9,577l-2.6-3.4l-2.7-5.7l-3.2,6.9l-0.4-13.3l-6.5,4.9
	l2.3-11.6l-4.2,3.4l0.9-15.5l-5.8,5l1.1-7.9l-7.9,2.7l5.6-8.8h-9.9l2.5-4.7l-6.8-2.5l1.6-3.4l1.4-4l-7.6,1.9c0,0,3.2-10.9,3.3-11
	c0.2-0.1-7.6,4.1-7.6,4.1l-0.4-9l-7.1,8.5l-2.7-6.8l-5.3,10.2l-5.6-4.4l-20-7.7l-14.6-4.4l-26.3-3l9-4.8l-4.4-3.3l9.5,0.7l-9.6-11.3
	l15.2-4.1l0.6-0.8L526.3,458l9.6-4.5c0,0-1.2-4.9-8.1-8.3c-6.8-3.4-15.7-2-15.7-2s0.2-9.2-0.5-13c-0.7-3.8-1.2-3.9-6.1-11.6
	c-4.9-7.7-12.4,1.7-12.4,1.7l-5.5,7V425l-1.3,3.2l-0.7-1.3l-6.7,13.8l-1.2,0.7c-16.2-3.2-26.9,5.1-31.8,7.8
	c-4.9,2.7-13.7,11.4-13.7,11.4l-21.9,6.2c0,0-2.3,0.4-8.5,1.1c-6-0.5-13.6,1.2-13.6,1.2l2,6.8l2.9,5.7l4.8,5.5c0,0,2,2.1,2.4,1.9
	c0.4-0.2,7.6,1.9,7.6,1.9l8.4,0.1l8.5-2.8l8.4,3.1l5.7,5l1.3,3.2l-5.2,4.1l-5.6,2.4l-5.4-0.5l-7.6-1.1l-7.9,1.1l-4.7,0.1l-3.1-1.2
	c0,0,0.1,3.4,0.2,3.6c0.1,0.2,3.5,4.1,3.5,4.1l1.9,0.9l19.4,1l23.7-0.9l-0.8,5.8l-0.5,7.4l0.6,7.6l1,4.2l2.9,7.6l-9.4,13.6l-4.8,8.1
	l-11.5,17l-2.9,5h16.6l-8,11.5h30.5l10.1-12l14.7-13.5l14.4-13.7l14,4.2l15.5,0.5l14.4-1.5l4.5,6.2c0,0,0.2,1.1,2.9,3.4
	c2.7,2.3,4.5,2,4.5,2l9-1.4l3.2,4.3l9,3.9l19.2,1.9l3.3,8.2l-9.2,0.1l-1.2,1.1l1.1,7.6l1.6,1.2l17.7-0.3l0.8-1.1l1.2-5.6l-0.2-9.5
	l7.2,7.1l2.4,1.6l-4.2,0.6l-1.3,2.2l1.9,6.1l1.8,2.5H635l4-0.8l1.3-2.5l0.2-4.7l-1.6-6.2l0.8-0.3l7.5-3.4l0.9,6.2l4-4.1l0.2,5.5
	l3.4-3.6l4.9,5l0.8-4.4l5.9,4.4L666.6,595.9z M612.1,561.2l-2.2-0.3l-3.7,0.3l-3.5,0.6l-1.6,0.2l0.2-1.8l-0.5-9.5l-0.7-7.5l-2.5-9.8
	l-0.4-2.1l2.6,1.7l0.6,5.2l2.5-0.4l-0.6,6.5l3.8,2.4l-1.5,6.6l5.6-0.6l-2.9,4.4l5.4,1.2L612.1,561.2z"/>
<path class="st2" d="M599.5,585.6l3.1,7.5h1.4l-0.1,1.4h-10.9c0,0-0.9,0.2-0.5,1.7c0.4,1.5,1.2,5.7,1.2,5.7s-0.1,1.5,2.2,1.2
	c2.4,0,15.2,0,15.2,0s1.1-0.1,1.3-1.2c0.3-1.1,0.9-4,1-6.6c0.1-2.6,0.3-6.6-0.1-8c-1-0.9-2.5-2.3-2.5-2.3S601.7,585.9,599.5,585.6z"
	/>
<path class="st1" d="M87.2,550.3c-0.3-0.5-6.8-12.3-7.4-12.5c-0.6-0.2-14-1.3-14-1.3l7.5,13.8H87.2z"/>
<path class="st3" d="M86.2,528c-0.3-0.2-13.4-8.8-13.4-8.8s-17.8,1.4-17.5,1.6c0.3,0.2,12.4,8.7,12.4,8.7l-1.9,7l14,1.3L86.2,528z"
	/>
<path class="st1" d="M58.9,489.6c0,0-5.4-5-7.2,3.1c-1.8,8.1,3.6,28.1,3.6,28.1l17.3-1.7l13.6,8.9"/>
<path class="st1" d="M113.9,501.3c0,0,32-6.4,39.3-5.3c7.2,1.2,12.5,44.9,12.5,44.9l-40.1-1.8l-29.4-28.6L113.9,501.3"/>
<path class="st1" d="M148.5,501.4l-4.2,21c0,0,13.3,20.8,11.9,21c-1.5,0.2-32.3-2.5-32.3-2.5"/>
<path class="st1" d="M303.4,533.3L279,566.9l-20.2-11c0,0-2.2-11.7-3.1-13c-1-1.2-3.7-9.7-3.7-9.7l19.9-14.6L303.4,533.3z"/>
<path class="st1" d="M459.6,511.5c0,0-3.7,23,8.7,33c-5.1,9.5-5.1,9.5-5.1,9.5s-19.3-0.7-13.8-40.8
	C459.6,511.5,459.6,511.5,459.6,511.5z"/>
<path class="st1" d="M459.6,511.5"/>
<polyline class="st1" points="458.4,521.9 460.3,525 458.6,525.4 461.3,527.7 459.4,530.3 "/>
<path class="st1" d="M484.9,443.2c0,0,8.8-20.2,14.2-21s6.6,26.3,3,36.1"/>
<polyline class="st1" points="497.8,440.2 498.8,438.8 499.5,441.6 501.5,439.7 "/>
<polyline class="st1" points="494.5,474.6 494.5,481.7 488.7,481.1 491.6,486.8 "/>
<path class="st1" d="M578,559.5"/>
<polyline class="st1" points="578,564.9 585.3,562.7 585.3,567.9 591.6,567.3 "/>
<polyline class="st1" points="475.9,565 479.7,561.2 479.7,557.2 483.6,559.4 489.4,559.4 486.5,554.1 "/>
<polyline class="st1" points="402,505 404.3,502.4 405.2,505.7 "/>
<polyline class="st1" points="405.2,490.5 405.9,493.7 408,491 "/>
<polyline class="st1" points="424.9,488.3 424.9,491.8 422.3,489.6 422.3,494 419.2,490.2 419.2,495 416.4,491.1 "/>
<path class="st1" d="M420.7,504.3c-0.3,0.5,2.5-2.2,2.5-2.2l0.3,3.2l3.2-3.7l1.4,4.2l1.2-4.2l3.4,3.2"/>
<path class="st1" d="M427.2,449.3c0,0,5.2-10.1,13.4-10.5"/>
<path class="st1" d="M421.5,444.1c0,0,5.2-10.1,13.4-10.5"/>
<path class="st1" d="M399.5,524.6c0,0-10.2-5-10.8-13.2"/>
<path class="st1" d="M394.3,530.4c0,0-10.2-5-10.8-13.2"/>
<line class="st1" x1="677.4" y1="598.7" x2="685.2" y2="603.7"/>
<line class="st1" x1="663.1" y1="601.3" x2="658.7" y2="608.1"/>
<line class="st1" x1="643.8" y1="563.5" x2="642" y2="557.1"/>
<line class="st1" x1="648.4" y1="603.7" x2="651.2" y2="601.2"/>
<line class="st1" x1="674.5" y1="607.3" x2="677.4" y2="609.4"/>
<path class="st1" d="M273.3,522.3c1.6,0.5,36.1,4.6,36.1,4.6l0.2-16.3l-39.6-6.8l-3.2,17.3L273.3,522.3z"/>
<path class="st1" d="M295.2,534.4c0,0,12.9-1.5,13.2-2.1c0.3-0.6,1-5.4,1-5.4l-47.9-5.8L295.2,534.4"/>
<path class="st1" d="M129.4,544l-7.3-24.8l-11.4-2.8l9.4-6.7l-14.8-20l-11.8,16.5l-8.2-0.2c-6.8-2.5-16.5-9.2-26.3-16.4
	c0,0,13.8,25.1,13.7,29.5l7.2,8.5v10.2l7.4,12.4l14.6-4.4l9.4-1.4L129.4,544z"/>
<path class="st1" d="M87.2,550.3H73.4l-7.5-13.8l2.1-6.8c-1.3-1.3-12.6-8.9-12.6-8.9"/>
<line class="st1" x1="65.8" y1="536.5" x2="79.8" y2="537.8"/>
<path class="st1" d="M251.1,534.6l3,5.1l12.8,3.7l5.5-6.2c0,0-11-5.7-13.2-5.9S251.1,534.6,251.1,534.6z"/>
<path class="st1" d="M254.3,531.5l3,5.1l12.8,3.7l6-7.8c0,0-11.5-4-13.7-4.3S254.3,531.5,254.3,531.5z"/>
<path class="st1" d="M256.6,528.4l3,5.1l12.8,3.7l5.2-6.7c0,0-10.8-5.2-13-5.4C262.5,524.9,256.6,528.4,256.6,528.4z"/>
<polygon class="st1" points="256.5,577.5 285.5,568 262.6,549.3 254.6,527.4 235.5,541.2 245.2,576.5 "/>
<polygon class="st1" points="197.9,452.3 215,446.2 257.8,430 264.4,444 207.2,465.6 199,457.5 "/>
<polygon class="st1" points="256.9,499.5 207.1,467.1 192.4,474.3 194.9,504.3 250.8,509 "/>
<path class="st1" d="M221.9,490.3c-1-0.6-16.3-10-16.3-10l-8.2,4.4"/>
<polyline class="st1" points="204.8,450.1 209.7,454.3 256.9,436 "/>
<polygon class="st1" points="207.2,466.3 240.5,453.7 258.8,446.7 246.1,495.9 "/>
<polygon class="st1" points="207.2,466.3 196.2,455.2 187.8,470.6 189,473.9 191.1,474.7 "/>
<polygon class="st1" points="306.1,461.5 308.5,491.8 283.9,498.3 296.2,461.5 "/>
<polygon class="st1" points="309.6,510.6 276.5,504.9 286.6,490.3 308.5,491.8 "/>
<path class="st1" d="M119.8,504.2l7.2-5.2l28-1.2l0,0c-7.7,7.4-18.4,6-28.9,6.4L119.8,504.2z"/>
<path class="st1" d="M119.4,499.4l7.8-4.3l27.9,2h0c-8.5,6.5-19,3.8-29.4,3L119.4,499.4z"/>
<path class="st1" d="M123.4,495.2l8.1-3.6l27.6,4.5h0c-9,5.7-19.3,2.1-29.6,0.3L123.4,495.2z"/>
<path class="st1" d="M236.8,480.4l5-9.9l52.2,15.1l-17.1,24.9C276.9,510.5,262.9,512,236.8,480.4"/>
<path class="st2" d="M193.4,479.2c1.1,0.1,3.3,0.2,4.3,0.3c4.5,0.5,7.2,1.2,7.2,2c0,1.6-12.7,3-28.3,3s-28.3-1.3-28.3-3
	c0-0.8,3.1-1.5,8.1-2.1"/>
<polygon class="st1" points="155.3,484.8 155.3,470.3 192.1,468.6 194.2,486 "/>
<polyline class="st2" points="160.7,526.1 174.2,504.5 153.2,500.3 160.6,527.7 "/>
<g>
	<path class="st2" d="M149.2,293.9v26.3l1.6,60.8v26.3l48.2,48v-1.8l126.4-48l13.1-6.2V289.8c0,0,5.8-63.2-113.1-62.1l-11.6,2.1
		C153,238.7,149.2,293.9,149.2,293.9"/>
	<path class="st2" d="M199.1,429"/>
</g>
<path class="st1" d="M194.9,340c3.6-51.1,25.1-140.9,25.1-140.9l4.8,28.5c118.9-1.1,113.1,62.1,113.1,62.1v109.5l-13.1,6.2"/>
<path class="st3" d="M282.1,501.5c1.8,3.5,2.3,6.3,1,7.8c-3.3,3.9-16.8-1.9-30.2-13.1s-21.6-23.4-18.3-27.4c1.4-1.7,4.6-1.6,8.8-0.1
	"/>
<path class="st3" d="M233.3,473.2c-2.4-0.8-4.3-0.7-5.5,0.3c-3.8,3.5,2.8,16.7,14.7,29.5c11.9,12.8,24.6,20.3,28.3,16.8
	c1-0.9,1.3-2.5,0.9-4.7"/>
<path class="st1" d="M233.8,471.3l-3.9,14c0,0,8.9,20.2,32.5,33.8l20.7-9.5c0,0-1,1.8-8.2,0C267.5,507.9,237.8,487.5,233.8,471.3z"
	/>
<path class="st3" d="M236.8,479.5"/>
<path class="st1" d="M149.8,457l-4.1,9.4c24,14.2,51.8,1,51.8,1l-1.9-13.4L149.8,457"/>
<path class="st1" d="M199,455.5l-0.2,4.3c0,0-40.4-1.5-51.8-3.2c-1.6-0.2-2.6-0.5-2.6-0.8c-0.5-2.1,12.7-23.3,12.7-23.3
	s7.7-1.5,11.3-7.4"/>
<path class="st3" d="M202.4,489.7c1.6,0.4,2.4,0.8,2.4,1.2c0,1.6-12.7,3-28.3,3s-28.3-1.3-28.3-3c0-0.5,1-0.9,2.9-1.3"/>
<path class="st1" d="M148.3,491l4.4,12.5c4.7,0.9,12.9,1.4,23.9,1.4c10.7,0,18.2-0.3,23-1.2l5.1-12.3c0-0.1-0.1-0.3-0.2-0.2
	C202.5,492.2,191.3,496.7,148.3,491C148.3,490.9,148.3,491,148.3,491z"/>
<path class="st1" d="M201.8,492.1l0.6-2.4l2.3-8.8c0-0.1-0.1-0.2-0.2-0.2c-1.6,0.9-9.9,4.2-49.2,1.7c0,0-4.7-0.6-6.5-1.5
	c-0.2-0.1-0.4,0.1-0.3,0.3l2.5,8.4l0.6,1.6C151.7,491.2,185.8,496,201.8,492.1z"/>
<path class="st1" d="M256,455.5l-16.5,9.1c0,0,5.6,27.6,61,19v-14"/>
<path class="st1" d="M253.8,433.3c0,0,11.9,2.2,2,19.3c0.5,9.7,2,17.1,2,17.1h45.5c0,0,19.2-44.6-14.6-54.2"/>
<path class="st3" d="M233.8,469.9c0,0,0.8-3.4,6.5-2.2l1.5,1.7l-4.6,9.2C237.2,478.6,233.5,472.6,233.8,469.9z"/>
<path class="st3" d="M281.8,502.3c0,0,7.8,9.9-5.3,7.4C278.8,506.9,281.8,502.3,281.8,502.3z"/>
<path class="st3" d="M226.9,476.1c0,0,1.3-5.4,6.1-2.1l-3.2,10.7L226.9,476.1z"/>
<path class="st3" d="M264,518.3l7.8-3.8c0,0,1.7,3.8-3,6.1L264,518.3z"/>
<path class="st3" d="M253.8,523c0,0-28.3-14.6-31.5-29.2"/>
<path class="st1" d="M253.8,523c4.3,1.7-9.2,0.6-10.9,1.5l0.4,2.3c0,0-17.3,5.5-24.7,9.7c0,0,3.3-20.5-10-33.4c0,0,2.3-2.3,7-3.7
	c2.9-0.8,6.7-4.3,7.9-6.8C223.5,492.6,231.1,513.9,253.8,523z"/>
<path class="st1" d="M226.5,476.1l-5.1,14.7c0,0,2.9,18.4,32.4,32.2l15-2.1c0.1,0,0.2-0.2,0-0.3c-4.4-1.8-37.1-16.4-42-44.5
	C226.9,475.9,226.5,475.9,226.5,476.1z"/>
<path class="st1" d="M207.2,461.5"/>
<polygon class="st1" points="324.7,378.3 198.4,426.3 198.4,452.5 324.7,404.6 "/>
<polygon class="st1" points="324.7,353 198.4,401 198.4,427.3 324.7,379.3 "/>
<polygon class="st1" points="323.1,291.1 196.7,339.1 196.7,365.3 323.1,317.4 "/>
<polygon class="st1" points="150.1,378.1 198.4,426.3 197.9,452.3 150.1,406.4 "/>
<polygon class="st1" points="150.1,351.8 198.4,401 198.4,426.1 150.1,378.1 "/>
<polygon class="st1" points="148.5,292.9 196.7,339.1 196.7,365.3 148.5,319.2 "/>
<path class="st1" d="M148.5,292.9c0,0,3.8-55.2,64.6-64.2"/>
<path class="st1" d="M324.7,404.6"/>
<line class="st1" x1="150.1" y1="351.8" x2="148.5" y2="319.2"/>
<line class="st1" x1="324.7" y1="353" x2="323.1" y2="317.4"/>
<path class="st1" d="M438.2,568.2l-14.1,21.6l16.4,0.4l13.3-19.2C453.8,570.9,447.6,565.7,438.2,568.2z"/>
<path class="st1" d="M476,587.2c0,0-2.8-19-20.3-19c-12.3,17.8-22.9,33.1-22.9,33.1h30.5L476,587.2"/>
<polygon class="st2" points="149.2,319.3 150.1,352.4 198.5,401.4 324.4,353.2 323.1,317.6 196.7,365.3 "/>
<path class="st1" d="M627.9,572.4l3,5.2l2,4.7l4.4,8.2l2.6,5.8l0.6,6.5l-1.5,3.7l-4.8,0.8h-12.8c0,0-3.9-6.2-3.6-8s1.3-2.8,1.3-2.8
	l3.8-0.7l-12.2-11.4l1.2-0.8c5.6-3.4,10.6-7.7,14.8-12.6l0,0L627.9,572.4z"/>
<ellipse class="st1" cx="200" cy="530.2" rx="19.1" ry="29.6"/>
<ellipse class="st1" cx="179.5" cy="529.7" rx="19.1" ry="29.6"/>
<path class="st1" d="M121.5,497.9"/>
<path class="st1" d="M512.1,443.2c23.7-0.8,23.4,10.6,23.4,10.6s-10.6,4.1-9.8,4.9c0.8,0.8,14.9,14.7,15.2,15.5
	c0.3,0.8-16.2,4.6-16.2,4.6l10,11.6l-9.8-1l4.4,3.3l-8.9,4.7c38.4,0.2,66.8,19.3,66.8,19.3l5.6-10.7l2.4,7.3l2.6-3.1l5-5.9v9.9
	l8-4.7l-4.3,11.3l8.6-2.1l-3.5,7.5l7.2,2.7l-2.9,4.6h9.9l-5.8,9l8-2.9l-1.2,8.3l5.8-5.4l-1,16.1l4.2-4l-2.5,12.5l7-6.1v14.4l3.7-7.3
	l4.5,11.3l6.5-9.3v12.1l8.3-1.4l-2.2,4.7l14.1-0.8l-10.9,6.1l3.5,7.9l-7-5.2l-0.3,5.2l-4.7-5.7l-3.6,4.2l-0.3-6.5l-4,4.7l-0.9-6.2
	l-8.5,3.8"/>
<path class="st2" d="M592.9,526.7"/>
<path class="st2" d="M600.4,544.5"/>
<path class="st2" d="M611.6,561.8l0.6-3.5l-5-1l2.9-4.4l-5.6,0.6l1.5-6.6l-3.8-2.4l0.6-6.5l-2.5,0.4l-0.6-5.2l-4.5-4.2
	c1.2,2,2.1,4.4,2.8,6.9c3.5,11.9,2.7,26.9,2.7,26.9s21.3-9.4,32.1,19.6l5.8,10.8c0,0,5.2,14.2-2.1,14.2s-15.2,0-15.2,0
	s-7.5-10-0.8-11.3l9.8-0.8"/>
<path class="st2" d="M560.8,560.4"/>
<path class="st2" d="M463.3,556.1"/>
<path class="st1" d="M459.8,511.1c-16.6,5.6-54.4,2-54.4,2s-6.8-5.2-4.7-8.6c6.1,3.8,12.8-2,22,0.7c9.2,2.7,16.2-4.3,17.4-5.5
	c1.2-1.2-3.6-8.8-14.8-11.8c-9.3,5.8-20.4,2.5-23.9,1.5c-3.5-0.9-6.8-6.7-8.3-7.9c-1.5-1.1-4.9-11.4-4.9-11.4s0.1-1.7,5.3-2.6
	c16.1,1.9,39.2-7.4,39.2-7.4s0,0,6.2-6.2c3.3-3.3,10.3-7,16.1-9.8c6.4-3.1,13.6-4.3,20.6-3.4c1.3,0.2,2.3,0.4,2.5,0.5
	c0.6,0.6,4.6-8,6.6-12.4c0.7-1.5,1.2-2.6,1.2-2.6l0.6,1.5l1.5-3.9l0.3,2.4c0,0,8.7-14.3,14.8-10.7c6.1,3.5,9.7,14.7,9.3,21.2
	c-0.4,6.5-0.6,10.9-0.6,10.9l1.1-1l-1.9,4.6l-4,12.1c0,0,5.5,7.3,5.9,14.8l-2,0.6c0,0,5.4,18.8,0.3,21.9l-8.2-6.1l-4.4,9.7l-5.2-5.7
	l-6.2,11.1l-3.9-3.2"/>
<path class="st2" d="M452.1,467c-0.2,1.1-0.3,2.4-0.3,3.7c0,5.8,1.7,10.4,3.9,10.4c2.1,0,3.9-4.7,3.9-10.4c0-2.1-0.2-4.1-0.6-5.7
	L452.1,467z"/>
<path class="st2" d="M393.2,481.7c0,0,10.8-8.4,2.1-14.3c-7.8,0.2-7,2-7,2L393.2,481.7z"/>
<path class="st1" d="M449.5,514.2c0,0-7.9,28.7,13.7,41.9"/>
<path class="st1" d="M623,595.8l-12.2-11.4c0,0-37.6,4.3-42.8-7.8s-8.7-18-8.7-18c-14.2,12.4-48,8.3-56.9,3.5L476,587.2
	c-4.2-20.6-20.3-19-20.3-19l12.6-23.7"/>
<path class="st1" d="M502,560.4l2.8-1.8l1.7,0.9l4.1-1.7l0.9,2.6l7.5-4.2v3.6l7.1-3l-1.7,3.6l7.1-2.9v2.9l5.9-4.2l1.3,2.9l7-3.9
	l0.8,4l7.2-2.4c0,0-0.1,2.2,0,2.2s3.4-1.1,3.4-1.1l2.4,0.9c0,0-7.9,6.9-25,8.1c1,1.6,1,1.6,1,1.6l-3.7-1l-0.5,2.8l-5.9-3.4
	c0,0-12.2-0.4-22.7-4.6C502,560.4,502,560.4,502,560.4z"/>
<path class="st1" d="M511.1,519.6l11.2,1l4-3.2c0,0,0.1,4.8,0.8,4.3c0.6-0.6,10.3-4.3,10.3-4.3l-4.1,4.3l11.4,3"/>
<path class="st1" d="M233.8,546.9l-3.4-7l-11.7-14.5l10.5,70.4l12-7.7l5.5-2.5l14.1-4.1l-6.2-14.5l-8.7-3.2l3.9-9.5l-6.5-13.5
	l-6.5-1.9c0,0-4.1-1-6.8-0.2"/>
<path class="st4" d="M241.7,128.6"/>
<g>
	<path class="st2" d="M819.4,581.5l-127.4-15c0,0,3.2-1.9,2.2-12c3.2,0.8,125.7,16.8,125.7,16.8s-0.8,3.4-0.9,5.2
		S819.4,581.5,819.4,581.5z"/>
	<path class="st2" d="M692.9,568l-12.3,6.7c0,0,13.4-14.7,1.7-30.4c13.3,9.1,13.3,9.1,13.3,9.1S697.1,561.6,692.9,568z"/>
	<polygon class="st2" points="684.4,585.8 689.2,536.5 686.7,533.4 674.5,529.7 671.8,532 666.1,594.7 669,595.9 680.9,592.8 	"/>
	<polygon class="st2" points="671.8,532 649.6,527.3 651.9,524.8 674.5,529.7 	"/>
	<polygon class="st2" points="666.1,594.7 671.8,532 649.6,527.3 645.5,589.5 	"/>
	<g>
		<g>
			<path class="st2" d="M683.5,572.4l-2.9-0.2l-0.4,5.4l-1.8-0.2l-7-5.2l0.3-3.5l7.1,0.6l0.1-1.4l2.1,0.2l-0.1,1.4l2.9,0.2
				L683.5,572.4z M678.5,572l-2.7-0.2c-0.7-0.1-1.5-0.2-2.3-0.3l0,0.1c0.8,0.5,1.4,0.8,2.2,1.3l2.5,1.8l0,0L678.5,572z"/>
			<path class="st2" d="M678.6,557.7c3.7,0.3,6.2,2,5.9,5.1c-0.3,3.1-3.2,4.3-6.6,4c-3.5-0.3-6.2-2-5.9-5.1
				C672.2,558.4,675.2,557.4,678.6,557.7z M678.1,564c2.8,0.2,4.2-0.3,4.3-1.4c0.1-1.1-1.2-1.8-4-2.1c-2.7-0.2-4.1,0.2-4.2,1.4
				C674,562.9,675.3,563.7,678.1,564z"/>
			<path class="st2" d="M685.2,551.8l-2.9-0.2l-0.4,5.4l-1.8-0.2l-7-5.2l0.3-3.5l7.1,0.6l0.1-1.4l2.1,0.2l-0.1,1.4l2.9,0.2
				L685.2,551.8z M680.2,551.3l-2.7-0.2c-0.7-0.1-1.5-0.2-2.3-0.3l0,0.1c0.8,0.5,1.4,0.8,2.2,1.3l2.5,1.8l0,0L680.2,551.3z"/>
		</g>
		<path class="st2" d="M683.3,572.2l-2.9-0.2l-0.4,5l-1.8-0.2l-7-4.9l0.3-3.2l7.1,0.6l0.1-1.4l2.1,0.2l-0.1,1.4l2.9,0.2L683.3,572.2
			z M678.2,571.6l-2.7-0.2c-0.7-0.1-1.5-0.2-2.3-0.3l0,0.1c0.8,0.5,1.4,0.8,2.2,1.3l2.5,1.8l0,0L678.2,571.6z"/>
		<path class="st2" d="M678.3,557.2c3.7,0.3,6.2,2,5.9,5.1c-0.3,3.1-3.2,4.3-6.6,4c-3.5-0.3-6.2-2-5.9-5.1
			C672,558,675,556.9,678.3,557.2z M677.9,563.5c2.8,0.2,4.2-0.3,4.3-1.4c0.1-1.1-1.2-1.8-4-2.1c-2.7-0.2-4.1,0.2-4.2,1.4
			C673.8,562.4,675.1,563.3,677.9,563.5z"/>
		<path class="st2" d="M685,551.5l-2.9-0.2l-0.4,5.1l-1.8-0.2l-7-5l0.3-3.3l7.1,0.6l0.1-1.4l2.1,0.2l-0.1,1.4l2.9,0.2L685,551.5z
			 M680,550.9l-2.7-0.2c-0.7-0.1-1.5-0.2-2.3-0.3l0,0.1c0.8,0.5,1.4,0.8,2.2,1.3l2.5,1.8l0,0L680,550.9z"/>
	</g>
</g>
<path class="st1" d="M198,558.8c0-13,7.7-30,16.2-33.8c8.5-3.9,11.6,18.4,11.6,18.4v17.4L198,558.8z"/>
<path class="st1" d="M228.6,574.9l2.8,14.6c0,0,0.1,5.9-2.2,6.4c-2.3,0.5-22.7,2.8-25.8-1.5c-1-5.4-3.1-20.8-3.1-20.8"/>
<polygon class="st1" points="230,568.2 225.8,560.8 198,558.8 203.1,568.2 200.4,573.6 228.6,574.9 "/>
<ellipse class="st2" cx="819.3" cy="576.4" rx="2" ry="5.1"/>
<g>
	<path class="st2" d="M271.2,448.6l-0.1-3.3l-5.4,0.1l-0.1-2.1l4.4-8.6l3.5-0.1l0.2,8.1l1.5,0l0.1,2.4l-1.5,0l0.1,3.3L271.2,448.6z
		 M271,442.8l-0.1-3.1c0-0.8,0-1.7,0-2.6l-0.1,0c-0.4,0.9-0.7,1.7-1.1,2.6l-1.6,3.1l0,0L271,442.8z"/>
	<path class="st2" d="M287.7,441.2c0.1,4.6-1.5,7.7-5.1,7.8c-3.6,0.1-5.3-3.3-5.4-7.5c-0.1-4.3,1.5-7.7,5.1-7.8
		C286.1,433.7,287.6,437.1,287.7,441.2z M280.5,441.5c0.1,3.4,0.9,5,2.2,5c1.3,0,1.9-1.7,1.8-5.1c-0.1-3.3-0.8-5-2.1-4.9
		C281.1,436.4,280.4,438,280.5,441.5z"/>
	<path class="st2" d="M295.9,448.3l-0.1-3.3l-6.2,0.2l-0.1-2.1l5-8.7l4-0.1l0.2,8.2l1.7,0l0.1,2.5l-1.7,0l0.1,3.3L295.9,448.3z
		 M295.8,442.5l-0.1-3.1c0-0.8,0-1.7,0-2.6l-0.1,0c-0.4,0.9-0.8,1.7-1.2,2.6l-1.8,3.1l0,0L295.8,442.5z"/>
</g>
<g>
	<path class="st2" d="M270.6,449l-0.1-3.3l-5.4,0.1l-0.1-2.1l4.4-8.6l3.5-0.1l0.2,8.1l1.5,0l0.1,2.4l-1.5,0l0.1,3.3L270.6,449z
		 M270.4,443.3l-0.1-3.1c0-0.8,0-1.7,0-2.6l-0.1,0c-0.4,0.9-0.7,1.7-1.1,2.6l-1.6,3.1l0,0L270.4,443.3z"/>
	<path class="st2" d="M287.2,441.7c0.1,4.6-1.5,7.7-5.1,7.8c-3.6,0.1-5.3-3.3-5.4-7.5c-0.1-4.3,1.5-7.7,5.1-7.8
		C285.5,434.1,287.1,437.6,287.2,441.7z M279.9,441.9c0.1,3.4,0.9,5,2.2,5c1.3,0,1.9-1.7,1.8-5.1c-0.1-3.3-0.8-5-2.1-4.9
		C280.6,436.9,279.8,438.5,279.9,441.9z"/>
	<path class="st2" d="M295.3,448.8l-0.1-3.3l-6.2,0.2l-0.1-2.1l5-8.7l4-0.1l0.2,8.2l1.7,0l0.1,2.5l-1.7,0l0.1,3.3L295.3,448.8z
		 M295.2,443l-0.1-3.1c0-0.8,0-1.7,0-2.6l-0.1,0c-0.4,0.9-0.8,1.7-1.2,2.6L292,443l0,0L295.2,443z"/>
</g>
<path class="st2" d="M168.2,449.5l0.2-3.3l-6.1-0.4l0.1-2.1l5.8-8.2l4,0.3l-0.5,8.2l1.7,0.1l-0.2,2.4l-1.7-0.1l-0.2,3.3L168.2,449.5
	z M168.5,443.7l0.2-3.1c0.1-0.8,0.2-1.7,0.3-2.6l-0.1,0c-0.5,0.9-0.9,1.7-1.5,2.5l-2,2.9l0,0L168.5,443.7z"/>
<path class="st2" d="M168.4,449.9l0.2-3.3l-6.1-0.4l0.1-2.1l5.8-8.2l4,0.3l-0.5,8.2l1.7,0.1l-0.2,2.4l-1.7-0.1l-0.2,3.3L168.4,449.9
	z M168.8,444.1l0.2-3.1c0.1-0.8,0.2-1.7,0.3-2.6l-0.1,0c-0.5,0.9-0.9,1.7-1.5,2.5l-2,2.9l0,0L168.8,444.1z"/>
<g>
	<path class="st2" d="M156.6,433.9l-1.6,2.7c0.2-0.1,0.4-0.2,0.7-0.2c1.3,0.1,1.9,1.8,1.7,5.1c-0.2,3.4-1,5-2.3,4.9
		c-1.3-0.1-1.9-1.7-1.7-5.1c0.1-1,0.2-1.9,0.4-2.6l-3.4,5.8c0.5,2.5,2,4.3,4.5,4.5c3.6,0.2,5.5-2.8,5.8-7.3
		C160.9,437.9,159.8,434.5,156.6,433.9z"/>
</g>
<path class="st2" d="M156.4,434.2l-5.9,10.1c0.4,2.8,1.9,4.9,4.6,5.1c3.6,0.2,5.5-2.8,5.8-7.3C161.2,438.2,160,434.6,156.4,434.2z
	 M157.7,441.9c-0.2,3.4-1,5-2.3,4.9c-1.3-0.1-1.9-1.7-1.7-5.1c0.2-3.4,1.1-5,2.3-4.9C157.3,436.9,157.9,438.7,157.7,441.9z"/>
</svg>
