<?xml version="1.0" encoding="utf-8"?>
<!-- Generator: Adobe Illustrator 24.0.1, SVG Export Plug-In . SVG Version: 6.00 Build 0)  -->
<svg version="1.1" id="Layer_1" xmlns="http://www.w3.org/2000/svg" xmlns:xlink="http://www.w3.org/1999/xlink" x="0px" y="0px"
	 viewBox="0 0 878 790.1" style="enable-background:new 0 0 878 790.1;" xml:space="preserve">
<style type="text/css">
	.st0{fill:#666666;}
	.st1{fill:#BBB6BB;stroke:#3B2C5C;stroke-width:0.75;stroke-miterlimit:10;}
	.st2{fill:#BBB6BB;stroke:#3B2C5C;stroke-miterlimit:10;}
	.st3{fill:#E8E7E7;}
	.st4{fill:#615E5F;stroke:#3B2C5C;stroke-width:0.5;stroke-miterlimit:10;}
	.st5{fill:#E8E7E7;stroke:#3B2C5C;stroke-width:0.75;stroke-miterlimit:10;}
	.st6{fill:none;stroke:#3B2C5C;stroke-width:0.75;stroke-miterlimit:10;}
	.st7{fill:#615E5F;}
	.st8{fill:#BBB6BB;}
	.st9{fill:none;stroke:#090B0A;stroke-width:0.5;stroke-miterlimit:10;}
	.st10{fill:#220B0B;}
	.st11{fill:none;stroke:#000000;stroke-miterlimit:10;}
	.st12{fill:none;stroke:#3B2C5C;stroke-miterlimit:10;}
	.st13{fill:#8A4B25;}
	.st14{fill:#CBC7D8;}
	.st15{fill:#9F9AAE;}
	.st16{fill:#878089;}
	.st17{fill:#AFAEBE;}
	.st18{fill:#615E5F;stroke:#3B2C5C;stroke-width:0.75;stroke-miterlimit:10;}
	.st19{fill:#B0ABAF;}
</style>
<g id="Layer_2_1_">
	<rect x="0.1" class="st0" width="881.3" height="790.1"/>
</g>
<polygon class="st1" points="228.9,534.1 275.1,533 275.1,517 "/>
<path class="st2" d="M670.8,597.7l-1.2-2.8c0,0-4.2-4.6-5.2-4.7c-1-0.1-11.3-11.4-11.3-11.4l-2.6-3.3l-2.7-5.7l-3.2,6.8l-0.4-13.3
	l-6.4,4.9l2.3-11.6l-4.2,3.4l0.9-15.5l-5.8,5l1.1-7.9l-7.9,2.7l5.6-8.7h-9.8l2.5-4.7l-6.8-2.5l1.6-3.4l1.4-4l-7.6,1.9
	c0,0,3.2-10.8,3.3-10.9c0.2-0.1-7.5,4.1-7.5,4.1l-0.4-9l-7.1,8.4l-2.7-6.8l-5.3,10.2l-5.6-4.4l-20-7.7l-14.6-4.4l-26.3-3l9-4.8
	l-4.4-3.3l9.5,0.7l-9.5-11.3l15.2-4.1l0.6-0.8L530.6,460l9.6-4.5c0,0-1.2-4.9-8.1-8.3c-6.8-3.4-15.7-2-15.7-2s0.2-9.2-0.5-13
	c-0.7-3.8-1.2-3.9-6.1-11.6c-4.9-7.7-12.4,1.7-12.4,1.7l-5.5,7V427l-1.3,3.2l-0.7-1.3l-6.7,13.8l-1.2,0.7
	c-16.2-3.2-26.9,5.1-31.8,7.7c-4.9,2.7-13.6,11.4-13.6,11.4l-21.8,6.2c0,0-2.3,0.4-8.5,1.1c-6-0.5-13.6,1.2-13.6,1.2l2,6.8l2.9,5.7
	l4.8,5.5c0,0,2,2.1,2.4,1.9c0.4-0.2,7.6,1.9,7.6,1.9l8.4,0.1l8.5-2.8l8.4,3.1l5.7,5l1.3,3.2l-5.2,4.1L434,508l-5.4-0.5l-7.6-1.1
	l-7.9,1.1l-4.7,0.1l-3.1-1.2c0,0,0.1,3.4,0.2,3.6c0.1,0.2,3.4,4.1,3.4,4.1l1.9,0.9l19.4,1l23.7-0.9l-0.8,5.8l-0.5,7.4l0.6,7.6l1,4.2
	l2.9,7.6l-9.3,13.6l-4.8,8.1l-11.5,17l-2.9,5h16.6l-8,11.5h30.5l10.1-11.9l14.6-13.5l14.4-13.6l14,4.2l15.5,0.5l14.4-1.5l4.5,6.2
	c0,0,0.2,1.1,2.9,3.4c2.7,2.3,4.5,2,4.5,2l9-1.4l3.2,4.3l8.9,3.8l19.2,1.9l3.3,8.2l-9.2,0.1l-1.2,1.1l1.1,7.6l1.6,1.2l17.7-0.3
	l0.8-1.1l1.2-5.6l-0.2-9.4l7.2,7.1l2.4,1.6l-4.2,0.6l-1.3,2.2l1.9,6.1l1.8,2.5h13.4l4-0.8l1.3-2.5l0.2-4.7l-1.6-6.2l0.8-0.3l7.5-3.4
	l0.9,6.2l4-4.1l0.2,5.5l3.4-3.6l4.9,5l0.8-4.4l5.9,4.4L670.8,597.7z M616.4,563l-2.2-0.3l-3.7,0.3l-3.5,0.6l-1.6,0.2l0.2-1.8
	l-0.5-9.5l-0.7-7.5l-2.5-9.7l-0.4-2.1l2.6,1.7l0.6,5.2l2.5-0.4l-0.6,6.5l3.8,2.4l-1.5,6.6l5.6-0.6l-2.9,4.4l5.3,1.2L616.4,563z"/>
<path class="st3" d="M603.7,587.4l3.1,7.5h1.4l-0.1,1.4h-10.9c0,0-0.9,0.2-0.5,1.7c0.4,1.5,1.2,5.7,1.2,5.7s-0.1,1.5,2.2,1.2
	c2.4,0,15.1,0,15.1,0s1.1-0.1,1.3-1.2c0.3-1.1,0.9-4,1-6.6s0.3-6.6-0.1-8c-1-0.9-2.5-2.3-2.5-2.3S605.9,587.6,603.7,587.4z"/>
<path class="st1" d="M92.2,552.1c-0.3-0.5-6.8-12.3-7.4-12.5s-14-1.3-14-1.3l7.5,13.7H92.2z"/>
<path class="st4" d="M91.1,529.9c-0.3-0.2-13.4-8.8-13.4-8.8s-17.8,1.4-17.5,1.6c0.3,0.2,12.4,8.7,12.4,8.7l-1.9,7l14,1.3
	L91.1,529.9z"/>
<path class="st1" d="M63.9,491.5c0,0-5.4-5-7.2,3.1s3.6,28,3.6,28l17.3-1.7l13.5,8.9"/>
<path class="st1" d="M118.8,503.2c0,0,32-6.4,39.2-5.2c7.2,1.2,12.5,44.8,12.5,44.8l-40.1-1.8l-29.3-28.5L118.8,503.2"/>
<path class="st1" d="M153.4,503.3l-4.2,21c0,0,13.3,20.8,11.9,21c-1.5,0.2-32.2-2.5-32.2-2.5"/>
<path class="st1" d="M308,535.1l-24.3,33.5l-20.2-10.9c0,0-2.2-11.7-3.1-13s-3.7-9.7-3.7-9.7l19.9-14.5L308,535.1z"/>
<path class="st5" d="M464,513.3c0,0-3.7,22.9,8.7,33c-5.1,9.5-5.1,9.5-5.1,9.5s-19.3-0.7-13.7-40.7C464,513.3,464,513.3,464,513.3z"
	/>
<path class="st5" d="M464,513.3"/>
<polyline class="st5" points="462.9,523.7 464.8,526.9 463.1,527.2 465.7,529.5 463.9,532.2 "/>
<path class="st5" d="M489.3,445.1c0,0,8.7-20.2,14.1-21c5.4-0.8,6.6,26.2,3,36"/>
<polyline class="st5" points="502.2,442.2 503.2,440.8 503.9,443.6 505.9,441.7 "/>
<polyline class="st6" points="498.9,476.5 498.9,483.6 493.1,483 496,488.7 "/>
<path class="st6" d="M582.3,561.4"/>
<polyline class="st6" points="582.3,566.7 589.6,564.5 589.6,569.7 595.9,569.1 "/>
<polyline class="st6" points="480.3,566.8 484.2,563 484.2,559 488,561.2 493.8,561.2 490.9,555.9 "/>
<polyline class="st6" points="406.5,506.9 408.8,504.3 409.7,507.6 "/>
<polyline class="st6" points="409.7,492.4 410.4,495.6 412.5,492.9 "/>
<polyline class="st6" points="429.4,490.2 429.4,493.7 426.8,491.5 426.8,495.9 423.7,492.1 423.7,496.9 420.9,493 "/>
<path class="st6" d="M425.2,506.2c-0.3,0.5,2.5-2.2,2.5-2.2l0.3,3.2l3.2-3.7l1.4,4.2l1.2-4.2l3.4,3.2"/>
<path class="st6" d="M431.7,451.3c0,0,5.2-10.1,13.3-10.5"/>
<path class="st6" d="M426,446c0,0,5.2-10.1,13.3-10.5"/>
<path class="st6" d="M404.1,526.5c0,0-10.2-5-10.7-13.2"/>
<path class="st6" d="M398.9,532.3c0,0-10.2-5-10.7-13.2"/>
<line class="st6" x1="681.5" y1="600.5" x2="689.3" y2="605.5"/>
<line class="st6" x1="667.3" y1="603" x2="662.8" y2="609.9"/>
<line class="st6" x1="648" y1="565.3" x2="646.2" y2="559"/>
<line class="st6" x1="652.6" y1="605.5" x2="655.4" y2="603"/>
<line class="st6" x1="678.7" y1="609.1" x2="681.5" y2="611.2"/>
<path class="st1" d="M278,524.1c1.6,0.5,36.1,4.6,36.1,4.6l0.2-16.2l-39.5-6.8l-3.2,17.3L278,524.1z"/>
<path class="st1" d="M299.9,536.2c0,0,12.9-1.5,13.2-2.1s1-5.4,1-5.4l-47.8-5.8L299.9,536.2"/>
<path class="st1" d="M134.4,545.9l-7.3-24.8l-11.4-2.8l9.4-6.7l-14.8-20L98.3,508l-8.2-0.2c-6.8-2.5-16.5-9.2-26.3-16.3
	c0,0,13.8,25.1,13.7,29.4l7.1,8.5v10.2l7.4,12.4l14.5-4.4l9.4-1.4L134.4,545.9z"/>
<path class="st6" d="M92.2,552.1H78.3l-7.5-13.7l2.1-6.8c-1.3-1.3-12.6-8.9-12.6-8.9"/>
<line class="st1" x1="70.8" y1="538.4" x2="84.7" y2="539.7"/>
<path class="st1" d="M255.9,536.4l3,5.1l12.8,3.7l5.5-6.2c0,0-11-5.7-13.2-5.9C261.8,532.9,255.9,536.4,255.9,536.4z"/>
<path class="st1" d="M259.1,533.3l3,5.1l12.8,3.7l5.9-7.8c0,0-11.5-4-13.7-4.3S259.1,533.3,259.1,533.3z"/>
<path class="st1" d="M261.3,530.2l3,5.1l12.8,3.7l5.2-6.7c0,0-10.7-5.2-12.9-5.4S261.3,530.2,261.3,530.2z"/>
<polygon class="st1" points="261.2,579.3 290.2,569.8 267.3,551.1 259.4,529.3 240.2,543.1 250,578.3 "/>
<polygon class="st1" points="202.7,454.3 219.8,448.2 262.6,431.9 269.1,445.9 212,467.6 203.8,459.5 "/>
<polygon class="st1" points="261.6,501.3 211.9,469 197.2,476.3 199.7,506.2 255.6,510.9 "/>
<path class="st1" d="M226.7,492.2c-1-0.6-16.3-10-16.3-10l-8.2,4.4"/>
<polyline class="st1" points="209.6,452 214.5,456.3 261.6,438 "/>
<polygon class="st1" points="212,468.2 245.3,455.6 263.5,448.7 250.9,497.8 "/>
<polygon class="st1" points="212,468.2 201,457.1 192.6,472.6 193.8,475.8 196,476.6 "/>
<polygon class="st1" points="310.8,463.4 313.1,493.7 288.6,500.2 300.9,463.4 "/>
<polygon class="st1" points="314.3,512.5 281.2,506.8 291.3,492.2 313.1,493.7 "/>
<path class="st1" d="M124.7,506.1l7.2-5.2l27.9-1.2l0,0c-7.6,7.4-18.4,6-28.9,6.4L124.7,506.1z"/>
<path class="st1" d="M124.3,501.3l7.8-4.3l27.9,2h0c-8.5,6.5-19,3.8-29.4,3L124.3,501.3z"/>
<path class="st1" d="M128.3,497.1l8.1-3.6l27.6,4.5h0c-9,5.7-19.2,2.1-29.5,0.3L128.3,497.1z"/>
<path class="st1" d="M241.5,482.3l4.9-9.9l52.2,15.1l-17,24.9C281.6,512.4,267.6,513.9,241.5,482.3"/>
<path class="st7" d="M198.2,481.1c1.1,0.1,3.3,0.2,4.2,0.3c4.5,0.5,7.2,1.2,7.2,2c0,1.6-12.6,3-28.2,3s-28.2-1.3-28.2-3
	c0-0.8,3.1-1.5,8.1-2.1"/>
<polygon class="st1" points="160.2,486.7 160.2,472.3 196.9,470.5 199,487.9 "/>
<polyline class="st8" points="165.6,527.9 179.1,506.4 158.1,502.2 165.4,529.6 "/>
<g>
	<path class="st8" d="M154.1,296.1v26.3l1.6,60.8v26.3l48.2,47.9v-1.8l126.2-47.9l13-6.2V292c0,0,5.8-63.1-112.9-62l-11.6,2
		C157.9,241,154.1,296.1,154.1,296.1"/>
	<path class="st8" d="M203.9,431"/>
</g>
<path class="st1" d="M199.7,342.1c3.6-51.1,25-140.7,25-140.7l4.7,28.5c118.7-1.1,112.9,62,112.9,62v109.4l-13,6.2"/>
<path class="st9" d="M286.8,503.4c1.8,3.5,2.3,6.3,1,7.8c-3.3,3.9-16.8-1.9-30.2-13.1c-13.4-11.2-21.6-23.4-18.3-27.4
	c1.4-1.7,4.6-1.6,8.8-0.1"/>
<path class="st9" d="M238,475.2c-2.4-0.8-4.3-0.7-5.5,0.3c-3.8,3.5,2.8,16.7,14.7,29.5s24.5,20.3,28.3,16.8c1-0.9,1.3-2.5,0.9-4.6"
	/>
<path class="st1" d="M238.6,473.2l-3.9,13.9c0,0,8.9,20.2,32.4,33.8l20.7-9.4c0,0-1,1.8-8.2,0C272.2,509.7,242.5,489.4,238.6,473.2z
	"/>
<path class="st9" d="M241.5,481.4"/>
<path class="st1" d="M154.6,458.9l-4.1,9.4c24,14.2,51.7,1,51.7,1l-1.9-13.3L154.6,458.9"/>
<path class="st1" d="M203.8,457.4l-0.2,4.3c0,0-40.4-1.5-51.8-3.2c-1.6-0.2-2.6-0.5-2.6-0.8c-0.5-2.1,12.7-23.2,12.7-23.2
	s7.7-1.5,11.3-7.4"/>
<path class="st4" d="M207.2,491.6c1.6,0.4,2.4,0.8,2.4,1.2c0,1.6-12.6,3-28.2,3s-28.2-1.3-28.2-3c0-0.5,1-0.9,2.9-1.3"/>
<path class="st1" d="M153.2,492.9l4.4,12.5c4.7,0.9,12.9,1.4,23.8,1.4c10.7,0,18.2-0.3,23-1.2l5.1-12.3c0-0.1-0.1-0.3-0.2-0.2
	C207.3,494.1,196.1,498.6,153.2,492.9C153.2,492.8,153.2,492.9,153.2,492.9z"/>
<path class="st1" d="M206.7,494l0.6-2.4l2.3-8.7c0-0.1-0.1-0.2-0.2-0.2c-1.6,0.9-9.9,4.2-49.1,1.7c0,0-4.7-0.6-6.4-1.5
	c-0.2-0.1-0.4,0.1-0.3,0.3l2.5,8.4l0.6,1.6C156.5,493.1,190.6,497.9,206.7,494z"/>
<path class="st1" d="M260.7,457.4l-16.5,9.1c0,0,5.6,27.6,61,19v-14"/>
<path class="st1" d="M258.6,435.3c0,0,11.9,2.2,2,19.2c0.5,9.7,2,17,2,17H308c0,0,19.1-44.5-14.6-54.1"/>
<path class="st4" d="M238.6,471.8c0,0,0.8-3.3,6.5-2.2l1.4,1.7l-4.6,9.2C241.9,480.6,238.3,474.5,238.6,471.8z"/>
<path class="st4" d="M286.5,504.2c0,0,7.7,9.9-5.3,7.4C283.5,508.7,286.5,504.2,286.5,504.2z"/>
<path class="st4" d="M231.7,478c0,0,1.3-5.4,6.1-2.1l-3.1,10.7L231.7,478z"/>
<path class="st4" d="M268.7,520.2l7.8-3.8c0,0,1.7,3.8-3,6.1L268.7,520.2z"/>
<path class="st9" d="M258.6,524.8c0,0-28.2-14.6-31.5-29.2"/>
<path class="st1" d="M258.6,524.8c4.3,1.7-9.2,0.6-10.9,1.5l0.4,2.3c0,0-17.3,5.5-24.6,9.7c0,0,3.3-20.5-10-33.3c0,0,2.3-2.3,7-3.7
	c2.9-0.8,6.7-4.3,7.9-6.8C228.3,494.5,235.9,515.8,258.6,524.8z"/>
<path class="st1" d="M231.3,478l-5,14.7c0,0,2.9,18.4,32.3,32.1l15-2.1c0.1,0,0.2-0.2,0-0.3c-4.4-1.8-37.1-16.4-41.9-44.4
	C231.6,477.8,231.3,477.8,231.3,478z"/>
<path class="st1" d="M212,463.4"/>
<polygon class="st1" points="329.4,380.3 203.2,428.2 203.2,454.5 329.4,406.6 "/>
<polygon class="st1" points="329.4,355.1 203.2,403 203.2,429.3 329.4,381.4 "/>
<polygon class="st1" points="327.8,293.2 201.6,341.2 201.6,367.4 327.8,319.5 "/>
<polygon class="st1" points="155,380.1 203.2,428.2 202.7,454.3 155,408.4 "/>
<polygon class="st1" points="155,353.9 203.2,403 203.2,428.1 155,380.1 "/>
<polygon class="st1" points="153.4,295.1 201.6,341.2 201.6,367.4 153.4,321.3 "/>
<path class="st1" d="M153.4,295.1c0,0,3.8-55.1,64.5-64.1"/>
<path class="st1" d="M329.4,406.6"/>
<line class="st1" x1="155" y1="353.9" x2="153.4" y2="321.3"/>
<line class="st1" x1="329.4" y1="355.1" x2="327.8" y2="319.5"/>
<path class="st5" d="M442.7,570l-14,21.5l16.3,0.4l13.3-19.2C458.2,572.7,452.1,567.5,442.7,570z"/>
<path class="st5" d="M480.4,589c0,0-2.8-19-20.3-19c-12.3,17.8-22.9,33.1-22.9,33.1h30.5L480.4,589"/>
<polygon class="st10" points="154.1,321.4 155,354.5 203.3,403.4 329.1,355.3 327.8,319.8 201.6,367.4 "/>
<path class="st5" d="M632.1,574.2l3,5.2l2,4.7l4.4,8.2l2.6,5.8l0.6,6.5l-1.5,3.7l-4.8,0.8h-12.8c0,0-3.9-6.2-3.5-8s1.3-2.8,1.3-2.8
	l3.8-0.7l-12.2-11.4l1.2-0.8c5.5-3.4,10.5-7.7,14.8-12.6l0,0L632.1,574.2z"/>
<ellipse class="st1" cx="204.8" cy="532" rx="19" ry="29.6"/>
<ellipse class="st1" cx="184.4" cy="531.5" rx="19" ry="29.6"/>
<path class="st1" d="M126.5,499.8"/>
<path class="st6" d="M516.5,445.2c23.7-0.8,23.3,10.6,23.3,10.6s-10.5,4.1-9.8,4.9c0.8,0.8,14.9,14.7,15.2,15.4
	c0.3,0.8-16.2,4.6-16.2,4.6l10,11.6l-9.8-1l4.4,3.3l-8.9,4.7c38.4,0.2,66.8,19.3,66.8,19.3l5.6-10.7l2.4,7.3l2.6-3.1l5-5.9v9.8
	l8-4.7l-4.3,11.3l8.6-2.1l-3.5,7.5l7.1,2.7l-2.9,4.6h9.8l-5.8,9l8-2.9l-1.2,8.3l5.8-5.4l-1,16.1l4.2-4l-2.5,12.4l7-6.1v14.4l3.7-7.3
	l4.5,11.2l6.5-9.3V584l8.3-1.4l-2.2,4.7l14.1-0.8l-10.9,6.1l3.5,7.9l-6.9-5.2l-0.3,5.2l-4.7-5.6l-3.6,4.2l-0.3-6.5l-4,4.7l-0.9-6.2
	l-8.5,3.8"/>
<path class="st11" d="M597.1,528.6"/>
<path class="st11" d="M604.6,546.3"/>
<path class="st12" d="M615.8,563.6l0.6-3.5l-5-1l2.9-4.4l-5.6,0.6l1.5-6.6l-3.8-2.4l0.6-6.5l-2.5,0.4l-0.6-5.2l-4.5-4.2
	c1.2,2,2.1,4.4,2.8,6.9c3.5,11.8,2.7,26.9,2.7,26.9s21.3-9.4,32,19.6l5.8,10.8c0,0,5.1,14.1-2.1,14.1s-15.2,0-15.2,0
	s-7.5-10-0.8-11.3l9.8-0.8"/>
<path class="st11" d="M565.1,562.2"/>
<path class="st11" d="M467.7,557.9"/>
<path class="st6" d="M464.2,513c-16.6,5.6-54.3,2-54.3,2s-6.8-5.1-4.6-8.6c6.1,3.7,12.8-2,22,0.7c9.2,2.7,16.2-4.3,17.4-5.5
	c1.2-1.2-3.5-8.8-14.8-11.8c-9.3,5.8-20.4,2.5-23.8,1.5c-3.5-0.9-6.8-6.7-8.3-7.8c-1.5-1.1-4.9-11.4-4.9-11.4s0.1-1.7,5.3-2.6
	c16.1,1.9,39.1-7.4,39.1-7.4s0,0,6.1-6.1c3.3-3.3,10.3-7,16.1-9.8c6.4-3.1,13.6-4.3,20.6-3.4c1.3,0.2,2.3,0.4,2.5,0.5
	c0.6,0.6,4.6-7.9,6.6-12.4c0.7-1.5,1.2-2.6,1.2-2.6l0.6,1.5l1.5-3.9l0.3,2.4c0,0,8.7-14.2,14.8-10.7s9.7,14.7,9.3,21.2
	c-0.4,6.5-0.6,10.9-0.6,10.9l1.1-1l-1.9,4.6l-4,12.1c0,0,5.5,7.3,5.9,14.8l-2,0.6c0,0,5.4,18.8,0.3,21.8l-8.2-6.1l-4.4,9.6l-5.1-5.7
	l-6.2,11.1l-3.9-3.2"/>
<path d="M456.5,468.9c-0.2,1.1-0.3,2.4-0.3,3.7c0,5.8,1.7,10.4,3.9,10.4c2.1,0,3.9-4.7,3.9-10.4c0-2.1-0.2-4.1-0.6-5.7L456.5,468.9z
	"/>
<path d="M397.7,483.6c0,0,10.7-8.4,2.1-14.2c-7.8,0.2-7,2-7,2L397.7,483.6z"/>
<path class="st6" d="M454,516.1c0,0-7.9,28.7,13.7,41.8"/>
<path class="st6" d="M627.3,597.6l-12.2-11.4c0,0-37.6,4.3-42.7-7.8c-5.1-12.1-8.7-18-8.7-18c-14.2,12.3-47.9,8.3-56.8,3.5
	L480.4,589c-4.2-20.6-20.3-19-20.3-19l12.6-23.6"/>
<path class="st5" d="M506.4,562.2l2.8-1.8l1.7,0.9l4.1-1.7l0.9,2.6l7.5-4.2v3.6l7.1-3l-1.7,3.6l7.1-2.9v2.9l5.9-4.2l1.3,2.9l6.9-3.9
	l0.8,4l7.2-2.4c0,0-0.1,2.2,0,2.2c0.1,0,3.4-1.1,3.4-1.1l2.4,0.9c0,0-7.9,6.9-25,8c1,1.6,1,1.6,1,1.6l-3.7-1l-0.5,2.8l-5.9-3.4
	c0,0-12.2-0.4-22.7-4.6C506.4,562.2,506.4,562.2,506.4,562.2z"/>
<path class="st6" d="M515.4,521.4l11.1,1l4-3.2c0,0,0.1,4.8,0.8,4.3s10.3-4.3,10.3-4.3l-4.1,4.3l11.3,3"/>
<path class="st1" d="M238.6,548.7l-3.4-7l-11.6-14.4l10.5,70.3l12-7.7l5.5-2.5l14.1-4.1l-6.2-14.5l-8.7-3.2l3.9-9.5l-6.5-13.4
	l-6.5-1.9c0,0-4.1-1-6.8-0.2"/>
<g>
	<path class="st13" d="M823.3,583.3l-127.3-15c0,0,3.2-1.9,2.2-12c3.2,0.8,125.5,16.7,125.5,16.7s-0.8,3.4-0.9,5.2
		C822.8,580,823.3,583.3,823.3,583.3z"/>
	<path class="st14" d="M697,569.8l-12.3,6.7c0,0,13.3-14.7,1.7-30.3c13.3,9.1,13.3,9.1,13.3,9.1S701.2,563.4,697,569.8z"/>
	<polygon class="st15" points="688.5,587.6 693.3,538.3 690.9,535.3 678.7,531.6 676,533.8 670.3,596.5 673.1,597.7 685,594.6 	"/>
	<polygon class="st15" points="676,533.8 653.8,529.2 656.1,526.7 678.7,531.6 	"/>
	<polygon class="st14" points="670.3,596.5 676,533.8 653.8,529.2 649.7,591.3 	"/>
	<g>
		<g>
			<path class="st16" d="M687.6,574.2l-2.9-0.2l-0.4,5.4l-1.8-0.2l-7-5.2l0.3-3.5l7.1,0.6l0.1-1.4l2.1,0.2l-0.1,1.4l2.9,0.2
				L687.6,574.2z M682.6,573.8l-2.7-0.2c-0.7-0.1-1.5-0.2-2.2-0.3l0,0.1c0.8,0.5,1.4,0.8,2.2,1.3l2.5,1.8l0,0L682.6,573.8z"/>
			<path class="st16" d="M682.7,559.5c3.7,0.3,6.2,2,5.9,5.1c-0.3,3.1-3.2,4.3-6.6,4c-3.5-0.3-6.2-2-5.9-5.1
				C676.4,560.2,679.4,559.2,682.7,559.5z M682.3,565.8c2.8,0.2,4.2-0.3,4.2-1.4c0.1-1.1-1.2-1.8-4-2.1c-2.7-0.2-4.1,0.2-4.2,1.4
				C678.2,564.7,679.4,565.5,682.3,565.8z"/>
			<path class="st16" d="M689.3,553.6l-2.9-0.2l-0.4,5.4l-1.8-0.2l-7-5.2l0.3-3.5l7.1,0.6l0.1-1.4l2.1,0.2l-0.1,1.4l2.9,0.2
				L689.3,553.6z M684.3,553.2l-2.7-0.2c-0.7-0.1-1.5-0.2-2.2-0.3l0,0.1c0.8,0.5,1.4,0.8,2.2,1.3l2.5,1.8l0,0L684.3,553.2z"/>
		</g>
		<path class="st17" d="M687.5,574l-2.9-0.2l-0.4,5l-1.8-0.2l-7-4.9l0.3-3.2l7.1,0.6l0.1-1.4l2.1,0.2l-0.1,1.4l2.9,0.2L687.5,574z
			 M682.4,573.3l-2.7-0.2c-0.7-0.1-1.5-0.2-2.2-0.3l0,0.1c0.8,0.5,1.4,0.8,2.2,1.3l2.5,1.8l0,0L682.4,573.3z"/>
		<path class="st17" d="M682.5,559c3.7,0.3,6.2,2,5.9,5.1c-0.3,3.1-3.2,4.3-6.6,4c-3.5-0.3-6.2-2-5.9-5.1
			C676.2,559.8,679.2,558.7,682.5,559z M682,565.3c2.8,0.2,4.2-0.3,4.2-1.4c0.1-1.1-1.2-1.8-4-2.1c-2.7-0.2-4.1,0.2-4.2,1.4
			C678,564.2,679.2,565.1,682,565.3z"/>
		<path class="st17" d="M689.1,553.4l-2.9-0.2l-0.4,5.1l-1.8-0.2l-7-5l0.3-3.3l7.1,0.6l0.1-1.4l2.1,0.2l-0.1,1.4l2.9,0.2
			L689.1,553.4z M684.1,552.7l-2.7-0.2c-0.7-0.1-1.5-0.2-2.2-0.3l0,0.1c0.8,0.5,1.4,0.8,2.2,1.3l2.5,1.8l0,0L684.1,552.7z"/>
	</g>
</g>
<path class="st1" d="M202.8,560.6c0-13,7.7-29.9,16.2-33.8c8.5-3.9,11.6,18.4,11.6,18.4v17.3L202.8,560.6z"/>
<path class="st1" d="M233.4,576.7l2.8,14.6c0,0,0.1,5.9-2.2,6.4c-2.3,0.5-22.6,2.8-25.7-1.5c-1-5.4-3.1-20.8-3.1-20.8"/>
<polygon class="st18" points="234.7,570 230.6,562.6 202.8,560.6 207.9,570 205.2,575.3 233.4,576.7 "/>
<ellipse class="st13" cx="823.2" cy="578.2" rx="2" ry="5.1"/>
<g>
	<path class="st7" d="M275.9,450.5l-0.1-3.3l-5.4,0.1l-0.1-2.1l4.4-8.6l3.5-0.1l0.2,8.1l1.5,0l0.1,2.4l-1.5,0l0.1,3.3L275.9,450.5z
		 M275.7,444.8l-0.1-3.1c0-0.8,0-1.7,0-2.6l-0.1,0c-0.4,0.9-0.7,1.7-1.1,2.6l-1.6,3.1l0,0L275.7,444.8z"/>
	<path class="st7" d="M292.4,443.2c0.1,4.5-1.5,7.7-5.1,7.8c-3.6,0.1-5.3-3.3-5.4-7.5c-0.1-4.3,1.5-7.7,5.1-7.8
		C290.8,435.6,292.3,439.1,292.4,443.2z M285.2,443.4c0.1,3.4,0.9,5,2.2,5c1.3,0,1.9-1.7,1.8-5.1c-0.1-3.3-0.8-5-2.1-4.9
		C285.8,438.4,285.1,440,285.2,443.4z"/>
	<path class="st7" d="M300.6,450.3l-0.1-3.3l-6.2,0.2l-0.1-2.1l5-8.7l4-0.1l0.2,8.2l1.7,0l0.1,2.4l-1.7,0l0.1,3.3L300.6,450.3z
		 M300.4,444.5l-0.1-3.1c0-0.8,0-1.7,0-2.6l-0.1,0c-0.4,0.9-0.8,1.7-1.2,2.6l-1.8,3.1l0,0L300.4,444.5z"/>
</g>
<g>
	<path class="st19" d="M275.3,451l-0.1-3.3l-5.4,0.1l-0.1-2.1l4.4-8.6l3.5-0.1l0.2,8.1l1.5,0l0.1,2.4l-1.5,0l0.1,3.3L275.3,451z
		 M275.1,445.3l-0.1-3.1c0-0.8,0-1.7,0-2.6l-0.1,0c-0.4,0.9-0.7,1.7-1.1,2.6l-1.6,3.1l0,0L275.1,445.3z"/>
	<path class="st19" d="M291.8,443.6c0.1,4.5-1.5,7.7-5.1,7.8c-3.6,0.1-5.3-3.3-5.4-7.5c-0.1-4.3,1.5-7.7,5.1-7.8
		C290.2,436.1,291.7,439.6,291.8,443.6z M284.6,443.9c0.1,3.4,0.9,5,2.2,5c1.3,0,1.9-1.7,1.8-5.1c-0.1-3.3-0.8-5-2.1-4.9
		C285.3,438.8,284.5,440.5,284.6,443.9z"/>
	<path class="st19" d="M300,450.7l-0.1-3.3l-6.2,0.2l-0.1-2.1l5-8.7l4-0.1l0.2,8.2l1.7,0l0.1,2.4l-1.7,0l0.1,3.3L300,450.7z
		 M299.8,444.9l-0.1-3.1c0-0.8,0-1.7,0-2.6l-0.1,0c-0.4,0.9-0.8,1.7-1.2,2.6l-1.8,3.1l0,0L299.8,444.9z"/>
</g>
<path class="st7" d="M173,451.5l0.2-3.3l-6.1-0.4l0.1-2.1l5.8-8.2l4,0.3l-0.5,8.2l1.7,0.1l-0.2,2.4l-1.7-0.1l-0.2,3.3L173,451.5z
	 M173.4,445.7l0.2-3.1c0.1-0.8,0.2-1.7,0.3-2.6l-0.1,0c-0.5,0.9-0.9,1.7-1.5,2.5l-2,2.9l0,0L173.4,445.7z"/>
<path class="st19" d="M173.3,451.9l0.2-3.3l-6.1-0.4l0.1-2.1l5.8-8.2l4,0.3l-0.5,8.2l1.7,0.1l-0.2,2.4l-1.7-0.1l-0.2,3.3
	L173.3,451.9z M173.7,446.1l0.2-3.1c0.1-0.8,0.2-1.7,0.3-2.6l-0.1,0c-0.5,0.9-0.9,1.7-1.5,2.5l-2,2.9l0,0L173.7,446.1z"/>
<g>
	<path class="st7" d="M161.5,435.9l-1.6,2.7c0.2-0.1,0.4-0.2,0.7-0.2c1.3,0.1,1.9,1.8,1.7,5.1c-0.2,3.3-1,5-2.3,4.9
		c-1.2-0.1-1.9-1.7-1.7-5.1c0.1-1,0.2-1.9,0.4-2.6l-3.4,5.8c0.5,2.5,2,4.3,4.5,4.5c3.6,0.2,5.5-2.8,5.8-7.3
		C165.8,439.9,164.7,436.5,161.5,435.9z"/>
</g>
<path class="st19" d="M161.3,436.2l-5.9,10.1c0.4,2.8,1.9,4.9,4.6,5.1c3.6,0.2,5.5-2.8,5.8-7.3C166.1,440.1,164.9,436.6,161.3,436.2
	z M162.5,443.9c-0.2,3.3-1,5-2.3,4.9c-1.2-0.1-1.9-1.7-1.7-5.1c0.2-3.4,1.1-5,2.3-4.9C162.2,438.9,162.7,440.7,162.5,443.9z"/>
</svg>
