<?xml version="1.0" encoding="utf-8"?>
<!-- Generator: Adobe Illustrator 24.0.1, SVG Export Plug-In . SVG Version: 6.00 Build 0)  -->
<svg version="1.1" id="Layer_1" xmlns="http://www.w3.org/2000/svg" xmlns:xlink="http://www.w3.org/1999/xlink" x="0px" y="0px"
	 viewBox="0 0 878 790.1" style="enable-background:new 0 0 878 790.1;" xml:space="preserve">
<style type="text/css">
	.st0{fill:#666666;}
	.st1{fill:#090A0C;}
	.st2{fill:url(#SVGID_1_);}
	.st3{fill:#2E3239;}
	.st4{fill:#140E0A;}
	.st5{fill:url(#SVGID_2_);}
	.st6{fill:#2B307B;}
	.st7{fill:#373D90;}
	.st8{fill:#ECE200;}
	.st9{fill:#E8E9E3;}
	.st10{fill:#F0F1EA;}
	.st11{fill:#BEBEB9;}
	.st12{fill:#FFFFFF;}
	.st13{fill:url(#SVGID_3_);}
	.st14{opacity:0.26;fill:#45454C;}
	.st15{fill:none;stroke:#FFFFFF;stroke-linecap:round;stroke-miterlimit:10;}
	.st16{fill:#0C2B2A;}
	.st17{fill:#6EA9A6;}
	.st18{fill:url(#SVGID_8_);}
	.st19{opacity:0.47;fill:#E7E7EF;}
	.st20{fill:#B1764A;stroke:#000000;stroke-miterlimit:10;}
	.st21{fill:#1A1E24;}
	.st22{fill:url(#SVGID_9_);}
	.st23{fill:url(#SVGID_10_);}
	.st24{fill:#181831;}
	.st25{fill:#B1764A;}
	.st26{fill:#101021;}
	.st27{fill:#DBDBDB;}
	.st28{fill:#995B2F;}
	.st29{fill:#231A14;}
	.st30{fill:#FFFFFF;stroke:#000000;stroke-miterlimit:10;}
	.st31{fill:#130D10;}
	.st32{fill:#ABACA7;}
	.st33{fill:#999A94;}
	.st34{fill:#AAABA3;}
	.st35{fill:#C9C8C7;}
	.st36{fill:#2D2F4D;}
	.st37{fill:#51555B;}
	.st38{fill:#1E2023;}
	.st39{fill:#2C3239;}
	.st40{fill:none;stroke:#000000;stroke-linecap:round;stroke-miterlimit:10;}
	.st41{fill:url(#SVGID_11_);}
	.st42{fill:url(#SVGID_12_);}
</style>
<g id="Layer_2_1_">
	<rect x="-3.3" y="0" class="st0" width="881.3" height="790.1"/>
</g>
<g>
	<path class="st1" d="M211.7,577.4l-4.2-8.1c0,0,4.7,3.3,5.1,4.4C212,575.9,211.7,577.4,211.7,577.4"/>
	
		<linearGradient id="SVGID_1_" gradientUnits="userSpaceOnUse" x1="1925.1464" y1="3853.2703" x2="2051.0254" y2="3853.2703" gradientTransform="matrix(0.5453 -0.8382 -0.8382 -0.5453 2379.052 4304.7368)">
		<stop  offset="0" style="stop-color:#AC97C7"/>
		<stop  offset="0.2233" style="stop-color:#6AB1C5;stop-opacity:0.8"/>
		<stop  offset="0.3976" style="stop-color:#AECF91;stop-opacity:0.6"/>
		<stop  offset="0.6027" style="stop-color:#F9D948;stop-opacity:0.4"/>
		<stop  offset="0.8054" style="stop-color:#F08744;stop-opacity:0.2"/>
		<stop  offset="0.9256" style="stop-color:#E62462;stop-opacity:0.1"/>
	</linearGradient>
	<path class="st2" d="M297.2,503.4c0,0-201.2,34.7-54.8,102.4C143.1,575.2,129.3,531.3,297.2,503.4z"/>
	<path class="st3" d="M388.9,596.3v-19.2c0,0-19-6.4-27-6.3s-28.2,4.8-28.2,4.8s-9,9.2,0,15.7c11.1,0,18.2-4.4,23.2-1.2
		c5,3.2,9.6,11.5,9.6,16.5C369.9,606.3,388.9,596.3,388.9,596.3z"/>
	
		<ellipse transform="matrix(0.7934 -0.6087 0.6087 0.7934 -152.8602 393.1798)" class="st4" cx="502.8" cy="421.8" rx="11.1" ry="6.7"/>
	<radialGradient id="SVGID_2_" cx="362.6053" cy="310.5763" r="229.3348" gradientUnits="userSpaceOnUse">
		<stop  offset="0" style="stop-color:#AC97C7"/>
		<stop  offset="0.2233" style="stop-color:#6AB1C5;stop-opacity:0.8"/>
		<stop  offset="0.3976" style="stop-color:#AECF91;stop-opacity:0.6"/>
		<stop  offset="0.6027" style="stop-color:#F9D948;stop-opacity:0.4"/>
		<stop  offset="0.8054" style="stop-color:#F08744;stop-opacity:0.2"/>
		<stop  offset="0.9261" style="stop-color:#E62462;stop-opacity:0"/>
	</radialGradient>
	<circle class="st5" cx="362.6" cy="310.6" r="229.3"/>
	<path class="st6" d="M441.5,314.9c0,0-2.8,7.4-19.6,2.1c-5-2.4-8.1-3.7-9.8-5.4c2.4,0.9,2.5,1.1,7.7,0.5c5.2-0.6-1.2-2,7.7-0.2
		c9,1.8,14.3,1.9,14.3,1.9S442.4,314.1,441.5,314.9z"/>
	<path class="st7" d="M415.7,303.4c0,0-7.2-0.9-8.2-1.6s-3.6-2.9-4.1-2.9c-0.5,0-0.5,0-0.5,0s0.4,6.7,8,11.7c7.6,5,9.3-0.2,15.9,1.4
		c6.6,1.6,12.5,3.3,14.7,1.8c-3.1-0.4-5.3,0.1-7.6-1.3s-3.5-2.7-3.5-2.7s0.6-2.1,0.7-4.6c0.1-1.7-0.1-6.6-0.3-9.5
		c-0.1-1.2-0.5-2.3-1.4-3.2c-0.4-0.4-0.9-1-1.3-1.8c-1.2-2.1-4.6-3-4.6-3s-2.4-0.9-3.2-1.5c-0.8-0.6-4,0.1-4,0.1s2.8,1.1,3.6,2.7
		c0.8,1.6,3.5,2.2,3.5,2.2s1.6,1.8,0.3,3.2S417,301,417,301S415.1,302,415.7,303.4z"/>
	<g>
		<polygon class="st8" points="419.8,305.8 418.4,304.8 416.4,304.9 417.5,304.2 416.1,303.2 418.2,303.8 419.3,303.1 419.5,304.1 
			420.5,304.5 419.6,304.7 		"/>
		<polygon class="st8" points="419.6,307.1 418.3,305.3 416.2,305.9 417.5,304.2 416.3,302.4 418.3,303.1 419.6,301.4 419.6,303.6 
			421.7,304.3 419.6,304.9 		"/>
	</g>
	<polygon class="st8" points="417.3,310.4 417.2,309.3 416.2,309.3 417.2,308.7 417.1,307.6 417.8,308.3 418.8,307.6 418.3,308.7 
		419,309.4 417.9,309.3 	"/>
	<polygon class="st8" points="430,311.9 429.1,311.4 428,311.6 428.5,311.1 427.6,310.5 428.8,310.7 429.3,310.2 429.6,310.9 
		430.8,311.1 429.7,311.3 	"/>
	<g>
		<path class="st8" d="M428.1,291.3l0.6,1.1l-0.9,0.9l1.2-0.2l0.6,1.1l0.2-1.2l0.2,0C429.4,292.2,428.6,291.6,428.1,291.3
			L428.1,291.3z"/>
	</g>
	<g>
		<path class="st9" d="M388.1,331.8c0,0,1,0.8,1.6,1.7c0.2,0.4,0.3,0.9,0,1.2c-1,1.8-2.4,7.7-2.4,7.7s0.8,1.3,0.3,3.7
			c-1.1-0.2-6.5,2.3-6.5,2.3l0.3-3.5l3-1.8l2-9.7l-10.4-5.9l-1.3-1.6c0,0-3.4-0.2-10.4-0.4c-7-0.3-11.4-5.2-13.6-6.8
			c-2.5-1.4-8.5-2.4-12.7-1.7c-3.9,2.6-15.6,7.2-15.9,7.4c-0.3,0.1-0.6,1.1-4.2,2.8c-1.5,0.7-4.9,3.7-7.4,6.6
			c-2.2,1.8-3.5,3.1-3.5,3.1l-3.2-1.6l11.8-11.4c0,0,0.4-1.4,2.8-3.4c1.9-0.4,5.5-5.8,5.5-5.8l0.7-4c0.6-15.8,8.7-18.1,8.7-18.1
			s11.6-1.8,19.6,2.7c11.9,6.4,16.9,4,21.9,2.6c2-0.5,6.9-2.1,6.9-2.1s14.2-2.4,23-2.8c7.3-1.4,11.1,1,11.1,1l2.2,1.8
			c0,0,0.1,2,0.3,4.4c-0.3,1.6,2.9,11.3,3,12.1c0.1,0.8-0.8,2.7-4.4,4.3c-4.3,0.2-3.5-3.1-3.5-3.1s-3-3-4.7-5.4
			c-2.2,0-4.6-3.7-4.6-3.7l-7.8,6.6c-1.9,4.8-4.6,6.6-4.6,6.6s-2,2.1-0.2,5.2c1.8,3,5,8.3,5.1,9.3s4.3,4.8,4.9,5.3s5.4,6.1,5.4,6.1
			s3.2,2,3.1,2.2s-1.5,2.6-1.5,2.6s-3.4-1.2-4.1-2.5c-0.7-1.3-5.2-5.5-6.4-5.8c-1.2-0.3-2.6-1.8-2.8-2.5c-0.2-0.7-4.6-4.2-4.6-4.2
			l-14.2-9"/>
	</g>
	<path class="st10" d="M348.5,318.1c0,0-6.6,4.6-6.7,5.1c0,0.8,5.6,10.6,7.7,11.7c-0.4,1.9-0.8,2.2-0.8,2.2l-1.2,4.1l-3.1-2.1
		c0,0,1.5-2,1.2-2.5c0,0-7.1-11.4-8.6-12.2c-0.7-1.5-0.1-3.2,1.2-4.2c1.3-1,3.1-3.1,3.1-3.1"/>
	<path class="st10" d="M341.3,317c0,0,5.8,0.3,7.2,1.1"/>
	<path class="st11" d="M348.8,318c-0.1,0.1-7.1,3.3-7.6,4.2s-1.6,1.5-1,3.1c0.6,1.7,5.9,9.7,5.9,9.7s0.3,1.3,0.1,1.8
		s-1.3,2.5-1.3,2.5l-0.5-0.3c0,0,1.5-2.1,1.2-2.5c-0.3-0.4-6.9-10.7-7.7-11.4c-0.4-0.3-0.8-0.8-0.8-0.8s-1-2,0.9-3.9
		c1.9-1.8,3.5-3.6,3.5-3.6l4.4-0.5L348.8,318z"/>
	<path class="st11" d="M376.9,324.7c0.1,0.1,13.6,8.7,13.6,8.7s4.1,3.4,4.4,4s1.7,2.5,3.2,2.8c1.4,1,4.9,3.7,5.4,4.8
		c0.7,0.9,0.7,0.9,0.7,0.9s0.3,1,4.1,2.5c0.2-0.3,0.2-0.3,0.2-0.3s-3-1.2-3.9-2.4s-3.7-4.7-5.5-5.6c-1.8-0.9-2.7-0.9-3.7-2.6
		c-1-1.8-4.8-4.6-4.8-4.6l-13.5-8.3L376.9,324.7z"/>
	<path class="st11" d="M378,325.8l-0.4-0.7l-0.7-0.4c0,0-7.7,0.8-12.6-0.1c-4.9-1-3.8-0.2-7.1-2.5c-3.3-2.2-5.7-5.3-7.8-5.8
		c-2.1-0.5-9.4-1.7-11.4,0.8c0,0,8.6-0.6,13.3,2.2c4.4,3.4,6.8,5.9,11.3,6.3c0,0,7.5,0.5,12.1,0.5C376.3,326,377.5,325.9,378,325.8z
		"/>
	<polygon class="st11" points="378,325.8 383.4,328.8 377.9,325.3 377.6,325.1 	"/>
	<path class="st6" d="M430.6,298.1c-1.1-0.8-0.1-1.7-0.1-1.7L430.6,298.1z"/>
	<path class="st8" d="M430.8,296.2l-0.2,0.2l0,1.6l0.3,0.5C430.8,297.8,430.8,296.5,430.8,296.2z"/>
	<path class="st12" d="M391.2,322.7c0.1,0.1,4.1,7.4,4.3,8.8c0.5,1.2,10.9,12.3,11,12.4c0.2,0.1,3.3,2.2,3.3,2.2s0.3-0.2,0-0.5
		c-0.2-0.3-3-2-3-2l-5.4-6.1c0,0-4.6-4.3-4.8-5.2c-0.1-1.3-5.3-9.8-5.3-9.8s-0.3-0.8-0.4-1.2C391,321.8,391.2,322.7,391.2,322.7z"/>
	<path class="st12" d="M420.9,313.6c0,0,0.4-1.6-0.2-2.5c-0.5-0.8-2.6-9.1-3-10.5c0-0.1-0.1-0.3-0.1-0.5l0-3.5
		c0-0.6-0.3-1.1-0.7-1.5c-0.7-0.5-1.7-1.3-2.4-1.5c-1.1-0.3-7.8-1.1-8.8-1c1.6-0.3,4.1-0.3,4.4-0.3c0,0,0,0,0.1,0
		c0.3,0,3.4,0.2,5.5,1.3c0.1,0.1,0.2,0.1,0.2,0.2c0.4,0.3,2,1.5,2.1,1.7c0.1,0.2,0.3,3.5,0.3,4.3c0,0.1,0,0.2,0,0.3
		c0,0.2-0.1,0.7,0.1,1.1c0.1,0.6,2.4,9.3,2.8,10.6c0,0.1,0,0.1,0,0.2C421.4,312.8,421.2,313.3,420.9,313.6z"/>
	<path class="st12" d="M389.4,334.8c0,0-2.2,6.1-2.2,7.8c0.2,0.6,0.3,3.6,0.3,3.6l0.2,0c0,0,0.5-1.8-0.3-3.7c0,0,1.1-5.3,2.3-7.5
		c0,0,0.5-0.7,0.1-1.4c-0.5-0.8-1.6-1.7-1.6-1.7S389.9,333.4,389.4,334.8z"/>
	<path class="st11" d="M378,325.8C378,325.8,377.9,325.8,378,325.8c2.8,1.2,7,6.1,8.8,7.2c0.2,0.1,0.3,0.7,0.3,0.9
		c0,0.4-0.2,1.1-0.3,1.4c-0.1,0.5-1.4,6.2-1.8,8.1c-0.1,0.4-0.5,0.6-0.9,0.8l-2.9,1.6l0.2-0.9l3-1.8l2-9.7l-10.4-5.9l-1.3-1.6
		L378,325.8z"/>
	<path class="st11" d="M404.2,304.3l-1.1-1.5c0,0-7.5,6.8-7.8,7c-0.2,0.2-3,5.6-5,6.8c-1.3,2.6,0.8,4.6,0.8,4.6s-0.7-1.4,0.4-3.3
		c1.5-1.5,4.6-4.6,4.9-7C397.8,309.8,404.2,304.3,404.2,304.3z"/>
	<path class="st11" d="M327.7,297.8c0,0-1.3,9.8-1.3,11.3c0.1,1.9-0.4,5.9-1.7,7.2c-1.3,1.3-4.3,3.6-4.8,4.3
		c-0.1,0.1-1.1,1.5-1.6,1.9c-3.5,2.5-13.9,13.2-13.9,13.2c-0.2-0.2-0.5-0.4-0.5-0.4l11.8-11.4c0,0,1.2-2.8,3.6-3.8
		c1.9-1.7,4.7-5.4,4.7-5.4S324.6,303.4,327.7,297.8z"/>
	
		<linearGradient id="SVGID_3_" gradientUnits="userSpaceOnUse" x1="163.1113" y1="-28.8961" x2="219.5038" y2="-28.8961" gradientTransform="matrix(0.9825 0.1865 -0.1865 0.9825 108.0874 288.9223)">
		<stop  offset="0" style="stop-color:#AC97C7"/>
		<stop  offset="0.2234" style="stop-color:#6AB1C5"/>
		<stop  offset="0.3984" style="stop-color:#AECF91"/>
		<stop  offset="0.6008" style="stop-color:#F9D948"/>
		<stop  offset="0.8054" style="stop-color:#F08744"/>
		<stop  offset="1" style="stop-color:#E62462"/>
	</linearGradient>
	<path class="st13" d="M329,295.8c-0.1,0.1-2.3-1.6-4-0.2c-1.7,1.4,1.3,12-7.9,11.1c-9.2-0.9-18.4-6.4-23.6-10.2
		c-5.6-4-10.4-2.3-13.8-0.8c-2.3,1-6.7-0.4-6.7-0.4l3.6-2.6c0,0,3.1-2.7,8-4.4c4.9-1.6,9.4,2.2,21.4,7.6c12,5.4,16.8-2.6,18.6-2.8
		c1.8-0.3,6,1.1,6,1.1"/>
	<path class="st14" d="M315.3,306.7c-11.4-2.5-18.1-7.5-21.1-9.6c-3-2-5-3.1-10.6-2.6c-0.4,0-0.8,0.1-1.2,0.3
		c-4.9,2.2-6.5,1.3-6.5,1.3s0.5-0.2,2-0.8c1.5-0.6,7-2,9.8-2c2.8-0.1,6,2.5,10.1,5.4c4.1,3,16.2,7.2,17.7,7.3c1.6,0.2,2.9,0.1,5-0.4
		c2.2-0.5,2.9-7.1,3.3-8.7c0.5-1.7,1.5-2.2,2.2-2.3c0.8-0.1,3.1,0.8,3.2,0.9l-0.3,0.4c0,0-0.7-0.3-2.8-0.7c-2.1-0.4-2,5-2,5.5
		c-0.1,0.5-0.6,4.2-2.5,5.2C321.7,305.8,319.6,307.3,315.3,306.7z"/>
	<path class="st11" d="M418.4,298.5l22.3-1.5l-23-1.2C417.7,295.9,416.7,297.5,418.4,298.5z"/>
	<path class="st15" d="M418.5,298.5c-0.3-0.2-0.3-0.9,0.2-1.6c0.3-0.5,0.8-0.9,1.1-0.9"/>
	<path class="st15" d="M417.4,297.3c0.1-0.2,0.2-0.4,0.3-0.6c0.2-0.3,0.5-0.6,0.7-0.8"/>
	<path class="st15" d="M420.1,298.4c-0.3-0.2-0.3-0.9,0.2-1.6c0.2-0.4,0.5-0.7,0.8-0.8"/>
	<path class="st15" d="M421.6,298.3c-0.2-0.3-0.1-0.9,0.3-1.5c0.2-0.3,0.4-0.5,0.6-0.7"/>
	<path class="st15" d="M423.1,298.2c-0.1-0.3,0-0.9,0.3-1.4c0.2-0.3,0.3-0.5,0.5-0.6"/>
	<path class="st15" d="M424.7,298.1c-0.1-0.3,0-0.9,0.3-1.4c0.1-0.2,0.3-0.4,0.4-0.5"/>
	<path class="st15" d="M426.2,298c-0.1-0.3,0.1-0.8,0.4-1.3c0.1-0.1,0.2-0.3,0.3-0.4"/>
	<path class="st15" d="M427.8,297.9c0-0.3,0.1-0.8,0.4-1.2c0.1-0.1,0.1-0.2,0.2-0.2"/>
	<path class="st15" d="M429.4,297.8c0-0.3,0.1-0.7,0.4-1.1c0-0.1,0.1-0.1,0.1-0.2"/>
	<path class="st15" d="M431,297.7c0-0.3,0.1-0.7,0.4-1"/>
	<path class="st15" d="M432.5,297.6c0-0.3,0.2-0.6,0.4-1"/>
	<path class="st15" d="M434.1,297.5c0-0.2,0.1-0.5,0.3-0.8"/>
	<path class="st15" d="M435.7,297.4c0-0.2,0.1-0.4,0.2-0.6"/>
	<path class="st15" d="M437.3,297.3c0-0.1,0.1-0.3,0.1-0.4"/>
	<path class="st15" d="M438.9,297.2c0-0.1,0-0.2,0.1-0.2"/>
	<polygon class="st7" points="422.4,295.5 419.1,298.9 430.2,299.3 430.1,296.2 430.1,295.5 	"/>
	<path class="st7" d="M430.6,296.3c0,0-1,0.9,0.1,1.8c-0.3,0.1-1-0.3-1-0.4c0-0.1,0.4-1.2,0.4-1.2
		C430.1,296.4,430.6,296.3,430.6,296.3z"/>
	<path class="st16" d="M414.2,297.9c0,0,2.3,0.5,2.7,3.2C413.6,300.9,414.2,297.9,414.2,297.9z"/>
	<circle class="st17" cx="416.2" cy="300.2" r="0.2"/>
	<path class="st17" d="M416.3,301.1c0.1-0.2,0.1-0.4,0-0.4c-0.1,0-0.2,0.2-0.2,0.3L416.3,301.1z"/>
	<polygon class="st8" points="424,296.2 422.9,295.7 423,294.8 421.3,296.7 422,296.5 422.6,297.6 422.7,296.4 	"/>
	<polygon class="st8" points="427.8,304.9 426.8,303 424.6,303.3 426.2,301.8 425.2,299.8 427.1,300.8 428.7,299.3 428.3,301.4 
		430.3,302.4 428.1,302.8 	"/>
	<g>
		<defs>
			
				<rect id="SVGID_4_" x="415.8" y="304.4" transform="matrix(0.9825 0.1865 -0.1865 0.9825 64.2518 -72.7282)" width="5.9" height="1.5"/>
		</defs>
		<clipPath id="SVGID_5_">
			<use xlink:href="#SVGID_4_"  style="overflow:visible;"/>
		</clipPath>
	</g>
	<g>
		<defs>
			
				<rect id="SVGID_6_" x="416.1" y="301.1" transform="matrix(0.9825 0.1865 -0.1865 0.9825 63.8071 -72.8371)" width="5.9" height="3.4"/>
		</defs>
		<clipPath id="SVGID_7_">
			<use xlink:href="#SVGID_6_"  style="overflow:visible;"/>
		</clipPath>
	</g>
	<g>
		<path class="st8" d="M419.9,288.4l0.2-1.2l1.2-0.2l-1.1-0.6l0.1-0.4c-0.1-0.1-0.3-0.1-0.5-0.2l-0.3,0.3l-0.7-0.4l-0.3,0l0.4,0.9
			l-0.6,0.6c0.1,0,0.1,0.1,0.2,0.2l0.7-0.1L419.9,288.4z"/>
	</g>
	
		<linearGradient id="SVGID_8_" gradientUnits="userSpaceOnUse" x1="252.6729" y1="-49.1823" x2="307.617" y2="-49.1823" gradientTransform="matrix(0.9825 0.1865 -0.1865 0.9825 108.0874 288.9223)">
		<stop  offset="0" style="stop-color:#AC97C7"/>
		<stop  offset="0.2234" style="stop-color:#6AB1C5"/>
		<stop  offset="0.3984" style="stop-color:#AECF91"/>
		<stop  offset="0.6008" style="stop-color:#F9D948"/>
		<stop  offset="0.8054" style="stop-color:#F08744"/>
		<stop  offset="1" style="stop-color:#E62462"/>
	</linearGradient>
	<path class="st18" d="M418.1,295.7c0,0,3.6-2.8,2.1-4.9c-1.5-2.1-9.2-2.1-12.3-6.5s-12.3,0.5-16.7-1.9c-4.4-2.4-7.2,4.7-11.3,5.3
		s-3.4,6.5-8.4,5.9c-5-0.6-5.7,5-7.9,5.7c-2.2,0.8,4.1,1.4,8.1,1.1c4-0.4,5.6-4.3,11.4-3.6c5.8,0.8,5.7,2.2,10.3-0.5
		c4.6-2.7,5.6-2,9.3-1.2c3.6,0.8,11,1.2,12.7,0.5C417.3,294.9,418.1,295.7,418.1,295.7z"/>
	<path class="st19" d="M417.3,295.3c0,0,1.5-2,1.4-3c-0.2-1.1-0.2-1.9-3-2.7c-2.8-0.8-6.9-2-8-3.2c-1-1.3-0.3-2.8-3.2-2.8
		s-10.4,1-11.8,0.6c-1.5-0.5-6.2-1-6.2-1s2.2-2.4,5.5-0.4c3.1,0.4,1.5,0.5,10.1-0.3c2.9-0.2,4.9,0.3,5.8,1.9
		c1.4,1.5,1.8,2.9,9.9,5.1c2.6,0.9,2.9,2.1,2.7,3c-0.3,1.7-2.4,3.3-2.4,3.3L417.3,295.3z"/>
	<path class="st14" d="M363.7,299.4c0,0,6,1.3,10.7-0.8s5.1-2.9,7.5-2.8s6.3,2.1,7.8,1.5c1.5-0.6,6-4.8,9.1-4.1
		c3,0.7,4.8,2.3,18.3,2c0.6,0,1.1,0,1.7,0c-0.6,0.5-0.6,0.5-0.6,0.5s-0.4-0.3-1-0.4c-0.6,0-1,0.1-1,0.1l-1,0.3c0,0-4.8,0.4-8.8-0.1
		s-4.4-0.8-4.4-0.8s-3.3-0.8-4.4-0.4c-1,0.4-1.8,0.4-4.6,2.1c-3,1.5-4,1.2-4,1.2s-7-1.6-8.3-1.1c-1.6,0.2-2.1,0.6-5.1,2.2
		c-2.9,1.6-5.3,1.5-5.3,1.5s-4.7,0-6.1-0.4C362.8,299.8,363.2,299.6,363.7,299.4z"/>
	<path class="st11" d="M408.2,348.3c0,0,0.5,1.1,2.1,2.2c0.7-1.6,2.3-4.2,2.3-4.2l-2.8-0.7C409.8,345.6,409.3,347.1,408.2,348.3z"/>
	<path class="st11" d="M381.7,348.2c0,0-1,0.7-2.9,0.8c0.2-1.8,0.2-4.8,0.2-4.8l2.7,0.8C381.7,345.1,381.4,346.7,381.7,348.2z"/>
	<path class="st11" d="M347.7,340.2c0,0,0.3,1.3-0.4,3.2c-1.7-1-4.7-2.3-4.7-2.3l2-2.3C344.6,338.9,346.1,339.9,347.7,340.2z"/>
	<path class="st11" d="M307,336.9c0,0-0.1,1.3-1.3,3c-1.3-1.4-3.9-3.4-3.9-3.4l2.5-1.7C304.4,334.7,305.6,336.1,307,336.9z"/>
	<path class="st8" d="M430.6,296.4l-0.9-0.5l0.6,1.1l-0.9,0.9l1-0.2C430,297.1,430.4,296.6,430.6,296.4z"/>
	<path class="st20" d="M653.4,497.4l-2.6,0.5c0,0-20.4,22-20.6,22.7c-0.3,0.8-2.3,15-2.3,15l41,11.1l23.8-18.9l1.3-7.2l-1.3-7
		L653.4,497.4z"/>
	<path class="st12" d="M636.4,611.6c0,0-17.1,5.3-17.3,4.9c-1.8,2.1-64.5,26.1-76.9,20.1c-12.4-6-24.8-19.2-31-57.5
		c15.5-0.2,18-0.3,18-0.3s22.4-5.5,26.4-5c4,0.5,18.5-4.2,18.9-7.3c0.4-3.1,2.7-13.9,22.5-23c18.2-9.9,35.2-21.5,35.2-21.5
		s-8.9,16.6,19.9,17.6c20.5-3.9,35.8-9.4,40.6-17.6c-7.7,10-7.7,10-7.7,10l-17.1,15.7c0,0-8.9,3.3-10.8,6.7
		c-1.2,4.4-16.9,27.2-16.9,27.2S641.7,604.2,636.4,611.6z"/>
	<g>
		<g>
			<path class="st21" d="M266,559.5l0.2-2.6l-1.2-2.1l-5.7-0.6c0,0-7.3-0.1-9.6-0.3c-2.3-0.1-10.5-1.8-11.1-2.4
				c-0.6-0.6-9.3-5.8-9.7-6.1c-0.4-0.3-8.1-5.6-8.1-5.6l5.2,12.9l16.6,6.9c0,0,21.1,2,21.5,1.6C264.6,560.8,266,559.5,266,559.5z"/>
		</g>
		<g>
			<path class="st3" d="M215.4,571.2c0,0,6.3-2.1,1.8-13.1c2.2-4.3,6.4-9.1,7.9-8.9c1.5,0.1,13.9,11.2,25.6,9.7
				c11.7-1.5,13.5-2.6,15.3,0.8c0.5,6.8,0.9,15,0.4,15.1c-0.5,0.1-24.1,0.8-27.2,3.1l0,0c0,0-3.4,0.8-4,1.5s-8.3,2.6-9.3,2.5
				c0,0.6-2.1-0.6-2.3-0.8C223.4,580.8,215.4,571.2,215.4,571.2z"/>
		</g>
		<g>
			<path class="st3" d="M217.2,532.5c0,0,1.7,16.3-14.4,18.4c2,8.8-0.9,5.5,4.4,13.5c2.5,2.7,8.3,5.8,8.8,7.3
				c1.5-0.2,6-1.7,1.8-13.5c0,0,4.7-9.1,7.3-9.1c0.6,0,0.6,0,0.6,0s1.6-1.7,0.5-3.9c-1.1-2.2-3-3.1-4.3-4.7
				C220.5,539.1,217.7,535.5,217.2,532.5z"/>
		</g>
		<g>
			<path class="st3" d="M205.2,526.1c0,0,6.8-2.5,12.5,7.3c0.7,9-3.2,17.3-14.2,19.1C202.9,550.6,201.5,530.2,205.2,526.1z"/>
		</g>
		<g>
			<path class="st21" d="M205.4,526c0,0-0.4-1.5-1.5-1.4c-1.1,0.1-4.8-0.4-4.8-0.4s-6.7,13.3-2.4,28.1c4.3,14.8,6.6,14.3,6.8,15.3
				c1.5,0,1.5,0,1.5,0s7.1,4.8,7.6,6.2c-0.4,1.3-0.9,3.7-0.9,3.7s5.4,7.7,6.4,7.7c1-0.1,6.1-1.2,7.2-2s0.6-1.4,0.6-1.4
				s-1.6,0.1-3.3-2s-7.8-9.6-7.8-9.6s-8.5-7.3-9.5-10.5S200.5,542.2,205.4,526z"/>
		</g>
		<g>
			<path class="st21" d="M266.2,556.9c-0.1-0.3,1.1-2.9-2.4-3.1c-3.5-0.2-17.7,1.1-25.1-3s-15.9-9.7-15.9-9.7s12.1,9.6,16.4,11.1
				c4.3,1.6,17.5,3.5,23.3,2.8c2.4,0.4,2.7-0.4,2.8,0.5C265.4,556.5,266.2,556.9,266.2,556.9z"/>
		</g>
		<g>
			<g>
				<path d="M259.2,558.2c-0.1,0-0.1,0-0.2,0c-0.2-0.1-0.5-0.3,1.2-2.8c0.4-0.6,0.9-1.1,1.2-1.5c0.5-0.5,0.7-0.7,1-0.5
					c0.1,0.1,0.2,0.3,0.1,0.4c-0.1,0.1-0.1,0.1-0.2,0.1c-0.2,0.1-0.8,0.7-1.6,1.9c-0.8,1.1-1.2,1.9-1.3,2.1c0,0.1,0,0.2,0,0.3
					C259.4,558.1,259.3,558.2,259.2,558.2z"/>
			</g>
			<g>
				<path d="M262,558c-0.1,0-0.2,0-0.3-0.1c-0.1-0.1-0.1-0.2,0-0.3c0-0.2-0.4-1-1.2-2.2c-0.8-1.2-1.4-1.8-1.5-1.9
					c-0.1,0-0.2,0-0.2-0.1c-0.1-0.1,0-0.3,0.1-0.4c0.3-0.2,0.6,0.1,1,0.6c0.3,0.4,0.7,1,1.2,1.6C262.6,557.7,262.3,557.9,262,558
					C262.1,558,262,558,262,558z"/>
			</g>
		</g>
		<g>
			<g>
				<path d="M256.4,558.6c-0.1,0-0.1,0-0.2,0c-0.2-0.1-0.5-0.3,0.9-2.9c0.4-0.6,0.7-1.2,1-1.6c0.4-0.5,0.7-0.8,0.9-0.7
					c0.1,0.1,0.2,0.2,0.1,0.4c0,0.1-0.1,0.1-0.2,0.1c-0.2,0.1-0.7,0.8-1.4,2.1c-0.7,1.2-1,2-1,2.3c0,0.1,0,0.2,0,0.3
					C256.6,558.5,256.5,558.5,256.4,558.6z"/>
			</g>
			<g>
				<path d="M259.1,558.1c-0.1,0-0.2,0-0.3-0.1c-0.1-0.1-0.1-0.2-0.1-0.2c-0.1-0.2-0.5-0.9-1.4-2c-0.9-1.1-1.6-1.6-1.7-1.8
					c-0.1,0-0.2,0-0.2-0.1c-0.1-0.1-0.1-0.3,0-0.4c0.1-0.1,0.5-0.4,2.4,1.9c1.9,2.3,1.6,2.5,1.5,2.7
					C259.2,558.1,259.2,558.1,259.1,558.1z"/>
			</g>
		</g>
		<g>
			<g>
				<path d="M253,558.8c-0.1,0-0.2,0-0.2,0c-0.1-0.1-0.5-0.3,1.1-3.1c0.4-0.7,1.4-2.3,1.9-2.4c0,0,0,0,0,0c0.1,0,0.2,0,0.3,0.1
					c0.1,0.1,0.1,0.3,0.1,0.4c-0.1,0.1-0.1,0.1-0.2,0.1c-0.2,0.2-0.8,0.9-1.5,2.2c-0.7,1.3-1.1,2.2-1.2,2.5c0,0.1,0,0.2,0,0.3
					C253.2,558.8,253.1,558.8,253,558.8z"/>
			</g>
			<g>
				<path d="M255.8,558.5c-0.1,0-0.2,0-0.3-0.1c-0.1-0.1-0.1-0.2,0-0.3c0-0.3-0.5-1.2-1.3-2.4c-0.8-1.2-1.4-2-1.6-2.1
					c-0.1,0-0.2,0-0.2-0.1c-0.1-0.1-0.1-0.3,0-0.4c0.1-0.1,0.2-0.1,0.3-0.1c0.5,0.1,1.5,1.7,2,2.4c1.7,2.7,1.4,2.9,1.3,3
					C255.9,558.5,255.8,558.5,255.8,558.5z"/>
			</g>
		</g>
		<g>
			<g>
				<path d="M249.8,559.3c-0.1,0-0.2,0-0.2,0c-0.1-0.1-0.5-0.4,1.2-3.3c0.4-0.6,1.5-2.6,2-2.7c0,0,0,0,0,0c0.1,0,0.2,0,0.3,0.1
					c0.1,0.1,0.1,0.3,0.1,0.4c-0.1,0.1-0.1,0.1-0.2,0.1c-0.2,0.2-0.9,1-1.7,2.4c-0.8,1.4-1.3,2.4-1.3,2.7c0,0.1,0,0.2,0,0.3
					C249.9,559.2,249.8,559.3,249.8,559.3z"/>
			</g>
			<g>
				<path d="M252.8,559c-0.1,0-0.2,0-0.3-0.1c-0.1-0.1-0.1-0.2,0-0.3c0-0.3-0.5-1.3-1.4-2.7c-0.9-1.4-1.6-2.2-1.8-2.3
					c-0.1,0-0.2,0-0.2-0.1c-0.1-0.1-0.1-0.3,0-0.4c0.1-0.1,0.2-0.1,0.3-0.1c0.5,0.1,1.8,2,2.2,2.6c1.9,2.9,1.5,3.2,1.4,3.3
					C252.9,558.9,252.8,559,252.8,559z"/>
			</g>
		</g>
		<g>
			<g>
				<path d="M246.6,559.8c-0.1,0-0.1,0-0.2,0c-0.3-0.2-0.2-0.7,0.9-3.5c0.4-0.9,1.3-3,1.8-3.1c0.1,0,0.2,0,0.3,0
					c0.1,0.1,0.2,0.3,0.1,0.4c0,0.1-0.1,0.1-0.2,0.1c-0.2,0.2-0.7,1.2-1.4,2.8c-0.3,0.8-1.1,2.6-1.1,3c0.1,0.1,0.1,0.2,0,0.3
					C246.7,559.7,246.7,559.8,246.6,559.8z"/>
			</g>
			<g>
				<path d="M249.7,559.5c-0.1,0-0.2,0-0.2-0.1c-0.1-0.1-0.1-0.2-0.1-0.3c-0.1-0.3-0.7-1.4-1.8-3c-0.2-0.3-0.4-0.6-0.6-0.9
					c-0.6-0.9-1.3-2-1.6-2.2c-0.1,0-0.1,0-0.2-0.1c-0.1-0.1-0.1-0.3,0-0.4c0.1-0.1,0.2-0.1,0.2-0.1c0.3,0,0.5,0.3,2,2.4
					c0.2,0.3,0.4,0.6,0.6,0.9c2.2,3.1,1.9,3.4,1.8,3.6C249.8,559.5,249.7,559.5,249.7,559.5z M245.6,553
					C245.6,553,245.6,553,245.6,553C245.6,553,245.6,553,245.6,553z M245.6,553C245.6,553,245.6,553,245.6,553
					C245.6,553,245.6,553,245.6,553z"/>
			</g>
		</g>
		<g>
			<g>
				<path d="M243.1,559.5c-0.1,0-0.2,0-0.2-0.1c-0.3-0.2-0.1-0.6,0.3-1.7c0.2-0.4,0.4-1,0.7-1.7c0.4-1,1.4-3.4,1.9-3.6
					c0.1,0,0.2,0,0.3,0.1c0.1,0.1,0.1,0.3,0.1,0.4c0,0.1-0.1,0.1-0.2,0.1c-0.2,0.2-0.8,1.3-1.5,3.2c-0.3,0.7-0.5,1.2-0.7,1.7
					c-0.2,0.5-0.4,1-0.4,1.1c0.1,0.1,0.1,0.2,0,0.3C243.3,559.4,243.2,559.5,243.1,559.5z"/>
			</g>
			<g>
				<path d="M246.5,559.8c-0.1,0-0.2,0-0.2-0.1c-0.1-0.1-0.1-0.2-0.1-0.3c0-0.3-0.7-1.6-2-3.5c-0.7-1-1.2-2-1.6-2.8
					c-0.2-0.4-0.5-0.9-0.6-1.1c0,0-0.1,0-0.1-0.1c-0.1-0.1-0.1-0.3,0-0.4c0.1-0.1,0.2-0.1,0.3-0.1c0.2,0,0.4,0.2,0.9,1.3
					c0.4,0.8,1,1.8,1.6,2.8c0.6,0.9,1.2,1.8,1.6,2.5c0.6,1.2,0.6,1.4,0.4,1.5C246.6,559.8,246.5,559.8,246.5,559.8z"/>
			</g>
		</g>
		<g>
			<g>
				<path d="M239.9,558.9c-0.1,0-0.2,0-0.2-0.1c-0.3-0.2-0.2-0.5,0.1-1.5c0.1-0.4,0.3-1,0.5-1.7c0.3-1,0.6-2,0.9-2.7
					c0.4-1.1,0.6-1.3,0.8-1.3c0.1,0,0.2,0,0.3,0c0.1,0.1,0.1,0.3,0.1,0.4c0,0.1-0.1,0.1-0.2,0.1c-0.2,0.3-0.7,1.5-1.3,3.6
					c-0.2,0.8-0.4,1.3-0.5,1.7c-0.1,0.4-0.2,0.8-0.2,0.9c0.1,0.1,0.1,0.2,0,0.4C240,558.8,240,558.9,239.9,558.9z"/>
			</g>
			<g>
				<path d="M243.1,559.6c-0.1,0-0.1,0-0.2,0c-0.1-0.1-0.1-0.2-0.1-0.3c-0.1-0.3-0.9-1.8-2.3-3.9c-0.8-1.2-1.5-2.6-2.1-3.7
					c-0.3-0.5-0.5-1-0.6-1.2c0,0,0,0-0.1,0c-0.1-0.1-0.1-0.3-0.1-0.4c0.1-0.1,0.2-0.1,0.3-0.1c0.2,0,0.3,0.2,1,1.5
					c0.5,1,1.3,2.5,2,3.6c0.7,1,1.3,2,1.8,2.8c0.7,1.3,0.7,1.5,0.6,1.6C243.2,559.6,243.2,559.6,243.1,559.6z M242.8,559.2
					C242.8,559.2,242.8,559.2,242.8,559.2C242.8,559.2,242.8,559.2,242.8,559.2z"/>
			</g>
		</g>
		<g>
			<g>
				<path d="M236.5,557.4c-0.1,0-0.2,0-0.3-0.1c-0.1-0.1-0.1-0.3,0-0.4l0,0c0.2-0.1,0.2-0.1,0.4-1.2c0.1-0.3,0.2-0.8,0.3-1.3
					c0.3-1.3,0.4-2.4,0.5-3.2c0.1-0.8,0.1-1,0.3-1.1c0.1,0,0.2,0,0.3,0.1c0.1,0.1,0.1,0.3,0,0.4c0,0,0,0-0.1,0
					c0,0.1-0.1,0.4-0.1,0.7c-0.1,0.7-0.2,1.9-0.5,3.2c-0.1,0.6-0.2,1-0.3,1.3c-0.3,1.2-0.3,1.2-0.5,1.5l0,0
					C236.6,557.3,236.5,557.3,236.5,557.4z M237.7,550.5C237.7,550.5,237.7,550.5,237.7,550.5C237.7,550.5,237.7,550.5,237.7,550.5z
					"/>
			</g>
			<g>
				<path d="M239.9,558.9c-0.1,0-0.1,0-0.2,0c-0.1-0.1-0.1-0.2-0.1-0.3c0-0.3-0.9-2-2.4-4.4c-0.8-1.3-1.6-3-2.2-4.2
					c-0.3-0.6-0.5-1.2-0.7-1.4c0,0,0,0,0,0c-0.1-0.1-0.2-0.3-0.1-0.4c0.1-0.1,0.2-0.1,0.3-0.1c0.2,0,0.3,0.2,1,1.7
					c0.6,1.2,1.3,2.8,2.1,4.1c0.8,1.2,2.8,4.4,2.4,5C240,558.8,240,558.9,239.9,558.9z M239.6,558.5L239.6,558.5L239.6,558.5z
					 M239.6,558.5C239.6,558.5,239.6,558.5,239.6,558.5C239.6,558.5,239.6,558.5,239.6,558.5z"/>
			</g>
		</g>
		<g>
			<g>
				<path d="M233.3,554.9c-0.1,0-0.1,0-0.2,0c-0.1,0.1-0.2,0-0.3,0c-0.1-0.1-0.1-0.3,0-0.4c0.1-0.1,0.2-0.1,0.3-0.1
					c0.1-0.2,0.2-0.8,0.4-1.6c0.3-1.4,0.4-2.6,0.4-3.4c0.1-0.9,0.1-1.1,0.3-1.2c0.1,0,0.2,0,0.3,0.1c0.1,0.1,0.1,0.3,0,0.4
					c0,0,0,0,0,0c0,0.2-0.1,0.5-0.1,0.8c-0.1,0.8-0.2,2-0.5,3.5C233.7,554.7,233.6,554.8,233.3,554.9
					C233.4,554.9,233.3,554.9,233.3,554.9z"/>
			</g>
			<g>
				<path d="M236.5,557.6c-0.1,0-0.1,0-0.2,0c-0.1-0.1-0.2-0.2-0.1-0.3c0-0.3-0.9-2.2-2.5-4.9c-0.9-1.4-1.7-3.2-2.2-4.5
					c-0.3-0.6-0.6-1.3-0.7-1.5c0,0,0,0,0,0c-0.1-0.1-0.2-0.2-0.1-0.4c0.1-0.1,0.2-0.2,0.3-0.1c0.2,0,0.3,0.2,1,1.8
					c0.6,1.3,1.4,3.1,2.2,4.5c0.7,1.2,2.8,4.8,2.5,5.4C236.7,557.5,236.6,557.6,236.5,557.6z M236.2,557.2
					C236.2,557.2,236.2,557.2,236.2,557.2C236.2,557.2,236.2,557.2,236.2,557.2z"/>
			</g>
		</g>
		<g>
			<g>
				<path d="M230.2,552.8c-0.1,0-0.1,0-0.2,0c-0.1,0.1-0.2,0-0.3,0c-0.1-0.1-0.1-0.3,0-0.4c0.1-0.1,0.2-0.1,0.3-0.1
					c0.1-0.2,0.2-0.8,0.4-1.6c0.3-1.4,0.4-2.6,0.4-3.4c0.1-0.9,0.1-1.1,0.3-1.2c0.1,0,0.2,0,0.3,0.1c0.1,0.1,0.1,0.3,0,0.4
					c0,0,0,0,0,0c0,0.2-0.1,0.5-0.1,0.8c-0.1,0.8-0.2,2-0.5,3.5C230.6,552.6,230.5,552.7,230.2,552.8
					C230.2,552.8,230.2,552.8,230.2,552.8z"/>
			</g>
			<g>
				<path d="M233.4,555.5c-0.1,0-0.1,0-0.2,0c-0.1-0.1-0.2-0.2-0.1-0.3c0-0.3-0.9-2.2-2.5-4.9c-0.9-1.4-1.7-3.2-2.2-4.5
					c-0.3-0.6-0.6-1.3-0.7-1.5c0,0,0,0,0,0c-0.1-0.1-0.2-0.2-0.1-0.4c0.1-0.1,0.2-0.2,0.3-0.1c0.2,0,0.3,0.2,1,1.8
					c0.6,1.3,1.4,3.1,2.2,4.5c0.7,1.2,2.8,4.8,2.5,5.4C233.5,555.4,233.5,555.5,233.4,555.5z M233.1,555.1
					C233.1,555.1,233.1,555.1,233.1,555.1C233.1,555.1,233.1,555.1,233.1,555.1z"/>
			</g>
		</g>
		<g>
			<g>
				<path d="M226.8,550.6c-0.1,0-0.1,0-0.2,0c-0.1,0.1-0.2,0-0.3,0c-0.1-0.1-0.1-0.3,0-0.4c0.1-0.1,0.2-0.1,0.3-0.1
					c0.1-0.2,0.2-0.8,0.4-1.6c0.3-1.4,0.4-2.6,0.4-3.4c0.1-0.9,0.1-1.1,0.3-1.2c0.1,0,0.2,0,0.3,0.1c0.1,0.1,0.1,0.3,0,0.4
					c0,0,0,0,0,0c0,0.2-0.1,0.5-0.1,0.8c-0.1,0.8-0.2,2-0.5,3.5C227.2,550.4,227.1,550.5,226.8,550.6
					C226.8,550.6,226.8,550.6,226.8,550.6z"/>
			</g>
			<g>
				<path d="M230,553.3c-0.1,0-0.1,0-0.2,0c-0.1-0.1-0.2-0.2-0.1-0.3c0-0.3-0.9-2.2-2.5-4.9c-0.9-1.4-1.7-3.2-2.2-4.5
					c-0.3-0.6-0.6-1.3-0.7-1.5c0,0,0,0,0,0c-0.1-0.1-0.2-0.2-0.1-0.4c0.1-0.1,0.2-0.2,0.3-0.1c0.2,0,0.3,0.2,1,1.8
					c0.6,1.3,1.4,3.1,2.2,4.5c0.7,1.2,2.8,4.8,2.5,5.4C230.1,553.3,230.1,553.3,230,553.3z M229.7,552.9
					C229.7,552.9,229.7,552.9,229.7,552.9C229.7,552.9,229.7,552.9,229.7,552.9z"/>
			</g>
		</g>
	</g>
	
		<linearGradient id="SVGID_9_" gradientUnits="userSpaceOnUse" x1="553.0677" y1="6780.0254" x2="717.3885" y2="6780.0254" gradientTransform="matrix(1 0 0 -1 0 7267.1948)">
		<stop  offset="0" style="stop-color:#AC97C7"/>
		<stop  offset="0.2233" style="stop-color:#6AB1C5;stop-opacity:0.8"/>
		<stop  offset="0.3976" style="stop-color:#AECF91;stop-opacity:0.6"/>
		<stop  offset="0.6027" style="stop-color:#F9D948;stop-opacity:0.4"/>
		<stop  offset="0.8054" style="stop-color:#F08744;stop-opacity:0.2"/>
		<stop  offset="0.9256" style="stop-color:#E62462;stop-opacity:0.1"/>
	</linearGradient>
	<path class="st22" d="M717.4,518.5c0,0-42.9-55.2-164.3-57.8C577.6,448.3,695.6,456.9,717.4,518.5z"/>
	
		<linearGradient id="SVGID_10_" gradientUnits="userSpaceOnUse" x1="598.5983" y1="6081.5244" x2="762.9191" y2="6081.5244" gradientTransform="matrix(1.3947 -0.4307 -0.2951 -0.9555 1315.9003 6540.2534)">
		<stop  offset="0" style="stop-color:#AC97C7"/>
		<stop  offset="0.2233" style="stop-color:#6AB1C5;stop-opacity:0.8"/>
		<stop  offset="0.3976" style="stop-color:#AECF91;stop-opacity:0.6"/>
		<stop  offset="0.6027" style="stop-color:#F9D948;stop-opacity:0.4"/>
		<stop  offset="0.8054" style="stop-color:#F08744;stop-opacity:0.2"/>
		<stop  offset="0.9256" style="stop-color:#E62462;stop-opacity:0.1"/>
	</linearGradient>
	<path class="st23" d="M594.8,430.8c0,0-76.1-34.3-246.2,15.6C379.1,424,546.1,381.3,594.8,430.8z"/>
	<path class="st24" d="M506.9,536.6c-39-11-111.5-1.3-113.7-1c-2.2,0.3-18.3,1.4-18.3,1.4s-2.7-1.2-4.4-3s-5.4,3.5-5.4,3.5
		s0-1.2-0.9-2.3s-2.6,3.7-3.9,2.6c-1.3-1.2-5.5-1.4-14.2,1.2c-11-1.3-27.7,3.7-27.7,3.7l-65.6,8.6l-0.9,1.5c0,0-4.5,18.7,4.7,28.5
		c1.5,2.2,3.2,2.5,3.2,2.5s93.9-12.5,110.4-9.6s74.2,10.8,76.9,11.4l0.5,3.3l0.1,0.4c0.6,3.7-17.2,9.3-21.5,11.4
		c-4.3,2.1-17.6,5.8-19.6,4.6c-1.9-1.2-2.3-5.4-2.3-5.4s-5.8-4.3-9.1-6.6c-3.3-2.3-13.4-3.7-18.6,1.2c-5.2,4.8-10.1,12-10.1,12
		s0.2,5.6,2.9,8.5c1.5,5.8,5.2,16.3,12.6,20.3s33.3,12.3,35.8,11.9s34.1-4.6,41.3-10.7c4.7-3.9,26.9-9.6,43.7-10.2
		c9.4-0.3,23.6-3.3,23.6-3.3s-5.9-10.4-10.6-23.2c-4.5-12.3-4.8-21.6-5.4-21.8"/>
	<path class="st25" d="M496.7,397.9c0-0.3-1-5.4-2.1-6.6s-2.4-6.9-2.8-7.8c-0.4-1,1.5-2.9,3.6-2.1s6.3,10.2,8.5,13.8
		s2.9,13.5,2.9,13.5s4,5.7,5.1,6.1l1.2,2.6v11.5c0,0-6.4,3.9-6.9,3.7c-0.5-0.1-5,1.6-6.3,0c-1.3-1.6-2.1-4.8-2.1-4.8s-1.9-5.8-6-9.4
		c-7.3-3-13.5-16.2-13.5-16.2l-1.8-1.8c0,0-1.6-2.3-1.7-2.9c-0.1-0.6-0.5,4.6-1.4,4.8c-0.9,0.2-1.7,0.5-2.7,0c-1-0.5-1-4.4-0.9-5.9
		c0.1-1.5,2.2-3.5,2.9-3.9c0.8-0.4,5.6,2,6.4,2s0.4-2.1,0.4-2.1l-3.7-2.6l-3.4-1.1c0,0-0.8,0.6-4.4,1.1c-3.6,0.5-1.4-3-1.4-3
		s0.8-1.1,5-3.3c3.6-0.6,6.5,1.6,6.5,1.6l3.6,2.1c0,0,1-1.6,0.9-2.3c-0.5-0.2-3.3-4.5-4.6-6.1c-1.6-0.4-5.1-3.8-5.4-4.1
		c-0.3-0.3-0.9,0.2-4.5-2.2c-3.7-2.4,0.6-4.5,2-4.6c1.5-0.2,5.4,2.2,9.1,3.6c3.7,1.4,5,5.9,5.9,6.7c0.9,0.8,4.1,5.2,4.1,5.2
		l-2.5-6.6c0,0-0.8-0.4-3.4-4.6c-4.8-3.3-5.6-7.2-5.6-7.2s2.5-4.8,7.1,0s4.2,4.7,4.5,4.8c0.4,0.1,2.5,2.1,4,4.6
		c1.5,2.6,5.4,11.1,5.4,11.1"/>
	<path class="st26" d="M404.3,600c0,0-0.3,6.5,5,5.6c5.3-1,15-3.4,17.8-5.2c2.8-1.8,18.2-6,19.5-9c1.4-3,0.6-3.2,0.5-5.6l-76.9-11.4
		c0,0-6.6-1.3-26,0.4c-19.4,1.7-77.7,7.6-84.4,9.2c-1.6-0.8-4.6-3-6.8-8.2c0,0,97.4-12.4,116.4-10.9c19,1.5,83.6,10.9,83.6,10.9
		s11.6,4.9,12.9,5.7c1.4,0.8-15.3,24.1-30,27c-14.7,2.9-28.3,11.8-32.1,5.4c-1.2-1.9-4.2-3-4.7-5.3c0,0-0.9-1.2-8.2,1.9
		c-7.3,3.2-16.7,4.5-16.5,6.7s3.9,11.2,4.9,11.7s20.1,10.3,24.5,11c4.3,0.8,8.8,3.4,12.9,3.2c4.1-0.3,30.2-4.2,41.4-10.6
		c11.2-6.5,29-9.5,33-9.9c3.9-0.4,31-3,31-3l2.8,4c0,0-17.1,3.1-20.3,2.9c-5.3,0.3-28.7,1.8-44.3,9.6c0,0-4.6,3.5-7.7,4
		c-3.3,1.1-27.1,6.8-34.6,7.4c-8-1-26.4-7-35.1-11.5s-11.6-15.4-11.6-15.4s-1-4.5-1.7-5.3c-0.6-0.8-2.9-4.3-2.9-8.5
		c0,0,8.8-11.7,11.4-13s10.1-3.7,17.3-0.1C402.2,598.5,404.3,600,404.3,600z"/>
	<path class="st27" d="M640.1,591.2c0,0-20.5,7.5-34.8,9.2c-12.3,1.5-12.6,8.8-32.3,14.3c-5.5,1.5-11.9,2.6-18.1,3.3
		c-15.8,1.8-30.8,1.5-30.8,1.5s8.6,15.3,21.9,18.2c22.2-0.6,49-11.4,49-11.4l15.7-6.1c5.5-2.3,6.4-2.5,7.9-3.7l17.3-4.9l2.9-8.5
		c0,0,0.7-5.1,0.7-11.7C639.6,584.4,636.1,596.6,640.1,591.2z"/>
	<path class="st27" d="M561.7,613.5c0,0-4.3,4.3-7.4,4.6c1.3,1.2,4,0.7,4,0.7l7.2-2.4l0.8-1.2L561.7,613.5"/>
	<path class="st27" d="M631.8,522.2c0,0-0.4,5.3-0.6,6c-0.2,0.6-13.5,7.2-15.1,8c-1.6,0.9-22.9,12.8-23.9,13.1
		c-1,0.3-14.5,8.3-14.9,14.7c-0.9,4.7-4.3,7.6-4.3,7.6l-11.3,4.5c0,0-6.7,1-8.6,0.8c-1.9-0.2-17.3,2.8-20.4,4.3
		c-3.1,1.5-21.4,0.7-21.4,0.7l-0.6-2.6l18.8-0.1c0,0,13.9-5,25.8-5c7.9,0,17.5-5.1,19.2-7.5c0.3-2.7,2.4-15.3,16-19.5
		C602.1,541.3,596.4,546.3,631.8,522.2z"/>
	<path class="st28" d="M693.8,518.7c0,0-0.9,6.5-8.4,10.2c-7.7,3.8-19.9,2.8-21.5,2.4c-1.7-0.4-7.1-2.7-9.3-5.3
		c-2.2-2.6-3.4-8.9-3.5-11.6c-0.1-2.7,0.1-5,0.1-5l11.3,11.5C662.5,520.9,685.1,526.5,693.8,518.7z"/>
	<path class="st29" d="M634.8,647.3c0,0,13.6,23.5,13.8,30.1c0.3,6.6-0.3,13.4-0.3,13.4l-5.5-3.4c0,0,4.1-1.5,0.1-10.6
		C638.8,667.7,633.8,657,634.8,647.3z"/>
	<path class="st26" d="M512.9,590.2c0,0,4.1,29,5.7,29.7c1.5,0.7,7,0.7,5.6-0.3C522.7,618.5,514.4,598,512.9,590.2z"/>
	<path class="st25" d="M529.2,643.9c-2.9,3.1-0.4,7.1,1.3,10.7c-2.2,3.5,1.7,7.2,5.8,8.5c-1.4,1.4-0.3,3.2,0.9,4.8
		c1.3,1.6,7.9,1,9.9,2c1.1,1.4,6.5,5.2,6.5,5.2c2.2,1.1,9.2-0.2,13.1,0.1c3.9,0.3,16-6.2,16-6.2s5-0.3,5.9-0.5s7.2-1.2,7.2-1.2
		l2.6,0.2c4.6,1,8.6-1.2,11.5-1.1c3,0.1,42.7,7,56.3,5.4c13.5-1.6,17.9,2.3,18.1-4.6c0.2-6.9,2-29.2,4.4-41.1s5.6-28.4,9.5-31.7
		c-2.8-0.4-8.7-6.2-8.7-6.2s-13.9,28.5-18.2,45.4c-4.6,4.4-10.6,4.9-11.4,5c-0.7,0.1-26.2,2-34.4,3.3c-1.6,0.3-3.2,0.3-4.8,0.1
		c-8.1-0.8-22.5-3.2-23.7-3.1l-1.6,0l-14.9,0.3c0,0-7.5-1.4-10-3.3s-6.3,0.2-14.7-3.5c-6.9-0.7-18.8-1.2-18.8-1.2s-3,4.2-3.9,4.5
		c-0.8,0.3-7.3,3.9-7.3,3.9S523.9,645.6,529.2,643.9c5.4-1.6,8.1-5.1,9.8-5.2c1.7-0.1,5.6-0.1,5.6-0.1"/>
	<path class="st30" d="M640,584.2c0,0,0.9,14.1-0.6,18.9c1.5,1.4,4.8,4.3,9.3,5.3c0.5-2.2,1-4.6,1-4.6s7-22.8,7.6-24.4l-0.2-24.9
		C657,554.4,639,578.5,640,584.2"/>
	<path class="st27" d="M622.7,673.4l-79.2,4.2l101.8-112.9l48.4-45.9l-2.4,15.1l2.4,8.7c0,0-34,82.6-34.8,84.2
		c0,0-10.5-7.2-10.4-4.9c0.1,2.3-10.7-13.1-12.9-8.4c-2.2,4.7-9.7,36.7-9.7,36.7l-1.4,1.5L622.7,673.4"/>
	<path class="st12" d="M651.2,507c0,0-17.4,142.4-2.9,167.5l-104.7,3.1c-7-17.9-3.1-22,7.1-38.2c28.2-44.4,86.4-129.6,102.7-141.9"
		/>
	<path class="st27" d="M644.1,524.5c0,0-20.2,83.9-18.8,116.4"/>
	<path class="st27" d="M635.2,528.6c-0.4,1.5-66.2,90.6-71,119.7"/>
	<path class="st25" d="M674.9,461.8c0,0-13.5,12.7-15.4,16.2c-1.7,3-6.5,10.2-6.1,17.4c0.2,3.3-0.6,6.5-2.2,9.4c0,0.1,0,0.1,0,0.1
		s-0.8,4.6,2,7c2.5,2.8,8.1,8.8,9.3,8.9s15.5,3.9,28.7,0c3.6-3.1,10.4-8.5,14.1-12.7c0,0,20.2-13.9,22-19.3c1.7-5.4,5.4-17.6-7-28.3
		C707.9,449.9,692,447.1,674.9,461.8z"/>
	<path class="st28" d="M468.8,389.6c0,0,1.4-4,3.5-3.9c2.1,0.1,3.6,1.4,3.9,1.2c0.3-0.1,4.3,2.5,4.3,2.5l-0.6,3.3l-4-2.8l-3.6-1.2
		C472.2,388.8,470,389.9,468.8,389.6z"/>
	<path class="st28" d="M467.2,371.8c-0.3-0.3,0.5-1.5,2.6-1.3s4.5,1.8,6.8,3c2.2,1.2,6.6,6.3,7.2,7.5c0.5,1.1,2.1,3.5,1.5,3.6
		s-2.4,0.5-2.4,0.5s-3.1-3.1-4.6-6.1c-0.4-0.2-2-0.6-5.6-4.2C470.7,374.3,468.4,372.9,467.2,371.8z"/>
	<path class="st28" d="M478.8,367.6c0,0,1.4-2.3,4-0.2s3.4,3.7,3.4,3.7l3.8,5l1.4,6.1c0,0-0.4,1.6,0.4,2.6c0.3,1.3-1.7,0.8-1.7,0.8
		l-1.3-3.4l-2.2-5.6c0,0-2.2-2.2-3.4-4.7C482.5,371.5,480.4,370.1,478.8,367.6z"/>
	<path class="st28" d="M473,402.4c0,0-1.3-3.5-1.3-4.7s1.8-2.7,1.8-2.7s4.9,1.3,5,2s0.1,5.4,0.1,5.4s-2.9-2-3.6-4.7
		C474.2,398.7,474.3,402.7,473,402.4z"/>
	<path class="st28" d="M478.5,396.9c0,0,4.8,11.2,8.8,12.7s6-0.8,6-0.8l8.3,19.7h-3.7c0,0-1.7-6.3-6.2-10.1
		c-1.1-0.5-6.7-3-13.5-16.2C478.1,397.6,478.5,396.9,478.5,396.9z"/>
	<path class="st28" d="M493.3,381.8c0,0,5.9,11.2,6,13.6c0.1,2.3-1,3.1-1,3.1l-2-0.5c0,0,0-3.3-1.2-6.1c-0.5-0.5-1.6-1.8-1.6-1.8
		s-1.7-6.6-1.7-7.2C491.9,382.8,491.9,381.5,493.3,381.8z"/>
	<path class="st28" d="M478.5,396.9c-1.6,1.6,9.9,15.2,10.4,15.2c4.6,1.4,9-14.4,8.2-14.2c-0.1,0-0.4,0-0.4,0l-0.2,0l0-0.3
		c0,0-1-5.1-2.2-6.2c-0.9-1.9-2.2-6.2-2.2-6.2l-1.5,0.3l-5.2-1l-2.3,0.2l-1,2.9l-1.5,1.8l-1.1,3.1l-0.3,2.5L478.5,396.9z"/>
	<path class="st28" d="M496.2,401.9c0,0-1.2,3.4,0,7.2c2.6,7.8,8.6,19.1,8.5,19.1c-0.2,0-3.2,0.3-3.2,0.3s-15.9-17.8-16-17.9
		s-5-7-4.9-7.3C480.7,403,496.2,401.9,496.2,401.9z"/>
	<path class="st31" d="M715.2,506l2.2-3.7c0.2-0.3,0.6-0.4,0.9-0.1l1.6,1.8c0.2,0.3,0.6,0.3,0.8,0c1.6-2,7.1-9.2,8.9-13.3
		c0.1-0.3,0.5-0.4,0.8-0.2l2.3,1.6c0.3,0.2,0.8,0,0.9-0.4c0.3-2.5,1.2-9.8,0.4-15.7c-0.1-0.6,0.7-0.9,1-0.4l0,0
		c0.3,0.5,1.2,0.2,1-0.4c-1-3.8-3-9.8-5.6-13.6c-0.3-0.5,0.2-1.1,0.7-0.8c1,0.6,1.1,2,1.5,2.5c0.9,1-4.9-8.8-12.3-12.1
		c-0.5-0.2-0.4-1,0.2-1.1c1.5,0,2.4,0.7,2.8,0.9c0.8,0.3-7.2-4.1-14.7-3.9c-7.6,0.2-16.3-0.8-21.8,2.7s-12.1,12.1-12.1,12.1
		s9-4.4,13.4-3c4.3,1.4,5.1,3.5,5.1,3.5l1.4-2.3c0.2-0.4,0.7-0.5,1-0.1c0.8,1.1,2.2,3.2,3.3,5.5c0.2,0.4,0.7,0.4,1,0.1l1-1.6
		c0.3-0.4,0.9-0.3,1,0.2c0.5,2.9,0.9,10.3,1.1,12.6c0.2,2.8,4.9,7.7,6,11.1c0.1,0.4,0.6,0.5,0.9,0.3l1.8-1.6
		c0.3-0.3,0.9-0.1,0.9,0.4l1.5,19C714.3,506.3,715,506.4,715.2,506z"/>
	<path class="st32" d="M693.8,518.7C693.8,518.7,693.9,518.7,693.8,518.7c0.4,0.4,1.7,2,1,3.6c-0.8,1.8-3.2,13.9-2.5,15.9
		c0.7,1.9,5.1,14.9,7.5,18.4c2.3,3.5,6.9,10.7,9,14.7c2.1,4,3,4.9,2,5.4c0,0-5,19-11.2,23.6c-5.2,7.5-18.8,36.9-21.2,38.7
		s-0.3,35.9,2.8,42.3c3.1,6.5,7.5,17.8,3.6,19.1s-26.6,10.1-32.5,8s-32.5-10.9-33.3-14.8c-0.8-3.9,16-6.5,18.1-5.7
		c2.1,0.8,11.4,1,5.4-11.9s-9.6-20.9-7-37.9s21.4-83.9,21.4-83.9s7-7.2,10.8-6.7C671.7,543.8,692.6,527.9,693.8,518.7z"/>
	<path class="st32" d="M583.9,509.9c0,0-4.6,9.9-9.3,13.4c-2.9,0-18.4,6.6-21.9,7.7c-3.5,1.2-10.1,2.1-17,3.1
		c-7,1-19.8-1.4-22.9,0.3c-3.1,1.7-5.9-0.1-5.9-0.1s-38.8,12.1-46.5,38.9c0,0,32.2,2.7,39.7,5.8c8.4,0.6,29.1,0,29.1,0
		s17-5.3,26.4-5c9.4,0.3,18.9-7.3,18.9-7.3s2.5-16.2,14.7-19c12.4-4.7,36.5-20.8,38.2-22.2s13.3-9.4,13.3-9.4s-0.6-5.1,1.9-5.4
		c1.7-1.6,7.1-10.2,8.5-12.5c0.1-0.2,0-0.5-0.3-0.5c-1.3,0.2-3.9,0.4-4.4,0.1c-2-1.4-5.6-5.2-9.9-6.7c-3.8-2.4-4.6-6.9-7.5-8.8
		c-2.8-1.9-16.4-6.1-16.4-6.1s-5.5-1.1-7.7-1.3c-2.2-0.2-6.7-1.1-9.7-1.6c-1-0.2-1.9-0.4-2.6-0.7c-1.4-0.5-3-0.5-4.4-0.1
		c-3.8,1-10.8,2.8-13.2,2.1c-3.3-1-27.9-7-32.1-10.3s-21.3-21.9-24.8-38.3l-6.2-10.8c0,0,0.9,11.8-8.5,13.1
		c-9.9,0.1-11.5,0.1-9.7-4.6c-2.5,3,3.6,15.6,3.4,17.3s15.2,33.3,17.4,40.3c2.2,7,9.3,15.7,19.7,18.6s44.5,14.4,45.2,15.5"/>
	<path class="st33" d="M688.5,528.6c0,0,2.6,24.5,8.5,33.8s6.5,14.3,6.5,14.3l-5.4,15.7l-12.9,20.9l-13.7,27.6
		c0,0,1.1,21.8,1.3,24.6c0.3,2.8,3.5,14.1,3.5,14.1l2.8,13.8c0,0-22.1,10.7-22.8,10.5s-2.7,4.7-2.7,4.7s11.4-1.6,14.9-2.7
		c3.5-1.1,16.4-5.6,16.4-5.6s3.1-2.9-0.7-12.2c-3.8-9.3-4.3-11.8-4.3-11.8s-4.5-27.2-1.5-37.5c5.4-9.2,15.5-28.9,15.5-28.9l5.6-9.9
		c0,0,11.6-15.8,11.2-25.2c-5.5-9.8-12.3-20.8-12.3-20.8l-5.8-17.2c0,0,0.5-13.4,2.3-16.1c-1.2-2.3-1.2-2.3-1.2-2.3
		S690.8,526.3,688.5,528.6z"/>
	<path class="st33" d="M642.8,687.4c1,0.4,10.4,6.2,9.6,7.2s-25.3-5.3-25.3-5.3s8.1-1.9,10.1-1.1
		C639.1,688.9,642.8,687.4,642.8,687.4z"/>
	<path class="st34" d="M499.5,430.2l11.2,29c0,0,11.7,25.2,17,30.5c5.3,5.3,55.5,20.8,55.5,20.8l-3.9,5.1c0,0-39.1-15.6-47.6-16.3
		c-10.5-5.3-13.9-8.8-16.9-16.4s-17.6-40.7-17.9-42.1c-0.3-1.4-1.5-4.9-1.5-4.9l-2.3-8.2c0,0,1.7,0.9,5.6,0.9
		C499.5,430.2,499.5,430.2,499.5,430.2z"/>
	<path class="st27" d="M541.1,670.1l29.5-4.3c13.9-2,28-2.3,42-0.7l26.3,2.9l3.1,6.6c0,0-89.3,2.2-98.5,3
		C541.7,672.3,541.1,670.1,541.1,670.1z"/>
	<path class="st27" d="M620.2,532.8c0,0-60.9,80.9-60.4,84.6c0.6-0.1,5.8-1,5.8-1c11.9-19,60.2-86.5,60.2-86.5L620.2,532.8z"/>
	<path class="st26" d="M367.8,534.5c0,0-0.4,6.1-1.3,6.4c-1,0.4-0.3-2.2-1.4-3.4C365.7,536.6,367.8,534.5,367.8,534.5z"/>
	<path class="st26" d="M363.4,535.5c0,0-0.7,5.8-1.6,6.2c-1,0.4-0.3-2.2-1.4-3.4C361,537.4,363.4,535.5,363.4,535.5z"/>
	<path class="st35" d="M527.9,447c11.5,18.2,21.1,20.3,21.1,20.3s23.1,6.7,26.1,7.5c3,0.8,11.7-1.7,11.7-1.7s3-1.9,5.9-0.3
		c2.9,1.6,17.6,2.3,20,3.6c2.4,1.2,13.3,4.6,14,4.9c0.7,0.3-2.5,0-6.2-0.9c-3.7-0.9-23-5.2-27.7-5.9c-4.7-0.8-11.7,1.9-16,2.3
		c-4.4,0.4-26.5-7-33.2-9.7c-6.7-2.7-13.9-15.7-13.9-15.7L527.9,447z"/>
	<path class="st36" d="M370,533.7c0,0-0.8,4,6.5,4c7.2,0,84.7-9.4,124.9-1.3c4.6-3.3-42.1-7.9-92.5-2.6c-2.1-0.4-34,3.1-34,3.1
		S374.2,536.9,370,533.7z"/>
	<path class="st36" d="M359.4,539.1c0,0-8.5,0-10.4,1.3c-3.3,0.5-23.8,1.8-28.7,3.6c-7.4,1.2-68.5,9.5-68.5,9.5l0.9-2.2l65.6-8.6
		c0,0,14.9-4.7,27.7-3.7c5.4-1.4,11.8-2.9,14.2-1.2C360.3,538.3,359.4,539.1,359.4,539.1z"/>
	<path class="st33" d="M583.3,510.4l1.9,8.3l-5.6,7.6l-24.6,8.3c0,0-22.1,3.6-28.6,3.2s-25.2-1.3-25.2-1.3l5.6-2.1
		c0,0,2.6,1.6,6.6-0.2c4.7-0.8,12.8,0.1,15.4,0.2c2.6,0,14.4-0.3,25.4-3.9c10.2-4,17.3-6.6,20.3-7.2
		C576.3,521.7,583.9,513.2,583.3,510.4"/>
	<path class="st33" d="M523.3,567c-10.3-7-9.9-21.7-9.9-21.7S521.9,564.2,523.3,567z"/>
	<path class="st33" d="M523.3,567.4c0,0-21.1-0.6-32.2,0.8C491.2,568.3,513.7,570.6,523.3,567.4z"/>
	<path class="st37" d="M225,543.6c-0.5,0.1-2.8-0.3-6.3-5.2c-3.5-4.8-5.2-10-8.6-10.7c-1.3-0.3-5.2-0.3-5.2-0.3l0.4-1.4
		c0,0,5.5-1.4,9.2,3.2c2.3,2.4,3.2,4.2,3.2,4.2l0.2,1.4c0,0,3.4,6.5,6.4,7.4C224.5,542.6,225,543.6,225,543.6"/>
	<path class="st21" d="M333.7,575.6c-8.7,10.3,0,15.7,0,15.7l-3.1-0.5c-5.7-5.6,0-14.9,0-14.9L333.7,575.6z"/>
	<path class="st21" d="M370.8,601.2c0,0-4.9-12.7-10.5-15.7c-5.6-3-14.4,0.6-14.4,0.6s-3.2,4,1.4,3.4c4.6-0.6,9.5-2.3,15.6,6.8
		c4.4,8.5,3.8,10.2,3.8,10.2L370.8,601.2z"/>
	<path class="st38" d="M388.9,588.2c0,0-14.7-7.3-15.7-7.8c-2.4-1.1-7.8-1.8-14.4-1.6c-6.7,0.1-28.3,1.9-28.3,1.9l1.4-2.9l1.8-2.2
		c0,0,28.7-2.5,35-1.6s20.2,3,20.2,3V588.2z"/>
	<path class="st38" d="M251.9,572.5c0,0-16.4,2.4-18.7,3.5s-10.6,3.8-10.6,3.8s1.5,2.3,3.3,2c1.8-0.3,7.3-1.6,9.3-2.5
		s8.1-2.8,9.1-2.9s8.6-0.9,8.6-0.9L251.9,572.5"/>
	<path class="st1" d="M215.9,583.1l6.6-3.3c0,0,1.5,1.9,3.3,2c0.4,0.7-0.9,1.5-0.9,1.5s-3.8,1.5-6.9,1.8
		C216.5,584.2,215.9,583.1,215.9,583.1z"/>
	<path class="st39" d="M205,527.4c0,0-0.6-1.4-1.4-1.1c-1.4-0.1-5.2-0.5-5.2-0.5l0.7-1.6l4.8,0.4c0,0,1.7,0.5,1.5,1.4
		C205.1,526.9,205,527.4,205,527.4"/>
	<path class="st40" d="M370.8,601.2c-0.4-0.1-4.3,1.5-5,1.5c0,0-0.1,0-0.1-0.1l2.8-5.9c0,0,0-0.1-0.1-0.1l-5.6-0.2
		c0,0-0.1-0.1-0.1-0.1l2.7-4.8c0,0,0-0.1-0.1-0.1l-5.9,0.8c0,0-0.1,0-0.1-0.1l2-5.3c0-0.1,0-0.1-0.1-0.1l-5.5,2.8c0,0-0.1,0-0.1-0.1
		l-0.1-5.1c0-0.1-0.1-0.1-0.1,0l-3.6,4.5c0,0-0.1,0-0.1,0l-2.2-3.6c0,0-0.1,0-0.1,0l-1.3,3.9c0,0-0.1,0.1-0.1,0l-2.6-3.1"/>
	<path class="st40" d="M346.1,590c0.1-0.2,1.6-4,1.9-4.5c0,0,0.1,0,0.1,0c0.3,0.5,2.4,3.8,2.4,3.7c0-0.1,2-4,2.3-4.7
		c0,0,0.1,0,0.1,0l1.4,4.7c0,0,0,0,0.1,0l4.5-4.2c0,0,0.1,0,0.1,0l-0.9,6c0,0,0,0.1,0.1,0l5.9-2.1c0,0,0.1,0,0.1,0.1l-2.3,5.8
		c0,0,0,0.1,0,0.1l5.7-0.5c0,0,0.1,0,0,0.1l-3,5.3c0,0,0,0.1,0,0.1l5.5-0.2c0,0,0.1,0,0,0.1l-2.8,6.3"/>
	<linearGradient id="SVGID_11_" gradientUnits="userSpaceOnUse" x1="578.7492" y1="601.9863" x2="743.0701" y2="601.9863">
		<stop  offset="0" style="stop-color:#AC97C7"/>
		<stop  offset="0.2233" style="stop-color:#6AB1C5;stop-opacity:0.8"/>
		<stop  offset="0.3976" style="stop-color:#AECF91;stop-opacity:0.6"/>
		<stop  offset="0.6027" style="stop-color:#F9D948;stop-opacity:0.4"/>
		<stop  offset="0.8054" style="stop-color:#F08744;stop-opacity:0.2"/>
		<stop  offset="0.9256" style="stop-color:#E62462;stop-opacity:0.1"/>
	</linearGradient>
	<path class="st41" d="M743.1,570.7c0,0-42.9,55.2-164.3,57.8C603.3,640.8,721.3,632.3,743.1,570.7z"/>
	
		<linearGradient id="SVGID_12_" gradientUnits="userSpaceOnUse" x1="-1417.4618" y1="-730.3149" x2="-1209.1284" y2="-730.3149" gradientTransform="matrix(1.1272 0.4392 -0.3027 0.777 1686.8403 1743.7982)">
		<stop  offset="0" style="stop-color:#AC97C7"/>
		<stop  offset="0.2233" style="stop-color:#6AB1C5;stop-opacity:0.8"/>
		<stop  offset="0.3976" style="stop-color:#AECF91;stop-opacity:0.6"/>
		<stop  offset="0.6027" style="stop-color:#F9D948;stop-opacity:0.4"/>
		<stop  offset="0.8054" style="stop-color:#F08744;stop-opacity:0.2"/>
		<stop  offset="0.9256" style="stop-color:#E62462;stop-opacity:0.1"/>
	</linearGradient>
	<path class="st42" d="M557,614.5c0,0-82.5,30.5-257-34.6C330.3,605.7,502.1,663,557,614.5z"/>
</g>
</svg>
