<?xml version="1.0" encoding="utf-8"?>
<!-- Generator: Adobe Illustrator 24.0.1, SVG Export Plug-In . SVG Version: 6.00 Build 0)  -->
<svg version="1.1" xmlns="http://www.w3.org/2000/svg" xmlns:xlink="http://www.w3.org/1999/xlink" x="0px" y="0px"
	 viewBox="0 0 878 790.1" style="enable-background:new 0 0 878 790.1;" xml:space="preserve">
<style type="text/css">
	.st0{fill:#010202;}
	.st1{fill:#FFFFFF;}
	.st2{fill:none;stroke:#FFFFFF;stroke-width:3;stroke-miterlimit:10;}
</style>
<g id="Layer_2">
	<rect class="st0" width="878" height="790.1"/>
</g>
<g id="Layer_1">
	<path class="st1" d="M312.3,617.8c2.2,4.8,3.8,8.3,5.3,11.9c2.4,5.6,4.8,11.1,7,16.8c0.9,2.5,1.8,5.2,1.7,7.8
		c-0.3,6.4-4.4,10.3-10.9,10.6c-6.9,0.3-13.6-1.4-19.1-5.4c-3.5-2.6-3.1-7.2-2.9-11.2c0.1-2.4,0.5-4.8,0.8-7.2
		c-9.1-5.8-5.3-14.1-5-21.7c-0.3,0.1-0.7,0.1-1,0.2c-2.1-9.7-4.4-19.3-6.1-29c-1.5-8.9-2.3-17.9-3.2-26.9c-1.6-14.8-3-29.5-4.6-44.3
		c-2.5-24-8.3-47.3-13.8-70.7c-1.8-7.7-3.8-15.4-5.7-23c-0.4,0-0.8,0-1.2,0c-0.7,2.5-1.7,5-2.2,7.6c-4,21.3-8.6,42.6-11.8,64.1
		c-2.2,15.2-2.4,30.7-3.8,46c-2.2,23.5-4.7,47-7.3,70.5c-0.3,2.4-1.8,4.7-3,7.6c0.4,2.4,0.6,5.4,1.6,8.2c2.6,7.4,1.9,13.6-6.2,18.1
		c-0.3,0-1.5,0-3.1,0c-0.1,1.4-0.5,2.9-0.4,4.2c0.7,5.7-2.5,9-6.8,11.8c-8.4,5.4-17,6.9-26.5,2.7c-2-7-1.5-13.3,3.3-19.1
		c2-2.4,3.3-5.4,4.6-8.3c2.7-5.9,5.2-11.8,7.8-17.8c-3.7-18-3.8-36.7-4.5-55.2c-1.5-35.1-2.2-70.2-3.1-105.3
		c-0.2-9.3,0.3-18.6,0.4-28c0-1.3,0-2.7,0-4.4c-1.7,0.5-3.1,0.9-5.6,1.5c-1.6-4-3.1-7.9-4.6-11.7c-1.7,6.3-1,8.4,5.5,13
		c0.1,1.5,0.2,3.4,0.3,5.7c-3,0-5.4,0.2-7.8-0.1c-2.8-0.4-5.5-1.5-8.3-1.8c-7-0.7-10.7-5.5-12.4-11.2c-1.6-5.4-1.4-11.4-1.7-17.1
		c-0.1-2.3,0.3-4.5,0.4-7c-1.4-0.5-2.6-1-4-1.5c-0.1-1-0.3-1.9-0.3-2.8c0.3-9.7,0.4-19.4,1-29.1c1.4-22.4,2.3-44.8,4.8-67
		c2.5-21.6,6.4-43,10.4-64.3c1.8-9.5,5.7-18.6,12.5-25.9c1-1,2.4-1.7,3.7-2.3c11-5,22.2-9.9,33.2-15c1.4-0.7,3.3-2.3,3.4-3.6
		c0.5-5.7,0.9-11.5,0.3-17.1c-0.6-6.8-3-13.4-3.2-20.1c-0.3-7.6,0.9-15.3,1.6-23c1-10.2,12.8-20.2,23.2-20.4
		c11.1-0.2,18.8,4.8,24.6,14c2.9,4.7,4.3,9.3,4.4,14.8c0.1,7.7,1.1,15.3,1.3,23c0,2.5-1.2,5.2-2.6,7.3c-3.3,5-3.7,18.8,0,23.4
		c1.3,1.6,3.3,2.8,5.3,3.6c10.1,3.9,20.2,7.7,30.3,11.3c5.1,1.8,8.3,4.9,10.9,9.8c13,24.6,18.1,51.4,22.4,78.3
		c3.2,20.1,4.5,40.5,6.7,60.8c0.5,4.8,0.8,9.7,1.9,14.4c1.9,8.4,0.5,16.7,0.1,25c0,0.6-0.4,1.3-0.7,2c-1.4,0.4-2.8,0.8-4.6,1.3
		c0,4.8-0.1,9.5,0,14.3c0.4,14.2-13.1,21.5-24.5,21c-1,0-2-0.9-3.1-1.4c1.9-4.9,3.6-9.3,5.6-14.5c-3.4,3-6,5.3-8.6,7.5
		c-0.2-0.2-0.4-0.4-0.6-0.6c-0.1,0.3-0.3,0.5-0.3,0.8c-0.7,16.6-2.2,33.2-1.7,49.8c0.7,23.9,3,47.7,4.5,71.5
		c0.2,2.4,0.3,4.9,0.3,7.3c0,16.7-0.1,33.5,0,50.2c0,4.5,0,8.8-3.4,12.5C312.6,615.9,312.4,617.6,312.3,617.8z M316.2,307.8
		c0,0.7,0,1.3,0,2c0.2,0,0.3-0.1,0.5-0.1C316.5,309,316.3,308.4,316.2,307.8c-0.3-1.2-0.4-2.6-0.6-3.9c-0.3,0.1-0.7,0.2-1,0.3
		C315.1,305.4,315.6,306.5,316.2,307.8z M229.5,556.4c0.5-1.2,0.9-2.5,1.4-3.7c-0.2,0-0.3-0.1-0.5-0.1
		C230.1,553.8,229.8,555.1,229.5,556.4c0.1,0.9,0.1,1.8,0.1,2.6c0.2,0,0.3,0,0.5-0.1C229.8,558.1,229.6,557.2,229.5,556.4z
		 M260.4,261.4c3.1-3.4,6.1-11.2,4.7-13.9C263.4,252.4,261.8,256.9,260.4,261.4c0.1,0.2,0.2,0.3,0,0.1
		C260.4,261.8,260.4,261.6,260.4,261.4z M241.3,280.9c0-0.1,0-0.1,0-0.2c0,0.1,0.1,0.1,0.1,0.2c-0.1,0-0.1-0.1-0.2-0.1
		c-0.8-4.1-1.6-8.2-2.4-12.6c-1.7,1-2.6,1.7-3.5,2.2C237.7,274.4,239.5,277.7,241.3,280.9z M313,214.6
		C313.1,214.3,313.2,214,313,214.6C313.2,213.9,313.1,214.3,313,214.6c2,7.9,4,15.7,6,23.5c1.9,0,3.5,0,6.2,0
		c-3.9-8.2-7.4-15.8-11.1-23.3C314,214.6,313.4,214.7,313,214.6z M246.3,434.5c-4.8,1.5-9.6,2.9-14.5,4.4c0,4.7,0,9.4,0,14.7
		c4.1-1.9,7.9-3.6,11.9-5.4C244.6,443.7,245.4,439.1,246.3,434.5L246.3,434.5z M267.4,179.9c-1-6.4-0.9-12.2,3.9-16.9
		c0.7-0.7,0.8-2.3,0.7-3.4c-0.4-7.7-1.3-15.3-1.4-23c-0.1-9.8-4.5-17-12.5-22.1c-14.2-9-28.6-1.7-32.6,13.1c-2.3,8.6-2.4,18-1.9,27
		s3.1,17.8,4.8,27c5.4,3.4,11.1,6.9,16.2,10.1C255,192.1,260,184.4,267.4,179.9z M191.2,408.4c0.4-0.2,0.7-0.3,1.1-0.5
		c-0.8-1.9-1.6-3.8-2.3-5.7c-0.6-1.7-1.8-3.5-1.7-5.2c0.6-9,1.5-18,2.5-27c2.8-24.3,10.3-48.1,8.8-72.9c0-0.1,0-0.3,0-0.4
		c1.4-6.1-2.1-10.7-4.7-16.9c-0.3,1.7-0.3,2.2-0.4,2.6c-2.2,15.6-4.5,31.2-6.5,46.8c-2.6,20.1-4.6,40.2-4.7,60.5
		C183.1,397.6,186.2,403.1,191.2,408.4z M248.4,287.8c3-10,5.9-19.8,8.8-29.5c0.2-0.6,0.4-1.3,0.4-2c-0.5-4.3-1.1-8.6-1.6-12.8
		c-0.1-0.5,0-1.1-0.1-1.6c-1.3-10.8-2.7-21.7-4-32.5c-1-0.1-1.5-0.2-2-0.1c-0.5,0.1-0.9,0.4-1.4,0.6
		C238.4,235.8,238.9,261.6,248.4,287.8z M318.5,385.2c0.2,0,0.5,0,0.7,0c0-9.8,0.5-19.6-0.2-29.4c-0.6-8.4-2.4-16.8-4-25.2
		c-2.9-15.6-6.1-31.1-9.2-46.7c-0.4,0-0.8,0.1-1.2,0.1c-0.2,1-0.6,2-0.6,3c-0.3,8.1-0.9,16.2-0.9,24.3c0,4.7,0.4,9.5,1.4,14
		C309.1,345.4,313.8,365.3,318.5,385.2z M298,655.6c10.9,6.1,16.8,6.6,23.2,2.2c2.6-7.7-2.7-13.4-4.8-19.8c-2.5-1-4.6-1.9-6.5-2.7
		c-0.9-1.4-1.7-2.5-2.9-4.3c-3.2,2.7-6.2,5.2-9.1,7.6C298,644.8,298,650.3,298,655.6z M203.4,634c-2.8,2.7-5.4,4.6-7.3,7
		c-2.3,3-3.8,6.7-6,9.8c-2.6,3.8-3.5,7.7-2.4,11.9c5.9,4.7,20.7-0.5,24.3-6c0.6-0.9,0.8-2.2,1-3.4
		C214.4,644.9,207.4,640.8,203.4,634z M163,405.4c-3.1,14.3,1.2,27.2,17.9,26.5c-4.9-8-4.6-19.9,1.6-23.4c2.1,4.1,4.1,8.1,6.2,12.3
		c0.4-7-2-12.7-7.8-17.4C175.1,404,168.9,404.7,163,405.4z M323.1,403.3c4.5,3.5,4.6,8.8,1.3,23.5c10.6,1.8,20-12.2,15.9-24.2
		c-6.9-0.4-13.9-0.9-20.7-1.3c-1.8,6-3.4,11.3-5,16.7c0.3,0.2,0.5,0.3,0.8,0.5C317.9,413.5,320.4,408.6,323.1,403.3z M220.7,618.5
		c-4.9,0.3-10.2,0.6-15.6,0.9c-0.1,1.4-0.1,2.6-0.1,2.7c-1.8,3.3-3.1,5.7-3.9,7.2c4.9,5.4,9.1,10.1,11.3,12.5
		c3.6-2.3,7.4-4.8,11.1-7.2C222.4,629.1,221.5,623.8,220.7,618.5z M258.2,193.3c-4.9,18,1.7,34,1.9,50.3c0.6,0,1.2,0.1,1.8,0.1
		c2.3-14.2,4.5-28.3,6.8-42.5C265,198.4,261.8,196,258.2,193.3z M249.8,320.7H267v-18.3h-10.7c0.4,0.5,0.8,0.9,1.2,1.4
		c0.7,0.8,0.5,2-0.4,2.4c-1.5,0.8-3,1.4-4.5,1c-1.5-0.3-2.3-2.1-1.5-3.5l0.8-1.4c-0.7-0.1-1.5-0.2-2.2-0.3
		C249.5,308.2,249.6,314.2,249.8,320.7z M236.4,239.3c1.9-7,3.7-14.4,6-21.7c2.1-6.8,2.6-13.4-1.8-20.1c-1.2,1-2.6,1.9-3.5,3.1
		c-2.1,3.1-3.9,6.3-6.4,10.5C232.3,219.8,234.4,229.9,236.4,239.3z M250.2,338.6c1.2-0.5,2.2-0.9,3.2-1.3c0.8-0.3,1.7-0.4,2.6-0.2
		c0.2,0,0.4,0.1,0.6,0.2c1.8,0.5,2.7,2.5,1.8,4.1l0,0c2.9-0.2,5.7-0.3,8.6-0.5v-17.6h-16.7v15.3H250.2z M251.8,364.3
		c1.3,6.4,2.4,12.1,3.6,18c3.6,0,6.7,0,10.5,0c0-6.1,0-12,0-18C261.5,364.3,257.1,364.3,251.8,364.3z M177.2,264.4
		c-1.1,6.2-2.1,12-3.1,18c4.3,0.3,8,0.6,12.2,0.9c1-6,1.9-11.7,2.9-17.8C184.8,265.2,181.3,264.8,177.2,264.4z M311.8,626
		c-1.5-1.8-3.1-3.8-5.1-6.2c-4-0.2-8.3-0.4-12.4-0.6c-3.6,9.4-2.7,15.5,1.4,17.2C301.3,632.9,306.3,629.6,311.8,626z M177.6,262.3
		c4.3,0.4,8,0.8,12.1,1.1c0-6.4,3.3-12.2,0.2-18.3c-3.2-0.3-6.2-0.7-9.5-1C179.4,250.3,178.5,256,177.6,262.3z M316.9,240.8
		c-3.3,0.7-6,1.3-8.3,1.9c-2.8,6.3-1.6,12,0.8,18c3.8-0.6,7.5-1.1,11.4-1.7C319.3,252.7,318.1,246.9,316.9,240.8z M181.1,303.5
		c1.6-6.2,3-11.8,4.6-17.8c-4.4-0.4-8.2-0.7-12.2-1c-1.1,6.2-2,11.8-3.1,17.8C174.2,302.8,177.4,303.1,181.1,303.5z M323.9,279.2
		c-1-6.3-1.9-12-2.9-18.1c-4.2,0.7-7.8,1.3-11.6,1.9c1.4,6.3,2.7,11.9,4,17.9C317.1,280.3,320.2,279.8,323.9,279.2z M269.1,282.2
		c-1.7-0.3-2.9-0.5-3.9-0.6c-2.1,2.7-3.9,5.3-6,7.5c-2.2,2.3-5,4.1-7.3,6.3c-1,1-1.7,2.4-3,4.3c7,0,12.6,0,18.6,0
		C268,294,268.5,288.4,269.1,282.2z M266.8,343c-3.5,0.3-6.9,0.5-10.6,0.8c-0.3,6-0.5,11.7-0.8,17.5c4,0,7.5,0,11.4,0
		C266.8,355.1,266.8,349.3,266.8,343z M177.4,323.2c1.1-6,2.1-11.6,3.2-17.6c-3.9-0.3-7.2-0.6-10.7-0.9c-1.3,6.1-2.6,11.7-3.9,17.6
		C169.9,322.7,173.3,322.9,177.4,323.2z M242.1,321.2c-3.8,0.2-7,0.4-10.1,0.6c0,6.6,0,12.4,0,18.7c3.5-0.2,6.7-0.4,10.1-0.5
		C242.1,333.6,242.1,327.8,242.1,321.2z M269.6,321c3.5-0.2,6.6-0.5,10.1-0.7c0-6.2,0-11.9,0-17.9c-3.4,0-6.5,0-10.1,0
		C269.6,308.7,269.6,314.6,269.6,321z M171,382.7c0.6-6.2,1.2-11.9,1.8-18c-3.8-0.2-6.9-0.4-10.4-0.6c-0.8,6.2-1.6,11.8-2.4,17.8
		C163.9,382.1,167.1,382.4,171,382.7z M215.2,260.6c0.4,6.4,0.8,12.2,1.2,18.4c3.7-0.4,6.9-0.8,10.4-1.2c-0.8-6,1.7-12-1.9-17.1
		C221.6,260.6,218.8,260.6,215.2,260.6z M326.3,361.7c0.7,6.2,1.3,11.7,2,17.7c3.8-0.6,7.1-1.1,10.8-1.6c-0.6-5.9-1.2-11.3-1.8-17
		C333.5,361.1,330.2,361.4,326.3,361.7z M164.3,343.7c-0.5,6.2-1.1,11.9-1.6,18.1c3.6,0.2,6.8,0.4,10.4,0.6c0.6-6.2,1.2-12,1.8-18.2
		C171.2,344.1,168.1,343.9,164.3,343.7z M242,301.1c-3.8,0-7.1,0-10.3,0c0,6.2,0,12.1,0,17.9c3.7,0,6.9,0,10.3,0
		C242,312.8,242,307.1,242,301.1z M221.6,363.1c0.3,6.5,0.6,12.3,0.8,18.4c4-0.3,7.3-0.5,10.9-0.7c-0.6-6.2-1.1-11.9-1.7-17.7
		C228.2,363.1,225.2,363.1,221.6,363.1z M337.1,358.5c-0.9-6.4-1.7-12.1-2.6-18.3c-3.7,0.6-6.8,1.1-10.1,1.7
		c0.6,5.9,1.1,11.4,1.7,17.3C329.8,359,333.2,358.7,337.1,358.5z M317.4,300.6c3.7-0.6,7.1-1.1,10.6-1.7c-1.3-6.1-2.5-11.7-3.7-17.6
		c-3.7,0.7-6.9,1.3-10.4,1.9C315.1,289.2,316.2,294.7,317.4,300.6z M279.7,437.6c0,5.4,0,10.3,0,15.3c4,0,7.6,0,11.4,0
		c0-5.3,0-10.4,0-15.9C287.1,437.2,283.4,437.4,279.7,437.6z M223.6,402.4c3.7-0.4,6.8-0.7,9.7-1c0-6.4,0-12,0-17.5
		c-3.8,0-7.1,0-10.7,0C222.9,390.1,223.2,395.8,223.6,402.4z M165.8,324.7c-0.5,5.7-0.9,11.1-1.4,17c3.9,0,7.3,0,10.9,0
		c0.6-5.5,1.1-10.6,1.7-16.2C173.3,325.2,169.9,324.9,165.8,324.7z M220,341.3c3.2-0.3,6.4-0.6,9.2-0.9c0-6.5,0-12.4,0-18.3
		c-3.3,0-6,0-9.2,0C220,328.5,220,334.7,220,341.3z M269.5,343.3c0,6.2,0,12.1,0,18c3.1,0,6.2,0,9.5,0c0-6.1,0-11.9,0-18
		C275.9,343.3,273.1,343.3,269.5,343.3z M220.3,383.9c-3.4,0-6.3,0-9.3,0c0,5.9,0,11.6,0,17.8c3.5,0.2,6.6,0.4,10.3,0.7
		C221,395.7,220.6,389.9,220.3,383.9z M226.8,280c-3.6,0.4-6.5,0.7-10,1c0.7,6.1,1.4,11.9,2.1,18.2c3.4-0.2,6.5-0.5,10-0.7
		C228.2,292.1,227.5,286.3,226.8,280z M317.7,302.7c1.2,6.2,2.3,11.8,3.5,17.5c3.7-0.7,6.8-1.4,10.2-2.1c-1-5.7-2-11.1-3-16.8
		C324.8,301.8,321.5,302.2,317.7,302.7z M290,417.9c-4.3,1.2-8,2.3-11.8,3.4c0.3,4.9,0.5,9.3,0.8,14.1c4.2-0.3,8-0.5,12.1-0.8
		C290.7,428.8,290.4,423.8,290,417.9z M271.2,282.4c-0.5,5.8-1,11.5-1.5,17.3c3.8,0,7,0,10.4,0c0.6-5.8,1.1-11.4,1.7-17.3
		C278.3,282.4,275.1,282.4,271.2,282.4z M285,241.8c0,5.7,0,11.3,0,17.2c3.4,0.3,6.3,0.5,9.5,0.8c0.4-6.2,0.8-11.9,1.2-18
		C292.1,241.8,289.1,241.8,285,241.8z M201.6,242.3c0.6,6,1.1,11.5,1.6,17.5c3.5-0.4,6.5-0.8,9.6-1.2c0-6,0-11.6,0-17.6
		C209,241.5,205.5,241.9,201.6,242.3z M228.9,454.7c0-5.6,0-10.6,0-16c-3.9,0.2-7.5,0.4-11.4,0.6c0.3,5.8,0.7,11.1,1,16.7
		C222.4,455.5,225.6,455.1,228.9,454.7z M269.7,323.1c0,6.2,0,11.8,0,17.7c3.4,0,6.4,0,9.6,0c0-6,0-11.9,0-17.7
		C275.9,323.1,272.9,323.1,269.7,323.1z M231.8,360.5c-0.7-6.2-1.4-11.8-2.1-17.7c-3.6,0.2-6.6,0.3-10.1,0.5
		c0.6,6.1,1.2,11.6,1.7,17.2C224.9,360.5,227.9,360.5,231.8,360.5z M229.1,280.1c0.7,6.4,1.4,12.2,2,17.9c3.9,0,7.3,0,10.5,0
		c2.1-7.4-2.7-12-5.4-17.4C233.9,280.5,231.9,280.3,229.1,280.1z M278.2,381.8c0-6,0-11.7,0-17.6c-2.9,0-5.9,0-9.5,0
		c0,6.3,0,12.2,0,18.4C271.8,382.3,274.7,382.1,278.2,381.8z M217.3,421.5c0,5.5,0,10.2,0,15.5c4.2-0.3,7.9-0.5,11.8-0.7
		c0-4.9,0-9.3,0-14.2C225,421.8,221.2,421.7,217.3,421.5z M334.2,337.8c-0.8-5.9-1.6-11.4-2.5-17.3c-3.5,0.6-6.6,1.2-10.3,1.9
		c0.9,5.9,1.8,11.4,2.7,17.1C327.7,338.9,330.6,338.4,334.2,337.8z M286.6,522.1c0,5.7,0,11,0,16.6c4,0,7.6,0,11.4,0
		c-0.6-5.1-1.2-10-1.8-15.2C292.9,523.1,289.8,522.6,286.6,522.1z M290.8,381.5c0-6.2,0-11.7,0-17.3c-3.3,0-6.4,0-9.7,0
		c-0.3,6-0.6,11.7-0.8,17.3C284.1,381.5,287.2,381.5,290.8,381.5z M209.5,363.7c0.4,6.1,0.7,11.8,1,17.6c3.5,0,6.4,0,9.7,0
		c-0.4-6.1-0.7-12-1.1-18.2C215.9,363.3,213,363.5,209.5,363.7z M217.4,529.6c0.3,5,0.6,9.2,0.8,13.6c3.8,0,7.2,0,10.6,0
		c0-5.5,0-10.6,0-16.2C224.9,527.9,221.3,528.7,217.4,529.6z M243.5,359.8c-0.5-6.1-0.9-11.7-1.4-17.1c-3.6,0-6.7,0-10.2,0
		c0.7,6.2,1.4,11.9,2,17.8C237.4,360.3,240.2,360.1,243.5,359.8z M229,300.8c-3.3,0.3-6.3,0.6-9,0.8c0,6.3,0,12.1,0,18.2
		c3.4-0.2,6.2-0.3,9-0.5C229,313,229,307.1,229,300.8z M290.9,361.4c0-5.5,0-10.6,0-15.7c-3.2-0.9-6-1.7-9.3-2.6
		c0,6.4,0,12.2,0,18.3C284.7,361.4,287.7,361.4,290.9,361.4z M204.5,438.5c0.4,5.8,0.7,10.9,1.1,16.3c3.7,0.4,6.9,0.7,10.5,1
		c-0.4-5.8-0.7-10.9-1-16.6C211.7,439,208.5,438.8,204.5,438.5z M276.7,261.9c-4.1,5.4-7,10.7-4.8,17.6c3.2,0,6.5,0,10.2,0
		c0-6.2,0-12,0-18.1C280.2,261.6,278.5,261.8,276.7,261.9z M264.2,421c3.8-0.6,7.4-1.2,11.4-1.8c-1.4-5-2.6-9.4-3.9-14.3
		c-4.2,1-7.9,1.9-11.8,2.8C261.4,412.4,262.7,416.5,264.2,421z M204.8,436.1c3.4,0.2,6.6,0.4,9.5,0.6c0-5.6,0-10.5,0-15.5
		c-3.3-0.6-6.2-1.2-9.5-1.8C204.8,425,204.8,430.3,204.8,436.1z M233.9,362.6c0.6,6.4,1.1,12.2,1.6,18.3c3.3-0.3,6.1-0.6,9-0.9
		c-0.4-6.1-0.7-11.7-1-17.3C240.3,362.6,237.6,362.6,233.9,362.6z M279.8,455.9c0.4,5,0.8,9.6,1.3,14.6c3.7,0,6.9,0,10.2,0
		c0-5,0-9.7,0-14.6C287.3,455.9,283.8,455.9,279.8,455.9z M303.3,431.6c-0.4-5.7-0.7-10.9-1.1-16.4c-3.5,0.8-6.5,1.4-9.9,2.1
		c0.4,5.7,0.8,11,1.2,16.9C297,433.3,300,432.5,303.3,431.6z M229.3,473c0-5.4,0-10.4,0-15.8c-3.8,0.5-7.1,0.9-10.8,1.3
		c0.3,5.2,0.7,10,1,15.1C223.3,473.3,226.4,473.1,229.3,473z M277.6,384.2c-3.4,0.2-6.3,0.3-9.7,0.4c-0.4,5.4-0.7,10.4-1,15.6
		c3.8,0,7.1,0,10.7,0C277.6,394.9,277.6,389.9,277.6,384.2z M218.6,512.1c-0.4,4.9-0.8,9.7-1.2,15c4.2-1,7.8-1.8,11.7-2.7
		c0-5,0-9.6,0-14.8C225.7,510.4,222.3,511.2,218.6,512.1z M219.6,406.8c-0.9,4.2-1.7,8-2.6,12.2c4.3,0.3,8.3,0.5,12.5,0.7
		c1.1-4.6,2-8.8,3.1-13.5C228.1,406.4,224.1,406.6,219.6,406.8z M204,561.4c3.9,0.2,7.2,0.4,11.2,0.6c0-5.5,0-10.5,0-16
		c-3.1,0.2-6.2,0.4-9.6,0.6C205.1,551.6,204.6,556.2,204,561.4z M280.2,384.1c0,5.5,0,10.5,0,16c3.6-0.6,7-1.1,10.2-1.7
		c0-5.2,0-9.9,0-14.8C287,383.8,283.9,383.9,280.2,384.1z M303,610.6c3.3-0.4,6.3-0.7,9.3-1c0-5.7,0-10.6,0-15.7c-3.2,0-6,0-9.3,0
		C303,599.4,303,604.6,303,610.6z M294.1,436.6c0,5.4,0,10.5,0,16c3.6-1.3,6.6-2.3,9.3-3.3c0-5.2,0-9.9,0-15.1
		C300.1,435,297.3,435.7,294.1,436.6z M291.1,592.1c0,5.9,0,11.2,0,16.9c2.9,0.3,5.8,0.7,9.1,1.1c0-5.7,0-10.9,0-16.6
		C297.5,593.1,294.6,592.6,291.1,592.1z M208.4,383.7c-3.2,0.2-5.9,0.3-8.4,0.4c0,5.9,0,11.1,0,16.8c3.1,0.1,5.7,0.3,8.4,0.4
		C208.4,395.2,208.4,389.7,208.4,383.7z M289.6,415.5c-1.1-4.2-2.2-7.9-3.2-11.9c-4.2,0.5-7.8,1-12,1.5c1.2,4.7,2.4,9,3.6,13.6
		C282,417.7,285.5,416.7,289.6,415.5z M295.1,222.7c1.1,5.8,2.2,11.3,3.3,17.1c2.3,0.3,4.5,0.5,6.8,0.8c0-6.1,0-11.8,0-17.9
		C301.6,222.7,298.5,222.7,295.1,222.7z M219.6,494.2c-0.3,5.2-0.6,10-0.9,15.4c3.9-1,7.2-1.8,10.5-2.6c0-5.1,0-9.7,0-14.7
		C225.8,493.1,222.9,493.6,219.6,494.2z M286.6,541.1c0.8,5.3,1.5,10,2.3,15c3.5-0.3,6.6-0.5,10.1-0.7c-0.3-4.8-0.6-9.1-0.8-13.7
		C294.1,541.5,290.6,541.3,286.6,541.1z M276.6,251.1c2.5-5.8,4.9-11.3,7.3-17c-3.4-1.2-6-2.1-9.1-3.1c-1.8,5.6-3.5,10.9-5.3,16.5
		C272,248.7,274.1,249.8,276.6,251.1z M205.7,457.2c0.7,5.7,1.2,10.7,1.8,15.9c3.2,0,6.1,0,9.6,0c-0.3-4.9-0.6-9.7-0.9-14.7
		C212.6,458,209.5,457.6,205.7,457.2z M293.1,487.9c-0.5-5.2-0.9-9.8-1.3-14.7c-3.8,0-7,0-10.6,0c0.5,4.7,0.9,9,1.4,13.6
		C286.2,487.1,289.4,487.5,293.1,487.9z M219.8,476c0,5.4,0,10.3,0,15.7c3.3-0.6,6.3-1.2,9.6-1.8c0-5,0-9.6,0-14.5
		C226.2,475.6,223.2,475.8,219.8,476z M303.4,468.5c0-5.6,0-10.8,0-16.6c-3.5,1.2-6.6,2.3-9.1,3.1c0,5.5,0,10.2,0,15.4
		C297.6,469.7,300.4,469.1,303.4,468.5z M284.9,261.2c0,6.5,0,12.5,0,18.7c2.1,0,4.2,0,6.7,0c0.9-5.9,1.7-11.6,2.6-17.7
		C291,261.9,288.4,261.6,284.9,261.2z M226.8,560.8c0.6-5,1.2-9.8,1.8-14.6c-3.9,0-7,0-10.6,0c0,5.4,0,10.4,0,15.7
		C220.7,561.5,223.4,561.2,226.8,560.8z M326.7,280.9c1.2,5.9,2.4,11.6,3.6,17.6c2.7-0.2,5.2-0.5,8.1-0.7
		c-1.1-6.4-2.1-12.2-3.2-18.2C332.1,280.1,329.6,280.5,326.7,280.9z M215.8,600c0,5.7,0,10.8,0,16.5c3-0.7,5.5-1.2,8.5-1.8
		c0-5.8,0-11.2,0-17.1C220.9,598.6,218.4,599.3,215.8,600z M207.9,475.5c0,5.6,0,10.5,0,15.6c3.1,0.4,5.9,0.7,8.9,1.1
		c0-5.6,0-10.8,0-16.2C213.7,475.8,210.9,475.7,207.9,475.5z M207.4,280.3c2.6-0.6,4.6-1,6.7-1.5c-0.4-6.2-0.7-11.8-1.1-17.9
		c-3.4,0.4-6.3,0.8-9.5,1.2C204.8,268.3,206,274,207.4,280.3z M239.4,468.9c1.2-5.9,2.3-11.4,3.6-17.7c-4.3,1.9-7.7,3.5-10.6,4.8
		c0,5.6,0,10.6,0,16.1C235.1,470.8,237.2,469.9,239.4,468.9z M199.8,363.5c0,6.4,0,12.2,0,18.3c2.9-0.1,5.5-0.3,8.5-0.4
		c-0.4-6.1-0.7-11.7-1-17.4C204.7,363.8,202.6,363.7,199.8,363.5z M199.5,240.4c0.7-5.6,1.4-10.9,2.2-16.9c-3.7,0.6-6.5,1-9.5,1.5
		c0,6,0,11.5,0,17.4C194.7,241.6,197,241,199.5,240.4z M212.3,579.5c0.8-5,1.7-9.8,2.5-14.9c-4-0.3-7.2-0.6-10.5-0.8
		c0,5.6,0,10.6,0,15.7C207,579.5,209.4,579.5,212.3,579.5z M294.7,505.5c-0.6-5.4-1-10.2-1.5-15.2c-3.5-0.3-6.7-0.6-10.3-0.9
		c0.8,5.2,1.6,9.9,2.4,14.7C288.5,504.5,291.2,504.9,294.7,505.5z M231.9,421.3c0,5.1,0,9.7,0,14.7c3.2-0.7,6.2-1.3,9.3-2
		c0.6-4.4,1.1-8.6,1.6-12.7C238.9,421.3,235.5,421.3,231.9,421.3z M291.2,589.8c3.5,0.5,6.4,0.8,9.7,1.3c0-5.2,0-10,0-15.1
		c-2.6-0.5-5.3-1-8.3-1.6C292.2,579.7,291.7,584.4,291.2,589.8z M215,597.8c3.5-1,6.1-1.8,9-2.7c-0.3-5.1-0.5-9.9-0.8-15
		c-3.1,0.5-5.7,0.9-8.1,1.4C215,586.9,215,592,215,597.8z M209.5,361.6c3.5-0.3,6.4-0.6,9.6-0.9c-0.5-5.3-1-10.2-1.5-15.6
		c-3.1,0.8-5.6,1.5-8.1,2.2C209.5,352.1,209.5,356.5,209.5,361.6z M301.5,380.5c-0.4-6.3-0.8-12-1.1-18.1c-2.7,0.5-4.8,0.9-7.1,1.3
		c0,5.9,0,11.5,0,17.5C296.2,381,298.6,380.8,301.5,380.5z M331,259.3c-1.8-6.8-3.5-12.9-5.2-19.1c-2.6,0.3-4.5,0.4-6.6,0.7
		c1.3,6.2,2.5,11.9,3.8,18C325.6,259,327.8,259.1,331,259.3z M301.4,573.5c-0.9-5.8-1.7-10.6-2.5-15.6c-3.4,0.2-6.3,0.3-9.6,0.5
		c1.2,4.9,2.3,9.1,3.4,13.5C295.5,572.4,298.1,572.9,301.4,573.5z M208.3,509.7c2.9,0,5.3,0,8.1,0c0.2-5.1,0.4-10,0.7-15.1
		c-3.2-0.3-5.8-0.6-8.7-0.9C208.3,499.2,208.3,504.2,208.3,509.7z M207.9,222.6c-1.5,0.3-2.5,0.4-3.8,0.7
		c-0.8,5.5-1.5,10.9-2.3,16.8c4.3-0.5,8.1-0.9,12.4-1.4C211.9,232.9,209.9,227.9,207.9,222.6z M326.2,278.7c2.9-0.5,5.5-0.9,8.4-1.4
		c-1.3-5.6-2.4-10.7-3.7-15.9c-2.6,0-4.8,0-7.4,0C324.4,267.1,325.3,272.5,326.2,278.7z M247.2,407.8c-4.3-0.5-8.1-1-12.2-1.4
		c-1,4.2-1.8,8-2.8,12.4c4.2-0.2,7.7-0.3,11.4-0.5C244.7,414.9,245.9,411.6,247.2,407.8z M212.9,600.5c-2.8-0.1-5.2-0.2-7.9-0.4
		c0,5.8,0,11,0,16.4c2.9,0,5.4,0,7.9,0C212.9,611.1,212.9,606,212.9,600.5z M330.8,301c1.1,5.9,2,11.2,3,16.8
		c2.7-0.1,4.9-0.2,7.4-0.3c-0.9-6.2-1.7-11.8-2.5-17.6C335.7,300.3,333.5,300.6,330.8,301z M301.3,557.8c0.9,5.6,1.7,10.7,2.5,16.1
		c2.8-0.5,5.2-1,8.3-1.6c-1.2-5.6-2.3-10.7-3.5-16.2C306,556.7,304,557.2,301.3,557.8z M207.3,528.1c-0.5,5.5-0.9,10.4-1.4,15.4
		c3.4,0,6.4,0,9.8,0c-0.2-4.8-0.4-9.1-0.7-13.5C212.3,529.4,210.1,528.8,207.3,528.1z M248.1,405.4c1.6-7.6,6.7-14.4,2.9-22
		c-3.9,7-7.9,14.1-11.8,21.1C241.5,404.7,244.6,405,248.1,405.4z M303.9,396.5c3.8-1.5,7-2.7,10.5-4.1c-0.7-4.2-1.3-8.2-1.9-12.7
		c-3.3,1.1-5.9,2-8.5,2.9C303.9,387.2,303.9,391.3,303.9,396.5z M275.6,228.9c3.1,1,5.9,1.9,8.8,2.9c1.5-4.7,2.8-9,4.2-13.6
		c-3-1-5.6-1.7-8.5-2.7C278.6,220.1,277.1,224.3,275.6,228.9z M291.9,415c3.5-0.8,6.7-1.4,10.2-2.2c-1-4.1-1.8-7.7-2.7-11.5
		c-3.7,0.7-6.9,1.3-10.6,1.9C289.9,407.3,290.8,411,291.9,415z M212.4,582.4c-2.9,0-5.4,0-8.4,0c0.3,5.3,0.6,10.2,1,15.2
		c2.9,0.1,5.2,0.2,7.5,0.3C212.4,592.5,212.4,587.6,212.4,582.4z M189.7,226.1c-2,0.1-3.8,0.2-5.9,0.3c-1,4.9-1.9,9.9-3,15.5
		c3.1,0.3,5.8,0.6,8.9,1C189.7,237,189.7,231.7,189.7,226.1z M311.7,575c-3,0.6-5.4,1-7.7,1.5c-0.3,5-0.5,9.7-0.8,14.4
		c3.1,0,5.9,0,8.5,0C311.7,585.4,311.7,580.5,311.7,575z M214.6,418.6c0.9-4.2,1.7-7.9,2.6-12.1c-3.8-0.4-7.2-0.7-11-1
		c-0.5,4.1-1,7.6-1.5,11.5C208.2,417.6,211.2,418.1,214.6,418.6z M302.9,471c-2.9,0.6-5.7,1.3-8.7,1.9c0.5,5.2,0.9,9.9,1.3,15.1
		c2.7-0.7,4.8-1.3,7.3-2C302.9,481,302.9,476.2,302.9,471z M249.6,408c-1.2,3.5-2.2,6.7-3.3,9.8c5.2,0.9,10,1.6,15.1,2.5
		c-1.4-4.3-2.7-8.3-4-12.3C254.9,408,252.5,408,249.6,408z M302.7,362c0.4,6.2,0.7,12,1.1,18.3c3-1,5.5-1.9,8.1-2.7
		c-1.3-6-2.4-11.5-3.7-17.3C306.2,360.9,304.7,361.4,302.7,362z M285.4,506.5c0.3,4.8,0.5,8.9,0.8,13.1c3.3,0.4,6.3,0.8,9.8,1.3
		c-0.4-4.8-0.8-8.8-1.1-13C291.6,507.5,288.9,507.1,285.4,506.5z M275.9,253.3c-2.6-1.4-4.7-2.5-7.2-3.8c-2.5,5.7-4.8,11.1-7.3,16.8
		c1.9,0.9,3.5,1.6,5.3,2.5C270,263.5,272.9,258.5,275.9,253.3z M292.9,383.7c0,4.8,0,9.3,0,14.2c3-0.5,5.7-1,8.3-1.5
		c0-4.8,0-9.1,0-13.8C298.3,383.1,295.8,383.4,292.9,383.7z M223.2,577.6c0.9-4.6,1.9-9.1,3-14.3c-3.5,0.4-6.1,0.8-9,1.1
		c-0.8,4.9-1.6,9.5-2.4,14.5C218,578.5,220.5,578.1,223.2,577.6z M276.8,437.7c-2.9-0.5-5.6-1-8.9-1.6c0.5,5.2,0.9,9.7,1.3,14.4
		c2.6,0.8,5,1.5,7.6,2.3C276.8,447.5,276.8,442.8,276.8,437.7z M329.5,391.8c3.9,0,7.2,0,11,0c-0.4-4-0.8-7.6-1.3-11.6
		c-3.9,0.6-7.2,1.2-10.7,1.8C328.9,385.5,329.2,388.4,329.5,391.8z M197.8,486.4c2.3,1.1,4.7,2.3,7.3,3.5c0-5.4,0-10.3,0-15.2
		c-2.8-1-5.2-1.9-8.1-3C197.3,477.1,197.5,481.6,197.8,486.4z M264.7,423.3c1,3.9,1.9,7,2.8,10.3c3.1,0.6,5.8,1,8.5,1.5
		c0-4.6,0-8.8,0-13.5C272.1,422.2,268.7,422.7,264.7,423.3z M288.8,299.8c0.8-6,1.5-11.6,2.3-17.3c-2.8,0-4.8,0-7.2,0
		c-0.5,5.9-0.9,11.4-1.4,17.3C284.8,299.8,286.5,299.8,288.8,299.8z M302.3,260.5c1.1-6.1,2.2-11.7,3.3-17.7c-2.8-0.2-5-0.3-7.6-0.5
		c-0.5,6.1-0.9,11.8-1.3,17.7C298.6,260.2,300.2,260.4,302.3,260.5z M272.6,209.6c2,1,4,1.9,6.3,3.1c1.5-4.3,2.8-8.1,4.3-12.1
		c-3.6-1.5-6.8-2.8-10.6-4.4C272.6,200.8,272.6,205,272.6,209.6z M278.7,469.9c-0.5-5.2-0.9-9.8-1.4-14.5c-2.7-0.8-4.9-1.6-7.8-2.5
		c0.3,5.4,0.6,10,0.9,14.7C273.3,468.5,275.7,469.2,278.7,469.9z M207.8,282.5c1.1,6,2.1,11.6,3.1,17.4c2.2-0.2,3.8-0.3,5.9-0.4
		c-0.8-6.3-1.5-12.1-2.3-18.2C212.1,281.7,210.3,282,207.8,282.5z M195.7,210.2c-1,4-2,7.8-3.1,12.3c3.7-0.5,6.7-1,9.7-1.4
		c0.9-2.3,1.8-4.2,2.6-6.2c-0.8-2-1.6-3.9-2.4-5.9C200.1,209.5,198,209.8,195.7,210.2z M316.3,238.7c-1.2-5.6-2.4-10.9-3.5-16.2
		c-2,0.4-3.5,0.8-4.7,1.1c0,5.5,0,11,0,16.8C311.1,239.8,313.4,239.3,316.3,238.7z M341.4,319.8c-2.7,0.2-4.8,0.3-7.3,0.5
		c0.9,5.9,1.7,11.3,2.5,17c2.3-0.6,4.1-1.1,6.1-1.6C342.3,330.5,341.9,325.6,341.4,319.8z M208.3,512.5c-0.3,4.3-0.6,8.7-1,13.2
		c2.8,0.6,5.1,1,7.6,1.5c0.4-5.2,0.8-9.8,1.1-14.7C213.4,512.5,211.1,512.5,208.3,512.5z M203.6,303.1c0,6.2,0,11.8,0,17.9
		c2.1-0.1,3.9-0.2,6.2-0.3c-0.3-6.2-0.6-12.1-0.9-18.3C206.8,302.6,205.3,302.8,203.6,303.1z M203.3,456.9c-2.3-1.1-4.2-2-6.4-3
		c0,5.5,0,10.4,0,15.3c2.7,1,5,1.9,8,3C204.4,466.7,203.9,461.9,203.3,456.9z M198.6,504.1c2.2,1.2,4.4,2.4,6.9,3.8
		c0-5.3,0-10,0-14.9c-2.4-1.2-4.8-2.3-7.6-3.7C198.2,494.5,198.4,499,198.6,504.1z M289.8,320.4c2.4,0.2,4.2,0.3,6.1,0.4
		c0-6,0-11.6,0-17.4c-1.8-0.2-3.4-0.3-5.4-0.5C290.3,308.9,290.1,314.3,289.8,320.4z M199.5,242.8c-2.7,0.7-4.7,1.2-7.2,1.8
		c1.5,6.1,2.8,11.8,4.2,17.9c1.8-0.8,3-1.3,4.4-1.9C200.5,254.8,200,249.2,199.5,242.8z M168.9,264.5c-1,6.1-2,11.9-3,18.2
		c2.3-0.2,4-0.4,6-0.6c1-5.9,2.1-11.7,3.1-17.6C172.7,264.5,171.1,264.5,168.9,264.5z M289.3,216c1.3-4.3,2.4-7.8,3.6-11.7
		c-2.7-1-5.1-2-7.8-3c-1.5,4.3-2.8,8-4.3,12.1C283.8,214.4,286.3,215.1,289.3,216z M217.8,320c-0.3-6.3-0.6-12.2-1-18.3
		c-2,0.1-3.5,0.2-5,0.3c0,6.2,0,12,0,18C213.9,320,215.5,320,217.8,320z M280.2,486c-0.5-5-1-9.2-1.4-13.4c-2.8-0.8-5.3-1.5-8.8-2.6
		c1.1,5.3,2.1,9.9,3.1,14.4C275.6,485,277.6,485.5,280.2,486z M288.5,302.7c-2.5,0-4.3,0-6.3,0c0,5.9,0,11.5,0,17.4
		c1.8,0,3.3,0,5.3,0C287.9,314.3,288.2,308.7,288.5,302.7z M344.4,357.2c-0.6-6.5-1.1-12.6-1.6-19c-2.3,0.6-4,1-5.9,1.5
		c0.9,6.3,1.7,12.3,2.6,18.4C341.3,357.8,342.6,357.6,344.4,357.2z M236,383c0,5.5,0,10.7,0,16.2c6-4.4,7.6-10.4,9.4-17
		C242,382.5,239.2,382.7,236,383z M175.4,262c1-6.3,1.8-11.9,2.8-18.1c-2.3,0.4-3.9,0.7-5.6,1.1c-1.1,5.8-2.2,11.3-3.4,17.3
		C171.5,262.2,173.3,262.1,175.4,262z M295.6,490.4c0.5,5.1,1,9.7,1.5,14.8c2.6-0.8,4.6-1.4,6.8-2.1c-0.4-4.8-0.8-9.4-1.3-14.3
		C300.2,489.4,298.2,489.8,295.6,490.4z M304.1,220.6c-1.3-5.2-2.4-9.4-3.6-13.9c-1.2-0.3-2.3-0.5-3.5-0.8
		c-1.4,4.4-2.6,8.5-4.3,13.7C296.7,220,300,220.3,304.1,220.6z M217.3,235.4c2.4,5.5,4.6,10.5,7,15.9c2-1.2,3.4-2,4.9-3
		c-2.1-5.4-4.2-10.5-6.3-15.9C220.8,233.5,219.4,234.2,217.3,235.4z M304.7,523.6c-2.1,0.1-3.7,0.2-6,0.3c0.6,5.2,1.1,10.1,1.7,15.3
		c2.7-0.3,4.9-0.5,7.4-0.7C306.7,533.3,305.8,528.6,304.7,523.6z M158.6,394.4c4-0.5,7.3-0.9,10.7-1.3c0.5-2.8,0.9-5.3,1.4-8.4
		c-3.9,0-7.4,0-11,0C159.3,387.8,159,390.7,158.6,394.4z M296.4,301.3c0.8-6.2,1.6-12,2.5-18c-2-0.3-3.6-0.5-5.4-0.7
		c-0.9,6.2-1.7,11.9-2.5,17.9C292.8,300.7,294.2,301,296.4,301.3z M293.7,280.2c2.2,0.3,3.6,0.5,5.4,0.8c0.9-6.1,1.8-11.9,2.7-18.2
		c-1.9-0.1-3.5-0.2-5.5-0.3C295.5,268.5,294.6,274.2,293.7,280.2z M276.1,502.3c2.4,0.5,4.2,0.8,6.6,1.3c-0.9-5.3-1.6-10.1-2.4-15
		c-2.4-0.5-4.3-0.9-6.8-1.4C274.5,492.6,275.3,497.3,276.1,502.3z M229.3,226.4c-1-4.7-1.9-9-2.9-13.7c-2.6,1.1-4.7,2.1-7.2,3.2
		c1.6,4.6,3.2,8.8,4.8,13.3C226,228.2,227.5,227.4,229.3,226.4z M347.2,377.3c-0.8-6-1.5-11.6-2.3-17.6c-2,0.4-3.5,0.7-5.1,1.1
		c0.6,5.8,1.2,11.2,1.8,16.8C343.5,377.6,345,377.5,347.2,377.3z M303.8,521.1c0-5.3,0-10.1,0-15.4c-2.6,0.8-4.4,1.4-6.6,2
		c0.4,4.6,0.9,9,1.3,13.3C300.6,521.1,302.2,521.1,303.8,521.1z M196.8,416.9c0,6,0,11.5,0,17.1c1.8,0.6,3.3,1,5.2,1.6
		c0-6,0-11.3,0-16.7C200.2,418.2,198.6,417.6,196.8,416.9z M230.9,202.3c2.4-3.2,4.8-6.2,7.4-9.6c-2.8-1.7-6.1-3.8-9.4-5.9
		C227,192.7,227.6,195.8,230.9,202.3z M265.7,384.8c-3.4,0-6.4,0-9.4,0c0.7,6.3,4,11.8,8.4,13.9C265,394.2,265.3,389.7,265.7,384.8z
		 M260.3,268.2c-2.7,6.7-5.2,13-7.7,19.3c0.4,0.2,0.7,0.4,1.1,0.6c6.1-4.1,8.2-11.1,12.2-17C264,270.1,262.6,269.3,260.3,268.2z
		 M307.7,553.9c0-4.5,0-8.5,0-13c-2.6,0.3-4.8,0.6-7.2,0.9c0.2,4.7,0.4,8.9,0.6,13.5C303.7,554.8,305.7,554.4,307.7,553.9z
		 M211.2,219.3c1.9,4.8,3.6,9.2,5.5,13.8c1.9-1,3.5-1.9,5.4-2.8c-1.7-4.6-3.2-9-4.9-13.6C215,217.7,213.3,218.4,211.2,219.3z
		 M226.1,210.5c-0.9-4.1-1.7-7.7-2.6-11.7c-2.9,1.8-5.2,3.1-7.7,4.6c0.9,3.5,1.8,6.6,2.8,10.2C221.3,212.5,223.5,211.6,226.1,210.5z
		 M199.2,507.2c0,5.1,0,9.6,0,14.2c1.9,1,3.6,1.9,6,3.2c0.2-5,0.5-9.2,0.7-13.7C203.6,509.7,201.5,508.5,199.2,507.2z M184.8,324.5
		c0.9-6.2,1.7-11.8,2.5-17.7c-1.8-0.2-3.1-0.3-4.6-0.5c-1.1,5.8-2.1,11.2-3.1,16.9C181.3,323.6,182.6,323.9,184.8,324.5z
		 M293.5,361.3c2.6-0.4,4.6-0.7,6.8-1.1c-0.5-4.5-0.9-8.5-1.3-12.5c-2.1-0.5-3.7-0.9-5.6-1.4C293.5,351.4,293.5,356.1,293.5,361.3z
		 M168.2,302.4c1.1-6.1,2-11.7,3.1-17.8c-2.2,0.2-3.8,0.3-5.7,0.4c-0.6,5.6-1.1,10.9-1.7,16.4C165.3,301.7,166.5,302,168.2,302.4z
		 M202.1,438.3c-1.8-0.6-3.3-1-5.1-1.6c0,5,0,9.6,0,14.4c1.8,0.9,3.7,1.8,6.1,3C202.8,448.6,202.4,443.7,202.1,438.3z M296.1,239.7
		c-1.2-6-2.3-11.4-3.4-16.8c-0.4,0-0.7,0-1.1,0c-1.6,5.3-3.3,10.6-5,16.2C289.9,239.3,292.5,239.4,296.1,239.7z M177.1,344.7
		c-0.6,6.3-1.1,12.1-1.6,18.2c1.9,0,3,0,4.7,0c0.5-6,0.9-11.8,1.4-17.9C179.8,344.8,178.8,344.8,177.1,344.7z M178.9,382.3
		c0-5.8,0-11.2,0-16.9c-1.1-0.1-2.4-0.3-3.9-0.4c-0.6,6.1-1.2,11.7-1.8,17.6C175.5,382.5,176.9,382.4,178.9,382.3z M188.5,283.6
		c0.4,0,0.9,0.1,1.3,0.1c0.4-2.6,0.9-5.3,1.3-7.9c2.5-0.2,4.3-0.4,6.5-0.6c-1.5-5.8-2.9-11.4-4.4-17.1c-0.3,0-0.6,0-0.9,0
		c-0.2,1.8-0.4,3.6-0.5,5.3c1.2,0.8,2.1,1.5,3.1,2.1c-0.2,0.3-0.4,0.6-0.6,0.9c-1.1,0.2-2.1,0.4-3.3,0.6
		C190.2,272.7,189.3,278.2,188.5,283.6z M199.6,524.4c0,5.5-0.2,10.4,0.1,15.3c0.1,1.2,1.9,2.2,2.9,3.3c0.3-0.2,0.7-0.4,1-0.6
		c0.4-5,0.9-10.1,1.3-15.2C203.1,526.3,201.4,525.4,199.6,524.4z M199.9,361.3c2.7,0,4.8,0,7,0c0-4.5,0-8.7,0-13.4
		c-1.9,0.5-3.4,0.9-5.2,1.3C201.1,353.1,200.6,357,199.9,361.3z M178.6,241.5c1-5.4,2-10.6,3.1-16.3c-1.8,0.3-2.9,0.6-4.4,0.8
		c-1.5,5.4-2.9,10.6-4.5,16.6C175.4,242.1,176.9,241.8,178.6,241.5z M273.5,228.1c1.6-4.7,3.1-9,4.6-13.4c-2.4-1.2-4.3-2.1-6.5-3.2
		c-0.7,5-1.4,9.7-2.1,14.4C270.8,226.6,271.8,227.2,273.5,228.1z M284.2,573.3c-1.1,7.9,1,14.9,4.8,15.4c0.4-4.9,0.9-9.7,1.3-14.9
		C287.7,573.6,285.9,573.4,284.2,573.3z M278.6,519.4c1.8,0,3.2,0,4.5,0c0-4.5,0-8.8,0-13.2c-2.2-0.4-4-0.7-6.3-1.2
		C277.4,510.1,278,514.7,278.6,519.4z M234.6,268.7c1.3-1.4,2-2.1,2.8-3c-2.4-5.1-4.8-10-7.3-15.3c-1.6,1-2.9,1.8-4.5,2.8
		C228.7,258.4,231.5,263.2,234.6,268.7z M232.3,488.3c1.4-0.6,2.7-1.1,4.2-1.8c0.7-4.7,1.3-9.3,2.1-14.6c-2.5,1.1-4.2,1.9-6.4,2.8
		C232.3,479.2,232.3,483.6,232.3,488.3z M309.3,429.3c0-6.2,0-11.9,0-18.2c-1.9,1.3-3.3,2.3-4.7,3.3c0.4,5.4,0.8,10.6,1.2,16.1
		C307.1,430,308.1,429.7,309.3,429.3z M179.3,325.9c-0.6,5.5-1.2,10.6-1.8,16.1c1.5,0.2,2.7,0.4,4.2,0.6c0.7-5.7,1.4-10.9,2.1-16.5
		C182.1,326.1,180.8,326,179.3,325.9z M210.5,217.3c2.4-1.1,4.1-2,6.1-2.9c-1-3.4-1.8-6.5-2.8-9.9c-2.6,1.1-4.7,2.1-7.1,3.1
		C208,211,209.1,213.9,210.5,217.3z M197.1,264.7c1.5,5.6,2.9,10.9,4.3,16.6c1.4-0.4,2.4-0.8,3.7-1.2c-1.3-5.9-2.5-11.4-3.7-17.2
		C199.8,263.6,198.7,264,197.1,264.7z M202.2,416.2c0.6-3.7,1.1-7.1,1.6-10.6c-2.8-0.3-5.1-0.6-7.6-0.9c0,3.4,0,6.4,0,9.4
		C198.3,414.8,200,415.4,202.2,416.2z M310.1,282.4c0.9-7.6-2.6-18.6-5.8-19c-0.7,4.5-1.4,8.9-2.1,13.7c1.5-1.3,2.8-2.3,4.6-3.8
		C307.9,276.5,308.8,278.9,310.1,282.4z M193.6,383.7c-0.3,5.4-0.7,10.5-1,15.9c2.2,0.2,3.5,0.3,4.7,0.4c0-5.4,0-10.5,0-15.8
		C196,384,195,383.9,193.6,383.7z M282.6,556.6c0.4,5,0.7,9.4,1,13.9c2.2,0.3,4,0.5,6.4,0.8c-1.2-4.9-2.3-9.2-3.4-13.6
		C285.4,557.4,284.4,557.1,282.6,556.6z M312.1,220.3c-0.9-4.1-1.6-7.1-2.4-10.3c-2.1-0.7-4.1-1.4-6.7-2.3c1.3,4.7,2.3,8.5,3.4,12.6
		C308.2,220.3,309.9,220.3,312.1,220.3z M230.9,246.7c0.5,0,1.1-0.1,1.6-0.1c0.9-6-2-11.5-2.8-17.9c-1.9,1.1-3.3,1.8-4.9,2.7
		C226.9,236.8,228.9,241.7,230.9,246.7z M282.3,538.3c0.4-0.2,0.8-0.3,1.2-0.5c0-5.1,0-10.2,0-15.7c-1.8,0.1-3.2,0.2-5,0.2
		C280.3,527.9,278.6,533.9,282.3,538.3z M189.7,210.1c-1.6,4.2-3,7.8-4.4,11.7c1.1,0.7,2.1,1.4,4.3,2.8c1.6-5.6,2.9-10.3,4.4-15.9
		C191.9,209.4,190.8,209.8,189.7,210.1z M202.8,283.2c0.6,6,1.1,11.5,1.7,17.4c1.1-0.2,2.5-0.5,4.2-0.9c-1.1-5.8-2-11.3-3-16.8
		C204.3,283.1,203.5,283.2,202.8,283.2z M215.5,243.4c0,5.4,0,10.1,0,15.1c2.6-0.2,4.9-0.3,7.8-0.5
		C220.6,252.9,218.2,248.5,215.5,243.4z M163.5,304.1c-0.8,6.1-1.8,11.7-1.5,17.4c0.6,0.1,1.2,0.2,1.8,0.2
		c1.3-5.7,2.5-11.4,3.9-17.4C166,304.3,165,304.2,163.5,304.1z M209.4,341.4c2.4-0.5,4.1-0.8,6-1.2c0.3-4.1,0.7-7.9,1-12.3
		c-1.8,0.7-2.9,1.2-3.9,1.6C211.5,333.3,210.5,336.9,209.4,341.4z M284,328.1c0.8,3.8,1.5,7.3,2.3,10.9c2,0.4,3.7,0.8,6.5,1.4
		c-1.7-4.6-3.1-8.1-4.4-11.7C287,328.5,285.9,328.4,284,328.1z M187.4,304.2c0.6-6.1,2.3-11.8,2.2-17.7c-0.6-0.1-1.2-0.2-1.8-0.3
		c-1.5,5.7-3,11.4-4.5,17.5C184.9,303.9,186,304.1,187.4,304.2z M309.5,407.9c-0.6-2.7-1.2-5.2-1.9-8c-2,0.4-3.7,0.7-5.8,1.1
		c0.8,3.6,1.5,6.8,2.4,10.5C306.3,410.1,307.8,409.1,309.5,407.9z M306.1,447.9c0.6,0.1,1.3,0.2,1.9,0.4c2.3-4.8,1.1-10.2,1.2-15.4
		c0-0.2-0.4-0.3-0.8-0.6c-0.8,0.4-1.7,0.9-2.3,1.3C306.1,438.6,306.1,443.2,306.1,447.9z M265.7,245.7c0.7,0.1,1.4,0.2,2.1,0.3
		c1.7-5.3,3.4-10.5,5.1-15.9c-1.4-0.6-2.4-1-3.8-1.7C267.8,234.5,266.8,240.1,265.7,245.7z M295,341.1c0.9,0.2,2.2,0.6,4.5,1.2
		c-1-4.3-1.9-8-2.8-11.7c-1.9-0.3-3.3-0.5-5.1-0.8C292.8,333.6,293.8,337,295,341.1z M253.1,195c-3,0.5-5.3,0.9-7.9,1.4
		c1.1,3.1,2,5.7,2.9,8.5c1.5-0.4,2.6-0.7,3.8-1C252.4,201.1,252.7,198.5,253.1,195z M178.7,392.1c0-2.8,0-5.1,0-7.7
		c-2.2,0.2-4,0.4-5.8,0.6c-0.4,2.7-0.8,5-1.2,7.8C174.2,392.5,176.3,392.4,178.7,392.1z M308,358c-0.6-3.2-1.1-5.9-1.7-8.6
		c-1.9-0.2-3.2-0.3-5-0.5c0.4,3.8,0.8,7.1,1.2,10.7C304.5,359,306,358.6,308,358z M232.4,506.6c0.5,0,1,0,1.5,0.1
		c0.6-5.5,1.3-11,2-17.2c-1.9,0.9-3,1.5-3.6,1.8C232.4,496.8,232.4,501.7,232.4,506.6z M199.6,544.2c-1,9.6-0.5,14.7,2.1,16.3
		c0.6-5.1,1.1-9.9,1.6-14.7C201.9,545.2,200.9,544.8,199.6,544.2z M343.1,391.8c1.3-0.3,2.2-0.6,3.3-0.8c0.3-3.9,0.5-7.4,0.8-11.4
		c-2.1,0.3-3.5,0.5-5.3,0.8C342.2,384.2,342.6,387.7,343.1,391.8z M197.3,364.1c-0.5-0.1-1-0.1-1.5-0.2c-0.6,5.7-1.3,11.5-2,17.5
		c1.5,0,2.3,0,3.4,0C197.3,375.5,197.3,369.8,197.3,364.1z M255.3,394.3c-0.5,0.1-1,0.1-1.5,0.2c-1,3.5-2,7-3.1,10.7
		c2.5,0,4.3,0,6.8,0C256.7,401.2,256,397.8,255.3,394.3z M251.9,361.5c0.5,0,1-0.1,1.5-0.1c0-5.8,0-11.5,0-17.5
		c-0.9,0.1-1.9,0.2-3.2,0.3C250.7,350.2,251.3,355.9,251.9,361.5z M247.1,430.9c1.3-3.6,2.3-6.6,3.4-9.8c-2,0-3.5,0-5.3,0
		c-0.5,3.8-0.9,7.3-1.4,11.3C245.3,431.8,246.3,431.3,247.1,430.9z M180.1,399.1c-2.1-2.4-11.2-2.5-16.1-0.8c-0.6,0.2-0.9,1.2-2,2.8
		C168.6,400.3,174,399.8,180.1,399.1z M284.5,554.6c0.5-0.1,1-0.2,1.6-0.4c-0.6-4.3-1.2-8.7-1.8-13.1c-1-0.2-1.8-0.3-3.4-0.6
		C282.6,545.4,280.2,551,284.5,554.6z M209.7,330.7c-1.8,0.7-3.1,1.2-4.4,1.6c-0.8,3.7-1.4,7-2.2,10.9c1.9-0.4,2.9-0.7,3.7-0.9
		C207.7,338.5,208.6,335,209.7,330.7z M257.9,422.2c1.2,4.2,2.2,7.6,3.3,11.2c1.3-0.1,2.3-0.2,3.6-0.3c-0.9-3.4-1.7-6.4-2.5-9.6
		C261.1,423.2,260,422.8,257.9,422.2z M307.8,486.9c-3,1.8-3.2,9.5-0.3,15.2C309.2,497.3,308.5,492.3,307.8,486.9z M308.3,504.5
		c-2.2,2-2.6,10.1-0.9,15.2C309.9,518.1,310,516.9,308.3,504.5z M293.2,617c2.3-0.1,4.1-0.2,6.2-0.3c0-1.5,0-2.8,0-4.2
		c-3-0.4-5.8-0.7-9.4-1.2C291.2,613.6,292.1,615.1,293.2,617z M163.5,324.3c-0.7-0.1-1.4-0.1-2-0.2c-0.4,5.8-0.8,11.6-1.3,17.5
		c0.7,0.1,1.3,0.1,2,0.2C162.7,335.9,163.1,330.1,163.5,324.3z M322.6,391.2c1.7,0,2.9,0,4.5,0c-0.3-2.9-0.7-5.6-1-8.7
		c-1.5,0.4-2.5,0.7-3.5,0.9C322.6,386.1,322.6,388.4,322.6,391.2z M265.2,449.6c0.5-0.1,1-0.2,1.4-0.3c-0.4-4.5-0.8-9-1.2-13.6
		c-1.3,0.1-2.1,0.2-3.4,0.3C263.2,440.7,264.2,445.2,265.2,449.6z M247.7,362.3c-0.4,0-0.7,0-1.1,0c0,5.4,0,10.7,0,16.1
		C251.3,372.9,246.9,367.6,247.7,362.3z M307.4,470c-0.5,0-1,0-1.6,0c-0.2,4.8-0.4,9.7-0.6,14.5c0.6,0,1.1,0.1,1.7,0.1
		C308.6,479.9,307.2,474.9,307.4,470z M234.7,277.9c-1.8-3.2-3.4-6-4.9-8.7c-0.2,0.1-0.4,0.1-0.6,0.2c0,2.8,0,5.6,0,8.5
		C230.9,277.9,232.4,277.9,234.7,277.9z M162,344.5c-0.7-0.1-1.3-0.1-2-0.2c-0.3,5.5-0.5,10.9-0.8,16.4c0.5,0,1,0.1,1.5,0.1
		C161.1,355.4,161.5,349.9,162,344.5z M200.8,563c-0.5,0.1-1.1,0.1-1.6,0.2c0.3,5.2,0.7,10.3,1,15.5c0.5,0,0.9-0.1,1.4-0.1
		C201.2,573.4,202.3,568.1,200.8,563z M311.5,283.8c-0.6,0.1-1.3,0.3-1.9,0.4c1.3,5.4,2.7,10.8,4,16.2c0.4-0.1,0.8-0.2,1.2-0.3
		C313.7,294.7,312.6,289.2,311.5,283.8z M302,617c2,0.3,3.8,0.5,5.7,0.8c0.5-1.8,0.9-3.3,1.5-5.3c-2.5,0.2-4.5,0.3-6.8,0.5
		C302.3,614.4,302.2,615.5,302,617z M310.9,536c-0.4-4.5-0.8-9.1-1.2-13.9C306.8,523.9,307,526.5,310.9,536z M296,323.2
		c-2-0.2-3.8-0.3-5.8-0.5c0,1.5,0,2.7,0,4.1c1.9,0.4,3.7,0.9,5.8,1.4C296,326.4,296,325,296,323.2z M186.4,212.8
		c-0.4-0.2-0.7-0.4-1.1-0.6c-2.1,3.3-4.3,6.6-6.4,9.9c0.5,0.3,1.1,0.7,1.6,1C184.7,221.1,184.5,216.3,186.4,212.8z M205,329.7
		c2.1-0.8,3.7-1.5,5.4-2.2c-0.3-1.7-0.5-3.1-0.8-4.8c-1.8,0.3-3.3,0.6-5.1,0.9C204.7,325.6,204.8,327.3,205,329.7z M268.6,194.5
		c-1-3.2-1.7-5.6-2.5-8.3c-2,1.6-3.5,2.7-5.2,4.1C263.4,191.6,265.5,192.8,268.6,194.5z M340.1,398.2c0-0.5,0-1.1,0.1-1.6
		c-5.9-0.3-11.8-0.6-17.7-0.9c0,0.4,0,0.9-0.1,1.3C328.3,397.4,334.2,397.8,340.1,398.2z M308.6,450.3c-3,1.9-3.6,11.3-1.3,16.5
		C307.7,461,308.2,456,308.6,450.3z M282.4,250.4c-0.2-0.1-0.5-0.1-0.7-0.2c-1.2,2.9-2.5,5.8-3.9,9.2c1.9-0.1,3.3-0.2,4.7-0.3
		C282.4,255.9,282.4,253.2,282.4,250.4z M232.2,523.6c0.2,0,0.5,0,0.7,0c0.3-4.7,0.6-9.5,0.9-14.2c-0.5,0-1.1-0.1-1.6-0.1
		C232.2,514.1,232.2,518.9,232.2,523.6z M310.7,540.2c0,4.1,0,8.2,0,12.3c0.5,0,1,0,1.5,0C313.1,548.4,312.3,544.3,310.7,540.2z
		 M245.7,359.4c0.5,0,1-0.1,1.5-0.1c-0.5-5.5-1-11.1-1.4-16.6c-0.4,0-0.8,0.1-1.3,0.1C244.9,348.3,245.3,353.8,245.7,359.4z
		 M228.6,563.7c-0.8,4.1-1.7,8.2-2.5,12.4c0.5,0.1,1,0.2,1.5,0.3C229.4,572.4,228.9,568,228.6,563.7z M300.9,331.8
		c2,4.6,4.2,9.9,3.4,11.5C303.1,339.3,302,335.6,300.9,331.8z M325.8,379.8c-0.4-3.3-0.7-6.3-1-9.4c-0.2,0-0.4,0-0.6,0
		c-0.4,3.1-0.9,6.2-1.3,9.7C324.1,380,324.8,379.9,325.8,379.8z M316.5,396.2c-1.9,0.9-3.2,1.5-4.7,2.1c0.5,2.3,1,4.1,1.7,7
		C314.6,401.8,315.4,399.4,316.5,396.2z M232.6,527.9c-0.3,0-0.7,0-1-0.1c0,3.9,0,7.8,0,10.1C231.8,535.7,232.2,531.8,232.6,527.9z
		 M201.2,595.6c0.4,0,0.8,0,1.2,0.1c-0.3-4.4-0.6-8.8-0.8-13.2c-0.4,0-0.7,0-1.1,0.1C200.7,586.9,201,591.3,201.2,595.6z
		 M212.6,326.6c2.1-1.2,5.3-0.7,5.1-4.7c-2.2,0.4-3.8,0.6-5.5,0.9C212.3,324.2,212.4,325.2,212.6,326.6z M227.8,579.3
		c-0.5-0.1-1-0.1-1.5-0.2c0,3.9,0,7.9,0,11.8c0.1,0,0.3,0,0.4,0C227,587,227.4,583.2,227.8,579.3z M244.8,338.9c0.2,0,0.5,0,0.7,0
		c0-5.5,0-11.1,0-16.6c-0.2,0-0.5,0-0.7,0C244.8,327.9,244.8,333.4,244.8,338.9z M287.4,322.8c-1.9,0-3.5,0-5.4,0
		c0.3,4,3.3,2.6,5.4,3.3C287.4,324.9,287.4,324,287.4,322.8z M222.7,196.7c-0.2-0.4-0.4-0.7-0.6-1.1c-2.6,1.2-5.9,1.2-7.3,4.3
		c0.2,0.3,0.4,0.7,0.6,1C217.9,199.5,220.3,198.1,222.7,196.7z M196.5,360.9c0.5,0,0.9,0.1,1.4,0.1c0.4-3.6,0.9-7.1,1.3-10.7
		c-0.4,0-0.8-0.1-1.2-0.1C197.5,353.7,197,357.3,196.5,360.9z M320.7,338.7c0.3-0.1,0.5-0.2,0.8-0.3c-0.8-4.9-1.6-9.7-2.3-14.6
		c-0.3,0-0.6,0.1-0.9,0.1C319.1,328.8,319.9,333.8,320.7,338.7z M213.1,201.8c-0.3-0.5-0.6-1-0.9-1.4c-2.1,1.3-4.3,2.5-6.4,3.8
		c0.2,0.4,0.5,0.8,0.7,1.2C208.7,204.2,210.9,203,213.1,201.8z M298.6,319.6c0.1,0,0.3,0,0.4,0c-0.2-4.4-0.4-8.8-0.6-13.2h0.1
		C298.6,310.8,298.6,315.2,298.6,319.6z M282.1,331.9c0,2.9,0,5.8,0,9.6C284.6,337.7,282.3,334.8,282.1,331.9z M245.2,302.2
		c-0.2,0-0.3-0.1-0.5-0.1c0,5.3,0,10.6,0,15.9c0.2,0,0.3,0,0.5,0C245.2,312.7,245.2,307.4,245.2,302.2z M313.4,634.5
		c0.3-0.2,0.6-0.5,0.9-0.7c-0.4-1.4-0.9-2.9-1.4-4.7c-1.2,0.6-2,1-3.6,1.9C311,632.4,312.2,633.4,313.4,634.5z M299.5,324
		c-0.4,0.1-0.8,0.2-1.3,0.3c0.4,1.6,0.9,3.2,1.3,4.7c0.5-0.1,1-0.3,1.4-0.4C300.5,327.1,300,325.5,299.5,324z M263.7,404.2
		c-1.7-1.3-2.9-2.1-4.5-3.3c0.2,1.9,0.4,3,0.6,4.3C261.1,404.9,262.1,404.6,263.7,404.2z M233.9,248.6c-0.5,0.2-1,0.3-1.5,0.5
		c0.8,2.1,1.6,4.2,2.4,6.3c0.3-0.1,0.6-0.2,0.9-0.3C235.1,252.9,234.5,250.8,233.9,248.6z M288.2,591.7c-0.5,0-0.9,0.1-1.4,0.1
		c0.3,2.1,0.6,4.1,1,6.2c0.2,0,0.5,0,0.7-0.1C288.4,595.9,288.3,593.8,288.2,591.7z M269.1,279.7c-0.1-1.6-0.2-2.6-0.4-4.8
		c-1.2,2.1-1.8,3.1-2.6,4.5C267.2,279.5,267.8,279.6,269.1,279.7z M201.8,606.6c0.2-0.1,0.4-0.2,0.4-0.2c0-1.9,0-3.9,0-5.8
		c-0.1,0-0.3,0-0.4,0C201.8,602.5,201.8,604.5,201.8,606.6z M224,639.3c-0.3-0.3-0.6-0.7-0.9-1c-0.8,0.9-1.6,1.8-2.4,2.7
		c0.3,0.2,0.5,0.5,0.8,0.7C222.3,640.9,223.2,640.1,224,639.3z M266.7,456.6c0.2-0.1,0.4-0.2,0.6-0.3c-0.2-1.2-0.3-2.4-0.5-3.6
		c-0.3,0.1-0.6,0.1-0.8,0.2C266.2,454.1,266.4,455.4,266.7,456.6z M201.3,206.7c-0.1-0.2-0.2-0.5-0.2-0.7c-0.8,0.3-1.6,0.6-2.5,0.8
		c0.1,0.2,0.1,0.4,0.2,0.6C199.6,207.2,200.4,207,201.3,206.7z M311.4,557.7c0.2,0,0.4,0,0.6,0c0.1-0.7,0.2-1.5,0.2-2.2
		c-0.3,0-0.5,0-0.8,0C311.4,556.2,311.4,556.9,311.4,557.7z M304.9,260.7c0.3,0,0.6,0,1,0.1c0-0.7,0-1.5,0-2.2c-0.2,0-0.4,0-0.6,0
		C305.2,259.3,305,260,304.9,260.7z M244.3,298c0.4-0.2,0.7-0.2,1.1-0.4c-0.2-0.5-0.4-1-0.6-1.5c-0.2,0-0.4,0.1-0.6,0.1
		C244.2,296.8,244.2,297.4,244.3,298z M200.3,633.7c-0.1-0.2-0.3-0.4-0.4-0.6c-0.4,0.3-0.8,0.7-1.3,1c0.1,0.2,0.3,0.3,0.4,0.5
		C199.4,634.3,199.9,634,200.3,633.7z M317.8,319.2c0.1,0,0.3,0,0.4,0c0-0.6-0.1-1.1-0.1-1.7c-0.1,0-0.2,0-0.3,0
		C317.8,318,317.8,318.6,317.8,319.2z M321.8,344.9c0.2,0,0.4-0.1,0.6-0.1c-0.1-0.4-0.2-0.8-0.4-1.3
		C321.9,344,321.8,344.4,321.8,344.9z M160,364.6c-0.1,0-0.3,0-0.4,0c0,0.5,0,0.9,0.1,1.4c0.1,0,0.3,0,0.4,0
		C160,365.5,160,365.1,160,364.6z M317.3,313.4c-0.1,0-0.1,0-0.2,0c0,0.2,0,0.5,0,1.6C317.3,313.9,317.3,313.6,317.3,313.4z
		 M205.2,220.1c0.3,0.1,0.6,0.2,0.9,0.4c0.1-0.5,0.2-0.9,0.3-1.4c-0.2-0.1-0.3-0.1-0.5-0.2C205.7,219.3,205.5,219.7,205.2,220.1z
		 M202.2,334.4c-0.1,0-0.3,0.1-0.4,0.1c0,0.3,0.1,0.7,0.1,1c0.1,0,0.2,0,0.3-0.1C202.2,335.1,202.2,334.7,202.2,334.4z M250.7,341.4
		c0.1,0,0.2,0,0.2-0.1c-0.1-0.2-0.1-0.5-0.2-0.7c-0.1,0-0.2,0-0.2,0.1C250.6,340.9,250.6,341.2,250.7,341.4z"/>
	<line class="st2" x1="518.4" y1="416.2" x2="774.6" y2="416.2"/>
</g>
</svg>
