<?xml version="1.0" encoding="utf-8"?>
<!-- Generator: Adobe Illustrator 24.0.1, SVG Export Plug-In . SVG Version: 6.00 Build 0)  -->
<svg version="1.1" id="Layer_1" xmlns="http://www.w3.org/2000/svg" xmlns:xlink="http://www.w3.org/1999/xlink" x="0px" y="0px"
	 viewBox="0 0 878 790.1" style="enable-background:new 0 0 878 790.1;" xml:space="preserve">
<style type="text/css">
	.st0{fill:#010202;}
	.st1{fill:none;stroke:#FFFFFF;stroke-width:1.5;stroke-miterlimit:10;}
	.st2{fill:#FFFFFF;stroke:#FFFFFF;stroke-width:0.5;stroke-miterlimit:10;}
	.st3{fill:#FFFFFF;}
	.st4{fill:none;stroke:#FFFFFF;stroke-miterlimit:10;}
	.st5{fill:none;stroke:#000000;stroke-miterlimit:10;}
	.st6{fill:none;stroke:#FFFFFF;stroke-width:2;stroke-miterlimit:10;}
	.st7{fill:none;stroke:#FFFFFF;stroke-width:2.0002;stroke-miterlimit:10.0008;}
	.st8{fill:none;stroke:#FFFFFF;stroke-width:1.9998;stroke-miterlimit:9.9994;}
	.st9{stroke:#FFFFFF;stroke-width:2;stroke-miterlimit:10;}
</style>
<g id="Layer_2_1_">
	<rect y="-0.9" class="st0" width="878" height="791"/>
</g>
<g>
	<path class="st1" d="M306.2,416l1.4,4.7l2.4,20.1l0.6,19.9l-0.4,19.1l-1.4,18.5l0.8,19l0.1,17.9l1.8,16.7c0,0-0.2,17.7,0,17.9
		s0,17.8,0,17.8l0.1,16.5l1.6,14.7l-0.5,16.7l1.1,9.5l1.6,3.8v1"/>
	<g>
		<path class="st1" d="M272.8,174v-11.2c0,0,3.3-6,3.9-10s1.8-8.6,2.8-15.2c0.7-4.7-0.3-18.9-1-27c-0.3-3.9-2.1-7.5-4.9-10.3
			c-3.5-3.4-8.4-7.4-12-7.6c-6.3-0.3-14.4-0.3-16.4,0"/>
		<path class="st1" d="M233.9,173.9v-11.2c0,0-3.3-6-3.9-10c-0.6-4.1-1.8-8.6-2.8-15.2c-0.7-4.7,0.3-18.9,1-27
			c0.3-3.9,2.1-7.5,4.9-10.3c3.5-3.4,8.4-7.4,12-7.6"/>
		<path class="st1" d="M272.7,163c0,0-5.3,2.5-12.3,5.8s-15.6-1-15.6-1c-4.8-1.8-10.9-5.1-10.9-5.1"/>
		<path class="st1" d="M275.2,196.3l-0.2,1l-5.6,18.3l-5.5,16.9c0,0-5.5,15-5.6,14.9c-0.1,0-7.8-20.3-12.9-29.1
			c-5.1-8.9-11.2-25.6-11.5-27.2c0,0-1.8-5.1-2-7.7c-0.2-2.5,0.3-4.9,0.3-4.9s-0.4,0-2.8,4.6s-7.5,6.9-7.5,6.9s-18.8,10-19.9,10.1
			s-19.1,4.4-19.1,4.4s-0.9-0.3-2.6,5.7s-14,44.1-14,44.4S155.2,304,155.2,304c0.2-0.2-5.2,17.2,2,23.3c7.3,6.2,18,10.2,18,10.2
			l2.3,0.4c0,0,0.1-1,0.2-0.9c0.1,0,3,1.7,3.1,1.7s3.4,0.6,4.7-0.2s1.4-0.8,1.4-0.8s-5.2,1.9-6.9-0.5s-4.8-19.1-4.8-19.1
			s0.2-9.9,2.4-12s4.2-3.6,7.1-3.5l1.1,0.5c0,0,0.1,0-1.1-0.2c0,0-0.3,0.2-2.3,1.5c-2,1.2-2.2,8.3-2.5,12.3s0.2,7.6,0.2,7.6
			l6.9,13.6v0.1l-4.6,8.6l26.2-45l12.1-29.7l-9,15.4"/>
		<polyline class="st1" points="236.6,279.3 219,232.3 211.8,206.7 209.8,196.6 209.8,196.3 234.3,194.4 		"/>
		<path class="st1" d="M316.7,323.4l-0.3-6.6l-5-24.5c0,0-1.2,25.1,0.4,28.5"/>
		<path class="st1" d="M190.6,351.3c-0.1,0.2-2.2,28-2.2,28l-4.3,32.6c0,0-0.2,1.2,2.3,1.4c2.5,0.2,27.5,4.8,27.5,4.8
			s13.8,1.1,18.7-7.7s10-30,10-30"/>
		<path class="st1" d="M276.4,399.4c0,0,2.8,22.4,23.2,18c20.4-4.4,26.4-7.3,26.4-7.3s1,0.3-0.4-6.5s-3.7-27.1-3.7-27.1"/>
		<polyline class="st1" points="239.1,229.9 257.3,249.5 257.7,249.9 		"/>
		<path class="st1" d="M272.1,235.8c-0.1,0.1-9.8,11.6-11.1,13.2c-0.1,0.1-0.2,0.2-0.3,0.3c-0.7,0.5-3.3,2.4-4.2,6.8
			c-1,5.1-2,17.1-1.9,25.2s0.1,8.1,0.1,8.1"/>
		<line class="st1" x1="258.3" y1="247.5" x2="256.2" y2="257.1"/>
		<path class="st1" d="M266.6,295.7c0,0,1.5-22,2.2-27.7s1.6-16.6,1.6-16.6s2-17.6,2-17.9s2.5-32.4,2.5-32.4l0.4-9
			c0,0,1.3-8.3,0.2-10.7c-1.1-2.3-0.9-2.4-0.9-2.4c1.2,0.9,2.4,6,13.3,12.1c11,6.1,28.7,12.1,29.9,12.2c1.2,0.1,4,0,4,0
			s2-0.1,3.7,4.1c1.7,4.2,7,17.4,7,17.4s3.4,7.9,3.5,8.1c0.1,0.2,0.6,11.8,0.6,11.8l1.7,21.6l4.1,24.6l2.6,16.3c0,0,3.2,12,3.2,12.4
			s-0.7,17.2-0.7,17.2l-0.5,10.7l-3.2,15.4l-0.9,4.1l-0.5,0.8l-8.4,2.8l-1.4-0.1l-2.7-0.2l-3.5-1.6"/>
		<polyline class="st1" points="234,191.8 237.5,218.2 241.4,246.8 246.1,285 		"/>
		<path class="st1" d="M189.6,413.9l-2.1,27.2v45.6l-6.2,64l-6,50.4l2,40.3l-2,11.7c0,0,1.7,4.5,7.1,4.5s12.1,2.5,17.1,1.3
			c5.1-1.3,5.8-2,5.8-2l3.5-17.2l5.9-35.6l6.4-51.3l14-57.6l11.4-48.5l5.4-13.7c0,0,2.6-3.8,5,0c2.4,3.9,7.7,25.3,7.7,25.3l5.9,25.2
			l7.6,44.3l4.4,47l5.7,51.7l5.5,23.3l0.3,1.2c0,0,7.6,0.8,10.7,0.8s3.8,1,7.5-0.4c3.8-1.5,9.9-5.5,9.9-5.5l3.1-0.3L324,625
			l-2.9-74.2l-3.2-46.7l2.3-51.9l0.3-40.1"/>
		<path class="st1" d="M232.2,178.6c0,0,0.9-3.6,0.9-3.7c0-0.1,0.7-1.2,0.8-1.3c0.2,0-0.5,1.4,1.4,3.4s9.9,6.8,9.9,6.8
			s6.9,4.7,7.9,5.8l0.4,0.4c0,0-6.2,0.3-8.5,2.8c0,0-7.8,5.8-7.9,6.9"/>
		<path class="st1" d="M274.7,179l-1.9-5c0,0-0.4,1.7-1.7,2.6c-1.3,0.9-8.3,7-8.3,7l-6.5,5.8c0,0,7.6,1.5,10.4,3.5
			c2.7,2.1,6.8,5.4,7.2,6.4c0.4,1,0.3,0.6,0.3,0.6"/>
		<path class="st1" d="M220.6,271.8l110.3,59.8c0,0,1,0.1,0.6,2.3c-0.4,2.2-5.2,33.7-5.2,33.7l-28.1,43c0,0,0.8,1.4-5-1.9
			s-110.9-62.3-110.9-62.3"/>
		<line class="st1" x1="208.5" y1="301.5" x2="326.3" y2="367.5"/>
		<line class="st1" x1="215.3" y1="284.7" x2="329.2" y2="348.5"/>
		<path class="st1" d="M329.6,348.2"/>
		<path class="st1" d="M275.2,201"/>
		<path class="st1" d="M275.2,197.1c0.8-0.1,25.3,0,25.3,0l-3.7,21.3l-8,29.8l-7,20.8L271,298.3"/>
		<path class="st1" d="M187,206.2c0,0,2.3,5.3,2.3,6.6s2.4,12.6,2.4,12.6l0.7,0.3l1.8,12.3l1.7,10l0.4,37.4"/>
		<path class="st1" d="M153.8,321"/>
		<path class="st1" d="M173.3,336.8c-0.2-0.1-2.8-6.4-2.8-6.4s-2.3-12.3-1-14.6c1.3-2.3,1.9-9.4,4.8-10.2s3.6-1.3,3.8-1.3
			c0.3,0,1.7-0.2,1.7-0.2"/>
		<path class="st1" d="M189.2,297.9"/>
		<path class="st1" d="M243.3,193.8c0,0,7.6,1.9,8.3,9.9c0,0,3.3,1,6.5,0.1l0.2-0.1c0.8-8.7,8.3-10.8,8.3-10.8"/>
		<g>
			<g>
				<g>
					<path class="st2" d="M234.5,352.8c-1-0.1-2.9-0.5-5-1.7c-2-1.2-3.6-2.7-4.2-5.2c-0.5-2,0-4.6,1.5-7.2c2.7-4.4,7.8-6.5,13-3.5
						c1.6,0.9,2.7,2.1,3.1,2.8l-0.9,0.7c-0.6-0.9-1.4-1.7-2.9-2.6c-4.2-2.4-8.5-1.1-11.2,3.2c-2.7,4.5-1.8,8.6,2.2,10.9
						c1.6,0.9,2.8,1.3,3.6,1.3l3.4-5.6l-3.6-2l0.6-0.9l4.7,2.7L234.5,352.8z"/>
				</g>
				<g>
					<path class="st2" d="M249.3,351.6l-6.1-3.5L239,355l6.9,3.9l-0.6,0.9l-8-4.6l9.7-15.8l7.6,4.4l-0.6,0.9l-6.5-3.7l-3.7,6.1
						l6.1,3.5L249.3,351.6z"/>
				</g>
				<g>
					<path class="st2" d="M247.9,361.4l9.7-15.8l1,0.6l0.3,12.8c0.1,2.7,0,4.7-0.1,6.6h0.1c1.1-2.2,2.2-4,3.7-6.5l4.8-7.9l1,0.6
						l-9.7,15.8l-1-0.6l-0.2-12.6c0-2.5-0.1-4.7,0.1-6.8h-0.1c-1.1,2-2.1,3.7-3.7,6.4l-4.9,8L247.9,361.4z"/>
				</g>
				<g>
					<path class="st2" d="M274.4,356.5l-5-2.9l0.6-0.9l11.1,6.4l-0.6,0.9l-5-2.9l-9.1,14.9l-1.1-0.6L274.4,356.5z"/>
				</g>
				<g>
					<path class="st2" d="M273.5,373.8c0.5,1.1,1.4,2.2,2.7,3c2.3,1.3,4.5,0.8,5.7-1.2c1.1-1.8,0.8-3.3-0.9-5.5
						c-1.9-2.3-2.6-4.5-1.3-6.6c1.4-2.3,4.3-3,6.9-1.4c1.4,0.8,2.3,1.8,2.6,2.5l-1,0.7c-0.2-0.5-0.9-1.6-2.3-2.3
						c-2.5-1.4-4.3-0.3-5.1,1c-1.1,1.7-0.6,3.2,1,5.4c1.9,2.5,2.5,4.5,1.1,6.8s-4.2,3.4-7.5,1.5c-1.3-0.8-2.6-2.1-3-3.2L273.5,373.8
						z"/>
				</g>
			</g>
			<g>
				<g>
					<path class="st2" d="M236.8,363.4c0.1,0.3,0.3,0.5,0.6,0.7c0.5,0.3,1.1,0.2,1.3-0.3c0.2-0.4,0.2-0.8-0.2-1.3s-0.6-1-0.3-1.5
						s1-0.7,1.6-0.3c0.3,0.2,0.5,0.4,0.6,0.6l-0.2,0.2c-0.1-0.1-0.2-0.4-0.5-0.5c-0.6-0.3-1-0.1-1.2,0.2c-0.2,0.4-0.1,0.7,0.2,1.2
						c0.4,0.6,0.6,1,0.2,1.6c-0.3,0.5-1,0.8-1.7,0.4c-0.3-0.2-0.6-0.5-0.7-0.7L236.8,363.4z"/>
				</g>
				<g>
					<path class="st2" d="M241.6,361.7l-1.4,2.2c-0.6,0.9-0.4,1.5,0.2,1.8s1.2,0.2,1.8-0.7l1.4-2.2l0.3,0.1l-1.3,2.2
						c-0.7,1.1-1.5,1.2-2.2,0.8c-0.6-0.4-1-1.1-0.3-2.2l1.4-2.2L241.6,361.7z"/>
				</g>
				<g>
					<path class="st2" d="M244.9,363.6l-2.2,3.7l-0.3-0.1l2.2-3.7L244.9,363.6z"/>
				</g>
				<g>
					<path class="st2" d="M246.3,364.7l-1.2-0.7l0.1-0.2l2.6,1.5l-0.1,0.2l-1.2-0.7l-2.1,3.5l-0.3-0.1L246.3,364.7z"/>
				</g>
				<g>
					<path class="st2" d="M246.1,368.8c0.1,0.3,0.3,0.5,0.6,0.7c0.5,0.3,1.1,0.2,1.3-0.3c0.2-0.4,0.2-0.8-0.2-1.3s-0.6-1-0.3-1.5
						s1-0.7,1.6-0.3c0.3,0.2,0.5,0.4,0.6,0.6l-0.2,0.2c-0.1-0.1-0.2-0.4-0.5-0.5c-0.6-0.3-1-0.1-1.2,0.2c-0.2,0.4-0.1,0.7,0.2,1.2
						c0.4,0.6,0.6,1,0.2,1.6c-0.3,0.5-1,0.8-1.7,0.4c-0.3-0.2-0.6-0.5-0.7-0.7L246.1,368.8z"/>
				</g>
				<g>
					<path class="st2" d="M250.1,371.6l1-1.6l0.1-2.7l0.3,0.2l-0.1,1.4c0,0.4,0,0.7-0.1,1l0,0c0.3-0.2,0.6-0.4,0.9-0.6l1.3-0.7
						l0.3,0.2l-2.5,1.4l-1,1.6L250.1,371.6z"/>
				</g>
				<g>
					<path class="st2" d="M253.1,373.4c-0.9-0.5-1.1-1.6-0.4-2.8c0.7-1.2,1.9-1.5,2.8-1s1.1,1.6,0.4,2.8
						C255.1,373.7,254,373.9,253.1,373.4L253.1,373.4z M253.3,373.2c0.8,0.5,1.8,0,2.4-0.9c0.5-0.8,0.6-1.9-0.3-2.4
						s-1.8,0.1-2.4,0.9C252.5,371.6,252.4,372.7,253.3,373.2L253.3,373.2z"/>
				</g>
				<g>
					<path class="st2" d="M257.9,371.1l-1.4,2.2c-0.6,0.9-0.4,1.5,0.2,1.8s1.2,0.2,1.8-0.7l1.4-2.2l0.3,0.1l-1.3,2.2
						c-0.7,1.1-1.5,1.2-2.2,0.8c-0.6-0.4-1-1.1-0.3-2.2l1.4-2.2L257.9,371.1z"/>
				</g>
			</g>
			<g>
				<polygon class="st2" points="236.2,361.4 219,351.5 219.3,351 236.5,360.9 				"/>
			</g>
			<g>
				<polygon class="st2" points="277.3,385 260.1,375.1 260.4,374.6 277.7,384.5 				"/>
			</g>
		</g>
		<path class="st1" d="M275,200.7c0,0,6.2,3.1,6.3,3.2c0.2,0.1,13.7,4.5,13.7,4.5l3.4,1.2"/>
		<path class="st1" d="M273.6,218.2c0,0,1.3,0,3.6,1.4c2.3,1.4,11.9,4.6,13.4,4.9c1.5,0.2,4.3,1.1,4.3,1.1"/>
		<path class="st1" d="M272.1,235.8c0,0,1.3,0.5,1.7,0.8s5,2.6,7.4,3.3s5,1.8,5,1.8l4,1.3"/>
		<path class="st1" d="M269.9,255.6c0,0,9.3,2.3,11.2,4.2c2,1.9,3.3,1.3,3.3,1.3"/>
		<path class="st1" d="M278.9,277c0,0.1-1.3,0.8-1.7,0.7c-0.4-0.1-8.3-3.4-9.1-2"/>
		<path class="st1" d="M179.2,213.5c0,0,2.3,0.8,3.6,0.8c1.4,0.1,6.2,0.6,6.9,1.2"/>
		<path class="st1" d="M172.2,235.5c0,0,2.3-0.8,6.4-0.8c0,0,6.6-0.3,10.8,0.7s4.5,1.2,4.5,1.2"/>
		<path class="st1" d="M190.2,218.1c0,0,5.8-1.1,10.4-0.7c4.5,0.4,6,0.3,6,0.3l7.5-2.2l0.2-0.1"/>
		<path class="st1" d="M194.2,238.2c0,0,4.1-1.3,4.3-1.3s3.6-0.2,5.8-1.3c2.2-1,6.5-0.2,6.5-0.2s4.3,0.3,4.4,0.2s5-0.2,5-0.2"/>
		<path class="st1" d="M197.8,257.3c0,0,2.1-1.5,10.7-2c8.5-0.5,13.6-0.4,13.6-0.4h5.1"/>
		<path class="st1" d="M230.7,277.3c0,0,3.2-0.3,5.1,0"/>
		<path class="st1" d="M190.4,357.3c0.2,0,2-0.1,5.4,0.6s6.1-0.6,6.1-0.6"/>
		<path class="st1" d="M188.6,376.8c0,0,2.6,0.2,3.7,0.8c1.1,0.6,10.4,0.2,10.4,0.2l12.9,0.7l12.1,0.2h12.2"/>
		<path class="st1" d="M186,397.1c0.2,0.1,1.4,0.1,4.8,0.4s10.5,0.8,10.5,0.8s10.2,0.7,12.3,0.8c2.1,0.1,11.7,0.4,11.9,0.3
			s11.6,0.4,11.6,0.4"/>
		<path class="st1" d="M277.4,403.9c0,0,3.3,0,6.2-0.6"/>
		<path class="st1" d="M305.3,399.7l5.2-0.7l7.8-1.5c0,0,6-1.8,5.9-2.6"/>
		<path class="st1" d="M177,302.3c0,0-6.3-0.4-8.8,0.4s-9,4.6-9.2,5.4s-2.4,9.1-2.6,11c-0.3,1.9-0.6,6.8-0.5,7.5"/>
		<path class="st1" d="M271.1,298.3c0.1,0,10.7-0.3,10.7-0.3l11.3-0.4l8.2-0.5h8.1l2,0.5"/>
		<path class="st1" d="M278.9,277.3c0.1,0,12.8-0.6,12.8-0.6l10.3-0.1l8.1,0.1h2.3"/>
		<path class="st1" d="M286.1,256.3c0.2,0,3.1-0.1,3.1-0.1l12.9-0.2l9.8,0.1l1.2,0.4l1,0.2"/>
		<polyline class="st1" points="308.6,235 311.7,235.3 316.5,235.8 		"/>
		<path class="st1" d="M297.2,217.3c0,0,10.9-0.3,10.9-0.4l10.4-0.9"/>
		<polyline class="st1" points="299.7,201.9 303,202.1 316,202.7 		"/>
		<path class="st1" d="M317.1,234.8c0,0,1.8-0.7,3.8-1.2c2-0.6,9.9-0.8,9.9-0.8s5.3,1.5,5.3,2"/>
		<path class="st1" d="M337.4,253.6c-0.2-0.1-4.7-0.2-4.7-0.2s-6.9,0.3-8.4,0.4c-1.5,0.1-9.7,3.6-9.9,3.6h-0.2"/>
		<path class="st1" d="M314.4,277.8c0,0,7.1-2.6,12.3-3.4c5.3-0.8,9.8-1.3,9.8-1.3l3.1,0.4"/>
		<path class="st1" d="M318.5,297.4c0,0,5.7-2.3,9.9-2.8"/>
		<path class="st1" d="M328.3,294.6c3.9-1.2,12.1-2.2,12.1-2.2s1.4-0.3,2.3,0"/>
		<path class="st1" d="M348,326.6c0,0-1.3-2.1-3-3.6s-5.4-3.3-5.4-3.3s-6.2-0.7-8.3,0c-2,0.7-8.4,1.6-8.4,1.6s-6,0.9-6.2,1.1"/>
		<path class="st1" d="M347.6,336.1c0-0.1-2.9-3.8-6.8-5.1c-3.9-1.3-10.4-2-10.4-2h-4.6"/>
		<path class="st1" d="M346,352.7c0-0.1-0.7-6.2-3.1-8.9s-4.4-6-12-6"/>
		<path class="st1" d="M316.6,316.6c0.4-0.5,3.6-1.1,5.2-2.6c1.5-1.5,1.1-0.1,5.5-1.9c4.4-1.7,5.1-2.2,5.1-2.2s2.8,0.5,6.1-0.9
			s3.9-2.3,3.9-2.3s1.5,3.1,2.6,3.4l1.1,0.5"/>
		<path class="st1" d="M212.6,209.4c0.4-0.2,4-1.5,4-1.5s8.5-3.6,10.6-4.5s2.1-0.9,2.1-0.9s5.1-2.2,5.5-2s0.4,0.2,0.4,0.2"/>
		<path class="st1" d="M237.5,218.2c0,0,0.3-1.1-3.5,1c-3.8,2-12.6,5.4-12.6,5.4l-4.2,1.2"/>
		<path class="st1" d="M223.4,244l2.9-1.7c0,0,12.8-5.9,13.2-6.5s0.4-0.6,0.4-0.6"/>
		<path class="st1" d="M230,261.5l2.3-1.7c0,0,6-4.2,10.2-4.2"/>
		<path class="st1" d="M236.2,278.9c0.4-0.2,1.8-1,1.8-1s3.1-2.7,6.9-2.5"/>
		<polyline class="st1" points="196.1,354.1 195.5,357.7 192.7,377.8 190.8,397.5 190,413.8 		"/>
		<polyline class="st1" points="200.2,415.6 201,398.1 203,377.9 204.3,358.7 		"/>
		<path class="st1" d="M215.8,365.2l-0.5,13.4l-1.7,20.5l-2,18.6"/>
		<path class="st1" d="M224.3,416.8l1.2-17.5l2.3-20.5c0.1,0,0.5-6.7,0.5-6.7s61,34.1,61,34.3"/>
		<path class="st1" d="M318.9,213.9c0.1-0.1,3.6-1.6,7.3-0.8c0,0,1.2,0.2,2,0.5"/>
		<path class="st1" d="M153.8,310.5c0.2-1,0.2-7.7,4.7-9.4c4.5-1.8,5.8-1.4,5.8-1.4l13,1.3c0,0,0.1,0.4,8.3,2c0.2,0,9.3-7.9,9.3-7.9
			"/>
		<polyline class="st1" points="235.3,404.6 240.3,404.6 254.7,406 262.6,407.2 276.4,405.9 277.7,405.3 		"/>
		<path class="st1" d="M316.1,418.4l-8.5,2.2l-12.7,2.3l-14,1.9c0,0-14.6,0.8-14.7,0.7c0-0.1-10.2-1-10.5-1.2s-7.2,0.7-7.2,0.7
			h-14.1l-14.4-1.9c0,0-13.7-1.7-14.3-1.7s-10.8-1.8-10.8-1.8l-5.8-1.9"/>
		<path class="st1" d="M187.8,437.8l3.7,1.4l10.2,2.4l14.3,1.6c0,0,13.9,1,14.3,1c0.3,0,13-1.3,13-1.3l5.2-1.1"/>
		<polyline class="st1" points="243.5,459.7 238.6,460.7 227,462.5 213.4,462.5 199.7,460.9 190.8,457.9 187.3,455.7 		"/>
		<path class="st1" d="M187.5,475.2l2.3,2.5l8.6,2.7c0,0,12.1,1.4,12.4,1.5s13.4-0.3,13.4-0.3l11-2.6l4-1"/>
		<path class="st1" d="M234.2,499.2c0,0-2.4-0.7-2.4-0.5c0,0.1-9,1.8-9,1.8l-12.9,0.4c0,0-7.7,0.5-12.2-1.5
			c-4.5-2.1-7.4-3.4-7.4-3.4l-3.4-1.3"/>
		<path class="st1" d="M229.8,517.3c0,0-0.8,0.2-0.9,0.3s-4.9-0.2-8.7,0.9c-3.8,1-12.6,0.8-12.6,0.8s-6.7,0.9-12-1.4
			c-5.3-2.3-6.5-4-6.5-4s-3.7-1.8-3.8-3"/>
		<path class="st1" d="M183.3,530.1c0,0,4,1.8,4,2s6.7,4.1,6.6,4.5s2.1,0.7,5.2,0.4s6.1,0.4,6.1,0.4s9.2,0.8,12.2-0.3
			c2.9-1.1,6.7-1.1,7.7-0.7"/>
		<path class="st1" d="M181.5,548.7l1.8,1.1l6.7,3.9c0,0,2.2,1.3,4.8,1.4c2.6,0.1,7.1,0.8,7.1,0.8s5.6-0.7,7.8-0.9s4.8,0.2,4.8,0.2
			s5.6,0,6.1-0.7"/>
		<path class="st1" d="M179.3,567.7l1.4,0.7l7.1,3.3c0,0,1,2.4,3.8,1.8s6.8-0.6,6.8-0.6s6.4,1.1,9.1,1.1s4.7-0.3,4.7-0.3
			s5.8-0.2,6.4-1"/>
		<path class="st1" d="M177.2,585.6l0.4,0.2c0,0,5.8,4.3,7.5,5c1.8,0.7,11.6,1.7,11.6,1.7l12-1.2c0,0,7.6-1,7.7-1"/>
		<path class="st1" d="M175.4,602.1c0.7,0.2,6.2,3.7,6.2,3.6c0-0.1,10.3,3,11,2.7s12.9,0,12.9,0l8.6,0.6"/>
		<path class="st1" d="M176.5,624.2l2.1,0.8l12,0.7c0,0,7.1-1.6,12-0.8c4.9,0.9,8.6,0.8,8.6,0.8"/>
		<path class="st1" d="M209,639.2c0,0-8.7-0.5-9.2-0.5s-11.8-1.4-12.5-1.5s-8.4,1.7-8.6,1.8c-0.3,0.1-1.3,2-1.3,2"/>
		<path class="st1" d="M175.5,651.9h0.3c0,0,6.4,3.7,8.6,3.4s10.4,3,14.1,2s7.1-1.2,7.1-1.2"/>
		<path class="st1" d="M259.6,439.7c0,0,4.2,3.5,9.3,4c5.1,0.5,14.2,0,14.2,0s13-1.1,13.8-1.3c0.8-0.2,13.2-1.5,13.2-1.5l8.3-3.1
			l2-0.8"/>
		<path class="st1" d="M264.7,458.3c0.1,0.3,2,2.4,6.2,3.3c4.2,0.8,12.9,1,12.9,1l13.9-1.3c0,0,8.7,0.2,12.9-0.8
			c4.2-1.1,8.3-3.2,8.3-3.2l1.2-0.5"/>
		<path class="st1" d="M269.4,478.6l2.9,0.1l11.8,1.6l13.7,0.6c0,0,5.4,0.4,12.6-1.8c7.2-2.1,8.9-2.9,8.9-2.9"/>
		<path class="st1" d="M272.6,495.3c0,0,0.4,0.4,1.3,0.8s11.6,2.6,11.6,2.6s10.1,1.3,12.7,1c2.6-0.4,6.5,0.3,10.6-1.3
			c4.1-1.6,9.5-4.1,9.5-4.1"/>
		<path class="st1" d="M276,514.3c0,0,1.9,1.4,10.4,2c8.4,0.6,13,0.6,13,0.6s5.7,1.7,10.2,0s8.6-2.7,8.6-2.7l0.7-0.2"/>
		<path class="st1" d="M278.5,531.3c0,0,4.2,0.4,6.4,1.5s2.4,1.2,2.4,1.2s2.8,1.1,7.9,0.6s5.6-0.6,5.6-0.6s5.7,1.7,6.2,2.8
			s2.8-1.8,2.8-1.8l7.2-4.5l2.8-1.4"/>
		<path class="st1" d="M280.1,548.4c0,0,3.9,3.4,7.8,2.6s13.6,1.2,13.6,1.2s4.9,1.8,6.6,1.2s3.5-1.3,3.5-1.3l7.4-3.8l2-1.6"/>
		<path class="st1" d="M281.8,565.8c0,0.2,2.7,1.1,2.7,1.1l5,1.3l9.7,2.8c0,0,7.3,1.3,8.5,0.7s3.8-2.2,3.8-2.2l7.4-3.1l2.9-1"/>
		<path class="st1" d="M283.8,586c0,0.1,3.4,1.7,3.4,1.7l1.2,0.3c0,0,7.3,1.9,11,0.3c3.7-1.6,5.9,0.8,6.4,1s3.6-1.6,3.6-1.6l2.1-0.6
			l7.4-2l3.6-0.5"/>
		<path class="st1" d="M286.1,605.9c0.2-0.1,2.7-0.5,2.7-0.5l10.3-0.8c0,0,3.6-0.5,6,1.7s6.5-1.7,6.5-1.7s7.7-0.4,8.9-1.8
			c1.1-1.4,2.6-3.8,2.6-3.8"/>
		<path class="st1" d="M287.6,619.5h3c0,0,11.2,0.9,11.4,0.8c0.2,0,9.7-0.6,11.3-1.4c1.7-0.8,6.2,0,7.9-1c1.7-0.9,2.6-1.1,2.6-1.1"
			/>
		<path class="st1" d="M289.9,633l2,0.4c0,0,7.6,0.6,10.2-0.6c2.6-1.2,10.8-1.6,10.8-1.6l9.1-1.4l2.5,0.3"/>
		<path class="st1" d="M293.8,649.8c0,0,5.7-0.5,8.3-1.6c2.6-1.2,11.7-3.3,11.7-3.3l9.6-1.7l1.8,0.5"/>
		<path class="st1" d="M239,229.3c0.2-0.5,6.2-6.2,6.2-6.2l1.8-1.3"/>
		<path class="st1" d="M251.2,243c-0.1-0.1,4.1-2.7,4.1-2.7"/>
		<path class="st1" d="M260.5,241.6c-0.1,0.2,4.4,2.3,4.4,2.3"/>
		<path class="st1" d="M266.7,223.9c0.4,0.1,2,1.3,2,1.3s4.2,3,4.1,4.1"/>
		<path class="st1" d="M271.9,207.2c0.2,0.1,2.4,1.1,2.4,1.6"/>
		<path class="st1" d="M236.2,208.4c0-0.1,2.8-4,2.8-3.2"/>
		<path class="st1" d="M245.2,278c0,0,5.7-0.9,7.1-0.2c1.4,0.7,2.2,0.2,2.2,0.2"/>
		<path class="st1" d="M242.8,258.2c0,0,4.5-2,8.9-0.3c4.4,1.7,4.2,1,4.2,1"/>
		<path class="st1" d="M240.3,238.6c0,0,5.5-0.9,6.6-0.3"/>
		<polyline class="st1" points="241.8,384.3 243.8,384.5 252.3,385.6 		"/>
		<path class="st1" d="M196.1,279.5c0,0,2.6-1.3,4.1-1.6c0,0,3.8-1.8,8.9-1.8s1.3-0.4,8.7,0.3"/>
		<path class="st1" d="M185.7,302.9"/>
		<path class="st1" d="M198.2,310.5"/>
		<path class="st1" d="M185.3,302.9"/>
		<path class="st1" d="M190.7,313.1c0,0-0.6-0.4,3.6,0.7s6.3-0.5,7.2-3c0.9-2.4-2.8-3-8.2-4c-0.2,0-0.5-0.1-0.7-0.1
			s-0.3-0.1-0.5-0.1s-0.4,0-0.5,0c-4.4-0.1-1.3,5.5-1.3,6.4c0,0.5-1.5,3.6-1.5,3.6s-7.3,2.3-5.4,6s6.1,8,6.7,7.9
			c0,0,1.6,0.4,1.7-2.6s-0.1-2.2-2.3-4.5s-3-4.5-3-4.5"/>
		<path class="st1" d="M190.9,324.2c0-0.2,2.1-2.4,3-4.1s1.5-6.1,1.5-6.1"/>
		<path class="st1" d="M194.3,303.7c1.4,0.2,4.4,1,5.2,1.3s3.1,0.3,3.1,0.3s7.9-2.7-0.1-6.4l-6.2-0.9c0,0-6.9,2.4-2.8,5.3
			c0,0,1,2.1,0.6,3.6"/>
		<path class="st1" d="M199,304.8c-1.2,0.8-1.8,2.1-1.8,2.3c0,0.1,0,0.5,0,0.5"/>
		<path class="st1" d="M204.4,668.5c0,0.1-1.4,2-4.6,3.2s-6.6,6.3-6.6,6.3l-1.8,2.1c0,0,2.8,0.6,3.5,0.6s7.6-4.2,8.7-5s1-3,1-3
			l-0.3-4.3c2.3-6.8,0.6-11.2,0.6-11.2"/>
		<path class="st1" d="M190.4,685.3c0,0-1.4,5.2-8.4,6.5s-15.2,2.1-23,0.4l-0.6-1.1c0,0-0.6,3.1,1.2,3.5s7.5,1.2,9.6,1.2
			s10.4-0.4,10.6-0.5s5.2-1.3,7.1-2.8s3.6-3,3.7-4.1C190.7,687.4,190.4,685.3,190.4,685.3z"/>
		<path class="st1" d="M190.4,685.4c0,0,0.7-5.3,1-5.3"/>
		<path class="st1" d="M158.4,691.1c0,0-0.5-3.2-0.4-5.4s0.9-6,3.4-8.1c2.5-2,6.9-7.3,8.2-9.6c1.4-2.3,3-4.8,3-5s2.8-7.3,2.8-7.3
			l0.6-1.5"/>
		<path class="st1" d="M307.9,673.9c0,0-7.6-0.9-10.8-2.8c-3.2-1.9-3.6-1.7-3.5-2.7c0-1,0-6.1,0-6.1c0.1-0.1,10.1,5.4,14.7,6.6
			l4.5,3.7C312.7,672.6,308.1,673.9,307.9,673.9l0.2-4.9"/>
		<line class="st1" x1="195" y1="680.7" x2="194.6" y2="676.3"/>
		<path class="st1" d="M312.7,672.6c0,0,2.8,1,4.8,5.3s16.5,6,16.9,6s8.7,1.1,11.6,0.5s6.3-0.8,7-1.9c0.7-1.1,0.7-2.6,0.7-3.2
			s-3.6-5.4-3.9-5.7s-1.3-3-6.9-6.5s-11.5-10.2-11.5-10.2s-5.8-7.9-7.3-11.2"/>
		<path class="st1" d="M316.6,676.5c0,0.1,1.4,5.4,4.7,6.5c3.4,1.1,15,4.1,18.5,3.9s10.4-1.1,12-1.7s2.1-1.3,2.2-1.4
			c0.1-0.1,0.8-1.3-0.4-4.6"/>
		<path class="st1" d="M293.5,662.4c0,0-1-1.9-0.5-5.1c0.4-3.1,1-7,1-7"/>
		<path class="st1" d="M256.2,189.4c-0.1,0-1.4,1.3-2.8,0.7"/>
		<path class="st1" d="M289.3,246.4l20-5c0,0,1,0,0.2-3.2s-1.1-3.7-1.1-3.7l-8.8,2.5l-8.3,1.9"/>
		<path class="st1" d="M291.9,238.8"/>
		<path class="st1" d="M307.8,234.7c0-0.4,0.3-2.4,0.3-2.4s-0.1-0.4-1.5-0.2s-13.5,2.7-13.5,2.7l-0.7,0.1"/>
		<path class="st1" d="M279,276.8c-0.1,0.3,2.7,20.6,2.7,20.6l0.8,8"/>
		<polyline class="st1" points="288.6,248.7 289.4,257.1 291.7,277.7 293.1,297.7 294.7,312 		"/>
		<line class="st1" x1="295.8" y1="222.3" x2="298.7" y2="233.6"/>
		<path class="st1" d="M302.7,315.8l-1.5-18.8l0.7-20.3c0,0,0-5.6,0.4-7.8s-0.2-12.9-0.2-12.9l-1.1-12.7l-1-6.4l-0.1-0.1"/>
		<path class="st1" d="M300.4,197.5c0,0,2.6,4.2,2.7,4.6s4.9,13.3,4.9,14.1s3.7,19.3,3.7,19.3s1.1,11.2,0.2,20.2s-2,20.9-2,20.9
			l-0.6,20.9l-0.4,20.3l0.5,2.2"/>
		<path class="st1" d="M311.5,292.8l1.6-26.9l3.7-31.4l2.5-25c0,0-0.5-1-0.5-1.1c-0.1-0.2-2.8-5.7-2.8-5.7"/>
		<path class="st1" d="M321.8,203.3l2.3,3.9l2.3,6c0,0,3.8,12.9,4.8,19.7c0.9,6.8,1.6,20.2,1.6,20.5s3.9,19.5,3.9,19.5l3.7,19.5
			l1.9,14.4c0,0-3.5,2.1-3.8,4.9c-0.2,2.8,0.5,3.9,1,8.4s1.4,7.8,1.2,11c-0.2,3.2,0.8,5.3,1.4,7.2c0.5,1.9,1,3.6,0.6,5.6
			s-1.5,6.1-1.5,6.1"/>
		<path class="st1" d="M318.3,221.4l2.7,12.2l3.3,20.3l2.5,20.1l1.8,20.8c0,0,1.6,6.4,1.4,9.6s2.4,5.4,2.4,5.4l-1.1,10.1l-0.8,8.7
			l-0.4,2.4"/>
		<path class="st1" d="M313.1,267.1l1.2,10.2l3.9,18.8c0,0,3.5,16.4,3.5,18.4s1.2,6.5,1.2,6.8s-0.3,5.8-0.3,5.8"/>
		<polyline class="st1" points="282.9,197.1 281.6,204.1 277.2,219.6 273.6,236.8 270.4,252.7 		"/>
		<polyline class="st1" points="296.7,197 296.5,197.5 294.9,208.1 294.8,208.4 291.1,224.6 286.6,241.8 281.4,260.1 276.6,277.7 
			273.5,291.7 		"/>
		<polyline class="st1" points="239.1,281.8 237.8,277.7 232.3,259.8 226.2,242.1 221.4,224.5 216.6,207.9 214.1,197.7 213.8,196 		
			"/>
		<polyline class="st1" points="240.3,238.4 234,218 229.3,202.4 227.7,196.3 227.4,194.9 		"/>
		<path class="st1" d="M207.1,197.7l-1.9,4.7l-4.4,14.1c0,0-3.4,12.7-1.9,21.4s2.7,12,2.7,12l0.5,5.7l0.7,21.3l0.8,11.4"/>
		<path class="st1" d="M214.1,215.5c0.2,0.1-3.3,19.8-3.3,19.8l-2.6,20.5c0,0-0.4,5.6,0.4,11.1s0.8,9.3,0.8,9.3l-0.1,8.9"/>
		<path class="st1" d="M211.7,287.3"/>
		<polyline class="st1" points="223.3,243.7 221.9,255.2 220.9,272 		"/>
		<path class="st1" d="M178.8,304.8l-1.8-2.2l1.7-7.3l3.7-19.9l3-18.9l3.8-20.7c0,0,2.8-9.4,3.1-10.2"/>
		<path class="st1" d="M185.7,203.8l1.3,2.3c0,0-3.3,1.8-3.7,3.8s-0.3,4.4-0.6,4.7c-0.3,0.2-4,20.5-4,20.5l-3.9,19.9
			c0,0-2.3,7.8-3.1,9.3c-0.8,1.6-1.6,8.8-1.6,8.8s0.1,8.8,0,10.2c-0.1,1.3-3.8,7.9-3.8,7.9s-2.8,6.9-2.5,8.1l4.5,3.4l8.3,4.1"/>
		<polyline class="st1" points="175.1,318 163.7,313.6 159.1,308.1 158.1,298.8 163,269 		"/>
		<path class="st1" d="M178.9,334.6c0,0-15.3-7.6-15.7-7.7s-6.7-7.8-6.7-7.8l-2.6-8.6"/>
		<path class="st1" d="M166.2,254.6c0,0,4.4-0.7,8.6,0.4c0,0,8.9-0.4,10.6,1c0,0,5.7-0.2,9.1,1.8l1.4,0.5"/>
		<path class="st1" d="M162.4,271.8c0,0,7.3,1.5,7.4,1.5s12.6,2.4,12.6,2.4l13.3,2.5"/>
		<path class="st1" d="M193.7,295.5c0.1-0.1,3.9-3.2,3.9-3.2s-0.3-2.1-0.9-5.2s-0.9-0.8-0.9-0.8s-1.2,9.4-2.4,9.4s-4.2,2.3-4.2,2.3
			l-10.5-2.5l-12.8-3.6l-6.3-2l-1.1-1"/>
		<path class="st1" d="M154.7,305.3"/>
		<path class="st1" d="M175.3,333.4"/>
		<line class="st1" x1="289.3" y1="406.5" x2="289.7" y2="417.3"/>
		<line class="st1" x1="300" y1="417.3" x2="299.4" y2="408.7"/>
		<path class="st1" d="M311.1,414.7c0,0-1-12.7-0.5-15.7l-0.5-6.6"/>
		<path class="st1" d="M320,412.2c0-0.3-1.5-12.4-1.5-14.8l-1.1-16.4"/>
		<path class="st1" d="M207.6,416.9l-1.1,4.7l-4.5,20.1l-2.3,19.1l-1.2,19.8l-0.8,18.5l-2.3,19.4c0,0-1.5,17.4-1.5,17.9
			s-3.2,16.1-3.8,16.9c-0.5,0.9-2.4,15.3-2.3,18.8S185,589,185,590.4s-1.8,11.7-3.2,14.4s-3.3,20.1-3.3,20.1s0,13.3,0,13.9
			s-3,14.5-3.1,14.4"/>
		<polyline class="st1" points="196.1,414.9 195.6,419.4 192,438.9 190.8,457.9 190.2,477.5 190.2,495.9 188.9,515.5 187.4,531.7 
			183.1,549.4 180.8,568.2 176.4,591.9 		"/>
		<path class="st1" d="M222,417.7c-0.2-0.2-1.5,5.3-1.5,5.3l-4.1,19.9l-3,19.6l-2.2,19.5l-1.3,18.6l-2.3,18.6l-2.3,18.5l-3.2,18.3
			l-3.3,17.3l-2.2,19.4l-4,15.9c0,0-1.8,16.8-2,17c0,0-4.5,17.2-4.3,18.1c0.2,1-1.9,11.8-2.2,12.9l-0.2,1"/>
		<path class="st1" d="M243.4,380.5l0.4,3.9l-3.7,20.8l-5.6,19.6c0,0-3,14-4,19.4s-3.7,18.5-3.7,18.5l-2.7,18.7l-1.6,19.3l-2.7,18.3
			l-2.4,18.2l-2.9,17.6l-2.4,19.2c0,0-2.2,14.6-3.9,17.4c-1.6,2.8-3,10.5-3,16.7c0,6.1,0.5,8.7-2.9,16.9c0,0-2.2,1.9-2.3,5.5
			s-1.4,23.4-1.6,26.2c-0.2,2.9-0.2,2.9-0.2,2.9"/>
		<path class="st1" d="M257.8,388.8c0,0-2.2,14.9-3.1,17.2c-0.8,2.3-6.1,19-6.1,19l-5.6,18.1c0,0-3.7,14.1-4.4,18.1
			s-3.2,17.3-3.2,17.3l-3.6,20.2l-3.3,23.9"/>
		<polyline class="st1" points="260.1,390.2 262.6,407.2 266.4,426.2 268.9,443.6 270.9,461.3 272.3,478.7 273.9,495.9 276.2,516.7 
					"/>
		<path class="st1" d="M275.7,399l1.2,6.5l4.1,19l2.2,19.7l0.7,18.9l0.8,16.8l1,18.4l0.8,18.1l1,18.1l0.8,16.5l1.4,17.4l-1.1,19.8
			l0.3,17.4c0,0,2.3,17.4,2.3,17.7s1.5,16.3,1.5,16.3v5"/>
		<polyline class="st1" points="293.9,418.1 294.9,422.4 296.9,443.1 297.7,461.5 297.7,480.9 298.2,499.2 299.3,516.7 301,534.4 
			301.4,552.3 299.3,571.4 299.7,588.2 299,604.6 302.1,620.3 302.1,633.4 302.1,647.5 302.5,651.8 		"/>
		<path class="st1" d="M315.7,413.5c0,0.1,1,4.6,1,4.6l2.2,20.6c0,0,0.1,18,0,18.6s0,20.9,0,20.9v2.8"/>
		<path class="st1" d="M318,503.9v15.9c0,0-1,10.4-1.1,10.6c-0.1,0.2,2,18.7,2,18.7l0.4,18.8l-0.4,16.7l1.3,17.7
			c0,0,1.3,24.4,1.3,24.9c0,0.4,2.3,18.4,2.3,18.4"/>
		<line class="st1" x1="320.5" y1="416.8" x2="316.1" y2="418.4"/>
		<path class="st1" d="M251.6,203.8c0,0-3.5,17.7-1.9,23.4l-4.5-4.1l-8.3-8.9"/>
		<polyline class="st1" points="263.7,233.3 269,225.6 273.5,219.3 		"/>
		<path class="st1" d="M251.1,242.8c0.3,0.3,0.7,15,0.7,15l0.6,19.5l0.3,11.9"/>
		<path class="st1" d="M258.1,203.8c0,0,6.4,21.9,5.9,28.7"/>
		<path class="st1" d="M256.1,257.5c0.1,0,7.4,0,8.8,0.4s5,0.7,5,0.7"/>
		<path class="st1" d="M254.5,277.7c0,0,5,0.6,7.7,0s5.8-0.5,5.8-0.5"/>
		<path class="st1" d="M264.8,244.4c0,0,0.7,6,0.3,8.9c-0.3,2.9-0.1,4.6-0.1,4.6l0.6,19.3l0.9,17"/>
		<path class="st1" d="M163.7,332c-0.7-1.4-1.3-5.9-1.3-5.9l1.3-12.5l7.5-9.5l6-1.2l3.2,0.7"/>
		<path class="st1" d="M341.3,350.8c0,0-0.4,4.2-3.2,9.5c-2.8,5.3-7.8,4.5-7.8,4.5s4.6-0.5,8.2-7.6s-2.1-10.9-2.1-10.9
			s1-1.2,1.2-2.8c0,0,3.1,1.4,3.7,7.5s1.2,9.8,1.2,9.8s1,2.2,1.3,2.2"/>
		<path class="st1" d="M337.6,343.5c1.2-4.5-6.4-4-6.7-4h-0.3"/>
		<path class="st1" d="M336.4,346.2c0,0-0.4,0.6-0.7,1.6"/>
		<path class="st1" d="M328.8,351.4c0.2,0,3.1-1.1,4.1-0.5s1.5-0.2,1.5-0.2"/>
		<path class="st1" d="M325.1,369.4c0,0,0.1,0.5,1.2-0.5s3.4-3.9,4-4.1"/>
		<path class="st1" d="M198.1,297.3c0.3,0,0.5,0.1,0.8,0.1h0.1c0.7,0.1,6.3,0.7,8.6-1.8c2.4-2.6,4.2-6.6,4.1-7.3
			c0-0.7-1.3-4.9-4.4-2s-9.5,5.6-10.2,6.6c-0.3,0.5-1,1.1-1.7,1.6s-0.6,1.6,0.3,1.9c0.4,0.1,0.7,0.3,1.1,0.4c0,0,1.7,1.4,3.1,1.6"/>
		<path class="st1" d="M186,326.5c0,0-2.8,1.7-1.5,3.7s3.1,5.2,3.6,5.1s2.4-2.5,0.9-5.5"/>
		<path class="st1" d="M180.6,325.2c0.1,0.1,3.4,3.4,4,5"/>
	</g>
	<path class="st3" d="M537.5,359.3c0-0.1-1.4-1.5-1.4-1.5l0.4-1.4l2.7-4c0,0,4.5-3.3,4.6-3.3s6.1-1.9,6.1-1.9h4.2l4.8,1.9l1.1,1.2
		l1.1,3.2l-0.3,0.9c0,0-1.3-0.2-1.4-0.3c-0.1,0-4.6-1.2-4.7-1.2s-5.4,0.4-5.4,0.4s-4.6,1.5-4.7,1.5c0,0-2.8,2.7-2.9,2.8
		c-0.1,0.1-0.9,2.1-1,2.2c0,0.1-0.6,1.6-0.6,1.6l-0.5,0.3c0,0-1.8-1.8-1.9-1.9C537.6,359.7,537.5,359.3,537.5,359.3L537.5,359.3z"/>
	<path class="st3" d="M685,369.6l0.8-0.8l-2.2-6.2l-5-5.3l-4.6-1.8l-9.4-3.3l-2,2.1l-3.5,3.4c0,0.1,3.2,0.9,3.4,1s5.8,3.2,5.9,3.3
		c0.1,0.1,3.2,3.1,3.2,3.1l4.2,4.4c0,0.1,1.6,2.3,1.6,2.3l0.3,1.8l-0.7,0.5c0,0-1.9,0.9-2.1,0.9c-0.3,0.1-1,0.6-1,0.6l0.2,1
		c0,0,3.1-1,3.4-1c0.3-0.1,2.6-1.9,2.6-1.9l2.8-1.8l1.2-1.5L685,369.6z"/>
	<path class="st3" d="M583.2,173.8c0,0,2.7-1-1.6,21.9s-5.6,39.7-5.6,39.7l-1.8,22.3l-1.4,30.8c0,0-1,12.5-2.1,19.4
		s-2.5,10.9-2.5,10.9l-3.8,18.7l-0.9,7.5l9,1.9l7.7,1.5h13.9l35.7-8l-7.6-19l-6.1-15.2v-13.7l3.7-35.1l4.3-43l3.4-32.3
		c0,0,0-2.2,0-3.1c0-1-2.2-15.2-2.2-15.2l-2-2.2l0.9,6.2c0,0-0.6,2-1.9,2.9c-0.4,0.3-2.2,1.3-4,2.8c-3.4,2.7-7.7,6.5-7.7,6.5
		l-8.4,7.4l-11.7-8.9l-2.8-3.7l-2.3-4.9L583.2,173.8z"/>
	<polygon class="st3" points="655,324.9 656.7,329.9 656.5,332 652.2,334.4 641.2,336.9 642.9,334.6 648.9,329 653.8,325.4 	"/>
	<path class="st3" d="M563,345.6l14.6,17.6l18.5-10.4l-21.6-14.4L563,345.6z"/>
	<path class="st3" d="M589.9,348.4c-5.9-5.1,22.8,16.8,22.8,16.8l19.2-18.6l-2.3-6.3L589.9,348.4z"/>
	<path class="st4" d="M629.5,340.2l-17.7,4.3l-17.5,3.8l-14,0.2l-8.5-1.6c0,0-7.9-1.1-8.5-2.3"/>
	<circle class="st5" cx="680.3" cy="364.9" r="2.3"/>
	<circle class="st5" cx="594.2" cy="345.9" r="2.3"/>
	<circle class="st5" cx="594.2" cy="337.6" r="2.3"/>
	<circle class="st5" cx="594.2" cy="329.5" r="2.3"/>
	<circle class="st5" cx="603.8" cy="212.5" r="2.3"/>
	<circle class="st5" cx="601.3" cy="238.4" r="2.3"/>
	<path class="st4" d="M663.6,353.7l-0.4-0.8l-2.6-8.6c0,0-2.9-15.1-4.1-14.6c0,0,3,3.2-8.3,5.8l-7.3,1.6"/>
	<path class="st4" d="M668.1,388.7"/>
	<path class="st4" d="M560.5,354.7c0,0-7.2-2.9-13.4-0.8s-7.2,8.6-7.3,8.6s-3.5-4.4-3.5-4.5"/>
	<line class="st4" x1="559.6" y1="349.9" x2="561.1" y2="354.2"/>
	<path class="st4" d="M583,174.9c0,0,2.2-6,2.8-5.7c0,0-1.9,5.4,7.6,11.6l8.5,6.6l10.3-9.1l5.8-5.1c0,0,5.9-3.1,5.9-4.9l-1-6.7
		c0-0.1,0.1-0.2,0.2-0.1l1.7,2.3l1.8,2.3"/>
	<polyline class="st5" points="626.8,327.6 598,320.3 610.5,249.8 619.4,211.6 626.7,180 628.5,172.6 	"/>
	<path class="st5" d="M564.5,326.5l24.4-5.7l-2.3-26.6l-0.2-0.8l-2.5-23l-1.1-20.1l-0.3-18.9l-0.6-42"/>
	<line class="st5" x1="588.9" y1="320.6" x2="593.3" y2="324.8"/>
	<polyline class="st5" points="600.6,195.1 599.5,204 597.1,224.8 595.1,255.4 594.3,278.2 593.7,295.5 593.3,324.4 	"/>
	<path class="st5" d="M605.3,192.6c0.2-0.1,8,0.3,10.5-0.3"/>
	<path class="st5" d="M605.3,191.9c0.1-0.2,3.2-4.2,8-4.1"/>
	<path class="st5" d="M598.6,192.2c0,0-3.6-3.2-12-4"/>
	<path class="st5" d="M605.2,194c0,0,0.5-2.5-0.4-5.2"/>
	<path class="st5" d="M598.8,189.5c0,0-1,3.3,0.5,5.8"/>
	<path class="st5" d="M598.4,193.3c0,0-6.2,3.5-9.8,3.1"/>
	<path class="st5" d="M537.8,354c0.1,0.2,0.2,0.4,0.4,0.5c1.1,1.1,2.9,1.2,4,0.1s1.2-2.9,0.1-4c-0.2-0.2-0.3-0.3-0.5-0.4
		C540.9,351.1,538.7,353.1,537.8,354z"/>
	<path class="st4" d="M582.1,188.8c0-0.5,2.8-11.8,1.2-14.2"/>
	<path class="st5" d="M604.7,188.8c0,0-3-2.1-2.9-2.8c0,0-1.3,4.1-3.4,3.2"/>
	<polyline class="st5" points="596.4,353.3 583.9,360.1 577.6,363.2 562.6,345 	"/>
	<polyline class="st5" points="598.3,320.2 592.4,325.1 591.1,326.2 589.6,328.7 588.6,347.5 612.6,365.2 616.4,361.9 633.6,345.4 	
		"/>
	<g>
		<path class="st6" d="M688.4,376.7c0,0-7,8.9-12.3,7.6c-0.1,0,2.8,37,2.8,37l3.2,36.2l2,27.7c0,0,1.3,8.3-8.8,10.3
			c-4.8,1-6.8,1.3-7.6,1.4"/>
		<path class="st6" d="M626.4,499c-0.1-1.8-16.6-51.4-16.6-51.4l-5,50.6c0,0-12.7,0.4-16.9-1.9"/>
		
			<ellipse transform="matrix(0.6544 -0.7562 0.7562 0.6544 -5.0321 588.0145)" class="st7" cx="640.7" cy="299.5" rx="3.4" ry="3.1"/>
		<ellipse class="st6" cx="636.8" cy="330.4" rx="2.7" ry="3.4"/>
		<ellipse transform="matrix(0.9633 -0.2683 0.2683 0.9633 -68.142 162.3651)" class="st8" cx="560" cy="330.5" rx="2.7" ry="3.4"/>
		<circle class="st6" cx="559.7" cy="299.8" r="2.7"/>
		<circle class="st6" cx="642.5" cy="267" r="3.4"/>
		<path class="st6" d="M667.9,358.3l-6.4,6.9c10.3,2.4,15.9,11.4,18.4,14.2c2.5,2.8-3,3.6-3,3.6l-7.2,10.3c0,0-6.1-25.5-8-27.8"/>
		<path class="st6" d="M594.4,365.6c0,0,0.1,37.9,11.4,47.6"/>
		<path class="st6" d="M540,366.5l0.5,5.6c0,0,1.5,2.8,2.1,7.8s6,10.9,6,10.9"/>
		<path class="st6" d="M650.5,659.4l-0.5,7.3c0,0,2.9,5.7,3.7,11.2c0,0,2.9,5.9,2.9,9.4c0,0.1-0.4,2.5-0.4,2.5s-6.1,2.6-13.2,1.7
			s-11.1,0.7-11.1,0.7s-6.8,0.8-7.4-0.4c-0.6-1.3-1.1-3.9-0.4-7.9c0.7-4.1,0.4-16.4,0.4-16.4l0.2-8.5"/>
		<path class="st6" d="M656.8,688.1c0,0,3.4,3.6,1.2,4.8s-8.6,3-14,2.4s-16.9,0.4-16.9,0.4s-3.9-0.9-3.9-2.7s0.6-4.6,0.6-4.6
			l0.2-2.5"/>
		<path class="st6" d="M623.1,162.2l0.4-1.9c0,0,3.1-5.7,3.7-9.7c0.6-3.9,1.7-8.2,2.7-14.6c0.7-4.5-0.3-18.2-1-26
			c-0.3-3.7-2-7.3-4.7-9.9c-3.4-3.2-8.1-7.1-11.6-7.3c-6.1-0.3-13.8-0.3-15.8,0"/>
		<path class="st6" d="M596.9,92.7c-3.5,0.2-8.2,4.1-11.6,7.3c-2.7,2.6-4.4,6.1-4.7,9.9c-0.7,7.7-1.7,21.5-1,26
			c1,6.4,2.1,10.7,2.7,14.6c0.6,3.9,3.7,9.7,3.7,9.7v10.7l-0.4,0.8"/>
		<path class="st6" d="M623.5,161.7c0,0-5.1,2.6-12,5.9s-15.2-1-15.2-1c-4-1.6-8.7-4.1-10.2-4.9"/>
		<line class="st6" x1="623.2" y1="161.9" x2="624.3" y2="163.8"/>
		<path class="st6" d="M562,264.4c-0.2,0-0.4,0-0.7,0c-1.6,0.2-2.7,1.7-2.5,3.3c0.2,1.6,1.7,2.7,3.3,2.5c0.2,0,0.4-0.1,0.6-0.2
			C562.6,268.7,562.2,265.7,562,264.4z"/>
		<path class="st6" d="M616.2,305.2l11.8-26.3l14.3-40c0,0,12.3-39.2,13.4-42.3s-1.5-2-1.5-2l-2.1,1l-13.7,6.5l-10.3-13
			c0,0,2.1-8.5-1.1-21.3"/>
		<path class="st6" d="M662.5,350.8c-0.7,1.6-6.6,2.4-6.6,2.4s-7.3,1.8-7.9,2.1c-0.7,0.3-21.4,4.8-21.6,4.9s-21.4,4.4-21.4,4.4
			s-7.6,1.1-17.9,1.4c-9.5,0.3-25.9-4.3-26.5-4.6c0,0-3.8,7-5.4,12.1s-6.8,18.1-6.8,18.1v10.1l-5.6,46.3l-3.6,48.2l-5.7,27.3
			l-5.9,34.4l-7.8,42.4l-10.9,30.8l-11.3,29.3c0,0,5.8,1.2,13,3.4c7.2,2.2,30.9-0.6,30.9-0.6s5.9-18.1,5.9-18.5s16.2-56.1,16.2-56.1
			l13.7-50.3l10.7-44l15.6-69.2l1.4-8.8c0,0,4.4-7.9,7.2,0.7c0,0,4.1,25.4,4.1,25.8s7.5,41.4,7.8,41.9c0.2,0.4,4.1,25.6,6.1,38.7
			c0.8,5,0.8,10.2,0.1,15.2l-2,14.6l-2.2,33.8l-3.3,40.5c0,0-2.7,18.8-2.1,22.2s4.2,9.2,4.2,9.2s8.6-1.5,14.1-1.9
			c5.5-0.5,12.4,2.8,13.3,3.3s1.7-5.5,2.2-6c0.5-0.4,9.1-30.9,9.1-30.9l4.4-44.9l0.9-38.8l-0.9-38v-21.8l1.6-39.2
			c0,0,0.8-17.5,0.8-19.9c0-0.5,0.3-1.5,0.3-2.6c-0.4-9,0.3-16.3-0.8-24.5v-0.3"/>
		<path class="st6" d="M571.9,306.1c-3.5-6.5-6.7-21.9-9.2-37.2s-7.9-66.7-7.9-68.3c0-0.9,0.1-3,0.2-4.5c0-0.9,1-1.4,1.8-1l11.5,8.7
			c0,0,13.1-12.5,14.2-12.9c0,0-6.1,35-6.6,41.8s-3.8,55.6-3.9,65.7s-2.6,17.6-2.6,17.6s-5.6,25.1-6.2,30.4
			c-0.6,5.2-0.6,6.5-0.6,6.5s-3.7-1.4-4.9-4.4s-3.5-8.3-4.8-10c-1.1-1.5-0.2-21.6-0.2-21.6l-2.1-26.3l-2-16.4c0,0-0.5-1.1-1.7,1.4
			s-2.6,5.7-2.6,5.7l-4.2,14.5c0,0-0.6,2.5,0.4,6s5.5,21.7,5.5,21.8s9.8,21.1,9.8,21.1l1.1,2l1.8,10.3c0,0-5.3-3.8-10.8-2.2
			s-10.1,3.6-13.3,10.4c0,0-0.5,2.5-0.6,2.3s-5.6-11.8-5.6-11.8l-8.7-19.1l-5.6-17.7l-6-20.8c0,0-0.3-6,3-15.4
			c3.3-9.5,7.1-26.1,7.1-26.1l7.1-19.2l4.7-20.3l7.1-21.5c0,0,2.2-5.4,14.3-8s16.6-4.2,16.6-4.2s12-2.8,15.4-6.7
			c0,0,0.6,1.5,0.6,3.9s-1.3,10.2-1.3,10.2"/>
		<path class="st6" d="M537.7,663.7c1.2,2.7,3.1,8.7,1.5,15.8c0,0-1.7,2.6-9.1,2.9s-19.9,0.9-29.5,5.1c-9.6,4.2-37.7,0-37.7,0
			l-14.4-2.5c0,0-0.9-3,2.9-4.1s12.1-2.2,16.8-2.2c7.5,0,31.4-10.9,32.5-17.8"/>
		<path class="st6" d="M500.6,661.5"/>
		<path class="st6" d="M539.5,679.7l0.2,7.7c0,0-17.3,2.5-20.4,2.4s-3.5-0.3-3.5-0.3v-3.3c0,0-7.5-0.8-12.6,1.5
			c0,0-4.4,4.6-10.7,4.8c-6.2,0.2-21.6-0.1-29.2-1.6c-7.6-1.6-15.8-2.6-15.8-2.6s-1-1.3-0.3-2.2c0.6-0.9,1.2-0.9,2.4-0.7"/>
		<path class="st6" d="M672.1,348.6l-1.1-7.8c-3.2-12.5-1.3-30.7-1-41.4c0.3-10.7,6.5-27.8,6.5-27.8l-4.2-24.5l4,23
			c0,0,7.6,15.7,10.4,24s3.6,14.6,3.6,14.6l-3.7,13l-14.3,27.5l-4.8,10.7c0,0,6.8,1.4,13.8,5.1s7.8,12.2,8.5,15.1s1.8,1.7,1.8,1.7
			l8.9-21.7c0,0,18.3-40,21.9-45.8c3.7-5.7,1.3-13.7,1.3-13.7l-7.6-26.2l-11.5-32.5c0,0-15.9-36.4-18.2-45.1c-2.3-8.7-5.8-9-5.8-9
			l-8.8-3l-33.6-8.5c0,0-7.6-5.2-9.2-7.1c-1.7-2-2.3-2.6-2.3-2.6s3,13.3,1.7,21.4c-1.3,8-4.2,41.5-4.2,41.5s-2.8,28.3-3.8,36.3
			s-2.9,28.3-2.9,28.3s-2.5,15.2,0.5,21.8c3,6.6,15.2,35,15.5,37.4s4.3-2,4.3-2s5.5-8.8,9.7-12.6c4.2-3.8,11.4-10.3,14.7-7.2
			c3.3,3.1,5.2,28.1,5.2,28.1"/>
		<circle class="st9" cx="534.3" cy="357.7" r="1.8"/>
		<circle class="st9" cx="532.3" cy="353.7" r="1.8"/>
		<circle class="st9" cx="530.6" cy="349.5" r="1.8"/>
		<circle class="st9" cx="528.6" cy="345.5" r="1.8"/>
		<circle class="st9" cx="691.3" cy="369.2" r="1.8"/>
		<circle class="st9" cx="693.1" cy="365.2" r="1.8"/>
		<circle class="st9" cx="695.2" cy="361.1" r="1.8"/>
		<circle class="st9" cx="697" cy="357.1" r="1.8"/>
	</g>
	<path class="st5" d="M584.3,185.7c0,0,10.3,1.6,13.4,3.2c2.9,1.5,6.2,0.2,6.7,0h0.1L615,183c0.4-0.2,0.9-0.1,1.2,0.2l3.3,4.1
		c0.1,0.1,0.1,0.2,0.2,0.3l1.8,5.9c0,0.1,0,0.2,0,0.3v2.8c0,0.3-0.1,0.5-0.3,0.7c-0.5,0.4-1.7,0.8-4.8,0.3
		c-4.9-0.8-6.9,0.4-10.7-3.2c-0.2-0.2-0.5-0.3-0.8-0.2l-5.1,1c-0.2,0-0.4,0.2-0.6,0.4c-0.6,0.8-2.5,3.1-6.1,4.3
		c-2.5,0.8-3.9,1.2-4.5,1.3c-0.4,0.1-0.8-0.1-1-0.4l-3.5-5.2c-0.1-0.1-0.1-0.2-0.1-0.3l-1-3.7c0-0.1,0-0.2,0-0.3l0.2-4.5
		C583.1,186.8,583.3,185.1,584.3,185.7z"/>
</g>
</svg>
