<?xml version="1.0" encoding="utf-8"?>
<!-- Generator: Adobe Illustrator 24.0.1, SVG Export Plug-In . SVG Version: 6.00 Build 0)  -->
<svg version="1.1" id="Layer_1" xmlns="http://www.w3.org/2000/svg" xmlns:xlink="http://www.w3.org/1999/xlink" x="0px" y="0px"
	 viewBox="0 0 1756 790.1" style="enable-background:new 0 0 1756 790.1;" xml:space="preserve">
<style type="text/css">
	.st0{fill:#010202;}
	.st1{fill:none;stroke:#FFFFFF;stroke-width:1.5;stroke-miterlimit:10;}
	.st2{fill:#FFFFFF;stroke:#FFFFFF;stroke-width:0.5;stroke-miterlimit:10;}
	.st3{fill:#FFFFFF;}
	.st4{fill:none;stroke:#FFFFFF;stroke-miterlimit:10;}
	.st5{fill:none;stroke:#000000;stroke-miterlimit:10;}
	.st6{fill:none;stroke:#FFFFFF;stroke-width:2;stroke-miterlimit:10;}
	.st7{fill:none;stroke:#FFFFFF;stroke-width:2.0001;stroke-miterlimit:10.0004;}
	.st8{fill:none;stroke:#FFFFFF;stroke-width:1.9999;stroke-miterlimit:9.9997;}
	.st9{stroke:#FFFFFF;stroke-width:2;stroke-miterlimit:10;}
</style>
<g>
	<polyline class="st0" points="1756,789.2 0,789.2 0,-1 1755.9,-1 	"/>
</g>
<g>
	<g>
		<path class="st1" d="M368.4,125.5c-3.5,5-6.2,10.4-7.8,16.3c-1,3.4-1.7,6.9-2.2,10.4c-0.4,2.4-0.6,4.9-0.7,7.4
			c-0.1,3.8-0.5,7.5-0.2,11.3c0.3,5,0.5,10.1,1,15.1c0.4,3.7,0.4,7.5,0.7,11.3c0.3,3,0.4,6,0.9,8.9c0.3,1.6,0.3,3.4,0.3,5
			c0.2,6.6,0.3,13.1,0.2,19.7c-0.4,18.1-1.3,36.5-3.5,54.5c-0.3,2.7-0.6,5.5-0.9,8.2c-0.3,3.2-0.6,6.4-0.9,9.6
			c-0.3,2.5-0.4,4.9-0.7,7.4c-0.4,3.9-1.2,7.8-2.1,11.6c-0.5,2.1-0.9,4.2-1.8,6.2c-0.2,0.4,0,1,0,1.5c0,0,4.7,6,33,7.7
			c0.2,0,0.3-0.1,0.5-0.2c0.2-1.6,0.3-3.3,0.5-5c0.4-4.2,0.8-8.4,1.4-12.6c1.8-12.6,2.5-25.3,2.7-38c0.2-12.4,0.8-24.6,1.1-37
			c0.7-26.8-2.7-52.7-8.5-78.7c-1.1-4.8-2.2-9.5-3.3-14.3c-1.9-8.1-4.3-16-7.4-23.7c-0.2-0.6-0.6-1.2-1-1.7
			c-3.2-4.5-10.8-5.2-15.7-6.9c-7.9-2.8-16.3-5.8-23.2-10.5"/>
		<path class="st1" d="M298.9,99.8c0.1,0.7,0.2,72,0.2,106.9c0,1,0.1,1.9,0.3,2.9"/>
		<path class="st1" d="M298.9,214.7c3.8-14.4,8.1-29.1,10.4-43.9c1.7-11,3.6-21.9,5.5-32.8c1.1-6.2,2.2-12.6,3.2-18.9
			s1.4-12.6,1.8-19c0.1-2.5-1.8-4.8-3.7-6.2c-2.2-1.6-5-2.2-7.6-2.7c-5.5-1.2-11.2-0.9-16.7-0.3c-3.7,0.4-7.8,1.2-10.7,3.6
			c-2.3,1.8-3.2,4.5-2.8,7.4c0.1,0.4,0.1,0.8,0.2,1.2c0.2,2.2,0.5,4.5,0.7,6.7c0.7,6.7,1.5,13.4,2.6,20.1c1.2,6.9,2.4,13.8,3.6,20.6
			c2.3,13.4,5.1,26.7,8.1,39.9c0.7,3.4,1.5,6.7,2.4,10c0.8,3,1.6,5.2,2.2,7.2c0.6,2.1,1.4,3.9,1.1,6.3c-0.9,7-5.4,33.3-6.6,40.4
			l-1.1,7c-0.3,2.7-0.6,5.4-0.9,8.1c-0.5,4.5-0.5,9.1-0.5,13.7c0,2.4,0.1,4.7,0.1,7.1c0.1,5.4,0.5,10.9,0.9,16.3
			c0.2,3.4,0.6,6.7,0.8,10.1c0.1,2.1,0.3,4.2,0.7,6.2c0.5,3.2,0.9,6.5,1.5,9.8c0.8,4.5,2,8.8,4.4,12.8c2.6,4.4,6.8,6.9,11.1,9.2
			c3.4,1.9,7,3.3,10.7,4.3c10.9,2.9,21.7,1.3,32.5-0.9c4-0.8,7.8-2.1,11.8-2.9c1.2-0.3,1.7-0.8,1.7-2c0-3.4-0.1-6.7-0.6-10.1
			c-0.3-2.3-0.6-4.7-0.4-7.1"/>
		<path class="st1" d="M267.3,109.3c-6.3,2.8-12.6,5.6-18.9,8.3c-5.5,2.4-11.4,5.8-17.5,6.4c-1.6,0.2-2.6,1.7-3.1,3
			c-2.8,7.4-5.6,14.8-7.4,22.5c-1.6,6.6-3,13.3-4.5,19.9c-2.6,11.7-5.5,23.9-6.9,36c-1.4,12.4-0.6,24.8-0.2,37.2
			c0.5,15.2,0.4,30.4,0.5,45.5c0.1,14.7,2.7,29.1,4,43.7c0.2,1.8,0.2,3.7,0.3,5.5C229.3,339,247,330,247,330c0.1-0.4,0.2-0.7,0-1.2
			c-0.5-1.4-0.8-2.9-1.2-4.4c-1.1-4-1.7-8.2-2.4-12.3c-0.3-2.1-0.3-4.3-0.5-6.4c-0.5-5-1.1-10.1-1.3-15.1c-0.1-2.1-0.3-4.2-0.6-6.2
			c-0.2-1.8-0.4-3.7-0.7-5.6c-0.6-4.8-1-9.6-1.4-14.5s-0.7-9.9-1-14.8c-0.3-5-0.7-10.1-0.6-15.1c0-9.1-0.4-18.3,0.5-27.4
			c0.4-4.2,0.8-8.4,1.1-12.6c1.1-14.2,2.8-28.6,0.6-42.7c-0.7-4.7-1.9-9.4-3.5-14c-1.6-4.4-3.5-8.6-6.5-12.3"/>
		<path class="st1" d="M232.7,336c0.3,2.4-0.2,4.8-0.3,7.2c-0.2,3.3-0.8,6.6-0.9,9.9c0,1.1,0.5,1.5,1.4,1.7c4,1,8.1,2.1,12.1,3
			c7.9,1.8,16.1,3.1,24.3,2.5c5.5-0.4,10.8-1.9,15.8-4.1c2.4-1.1,4.8-2.3,7-3.7c2.4-1.6,4.4-3.6,6.7-5.4"/>
		<path class="st1" d="M261.5,217c0,20.8,0,41.7,0,62.5c0,0.9,0,1.7,0.3,2.5"/>
		<path class="st1" d="M336.1,217c0,20.8,0,41.7,0,62.5c0,0.9,0,1.7-0.3,2.5"/>
		<path class="st1" d="M319.2,192.8c3.4-0.7,12.3-2,15.7-2.7c3.8-0.8,7.7-1.1,11.6-1.4c0.7-2.8,0.4-5.6,0.7-8.4
			c-3.2,0.1-22.8,3.6-24.2,3.8"/>
		<path class="st1" d="M329.5,280.6c-1.2,2.4-1.6,4.3,1.8,5.4c8.2,2.5,16.3,2.9,24.7,4"/>
		<path class="st1" d="M268.4,280.7c0.3,1.7,0.8,3.2-0.6,4.3c-2.2,1.9-6.1,2.5-8.9,3.1c-5.6,1.3-11.4,1.9-17.2,1.8"/>
		<path class="st1" d="M329.5,280.6c0.5-0.6,13,2.9,19.6,3.7c2.4,0.3,4.9,0.5,7.4,0.7"/>
		<path class="st1" d="M318.8,103.5c-2.5-1-5-2.1-7.7-2.8c-3.8-1-7.6-1.2-11.4-1.3c-5.2,0-10.3,0.8-15.3,1.8
			c-1.9,0.4-3.8,0.9-5.6,1.7"/>
		<path class="st1" d="M268.3,280.6c-1.8,0.2-3.4,0.9-5.1,1.3c-6.6,1.6-13.2,2.7-19.9,2.8c-0.6,0-1.2,0-1.9,0"/>
		<path class="st1" d="M294.2,265.2c2.9,0.2,5.9,0.5,8.9,0.5"/>
		<path class="st1" d="M291.9,96.1c-0.9,0.3-0.4,1-0.5,1.6h14.3c0.3-0.5,0.3-1,0-1.6h-13.6"/>
		<path class="st1" d="M350.3,329.4c0,0,28.6,0.2,33.9,7.8"/>
		<path class="st1" d="M247,330c0,0-11.4-6.2-33.5,7.6"/>
		<path class="st1" d="M320.1,99.1c7.2,0.7,20.6,28.9,20.6,28.9s4.5,6,0.4,18.2c0,0-43.7,86.8-48.2,105.4"/>
		<path class="st1" d="M277.3,99.5c-7.8,3.1-19.5,27.4-19.5,27.4s-3.6,10,0.4,18.2c0,0,35.2,71.3,37.7,85.2"/>
		<line class="st1" x1="381.2" y1="328.1" x2="374.4" y2="326.8"/>
		<path class="st1" d="M382.3,327.8c0,1.1-0.9,2-2,2s-2-0.9-2-2s0.9-2,2-2C381.4,325.7,382.3,326.6,382.3,327.8"/>
		<path class="st1" d="M382.3,327.8c0,1.1-0.9,2-2,2s-2-0.9-2-2s0.9-2,2-2C381.4,325.7,382.3,326.6,382.3,327.8z"/>
		<line class="st1" x1="381.9" y1="324.8" x2="375.2" y2="323.5"/>
		<path class="st1" d="M383,324.5c0,1.1-0.9,2-2,2s-2-0.9-2-2s0.9-2,2-2S383,323.4,383,324.5"/>
		<path class="st1" d="M383,324.5c0,1.1-0.9,2-2,2s-2-0.9-2-2s0.9-2,2-2S383,323.4,383,324.5z"/>
		<line class="st1" x1="382.3" y1="321.4" x2="375.6" y2="320.1"/>
		<path class="st1" d="M383.5,321.1c0,1.1-0.9,2-2,2s-2-0.9-2-2s0.9-2,2-2S383.5,320,383.5,321.1"/>
		<path class="st1" d="M383.5,321.1c0,1.1-0.9,2-2,2s-2-0.9-2-2s0.9-2,2-2S383.5,320,383.5,321.1z"/>
		<line class="st1" x1="382.7" y1="318.4" x2="376" y2="317.1"/>
		<path class="st1" d="M383.8,318.1c0,1.1-0.9,2-2,2s-2-0.9-2-2s0.9-2,2-2C382.9,316,383.8,317,383.8,318.1"/>
		<path class="st1" d="M383.8,318.1c0,1.1-0.9,2-2,2s-2-0.9-2-2s0.9-2,2-2C382.9,316,383.8,317,383.8,318.1z"/>
		<line class="st1" x1="382.8" y1="315.4" x2="376.1" y2="314.1"/>
		<path class="st1" d="M384,315.1c0,1.1-0.9,2-2,2s-2-0.9-2-2s0.9-2,2-2S384,314,384,315.1"/>
		<path class="st1" d="M384,315.1c0,1.1-0.9,2-2,2s-2-0.9-2-2s0.9-2,2-2S384,314,384,315.1z"/>
		<line class="st1" x1="216" y1="315.6" x2="222.9" y2="315.3"/>
		<path class="st1" d="M215,316.2c-0.3-1.1,0.4-2.2,1.5-2.4c1.1-0.3,2.2,0.4,2.4,1.5c0.3,1.1-0.4,2.2-1.5,2.4
			C216.4,318,215.3,317.3,215,316.2"/>
		<path class="st1" d="M215,316.2c-0.3-1.1,0.4-2.2,1.5-2.4c1.1-0.3,2.2,0.4,2.4,1.5c0.3,1.1-0.4,2.2-1.5,2.4
			C216.4,318,215.3,317.3,215,316.2z"/>
		<line class="st1" x1="216.1" y1="319" x2="223" y2="318.7"/>
		<path class="st1" d="M215.1,319.6c-0.3-1.1,0.4-2.2,1.5-2.4c1.1-0.3,2.2,0.4,2.4,1.5c0.3,1.1-0.4,2.2-1.5,2.4
			C216.5,321.3,215.4,320.7,215.1,319.6"/>
		<path class="st1" d="M215.1,319.6c-0.3-1.1,0.4-2.2,1.5-2.4c1.1-0.3,2.2,0.4,2.4,1.5c0.3,1.1-0.4,2.2-1.5,2.4
			C216.5,321.3,215.4,320.7,215.1,319.6z"/>
		<line class="st1" x1="216.5" y1="322.4" x2="223.3" y2="322.1"/>
		<path class="st1" d="M215.5,323c-0.3-1.1,0.4-2.2,1.5-2.4c1.1-0.3,2.2,0.4,2.4,1.5c0.3,1.1-0.4,2.2-1.5,2.4
			C216.8,324.7,215.7,324.1,215.5,323"/>
		<path class="st1" d="M215.5,323c-0.3-1.1,0.4-2.2,1.5-2.4c1.1-0.3,2.2,0.4,2.4,1.5c0.3,1.1-0.4,2.2-1.5,2.4
			C216.8,324.7,215.7,324.1,215.5,323z"/>
		<line class="st1" x1="216.9" y1="325.4" x2="223.7" y2="325.1"/>
		<path class="st1" d="M215.9,326c-0.3-1.1,0.4-2.2,1.5-2.4c1.1-0.3,2.2,0.4,2.4,1.5c0.3,1.1-0.4,2.2-1.5,2.4S216.1,327.1,215.9,326
			"/>
		<path class="st1" d="M215.9,326c-0.3-1.1,0.4-2.2,1.5-2.4c1.1-0.3,2.2,0.4,2.4,1.5c0.3,1.1-0.4,2.2-1.5,2.4S216.1,327.1,215.9,326
			z"/>
		<line class="st1" x1="217.4" y1="328.3" x2="224.3" y2="328"/>
		<path class="st1" d="M216.4,328.9c-0.3-1.1,0.4-2.2,1.5-2.4c1.1-0.3,2.2,0.4,2.4,1.5c0.3,1.1-0.4,2.2-1.5,2.4
			C217.8,330.7,216.7,330,216.4,328.9"/>
		<path class="st1" d="M216.4,328.9c-0.3-1.1,0.4-2.2,1.5-2.4c1.1-0.3,2.2,0.4,2.4,1.5c0.3,1.1-0.4,2.2-1.5,2.4
			C217.8,330.7,216.7,330,216.4,328.9z"/>
		<path class="st1" d="M295.5,265.6c0,1.4,1.1,2.5,2.5,2.5s2.5-1.1,2.5-2.5s-1.1-2.5-2.5-2.5S295.5,264.2,295.5,265.6"/>
		<path class="st1" d="M295.5,265.6c0,1.4,1.1,2.5,2.5,2.5s2.5-1.1,2.5-2.5s-1.1-2.5-2.5-2.5S295.5,264.2,295.5,265.6z"/>
	</g>
	<g>
		<g>
			<polyline class="st1" points="534.1,124.7 534.1,366.9 621.7,366.9 			"/>
			<path class="st1" d="M534.2,269.3c0,0,8.5-1.3,10.7-0.5"/>
			<path class="st1" d="M583,266.9c0,0.5-17.6-0.4-19.6-0.5c-4.4-0.3-8.8-0.3-13.2,0.5c-8.7,1.7-14.2,8.2-15.3,16.8
				c-0.6,4.2-0.7,8.7-0.5,13c0.3,8.8,1.4,17.5,2.5,26.3c0.4,3,0.9,6,1,9c0.3,8.7,0.1,33.1,0.1,33.1s38.2,2.1,46.5,0
				C592.9,362.9,588.2,314.4,583,266.9z"/>
			<path class="st1" d="M568,113.4c-1.3-0.8-5.5,3.2-11.7,5.9c-6.1,2.7-22.2,5.5-22.2,5.5"/>
			<path class="st1" d="M670.8,112.8c1.3-0.8,6.8,3.8,12.9,6.5c6.1,2.7,22.2,5.5,22.2,5.5"/>
			<path class="st1" d="M623.9,177.1c14.8-7.5,26.1,19.5,26.1,19.5c1.3-9.9,2.4-14,5.4-23.6c5.6-18.1,20.6-34.8,17.1-54.9
				c-0.8-4.6-3.4-9.8-6.7-13.2c-6.4-6.7-15.8-9.3-25.2-10.1c-7.2-0.6-13.7-0.3-20.9-0.1c-7.2-0.2-13.8-0.5-21.1,0.1
				c-9.4,0.8-18.8,3.4-25.2,10.1c-3.3,3.4-5.9,8.6-6.7,13.2c-3.5,20.1,11.5,36.8,17.1,54.9c2.9,9.6,4.1,13.3,5.3,23.2
				c0,0,16.2-24.7,30.9-17.2"/>
			<path class="st1" d="M629.5,366.6c0,0,0.7-157.4,0.7-172S620,179,620,179s40.9-18.1,38-55.7c-1.9-23.9-34.6-17.4-38-17.4l0,0
				c-11.3-0.6-25.4-3-33.9,6.8c-2.6,3-3.8,6.7-4.1,10.6c-2.9,37.6,38,55.7,38,55.7s-10.2,1-10.2,15.6s0.7,171.7,0.7,171.7"/>
			<path class="st1" d="M585.4,364.5c-5.2-6.1-2.5-97.5-2.5-97.5"/>
			<path class="st1" d="M582.6,266.9c-7.3,9.5-4.7,82.2,2.2,97.5"/>
			<path class="st1" d="M565.5,279c0,2.6-2.1,4.7-4.7,4.7c-2.6,0-4.7-2.1-4.7-4.7s2.1-4.7,4.7-4.7S565.5,276.4,565.5,279z"/>
			<path class="st1" d="M623.9,242.9c0,2.1-1.7,3.8-3.8,3.8s-3.8-1.7-3.8-3.8s1.7-3.8,3.8-3.8C622.2,239.1,623.9,240.8,623.9,242.9z
				"/>
			<path class="st1" d="M623.9,185.4c0,2.1-1.7,3.8-3.8,3.8s-3.8-1.7-3.8-3.8s1.7-3.8,3.8-3.8C622.2,181.6,623.9,183.3,623.9,185.4z
				"/>
			<path class="st1" d="M623.9,304.2c0,2.1-1.7,3.8-3.8,3.8s-3.8-1.7-3.8-3.8c0-2.1,1.7-3.8,3.8-3.8
				C622.2,300.4,623.9,302.1,623.9,304.2z"/>
			<g>
				<polyline class="st1" points="705.9,124.7 705.9,366.9 618.4,366.9 				"/>
			</g>
		</g>
		<line class="st1" x1="635.1" y1="177.5" x2="635.1" y2="367.1"/>
		<line class="st1" x1="642.9" y1="184.7" x2="642.9" y2="366.9"/>
		<line class="st1" x1="649.5" y1="193.7" x2="649.5" y2="366.9"/>
		<line class="st1" x1="604.4" y1="180.2" x2="604.4" y2="367.1"/>
		<line class="st1" x1="597.6" y1="186.2" x2="597.6" y2="366.9"/>
		<line class="st1" x1="590.1" y1="194.2" x2="590.1" y2="367.9"/>
	</g>
	<g>
		<path class="st1" d="M270.4,423.2c0,0-1.5,44.3,32.8,62.8c0,0,28.2-16.8,24.7-62.7"/>
		<path class="st1" d="M267.1,424c0,0-1.7,46.9,36.2,66.4c0,0,31.2-17.8,27.3-66.3"/>
		<path class="st1" d="M186.4,505c0,0,17.1,12.2,42.3,18.7"/>
		<path class="st1" d="M369.5,523.7c0,0,20.9-4.4,42.4-18.7"/>
		<path class="st1" d="M234.9,513.7v-1.9c0,0-12.6-72.4-3.7-72.4"/>
		<path class="st1" d="M363.2,513.7v-1.9c0,0,12.6-72.4,3.7-72.4"/>
		<path class="st1" d="M303.2,427.4c-18,0.5-32.8-4.2-32.8-4.2l-35.5,15.2c-18.6,3.7-27.9,26.2-27.9,26.2l-22.4,43.9
			c0,0,4.4,6.3,42.1,19.9c0,0,4.9-9.4,8.2-14.6c0,0,5.7,80.3-3,169.2c-0.3,2.7-0.5,5.4-0.8,8.1c0,0,9.8,6.8,72.1,6.8"/>
		<path class="st1" d="M293.4,697.9h1.6c62.3,0,72.1-6.8,72.1-6.8c-0.2-1.8-0.4-3.7-0.6-5.5c-9-89.9-3.3-171.8-3.3-171.8
			c3.3,5.2,8.2,14.6,8.2,14.6c37.7-13.6,42.1-19.9,42.1-19.9l-22.4-43.9c0,0-9.3-22.5-27.9-26.2l-35.5-15.2c0,0-14.8,4.7-32.8,4.2"
			/>
		<path class="st1" d="M232,686.5c0,0,63.7,14.2,135,0"/>
	</g>
	<g>
		<path class="st1" d="M608.4,592.6c0,0,16.6,32,24.7,41.4c9.3,10.8,18.1,40.9,15.9,35.1c0,0,7.1,9.7-21.5,21.4
			c-28.6,11.8-73.9-30.5-84.2-38c-9.9-7.1-15.5-46.4-20.5-47.8l-2.7,1.7c0,0-14.8-19.3-16-28.1c-1.3-8.9-0.7-5.5-1.3-12.7
			c-0.7-7.1-8.1-9.2,6-56.9c3.2-10.9,16.8-4.8,21.8-1.8c0,0,11.6,10.2,11.2,6.2c-3.6-43,10.5-40.4,10.5-40.4s4.5-1.4,15.7,4
			c17.7,8.5,52.4,14.4,52.4,14.4s1.7-0.1,3.1,1.3c38.1,36.9,44.1,36.9,44.1,36.9c83.1,42,71.8,62.3,71.8,62.3s1.5,9.8-14.6,17.1
			c-8.8,4-84.2-8.2-93.4-24.4c-17-29.9-36.1-31-36.1-31s-1.7,5.3-3.3,6.1c-1.7,0.8-3.6,1-3.6,1C587.7,561.4,608.4,592.6,608.4,592.6
			z"/>
		<path class="st1" d="M508.7,509c0,0,0,50,29,40.3s28.7,0.1,31.2,10.9c2.6,10.9,15.8,39.9-6.6,47.1c-22.4,7.2-15.7,9.2-21.8,10.8"
			/>
		<path class="st1" d="M526.7,504.7c0,0,36.2,29.6,42.8,29.6"/>
		<path class="st1" d="M608.4,592.6c0,0-3.1-4.4-12.4-4c-9.2,0.4-16.6-8.5-30.2-44.1"/>
		<path class="st1" d="M620.6,504c0,0,12.3-10.6,10.6-3.7"/>
		<path class="st1" d="M627.9,513.2c0,0,12-9,11.3-6.2"/>
		<path class="st1" d="M634.6,523.1c0,0,15.2-11.5,13.6-7.5"/>
		<path class="st1" d="M641,531.7c0,0,15-10.1,14.5-8.3"/>
		<path class="st1" d="M598.9,503.2c0,0,11.8-15.7,14.2-11.7c1.5,2.4,2.8,2.8,2.8,2.8"/>
		<path class="st1" d="M635.8,510.4c0,0,18.8,23.6,27.3,22.1c5.6-1,4.7-2.2,7.5-1.7"/>
		<line class="st1" x1="615.7" y1="551.6" x2="631.2" y2="563.2"/>
		<path class="st1" d="M619.2,546.1c0,0-15.4-15.6-35.1-16.1c-4.8-0.1-10.5,5.5-10.5,5.5"/>
		<path class="st1" d="M537.5,548.8c0,0,12.3-20.7,29.7-14.8"/>
		<path class="st1" d="M546.7,547c0,0,12.9,35.2,0,44.7c-2.8,2.2-6.9,6.4-13.3,10.7"/>
		<line class="st1" x1="519.4" y1="605.7" x2="518.8" y2="592.4"/>
		<path class="st1" d="M569.8,534.4c0,0-6.2,0.5-4,10.1"/>
		<path class="st1" d="M568.1,533.9c0,0,3.4-0.5,4.6,0c1.3,0.6,10.9,23,15.5,26.5"/>
		<path class="st1" d="M544.7,478.4c0,0-4,4.1,6.9,13.4c10.8,9.1,27.9,26.7,46.5,12c18.7-14.8,27.4-12.8,39,9.1
			c11.6,22,17.5,20.6,7.7,31.7c-9.8,11.2-13.8,18.7-13.8,18.7"/>
		<path class="st1" d="M564,502c0,0,17.7-1.6,28.7,5"/>
		<path class="st1" d="M605.7,498.4c0,0,25.8,27.7,18.8,39.4c-7.1,11.7-8.7,13.8-8.7,13.8"/>
		<path class="st1" d="M578.6,545.3c0,0,17.2,2.5,26.2,10.9"/>
		<path class="st1" d="M515.9,540.1c0,0,20.2-2.3,28.8,0"/>
		<path class="st1" d="M502.6,565.4c0,0,21.3,31.8,21.2,39.8"/>
		<line class="st1" x1="540.7" y1="618" x2="533.9" y2="602.6"/>
		<path class="st1" d="M509.2,575.6c0,0,8.2-11.4,20.5,4.9c12.4,16.2,11.1,16,11.1,16"/>
		<path class="st1" d="M565.9,590.6c0,0,20.2-13.7,23.4-12.8"/>
		<path class="st1" d="M563.8,578.5c0,0,15.4-12.3,20.3-10.6"/>
		<path class="st1" d="M559.8,566.8c0,0,13.8-11.8,18-11.2"/>
		<path class="st1" d="M556.7,554.4c0,0,16.3-6.2,17.3-9.5"/>
	</g>
</g>
<path class="st1" d="M1165.8,418.1l1.4,4.7l2.4,20.1l0.6,19.9l-0.4,19.1l-1.4,18.5l0.8,19l0.1,17.9l1.8,16.7c0,0-0.2,17.7,0,17.9
	s0,17.8,0,17.8l0.1,16.5l1.6,14.7l-0.5,16.7l1.1,9.5l1.6,3.8v1"/>
<g>
	<path class="st1" d="M1132.4,176.1v-11.2c0,0,3.3-6,3.9-10s1.8-8.6,2.8-15.2c0.7-4.7-0.3-18.9-1-27c-0.3-3.9-2.1-7.5-4.9-10.3
		c-3.5-3.4-8.4-7.4-12-7.6c-6.3-0.3-14.4-0.3-16.4,0"/>
	<path class="st1" d="M1093.5,176v-11.2c0,0-3.3-6-3.9-10c-0.6-4.1-1.8-8.6-2.8-15.2c-0.7-4.7,0.3-18.9,1-27
		c0.3-3.9,2.1-7.5,4.9-10.3c3.5-3.4,8.4-7.4,12-7.6"/>
	<path class="st1" d="M1132.3,165.1c0,0-5.3,2.5-12.3,5.8s-15.6-1-15.6-1c-4.8-1.8-10.9-5.1-10.9-5.1"/>
	<path class="st1" d="M1134.8,198.4l-0.2,1l-5.6,18.3l-5.5,16.9c0,0-5.5,15-5.6,14.9c-0.1,0-7.8-20.3-12.9-29.1
		c-5.1-8.9-11.2-25.6-11.5-27.2c0,0-1.8-5.1-2-7.7c-0.2-2.5,0.3-4.9,0.3-4.9s-0.4,0-2.8,4.6s-7.5,6.9-7.5,6.9s-18.8,10-19.9,10.1
		s-19.1,4.4-19.1,4.4s-0.9-0.3-2.6,5.7s-14,44.1-14,44.4s-11.1,49.4-11.1,49.4c0.2-0.2-5.2,17.2,2,23.3c7.3,6.2,18,10.2,18,10.2
		l2.3,0.4c0,0,0.1-1,0.2-0.9c0.1,0,3,1.7,3.1,1.7s3.4,0.6,4.7-0.2s1.4-0.8,1.4-0.8s-5.2,1.9-6.9-0.5s-4.8-19.1-4.8-19.1
		s0.2-9.9,2.4-12c2.2-2.1,4.2-3.6,7.1-3.5l1.1,0.5c0,0,0.1,0-1.1-0.2c0,0-0.3,0.2-2.3,1.5c-2,1.2-2.2,8.3-2.5,12.3s0.2,7.6,0.2,7.6
		l6.9,13.6v0.1l-4.6,8.6l26.2-45l12.1-29.7l-9,15.4"/>
	<polyline class="st1" points="1096.2,281.4 1078.6,234.4 1071.4,208.8 1069.4,198.7 1069.4,198.4 1093.9,196.5 	"/>
	<path class="st1" d="M1176.3,325.5l-0.3-6.6l-5-24.5c0,0-1.2,25.1,0.4,28.5"/>
	<path class="st1" d="M1050.2,353.4c-0.1,0.2-2.2,28-2.2,28l-4.3,32.6c0,0-0.2,1.2,2.3,1.4c2.5,0.2,27.5,4.8,27.5,4.8
		s13.8,1.1,18.7-7.7s10-30,10-30"/>
	<path class="st1" d="M1136,401.5c0,0,2.8,22.4,23.2,18c20.4-4.4,26.4-7.3,26.4-7.3s1,0.3-0.4-6.5s-3.7-27.1-3.7-27.1"/>
	<polyline class="st1" points="1098.7,232 1116.9,251.6 1117.3,252 	"/>
	<path class="st1" d="M1131.7,237.9c-0.1,0.1-9.8,11.6-11.1,13.2c-0.1,0.1-0.2,0.2-0.3,0.3c-0.7,0.5-3.3,2.4-4.2,6.8
		c-1,5.1-2,17.1-1.9,25.2s0.1,8.1,0.1,8.1"/>
	<line class="st1" x1="1117.9" y1="249.6" x2="1115.8" y2="259.2"/>
	<path class="st1" d="M1126.2,297.8c0,0,1.5-22,2.2-27.7s1.6-16.6,1.6-16.6s2-17.6,2-17.9s2.5-32.4,2.5-32.4l0.4-9
		c0,0,1.3-8.3,0.2-10.7c-1.1-2.3-0.9-2.4-0.9-2.4c1.2,0.9,2.4,6,13.3,12.1c11,6.1,28.7,12.1,29.9,12.2c1.2,0.1,4,0,4,0
		s2-0.1,3.7,4.1c1.7,4.2,7,17.4,7,17.4s3.4,7.9,3.5,8.1c0.1,0.2,0.6,11.8,0.6,11.8l1.7,21.6l4.1,24.6l2.6,16.3c0,0,3.2,12,3.2,12.4
		s-0.7,17.2-0.7,17.2l-0.5,10.7l-3.2,15.4l-0.9,4.1l-0.5,0.8l-8.4,2.8l-1.4-0.1l-2.7-0.2l-3.5-1.6"/>
	<polyline class="st1" points="1093.6,193.9 1097.1,220.3 1101,248.9 1105.7,287.1 	"/>
	<path class="st1" d="M1049.2,416l-2.1,27.2v45.6l-6.2,64l-6,50.4l2,40.3l-2,11.7c0,0,1.7,4.5,7.1,4.5s12.1,2.5,17.1,1.3
		c5.1-1.3,5.8-2,5.8-2l3.5-17.2l5.9-35.6l6.4-51.3l14-57.6l11.4-48.5l5.4-13.7c0,0,2.6-3.8,5,0c2.4,3.9,7.7,25.3,7.7,25.3l5.9,25.2
		l7.6,44.3l4.4,47l5.7,51.7l5.5,23.3l0.3,1.2c0,0,7.6,0.8,10.7,0.8s3.8,1,7.5-0.4c3.8-1.5,9.9-5.5,9.9-5.5l3.1-0.3l-1.2-20.6
		l-2.9-74.2l-3.2-46.7l2.3-51.9l0.3-40.1"/>
	<path class="st1" d="M1091.8,180.7c0,0,0.9-3.6,0.9-3.7c0-0.1,0.7-1.2,0.8-1.3c0.2,0-0.5,1.4,1.4,3.4s9.9,6.8,9.9,6.8
		s6.9,4.7,7.9,5.8l0.4,0.4c0,0-6.2,0.3-8.5,2.8c0,0-7.8,5.8-7.9,6.9"/>
	<path class="st1" d="M1134.3,181.1l-1.9-5c0,0-0.4,1.7-1.7,2.6c-1.3,0.9-8.3,7-8.3,7l-6.5,5.8c0,0,7.6,1.5,10.4,3.5
		c2.7,2.1,6.8,5.4,7.2,6.4c0.4,1,0.3,0.6,0.3,0.6"/>
	<path class="st1" d="M1080.2,273.9l110.3,59.8c0,0,1,0.1,0.6,2.3c-0.4,2.2-5.2,33.7-5.2,33.7l-28.1,43c0,0,0.8,1.4-5-1.9
		s-110.9-62.3-110.9-62.3"/>
	<line class="st1" x1="1068.1" y1="303.6" x2="1185.9" y2="369.6"/>
	<line class="st1" x1="1074.9" y1="286.8" x2="1188.8" y2="350.6"/>
	<path class="st1" d="M1189.2,350.3"/>
	<path class="st1" d="M1134.8,203.1"/>
	<path class="st1" d="M1134.8,199.2c0.8-0.1,25.3,0,25.3,0l-3.7,21.3l-8,29.8l-7,20.8l-10.8,29.3"/>
	<path class="st1" d="M1046.6,208.3c0,0,2.3,5.3,2.3,6.6s2.4,12.6,2.4,12.6l0.7,0.3l1.8,12.3l1.7,10l0.4,37.4"/>
	<path class="st1" d="M1013.4,323.1"/>
	<path class="st1" d="M1032.9,338.9c-0.2-0.1-2.8-6.4-2.8-6.4s-2.3-12.3-1-14.6c1.3-2.3,1.9-9.4,4.8-10.2s3.6-1.3,3.8-1.3
		c0.3,0,1.7-0.2,1.7-0.2"/>
	<path class="st1" d="M1048.8,300"/>
	<path class="st1" d="M1102.9,195.9c0,0,7.6,1.9,8.3,9.9c0,0,3.3,1,6.5,0.1l0.2-0.1c0.8-8.7,8.3-10.8,8.3-10.8"/>
	<g>
		<g>
			<g>
				<path class="st2" d="M1094.1,354.9c-1-0.1-2.9-0.5-5-1.7c-2-1.2-3.6-2.7-4.2-5.2c-0.5-2,0-4.6,1.5-7.2c2.7-4.4,7.8-6.5,13-3.5
					c1.6,0.9,2.7,2.1,3.1,2.8l-0.9,0.7c-0.6-0.9-1.4-1.7-2.9-2.6c-4.2-2.4-8.5-1.1-11.2,3.2c-2.7,4.5-1.8,8.6,2.2,10.9
					c1.6,0.9,2.8,1.3,3.6,1.3l3.4-5.6l-3.6-2l0.6-0.9l4.7,2.7L1094.1,354.9z"/>
			</g>
			<g>
				<path class="st2" d="M1108.9,353.7l-6.1-3.5l-4.2,6.9l6.9,3.9l-0.6,0.9l-8-4.6l9.7-15.8l7.6,4.4l-0.6,0.9l-6.5-3.7l-3.7,6.1
					l6.1,3.5L1108.9,353.7z"/>
			</g>
			<g>
				<path class="st2" d="M1107.5,363.5l9.7-15.8l1,0.6l0.3,12.8c0.1,2.7,0,4.7-0.1,6.6h0.1c1.1-2.2,2.2-4,3.7-6.5l4.8-7.9l1,0.6
					l-9.7,15.8l-1-0.6l-0.2-12.6c0-2.5-0.1-4.7,0.1-6.8h-0.1c-1.1,2-2.1,3.7-3.7,6.4l-4.9,8L1107.5,363.5z"/>
			</g>
			<g>
				<path class="st2" d="M1134,358.6l-5-2.9l0.6-0.9l11.1,6.4l-0.6,0.9l-5-2.9l-9.1,14.9l-1.1-0.6L1134,358.6z"/>
			</g>
			<g>
				<path class="st2" d="M1133.1,375.9c0.5,1.1,1.4,2.2,2.7,3c2.3,1.3,4.5,0.8,5.7-1.2c1.1-1.8,0.8-3.3-0.9-5.5
					c-1.9-2.3-2.6-4.5-1.3-6.6c1.4-2.3,4.3-3,6.9-1.4c1.4,0.8,2.3,1.8,2.6,2.5l-1,0.7c-0.2-0.5-0.9-1.6-2.3-2.3
					c-2.5-1.4-4.3-0.3-5.1,1c-1.1,1.7-0.6,3.2,1,5.4c1.9,2.5,2.5,4.5,1.1,6.8s-4.2,3.4-7.5,1.5c-1.3-0.8-2.6-2.1-3-3.2L1133.1,375.9
					z"/>
			</g>
		</g>
		<g>
			<g>
				<path class="st2" d="M1096.4,365.5c0.1,0.3,0.3,0.5,0.6,0.7c0.5,0.3,1.1,0.2,1.3-0.3c0.2-0.4,0.2-0.8-0.2-1.3
					c-0.4-0.5-0.6-1-0.3-1.5c0.3-0.5,1-0.7,1.6-0.3c0.3,0.2,0.5,0.4,0.6,0.6l-0.2,0.2c-0.1-0.1-0.2-0.4-0.5-0.5
					c-0.6-0.3-1-0.1-1.2,0.2c-0.2,0.4-0.1,0.7,0.2,1.2c0.4,0.6,0.6,1,0.2,1.6c-0.3,0.5-1,0.8-1.7,0.4c-0.3-0.2-0.6-0.5-0.7-0.7
					L1096.4,365.5z"/>
			</g>
			<g>
				<path class="st2" d="M1101.2,363.8l-1.4,2.2c-0.6,0.9-0.4,1.5,0.2,1.8s1.2,0.2,1.8-0.7l1.4-2.2l0.3,0.1l-1.3,2.2
					c-0.7,1.1-1.5,1.2-2.2,0.8c-0.6-0.4-1-1.1-0.3-2.2l1.4-2.2L1101.2,363.8z"/>
			</g>
			<g>
				<path class="st2" d="M1104.5,365.7l-2.2,3.7l-0.3-0.1l2.2-3.7L1104.5,365.7z"/>
			</g>
			<g>
				<path class="st2" d="M1105.9,366.8l-1.2-0.7l0.1-0.2l2.6,1.5l-0.1,0.2l-1.2-0.7l-2.1,3.5l-0.3-0.1L1105.9,366.8z"/>
			</g>
			<g>
				<path class="st2" d="M1105.7,370.9c0.1,0.3,0.3,0.5,0.6,0.7c0.5,0.3,1.1,0.2,1.3-0.3c0.2-0.4,0.2-0.8-0.2-1.3
					c-0.4-0.5-0.6-1-0.3-1.5c0.3-0.5,1-0.7,1.6-0.3c0.3,0.2,0.5,0.4,0.6,0.6l-0.2,0.2c-0.1-0.1-0.2-0.4-0.5-0.5
					c-0.6-0.3-1-0.1-1.2,0.2c-0.2,0.4-0.1,0.7,0.2,1.2c0.4,0.6,0.6,1,0.2,1.6c-0.3,0.5-1,0.8-1.7,0.4c-0.3-0.2-0.6-0.5-0.7-0.7
					L1105.7,370.9z"/>
			</g>
			<g>
				<path class="st2" d="M1109.7,373.7l1-1.6l0.1-2.7l0.3,0.2l-0.1,1.4c0,0.4,0,0.7-0.1,1l0,0c0.3-0.2,0.6-0.4,0.9-0.6l1.3-0.7
					l0.3,0.2l-2.5,1.4l-1,1.6L1109.7,373.7z"/>
			</g>
			<g>
				<path class="st2" d="M1112.7,375.5c-0.9-0.5-1.1-1.6-0.4-2.8c0.7-1.2,1.9-1.5,2.8-1s1.1,1.6,0.4,2.8
					C1114.7,375.8,1113.6,376,1112.7,375.5L1112.7,375.5z M1112.9,375.3c0.8,0.5,1.8,0,2.4-0.9c0.5-0.8,0.6-1.9-0.3-2.4
					s-1.8,0.1-2.4,0.9C1112.1,373.7,1112,374.8,1112.9,375.3L1112.9,375.3z"/>
			</g>
			<g>
				<path class="st2" d="M1117.5,373.2l-1.4,2.2c-0.6,0.9-0.4,1.5,0.2,1.8s1.2,0.2,1.8-0.7l1.4-2.2l0.3,0.1l-1.3,2.2
					c-0.7,1.1-1.5,1.2-2.2,0.8c-0.6-0.4-1-1.1-0.3-2.2l1.4-2.2L1117.5,373.2z"/>
			</g>
		</g>
		<g>
			<polygon class="st2" points="1095.8,363.5 1078.6,353.6 1078.9,353.1 1096.1,363 			"/>
		</g>
		<g>
			<polygon class="st2" points="1136.9,387.1 1119.7,377.2 1120,376.7 1137.3,386.6 			"/>
		</g>
	</g>
	<path class="st1" d="M1134.6,202.8c0,0,6.2,3.1,6.3,3.2c0.2,0.1,13.7,4.5,13.7,4.5l3.4,1.2"/>
	<path class="st1" d="M1133.2,220.3c0,0,1.3,0,3.6,1.4c2.3,1.4,11.9,4.6,13.4,4.9c1.5,0.2,4.3,1.1,4.3,1.1"/>
	<path class="st1" d="M1131.7,237.9c0,0,1.3,0.5,1.7,0.8s5,2.6,7.4,3.3s5,1.8,5,1.8l4,1.3"/>
	<path class="st1" d="M1129.5,257.7c0,0,9.3,2.3,11.2,4.2c2,1.9,3.3,1.3,3.3,1.3"/>
	<path class="st1" d="M1138.5,279.1c0,0.1-1.3,0.8-1.7,0.7c-0.4-0.1-8.3-3.4-9.1-2"/>
	<path class="st1" d="M1038.8,215.6c0,0,2.3,0.8,3.6,0.8c1.4,0.1,6.2,0.6,6.9,1.2"/>
	<path class="st1" d="M1031.8,237.6c0,0,2.3-0.8,6.4-0.8c0,0,6.6-0.3,10.8,0.7s4.5,1.2,4.5,1.2"/>
	<path class="st1" d="M1049.8,220.2c0,0,5.8-1.1,10.4-0.7c4.5,0.4,6,0.3,6,0.3l7.5-2.2l0.2-0.1"/>
	<path class="st1" d="M1053.8,240.3c0,0,4.1-1.3,4.3-1.3c0.2,0,3.6-0.2,5.8-1.3c2.2-1,6.5-0.2,6.5-0.2s4.3,0.3,4.4,0.2s5-0.2,5-0.2"
		/>
	<path class="st1" d="M1057.4,259.4c0,0,2.1-1.5,10.7-2c8.5-0.5,13.6-0.4,13.6-0.4h5.1"/>
	<path class="st1" d="M1090.3,279.4c0,0,3.2-0.3,5.1,0"/>
	<path class="st1" d="M1050,359.4c0.2,0,2-0.1,5.4,0.6s6.1-0.6,6.1-0.6"/>
	<path class="st1" d="M1048.2,378.9c0,0,2.6,0.2,3.7,0.8c1.1,0.6,10.4,0.2,10.4,0.2l12.9,0.7l12.1,0.2h12.2"/>
	<path class="st1" d="M1045.6,399.2c0.2,0.1,1.4,0.1,4.8,0.4s10.5,0.8,10.5,0.8s10.2,0.7,12.3,0.8c2.1,0.1,11.7,0.4,11.9,0.3
		s11.6,0.4,11.6,0.4"/>
	<path class="st1" d="M1137,406c0,0,3.3,0,6.2-0.6"/>
	<path class="st1" d="M1164.9,401.8l5.2-0.7l7.8-1.5c0,0,6-1.8,5.9-2.6"/>
	<path class="st1" d="M1036.6,304.4c0,0-6.3-0.4-8.8,0.4s-9,4.6-9.2,5.4s-2.4,9.1-2.6,11c-0.3,1.9-0.6,6.8-0.5,7.5"/>
	<path class="st1" d="M1130.7,300.4c0.1,0,10.7-0.3,10.7-0.3l11.3-0.4l8.2-0.5h8.1l2,0.5"/>
	<path class="st1" d="M1138.5,279.4c0.1,0,12.8-0.6,12.8-0.6l10.3-0.1l8.1,0.1h2.3"/>
	<path class="st1" d="M1145.7,258.4c0.2,0,3.1-0.1,3.1-0.1l12.9-0.2l9.8,0.1l1.2,0.4l1,0.2"/>
	<polyline class="st1" points="1168.2,237.1 1171.3,237.4 1176.1,237.9 	"/>
	<path class="st1" d="M1156.8,219.4c0,0,10.9-0.3,10.9-0.4l10.4-0.9"/>
	<polyline class="st1" points="1159.3,204 1162.6,204.2 1175.6,204.8 	"/>
	<path class="st1" d="M1176.7,236.9c0,0,1.8-0.7,3.8-1.2c2-0.6,9.9-0.8,9.9-0.8s5.3,1.5,5.3,2"/>
	<path class="st1" d="M1197,255.7c-0.2-0.1-4.7-0.2-4.7-0.2s-6.9,0.3-8.4,0.4c-1.5,0.1-9.7,3.6-9.9,3.6h-0.2"/>
	<path class="st1" d="M1174,279.9c0,0,7.1-2.6,12.3-3.4c5.3-0.8,9.8-1.3,9.8-1.3l3.1,0.4"/>
	<path class="st1" d="M1178.1,299.5c0,0,5.7-2.3,9.9-2.8"/>
	<path class="st1" d="M1187.9,296.7c3.9-1.2,12.1-2.2,12.1-2.2s1.4-0.3,2.3,0"/>
	<path class="st1" d="M1207.6,328.7c0,0-1.3-2.1-3-3.6s-5.4-3.3-5.4-3.3s-6.2-0.7-8.3,0c-2,0.7-8.4,1.6-8.4,1.6s-6,0.9-6.2,1.1"/>
	<path class="st1" d="M1207.2,338.2c0-0.1-2.9-3.8-6.8-5.1c-3.9-1.3-10.4-2-10.4-2h-4.6"/>
	<path class="st1" d="M1205.6,354.8c0-0.1-0.7-6.2-3.1-8.9s-4.4-6-12-6"/>
	<path class="st1" d="M1176.2,318.7c0.4-0.5,3.6-1.1,5.2-2.6c1.5-1.5,1.1-0.1,5.5-1.9c4.4-1.7,5.1-2.2,5.1-2.2s2.8,0.5,6.1-0.9
		s3.9-2.3,3.9-2.3s1.5,3.1,2.6,3.4l1.1,0.5"/>
	<path class="st1" d="M1072.2,211.5c0.4-0.2,4-1.5,4-1.5s8.5-3.6,10.6-4.5s2.1-0.9,2.1-0.9s5.1-2.2,5.5-2s0.4,0.2,0.4,0.2"/>
	<path class="st1" d="M1097.1,220.3c0,0,0.3-1.1-3.5,1c-3.8,2-12.6,5.4-12.6,5.4l-4.2,1.2"/>
	<path class="st1" d="M1083,246.1l2.9-1.7c0,0,12.8-5.9,13.2-6.5c0.4-0.6,0.4-0.6,0.4-0.6"/>
	<path class="st1" d="M1089.6,263.6l2.3-1.7c0,0,6-4.2,10.2-4.2"/>
	<path class="st1" d="M1095.8,281c0.4-0.2,1.8-1,1.8-1s3.1-2.7,6.9-2.5"/>
	<polyline class="st1" points="1055.7,356.2 1055.1,359.8 1052.3,379.9 1050.4,399.6 1049.6,415.9 	"/>
	<polyline class="st1" points="1059.8,417.7 1060.6,400.2 1062.6,380 1063.9,360.8 	"/>
	<path class="st1" d="M1075.4,367.3l-0.5,13.4l-1.7,20.5l-2,18.6"/>
	<path class="st1" d="M1083.9,418.9l1.2-17.5l2.3-20.5c0.1,0,0.5-6.7,0.5-6.7s61,34.1,61,34.3"/>
	<path class="st1" d="M1178.5,216c0.1-0.1,3.6-1.6,7.3-0.8c0,0,1.2,0.2,2,0.5"/>
	<path class="st1" d="M1013.4,312.6c0.2-1,0.2-7.7,4.7-9.4c4.5-1.8,5.8-1.4,5.8-1.4l13,1.3c0,0,0.1,0.4,8.3,2c0.2,0,9.3-7.9,9.3-7.9
		"/>
	<polyline class="st1" points="1094.9,406.7 1099.9,406.7 1114.3,408.1 1122.2,409.3 1136,408 1137.3,407.4 	"/>
	<path class="st1" d="M1175.7,420.5l-8.5,2.2l-12.7,2.3l-14,1.9c0,0-14.6,0.8-14.7,0.7c0-0.1-10.2-1-10.5-1.2s-7.2,0.7-7.2,0.7H1094
		l-14.4-1.9c0,0-13.7-1.7-14.3-1.7s-10.8-1.8-10.8-1.8l-5.8-1.9"/>
	<path class="st1" d="M1047.4,439.9l3.7,1.4l10.2,2.4l14.3,1.6c0,0,13.9,1,14.3,1c0.3,0,13-1.3,13-1.3l5.2-1.1"/>
	<polyline class="st1" points="1103.1,461.8 1098.2,462.8 1086.6,464.6 1073,464.6 1059.3,463 1050.4,460 1046.9,457.8 	"/>
	<path class="st1" d="M1047.1,477.3l2.3,2.5l8.6,2.7c0,0,12.1,1.4,12.4,1.5s13.4-0.3,13.4-0.3l11-2.6l4-1"/>
	<path class="st1" d="M1093.8,501.3c0,0-2.4-0.7-2.4-0.5c0,0.1-9,1.8-9,1.8l-12.9,0.4c0,0-7.7,0.5-12.2-1.5
		c-4.5-2.1-7.4-3.4-7.4-3.4l-3.4-1.3"/>
	<path class="st1" d="M1089.4,519.4c0,0-0.8,0.2-0.9,0.3s-4.9-0.2-8.7,0.9c-3.8,1-12.6,0.8-12.6,0.8s-6.7,0.9-12-1.4
		c-5.3-2.3-6.5-4-6.5-4s-3.7-1.8-3.8-3"/>
	<path class="st1" d="M1042.9,532.2c0,0,4,1.8,4,2s6.7,4.1,6.6,4.5s2.1,0.7,5.2,0.4s6.1,0.4,6.1,0.4s9.2,0.8,12.2-0.3
		c2.9-1.1,6.7-1.1,7.7-0.7"/>
	<path class="st1" d="M1041.1,550.8l1.8,1.1l6.7,3.9c0,0,2.2,1.3,4.8,1.4c2.6,0.1,7.1,0.8,7.1,0.8s5.6-0.7,7.8-0.9s4.8,0.2,4.8,0.2
		s5.6,0,6.1-0.7"/>
	<path class="st1" d="M1038.9,569.8l1.4,0.7l7.1,3.3c0,0,1,2.4,3.8,1.8s6.8-0.6,6.8-0.6s6.4,1.1,9.1,1.1s4.7-0.3,4.7-0.3
		s5.8-0.2,6.4-1"/>
	<path class="st1" d="M1036.8,587.7l0.4,0.2c0,0,5.8,4.3,7.5,5c1.8,0.7,11.6,1.7,11.6,1.7l12-1.2c0,0,7.6-1,7.7-1"/>
	<path class="st1" d="M1035,604.2c0.7,0.2,6.2,3.7,6.2,3.6c0-0.1,10.3,3,11,2.7s12.9,0,12.9,0l8.6,0.6"/>
	<path class="st1" d="M1036.1,626.3l2.1,0.8l12,0.7c0,0,7.1-1.6,12-0.8c4.9,0.9,8.6,0.8,8.6,0.8"/>
	<path class="st1" d="M1068.6,641.3c0,0-8.7-0.5-9.2-0.5s-11.8-1.4-12.5-1.5s-8.4,1.7-8.6,1.8c-0.3,0.1-1.3,2-1.3,2"/>
	<path class="st1" d="M1035.1,654h0.3c0,0,6.4,3.7,8.6,3.4s10.4,3,14.1,2s7.1-1.2,7.1-1.2"/>
	<path class="st1" d="M1119.2,441.8c0,0,4.2,3.5,9.3,4c5.1,0.5,14.2,0,14.2,0s13-1.1,13.8-1.3c0.8-0.2,13.2-1.5,13.2-1.5l8.3-3.1
		l2-0.8"/>
	<path class="st1" d="M1124.3,460.4c0.1,0.3,2,2.4,6.2,3.3c4.2,0.8,12.9,1,12.9,1l13.9-1.3c0,0,8.7,0.2,12.9-0.8
		c4.2-1.1,8.3-3.2,8.3-3.2l1.2-0.5"/>
	<path class="st1" d="M1129,480.7l2.9,0.1l11.8,1.6l13.7,0.6c0,0,5.4,0.4,12.6-1.8c7.2-2.1,8.9-2.9,8.9-2.9"/>
	<path class="st1" d="M1132.2,497.4c0,0,0.4,0.4,1.3,0.8s11.6,2.6,11.6,2.6s10.1,1.3,12.7,1c2.6-0.4,6.5,0.3,10.6-1.3
		c4.1-1.6,9.5-4.1,9.5-4.1"/>
	<path class="st1" d="M1135.6,516.4c0,0,1.9,1.4,10.4,2c8.4,0.6,13,0.6,13,0.6s5.7,1.7,10.2,0s8.6-2.7,8.6-2.7l0.7-0.2"/>
	<path class="st1" d="M1138.1,533.4c0,0,4.2,0.4,6.4,1.5s2.4,1.2,2.4,1.2s2.8,1.1,7.9,0.6s5.6-0.6,5.6-0.6s5.7,1.7,6.2,2.8
		s2.8-1.8,2.8-1.8l7.2-4.5l2.8-1.4"/>
	<path class="st1" d="M1139.7,550.5c0,0,3.9,3.4,7.8,2.6s13.6,1.2,13.6,1.2s4.9,1.8,6.6,1.2s3.5-1.3,3.5-1.3l7.4-3.8l2-1.6"/>
	<path class="st1" d="M1141.4,567.9c0,0.2,2.7,1.1,2.7,1.1l5,1.3l9.7,2.8c0,0,7.3,1.3,8.5,0.7s3.8-2.2,3.8-2.2l7.4-3.1l2.9-1"/>
	<path class="st1" d="M1143.4,588.1c0,0.1,3.4,1.7,3.4,1.7l1.2,0.3c0,0,7.3,1.9,11,0.3c3.7-1.6,5.9,0.8,6.4,1s3.6-1.6,3.6-1.6
		l2.1-0.6l7.4-2l3.6-0.5"/>
	<path class="st1" d="M1145.7,608c0.2-0.1,2.7-0.5,2.7-0.5l10.3-0.8c0,0,3.6-0.5,6,1.7s6.5-1.7,6.5-1.7s7.7-0.4,8.9-1.8
		c1.1-1.4,2.6-3.8,2.6-3.8"/>
	<path class="st1" d="M1147.2,621.6h3c0,0,11.2,0.9,11.4,0.8c0.2,0,9.7-0.6,11.3-1.4c1.7-0.8,6.2,0,7.9-1c1.7-0.9,2.6-1.1,2.6-1.1"
		/>
	<path class="st1" d="M1149.5,635.1l2,0.4c0,0,7.6,0.6,10.2-0.6c2.6-1.2,10.8-1.6,10.8-1.6l9.1-1.4l2.5,0.3"/>
	<path class="st1" d="M1153.4,651.9c0,0,5.7-0.5,8.3-1.6c2.6-1.2,11.7-3.3,11.7-3.3l9.6-1.7l1.8,0.5"/>
	<path class="st1" d="M1098.6,231.4c0.2-0.5,6.2-6.2,6.2-6.2l1.8-1.3"/>
	<path class="st1" d="M1110.8,245.1c-0.1-0.1,4.1-2.7,4.1-2.7"/>
	<path class="st1" d="M1120.1,243.7c-0.1,0.2,4.4,2.3,4.4,2.3"/>
	<path class="st1" d="M1126.3,226c0.4,0.1,2,1.3,2,1.3s4.2,3,4.1,4.1"/>
	<path class="st1" d="M1131.5,209.3c0.2,0.1,2.4,1.1,2.4,1.6"/>
	<path class="st1" d="M1095.8,210.5c0-0.1,2.8-4,2.8-3.2"/>
	<path class="st1" d="M1104.8,280.1c0,0,5.7-0.9,7.1-0.2c1.4,0.7,2.2,0.2,2.2,0.2"/>
	<path class="st1" d="M1102.4,260.3c0,0,4.5-2,8.9-0.3s4.2,1,4.2,1"/>
	<path class="st1" d="M1099.9,240.7c0,0,5.5-0.9,6.6-0.3"/>
	<polyline class="st1" points="1101.4,386.4 1103.4,386.6 1111.9,387.7 	"/>
	<path class="st1" d="M1055.7,281.6c0,0,2.6-1.3,4.1-1.6c0,0,3.8-1.8,8.9-1.8s1.3-0.4,8.7,0.3"/>
	<path class="st1" d="M1045.3,305"/>
	<path class="st1" d="M1057.8,312.6"/>
	<path class="st1" d="M1044.9,305"/>
	<path class="st1" d="M1050.3,315.2c0,0-0.6-0.4,3.6,0.7s6.3-0.5,7.2-3c0.9-2.4-2.8-3-8.2-4c-0.2,0-0.5-0.1-0.7-0.1
		s-0.3-0.1-0.5-0.1s-0.4,0-0.5,0c-4.4-0.1-1.3,5.5-1.3,6.4c0,0.5-1.5,3.6-1.5,3.6s-7.3,2.3-5.4,6s6.1,8,6.7,7.9c0,0,1.6,0.4,1.7-2.6
		s-0.1-2.2-2.3-4.5s-3-4.5-3-4.5"/>
	<path class="st1" d="M1050.5,326.3c0-0.2,2.1-2.4,3-4.1s1.5-6.1,1.5-6.1"/>
	<path class="st1" d="M1053.9,305.8c1.4,0.2,4.4,1,5.2,1.3c0.8,0.3,3.1,0.3,3.1,0.3s7.9-2.7-0.1-6.4l-6.2-0.9c0,0-6.9,2.4-2.8,5.3
		c0,0,1,2.1,0.6,3.6"/>
	<path class="st1" d="M1058.6,306.9c-1.2,0.8-1.8,2.1-1.8,2.3c0,0.1,0,0.5,0,0.5"/>
	<path class="st1" d="M1064,670.6c0,0.1-1.4,2-4.6,3.2s-6.6,6.3-6.6,6.3l-1.8,2.1c0,0,2.8,0.6,3.5,0.6s7.6-4.2,8.7-5s1-3,1-3
		l-0.3-4.3c2.3-6.8,0.6-11.2,0.6-11.2"/>
	<path class="st1" d="M1050,687.4c0,0-1.4,5.2-8.4,6.5s-15.2,2.1-23,0.4l-0.6-1.1c0,0-0.6,3.1,1.2,3.5s7.5,1.2,9.6,1.2
		s10.4-0.4,10.6-0.5s5.2-1.3,7.1-2.8s3.6-3,3.7-4.1C1050.3,689.5,1050,687.4,1050,687.4z"/>
	<path class="st1" d="M1050,687.5c0,0,0.7-5.3,1-5.3"/>
	<path class="st1" d="M1018,693.2c0,0-0.5-3.2-0.4-5.4s0.9-6,3.4-8.1c2.5-2,6.9-7.3,8.2-9.6c1.4-2.3,3-4.8,3-5s2.8-7.3,2.8-7.3
		l0.6-1.5"/>
	<path class="st1" d="M1167.5,676c0,0-7.6-0.9-10.8-2.8c-3.2-1.9-3.6-1.7-3.5-2.7c0-1,0-6.1,0-6.1c0.1-0.1,10.1,5.4,14.7,6.6
		l4.5,3.7C1172.3,674.7,1167.7,676,1167.5,676l0.2-4.9"/>
	<line class="st1" x1="1054.6" y1="682.8" x2="1054.2" y2="678.4"/>
	<path class="st1" d="M1172.3,674.7c0,0,2.8,1,4.8,5.3s16.5,6,16.9,6s8.7,1.1,11.6,0.5s6.3-0.8,7-1.9c0.7-1.1,0.7-2.6,0.7-3.2
		s-3.6-5.4-3.9-5.7s-1.3-3-6.9-6.5S1191,659,1191,659s-5.8-7.9-7.3-11.2"/>
	<path class="st1" d="M1176.2,678.6c0,0.1,1.4,5.4,4.7,6.5c3.4,1.1,15,4.1,18.5,3.9s10.4-1.1,12-1.7s2.1-1.3,2.2-1.4
		c0.1-0.1,0.8-1.3-0.4-4.6"/>
	<path class="st1" d="M1153.1,664.5c0,0-1-1.9-0.5-5.1c0.4-3.1,1-7,1-7"/>
	<path class="st1" d="M1115.8,191.5c-0.1,0-1.4,1.3-2.8,0.7"/>
	<path class="st1" d="M1148.9,248.5l20-5c0,0,1,0,0.2-3.2s-1.1-3.7-1.1-3.7l-8.8,2.5l-8.3,1.9"/>
	<path class="st1" d="M1151.5,240.9"/>
	<path class="st1" d="M1167.4,236.8c0-0.4,0.3-2.4,0.3-2.4s-0.1-0.4-1.5-0.2s-13.5,2.7-13.5,2.7l-0.7,0.1"/>
	<path class="st1" d="M1138.6,278.9c-0.1,0.3,2.7,20.6,2.7,20.6l0.8,8"/>
	<polyline class="st1" points="1148.2,250.8 1149,259.2 1151.3,279.8 1152.7,299.8 1154.3,314.1 	"/>
	<line class="st1" x1="1155.4" y1="224.4" x2="1158.3" y2="235.7"/>
	<path class="st1" d="M1162.3,317.9l-1.5-18.8l0.7-20.3c0,0,0-5.6,0.4-7.8s-0.2-12.9-0.2-12.9l-1.1-12.7l-1-6.4l-0.1-0.1"/>
	<path class="st1" d="M1160,199.6c0,0,2.6,4.2,2.7,4.6s4.9,13.3,4.9,14.1s3.7,19.3,3.7,19.3s1.1,11.2,0.2,20.2s-2,20.9-2,20.9
		l-0.6,20.9l-0.4,20.3l0.5,2.2"/>
	<path class="st1" d="M1171.1,294.9l1.6-26.9l3.7-31.4l2.5-25c0,0-0.5-1-0.5-1.1c-0.1-0.2-2.8-5.7-2.8-5.7"/>
	<path class="st1" d="M1181.4,205.4l2.3,3.9l2.3,6c0,0,3.8,12.9,4.8,19.7c0.9,6.8,1.6,20.2,1.6,20.5s3.9,19.5,3.9,19.5l3.7,19.5
		l1.9,14.4c0,0-3.5,2.1-3.8,4.9c-0.2,2.8,0.5,3.9,1,8.4s1.4,7.8,1.2,11c-0.2,3.2,0.8,5.3,1.4,7.2c0.5,1.9,1,3.6,0.6,5.6
		s-1.5,6.1-1.5,6.1"/>
	<path class="st1" d="M1177.9,223.5l2.7,12.2l3.3,20.3l2.5,20.1l1.8,20.8c0,0,1.6,6.4,1.4,9.6s2.4,5.4,2.4,5.4l-1.1,10.1l-0.8,8.7
		l-0.4,2.4"/>
	<path class="st1" d="M1172.7,269.2l1.2,10.2l3.9,18.8c0,0,3.5,16.4,3.5,18.4s1.2,6.5,1.2,6.8s-0.3,5.8-0.3,5.8"/>
	<polyline class="st1" points="1142.5,199.2 1141.2,206.2 1136.8,221.7 1133.2,238.9 1130,254.8 	"/>
	<polyline class="st1" points="1156.3,199.1 1156.1,199.6 1154.5,210.2 1154.4,210.5 1150.7,226.7 1146.2,243.9 1141,262.2 
		1136.2,279.8 1133.1,293.8 	"/>
	<polyline class="st1" points="1098.7,283.9 1097.4,279.8 1091.9,261.9 1085.8,244.2 1081,226.6 1076.2,210 1073.7,199.8 
		1073.4,198.1 	"/>
	<polyline class="st1" points="1099.9,240.5 1093.6,220.1 1088.9,204.5 1087.3,198.4 1087,197 	"/>
	<path class="st1" d="M1066.7,199.8l-1.9,4.7l-4.4,14.1c0,0-3.4,12.7-1.9,21.4s2.7,12,2.7,12l0.5,5.7l0.7,21.3l0.8,11.4"/>
	<path class="st1" d="M1073.7,217.6c0.2,0.1-3.3,19.8-3.3,19.8l-2.6,20.5c0,0-0.4,5.6,0.4,11.1s0.8,9.3,0.8,9.3l-0.1,8.9"/>
	<path class="st1" d="M1071.3,289.4"/>
	<polyline class="st1" points="1082.9,245.8 1081.5,257.3 1080.5,274.1 	"/>
	<path class="st1" d="M1038.4,306.9l-1.8-2.2l1.7-7.3l3.7-19.9l3-18.9l3.8-20.7c0,0,2.8-9.4,3.1-10.2"/>
	<path class="st1" d="M1045.3,205.9l1.3,2.3c0,0-3.3,1.8-3.7,3.8c-0.4,2-0.3,4.4-0.6,4.7c-0.3,0.2-4,20.5-4,20.5l-3.9,19.9
		c0,0-2.3,7.8-3.1,9.3c-0.8,1.6-1.6,8.8-1.6,8.8s0.1,8.8,0,10.2c-0.1,1.3-3.8,7.9-3.8,7.9s-2.8,6.9-2.5,8.1l4.5,3.4l8.3,4.1"/>
	<polyline class="st1" points="1034.7,320.1 1023.3,315.7 1018.7,310.2 1017.7,300.9 1022.6,271.1 	"/>
	<path class="st1" d="M1038.5,336.7c0,0-15.3-7.6-15.7-7.7s-6.7-7.8-6.7-7.8l-2.6-8.6"/>
	<path class="st1" d="M1025.8,256.7c0,0,4.4-0.7,8.6,0.4c0,0,8.9-0.4,10.6,1c0,0,5.7-0.2,9.1,1.8l1.4,0.5"/>
	<path class="st1" d="M1022,273.9c0,0,7.3,1.5,7.4,1.5s12.6,2.4,12.6,2.4l13.3,2.5"/>
	<path class="st1" d="M1053.3,297.6c0.1-0.1,3.9-3.2,3.9-3.2s-0.3-2.1-0.9-5.2s-0.9-0.8-0.9-0.8s-1.2,9.4-2.4,9.4
		c-1.2,0-4.2,2.3-4.2,2.3l-10.5-2.5l-12.8-3.6l-6.3-2l-1.1-1"/>
	<path class="st1" d="M1014.3,307.4"/>
	<path class="st1" d="M1034.9,335.5"/>
	<line class="st1" x1="1148.9" y1="408.6" x2="1149.3" y2="419.4"/>
	<line class="st1" x1="1159.6" y1="419.4" x2="1159" y2="410.8"/>
	<path class="st1" d="M1170.7,416.8c0,0-1-12.7-0.5-15.7l-0.5-6.6"/>
	<path class="st1" d="M1179.6,414.3c0-0.3-1.5-12.4-1.5-14.8l-1.1-16.4"/>
	<path class="st1" d="M1067.2,419l-1.1,4.7l-4.5,20.1l-2.3,19.1l-1.2,19.8l-0.8,18.5l-2.3,19.4c0,0-1.5,17.4-1.5,17.9
		s-3.2,16.1-3.8,16.9c-0.5,0.9-2.4,15.3-2.3,18.8s-2.8,16.9-2.8,18.3s-1.8,11.7-3.2,14.4c-1.4,2.7-3.3,20.1-3.3,20.1s0,13.3,0,13.9
		s-3,14.5-3.1,14.4"/>
	<polyline class="st1" points="1055.7,417 1055.2,421.5 1051.6,441 1050.4,460 1049.8,479.6 1049.8,498 1048.5,517.6 1047,533.8 
		1042.7,551.5 1040.4,570.3 1036,594 	"/>
	<path class="st1" d="M1081.6,419.8c-0.2-0.2-1.5,5.3-1.5,5.3L1076,445l-3,19.6l-2.2,19.5l-1.3,18.6l-2.3,18.6l-2.3,18.5l-3.2,18.3
		l-3.3,17.3l-2.2,19.4l-4,15.9c0,0-1.8,16.8-2,17c0,0-4.5,17.2-4.3,18.1c0.2,1-1.9,11.8-2.2,12.9l-0.2,1"/>
	<path class="st1" d="M1103,382.6l0.4,3.9l-3.7,20.8l-5.6,19.6c0,0-3,14-4,19.4s-3.7,18.5-3.7,18.5l-2.7,18.7l-1.6,19.3l-2.7,18.3
		l-2.4,18.2l-2.9,17.6l-2.4,19.2c0,0-2.2,14.6-3.9,17.4c-1.6,2.8-3,10.5-3,16.7c0,6.1,0.5,8.7-2.9,16.9c0,0-2.2,1.9-2.3,5.5
		s-1.4,23.4-1.6,26.2c-0.2,2.9-0.2,2.9-0.2,2.9"/>
	<path class="st1" d="M1117.4,390.9c0,0-2.2,14.9-3.1,17.2c-0.8,2.3-6.1,19-6.1,19l-5.6,18.1c0,0-3.7,14.1-4.4,18.1
		s-3.2,17.3-3.2,17.3l-3.6,20.2l-3.3,23.9"/>
	<polyline class="st1" points="1119.7,392.3 1122.2,409.3 1126,428.3 1128.5,445.7 1130.5,463.4 1131.9,480.8 1133.5,498 
		1135.8,518.8 	"/>
	<path class="st1" d="M1135.3,401.1l1.2,6.5l4.1,19l2.2,19.7l0.7,18.9l0.8,16.8l1,18.4l0.8,18.1l1,18.1l0.8,16.5l1.4,17.4l-1.1,19.8
		l0.3,17.4c0,0,2.3,17.4,2.3,17.7s1.5,16.3,1.5,16.3v5"/>
	<polyline class="st1" points="1153.5,420.2 1154.5,424.5 1156.5,445.2 1157.3,463.6 1157.3,483 1157.8,501.3 1158.9,518.8 
		1160.6,536.5 1161,554.4 1158.9,573.5 1159.3,590.3 1158.6,606.7 1161.7,622.4 1161.7,635.5 1161.7,649.6 1162.1,653.9 	"/>
	<path class="st1" d="M1175.3,415.6c0,0.1,1,4.6,1,4.6l2.2,20.6c0,0,0.1,18,0,18.6s0,20.9,0,20.9v2.8"/>
	<path class="st1" d="M1177.6,506v15.9c0,0-1,10.4-1.1,10.6c-0.1,0.2,2,18.7,2,18.7l0.4,18.8l-0.4,16.7l1.3,17.7
		c0,0,1.3,24.4,1.3,24.9c0,0.4,2.3,18.4,2.3,18.4"/>
	<line class="st1" x1="1180.1" y1="418.9" x2="1175.7" y2="420.5"/>
	<path class="st1" d="M1111.2,205.9c0,0-3.5,17.7-1.9,23.4l-4.5-4.1l-8.3-8.9"/>
	<polyline class="st1" points="1123.3,235.4 1128.6,227.7 1133.1,221.4 	"/>
	<path class="st1" d="M1110.7,244.9c0.3,0.3,0.7,15,0.7,15l0.6,19.5l0.3,11.9"/>
	<path class="st1" d="M1117.7,205.9c0,0,6.4,21.9,5.9,28.7"/>
	<path class="st1" d="M1115.7,259.6c0.1,0,7.4,0,8.8,0.4s5,0.7,5,0.7"/>
	<path class="st1" d="M1114.1,279.8c0,0,5,0.6,7.7,0s5.8-0.5,5.8-0.5"/>
	<path class="st1" d="M1124.4,246.5c0,0,0.7,6,0.3,8.9c-0.3,2.9-0.1,4.6-0.1,4.6l0.6,19.3l0.9,17"/>
	<path class="st1" d="M1023.3,334.1c-0.7-1.4-1.3-5.9-1.3-5.9l1.3-12.5l7.5-9.5l6-1.2l3.2,0.7"/>
	<path class="st1" d="M1200.9,352.9c0,0-0.4,4.2-3.2,9.5c-2.8,5.3-7.8,4.5-7.8,4.5s4.6-0.5,8.2-7.6s-2.1-10.9-2.1-10.9
		s1-1.2,1.2-2.8c0,0,3.1,1.4,3.7,7.5s1.2,9.8,1.2,9.8s1,2.2,1.3,2.2"/>
	<path class="st1" d="M1197.2,345.6c1.2-4.5-6.4-4-6.7-4h-0.3"/>
	<path class="st1" d="M1196,348.3c0,0-0.4,0.6-0.7,1.6"/>
	<path class="st1" d="M1188.4,353.5c0.2,0,3.1-1.1,4.1-0.5s1.5-0.2,1.5-0.2"/>
	<path class="st1" d="M1184.7,371.5c0,0,0.1,0.5,1.2-0.5s3.4-3.9,4-4.1"/>
	<path class="st1" d="M1057.7,299.4c0.3,0,0.5,0.1,0.8,0.1h0.1c0.7,0.1,6.3,0.7,8.6-1.8c2.4-2.6,4.2-6.6,4.1-7.3
		c0-0.7-1.3-4.9-4.4-2s-9.5,5.6-10.2,6.6c-0.3,0.5-1,1.1-1.7,1.6s-0.6,1.6,0.3,1.9c0.4,0.1,0.7,0.3,1.1,0.4c0,0,1.7,1.4,3.1,1.6"/>
	<path class="st1" d="M1045.6,328.6c0,0-2.8,1.7-1.5,3.7s3.1,5.2,3.6,5.1s2.4-2.5,0.9-5.5"/>
	<path class="st1" d="M1040.2,327.3c0.1,0.1,3.4,3.4,4,5"/>
</g>
<path class="st3" d="M1397.1,361.4c0-0.1-1.4-1.5-1.4-1.5l0.4-1.4l2.7-4c0,0,4.5-3.3,4.6-3.3s6.1-1.9,6.1-1.9h4.2l4.8,1.9l1.1,1.2
	l1.1,3.2l-0.3,0.9c0,0-1.3-0.2-1.4-0.3c-0.1,0-4.6-1.2-4.7-1.2s-5.4,0.4-5.4,0.4s-4.6,1.5-4.7,1.5c0,0-2.8,2.7-2.9,2.8
	c-0.1,0.1-0.9,2.1-1,2.2c0,0.1-0.6,1.6-0.6,1.6l-0.5,0.3c0,0-1.8-1.8-1.9-1.9C1397.2,361.8,1397.1,361.4,1397.1,361.4L1397.1,361.4z
	"/>
<path class="st3" d="M1544.6,371.7l0.8-0.8l-2.2-6.2l-5-5.3l-4.6-1.8l-9.4-3.3l-2,2.1l-3.5,3.4c0,0.1,3.2,0.9,3.4,1
	c0.2,0.1,5.8,3.2,5.9,3.3c0.1,0.1,3.2,3.1,3.2,3.1l4.2,4.4c0,0.1,1.6,2.3,1.6,2.3l0.3,1.8l-0.7,0.5c0,0-1.9,0.9-2.1,0.9
	c-0.3,0.1-1,0.6-1,0.6l0.2,1c0,0,3.1-1,3.4-1c0.3-0.1,2.6-1.9,2.6-1.9l2.8-1.8l1.2-1.5L1544.6,371.7z"/>
<path class="st3" d="M1442.8,175.9c0,0,2.7-1-1.6,21.9c-4.3,22.9-5.6,39.7-5.6,39.7l-1.8,22.3l-1.4,30.8c0,0-1,12.5-2.1,19.4
	s-2.5,10.9-2.5,10.9l-3.8,18.7l-0.9,7.5l9,1.9l7.7,1.5h13.9l35.7-8l-7.6-19l-6.1-15.2v-13.7l3.7-35.1l4.3-43l3.4-32.3
	c0,0,0-2.2,0-3.1c0-1-2.2-15.2-2.2-15.2l-2-2.2l0.9,6.2c0,0-0.6,2-1.9,2.9c-0.4,0.3-2.2,1.3-4,2.8c-3.4,2.7-7.7,6.5-7.7,6.5
	l-8.4,7.4l-11.7-8.9l-2.8-3.7l-2.3-4.9L1442.8,175.9z"/>
<polygon class="st3" points="1514.6,327 1516.3,332 1516.1,334.1 1511.8,336.5 1500.8,339 1502.5,336.7 1508.5,331.1 1513.4,327.5 
	"/>
<path class="st3" d="M1422.6,347.7l14.6,17.6l18.5-10.4l-21.6-14.4L1422.6,347.7z"/>
<path class="st3" d="M1449.5,350.5c-5.9-5.1,22.8,16.8,22.8,16.8l19.2-18.6l-2.3-6.3L1449.5,350.5z"/>
<path class="st4" d="M1489.1,342.3l-17.7,4.3l-17.5,3.8l-14,0.2l-8.5-1.6c0,0-7.9-1.1-8.5-2.3"/>
<circle class="st5" cx="1539.9" cy="367" r="2.3"/>
<circle class="st5" cx="1453.8" cy="348" r="2.3"/>
<circle class="st5" cx="1453.8" cy="339.7" r="2.3"/>
<circle class="st5" cx="1453.8" cy="331.6" r="2.3"/>
<circle class="st5" cx="1463.4" cy="214.6" r="2.3"/>
<circle class="st5" cx="1460.9" cy="240.5" r="2.3"/>
<path class="st4" d="M1523.2,355.8l-0.4-0.8l-2.6-8.6c0,0-2.9-15.1-4.1-14.6c0,0,3,3.2-8.3,5.8l-7.3,1.6"/>
<path class="st4" d="M1527.7,390.8"/>
<path class="st4" d="M1420.1,356.8c0,0-7.2-2.9-13.4-0.8s-7.2,8.6-7.3,8.6s-3.5-4.4-3.5-4.5"/>
<line class="st4" x1="1419.2" y1="352" x2="1420.7" y2="356.3"/>
<path class="st4" d="M1442.6,177c0,0,2.2-6,2.8-5.7c0,0-1.9,5.4,7.6,11.6l8.5,6.6l10.3-9.1l5.8-5.1c0,0,5.9-3.1,5.9-4.9l-1-6.7
	c0-0.1,0.1-0.2,0.2-0.1l1.7,2.3l1.8,2.3"/>
<polyline class="st5" points="1486.4,329.7 1457.6,322.4 1470.1,251.9 1479,213.7 1486.3,182.1 1488.1,174.7 "/>
<path class="st5" d="M1424.1,328.6l24.4-5.7l-2.3-26.6l-0.2-0.8l-2.5-23l-1.1-20.1l-0.3-18.9l-0.6-42"/>
<line class="st5" x1="1448.5" y1="322.7" x2="1452.9" y2="326.9"/>
<polyline class="st5" points="1460.2,197.2 1459.1,206.1 1456.7,226.9 1454.7,257.5 1453.9,280.3 1453.3,297.6 1452.9,326.5 "/>
<path class="st5" d="M1464.9,194.7c0.2-0.1,8,0.3,10.5-0.3"/>
<path class="st5" d="M1464.9,194c0.1-0.2,3.2-4.2,8-4.1"/>
<path class="st5" d="M1458.2,194.3c0,0-3.6-3.2-12-4"/>
<path class="st5" d="M1464.8,196.1c0,0,0.5-2.5-0.4-5.2"/>
<path class="st5" d="M1458.4,191.6c0,0-1,3.3,0.5,5.8"/>
<path class="st5" d="M1458,195.4c0,0-6.2,3.5-9.8,3.1"/>
<path class="st5" d="M1397.4,356.1c0.1,0.2,0.2,0.4,0.4,0.5c1.1,1.1,2.9,1.2,4,0.1s1.2-2.9,0.1-4c-0.2-0.2-0.3-0.3-0.5-0.4
	C1400.5,353.2,1398.3,355.2,1397.4,356.1z"/>
<path class="st4" d="M1441.7,190.9c0-0.5,2.8-11.8,1.2-14.2"/>
<path class="st5" d="M1464.3,190.9c0,0-3-2.1-2.9-2.8c0,0-1.3,4.1-3.4,3.2"/>
<polyline class="st5" points="1456,355.4 1443.5,362.2 1437.2,365.3 1422.2,347.1 "/>
<polyline class="st5" points="1457.9,322.3 1452,327.2 1450.7,328.3 1449.2,330.8 1448.2,349.6 1472.2,367.3 1476,364 1493.2,347.5 
	"/>
<g>
	<path class="st6" d="M1548,378.8c0,0-7,8.9-12.3,7.6c-0.1,0,2.8,37,2.8,37l3.2,36.2l2,27.7c0,0,1.3,8.3-8.8,10.3
		c-4.8,1-6.8,1.3-7.6,1.4"/>
	<path class="st6" d="M1486,501.1c-0.1-1.8-16.6-51.4-16.6-51.4l-5,50.6c0,0-12.7,0.4-16.9-1.9"/>
	
		<ellipse transform="matrix(0.6544 -0.7562 0.7562 0.6544 290.4773 1238.7053)" class="st7" cx="1500.3" cy="301.6" rx="3.4" ry="3.1"/>
	<ellipse class="st6" cx="1496.4" cy="332.5" rx="2.7" ry="3.4"/>
	
		<ellipse transform="matrix(0.9633 -0.2683 0.2683 0.9633 -37.1857 393.0747)" class="st8" cx="1419.6" cy="332.6" rx="2.7" ry="3.4"/>
	<circle class="st6" cx="1419.3" cy="301.9" r="2.7"/>
	<circle class="st6" cx="1502.1" cy="269.1" r="3.4"/>
	<path class="st6" d="M1527.5,360.4l-6.4,6.9c10.3,2.4,15.9,11.4,18.4,14.2c2.5,2.8-3,3.6-3,3.6l-7.2,10.3c0,0-6.1-25.5-8-27.8"/>
	<path class="st6" d="M1454,367.7c0,0,0.1,37.9,11.4,47.6"/>
	<path class="st6" d="M1399.6,368.6l0.5,5.6c0,0,1.5,2.8,2.1,7.8s6,10.9,6,10.9"/>
	<path class="st6" d="M1510.1,661.5l-0.5,7.3c0,0,2.9,5.7,3.7,11.2c0,0,2.9,5.9,2.9,9.4c0,0.1-0.4,2.5-0.4,2.5s-6.1,2.6-13.2,1.7
		s-11.1,0.7-11.1,0.7s-6.8,0.8-7.4-0.4c-0.6-1.3-1.1-3.9-0.4-7.9c0.7-4.1,0.4-16.4,0.4-16.4l0.2-8.5"/>
	<path class="st6" d="M1516.4,690.2c0,0,3.4,3.6,1.2,4.8c-2.2,1.2-8.6,3-14,2.4s-16.9,0.4-16.9,0.4s-3.9-0.9-3.9-2.7
		s0.6-4.6,0.6-4.6l0.2-2.5"/>
	<path class="st6" d="M1482.7,164.3l0.4-1.9c0,0,3.1-5.7,3.7-9.7c0.6-3.9,1.7-8.2,2.7-14.6c0.7-4.5-0.3-18.2-1-26
		c-0.3-3.7-2-7.3-4.7-9.9c-3.4-3.2-8.1-7.1-11.6-7.3c-6.1-0.3-13.8-0.3-15.8,0"/>
	<path class="st6" d="M1456.5,94.8c-3.5,0.2-8.2,4.1-11.6,7.3c-2.7,2.6-4.4,6.1-4.7,9.9c-0.7,7.7-1.7,21.5-1,26
		c1,6.4,2.1,10.7,2.7,14.6c0.6,3.9,3.7,9.7,3.7,9.7V173l-0.4,0.8"/>
	<path class="st6" d="M1483.1,163.8c0,0-5.1,2.6-12,5.9s-15.2-1-15.2-1c-4-1.6-8.7-4.1-10.2-4.9"/>
	<line class="st6" x1="1482.8" y1="164" x2="1483.9" y2="165.9"/>
	<path class="st6" d="M1421.6,266.5c-0.2,0-0.4,0-0.7,0c-1.6,0.2-2.7,1.7-2.5,3.3c0.2,1.6,1.7,2.7,3.3,2.5c0.2,0,0.4-0.1,0.6-0.2
		C1422.2,270.8,1421.8,267.8,1421.6,266.5z"/>
	<path class="st6" d="M1475.8,307.3l11.8-26.3l14.3-40c0,0,12.3-39.2,13.4-42.3s-1.5-2-1.5-2l-2.1,1l-13.7,6.5l-10.3-13
		c0,0,2.1-8.5-1.1-21.3"/>
	<path class="st6" d="M1522.1,352.9c-0.7,1.6-6.6,2.4-6.6,2.4s-7.3,1.8-7.9,2.1c-0.7,0.3-21.4,4.8-21.6,4.9s-21.4,4.4-21.4,4.4
		s-7.6,1.1-17.9,1.4c-9.5,0.3-25.9-4.3-26.5-4.6c0,0-3.8,7-5.4,12.1s-6.8,18.1-6.8,18.1v10.1l-5.6,46.3l-3.6,48.2l-5.7,27.3
		l-5.9,34.4l-7.8,42.4l-10.9,30.8l-11.3,29.3c0,0,5.8,1.2,13,3.4s30.9-0.6,30.9-0.6s5.9-18.1,5.9-18.5s16.2-56.1,16.2-56.1
		l13.7-50.3l10.7-44l15.6-69.2l1.4-8.8c0,0,4.4-7.9,7.2,0.7c0,0,4.1,25.4,4.1,25.8s7.5,41.4,7.8,41.9c0.2,0.4,4.1,25.6,6.1,38.7
		c0.8,5,0.8,10.2,0.1,15.2l-2,14.6l-2.2,33.8l-3.3,40.5c0,0-2.7,18.8-2.1,22.2s4.2,9.2,4.2,9.2s8.6-1.5,14.1-1.9
		c5.5-0.5,12.4,2.8,13.3,3.3s1.7-5.5,2.2-6c0.5-0.4,9.1-30.9,9.1-30.9l4.4-44.9l0.9-38.8l-0.9-38V482l1.6-39.2
		c0,0,0.8-17.5,0.8-19.9c0-0.5,0.3-1.5,0.3-2.6c-0.4-9,0.3-16.3-0.8-24.5v-0.3"/>
	<path class="st6" d="M1431.5,308.2c-3.5-6.5-6.7-21.9-9.2-37.2s-7.9-66.7-7.9-68.3c0-0.9,0.1-3,0.2-4.5c0-0.9,1-1.4,1.8-1l11.5,8.7
		c0,0,13.1-12.5,14.2-12.9c0,0-6.1,35-6.6,41.8s-3.8,55.6-3.9,65.7s-2.6,17.6-2.6,17.6s-5.6,25.1-6.2,30.4c-0.6,5.2-0.6,6.5-0.6,6.5
		s-3.7-1.4-4.9-4.4s-3.5-8.3-4.8-10c-1.1-1.5-0.2-21.6-0.2-21.6l-2.1-26.3l-2-16.4c0,0-0.5-1.1-1.7,1.4s-2.6,5.7-2.6,5.7l-4.2,14.5
		c0,0-0.6,2.5,0.4,6s5.5,21.7,5.5,21.8s9.8,21.1,9.8,21.1l1.1,2l1.8,10.3c0,0-5.3-3.8-10.8-2.2s-10.1,3.6-13.3,10.4
		c0,0-0.5,2.5-0.6,2.3s-5.6-11.8-5.6-11.8l-8.7-19.1l-5.6-17.7l-6-20.8c0,0-0.3-6,3-15.4c3.3-9.5,7.1-26.1,7.1-26.1l7.1-19.2
		l4.7-20.3l7.1-21.5c0,0,2.2-5.4,14.3-8c12.1-2.6,16.6-4.2,16.6-4.2s12-2.8,15.4-6.7c0,0,0.6,1.5,0.6,3.9s-1.3,10.2-1.3,10.2"/>
	<path class="st6" d="M1397.3,665.8c1.2,2.7,3.1,8.7,1.5,15.8c0,0-1.7,2.6-9.1,2.9s-19.9,0.9-29.5,5.1c-9.6,4.2-37.7,0-37.7,0
		l-14.4-2.5c0,0-0.9-3,2.9-4.1s12.1-2.2,16.8-2.2c7.5,0,31.4-10.9,32.5-17.8"/>
	<path class="st6" d="M1360.2,663.6"/>
	<path class="st6" d="M1399.1,681.8l0.2,7.7c0,0-17.3,2.5-20.4,2.4s-3.5-0.3-3.5-0.3v-3.3c0,0-7.5-0.8-12.6,1.5
		c0,0-4.4,4.6-10.7,4.8c-6.2,0.2-21.6-0.1-29.2-1.6c-7.6-1.6-15.8-2.6-15.8-2.6s-1-1.3-0.3-2.2c0.6-0.9,1.2-0.9,2.4-0.7"/>
	<path class="st6" d="M1531.7,350.7l-1.1-7.8c-3.2-12.5-1.3-30.7-1-41.4c0.3-10.7,6.5-27.8,6.5-27.8l-4.2-24.5l4,23
		c0,0,7.6,15.7,10.4,24s3.6,14.6,3.6,14.6l-3.7,13l-14.3,27.5l-4.8,10.7c0,0,6.8,1.4,13.8,5.1s7.8,12.2,8.5,15.1s1.8,1.7,1.8,1.7
		l8.9-21.7c0,0,18.3-40,21.9-45.8c3.7-5.7,1.3-13.7,1.3-13.7l-7.6-26.2l-11.5-32.5c0,0-15.9-36.4-18.2-45.1c-2.3-8.7-5.8-9-5.8-9
		l-8.8-3l-33.6-8.5c0,0-7.6-5.2-9.2-7.1c-1.7-2-2.3-2.6-2.3-2.6s3,13.3,1.7,21.4c-1.3,8-4.2,41.5-4.2,41.5s-2.8,28.3-3.8,36.3
		s-2.9,28.3-2.9,28.3s-2.5,15.2,0.5,21.8c3,6.6,15.2,35,15.5,37.4s4.3-2,4.3-2s5.5-8.8,9.7-12.6c4.2-3.8,11.4-10.3,14.7-7.2
		c3.3,3.1,5.2,28.1,5.2,28.1"/>
	<circle class="st9" cx="1393.9" cy="359.8" r="1.8"/>
	<circle class="st9" cx="1391.9" cy="355.8" r="1.8"/>
	<circle class="st9" cx="1390.2" cy="351.6" r="1.8"/>
	<circle class="st9" cx="1388.2" cy="347.6" r="1.8"/>
	<circle class="st9" cx="1550.9" cy="371.3" r="1.8"/>
	<circle class="st9" cx="1552.7" cy="367.3" r="1.8"/>
	<circle class="st9" cx="1554.8" cy="363.2" r="1.8"/>
	<circle class="st9" cx="1556.6" cy="359.2" r="1.8"/>
</g>
<path class="st5" d="M1443.9,187.8c0,0,10.3,1.6,13.4,3.2c2.9,1.5,6.2,0.2,6.7,0h0.1l10.5-5.9c0.4-0.2,0.9-0.1,1.2,0.2l3.3,4.1
	c0.1,0.1,0.1,0.2,0.2,0.3l1.8,5.9c0,0.1,0,0.2,0,0.3v2.8c0,0.3-0.1,0.5-0.3,0.7c-0.5,0.4-1.7,0.8-4.8,0.3c-4.9-0.8-6.9,0.4-10.7-3.2
	c-0.2-0.2-0.5-0.3-0.8-0.2l-5.1,1c-0.2,0-0.4,0.2-0.6,0.4c-0.6,0.8-2.5,3.1-6.1,4.3c-2.5,0.8-3.9,1.2-4.5,1.3
	c-0.4,0.1-0.8-0.1-1-0.4l-3.5-5.2c-0.1-0.1-0.1-0.2-0.1-0.3l-1-3.7c0-0.1,0-0.2,0-0.3l0.2-4.5
	C1442.7,188.9,1442.9,187.2,1443.9,187.8z"/>
</svg>
