<?xml version="1.0" encoding="utf-8"?>
<!-- Generator: Adobe Illustrator 23.0.3, SVG Export Plug-In . SVG Version: 6.00 Build 0)  -->
<svg version="1.1" xmlns="http://www.w3.org/2000/svg" xmlns:xlink="http://www.w3.org/1999/xlink" x="0px" y="0px"
	 viewBox="0 0 140 181" style="enable-background:new 0 0 140 181;" xml:space="preserve">
<style type="text/css">
	.st0{fill:none;stroke:#FFFFFF;stroke-width:0.5;stroke-miterlimit:10;}
	.st1{fill:#FFFFFF;stroke:#FFFFFF;stroke-width:0.15;stroke-miterlimit:10;}
</style>
<g id="Layer_2">
	<rect x="0" y="-0.3" width="140" height="181"/>
</g>
<g id="Layer_1">
	<g>
		<path class="st0" d="M83.2,95.7l0.4,1.2l0.6,5.1l0.1,5l-0.1,4.8l-0.4,4.7l0.2,4.8l0,4.5l0.4,4.2c0,0-0.1,4.5,0,4.5
			c0.1,0.1,0,4.5,0,4.5l0,4.2l0.4,3.7l-0.1,4.2l0.3,2.4l0.4,1v0.2"/>
		<path class="st0" d="M74.8,34.7v-2.8c0,0,0.8-1.5,1-2.5c0.2-1,0.4-2.2,0.7-3.8c0.2-1.2-0.1-4.8-0.3-6.8c-0.1-1-0.5-1.9-1.2-2.6
			c-0.9-0.9-2.1-1.9-3-1.9c-1.6-0.1-3.6-0.1-4.1,0"/>
		<path class="st0" d="M65,34.7v-2.8c0,0-0.8-1.5-1-2.5c-0.2-1-0.4-2.2-0.7-3.8c-0.2-1.2,0.1-4.8,0.3-6.8c0.1-1,0.5-1.9,1.2-2.6
			c0.9-0.9,2.1-1.9,3-1.9"/>
		<path class="st0" d="M74.8,32c0,0-1.3,0.6-3.1,1.5c-1.8,0.8-3.9-0.3-3.9-0.3c-1.2-0.5-2.7-1.3-2.7-1.3"/>
		<path class="st0" d="M75.4,40.4l-0.1,0.3L74,45.2l-1.4,4.3c0,0-1.4,3.8-1.4,3.8c0,0-2-5.1-3.3-7.3c-1.3-2.2-2.8-6.4-2.9-6.9
			c0,0-0.5-1.3-0.5-1.9c-0.1-0.6,0.1-1.2,0.1-1.2s-0.1,0-0.7,1.2c-0.6,1.2-1.9,1.7-1.9,1.7s-4.7,2.5-5,2.5s-4.8,1.1-4.8,1.1
			s-0.2-0.1-0.7,1.4S48,55,48,55s-2.8,12.5-2.8,12.5c0.1-0.1-1.3,4.3,0.5,5.9c1.8,1.6,4.5,2.6,4.5,2.6l0.6,0.1c0,0,0-0.2,0-0.2
			c0,0,0.8,0.4,0.8,0.4s0.8,0.2,1.2-0.1c0.3-0.2,0.3-0.2,0.3-0.2s-1.3,0.5-1.7-0.1S50.2,71,50.2,71s0-2.5,0.6-3
			c0.5-0.5,1.1-0.9,1.8-0.9l0.3,0.1c0,0,0,0-0.3-0.1c0,0-0.1,0.1-0.6,0.4c-0.5,0.3-0.5,2.1-0.6,3.1c-0.1,1,0.1,1.9,0.1,1.9l1.7,3.4
			l0,0L52,78.1l6.6-11.3l3-7.5l-2.3,3.9"/>
		<polyline class="st0" points="65.7,61.3 61.3,49.4 59.5,43 59,40.4 59,40.4 65.1,39.9 		"/>
		<path class="st0" d="M85.9,72.4l-0.1-1.7l-1.3-6.2c0,0-0.3,6.3,0.1,7.2"/>
		<path class="st0" d="M54.1,79.4c0,0.1-0.6,7.1-0.6,7.1l-1.1,8.2c0,0-0.1,0.3,0.6,0.4c0.6,0.1,6.9,1.2,6.9,1.2s3.5,0.3,4.7-1.9
			c1.2-2.2,2.5-7.6,2.5-7.6"/>
		<path class="st0" d="M75.7,91.5c0,0,0.7,5.6,5.8,4.5c5.1-1.1,6.7-1.8,6.7-1.8s0.2,0.1-0.1-1.6s-0.9-6.8-0.9-6.8"/>
		<polyline class="st0" points="66.3,48.8 70.9,53.8 71,53.9 		"/>
		<path class="st0" d="M74.6,50.3c0,0-2.5,2.9-2.8,3.3c0,0-0.1,0.1-0.1,0.1c-0.2,0.1-0.8,0.6-1.1,1.7c-0.3,1.3-0.5,4.3-0.5,6.3
			c0,2,0,2,0,2"/>
		<line class="st0" x1="71.2" y1="53.2" x2="70.6" y2="55.7"/>
		<path class="st0" d="M73.3,65.4c0,0,0.4-5.5,0.6-7s0.4-4.2,0.4-4.2s0.5-4.4,0.5-4.5s0.6-8.2,0.6-8.2l0.1-2.3c0,0,0.3-2.1,0.1-2.7
			C75.2,36,75.3,36,75.3,36c0.3,0.2,0.6,1.5,3.4,3c2.8,1.5,7.2,3.1,7.5,3.1c0.3,0,1,0,1,0s0.5,0,0.9,1c0.4,1.1,1.8,4.4,1.8,4.4
			s0.8,2,0.9,2c0,0.1,0.1,3,0.1,3l0.4,5.4l1,6.2l0.7,4.1c0,0,0.8,3,0.8,3.1s-0.2,4.3-0.2,4.3l-0.1,2.7l-0.8,3.9l-0.2,1l-0.1,0.2
			l-2.1,0.7l-0.4,0l-0.7-0.1l-0.9-0.4"/>
		<polyline class="st0" points="65,39.2 65.9,45.9 66.9,53.1 68.1,62.7 		"/>
		<path class="st0" d="M53.9,95.2l-0.5,6.9v11.5l-1.6,16.1l-1.5,12.7l0.5,10.1l-0.5,3c0,0,0.4,1.1,1.8,1.1c1.4,0,3,0.6,4.3,0.3
			c1.3-0.3,1.5-0.5,1.5-0.5l0.9-4.3l1.5-9l1.6-12.9l3.5-14.5l2.9-12.2l1.4-3.5c0,0,0.7-1,1.3,0s1.9,6.4,1.9,6.4l1.5,6.3l1.9,11.2
			l1.1,11.8l1.4,13l1.4,5.9l0.1,0.3c0,0,1.9,0.2,2.7,0.2c0.8,0,0.9,0.3,1.9-0.1s2.5-1.4,2.5-1.4l0.8-0.1l-0.3-5.2L87,129.6
			l-0.8-11.8l0.6-13.1l0.1-10.1"/>
		<path class="st0" d="M64.6,35.9c0,0,0.2-0.9,0.2-0.9s0.2-0.3,0.2-0.3c0,0-0.1,0.4,0.4,0.9s2.5,1.7,2.5,1.7s1.7,1.2,2,1.5l0.1,0.1
			c0,0-1.6,0.1-2.1,0.7c0,0-2,1.5-2,1.7"/>
		<path class="st0" d="M75.3,36l-0.5-1.2c0,0-0.1,0.4-0.4,0.7c-0.3,0.2-2.1,1.8-2.1,1.8l-1.6,1.4c0,0,1.9,0.4,2.6,0.9
			c0.7,0.5,1.7,1.4,1.8,1.6s0.1,0.1,0.1,0.1"/>
		<path class="st0" d="M61.7,59.4l27.8,15.1c0,0,0.3,0,0.2,0.6c-0.1,0.6-1.3,8.5-1.3,8.5l-7.1,10.8c0,0,0.2,0.4-1.3-0.5
			C78.5,93,52,78.1,52,78.1"/>
		<line class="st0" x1="58.6" y1="66.8" x2="88.3" y2="83.5"/>
		<line class="st0" x1="60.3" y1="62.6" x2="89" y2="78.7"/>
		<path class="st0" d="M89.1,78.6"/>
		<path class="st0" d="M75.4,41.5"/>
		<path class="st0" d="M75.4,40.6c0.2,0,6.4,0,6.4,0l-0.9,5.4l-2,7.5l-1.8,5.2L74.4,66"/>
		<path class="st0" d="M53.2,42.8c0,0,0.6,1.3,0.6,1.7c0,0.3,0.6,3.2,0.6,3.2l0.2,0.1l0.4,3.1l0.4,2.5l0.1,9.4"/>
		<path class="st0" d="M44.8,71.8"/>
		<path class="st0" d="M49.8,75.8c0,0-0.7-1.6-0.7-1.6s-0.6-3.1-0.3-3.7s0.5-2.4,1.2-2.6s0.9-0.3,1-0.3c0.1,0,0.4-0.1,0.4-0.1"/>
		<path class="st0" d="M53.7,66"/>
		<path class="st0" d="M67.4,39.7c0,0,1.9,0.5,2.1,2.5c0,0,0.8,0.3,1.6,0l0.1,0c0.2-2.2,2.1-2.7,2.1-2.7"/>
		<g>
			<g>
				<g>
					<path class="st1" d="M65.2,79.8c-0.2,0-0.7-0.1-1.3-0.4c-0.5-0.3-0.9-0.7-1-1.3c-0.1-0.5,0-1.2,0.4-1.8c0.7-1.1,2-1.6,3.3-0.9
						c0.4,0.2,0.7,0.5,0.8,0.7l-0.2,0.2c-0.1-0.2-0.3-0.4-0.7-0.6c-1.1-0.6-2.2-0.3-2.8,0.8c-0.7,1.1-0.5,2.2,0.6,2.8
						c0.4,0.2,0.7,0.3,0.9,0.3l0.9-1.4l-0.9-0.5l0.1-0.2l1.2,0.7L65.2,79.8z"/>
				</g>
				<g>
					<path class="st1" d="M68.9,79.5l-1.5-0.9l-1.1,1.7l1.7,1l-0.1,0.2l-2-1.2l2.4-4l1.9,1.1l-0.1,0.2l-1.6-0.9l-0.9,1.5l1.5,0.9
						L68.9,79.5z"/>
				</g>
				<g>
					<path class="st1" d="M68.5,81.9l2.4-4l0.3,0.1l0.1,3.2c0,0.7,0,1.2,0,1.7l0,0c0.3-0.6,0.6-1,0.9-1.6l1.2-2l0.3,0.2l-2.4,4
						L71,83.4l-0.1-3.2c0-0.6,0-1.2,0-1.7l0,0c-0.3,0.5-0.5,0.9-0.9,1.6l-1.2,2L68.5,81.9z"/>
				</g>
				<g>
					<path class="st1" d="M75.2,80.7L74,80l0.1-0.2l2.8,1.6l-0.1,0.2l-1.3-0.7l-2.3,3.8l-0.3-0.2L75.2,80.7z"/>
				</g>
				<g>
					<path class="st1" d="M75,85.1c0.1,0.3,0.4,0.6,0.7,0.7c0.6,0.3,1.1,0.2,1.4-0.3c0.3-0.4,0.2-0.8-0.2-1.4
						c-0.5-0.6-0.7-1.1-0.3-1.7c0.4-0.6,1.1-0.7,1.7-0.4c0.4,0.2,0.6,0.5,0.7,0.6l-0.3,0.2c-0.1-0.1-0.2-0.4-0.6-0.6
						c-0.6-0.4-1.1-0.1-1.3,0.2c-0.3,0.4-0.2,0.8,0.3,1.3c0.5,0.6,0.6,1.1,0.3,1.7c-0.4,0.6-1.1,0.9-1.9,0.4
						c-0.3-0.2-0.7-0.5-0.8-0.8L75,85.1z"/>
				</g>
			</g>
			<g>
				<g>
					<path class="st1" d="M65.8,82.4c0,0.1,0.1,0.1,0.2,0.2c0.1,0.1,0.3,0,0.3-0.1c0.1-0.1,0-0.2-0.1-0.3c-0.1-0.1-0.2-0.3-0.1-0.4
						c0.1-0.1,0.3-0.2,0.4-0.1c0.1,0,0.1,0.1,0.2,0.1l-0.1,0c0,0-0.1-0.1-0.1-0.1c-0.1-0.1-0.3,0-0.3,0.1c-0.1,0.1,0,0.2,0.1,0.3
						c0.1,0.1,0.1,0.3,0.1,0.4c-0.1,0.1-0.2,0.2-0.4,0.1C65.8,82.6,65.7,82.5,65.8,82.4L65.8,82.4z"/>
				</g>
				<g>
					<path class="st1" d="M67,82l-0.3,0.6c-0.1,0.2-0.1,0.4,0,0.5c0.1,0.1,0.3,0,0.5-0.2l0.3-0.6l0.1,0l-0.3,0.6
						c-0.2,0.3-0.4,0.3-0.6,0.2c-0.2-0.1-0.2-0.3-0.1-0.6L67,82L67,82z"/>
				</g>
				<g>
					<path class="st1" d="M67.8,82.5l-0.6,0.9l-0.1,0L67.8,82.5L67.8,82.5z"/>
				</g>
				<g>
					<path class="st1" d="M68.2,82.8l-0.3-0.2l0-0.1l0.7,0.4l0,0.1L68.2,82.8l-0.5,0.9l-0.1,0L68.2,82.8z"/>
				</g>
				<g>
					<path class="st1" d="M68.1,83.8c0,0.1,0.1,0.1,0.2,0.2c0.1,0.1,0.3,0,0.3-0.1c0.1-0.1,0-0.2-0.1-0.3c-0.1-0.1-0.2-0.3-0.1-0.4
						c0.1-0.1,0.3-0.2,0.4-0.1c0.1,0,0.1,0.1,0.2,0.1l-0.1,0c0,0-0.1-0.1-0.1-0.1c-0.1-0.1-0.3,0-0.3,0.1c-0.1,0.1,0,0.2,0.1,0.3
						c0.1,0.1,0.1,0.3,0.1,0.4c-0.1,0.1-0.2,0.2-0.4,0.1C68.1,84,68.1,83.9,68.1,83.8L68.1,83.8z"/>
				</g>
				<g>
					<path class="st1" d="M69.1,84.5l0.2-0.4l0-0.7l0.1,0l0,0.4c0,0.1,0,0.2,0,0.3l0,0c0.1,0,0.1-0.1,0.2-0.1l0.3-0.2l0.1,0
						l-0.6,0.4L69.1,84.5L69.1,84.5z"/>
				</g>
				<g>
					<path class="st1" d="M69.9,85c-0.2-0.1-0.3-0.4-0.1-0.7c0.2-0.3,0.5-0.4,0.7-0.3c0.2,0.1,0.3,0.4,0.1,0.7
						C70.4,85,70.1,85.1,69.9,85L69.9,85z M69.9,84.9c0.2,0.1,0.5,0,0.6-0.2c0.1-0.2,0.2-0.5-0.1-0.6c-0.2-0.1-0.5,0-0.6,0.2
						C69.7,84.5,69.7,84.8,69.9,84.9L69.9,84.9z"/>
				</g>
				<g>
					<path class="st1" d="M71.1,84.4l-0.3,0.6c-0.1,0.2-0.1,0.4,0,0.5c0.1,0.1,0.3,0,0.5-0.2l0.3-0.6l0.1,0l-0.3,0.6
						c-0.2,0.3-0.4,0.3-0.6,0.2c-0.2-0.1-0.2-0.3-0.1-0.6L71.1,84.4L71.1,84.4z"/>
				</g>
			</g>
			<g>
				<polygon class="st1" points="65.6,82 61.3,79.5 61.3,79.3 65.7,81.8 				"/>
			</g>
			<g>
				<polygon class="st1" points="76,87.9 71.6,85.4 71.7,85.3 76,87.8 				"/>
			</g>
		</g>
		<path class="st0" d="M75.4,41.5c0,0,1.6,0.8,1.6,0.8c0,0,3.5,1.1,3.5,1.1l0.8,0.3"/>
		<path class="st0" d="M75,45.9c0,0,0.3,0,0.9,0.3c0.6,0.4,3,1.2,3.4,1.2s1.1,0.3,1.1,0.3"/>
		<path class="st0" d="M74.6,50.3c0,0,0.3,0.1,0.4,0.2s1.3,0.7,1.9,0.8c0.6,0.2,1.3,0.4,1.3,0.4l1,0.3"/>
		<path class="st0" d="M74.1,55.3c0,0,2.3,0.6,2.8,1.1c0.5,0.5,0.8,0.3,0.8,0.3"/>
		<path class="st0" d="M76.4,60.7c0,0-0.3,0.2-0.4,0.2c-0.1,0-2.1-0.8-2.3-0.5"/>
		<path class="st0" d="M51.2,44.7c0,0,0.6,0.2,0.9,0.2c0.3,0,1.6,0.1,1.7,0.3"/>
		<path class="st0" d="M49.5,50.2c0,0,0.6-0.2,1.6-0.2c0,0,1.7-0.1,2.7,0.2c1,0.2,1.1,0.3,1.1,0.3"/>
		<path class="st0" d="M54,45.8c0,0,1.5-0.3,2.6-0.2c1.1,0.1,1.5,0.1,1.5,0.1l1.9-0.6l0,0"/>
		<path class="st0" d="M55,50.9c0,0,1-0.3,1.1-0.3c0.1,0,0.9-0.1,1.5-0.3c0.6-0.3,1.6,0,1.6,0s1.1,0.1,1.1,0c0,0,1.3-0.1,1.3-0.1"/>
		<path class="st0" d="M55.9,55.7c0,0,0.5-0.4,2.7-0.5c2.2-0.1,3.4-0.1,3.4-0.1l1.3,0"/>
		<path class="st0" d="M64.2,60.8c0,0,0.8-0.1,1.3,0"/>
		<path class="st0" d="M54.1,80.9c0.1,0,0.5,0,1.4,0.1c0.9,0.2,1.5-0.1,1.5-0.1"/>
		<path class="st0" d="M53.6,85.8c0,0,0.6,0,0.9,0.2c0.3,0.2,2.6,0.1,2.6,0.1l3.2,0.2l3,0.1h3.1"/>
		<path class="st0" d="M53,90.9c0.1,0,0.3,0,1.2,0.1c0.9,0.1,2.6,0.2,2.6,0.2s2.6,0.2,3.1,0.2c0.5,0,3,0.1,3,0.1
			c0,0,2.9,0.1,2.9,0.1"/>
		<path class="st0" d="M76,92.6c0,0,0.8,0,1.6-0.2"/>
		<path class="st0" d="M83,91.6l1.3-0.2l2-0.4c0,0,1.5-0.4,1.5-0.6"/>
		<path class="st0" d="M50.7,67c0,0-1.6-0.1-2.2,0.1c-0.6,0.2-2.3,1.2-2.3,1.4c0,0.2-0.6,2.3-0.7,2.8c-0.1,0.5-0.1,1.7-0.1,1.9"/>
		<path class="st0" d="M74.4,66c0,0,2.7-0.1,2.7-0.1l2.8-0.1l2.1-0.1l2,0l0.5,0.1"/>
		<path class="st0" d="M76.4,60.8c0,0,3.2-0.1,3.2-0.1l2.6,0l2,0h0.6"/>
		<path class="st0" d="M78.2,55.5c0,0,0.8,0,0.8,0l3.2,0l2.5,0l0.3,0.1l0.2,0"/>
		<polyline class="st0" points="83.8,50.1 84.6,50.2 85.8,50.3 		"/>
		<path class="st0" d="M81,45.7c0,0,2.8-0.1,2.8-0.1c0,0,2.6-0.2,2.6-0.2"/>
		<polyline class="st0" points="81.6,41.8 82.4,41.8 85.7,42 		"/>
		<path class="st0" d="M86,50.1c0,0,0.5-0.2,1-0.3c0.5-0.1,2.5-0.2,2.5-0.2s1.3,0.4,1.3,0.5"/>
		<path class="st0" d="M91.1,54.8c0,0-1.2-0.1-1.2-0.1s-1.7,0.1-2.1,0.1c-0.4,0-2.5,0.9-2.5,0.9h-0.1"/>
		<path class="st0" d="M85.3,60.9c0,0,1.8-0.7,3.1-0.9c1.3-0.2,2.5-0.3,2.5-0.3l0.8,0.1"/>
		<path class="st0" d="M86.3,65.8c0,0,1.4-0.6,2.5-0.7"/>
		<path class="st0" d="M88.8,65.1c1-0.3,3-0.6,3-0.6s0.3-0.1,0.6,0"/>
		<path class="st0" d="M93.8,73.2c0,0-0.3-0.5-0.8-0.9s-1.4-0.8-1.4-0.8s-1.6-0.2-2.1,0c-0.5,0.2-2.1,0.4-2.1,0.4s-1.5,0.2-1.6,0.3"
			/>
		<path class="st0" d="M93.7,75.6c0,0-0.7-1-1.7-1.3c-1-0.3-2.6-0.5-2.6-0.5h-1.2"/>
		<path class="st0" d="M93.3,79.8c0,0-0.2-1.5-0.8-2.2c-0.6-0.7-1.1-1.5-3-1.5"/>
		<path class="st0" d="M85.8,70.6c0.1-0.1,0.9-0.3,1.3-0.7c0.4-0.4,0.3,0,1.4-0.5c1.1-0.4,1.3-0.5,1.3-0.5s0.7,0.1,1.5-0.2
			s1-0.6,1-0.6s0.4,0.8,0.6,0.9l0.3,0.1"/>
		<path class="st0" d="M59.7,43.7c0.1,0,1-0.4,1-0.4s2.1-0.9,2.7-1.1c0.5-0.2,0.5-0.2,0.5-0.2s1.3-0.6,1.4-0.5c0.1,0,0.1,0,0.1,0"/>
		<path class="st0" d="M65.9,45.9c0,0,0.1-0.3-0.9,0.2s-3.2,1.4-3.2,1.4l-1,0.3"/>
		<path class="st0" d="M62.4,52.4l0.7-0.4c0,0,3.2-1.5,3.3-1.6c0.1-0.2,0.1-0.2,0.1-0.2"/>
		<path class="st0" d="M64,56.8l0.6-0.4c0,0,1.5-1,2.6-1.1"/>
		<path class="st0" d="M65.6,61.2c0.1,0,0.5-0.3,0.5-0.3s0.8-0.7,1.7-0.6"/>
		<polyline class="st0" points="55.5,80.1 55.4,81 54.6,86.1 54.2,91 54,95.2 		"/>
		<polyline class="st0" points="56.5,95.6 56.7,91.2 57.2,86.1 57.6,81.3 		"/>
		<path class="st0" d="M60.5,82.9c0,0-0.1,3.4-0.1,3.4l-0.4,5.2l-0.5,4.7"/>
		<path class="st0" d="M62.6,95.9l0.3-4.4c0,0,0.6-5.2,0.6-5.2c0,0,0.1-1.7,0.1-1.7S79,93.3,79,93.3"/>
		<path class="st0" d="M86.4,44.8c0,0,0.9-0.4,1.9-0.2c0,0,0.3,0,0.5,0.1"/>
		<path class="st0" d="M44.8,69.1c0-0.3,0.1-1.9,1.2-2.4c1.1-0.5,1.5-0.3,1.5-0.3l3.3,0.3c0,0,0,0.1,2.1,0.5c0.1,0,2.3-2,2.3-2"/>
		<polyline class="st0" points="65.4,92.8 66.6,92.8 70.3,93.2 72.3,93.5 75.7,93.2 76.1,93 		"/>
		<path class="st0" d="M85.7,96.3l-2.1,0.5l-3.2,0.6l-3.5,0.5c0,0-3.7,0.2-3.7,0.2s-2.6-0.3-2.6-0.3c-0.1-0.1-1.8,0.2-1.8,0.2
			l-3.5,0l-3.6-0.5c0,0-3.4-0.4-3.6-0.4s-2.7-0.5-2.7-0.5l-1.5-0.5"/>
		<path class="st0" d="M53.4,101.2l0.9,0.3l2.6,0.6l3.6,0.4c0,0,3.5,0.2,3.6,0.3s3.3-0.3,3.3-0.3l1.3-0.3"/>
		<polyline class="st0" points="67.4,106.7 66.2,107 63.3,107.4 59.9,107.4 56.4,107 54.2,106.2 53.3,105.7 		"/>
		<path class="st0" d="M53.3,110.6l0.6,0.6l2.2,0.7c0,0,3.1,0.3,3.1,0.4c0.1,0,3.4-0.1,3.4-0.1l2.8-0.6l1-0.3"/>
		<path class="st0" d="M65.1,116.6c0,0-0.6-0.2-0.6-0.1c0,0-2.3,0.5-2.3,0.5l-3.3,0.1c0,0-2,0.1-3.1-0.4c-1.1-0.5-1.9-0.9-1.9-0.9
			l-0.9-0.3"/>
		<path class="st0" d="M64,121.2c0,0-0.2,0-0.2,0.1c0,0-1.2,0-2.2,0.2s-3.2,0.2-3.2,0.2s-1.7,0.2-3-0.4c-1.3-0.6-1.6-1-1.6-1
			s-0.9-0.5-1-0.8"/>
		<path class="st0" d="M52.3,124.4c0,0,1,0.4,1,0.5c0,0,1.7,1,1.7,1.1c0,0.1,0.5,0.2,1.3,0.1c0.8-0.1,1.5,0.1,1.5,0.1
			s2.3,0.2,3.1-0.1c0.7-0.3,1.7-0.3,1.9-0.2"/>
		<path class="st0" d="M51.8,129.1c0,0,0.5,0.3,0.5,0.3l1.7,1c0,0,0.6,0.3,1.2,0.4c0.7,0,1.8,0.2,1.8,0.2s1.4-0.2,2-0.2
			c0.5-0.1,1.2,0.1,1.2,0.1s1.4,0,1.5-0.2"/>
		<path class="st0" d="M51.3,133.9l0.4,0.2l1.8,0.8c0,0,0.3,0.6,1,0.5c0.7-0.1,1.7-0.2,1.7-0.2s1.6,0.3,2.3,0.3s1.2-0.1,1.2-0.1
			s1.5,0,1.6-0.3"/>
		<path class="st0" d="M50.7,138.4L50.7,138.4c0.1,0.1,1.5,1.1,2,1.3s2.9,0.4,2.9,0.4l3-0.3c0,0,1.9-0.3,2-0.3"/>
		<path class="st0" d="M50.3,142.6c0.2,0.1,1.6,0.9,1.6,0.9c0,0,2.6,0.8,2.8,0.7c0.2-0.1,3.2,0,3.2,0l2.2,0.2"/>
		<path class="st0" d="M50.5,148.1l0.5,0.2l3,0.2c0,0,1.8-0.4,3-0.2s2.2,0.2,2.2,0.2"/>
		<path class="st0" d="M58.7,151.9c0,0-2.2-0.1-2.3-0.1c-0.1,0-3-0.3-3.1-0.4c-0.2,0-2.1,0.4-2.2,0.4c-0.1,0-0.3,0.5-0.3,0.5"/>
		<path class="st0" d="M50.3,155.1C50.3,155.1,50.4,155.1,50.3,155.1c0.1,0,1.7,0.9,2.2,0.9s2.6,0.8,3.5,0.5
			c0.9-0.3,1.8-0.3,1.8-0.3"/>
		<path class="st0" d="M71.5,101.7c0,0,1.1,0.9,2.3,1c1.3,0.1,3.6,0,3.6,0s3.3-0.3,3.5-0.3c0.2-0.1,3.3-0.4,3.3-0.4l2.1-0.8l0.5-0.2
			"/>
		<path class="st0" d="M72.8,106.4c0,0.1,0.5,0.6,1.6,0.8c1.1,0.2,3.2,0.3,3.2,0.3l3.5-0.3c0,0,2.2,0.1,3.3-0.2
			c1.1-0.3,2.1-0.8,2.1-0.8l0.3-0.1"/>
		<path class="st0" d="M74,111.5l0.7,0l3,0.4l3.4,0.2c0,0,1.4,0.1,3.2-0.4c1.8-0.5,2.3-0.7,2.3-0.7"/>
		<path class="st0" d="M74.8,115.7c0,0,0.1,0.1,0.3,0.2s2.9,0.6,2.9,0.6s2.6,0.3,3.2,0.2c0.7-0.1,1.6,0.1,2.7-0.3c1-0.4,2.4-1,2.4-1
			"/>
		<path class="st0" d="M75.6,120.5c0,0,0.5,0.4,2.6,0.5c2.1,0.2,3.3,0.2,3.3,0.2s1.4,0.4,2.6,0c1.1-0.4,2.2-0.7,2.2-0.7l0.2,0"/>
		<path class="st0" d="M76.3,124.7c0,0,1.1,0.1,1.6,0.4c0.5,0.3,0.6,0.3,0.6,0.3s0.7,0.3,2,0.2c1.3-0.1,1.4-0.2,1.4-0.2
			s1.4,0.4,1.6,0.7c0.1,0.3,0.7-0.5,0.7-0.5l1.8-1.1l0.7-0.4"/>
		<path class="st0" d="M76.7,129.1c0,0,1,0.9,2,0.7c1-0.2,3.4,0.3,3.4,0.3s1.2,0.5,1.7,0.3c0.4-0.2,0.9-0.3,0.9-0.3l1.9-1l0.5-0.4"
			/>
		<path class="st0" d="M77.1,133.4c0,0,0.7,0.3,0.7,0.3l1.3,0.3l2.4,0.7c0,0,1.8,0.3,2.2,0.2c0.3-0.2,1-0.5,1-0.5l1.9-0.8l0.7-0.2"
			/>
		<path class="st0" d="M77.6,138.5c0,0,0.9,0.4,0.9,0.4l0.3,0.1c0,0,1.8,0.5,2.8,0.1c0.9-0.4,1.5,0.2,1.6,0.2
			c0.1,0.1,0.9-0.4,0.9-0.4l0.5-0.2l1.9-0.5l0.9-0.1"/>
		<path class="st0" d="M78.2,143.5c0.1,0,0.7-0.1,0.7-0.1c0,0,2.6-0.2,2.6-0.2s0.9-0.1,1.5,0.4s1.6-0.4,1.6-0.4s2-0.1,2.2-0.5
			c0.3-0.3,0.6-1,0.6-1"/>
		<path class="st0" d="M78.5,147h0.7c0,0,2.8,0.2,2.9,0.2s2.4-0.2,2.9-0.3c0.4-0.2,1.6,0,2-0.3c0.4-0.2,0.7-0.3,0.7-0.3"/>
		<path class="st0" d="M79.1,150.4l0.5,0.1c0,0,1.9,0.2,2.6-0.1c0.7-0.3,2.7-0.4,2.7-0.4l2.3-0.3l0.6,0.1"/>
		<path class="st0" d="M80.1,154.6c0,0,1.4-0.1,2.1-0.4s2.9-0.8,2.9-0.8l2.4-0.4l0.5,0.1"/>
		<path class="st0" d="M66.3,48.7c0-0.1,1.6-1.6,1.6-1.6l0.5-0.3"/>
		<path class="st0" d="M69.4,52.1c0,0,1-0.7,1-0.7"/>
		<path class="st0" d="M71.7,51.8c0,0.1,1.1,0.6,1.1,0.6"/>
		<path class="st0" d="M73.3,47.3c0.1,0,0.5,0.3,0.5,0.3s1,0.7,1,1"/>
		<path class="st0" d="M74.6,43.1c0.1,0,0.6,0.3,0.6,0.4"/>
		<path class="st0" d="M65.6,43.4c0,0,0.7-1,0.7-0.8"/>
		<path class="st0" d="M67.9,60.9c0,0,1.4-0.2,1.8,0c0.4,0.2,0.6,0,0.6,0"/>
		<path class="st0" d="M67.3,55.9c0,0,1.1-0.5,2.2-0.1s1.1,0.3,1.1,0.3"/>
		<path class="st0" d="M66.6,51c0,0,1.4-0.2,1.7-0.1"/>
		<polyline class="st0" points="67,87.7 67.5,87.8 69.6,88 		"/>
		<path class="st0" d="M55.5,61.3c0,0,0.6-0.3,1-0.4c0,0,1-0.5,2.2-0.4c1.3,0,0.3-0.1,2.2,0.1"/>
		<path class="st0" d="M52.9,67.2"/>
		<path class="st0" d="M56,69.1"/>
		<path class="st0" d="M52.8,67.2"/>
		<path class="st0" d="M54.1,69.8c0,0-0.2-0.1,0.9,0.2c1.1,0.3,1.6-0.1,1.8-0.8c0.2-0.6-0.7-0.7-2.1-1c-0.1,0-0.1,0-0.2,0
			c0,0-0.1,0-0.1,0c0,0-0.1,0-0.1,0c-1.1,0-0.3,1.4-0.3,1.6c0,0.1-0.4,0.9-0.4,0.9s-1.9,0.6-1.4,1.5c0.5,0.9,1.5,2,1.7,2
			c0,0,0.4,0.1,0.4-0.7c0-0.7,0-0.6-0.6-1.1c-0.5-0.6-0.8-1.1-0.8-1.1"/>
		<path class="st0" d="M54.2,72.6c0,0,0.5-0.6,0.7-1c0.2-0.4,0.4-1.5,0.4-1.5"/>
		<path class="st0" d="M55,67.4c0.3,0.1,1.1,0.2,1.3,0.3c0.2,0.1,0.8,0.1,0.8,0.1s2-0.7,0-1.6L55.5,66c0,0-1.7,0.6-0.7,1.3
			c0,0,0.2,0.5,0.2,0.9"/>
		<path class="st0" d="M56.2,67.7c-0.3,0.2-0.5,0.5-0.5,0.6c0,0,0,0.1,0,0.1"/>
		<path class="st0" d="M57.6,159.3c0,0-0.3,0.5-1.1,0.8c-0.8,0.3-1.7,1.6-1.7,1.6l-0.5,0.5c0,0,0.7,0.1,0.9,0.1
			c0.2,0,1.9-1.1,2.2-1.3c0.3-0.2,0.2-0.8,0.2-0.8L57.6,159.3c0.6-1.8,0.2-2.9,0.2-2.9"/>
		<path class="st0" d="M54.1,163.5c0,0-0.4,1.3-2.1,1.6s-3.8,0.5-5.8,0.1L46,165c0,0-0.1,0.8,0.3,0.9c0.4,0.1,1.9,0.3,2.4,0.3
			c0.5,0,2.6-0.1,2.7-0.1c0.1,0,1.3-0.3,1.8-0.7c0.5-0.4,0.9-0.8,0.9-1C54.1,164.1,54.1,163.5,54.1,163.5z"/>
		<path class="st0" d="M54.1,163.6c0,0,0.2-1.3,0.3-1.3"/>
		<path class="st0" d="M46,165c0,0-0.1-0.8-0.1-1.4c0-0.5,0.2-1.5,0.9-2c0.6-0.5,1.7-1.8,2.1-2.4c0.3-0.6,0.8-1.2,0.8-1.3
			c0,0,0.7-1.8,0.7-1.8l0.1-0.4"/>
		<path class="st0" d="M83.7,160.7c0,0-1.9-0.2-2.7-0.7c-0.8-0.5-0.9-0.4-0.9-0.7c0-0.2,0-1.5,0-1.5c0,0,2.5,1.4,3.7,1.7l1.1,0.9
			C84.9,160.3,83.7,160.7,83.7,160.7c0,0,0.1-1.2,0.1-1.2"/>
		<line class="st0" x1="55.2" y1="162.4" x2="55.1" y2="161.3"/>
		<path class="st0" d="M84.9,160.3c0,0,0.7,0.2,1.2,1.3c0.5,1.1,4.2,1.5,4.3,1.5s2.2,0.3,2.9,0.1c0.7-0.2,1.6-0.2,1.8-0.5
			c0.2-0.3,0.2-0.7,0.2-0.8s-0.9-1.4-1-1.4c-0.1-0.1-0.3-0.7-1.7-1.6c-1.4-0.9-2.9-2.6-2.9-2.6s-1.5-2-1.9-2.8"/>
		<path class="st0" d="M85.8,161.3c0,0,0.3,1.4,1.2,1.6s3.8,1,4.7,1s2.6-0.3,3-0.4c0.4-0.2,0.5-0.3,0.6-0.3c0,0,0.2-0.3-0.1-1.2"/>
		<path class="st0" d="M80,157.8c0,0-0.2-0.5-0.1-1.3s0.2-1.8,0.2-1.8"/>
		<path class="st0" d="M70.7,38.6c0,0-0.3,0.3-0.7,0.2"/>
		<path class="st0" d="M79,53l5-1.2c0,0,0.3,0,0.1-0.8c-0.2-0.8-0.3-0.9-0.3-0.9l-2.2,0.6l-2.1,0.5"/>
		<path class="st0" d="M79.6,51.1"/>
		<path class="st0" d="M83.6,50c0-0.1,0.1-0.6,0.1-0.6s0-0.1-0.4,0c-0.4,0.1-3.4,0.7-3.4,0.7l-0.2,0"/>
		<path class="st0" d="M76.4,60.6c0,0.1,0.7,5.2,0.7,5.2l0.2,2"/>
		<polyline class="st0" points="78.8,53.6 79,55.7 79.6,60.9 79.9,65.9 80.3,69.5 		"/>
		<line class="st0" x1="80.6" y1="46.9" x2="81.3" y2="49.7"/>
		<path class="st0" d="M82.4,70.5L82,65.7l0.2-5.1c0,0,0-1.4,0.1-2c0.1-0.5-0.1-3.2-0.1-3.2l-0.3-3.2l-0.2-1.6l0,0"/>
		<path class="st0" d="M81.8,40.7c0,0,0.7,1.1,0.7,1.2s1.2,3.3,1.2,3.6c0,0.2,0.9,4.9,0.9,4.9s0.3,2.8,0.1,5.1
			c-0.2,2.3-0.5,5.3-0.5,5.3l-0.1,5.3L84,71l0.1,0.5"/>
		<path class="st0" d="M84.6,64.7l0.4-6.8l0.9-7.9l0.6-6.3c0,0-0.1-0.2-0.1-0.3S85.7,42,85.7,42"/>
		<path class="st0" d="M87.2,42.1l0.6,1l0.6,1.5c0,0,1,3.2,1.2,5s0.4,5.1,0.4,5.2s1,4.9,1,4.9l0.9,4.9l0.5,3.6c0,0-0.9,0.5-0.9,1.2
			s0.1,1,0.3,2.1c0.1,1.1,0.3,2,0.3,2.8c0,0.8,0.2,1.3,0.3,1.8c0.1,0.5,0.2,0.9,0.1,1.4C92.3,78,92,79.1,92,79.1"/>
		<path class="st0" d="M86.3,46.7l0.7,3.1l0.8,5.1l0.6,5.1l0.4,5.2c0,0,0.4,1.6,0.4,2.4s0.6,1.4,0.6,1.4l-0.3,2.5l-0.2,2.2l-0.1,0.6
			"/>
		<path class="st0" d="M85,58.2l0.3,2.6l1,4.7c0,0,0.9,4.1,0.9,4.6c0,0.5,0.3,1.6,0.3,1.7c0,0.1-0.1,1.5-0.1,1.5"/>
		<polyline class="st0" points="77.4,40.6 77,42.3 75.9,46.2 75,50.5 74.2,54.6 		"/>
		<polyline class="st0" points="80.8,40.5 80.8,40.7 80.4,43.3 80.4,43.4 79.4,47.5 78.3,51.8 77,56.4 75.8,60.9 75,64.4 		"/>
		<polyline class="st0" points="66.3,61.9 66,60.9 64.6,56.4 63.1,51.9 61.9,47.5 60.7,43.3 60,40.7 59.9,40.3 		"/>
		<polyline class="st0" points="66.6,51 65,45.8 63.9,41.9 63.5,40.3 63.4,40 		"/>
		<path class="st0" d="M58.3,40.7l-0.5,1.2l-1.1,3.6c0,0-0.9,3.2-0.5,5.4c0.4,2.2,0.7,3,0.7,3l0.1,1.4l0.2,5.4l0.2,2.9"/>
		<path class="st0" d="M60,45.2c0.1,0-0.8,5-0.8,5l-0.6,5.2c0,0-0.1,1.4,0.1,2.8c0.2,1.4,0.2,2.3,0.2,2.3l0,2.3"/>
		<path class="st0" d="M59.4,63.3"/>
		<polyline class="st0" points="62.4,52.3 62,55.2 61.7,59.4 		"/>
		<path class="st0" d="M51.1,67.7l-0.4-0.6l0.4-1.8l0.9-5l0.8-4.8l1-5.2c0,0,0.7-2.4,0.8-2.6"/>
		<path class="st0" d="M52.9,42.3l0.3,0.6c0,0-0.8,0.4-0.9,1s-0.1,1.1-0.1,1.2s-1,5.2-1,5.2l-1,5c0,0-0.6,2-0.8,2.3
			s-0.4,2.2-0.4,2.2s0,2.2,0,2.6c0,0.3-1,2-1,2s-0.7,1.7-0.6,2l1.1,0.9l2.1,1"/>
		<polyline class="st0" points="50.2,71 47.3,69.9 46.2,68.5 45.9,66.2 47.2,58.7 		"/>
		<path class="st0" d="M51.2,75.2c0,0-3.9-1.9-4-1.9s-1.7-2-1.7-2l-0.7-2.2"/>
		<path class="st0" d="M48,55c0,0,1.1-0.2,2.2,0.1c0,0,2.2-0.1,2.7,0.2c0,0,1.4-0.1,2.3,0.4l0.3,0.1"/>
		<path class="st0" d="M47,59.4c0,0,1.8,0.4,1.9,0.4c0,0,3.2,0.6,3.2,0.6l3.4,0.6"/>
		<path class="st0" d="M54.9,65.3c0,0,1-0.8,1-0.8s-0.1-0.5-0.2-1.3c-0.2-0.8-0.2-0.2-0.2-0.2S55.1,65.4,54.9,65.3
			c-0.4,0-1.1,0.6-1.1,0.6l-2.6-0.6l-3.2-0.9l-1.6-0.5L46,63.7"/>
		<path class="st0" d="M45.1,67.8"/>
		<path class="st0" d="M50.3,74.9"/>
		<line class="st0" x1="79" y1="93.3" x2="79.1" y2="96"/>
		<line class="st0" x1="81.7" y1="96" x2="81.5" y2="93.9"/>
		<path class="st0" d="M84.5,95.4c0,0-0.2-3.2-0.1-4l-0.1-1.7"/>
		<path class="st0" d="M86.7,94.7c0-0.1-0.4-3.1-0.4-3.7l-0.3-4.1"/>
		<path class="st0" d="M58.4,95.9l-0.3,1.2l-1.1,5.1l-0.6,4.8l-0.3,5l-0.2,4.7l-0.6,4.9c0,0-0.4,4.4-0.4,4.5c0,0.1-0.8,4-0.9,4.3
			c-0.1,0.2-0.6,3.8-0.6,4.7c0,0.9-0.7,4.2-0.7,4.6s-0.5,3-0.8,3.6c-0.3,0.7-0.8,5.1-0.8,5.1s0,3.3,0,3.5c0,0.2-0.8,3.7-0.8,3.6"/>
		<polyline class="st0" points="55.5,95.4 55.4,96.6 54.5,101.5 54.2,106.2 54,111.2 54,115.8 53.7,120.8 53.3,124.8 52.2,129.3 
			51.6,134.1 50.5,140 		"/>
		<path class="st0" d="M62,96.1c0,0-0.4,1.3-0.4,1.3l-1,5l-0.7,4.9l-0.6,4.9L59,117l-0.6,4.7l-0.6,4.7L57,131l-0.8,4.4l-0.6,4.9
			l-1,4c0,0-0.4,4.2-0.5,4.3c0,0-1.1,4.3-1.1,4.6c0.1,0.2-0.5,3-0.5,3.2l-0.1,0.3"/>
		<path class="st0" d="M67.4,86.8l0.1,1L66.6,93l-1.4,4.9c0,0-0.7,3.5-1,4.9s-0.9,4.7-0.9,4.7l-0.7,4.7l-0.4,4.9l-0.7,4.6l-0.6,4.6
			l-0.7,4.4l-0.6,4.8c0,0-0.6,3.7-1,4.4c-0.4,0.7-0.7,2.7-0.7,4.2s0.1,2.2-0.7,4.3c0,0-0.5,0.5-0.6,1.4c0,0.9-0.4,5.9-0.4,6.6
			c0,0.7,0,0.7,0,0.7"/>
		<path class="st0" d="M71,88.9c0,0-0.6,3.8-0.8,4.3c-0.2,0.6-1.5,4.8-1.5,4.8l-1.4,4.6c0,0-0.9,3.5-1.1,4.6s-0.8,4.4-0.8,4.4
			l-0.9,5.1l-0.8,6"/>
		<polyline class="st0" points="71.6,89.2 72.3,93.5 73.2,98.3 73.8,102.7 74.3,107.1 74.7,111.5 75.1,115.8 75.7,121.1 		"/>
		<path class="st0" d="M75.5,91.4l0.3,1.6l1,4.8l0.6,5l0.2,4.8l0.2,4.2l0.2,4.6l0.2,4.6l0.2,4.6l0.2,4.1l0.4,4.4l-0.3,5l0.1,4.4
			c0,0,0.6,4.4,0.6,4.4s0.4,4.1,0.4,4.1v1.3"/>
		<polyline class="st0" points="80.1,96.2 80.4,97.3 80.9,102.5 81.1,107.2 81.1,112 81.2,116.7 81.5,121.1 81.9,125.5 82,130 
			81.5,134.9 81.6,139.1 81.4,143.2 82.2,147.2 82.2,150.5 82.2,154 82.3,155.1 		"/>
		<path class="st0" d="M85.6,95.1c0,0,0.3,1.2,0.3,1.2l0.6,5.2c0,0,0,4.5,0,4.7s0,5.3,0,5.3v0.7"/>
		<path class="st0" d="M86.2,117.8v4c0,0-0.2,2.6-0.3,2.7c0,0.1,0.5,4.7,0.5,4.7l0.1,4.7l-0.1,4.2l0.3,4.4c0,0,0.3,6.2,0.3,6.3
			c0,0.1,0.6,4.6,0.6,4.6"/>
		<line class="st0" x1="86.8" y1="95.9" x2="85.7" y2="96.3"/>
		<path class="st0" d="M69.5,42.2c0,0-0.9,4.5-0.5,5.9l-1.1-1l-2.1-2.2"/>
		<polyline class="st0" points="72.5,49.7 73.9,47.7 75,46.1 		"/>
		<path class="st0" d="M69.3,52.1c0.1,0.1,0.2,3.8,0.2,3.8l0.2,4.9l0.1,3"/>
		<path class="st0" d="M71.1,42.2c0,0,1.6,5.5,1.5,7.2"/>
		<path class="st0" d="M70.6,55.8c0,0,1.9,0,2.2,0.1c0.3,0.1,1.3,0.2,1.3,0.2"/>
		<path class="st0" d="M70.2,60.9c0,0,1.2,0.1,1.9,0s1.5-0.1,1.5-0.1"/>
		<path class="st0" d="M72.8,52.5c0,0,0.2,1.5,0.1,2.2s0,1.2,0,1.2l0.2,4.9l0.2,4.3"/>
		<path class="st0" d="M47.3,74.5c-0.2-0.3-0.3-1.5-0.3-1.5l0.3-3.2l1.9-2.4l1.5-0.3l0.8,0.2"/>
		<path class="st0" d="M92.1,79.3c0,0-0.1,1.1-0.8,2.4c-0.7,1.3-2,1.1-2,1.1s1.1-0.1,2.1-1.9c0.9-1.8-0.5-2.7-0.5-2.7
			s0.2-0.3,0.3-0.7C91.1,77.4,91.9,77.8,92.1,79.3c0.2,1.6,0.3,2.5,0.3,2.5s0.2,0.6,0.3,0.5"/>
		<path class="st0" d="M91.1,77.4c0.3-1.1-1.6-1-1.7-1l-0.1,0"/>
		<path class="st0" d="M90.8,78.1c0,0-0.1,0.1-0.2,0.4"/>
		<path class="st0" d="M88.9,79.4c0.1,0,0.8-0.3,1-0.1s0.4,0,0.4,0"/>
		<path class="st0" d="M88,83.9c0,0,0,0.1,0.3-0.1c0.3-0.3,0.8-1,1-1"/>
		<path class="st0" d="M56,65.8c0.1,0,0.1,0,0.2,0c0,0,0,0,0,0c0.2,0,1.6,0.2,2.2-0.4c0.6-0.7,1-1.7,1-1.8s-0.3-1.2-1.1-0.5
			c-0.8,0.7-2.4,1.4-2.6,1.7c-0.1,0.1-0.3,0.3-0.4,0.4c-0.2,0.1-0.1,0.4,0.1,0.5c0.1,0,0.2,0.1,0.3,0.1c0,0,0.4,0.4,0.8,0.4"/>
		<path class="st0" d="M53,73.1c0,0-0.7,0.4-0.4,0.9c0.3,0.5,0.8,1.3,0.9,1.3c0.1,0,0.6-0.6,0.2-1.4"/>
		<path class="st0" d="M51.6,72.8c0,0,0.9,0.9,1,1.3"/>
	</g>
</g>
</svg>
