<?xml version="1.0" encoding="utf-8"?>
<!-- Generator: Adobe Illustrator 24.0.1, SVG Export Plug-In . SVG Version: 6.00 Build 0)  -->
<svg version="1.1" id="Layer_1" xmlns="http://www.w3.org/2000/svg" xmlns:xlink="http://www.w3.org/1999/xlink" x="0px" y="0px"
	 viewBox="0 0 878 790.1" style="enable-background:new 0 0 878 790.1;" xml:space="preserve">
<style type="text/css">
	.st0{fill:#010202;}
	.st1{fill:none;stroke:#FFFFFF;stroke-width:1.5;stroke-miterlimit:10;}
</style>
<g id="Layer_2_1_">
	<rect class="st0" width="878" height="790.1"/>
</g>
<g>
	<g>
		<path class="st1" d="M345.1,126.4c-3.5,5-6.2,10.4-7.8,16.3c-1,3.4-1.7,6.9-2.2,10.4c-0.4,2.4-0.6,4.9-0.7,7.4
			c-0.1,3.8-0.5,7.5-0.2,11.3c0.3,5,0.5,10.1,1,15.1c0.4,3.7,0.4,7.5,0.7,11.3c0.3,3,0.4,6,0.9,8.9c0.3,1.6,0.3,3.4,0.3,5
			c0.2,6.6,0.3,13.1,0.2,19.7c-0.4,18.1-1.3,36.5-3.5,54.5c-0.3,2.7-0.6,5.5-0.9,8.2c-0.3,3.2-0.6,6.4-0.9,9.6
			c-0.3,2.5-0.4,4.9-0.7,7.4c-0.4,3.9-1.2,7.8-2.1,11.6c-0.5,2.1-0.9,4.2-1.8,6.2c-0.2,0.4,0,1,0,1.5c0,0,4.7,6,33,7.7
			c0.2,0,0.3-0.1,0.5-0.2c0.2-1.6,0.3-3.3,0.5-5c0.4-4.2,0.8-8.4,1.4-12.6c1.8-12.6,2.5-25.3,2.7-38c0.2-12.4,0.8-24.6,1.1-37
			c0.7-26.8-2.7-52.7-8.5-78.7c-1.1-4.8-2.2-9.5-3.3-14.3c-1.9-8.1-4.3-16-7.4-23.7c-0.2-0.6-0.6-1.2-1-1.7
			c-3.2-4.5-10.8-5.2-15.7-6.9c-7.9-2.8-16.3-5.8-23.2-10.5"/>
		<path class="st1" d="M275.6,100.7c0.1,0.7,0.2,72,0.2,106.9c0,1,0.1,1.9,0.3,2.9"/>
		<path class="st1" d="M275.6,215.6c3.8-14.4,8.1-29.1,10.4-43.9c1.7-11,3.6-21.9,5.5-32.8c1.1-6.2,2.2-12.6,3.2-18.9
			s1.4-12.6,1.8-19c0.1-2.5-1.8-4.8-3.7-6.2c-2.2-1.6-5-2.2-7.6-2.7c-5.5-1.2-11.2-0.9-16.7-0.3c-3.7,0.4-7.8,1.2-10.7,3.6
			c-2.3,1.8-3.2,4.5-2.8,7.4c0.1,0.4,0.1,0.8,0.2,1.2c0.2,2.2,0.5,4.5,0.7,6.7c0.7,6.7,1.5,13.4,2.6,20.1c1.2,6.9,2.4,13.8,3.6,20.6
			c2.3,13.4,5.1,26.7,8.1,39.9c0.7,3.4,1.5,6.7,2.4,10c0.8,3,1.6,5.2,2.2,7.2c0.6,2.1,1.4,3.9,1.1,6.3c-0.9,7-5.4,33.3-6.6,40.4
			l-1.1,7c-0.3,2.7-0.6,5.4-0.9,8.1c-0.5,4.5-0.5,9.1-0.5,13.7c0,2.4,0.1,4.7,0.1,7.1c0.1,5.4,0.5,10.9,0.9,16.3
			c0.2,3.4,0.6,6.7,0.8,10.1c0.1,2.1,0.3,4.2,0.7,6.2c0.5,3.2,0.9,6.5,1.5,9.8c0.8,4.5,2,8.8,4.4,12.8c2.6,4.4,6.8,6.9,11.1,9.2
			c3.4,1.9,7,3.3,10.7,4.3c10.9,2.9,21.7,1.3,32.5-0.9c4-0.8,7.8-2.1,11.8-2.9c1.2-0.3,1.7-0.8,1.7-2c0-3.4-0.1-6.7-0.6-10.1
			c-0.3-2.3-0.6-4.7-0.4-7.1"/>
		<path class="st1" d="M244,110.2c-6.3,2.8-12.6,5.6-18.9,8.3c-5.5,2.4-11.4,5.8-17.5,6.4c-1.6,0.2-2.6,1.7-3.1,3
			c-2.8,7.4-5.6,14.8-7.4,22.5c-1.6,6.6-3,13.3-4.5,19.9c-2.6,11.7-5.5,23.9-6.9,36c-1.4,12.4-0.6,24.8-0.2,37.2
			c0.5,15.2,0.4,30.4,0.5,45.5c0.1,14.7,2.7,29.1,4,43.7c0.2,1.8,0.2,3.7,0.3,5.5c15.7,1.7,33.4-7.3,33.4-7.3c0.1-0.4,0.2-0.7,0-1.2
			c-0.5-1.4-0.8-2.9-1.2-4.4c-1.1-4-1.7-8.2-2.4-12.3c-0.3-2.1-0.3-4.3-0.5-6.4c-0.5-5-1.1-10.1-1.3-15.1c-0.1-2.1-0.3-4.2-0.6-6.2
			c-0.2-1.8-0.4-3.7-0.7-5.6c-0.6-4.8-1-9.6-1.4-14.5s-0.7-9.9-1-14.8c-0.3-5-0.7-10.1-0.6-15.1c0-9.1-0.4-18.3,0.5-27.4
			c0.4-4.2,0.8-8.4,1.1-12.6c1.1-14.2,2.8-28.6,0.6-42.7c-0.7-4.7-1.9-9.4-3.5-14c-1.6-4.4-3.5-8.6-6.5-12.3"/>
		<path class="st1" d="M209.4,336.9c0.3,2.4-0.2,4.8-0.3,7.2c-0.2,3.3-0.8,6.6-0.9,9.9c0,1.1,0.5,1.5,1.4,1.7c4,1,8.1,2.1,12.1,3
			c7.9,1.8,16.1,3.1,24.3,2.5c5.5-0.4,10.8-1.9,15.8-4.1c2.4-1.1,4.8-2.3,7-3.7c2.4-1.6,4.4-3.6,6.7-5.4"/>
		<path class="st1" d="M238.2,217.9c0,20.8,0,41.7,0,62.5c0,0.9,0,1.7,0.3,2.5"/>
		<path class="st1" d="M312.8,217.9c0,20.8,0,41.7,0,62.5c0,0.9,0,1.7-0.3,2.5"/>
		<path class="st1" d="M295.9,193.7c3.4-0.7,12.3-2,15.7-2.7c3.8-0.8,7.7-1.1,11.6-1.4c0.7-2.8,0.4-5.6,0.7-8.4
			c-3.2,0.1-22.8,3.6-24.2,3.8"/>
		<path class="st1" d="M306.2,281.5c-1.2,2.4-1.6,4.3,1.8,5.4c8.2,2.5,16.3,2.9,24.7,4"/>
		<path class="st1" d="M245.1,281.6c0.3,1.7,0.8,3.2-0.6,4.3c-2.2,1.9-6.1,2.5-8.9,3.1c-5.6,1.3-11.4,1.9-17.2,1.8"/>
		<path class="st1" d="M306.2,281.5c0.5-0.6,13,2.9,19.6,3.7c2.4,0.3,4.9,0.5,7.4,0.7"/>
		<path class="st1" d="M295.5,104.4c-2.5-1-5-2.1-7.7-2.8c-3.8-1-7.6-1.2-11.4-1.3c-5.2,0-10.3,0.8-15.3,1.8
			c-1.9,0.4-3.8,0.9-5.6,1.7"/>
		<path class="st1" d="M245,281.5c-1.8,0.2-3.4,0.9-5.1,1.3c-6.6,1.6-13.2,2.7-19.9,2.8c-0.6,0-1.2,0-1.9,0"/>
		<path class="st1" d="M270.9,266.1c2.9,0.2,5.9,0.5,8.9,0.5"/>
		<path class="st1" d="M268.6,97c-0.9,0.3-0.4,1-0.5,1.6h14.3c0.3-0.5,0.3-1,0-1.6h-13.6"/>
		<path class="st1" d="M327,330.3c0,0,28.6,0.2,33.9,7.8"/>
		<path class="st1" d="M223.7,330.9c0,0-11.4-6.2-33.5,7.6"/>
		<path class="st1" d="M296.8,100c7.2,0.7,20.6,28.9,20.6,28.9s4.5,6,0.4,18.2c0,0-43.7,86.8-48.2,105.4"/>
		<path class="st1" d="M254,100.4c-7.8,3.1-19.5,27.4-19.5,27.4s-3.6,10,0.4,18.2c0,0,35.2,71.3,37.7,85.2"/>
		<line class="st1" x1="357.9" y1="329" x2="351.1" y2="327.7"/>
		<path class="st1" d="M359,328.7c0,1.1-0.9,2-2,2s-2-0.9-2-2s0.9-2,2-2C358.1,326.6,359,327.5,359,328.7"/>
		<path class="st1" d="M359,328.7c0,1.1-0.9,2-2,2s-2-0.9-2-2s0.9-2,2-2C358.1,326.6,359,327.5,359,328.7z"/>
		<line class="st1" x1="358.6" y1="325.7" x2="351.9" y2="324.4"/>
		<path class="st1" d="M359.7,325.4c0,1.1-0.9,2-2,2s-2-0.9-2-2s0.9-2,2-2S359.7,324.3,359.7,325.4"/>
		<path class="st1" d="M359.7,325.4c0,1.1-0.9,2-2,2s-2-0.9-2-2s0.9-2,2-2S359.7,324.3,359.7,325.4z"/>
		<line class="st1" x1="359" y1="322.3" x2="352.3" y2="321"/>
		<path class="st1" d="M360.2,322c0,1.1-0.9,2-2,2s-2-0.9-2-2s0.9-2,2-2S360.2,320.9,360.2,322"/>
		<path class="st1" d="M360.2,322c0,1.1-0.9,2-2,2s-2-0.9-2-2s0.9-2,2-2S360.2,320.9,360.2,322z"/>
		<line class="st1" x1="359.4" y1="319.3" x2="352.7" y2="318"/>
		<path class="st1" d="M360.5,319c0,1.1-0.9,2-2,2s-2-0.9-2-2s0.9-2,2-2C359.6,316.9,360.5,317.9,360.5,319"/>
		<path class="st1" d="M360.5,319c0,1.1-0.9,2-2,2s-2-0.9-2-2s0.9-2,2-2C359.6,316.9,360.5,317.9,360.5,319z"/>
		<line class="st1" x1="359.5" y1="316.3" x2="352.8" y2="315"/>
		<path class="st1" d="M360.7,316c0,1.1-0.9,2-2,2s-2-0.9-2-2s0.9-2,2-2S360.7,314.9,360.7,316"/>
		<path class="st1" d="M360.7,316c0,1.1-0.9,2-2,2s-2-0.9-2-2s0.9-2,2-2S360.7,314.9,360.7,316z"/>
		<line class="st1" x1="192.7" y1="316.5" x2="199.6" y2="316.2"/>
		<path class="st1" d="M191.7,317.1c-0.3-1.1,0.4-2.2,1.5-2.4c1.1-0.3,2.2,0.4,2.4,1.5c0.3,1.1-0.4,2.2-1.5,2.4
			C193.1,318.9,192,318.2,191.7,317.1"/>
		<path class="st1" d="M191.7,317.1c-0.3-1.1,0.4-2.2,1.5-2.4c1.1-0.3,2.2,0.4,2.4,1.5c0.3,1.1-0.4,2.2-1.5,2.4
			C193.1,318.9,192,318.2,191.7,317.1z"/>
		<line class="st1" x1="192.8" y1="319.9" x2="199.7" y2="319.6"/>
		<path class="st1" d="M191.8,320.5c-0.3-1.1,0.4-2.2,1.5-2.4c1.1-0.3,2.2,0.4,2.4,1.5c0.3,1.1-0.4,2.2-1.5,2.4
			C193.2,322.2,192.1,321.6,191.8,320.5"/>
		<path class="st1" d="M191.8,320.5c-0.3-1.1,0.4-2.2,1.5-2.4c1.1-0.3,2.2,0.4,2.4,1.5c0.3,1.1-0.4,2.2-1.5,2.4
			C193.2,322.2,192.1,321.6,191.8,320.5z"/>
		<line class="st1" x1="193.2" y1="323.3" x2="200" y2="323"/>
		<path class="st1" d="M192.2,323.9c-0.3-1.1,0.4-2.2,1.5-2.4c1.1-0.3,2.2,0.4,2.4,1.5c0.3,1.1-0.4,2.2-1.5,2.4
			C193.5,325.6,192.4,325,192.2,323.9"/>
		<path class="st1" d="M192.2,323.9c-0.3-1.1,0.4-2.2,1.5-2.4c1.1-0.3,2.2,0.4,2.4,1.5c0.3,1.1-0.4,2.2-1.5,2.4
			C193.5,325.6,192.4,325,192.2,323.9z"/>
		<line class="st1" x1="193.6" y1="326.3" x2="200.4" y2="326"/>
		<path class="st1" d="M192.6,326.9c-0.3-1.1,0.4-2.2,1.5-2.4c1.1-0.3,2.2,0.4,2.4,1.5c0.3,1.1-0.4,2.2-1.5,2.4
			S192.8,328,192.6,326.9"/>
		<path class="st1" d="M192.6,326.9c-0.3-1.1,0.4-2.2,1.5-2.4c1.1-0.3,2.2,0.4,2.4,1.5c0.3,1.1-0.4,2.2-1.5,2.4
			S192.8,328,192.6,326.9z"/>
		<line class="st1" x1="194.1" y1="329.2" x2="201" y2="328.9"/>
		<path class="st1" d="M193.1,329.8c-0.3-1.1,0.4-2.2,1.5-2.4c1.1-0.3,2.2,0.4,2.4,1.5c0.3,1.1-0.4,2.2-1.5,2.4
			C194.5,331.6,193.4,330.9,193.1,329.8"/>
		<path class="st1" d="M193.1,329.8c-0.3-1.1,0.4-2.2,1.5-2.4c1.1-0.3,2.2,0.4,2.4,1.5c0.3,1.1-0.4,2.2-1.5,2.4
			C194.5,331.6,193.4,330.9,193.1,329.8z"/>
		<path class="st1" d="M272.2,266.5c0,1.4,1.1,2.5,2.5,2.5s2.5-1.1,2.5-2.5s-1.1-2.5-2.5-2.5S272.2,265.1,272.2,266.5"/>
		<path class="st1" d="M272.2,266.5c0,1.4,1.1,2.5,2.5,2.5s2.5-1.1,2.5-2.5s-1.1-2.5-2.5-2.5S272.2,265.1,272.2,266.5z"/>
	</g>
	<g>
		<g>
			<polyline class="st1" points="510.8,125.6 510.8,367.8 598.4,367.8 			"/>
			<path class="st1" d="M510.9,270.2c0,0,8.5-1.3,10.7-0.5"/>
			<path class="st1" d="M559.7,267.8c0,0.5-17.6-0.4-19.6-0.5c-4.4-0.3-8.8-0.3-13.2,0.5c-8.7,1.7-14.2,8.2-15.3,16.8
				c-0.6,4.2-0.7,8.7-0.5,13c0.3,8.8,1.4,17.5,2.5,26.3c0.4,3,0.9,6,1,9c0.3,8.7,0.1,33.1,0.1,33.1s38.2,2.1,46.5,0
				C569.6,363.8,564.9,315.3,559.7,267.8z"/>
			<path class="st1" d="M544.7,114.3c-1.3-0.8-5.5,3.2-11.7,5.9c-6.1,2.7-22.2,5.5-22.2,5.5"/>
			<path class="st1" d="M647.5,113.7c1.3-0.8,6.8,3.8,12.9,6.5c6.1,2.7,22.2,5.5,22.2,5.5"/>
			<path class="st1" d="M600.6,178c14.8-7.5,26.1,19.5,26.1,19.5c1.3-9.9,2.4-14,5.4-23.6c5.6-18.1,20.6-34.8,17.1-54.9
				c-0.8-4.6-3.4-9.8-6.7-13.2c-6.4-6.7-15.8-9.3-25.2-10.1c-7.2-0.6-13.7-0.3-20.9-0.1c-7.2-0.2-13.8-0.5-21.1,0.1
				c-9.4,0.8-18.8,3.4-25.2,10.1c-3.3,3.4-5.9,8.6-6.7,13.2c-3.5,20.1,11.5,36.8,17.1,54.9c2.9,9.6,4.1,13.3,5.3,23.2
				c0,0,16.2-24.7,30.9-17.2"/>
			<path class="st1" d="M606.2,367.5c0,0,0.7-157.4,0.7-172s-10.2-15.6-10.2-15.6s40.9-18.1,38-55.7c-1.9-23.9-34.6-17.4-38-17.4
				l0,0c-11.3-0.6-25.4-3-33.9,6.8c-2.6,3-3.8,6.7-4.1,10.6c-2.9,37.6,38,55.7,38,55.7s-10.2,1-10.2,15.6s0.7,171.7,0.7,171.7"/>
			<path class="st1" d="M562.1,365.4c-5.2-6.1-2.5-97.5-2.5-97.5"/>
			<path class="st1" d="M559.3,267.8c-7.3,9.5-4.7,82.2,2.2,97.5"/>
			<path class="st1" d="M542.2,279.9c0,2.6-2.1,4.7-4.7,4.7c-2.6,0-4.7-2.1-4.7-4.7s2.1-4.7,4.7-4.7S542.2,277.3,542.2,279.9z"/>
			<path class="st1" d="M600.6,243.8c0,2.1-1.7,3.8-3.8,3.8s-3.8-1.7-3.8-3.8s1.7-3.8,3.8-3.8C598.9,240,600.6,241.7,600.6,243.8z"
				/>
			<path class="st1" d="M600.6,186.3c0,2.1-1.7,3.8-3.8,3.8s-3.8-1.7-3.8-3.8s1.7-3.8,3.8-3.8C598.9,182.5,600.6,184.2,600.6,186.3z
				"/>
			<path class="st1" d="M600.6,305.1c0,2.1-1.7,3.8-3.8,3.8s-3.8-1.7-3.8-3.8c0-2.1,1.7-3.8,3.8-3.8
				C598.9,301.3,600.6,303,600.6,305.1z"/>
			<g>
				<polyline class="st1" points="682.6,125.6 682.6,367.8 595.1,367.8 				"/>
			</g>
		</g>
		<line class="st1" x1="611.8" y1="178.4" x2="611.8" y2="368"/>
		<line class="st1" x1="619.6" y1="185.6" x2="619.6" y2="367.8"/>
		<line class="st1" x1="626.2" y1="194.6" x2="626.2" y2="367.8"/>
		<line class="st1" x1="581.1" y1="181.1" x2="581.1" y2="368"/>
		<line class="st1" x1="574.3" y1="187.1" x2="574.3" y2="367.8"/>
		<line class="st1" x1="566.8" y1="195.1" x2="566.8" y2="368.8"/>
	</g>
	<g>
		<path class="st1" d="M247.1,424.1c0,0-1.5,44.3,32.8,62.8c0,0,28.2-16.8,24.7-62.7"/>
		<path class="st1" d="M243.8,424.9c0,0-1.7,46.9,36.2,66.4c0,0,31.2-17.8,27.3-66.3"/>
		<path class="st1" d="M163.1,505.9c0,0,17.1,12.2,42.3,18.7"/>
		<path class="st1" d="M346.2,524.6c0,0,20.9-4.4,42.4-18.7"/>
		<path class="st1" d="M211.6,514.6v-1.9c0,0-12.6-72.4-3.7-72.4"/>
		<path class="st1" d="M339.9,514.6v-1.9c0,0,12.6-72.4,3.7-72.4"/>
		<path class="st1" d="M279.9,428.3c-18,0.5-32.8-4.2-32.8-4.2l-35.5,15.2c-18.6,3.7-27.9,26.2-27.9,26.2l-22.4,43.9
			c0,0,4.4,6.3,42.1,19.9c0,0,4.9-9.4,8.2-14.6c0,0,5.7,80.3-3,169.2c-0.3,2.7-0.5,5.4-0.8,8.1c0,0,9.8,6.8,72.1,6.8"/>
		<path class="st1" d="M270.1,698.8h1.6c62.3,0,72.1-6.8,72.1-6.8c-0.2-1.8-0.4-3.7-0.6-5.5c-9-89.9-3.3-171.8-3.3-171.8
			c3.3,5.2,8.2,14.6,8.2,14.6c37.7-13.6,42.1-19.9,42.1-19.9l-22.4-43.9c0,0-9.3-22.5-27.9-26.2l-35.5-15.2c0,0-14.8,4.7-32.8,4.2"
			/>
		<path class="st1" d="M208.7,687.4c0,0,63.7,14.2,135,0"/>
	</g>
	<g>
		<path class="st1" d="M585.1,593.5c0,0,16.6,32,24.7,41.4c9.3,10.8,18.1,40.9,15.9,35.1c0,0,7.1,9.7-21.5,21.4
			c-28.6,11.8-73.9-30.5-84.2-38c-9.9-7.1-15.5-46.4-20.5-47.8l-2.7,1.7c0,0-14.8-19.3-16-28.1c-1.3-8.9-0.7-5.5-1.3-12.7
			c-0.7-7.1-8.1-9.2,6-56.9c3.2-10.9,16.8-4.8,21.8-1.8c0,0,11.6,10.2,11.2,6.2c-3.6-43,10.5-40.4,10.5-40.4s4.5-1.4,15.7,4
			c17.7,8.5,52.4,14.4,52.4,14.4s1.7-0.1,3.1,1.3c38.1,36.9,44.1,36.9,44.1,36.9c83.1,42,71.8,62.3,71.8,62.3s1.5,9.8-14.6,17.1
			c-8.8,4-84.2-8.2-93.4-24.4c-17-29.9-36.1-31-36.1-31s-1.7,5.3-3.3,6.1c-1.7,0.8-3.6,1-3.6,1C564.4,562.3,585.1,593.5,585.1,593.5
			z"/>
		<path class="st1" d="M485.4,509.9c0,0,0,50,29,40.3c29-9.7,28.7,0.1,31.2,10.9c2.6,10.9,15.8,39.9-6.6,47.1
			c-22.4,7.2-15.7,9.2-21.8,10.8"/>
		<path class="st1" d="M503.4,505.6c0,0,36.2,29.6,42.8,29.6"/>
		<path class="st1" d="M585.1,593.5c0,0-3.1-4.4-12.4-4c-9.2,0.4-16.6-8.5-30.2-44.1"/>
		<path class="st1" d="M597.3,504.9c0,0,12.3-10.6,10.6-3.7"/>
		<path class="st1" d="M604.6,514.1c0,0,12-9,11.3-6.2"/>
		<path class="st1" d="M611.3,524c0,0,15.2-11.5,13.6-7.5"/>
		<path class="st1" d="M617.7,532.6c0,0,15-10.1,14.5-8.3"/>
		<path class="st1" d="M575.6,504.1c0,0,11.8-15.7,14.2-11.7c1.5,2.4,2.8,2.8,2.8,2.8"/>
		<path class="st1" d="M612.5,511.3c0,0,18.8,23.6,27.3,22.1c5.6-1,4.7-2.2,7.5-1.7"/>
		<line class="st1" x1="592.4" y1="552.5" x2="607.9" y2="564.1"/>
		<path class="st1" d="M595.9,547c0,0-15.4-15.6-35.1-16.1c-4.8-0.1-10.5,5.5-10.5,5.5"/>
		<path class="st1" d="M514.2,549.7c0,0,12.3-20.7,29.7-14.8"/>
		<path class="st1" d="M523.4,547.9c0,0,12.9,35.2,0,44.7c-2.8,2.2-6.9,6.4-13.3,10.7"/>
		<line class="st1" x1="496.1" y1="606.6" x2="495.5" y2="593.3"/>
		<path class="st1" d="M546.5,535.3c0,0-6.2,0.5-4,10.1"/>
		<path class="st1" d="M544.8,534.8c0,0,3.4-0.5,4.6,0c1.3,0.6,10.9,23,15.5,26.5"/>
		<path class="st1" d="M521.4,479.3c0,0-4,4.1,6.9,13.4c10.8,9.1,27.9,26.7,46.5,12c18.7-14.8,27.4-12.8,39,9.1
			c11.6,22,17.5,20.6,7.7,31.7c-9.8,11.2-13.8,18.7-13.8,18.7"/>
		<path class="st1" d="M540.7,502.9c0,0,17.7-1.6,28.7,5"/>
		<path class="st1" d="M582.4,499.3c0,0,25.8,27.7,18.8,39.4c-7.1,11.7-8.7,13.8-8.7,13.8"/>
		<path class="st1" d="M555.3,546.2c0,0,17.2,2.5,26.2,10.9"/>
		<path class="st1" d="M492.6,541c0,0,20.2-2.3,28.8,0"/>
		<path class="st1" d="M479.3,566.3c0,0,21.3,31.8,21.2,39.8"/>
		<line class="st1" x1="517.4" y1="618.9" x2="510.6" y2="603.5"/>
		<path class="st1" d="M485.9,576.5c0,0,8.2-11.4,20.5,4.9c12.4,16.2,11.1,16,11.1,16"/>
		<path class="st1" d="M542.6,591.5c0,0,20.2-13.7,23.4-12.8"/>
		<path class="st1" d="M540.5,579.4c0,0,15.4-12.3,20.3-10.6"/>
		<path class="st1" d="M536.5,567.7c0,0,13.8-11.8,18-11.2"/>
		<path class="st1" d="M533.4,555.3c0,0,16.3-6.2,17.3-9.5"/>
	</g>
</g>
</svg>
