<?xml version="1.0" encoding="utf-8"?>
<!-- Generator: Adobe Illustrator 23.0.3, SVG Export Plug-In . SVG Version: 6.00 Build 0)  -->
<svg version="1.1" id="Layer_1" xmlns="http://www.w3.org/2000/svg" xmlns:xlink="http://www.w3.org/1999/xlink" x="0px" y="0px"
	 viewBox="0 0 140 181" style="enable-background:new 0 0 140 181;" xml:space="preserve">
<style type="text/css">
	.st0{fill-rule:evenodd;clip-rule:evenodd;fill:#FFFFFF;}
	.st1{fill-rule:evenodd;clip-rule:evenodd;fill:#D8D8D8;}
	.st2{fill-rule:evenodd;clip-rule:evenodd;fill:#E10A17;}
	.st3{enable-background:new    ;}
	.st4{fill:#FFFFFF;}
	.st5{fill-rule:evenodd;clip-rule:evenodd;fill:#666666;}
</style>
<title>grotekerstballen_Icon</title>
<desc>Created with Sketch.</desc>
<g id="grotekerstballen_Icon">
	<g id="web-illustration">
		<rect id="Rectangle" y="0" class="st0" width="140" height="181"/>
		<path class="st1" d="M93,56h31c6.6,0,12,5.4,12,12v33c0,6.6-5.4,12-12,12H93c-6.6,0-12-5.4-12-12V68C81,61.4,86.4,56,93,56z"/>
		<path class="st2" d="M0,0h140v18l0,0H0V0z"/>
		<g class="st3">
			<path class="st4" d="M9.7,12.1h2.5V13H8.5V7.3h1.2V12.1z"/>
			<path class="st4" d="M18.6,10.3c0,0.6-0.1,1.1-0.3,1.5s-0.5,0.7-0.8,1s-0.8,0.3-1.3,0.3c-0.5,0-0.9-0.1-1.3-0.3s-0.7-0.5-0.9-1
				s-0.3-0.9-0.3-1.5V10c0-0.6,0.1-1.1,0.3-1.5s0.5-0.8,0.9-1s0.8-0.3,1.3-0.3s0.9,0.1,1.3,0.3s0.7,0.6,0.9,1s0.3,0.9,0.3,1.5V10.3z
				 M17.4,10c0-0.6-0.1-1-0.3-1.4s-0.5-0.5-0.9-0.5c-0.4,0-0.7,0.2-0.9,0.5s-0.3,0.8-0.3,1.3v0.3c0,0.6,0.1,1,0.3,1.4
				s0.5,0.5,0.9,0.5c0.4,0,0.7-0.2,0.9-0.5s0.3-0.8,0.3-1.3V10z"/>
			<path class="st4" d="M25.3,12.3c-0.2,0.3-0.5,0.4-0.9,0.6s-0.8,0.2-1.3,0.2c-0.5,0-0.9-0.1-1.3-0.3s-0.7-0.5-0.9-0.9
				s-0.3-0.9-0.3-1.4V10c0-0.6,0.1-1.1,0.3-1.5s0.5-0.7,0.8-1s0.8-0.3,1.3-0.3c0.7,0,1.2,0.2,1.6,0.5s0.6,0.8,0.7,1.4h-1.1
				c-0.1-0.3-0.2-0.6-0.3-0.7S23.4,8.2,23,8.2c-0.4,0-0.7,0.1-0.9,0.4s-0.3,0.7-0.3,1.3v0.4c0,0.6,0.1,1,0.3,1.4s0.6,0.5,1,0.5
				c0.4,0,0.8-0.1,0.9-0.3v-1H23V10h2.2V12.3z"/>
			<path class="st4" d="M32.2,10.3c0,0.6-0.1,1.1-0.3,1.5s-0.5,0.7-0.8,1s-0.8,0.3-1.3,0.3c-0.5,0-0.9-0.1-1.3-0.3s-0.7-0.5-0.9-1
				s-0.3-0.9-0.3-1.5V10c0-0.6,0.1-1.1,0.3-1.5s0.5-0.8,0.9-1s0.8-0.3,1.3-0.3s0.9,0.1,1.3,0.3s0.7,0.6,0.9,1s0.3,0.9,0.3,1.5V10.3z
				 M31,10c0-0.6-0.1-1-0.3-1.4s-0.5-0.5-0.9-0.5c-0.4,0-0.7,0.2-0.9,0.5s-0.3,0.8-0.3,1.3v0.3c0,0.6,0.1,1,0.3,1.4s0.5,0.5,0.9,0.5
				c0.4,0,0.7-0.2,0.9-0.5s0.3-0.8,0.3-1.3V10z"/>
		</g>
		<path class="st0" d="M68,9h8c1.1,0,2,0.9,2,2l0,0c0,1.1-0.9,2-2,2h-8c-1.1,0-2-0.9-2-2l0,0C66,9.9,66.9,9,68,9z"/>
		<path id="Rectangle-Copy-14" class="st0" d="M87.5,9h18c1.1,0,2,0.9,2,2l0,0c0,1.1-0.9,2-2,2h-18c-1.1,0-2-0.9-2-2l0,0
			C85.5,9.9,86.4,9,87.5,9z"/>
		<path id="Rectangle-Copy" class="st2" d="M59,25h22c1.1,0,2,0.9,2,2l0,0c0,1.1-0.9,2-2,2H59c-1.1,0-2-0.9-2-2l0,0
			C57,25.9,57.9,25,59,25z"/>
		<path id="Rectangle-Copy-5" class="st5" d="M52,33h36c0.6,0,1,0.4,1,1l0,0c0,0.6-0.4,1-1,1H52c-0.6,0-1-0.4-1-1l0,0
			C51,33.4,51.4,33,52,33z"/>
		<path id="Rectangle-Copy-7" class="st5" d="M52,41h36c0.6,0,1,0.4,1,1l0,0c0,0.6-0.4,1-1,1H52c-0.6,0-1-0.4-1-1l0,0
			C51,41.4,51.4,41,52,41z"/>
		<path id="Rectangle-Copy-6" class="st5" d="M37,37h66c0.6,0,1,0.4,1,1l0,0c0,0.6-0.4,1-1,1H37c-0.6,0-1-0.4-1-1l0,0
			C36,37.4,36.4,37,37,37z"/>
		<g id="Group" transform="translate(4.000000, 72.000000)">
			<path id="Rectangle-Copy-13" class="st2" d="M2,0h22c1.1,0,2,0.9,2,2l0,0c0,1.1-0.9,2-2,2H2C0.9,4,0,3.1,0,2l0,0C0,0.9,0.9,0,2,0
				z"/>
			<path id="Rectangle-Copy-8" class="st5" d="M1,8h51c0.6,0,1,0.4,1,1l0,0c0,0.6-0.4,1-1,1H1c-0.6,0-1-0.4-1-1l0,0C0,8.4,0.4,8,1,8
				z"/>
			<path id="Rectangle-Copy-12" class="st5" d="M1,24h51c0.6,0,1,0.4,1,1l0,0c0,0.6-0.4,1-1,1H1c-0.6,0-1-0.4-1-1l0,0
				C0,24.4,0.4,24,1,24z"/>
			<path id="Rectangle-Copy-9" class="st5" d="M1,16h55c0.6,0,1,0.4,1,1l0,0c0,0.6-0.4,1-1,1H1c-0.6,0-1-0.4-1-1l0,0
				C0,16.4,0.4,16,1,16z"/>
			<path id="Rectangle-Copy-10" class="st5" d="M1,12h66c0.6,0,1,0.4,1,1l0,0c0,0.6-0.4,1-1,1H1c-0.6,0-1-0.4-1-1l0,0
				C0,12.4,0.4,12,1,12z"/>
			<path id="Rectangle-Copy-11" class="st5" d="M1,20h66c0.6,0,1,0.4,1,1l0,0c0,0.6-0.4,1-1,1H1c-0.6,0-1-0.4-1-1l0,0
				C0,20.4,0.4,20,1,20z"/>
		</g>
		<g id="Group-Copy" transform="translate(4.000000, 126.000000)">
			<path class="st2" d="M2,0h15c1.1,0,2,0.9,2,2l0,0c0,1.1-0.9,2-2,2H2C0.9,4,0,3.1,0,2l0,0C0,0.9,0.9,0,2,0z"/>
			<path class="st5" d="M1,8h51c0.6,0,1,0.4,1,1l0,0c0,0.6-0.4,1-1,1H1c-0.6,0-1-0.4-1-1l0,0C0,8.4,0.4,8,1,8z"/>
			<path class="st5" d="M1,24h51c0.6,0,1,0.4,1,1l0,0c0,0.6-0.4,1-1,1H1c-0.6,0-1-0.4-1-1l0,0C0,24.4,0.4,24,1,24z"/>
			<path class="st5" d="M1,16h55c0.6,0,1,0.4,1,1l0,0c0,0.6-0.4,1-1,1H1c-0.6,0-1-0.4-1-1l0,0C0,16.4,0.4,16,1,16z"/>
			<path class="st5" d="M1,12h66c0.6,0,1,0.4,1,1l0,0c0,0.6-0.4,1-1,1H1c-0.6,0-1-0.4-1-1l0,0C0,12.4,0.4,12,1,12z"/>
			<path class="st5" d="M1,20h66c0.6,0,1,0.4,1,1l0,0c0,0.6-0.4,1-1,1H1c-0.6,0-1-0.4-1-1l0,0C0,20.4,0.4,20,1,20z"/>
		</g>
		<g id="Group-Copy-3" transform="translate(4.000000, 159.000000)">
			<path class="st2" d="M2,0h31c1.1,0,2,0.9,2,2l0,0c0,1.1-0.9,2-2,2H2C0.9,4,0,3.1,0,2l0,0C0,0.9,0.9,0,2,0z"/>
			<path class="st5" d="M1,8h95c0.6,0,1,0.4,1,1l0,0c0,0.6-0.4,1-1,1H1c-0.6,0-1-0.4-1-1l0,0C0,8.4,0.4,8,1,8z"/>
			<path class="st5" d="M1,12h123c0.6,0,1,0.4,1,1l0,0c0,0.6-0.4,1-1,1H1c-0.6,0-1-0.4-1-1l0,0C0,12.4,0.4,12,1,12z"/>
		</g>
		<g id="Group-Copy-2" transform="translate(81.000000, 126.000000)">
			<path class="st2" d="M2,0h17c1.1,0,2,0.9,2,2l0,0c0,1.1-0.9,2-2,2H2C0.9,4,0,3.1,0,2l0,0C0,0.9,0.9,0,2,0z"/>
			<path class="st5" d="M1,8h41c0.6,0,1,0.4,1,1l0,0c0,0.6-0.4,1-1,1H1c-0.6,0-1-0.4-1-1l0,0C0,8.4,0.4,8,1,8z"/>
			<path class="st5" d="M1,24h41c0.6,0,1,0.4,1,1l0,0c0,0.6-0.4,1-1,1H1c-0.6,0-1-0.4-1-1l0,0C0,24.4,0.4,24,1,24z"/>
			<path class="st5" d="M1,16h44c0.6,0,1,0.4,1,1l0,0c0,0.6-0.4,1-1,1H1c-0.6,0-1-0.4-1-1l0,0C0,16.4,0.4,16,1,16z"/>
			<path class="st5" d="M1,12h53c0.6,0,1,0.4,1,1l0,0c0,0.6-0.4,1-1,1H1c-0.6,0-1-0.4-1-1l0,0C0,12.4,0.4,12,1,12z"/>
			<path class="st5" d="M1,20h53c0.6,0,1,0.4,1,1l0,0c0,0.6-0.4,1-1,1H1c-0.6,0-1-0.4-1-1l0,0C0,20.4,0.4,20,1,20z"/>
		</g>
		<path id="Rectangle-Copy-4" class="st0" d="M116,9h11c1.1,0,2,0.9,2,2l0,0c0,1.1-0.9,2-2,2h-11c-1.1,0-2-0.9-2-2l0,0
			C114,9.9,114.9,9,116,9z"/>
	</g>
</g>
</svg>
