<?xml version="1.0" encoding="utf-8"?>
<!-- Generator: Adobe Illustrator 24.0.1, SVG Export Plug-In . SVG Version: 6.00 Build 0)  -->
<svg version="1.1" xmlns="http://www.w3.org/2000/svg" xmlns:xlink="http://www.w3.org/1999/xlink" x="0px" y="0px"
	 viewBox="0 0 140 181" style="enable-background:new 0 0 140 181;" xml:space="preserve">
<style type="text/css">
	.st0{fill-rule:evenodd;clip-rule:evenodd;fill:#FFFFFF;}
	.st1{fill-rule:evenodd;clip-rule:evenodd;fill:#D8D8D8;}
	.st2{fill-rule:evenodd;clip-rule:evenodd;fill:#FCC13E;}
	.st3{fill-rule:evenodd;clip-rule:evenodd;fill:#666666;}
</style>
<g id="Layer_2">
	<rect y="0.1" class="st0" width="140" height="180.9"/>
</g>
<g id="Layer_1">
	<title>grotekerstballen_Icon</title>
	<desc>Created with Sketch.</desc>
	<path class="st1" d="M14.7,124l16.5,0c3.5,0,6.4,2.3,6.4,5l0,13.8c0,2.8-2.9,5-6.4,5l-16.5,0c-3.5,0-6.4-2.3-6.4-5l0-13.8
		C8.4,126.2,11.2,124,14.7,124z"/>
	<path class="st1" d="M0,0.1h140v57H0V0.1z"/>
	<path id="Rectangle-Copy_2_" class="st2" d="M7.7,34.6h22c1.1,0,2,0.9,2,2l0,0c0,1.1-0.9,2-2,2h-22c-1.1,0-2-0.9-2-2l0,0
		C5.7,35.5,6.6,34.6,7.7,34.6z"/>
	<path id="Rectangle-Copy-7_2_" class="st3" d="M6.7,42.6h36c0.6,0,1,0.4,1,1l0,0c0,0.6-0.4,1-1,1h-36c-0.6,0-1-0.4-1-1l0,0
		C5.7,43,6.1,42.6,6.7,42.6z"/>
	<path id="Rectangle-Copy-7_3_" class="st3" d="M6.1,5.6h13.8c0.2,0,0.4,0.3,0.4,0.7l0,0c0,0.4-0.2,0.7-0.4,0.7H6.1
		C5.8,7,5.7,6.7,5.7,6.3l0,0C5.7,5.9,5.8,5.6,6.1,5.6z"/>
	<path id="Rectangle-Copy-7_10_" class="st3" d="M82.6,5h9.6c0.2,0,0.3,0.4,0.3,1l0,0c0,0.6-0.1,1-0.3,1h-9.6c-0.2,0-0.3-0.4-0.3-1
		l0,0C82.3,5.4,82.4,5,82.6,5z"/>
	<path id="Rectangle-Copy-7_9_" class="st3" d="M96.5,5h9.6c0.2,0,0.3,0.4,0.3,1l0,0c0,0.6-0.1,1-0.3,1h-9.6c-0.2,0-0.3-0.4-0.3-1
		l0,0C96.2,5.4,96.4,5,96.5,5z"/>
	<path id="Rectangle-Copy-7_8_" class="st3" d="M110.4,5h9.6c0.2,0,0.3,0.4,0.3,1l0,0c0,0.6-0.1,1-0.3,1h-9.6c-0.2,0-0.3-0.4-0.3-1
		l0,0C110.2,5.4,110.3,5,110.4,5z"/>
	<path id="Rectangle-Copy-7_7_" class="st3" d="M124.4,5h9.6c0.2,0,0.3,0.4,0.3,1l0,0c0,0.6-0.1,1-0.3,1h-9.6c-0.2,0-0.3-0.4-0.3-1
		l0,0C124.1,5.4,124.2,5,124.4,5z"/>
	<path id="Rectangle-Copy_3_" class="st2" d="M59,62.6h22c1.1,0,2,0.9,2,2l0,0c0,1.1-0.9,2-2,2H59c-1.1,0-2-0.9-2-2l0,0
		C57,63.5,57.9,62.6,59,62.6z"/>
	<path id="Rectangle-Copy-5_2_" class="st3" d="M52,70.6h36c0.6,0,1,0.4,1,1l0,0c0,0.6-0.4,1-1,1H52c-0.6,0-1-0.4-1-1l0,0
		C51,71,51.4,70.6,52,70.6z"/>
	<path id="Rectangle-Copy-6_2_" class="st3" d="M37,74.6h66c0.6,0,1,0.4,1,1l0,0c0,0.6-0.4,1-1,1H37c-0.6,0-1-0.4-1-1l0,0
		C36,75,36.4,74.6,37,74.6z"/>
	<path class="st3" d="M6.7,46.6h53c0.6,0,1,0.4,1,1l0,0c0,0.6-0.4,1-1,1h-53c-0.6,0-1-0.4-1-1l0,0C5.7,47,6.1,46.6,6.7,46.6z"/>
	<path id="Rectangle-Copy_4_" class="st2" d="M9.1,90.6h24.8c1.2,0,2.3,0.9,2.3,2l0,0c0,1.1-1,2-2.3,2H9.1c-1.2,0-2.3-0.9-2.3-2l0,0
		C6.8,91.5,7.9,90.6,9.1,90.6z"/>
	<path id="Rectangle-Copy-5_3_" class="st3" d="M14.5,97.6h13.9c0.2,0,0.4,0.4,0.4,1l0,0c0,0.6-0.2,1-0.4,1H14.5
		c-0.2,0-0.4-0.4-0.4-1l0,0C14.2,98,14.3,97.6,14.5,97.6z"/>
	<path id="Rectangle-Copy-7_4_" class="st3" d="M14.5,105.6h13.9c0.2,0,0.4,0.4,0.4,1l0,0c0,0.6-0.2,1-0.4,1H14.5
		c-0.2,0-0.4-0.4-0.4-1l0,0C14.2,106,14.3,105.6,14.5,105.6z"/>
	<path id="Rectangle-Copy-6_3_" class="st3" d="M8.7,101.6h25.5c0.2,0,0.4,0.4,0.4,1l0,0c0,0.6-0.2,1-0.4,1H8.7
		c-0.2,0-0.4-0.4-0.4-1l0,0C8.4,102,8.5,101.6,8.7,101.6z"/>
	<path id="Rectangle-Copy_7_" class="st2" d="M10.5,152.5h24.8c1.2,0,2.3,0.9,2.3,2l0,0c0,1.1-1,2-2.3,2H10.5c-1.2,0-2.3-0.9-2.3-2
		l0,0C8.2,153.4,9.3,152.5,10.5,152.5z"/>
	<path id="Rectangle-Copy-5_6_" class="st3" d="M10.1,159.5h13.9c0.2,0,0.4,0.4,0.4,1l0,0c0,0.6-0.2,1-0.4,1H10.1
		c-0.2,0-0.4-0.4-0.4-1l0,0C9.8,159.9,9.9,159.5,10.1,159.5z"/>
	<path id="Rectangle-Copy-7_11_" class="st3" d="M10.1,167.5h13.9c0.2,0,0.4,0.4,0.4,1l0,0c0,0.6-0.2,1-0.4,1H10.1
		c-0.2,0-0.4-0.4-0.4-1l0,0C9.8,167.9,9.9,167.5,10.1,167.5z"/>
	<path id="Rectangle-Copy-6_6_" class="st3" d="M10.1,163.5h25.5c0.2,0,0.4,0.4,0.4,1l0,0c0,0.6-0.2,1-0.4,1H10.1
		c-0.2,0-0.4-0.4-0.4-1l0,0C9.8,163.9,9.9,163.5,10.1,163.5z"/>
	<path class="st1" d="M61.5,124l16.5,0c3.5,0,6.4,2.3,6.4,5l0,13.8c0,2.8-2.9,5-6.4,5l-16.5,0c-3.5,0-6.4-2.3-6.4-5l0-13.8
		C55.1,126.2,58,124,61.5,124z"/>
	<path id="Rectangle-Copy_8_" class="st2" d="M57.2,152.5h24.8c1.2,0,2.3,0.9,2.3,2l0,0c0,1.1-1,2-2.3,2H57.2c-1.2,0-2.3-0.9-2.3-2
		l0,0C55,153.4,56,152.5,57.2,152.5z"/>
	<path id="Rectangle-Copy-5_7_" class="st3" d="M56.9,159.5h13.9c0.2,0,0.4,0.4,0.4,1l0,0c0,0.6-0.2,1-0.4,1H56.9
		c-0.2,0-0.4-0.4-0.4-1l0,0C56.5,159.9,56.6,159.5,56.9,159.5z"/>
	<path id="Rectangle-Copy-7_12_" class="st3" d="M56.9,167.5h13.9c0.2,0,0.4,0.4,0.4,1l0,0c0,0.6-0.2,1-0.4,1H56.9
		c-0.2,0-0.4-0.4-0.4-1l0,0C56.5,167.9,56.6,167.5,56.9,167.5z"/>
	<path id="Rectangle-Copy-6_7_" class="st3" d="M56.9,163.5h25.5c0.2,0,0.4,0.4,0.4,1l0,0c0,0.6-0.2,1-0.4,1H56.9
		c-0.2,0-0.4-0.4-0.4-1l0,0C56.5,163.9,56.6,163.5,56.9,163.5z"/>
	<path class="st1" d="M108.2,124l16.5,0c3.5,0,6.4,2.3,6.4,5l0,13.8c0,2.8-2.9,5-6.4,5l-16.5,0c-3.5,0-6.4-2.3-6.4-5l0-13.8
		C101.8,126.2,104.7,124,108.2,124z"/>
	<path id="Rectangle-Copy_9_" class="st2" d="M104,152.5h24.8c1.2,0,2.3,0.9,2.3,2l0,0c0,1.1-1,2-2.3,2H104c-1.2,0-2.3-0.9-2.3-2
		l0,0C101.7,153.4,102.7,152.5,104,152.5z"/>
	<path id="Rectangle-Copy-5_8_" class="st3" d="M103.6,159.5h13.9c0.2,0,0.4,0.4,0.4,1l0,0c0,0.6-0.2,1-0.4,1h-13.9
		c-0.2,0-0.4-0.4-0.4-1l0,0C103.2,159.9,103.4,159.5,103.6,159.5z"/>
	<path id="Rectangle-Copy-7_13_" class="st3" d="M103.6,167.5h13.9c0.2,0,0.4,0.4,0.4,1l0,0c0,0.6-0.2,1-0.4,1h-13.9
		c-0.2,0-0.4-0.4-0.4-1l0,0C103.2,167.9,103.4,167.5,103.6,167.5z"/>
	<path id="Rectangle-Copy-6_8_" class="st3" d="M103.6,163.5h25.5c0.2,0,0.4,0.4,0.4,1l0,0c0,0.6-0.2,1-0.4,1h-25.5
		c-0.2,0-0.4-0.4-0.4-1l0,0C103.2,163.9,103.4,163.5,103.6,163.5z"/>
	<path id="Rectangle-Copy_5_" class="st2" d="M57.2,90.6h24.8c1.2,0,2.3,0.9,2.3,2l0,0c0,1.1-1,2-2.3,2H57.2c-1.2,0-2.3-0.9-2.3-2
		l0,0C55,91.5,56,90.6,57.2,90.6z"/>
	<path id="Rectangle-Copy-5_4_" class="st3" d="M62.7,97.6h13.9c0.2,0,0.4,0.4,0.4,1l0,0c0,0.6-0.2,1-0.4,1H62.7
		c-0.2,0-0.4-0.4-0.4-1l0,0C62.3,98,62.4,97.6,62.7,97.6z"/>
	<path id="Rectangle-Copy-7_5_" class="st3" d="M62.7,105.6h13.9c0.2,0,0.4,0.4,0.4,1l0,0c0,0.6-0.2,1-0.4,1H62.7
		c-0.2,0-0.4-0.4-0.4-1l0,0C62.3,106,62.4,105.6,62.7,105.6z"/>
	<path id="Rectangle-Copy-6_4_" class="st3" d="M56.9,101.6h25.5c0.2,0,0.4,0.4,0.4,1l0,0c0,0.6-0.2,1-0.4,1H56.9
		c-0.2,0-0.4-0.4-0.4-1l0,0C56.5,102,56.6,101.6,56.9,101.6z"/>
	<path id="Rectangle-Copy_6_" class="st2" d="M105.4,90.6h24.8c1.2,0,2.3,0.9,2.3,2l0,0c0,1.1-1,2-2.3,2h-24.8c-1.2,0-2.3-0.9-2.3-2
		l0,0C103.1,91.5,104.1,90.6,105.4,90.6z"/>
	<path id="Rectangle-Copy-5_5_" class="st3" d="M110.8,97.6h13.9c0.2,0,0.4,0.4,0.4,1l0,0c0,0.6-0.2,1-0.4,1h-13.9
		c-0.2,0-0.4-0.4-0.4-1l0,0C110.4,98,110.6,97.6,110.8,97.6z"/>
	<path id="Rectangle-Copy-7_6_" class="st3" d="M110.8,105.6h13.9c0.2,0,0.4,0.4,0.4,1l0,0c0,0.6-0.2,1-0.4,1h-13.9
		c-0.2,0-0.4-0.4-0.4-1l0,0C110.4,106,110.6,105.6,110.8,105.6z"/>
	<path id="Rectangle-Copy-6_5_" class="st3" d="M105,101.6h25.5c0.2,0,0.4,0.4,0.4,1l0,0c0,0.6-0.2,1-0.4,1H105
		c-0.2,0-0.4-0.4-0.4-1l0,0C104.6,102,104.8,101.6,105,101.6z"/>
</g>
</svg>
