<?xml version="1.0" encoding="utf-8"?>
<!-- Generator: Adobe Illustrator 24.0.1, SVG Export Plug-In . SVG Version: 6.00 Build 0)  -->
<svg version="1.1" id="Layer_1" xmlns="http://www.w3.org/2000/svg" xmlns:xlink="http://www.w3.org/1999/xlink" x="0px" y="0px"
	 viewBox="0 0 218.5 95" style="enable-background:new 0 0 218.5 95;" xml:space="preserve">
<style type="text/css">
	.st0{enable-background:new    ;}
	.st1{fill:#676766;}
</style>
<g class="st0">
	<path class="st1" d="M52,63.8h14.4v6.4H52v23.4h-7.6V70.2H0.9v-4.3L43.7,1.1H52V63.8z M10.2,63.8h34.2V11L41,16.8L10.2,63.8z"/>
	<path class="st1" d="M133.1,55c0,13-2.4,22.9-7.2,29.7c-4.8,6.8-11.8,10.1-21.1,10.1c-9.1,0-16.1-3.3-21-9.9
		c-4.9-6.6-7.4-16.3-7.5-28.9V39.4c0-13,2.4-22.8,7.2-29.5c4.8-6.7,11.9-10,21.1-10c9.1,0,16.1,3.2,20.9,9.7
		c4.8,6.5,7.3,16,7.5,28.5V55z M125.5,38.5c0-10.6-1.7-18.6-5.2-24c-3.4-5.4-8.7-8.1-15.6-8.1c-6.9,0-12,2.6-15.5,7.9
		c-3.5,5.3-5.2,13.1-5.3,23.4v18.2c0,10.5,1.8,18.6,5.4,24.2c3.6,5.6,8.8,8.4,15.6,8.4c6.8,0,11.9-2.7,15.4-8.2s5.3-13.5,5.3-24
		V38.5z"/>
	<path class="st1" d="M196.1,63.8h14.4v6.4h-14.4v23.4h-7.6V70.2H145v-4.3l42.8-64.7h8.3V63.8z M154.3,63.8h34.2V11l-3.4,5.8
		L154.3,63.8z"/>
</g>
</svg>
