<?xml version="1.0" encoding="utf-8"?>
<!-- Generator: Adobe Illustrator 23.0.3, SVG Export Plug-In . SVG Version: 6.00 Build 0)  -->
<svg version="1.1" xmlns="http://www.w3.org/2000/svg" xmlns:xlink="http://www.w3.org/1999/xlink" x="0px" y="0px"
	 viewBox="0 0 1888.5 2441.6" style="enable-background:new 0 0 1888.5 2441.6;" xml:space="preserve">
<style type="text/css">
	.st0{fill:#FFFFFF;}
	.st1{fill:url(#SVGID_1_);}
	.st2{fill:#C0B4D6;}
	.st3{opacity:0.27;}
	.st4{clip-path:url(#SVGID_3_);fill:#F0F0FF;}
	.st5{clip-path:url(#SVGID_3_);fill:url(#SVGID_4_);}
	.st6{clip-path:url(#SVGID_3_);}
	.st7{fill:none;stroke:#FFFFFF;stroke-width:12;stroke-miterlimit:10;}
	.st8{fill:none;stroke:#FFFFFF;stroke-width:12;stroke-linecap:round;stroke-miterlimit:10;}
	.st9{fill:url(#SVGID_5_);}
	.st10{fill:url(#SVGID_6_);}
	.st11{fill:url(#SVGID_7_);}
	.st12{clip-path:url(#SVGID_3_);fill:#333333;}
	.st13{clip-path:url(#SVGID_3_);fill:url(#SVGID_8_);}
	.st14{clip-path:url(#SVGID_3_);fill:#C0B4D6;}
	.st15{clip-path:url(#SVGID_3_);fill:#6300FF;}
	.st16{clip-path:url(#SVGID_3_);fill:#DDD0FC;}
	.st17{clip-path:url(#SVGID_3_);fill:none;stroke:url(#SVGID_9_);stroke-miterlimit:10;}
	.st18{clip-path:url(#SVGID_3_);fill:none;stroke:#02C676;stroke-width:3;stroke-linecap:round;stroke-miterlimit:10;}
	.st19{fill:#333333;}
</style>
<g id="Layer_2">
	<rect class="st0" width="1888.5" height="2441.6"/>
	<linearGradient id="SVGID_1_" gradientUnits="userSpaceOnUse" x1="0" y1="795.6593" x2="1888.5165" y2="795.6593">
		<stop  offset="0" style="stop-color:#A166FF"/>
		<stop  offset="1" style="stop-color:#6300FF"/>
	</linearGradient>
	<path class="st1" d="M0,712c0,0,716-322.6,1029,303.4c312.6,625.1,859.5,575,859.5,575V0H0V712z"/>
	<g>
		<circle class="st2" cx="324.5" cy="2114.3" r="20.9"/>
		<circle class="st2" cx="324.5" cy="1975.1" r="20.9"/>
		<circle class="st2" cx="185.3" cy="2114.3" r="20.9"/>
	</g>
	<g class="st3">
		<circle class="st2" cx="1602.8" cy="428.2" r="20.9"/>
		<circle class="st2" cx="1742" cy="565.8" r="20.9"/>
		<circle class="st2" cx="1602.8" cy="565.8" r="20.9"/>
	</g>
</g>
<g id="Layer_1">
	<title>grotekerstballen_Icon</title>
	<desc>Created with Sketch.</desc>
	<g>
		<g>
			<defs>
				<path id="SVGID_2_" d="M1369.4,2350.8l-812.8,0.1c-63.7,0-115.4-51.6-115.4-115.3L441,206.7c0-63.7,51.6-115.4,115.3-115.4
					l812.8-0.1c63.7,0,115.4,51.6,115.4,115.3l0.3,2028.9C1484.8,2299.1,1433.2,2350.8,1369.4,2350.8z"/>
			</defs>
			<clipPath id="SVGID_3_">
				<use xlink:href="#SVGID_2_"  style="overflow:visible;"/>
			</clipPath>
			<path class="st4" d="M1367.6,2350.8l-812.8,0.1c-63.7,0-115.4-51.6-115.4-115.3l-0.3-2028.9c0-63.7,51.6-115.4,115.3-115.4
				l812.8-0.1c63.7,0,115.4,51.6,115.4,115.3l0.3,2028.9C1482.9,2299.1,1431.3,2350.8,1367.6,2350.8z"/>
			
				<linearGradient id="SVGID_4_" gradientUnits="userSpaceOnUse" x1="439.1527" y1="416.6096" x2="1482.6825" y2="416.6096" gradientTransform="matrix(1 -1.352868e-04 1.352868e-04 1 -4.434153e-02 0.7804)">
				<stop  offset="0" style="stop-color:#A166FF"/>
				<stop  offset="1" style="stop-color:#6300FF"/>
			</linearGradient>
			<path class="st5" d="M439.2,383c0,0,395.6-132.2,568.6,124.2c172.8,256.1,475,235.5,475,235.5l-0.1-651.6L439.1,91.3L439.2,383z"
				/>
			<g class="st6">
				<path class="st0" d="M1428.7,178.4l-77.5,0c-4.2,0-7.6-3.4-7.6-7.6l0-0.6c0-4.2,3.4-7.6,7.6-7.6l77.5,0c4.2,0,7.6,3.4,7.6,7.6
					l0,0.6C1436.3,175,1432.9,178.4,1428.7,178.4z"/>
				<path class="st0" d="M1428.7,209l-77.5,0c-4.2,0-7.6-3.4-7.6-7.6v-0.6c0-4.2,3.4-7.6,7.6-7.6l77.5,0c4.2,0,7.6,3.4,7.6,7.6
					l0,0.6C1436.3,205.6,1432.9,209,1428.7,209z"/>
				<path class="st0" d="M1428.7,239.6l-77.5,0c-4.2,0-7.6-3.4-7.6-7.6v-0.6c0-4.2,3.4-7.6,7.6-7.6l77.5,0c4.2,0,7.6,3.4,7.6,7.6
					l0,0.6C1436.3,236.2,1432.9,239.6,1428.7,239.6z"/>
			</g>
			<g class="st6">
				<circle class="st7" cx="1254.5" cy="192.3" r="23.2"/>
				<line class="st8" x1="1236.9" y1="209.9" x2="1213" y2="235.3"/>
			</g>
			<g class="st6">
				<path class="st0" d="M497.9,165.5c5.5-0.9,13.3-1.6,24.7-1.6c10.8,0,18.5,1.9,23.8,6c5.1,3.8,8.5,10.4,8.5,18.1
					c0,7.6-2.5,14.2-7.3,18.5c-6.1,5.4-14.9,7.8-25,7.9c-1.9,0-3.7-0.2-4.9-0.3l0,25.5l-19.9,0L497.9,165.5z M517.8,198.6
					c1.1,0.2,2.4,0.3,4.6,0.3c7.8,0,12.7-4,12.7-10.5c0-5.6-3.7-9.4-11.4-9.4c-2.9,0-4.9,0.2-6,0.5L517.8,198.6z"/>
				<path class="st0" d="M564.9,164.5l20.1,0l0,58.2l28.9,0l0,16.8l-49,0L564.9,164.5z"/>
				<path class="st0" d="M644.1,222.1l-4.2,17.4l-20.8,0l21.7-75l26.8,0l22.4,75l-21.7,0l-4.8-17.4L644.1,222.1z M660.7,207.2
					l-3.5-13.5c-1.1-4.2-2.6-10.4-3.7-14.8h-0.2c-1.1,4.4-2.2,10.6-3.3,14.9l-3.2,13.4L660.7,207.2z"/>
				<path class="st0" d="M719.7,164.4l0,75l-20.1,0l0-75L719.7,164.4z"/>
				<path class="st0" d="M733.5,239.5l0-75l23.7,0l11.9,23c4.1,7.5,8.5,17.5,11.8,26.3h0.3c-1.1-9.9-1.5-20.4-1.5-31.6l0-17.7
					l18.4,0l0,75l-21.2,0l-12.7-24.9c-4.2-8-9-18-12.6-27.1l-0.4,0c0.5,10.1,0.8,21.4,0.8,33.6l0,18.4L733.5,239.5z"/>
				<path class="st0" d="M810.5,229c0-6.9,4.8-11.7,11.5-11.7c6.7,0,11.4,4.7,11.4,11.7c0,6.8-4.6,11.7-11.5,11.7
					C815.2,240.7,810.5,235.8,810.5,229z"/>
			</g>
			<g class="st6">
				
					<image style="overflow:visible;opacity:0.75;" width="1067" height="610" xlink:href="5223AD74917C460C.png"  transform="matrix(0.9839 0 0 0.9839 438.462 1050.6417)">
				</image>
				<g>
					
						<linearGradient id="SVGID_5_" gradientUnits="userSpaceOnUse" x1="497.5903" y1="1342.3727" x2="1428.8827" y2="1342.3727" gradientTransform="matrix(1 -1.352868e-04 1.352868e-04 1 -4.434153e-02 0.7804)">
						<stop  offset="0" style="stop-color:#A166FF"/>
						<stop  offset="1" style="stop-color:#6300FF"/>
					</linearGradient>
					<path class="st9" d="M1378.7,1583.7l-830.5,0.1c-27.8,0-50.4-22.6-50.4-50.4l-0.1-380.6c0-27.8,22.6-50.4,50.4-50.4l830.5-0.1
						c27.8,0,50.4,22.6,50.4,50.4l0.1,380.6C1429,1561.1,1406.5,1583.7,1378.7,1583.7z"/>
				</g>
			</g>
			<g class="st6">
				
					<image style="overflow:visible;opacity:0.75;" width="1067" height="610" xlink:href="5223AD74917C460B.png"  transform="matrix(0.9839 0 0 0.9839 438.462 1604.5536)">
				</image>
				<g>
					
						<linearGradient id="SVGID_6_" gradientUnits="userSpaceOnUse" x1="497.5903" y1="1896.1393" x2="1428.8827" y2="1896.1393" gradientTransform="matrix(1 -1.352868e-04 1.352868e-04 1 -4.434153e-02 0.7804)">
						<stop  offset="0" style="stop-color:#A166FF"/>
						<stop  offset="1" style="stop-color:#6300FF"/>
					</linearGradient>
					<path class="st10" d="M1378.7,2137.4l-830.5,0.1c-27.8,0-50.4-22.6-50.4-50.4l-0.1-380.6c0-27.8,22.6-50.4,50.4-50.4l830.5-0.1
						c27.8,0,50.4,22.6,50.4,50.4l0.1,380.6C1429.1,2114.9,1406.6,2137.4,1378.7,2137.4z"/>
				</g>
			</g>
			<g class="st6">
				
					<image style="overflow:visible;opacity:0.75;" width="1067" height="610" xlink:href="5223AD74917C4614.png"  transform="matrix(0.9839 0 0 0.9839 438.462 2158.4653)">
				</image>
				<g>
					
						<linearGradient id="SVGID_7_" gradientUnits="userSpaceOnUse" x1="497.5903" y1="2449.9058" x2="1428.8827" y2="2449.9058" gradientTransform="matrix(1 -1.352868e-04 1.352868e-04 1 -4.434153e-02 0.7804)">
						<stop  offset="0" style="stop-color:#A166FF"/>
						<stop  offset="1" style="stop-color:#6300FF"/>
					</linearGradient>
					<path class="st11" d="M1378.8,2691.2l-830.5,0.1c-27.8,0-50.4-22.6-50.4-50.4l-0.1-380.6c0-27.8,22.6-50.4,50.4-50.4l830.5-0.1
						c27.8,0,50.4,22.6,50.4,50.4l0.1,380.6C1429.2,2668.6,1406.6,2691.2,1378.8,2691.2z"/>
				</g>
			</g>
			<path class="st12" d="M1353.8,392.5c5.7,0,10.9,2.6,14.3,7.1c3.3,4.4,4.3,9.9,2.7,15.1l-89,298.6c-2.2,7.4-9.2,12.5-17,12.5
				l-148.5,0c-5.7,0-10.9-2.6-14.3-7.1c-3.3-4.4-4.3-9.9-2.7-15.1l89-298.6c2.2-7.4,9.2-12.5,17-12.5L1353.8,392.5L1353.8,392.5
				L1353.8,392.5 M1353.8,378.7C1353.8,378.7,1353.8,378.7,1353.8,378.7l-148.5,0c-14,0-26.2,9.1-30.2,22.3l-89,298.6
				c-5.9,19.9,9.2,39.9,30.2,39.9c0,0,0,0,0,0l148.5,0c14,0,26.2-9.1,30.2-22.3l89-298.6C1389.9,398.7,1374.8,378.7,1353.8,378.7
				L1353.8,378.7z"/>
			
				<linearGradient id="SVGID_8_" gradientUnits="userSpaceOnUse" x1="497.5903" y1="496.1091" x2="753.5709" y2="496.1091" gradientTransform="matrix(1 -1.352868e-04 1.352868e-04 1 -4.434153e-02 0.7804)">
				<stop  offset="0" style="stop-color:#A166FF"/>
				<stop  offset="1" style="stop-color:#6300FF"/>
			</linearGradient>
			<path class="st13" d="M727.6,528.5l-204,0c-14.4,0-26-11.6-26-26l0-11.4c0-14.4,11.6-26,26-26l204,0c14.4,0,26,11.6,26,26l0,11.4
				C753.6,516.8,742,528.5,727.6,528.5z"/>
			<path class="st14" d="M908.1,590.6l-398,0.1c-6.9,0-12.5-5.6-12.5-12.5l0-5.5c0-6.9,5.6-12.5,12.5-12.5l398-0.1
				c6.9,0,12.5,5.6,12.5,12.5l0,5.5C920.6,585,915,590.6,908.1,590.6z"/>
			<path class="st14" d="M820.3,641.8l-310.2,0c-6.9,0-12.5-5.6-12.5-12.5l0-5.5c0-6.9,5.6-12.5,12.5-12.5l310.2,0
				c6.9,0,12.5,5.6,12.5,12.5l0,5.5C832.8,636.2,827.2,641.8,820.3,641.8z"/>
			<path class="st15" d="M1052.5,866.1l-204,0c-14.4,0-26-11.6-26-26l0-11.4c0-14.4,11.6-26,26-26l204,0c14.4,0,26,11.6,26,26
				l0,11.4C1078.5,854.4,1066.9,866.1,1052.5,866.1z"/>
			<path class="st14" d="M1149.5,928.2l-398,0.1c-6.9,0-12.5-5.6-12.5-12.5l0-5.5c0-6.9,5.6-12.5,12.5-12.5l398-0.1
				c6.9,0,12.5,5.6,12.5,12.5l0,5.5C1162,922.6,1156.4,928.2,1149.5,928.2z"/>
			<path class="st14" d="M1105.7,979.4l-310.2,0c-6.9,0-12.5-5.6-12.5-12.5l0-5.5c0-6.9,5.6-12.5,12.5-12.5l310.2,0
				c6.9,0,12.5,5.6,12.5,12.5l0,5.5C1118.2,973.8,1112.6,979.4,1105.7,979.4z"/>
			<path class="st14" d="M1197.6,1030.2l-494,0.1c-6.9,0-12.5-5.6-12.5-12.5l0-4.9c0-6.9,5.6-12.5,12.5-12.5l494-0.1
				c6.9,0,12.5,5.6,12.5,12.5l0,4.9C1210.1,1024.6,1204.5,1030.2,1197.6,1030.2z"/>
			<path class="st16" d="M1258.7,731.2l-143.5,0c-9.8,0-18.2-4.5-23.7-11.3c-5.9-7.4-8.5-17.5-5.5-27.7l85.9-291.7
				c3.8-12.9,15.7-21.8,29.2-21.8l143.5,0c20.3,0,34.9,19.5,29.2,39l-85.9,291.7C1284.1,722.4,1272.2,731.2,1258.7,731.2z"/>
			<path class="st12" d="M1305.7,402.9l-61.2,0c-2.4,0-4.1-2.3-3.4-4.6l6-19.5l68.6,0l-6.6,21.6
				C1308.6,401.9,1307.2,402.9,1305.7,402.9z"/>
			
				<linearGradient id="SVGID_9_" gradientUnits="userSpaceOnUse" x1="1157.1012" y1="499.6644" x2="1157.1012" y2="499.6644" gradientTransform="matrix(1 -1.352868e-04 1.352868e-04 1 -4.434153e-02 0.7804)">
				<stop  offset="0" style="stop-color:#A166FF"/>
				<stop  offset="1" style="stop-color:#6300FF"/>
			</linearGradient>
			<path class="st17" d="M1157.1,500.3"/>
			<path class="st18" d="M1339.4,503.5"/>
		</g>
		<path class="st19" d="M1371,91.2c62.7,0,113.5,50.8,113.5,113.5l0.3,2032.6c0,62.7-50.8,113.5-113.5,113.5l-816.5,0.1c0,0,0,0,0,0
			c-62.7,0-113.5-50.8-113.5-113.5L441,204.8c0-62.7,50.8-113.5,113.5-113.5L1371,91.2C1371,91.2,1371,91.2,1371,91.2 M1371,61.7
			L1371,61.7l-816.5,0.1c-38.2,0-74.1,14.9-101.1,41.9c-27,27-41.9,62.9-41.9,101.1l0.3,2032.6c0,38.2,14.9,74.1,41.9,101.1
			s62.9,41.9,101.1,41.9l816.5-0.1c38.2,0,74.1-14.9,101.1-41.9c27-27,41.9-62.9,41.9-101.1L1514,204.7c0-38.2-14.9-74.1-41.9-101.1
			C1445.1,76.6,1409.2,61.7,1371,61.7L1371,61.7z"/>
		<g>
			<path class="st19" d="M413.2,679.8c-7.9,0-14.3-6.4-14.3-14.3l0-244c0-7.9,6.4-14.3,14.3-14.3c7.9,0,14.3,6.4,14.3,14.3l0,244
				C427.5,673.4,421.1,679.8,413.2,679.8z"/>
		</g>
		<g>
			<path class="st19" d="M1510.6,679.7c-7.9,0-14.3-6.4-14.3-14.3l0-244c0-7.9,6.4-14.3,14.3-14.3c7.9,0,14.3,6.4,14.3,14.3l0,244
				C1524.9,673.3,1518.5,679.7,1510.6,679.7z"/>
		</g>
		<g>
			<path class="st19" d="M413.3,991.5c-7.9,0-14.3-6.4-14.3-14.3l0-244c0-7.9,6.4-14.3,14.3-14.3c7.9,0,14.3,6.4,14.3,14.3l0,244
				C427.6,985.1,421.2,991.5,413.3,991.5z"/>
		</g>
	</g>
</g>
</svg>
