<?xml version="1.0" encoding="utf-8"?>
<!-- Generator: Adobe Illustrator 24.0.1, SVG Export Plug-In . SVG Version: 6.00 Build 0)  -->
<svg version="1.1" id="Layer_2" xmlns="http://www.w3.org/2000/svg" xmlns:xlink="http://www.w3.org/1999/xlink" x="0px" y="0px"
	 viewBox="0 0 3075.9 3083.1" style="enable-background:new 0 0 3075.9 3083.1;" xml:space="preserve">
<style type="text/css">
	.st0{fill:#00B1CE;}
	.st1{clip-path:url(#SVGID_2_);fill:#999498;}
	.st2{clip-path:url(#SVGID_2_);fill:#41E58F;}
	.st3{clip-path:url(#SVGID_2_);fill:#4CD687;}
	.st4{clip-path:url(#SVGID_2_);fill:url(#SVGID_3_);}
	.st5{clip-path:url(#SVGID_2_);fill:#39C2FF;}
	.st6{clip-path:url(#SVGID_2_);fill:url(#SVGID_4_);}
	.st7{clip-path:url(#SVGID_2_);fill:url(#SVGID_5_);}
	.st8{clip-path:url(#SVGID_2_);fill:#F0882B;}
	.st9{clip-path:url(#SVGID_2_);fill:#FFFFFF;}
	.st10{clip-path:url(#SVGID_2_);fill:#100C0C;}
	.st11{clip-path:url(#SVGID_2_);fill:url(#SVGID_6_);}
	.st12{clip-path:url(#SVGID_2_);fill:url(#SVGID_7_);}
	.st13{clip-path:url(#SVGID_2_);fill:url(#SVGID_8_);}
	.st14{clip-path:url(#SVGID_2_);fill:#F2EAF4;}
	.st15{fill:#FFFFFF;}
	.st16{fill:#F2EAF4;}
	.st17{fill:#3A2B15;}
	.st18{fill:none;stroke:#100C0C;stroke-miterlimit:10;}
	.st19{fill:none;stroke:#050505;stroke-width:3;stroke-miterlimit:10;}
	.st20{fill:#100C0C;}
	.st21{fill:#281D11;}
</style>
<path class="st0" d="M2744.5,2701.3c-710.2,592.3-1766,496.8-2358.3-213.4s-429.3-2266,482.4-2421
	C2142.2-149.7,2141.1,170,2034.4,982.4C1914.1,1899.3,3454.7,2109,2744.5,2701.3z"/>
<path class="st0" d="M2519.5,1044c0,194.2,183.1,351.6,0,351.6S2188,1238.2,2188,1044s148.4-351.6,331.5-351.6
	S2519.5,849.8,2519.5,1044z"/>
<circle class="st0" cx="2422.4" cy="324" r="93.7"/>
<ellipse transform="matrix(0.5406 -0.8413 0.8413 0.5406 -942.9836 3746.073)" class="st0" cx="2958.4" cy="2736.4" rx="157.2" ry="93.7"/>
<path class="st0" d="M222.4,253.5C354.7,88.1,494.7-19.8,535.1,12.6S427.9,146.6,295.6,312S96.6,643.8,56.1,611.5
	S90.2,418.9,222.4,253.5z"/>
<path class="st0" d="M294.8,2528.5c19.6,18.5,39.3,38.2,59.1,59.1c145.7,153.7,233.4,307.1,195.8,342.8s-277.4-1.8-423.1-155.5
	S-15.6,2409.4,22,2373.8C54.5,2343,169.9,2410.3,294.8,2528.5"/>
<g>
	<defs>
		<path id="SVGID_1_" d="M2744.5,2701.3c-710.2,592.3-1766,496.8-2358.3-213.4s-429.3-2266,482.4-2421
			c1273.6-216.6,471.7,480.3,1165.9,915.5C2932.4,1545.4,3454.7,2109,2744.5,2701.3z"/>
	</defs>
	<clipPath id="SVGID_2_">
		<use xlink:href="#SVGID_1_"  style="overflow:visible;"/>
	</clipPath>
	<path class="st1" d="M1046.1,2558.9c0,0-169.8-27.4-186.5-23.2s-60.3-4.2-72,63.6c-11.7,67.8-93.8,480.3-93.8,480.3h-42.7
		l95.4-524.6c0,0,33.3-66.1,102.1-67.8s197.5,33.5,197.5,33.5V2558.9"/>
	<path class="st1" d="M2278.3,2564.5l74.8,515.1c0,0,43.5,0,42.7,0s-77.9-505.4-77.9-505.4L2278.3,2564.5"/>
	<polyline class="st1" points="1809.8,2767.8 1768.7,3079.5 1735.3,3079.5 1746.4,2968.2 	"/>
	<path class="st2" d="M744.5,1771.4c0,0,19.2,49.4,32.8,122.3c10.7,57.6,17.8,129.8,8.9,203.8c0,0-33.5,291.4,43.5,387.4
		s107.2-1.1,252.3,106s354.1,87.5,354.1,87.5l319-13.8l102.7-24.6c0,0,179.7-32.4,283.5-121.7c103.8-89.3-130.6-152.9-130.6-152.9
		l-430.9-63.6l-426.4-109.4c0,0-59.2-253.4-63.6-255.6s-174.1-102.7-174.1-102.7l-149.3-73.7
		C766.3,1760.4,745.3,1743.3,744.5,1771.4z"/>
	<path class="st3" d="M893.3,1861.1c0,0,29.2,312.6,55.3,410.2c22.2,83,43.5,154,113.9,165.8s150.7,65.3,175.8,82
		s206,87.1,212.7,103.8s100.5-13.4,100.5-13.4l45.2-115.5c0,0-82-80.4-97.1-93.8c-15.1-13.4-572.7-663.1-572.7-663.1
		S893.6,1831,893.3,1861.1z"/>
	<path class="st3" d="M1919.6,2469.5c0,0,135.3,100.7,169.9,85c34.6-15.6,17.8-8,17.8-8l24.8-18.8l-235.8-111.8L1919.6,2469.5z"/>
	<path class="st3" d="M1221.4,2639.7c0,0-186.2-112.4-231.1-122.2c-114.7-25.1-167.4-28.5-164.1-211c3.3-182.5-15.1-427-15.1-427
		s-32.8-117.3-49.9-123.7c-17-6.4-16.9,15.6-16.9,15.6s49.6,174.8,45.6,250.4c-4,75.6-34.2,344.1,29.5,448.4
		c47.6,78.1,92.8,60,106.6,63.4c17.8,4.3,70.3-4.7,166.5,64.9c96.1,69.7,207.5,74.7,207.5,74.7L1221.4,2639.7z"/>
	<linearGradient id="SVGID_3_" gradientUnits="userSpaceOnUse" x1="1050.6804" y1="2494.3552" x2="2874.3022" y2="2494.3552">
		<stop  offset="0" style="stop-color:#58C3FF"/>
		<stop  offset="0.9961" style="stop-color:#58D5FF"/>
	</linearGradient>
	<path class="st4" d="M2443.6,2210.7c0,0,99.9,3.1,161,32.4c68.1,32.7,82,107.2,118.9,239.4s150.9,614.1,150.9,614.1l-368.6-12.6
		c0,0-65.3-249.8-87.1-362c-21.8-112.2-154-155.7-154-155.7s-228-56.9-350.1-128.9l-863.9-545.2l683.4,71.1L2443.6,2210.7"/>
	<path class="st5" d="M1914.6,2437.3c-1-106.3-121.1-159.4-121.1-159.4l35.9-3.7c0,0,114.3,68.9,266.1,102.4
		c151.8,33.5,346,131.7,426.4,171.9c80.4,40.2,142.9,535.5,142.9,535.5h-159.1c0,0-71.5-307.5-87.1-362
		c-9.5-33.3-47.7-134.3-175.5-161.3C2118.3,2534.2,1914.6,2437.3,1914.6,2437.3"/>
	<linearGradient id="SVGID_4_" gradientUnits="userSpaceOnUse" x1="985.8139" y1="2535.4368" x2="1920.2522" y2="2535.4368">
		<stop  offset="0" style="stop-color:#58C3FF"/>
		<stop  offset="0.9961" style="stop-color:#58D5FF"/>
	</linearGradient>
	<path class="st6" d="M1150.6,2476.4c100.5,20.7,288,70.9,298.6,89.9c10.6,19,32.9,29.6,32.9,29.6s-36.8,31.8-40.7,60.8
		s-26.2,68.1-26.2,68.1s-49.7,129.5-42.1,189.8c7.5,60.3-8.4,169.5-8.4,169.5h317.3c0,0,62.8-110.9,83.7-172
		c20.9-61.1,37.7-139.8,37.7-139.8s96.3-149.9,112.2-228.6c5.4-26.6,6-58.3,2.8-89.6c-6.2-61.5-26.7-121.5-53.9-138.1
		c-41-25.1-70.9-38.1-70.9-38.1l-422.2-192.2l-157.4-98.8c0,0-194.7-2.8-228,166.9c0,0-6.7,241.1,79,281.9
		S1150.6,2476.4,1150.6,2476.4z"/>
	<path class="st5" d="M1467.6,3084c-6.7-38.3,60.8-220.7,112.2-332.3s53.6-274.6,46.9-299.2c-6.7-24.6-71.4-96-264.4-142.9
		c-192.9-46.9-339.9-218.2-339.9-218.2l-36.5,62.4c0,0-25.7,184.3,51.9,268c61.9,66.8,305.5,112.6,339.9,129.5
		s104.4,44.6,104.4,44.6c-44.1,11.6-103.9,253.9-107.4,274.5c-3.5,20.6,0.3,75.6,0.3,75.6l-10.3,138.1h65.6"/>
	<linearGradient id="SVGID_5_" gradientUnits="userSpaceOnUse" x1="1307.4149" y1="2148.6184" x2="2505.7473" y2="2148.6184">
		<stop  offset="0" style="stop-color:#F0882B"/>
		<stop  offset="1" style="stop-color:#FFB969"/>
	</linearGradient>
	<path class="st7" d="M2505.7,2186.1l-754.9,78.9c-35.6,3.7-71.5-3.3-103.1-20.1l-336.3-166.7c-6.5-3.2-4.5-13,2.7-13.4l546.2-33.5
		L2505.7,2186.1z"/>
	<path class="st8" d="M1747.6,2226.2c-3.3-1.4-205.2-87.5-205.2-87.5l322-27.3L1747.6,2226.2z"/>
	<path class="st9" d="M1341,1924.4c16,1.5,105.1-29,116.5-35.7c11.4-6.7,28,4.1,28,4.1s0,0,20.7-8.8s39.9,3.6,39.9,3.6
		s84.4,79.2,83.3,81.8c-1,2.6,25.4,67.8,31.1,73.5c5.7,5.7,7.8,19.7,12.4,29.5s11.9,30.5,10.4,36.7c-1.6,6.2-15,10.4-24.3,11.4
		c-4.1,6.2-14.5,5.2-24.8,6.2c-10.4,1-28-33.1-28-33.1s0.5,9.8,2.1,13.5c1.6,3.6-2.6,12.9-12.4,18.1c-9.8,5.2-23.3-0.5-27.9-3.6
		s-35.2-59.4-35.2-59.4s-30.5-36.9-39-48.2s-40.7-19.2-40.7-19.2l-15.5,7.8c0,0,10.9,12.4,25.4,31.6c14.5,19.2,44,47.1,44,47.1
		s22.3,17.6,16,35.7c-6.2,18.1-19.7,12.9-46.6,7.8c0,0-47.6-50.7-74.5-79.2c0,0-75.9,23.3-101.5,21c-25.7-2.2-35.7-14.9-42-19.3
		s-35-15.9-35-15.9s-246.8-33.5-395.8-139S776.1,1441,776.1,1441s113-77,200.1,25.1c0,0,6.7,136.5-13.4,181.7
		c-20.1,45.2-20.1,45.2-20.1,45.2s128.7,129.5,234.7,157c16.9,4.4,33.2,10.5,49,18C1307.8,1906.9,1319.7,1922.4,1341,1924.4z"/>
	<path class="st10" d="M1778.1,1370c0,0,35.9-23.8,34.1-28.8c-1.8-5-37.4,18.9-37.4,18.9L1778.1,1370z"/>
	<path class="st9" d="M1858.2,1875c0,0-47.9-103.9-55.7-128.5S1643.4,1453,1643.4,1453c15.2-30.9,144.8-106.3,144.8-106.3
		c12.6,20,118.8,249.2,118.8,249.2l11.2,25.3c10.4,7.6,18,19.8,20.9,32.3L1858.2,1875"/>
	<path class="st9" d="M1404.9,912.5c0.2,1.7-0.4,20.9-0.1,22.9c3.8,27.1,22.6,37.7,22.6,37.7l0,23.4c0,0-49.3,74.5-64.4,72.8
		s-123.9-30.1-128.1-33.5s-139-41-105.5-73.7c9.2-9,17.4-26.6,24.4-47.4"/>
	<linearGradient id="SVGID_6_" gradientUnits="userSpaceOnUse" x1="1427.3516" y1="959.1003" x2="1427.4264" y2="959.1003">
		<stop  offset="0" style="stop-color:#F0882B"/>
		<stop  offset="1" style="stop-color:#FFB969"/>
	</linearGradient>
	<path class="st11" d="M1427.4,958c-0.1,0.7-0.1,1.5,0,2.3C1427.4,958.8,1427.4,958,1427.4,958z"/>
	<linearGradient id="SVGID_7_" gradientUnits="userSpaceOnUse" x1="766.2813" y1="1466.8464" x2="1815.295" y2="1466.8464">
		<stop  offset="0" style="stop-color:#F0882B"/>
		<stop  offset="1" style="stop-color:#FFB969"/>
	</linearGradient>
	<path class="st12" d="M1808.6,1324.7c-11.2-4.2-14-5.9-15.3-11.7s-4.5-27.9-14.5-38.2s-66.7-121.4-86.8-139.3
		c-20.1-17.9-32.9-31.8-34-38.5c-1.1-6.7-48-27.3-60.3-27.9s-17.3,0.6-17.3,0.6s-44.1-28.5-49.7-27.3c-5.4,1.1-89.5-42.6-103.3-65
		c-0.4,12.9-6.1,60-75.3,64.5c-77,5-187.5-30.1-222.7-75.3c0,0-60.3,12.2-105.5,33.7c-45.2,21.5-22.7,13.2-36.1,21.3
		s-64.4,20.5-79.6,26.4s-68.5,34.9-82.7,77.6c-14.2,42.7-40.2,90.4-43.5,162.4s5.9,79.5-9.2,97.1c-15.1,17.6,1,61.1,1,61.1
		s45.3-26.9,65.8-17.6c2.4,1.1,5,2.3,7.9,3.6c32.9-4.3,72.7,1.1,109.5,33.7c8.4,4.2,16.5,8.7,18,11.1c3.3,5.2,3.3,5.2,3.3,5.2
		l-3.5,8.9c1,28.8,6.8,122.1-10.5,161c-20.1,45.2-20.1,45.2-20.1,45.2s128.7,129.5,234.7,157c16.9,4.4,33.2,10.5,49,18
		c81.4,38.8,93.3,54.3,114.6,56.3c16,1.5,105.1-29,116.5-35.7c11.4-6.7,28,4.1,28,4.1s0,0,20.7-8.8s39.9,3.6,39.9,3.6
		s41.4,38.9,65.9,63c13.3,1.3,44.2,4.4,63.1,7.8c24.6,4.5,57.8,4.7,57.8,4.7s-42.4-31-45.5-33.5c-3.1-2.5,0.2-20.4-5.3-25.1
		s-13.7-53.9-22.3-56.9c-8.7-3.1-39.9-5.6-31.3-18.4c8.7-12.8,17.6-21.5,0.8-37.1c-16.7-15.6-27.6-5.3-22.6-30.1
		c5-24.8,8.4-50-1.4-66.7c-9.8-16.7-36.8-35.2-18.4-62.8c18.4-27.6,45.6-110.9,38.5-167.2c-1.9-15.4,8.1-10.9,8.1-10.9s0,0,8.7-1.4
		c8.7-1.4,94.6-75.1,120.3-87.3c25.7-12.3,46.9-27.6,48.6-24.6C1813.9,1348.4,1819.8,1328.8,1808.6,1324.7z"/>
	<path class="st8" d="M1010.9,1365.2c0,0-11,226.6-31.1,271.8c-20.1,45.2-20.1,45.2-20.1,45.2s128.7,129.5,234.7,157
		c16.9,4.4,33.2,10.5,49,18c81.4,38.8,97.7,62,118.9,64c0,0-4.8,2.9-13.1,3.7c-20,7.5-41.9-18.8-123.3-57.6
		c-15.7-7.5-32.1-13.6-49-18c-106-27.6-234.7-157-234.7-157s0,0,20.1-45.2s13.4-181.7,13.4-181.7L1010.9,1365.2z"/>
	<path class="st8" d="M966.4,1964.3c0,0,14,56.1,10.1,81.2c-3.9,25.1-2.5,111.6,0.7,120s30.6-32.9,30.6-32.9s53.3-126,141.1-114.9
		C1148.8,2017.7,989.3,1980.2,966.4,1964.3z"/>
	<path class="st8" d="M1362.3,1921.3c0,0-211.1-176.5-249.1-254.6c-38-78.1-26.1-104.9-27.6-174.1c-1.5-69.2-74.8-127.3-74.8-127.3
		l-51.2,317l107.4,102.7L1362.3,1921.3"/>
	<path class="st8" d="M987.8,1017.2c43.2-34.3,141.6-55.1,141.6-55.1l31.6,27.2c0,0-197.4,57.8-238.7,109.1s-33.2,330-33.2,330
		s-35.9-5.6-41.7-0.5c0,0,0,0-19.4-5.5c-19.4-5.5-54.2,19.5-54.2,19.5s2.3-0.9-5.3-19.3s4.3-41.8,11.1-52.6
		c6.8-10.8,1.7-51.6,4.7-112.1s54.9-165.1,73.1-188.5C884.9,1034,987.8,1017.2,987.8,1017.2"/>
	<linearGradient id="SVGID_8_" gradientUnits="userSpaceOnUse" x1="1732.3253" y1="1899.3085" x2="2754.1189" y2="1899.3085">
		<stop  offset="0" style="stop-color:#F0882B"/>
		<stop  offset="1" style="stop-color:#FFB969"/>
	</linearGradient>
	<path class="st13" d="M2481.9,2192.5l-739.1,76.4c-6.8,0.7-12.2-5.9-10-12.4l221.4-682.5c9-27.8,35.7-45.9,64.8-44.2l713.9,43.7
		c15.5,0.9,25.4,16.9,19.4,31.2l-235.2,561.6C2511.1,2180.9,2497.6,2190.9,2481.9,2192.5z"/>
	<path class="st8" d="M2536.7,2119.7c0,0-462.6-91.7-615.7-443.5l-188.2,580.3c0,0,0.5,18,32,12.5s717.1-76.4,717.1-76.4
		s25.4-2.7,35.2-26.2S2536.7,2119.7,2536.7,2119.7z"/>
	<path class="st14" d="M889.1,1428.4c0,0-29.8,204.2-18.1,261.1c11.7,56.9,86.5,155.7,179.7,202.6c93.2,46.9,215.8,117.2,255,132.3
		c39.2,15.1,108.8-11.4,121.7,6.9c12.9,18.2,78.7,98.3,78.7,98.3l-30-4.9l-74.5-79.2c0,0-80.3,27.5-114.4,18.8
		c-26.9-6.8-12.7-19.9-87.9-33c-53.8-9.4-210-45.3-317.2-102.7c-42.9-23-77.9-49.3-95.4-78.8c-61.3-103.3-43.1-323.9-12.9-407.8
		C773.7,1441.9,806.7,1406.8,889.1,1428.4z"/>
	<path class="st8" d="M1629.4,1355.2c3.3-9.6,53.9,69.1,53.9,69.1l-13.3,12.3c-7.4,6.9-16.3,12-26,15l-9.2,2.8
		C1634.8,1454.4,1617.6,1389.3,1629.4,1355.2z"/>
	<path class="st14" d="M1670,1436.6c0,0,7.3,16.8,39.9,70.4c32.6,53.6,81.2,151.5,91.2,168.3s68.6,159.2,68.6,159.2l-12.5,38.6
		c0.4,0.5-56.2-129.9-65.8-149.4c-8.3-16.8-147.4-272-147.4-272L1670,1436.6"/>
	<path class="st14" d="M1213.7,809.2"/>
	<path class="st14" d="M1264.5,861.3c8.5,5.6,89.2,64.5,133.1,47.8c1.2-0.5-4,7.7-13.3,19.1c-11.7,14.4-30,33.9-50.4,48
		c-44.8,31-98.5,45.8-98.5,45.8s-115-26.1-106.1-59.8c2.2-8.4,6.7-22.5,11.9-39.2c2.3-7.4,4.8-15.3,7.4-23.4l18-174.1l23.6,20.5
		l0.1-8.5h15.4l18.8,63.3L1264.5,861.3z"/>
	<path class="st8" d="M1592.6,1628.4c0,0-81.8,12-196.8,16.1c0,0,87.1,35.6,191.3,26.7C1587.2,1671.2,1572.7,1654.4,1592.6,1628.4z"
		/>
	<path class="st8" d="M1124.2,1699.3c0,0,135.6,46.9,313.1,69.4c0,0-141.3,20.2-301.8-5.3
		C1135.6,1763.4,1174.6,1745.1,1124.2,1699.3z"/>
	<path class="st8" d="M1362.5,1806.6c0,0,264.8-12,250.3-22.4c-10.4-7.5-3.1-27-3.1-27S1411.8,1807.9,1362.5,1806.6z"/>
</g>
<path class="st15" d="M1190.7,742.5c0,0,0,0-0.5,2.5c-0.5,2.5-17-12.7-17-12.7l-6.5-7.8c0,0-30.5-20.9-35.8-47.5s-13.6-70-7.9-79.5
	s16.2-27.3,32.2-18.1c15.9,9.2,49.8,34.5,47.9,69.6c14.2,0.5,18.3,0.3,18.3,0.3l3.9-85.9l46.8-128.9c0,0,50.7-9.6,61.7-6.8
	c10.9,2.9,53.8,12.4,62,14.5c8.1,2.1,52,12,56.6,13.3s43.3,35,45.6,39.2c2.3,4.3,23.8,73.5,23.8,73.5l1,31.5l-3.1,14.1l-2.1,44.9
	l-1.1,28.7c0,0-11.6,15.6-12.7,23.6c-1.1,8.1-10,74.2-11.2,78.6s-20.5,55-20.5,55l-44.7,74.4l-23.9,7.2l-99.8-35.7l-88.8-73.9
	l-10.1-69.7"/>
<path class="st16" d="M1190.6,742.6c0,0,0,0-0.5,2.5c-0.5,2.5-17-12.7-17-12.7l-6.5-7.8c0,0-30.5-20.9-35.8-47.5s-13.6-70-7.9-79.5
	c5.6-9.5,16.2-27.3,32.2-18.1c15.9,9.2,49.8,34.5,47.9,69.6"/>
<path class="st16" d="M1295,856.9c0,0-52.5-332.3,11.5-410c-39.6,10.1-72.7,60.4-72.7,60.4l-29.5,120.8l-7.9,89.2l11.5,77.7l46,82
	l43.9,0.7L1295,856.9z"/>
<path class="st17" d="M1306.4,619.8l40.2-0.7c1.4,0,2.7,0.3,3.9,1l47,26.3l19.3-6.4l-57.6-36.7c-1.9-1.2-4.2-1.5-6.3-0.9l-48.3,14.2
	L1306.4,619.8z"/>
<path class="st18" d="M1365,633.6"/>
<path class="st17" d="M1498.8,673.8l-35.4-4.1l-3.5-7.5c0,0,37.1-6.4,39.5-6.1l17.6,11.5l-0.7,19.6L1498.8,673.8z"/>
<path class="st17" d="M1322.3,848.1c0.2,0.1,0.3,0.2,0.3,0.4c-0.2,18.7,0.7,40.1,5.5,42.1c8.7,3.7,26.6,11.1,28,9.3
	c1.1-1.4,6.7-27,8.9-37.5c0.5-2.5,3-4.1,5.5-3.5l30.6,6.3c2.2,0.5,3.8,2.4,3.7,4.7l-1.2,32.1c0,0.3,0.2,0.5,0.5,0.5l17.8,0.1
	c0.2,0,0.4-0.1,0.5-0.3l10.5-32.3c0.1-0.2,0.3-0.3,0.5-0.3l7.8,0.3c0.3,0,0.5,0.2,0.5,0.5l-1.1,23.6c0,0.4,0.5,0.7,0.8,0.4
	c4.7-4.6,27-28.4,36.5-72.1c-18.9,77.4-56.3,107.2-58.2,108.7c-0.1,0-0.1,0.1-0.2,0.1c-2.3,0.5-44.8,9.1-78.9,1.5
	c-35.1-7.8-76.8-8.3-115.7-67.7c0,0,0-0.1-0.1-0.1c-19.3-69.7-34.5-115.6-34.3-119.4c0.2-3.6,12.2-88.3,13.1-94.9
	c0-0.2,0.2-0.4,0.5-0.4l17.1,0.1c0.3,0,0.5,0.2,0.5,0.5c0.1,9.7,3.2,168.8,62.2,216.3c0.2,0.1,0.4,0.1,0.6,0
	c11.3-6.9,19.6-15.2,25.7-22.8c0.1-0.2,0.3-0.2,0.5-0.1L1322.3,848.1z"/>
<polygon class="st17" points="1452.1,838.6 1449.8,853.3 1419.1,833 1397.1,825.8 1326,816.3 1334.3,804.4 1406.7,796.1 
	1425.1,802.3 "/>
<path class="st17" d="M1203.1,649.9c1.7-27.2-19-43.1-36.6-62.1s-31.9-5.2-31.9-5.2s13.5-143.5,14.9-153.2
	c1.4-9.7,39.4-86.1,86.1-102.4c46.6-16.3,79.1,19.4,79.1,19.4s58.8-8.3,72.5-6.2c13.7,2.1,48.9,33.9,105.7,65.1
	s42.2,132.1,42.2,132.1l-13,67.3c0,0-16.6-76.4-41.8-104.8s-59.6-32.1-133.2-55.7c-77.7-2.2-87.4,43.2-87.4,43.2
	c-14.8,21.9-38.3,162.7-38.3,162.7L1203.1,649.9z"/>
<path class="st19" d="M1450.2,667.5l-6.9,13.8l12.4,78.6c0,0,1.4,30.2-28.2,34.6"/>
<path class="st20" d="M1173.6,732.5l-16.5,93.4l3.3-54.2c0.5-8.7,0.5-17.4,0-26l-1.7-28.2l13.3,13.1"/>
<path class="st21" d="M1282.5,326.5c0,0,46.3,50.7,8.3,125.2c-7.5,6.4-26.4,18.1-34.1,41.6c-7.8,23.5-35.3,157-35.3,157
	s8.5,183.9,62.1,216.7c12-7.1,11.8-8.1,11.8-8.1s10.6,52.1,0.6,63.7c-26.4-11.9-63.3-28.9-71.4-57.7
	c-8.1-28.8-34.4-119.6-34.4-119.6L1203,643c0,0-25-69.8-68.5-60.4l14.9-153.2C1149.5,429.5,1201.7,297.7,1282.5,326.5z"/>
</svg>
