<?xml version="1.0" encoding="utf-8"?>
<!-- Generator: Adobe Illustrator 24.0.1, SVG Export Plug-In . SVG Version: 6.00 Build 0)  -->
<svg version="1.1" id="Layer_1" xmlns="http://www.w3.org/2000/svg" xmlns:xlink="http://www.w3.org/1999/xlink" x="0px" y="0px"
	 viewBox="0 0 140 181" style="enable-background:new 0 0 140 181;" xml:space="preserve">
<style type="text/css">
	.st0{fill-rule:evenodd;clip-rule:evenodd;fill:#FFFFFF;}
	.st1{fill-rule:evenodd;clip-rule:evenodd;fill:#D8D8D8;}
	.st2{fill-rule:evenodd;clip-rule:evenodd;fill:#E10A17;}
	.st3{enable-background:new    ;}
	.st4{fill:#FFFFFF;}
	.st5{fill-rule:evenodd;clip-rule:evenodd;fill:#666666;}
	.st6{clip-path:url(#SVGID_2_);}
</style>
<title>grotekerstballen_Icon</title>
<desc>Created with Sketch.</desc>
<g id="grotekerstballen_Icon_1_">
	<g id="web-illustration_1_">
		<rect id="Rectangle_1_" class="st0" width="140" height="181"/>
		<path class="st1" d="M93,56h31c6.6,0,12,5.4,12,12v33c0,6.6-5.4,12-12,12H93c-6.6,0-12-5.4-12-12V68C81,61.4,86.4,56,93,56z"/>
		<path class="st2" d="M0,0h140v18l0,0H0V0z"/>
		<g class="st3">
			<path class="st4" d="M9.7,12.1h2.5V13H8.5V7.3h1.2V12.1z"/>
			<path class="st4" d="M18.6,10.3c0,0.6-0.1,1.1-0.3,1.5s-0.5,0.7-0.8,1s-0.8,0.3-1.3,0.3s-0.9-0.1-1.3-0.3s-0.7-0.5-0.9-1
				s-0.3-0.9-0.3-1.5V10c0-0.6,0.1-1.1,0.3-1.5s0.5-0.8,0.9-1s0.8-0.3,1.3-0.3s0.9,0.1,1.3,0.3s0.7,0.6,0.9,1s0.3,0.9,0.3,1.5v0.3
				H18.6z M17.4,10c0-0.6-0.1-1-0.3-1.4s-0.5-0.5-0.9-0.5s-0.7,0.2-0.9,0.5S15,9.4,15,9.9v0.3c0,0.6,0.1,1,0.3,1.4s0.5,0.5,0.9,0.5
				c0.4,0,0.7-0.2,0.9-0.5s0.3-0.8,0.3-1.3V10z"/>
			<path class="st4" d="M25.3,12.3c-0.2,0.3-0.5,0.4-0.9,0.6s-0.8,0.2-1.3,0.2s-0.9-0.1-1.3-0.3s-0.7-0.5-0.9-0.9s-0.3-0.9-0.3-1.4
				V10c0-0.6,0.1-1.1,0.3-1.5s0.5-0.7,0.8-1s0.8-0.3,1.3-0.3c0.7,0,1.2,0.2,1.6,0.5s0.6,0.8,0.7,1.4h-1.1c-0.1-0.3-0.2-0.6-0.3-0.7
				S23.4,8.2,23,8.2s-0.7,0.1-0.9,0.4s-0.3,0.7-0.3,1.3v0.4c0,0.6,0.1,1,0.3,1.4s0.6,0.5,1,0.5s0.8-0.1,0.9-0.3v-1h-1V10h2.2
				L25.3,12.3L25.3,12.3z"/>
			<path class="st4" d="M32.2,10.3c0,0.6-0.1,1.1-0.3,1.5s-0.5,0.7-0.8,1s-0.8,0.3-1.3,0.3s-0.9-0.1-1.3-0.3s-0.7-0.5-0.9-1
				s-0.3-0.9-0.3-1.5V10c0-0.6,0.1-1.1,0.3-1.5s0.5-0.8,0.9-1s0.8-0.3,1.3-0.3s0.9,0.1,1.3,0.3s0.7,0.6,0.9,1s0.3,0.9,0.3,1.5v0.3
				H32.2z M31,10c0-0.6-0.1-1-0.3-1.4s-0.5-0.5-0.9-0.5s-0.7,0.2-0.9,0.5s-0.3,0.8-0.3,1.3v0.3c0,0.6,0.1,1,0.3,1.4s0.5,0.5,0.9,0.5
				s0.7-0.2,0.9-0.5s0.3-0.8,0.3-1.3V10z"/>
		</g>
		<path class="st0" d="M68,9h8c1.1,0,2,0.9,2,2l0,0c0,1.1-0.9,2-2,2h-8c-1.1,0-2-0.9-2-2l0,0C66,9.9,66.9,9,68,9z"/>
		<path id="Rectangle-Copy-14_1_" class="st0" d="M87.5,9h18c1.1,0,2,0.9,2,2l0,0c0,1.1-0.9,2-2,2h-18c-1.1,0-2-0.9-2-2l0,0
			C85.5,9.9,86.4,9,87.5,9z"/>
		<path id="Rectangle-Copy_1_" class="st2" d="M59,25h22c1.1,0,2,0.9,2,2l0,0c0,1.1-0.9,2-2,2H59c-1.1,0-2-0.9-2-2l0,0
			C57,25.9,57.9,25,59,25z"/>
		<path id="Rectangle-Copy-5_1_" class="st5" d="M52,33h36c0.6,0,1,0.4,1,1l0,0c0,0.6-0.4,1-1,1H52c-0.6,0-1-0.4-1-1l0,0
			C51,33.4,51.4,33,52,33z"/>
		<path id="Rectangle-Copy-7_1_" class="st5" d="M52,41h36c0.6,0,1,0.4,1,1l0,0c0,0.6-0.4,1-1,1H52c-0.6,0-1-0.4-1-1l0,0
			C51,41.4,51.4,41,52,41z"/>
		<path id="Rectangle-Copy-6_1_" class="st5" d="M37,37h66c0.6,0,1,0.4,1,1l0,0c0,0.6-0.4,1-1,1H37c-0.6,0-1-0.4-1-1l0,0
			C36,37.4,36.4,37,37,37z"/>
		<g id="Group_1_" transform="translate(4.000000, 72.000000)">
			<path id="Rectangle-Copy-13_1_" class="st2" d="M2,0h22c1.1,0,2,0.9,2,2l0,0c0,1.1-0.9,2-2,2H2C0.9,4,0,3.1,0,2l0,0
				C0,0.9,0.9,0,2,0z"/>
			<path id="Rectangle-Copy-8_1_" class="st5" d="M1,8h51c0.6,0,1,0.4,1,1l0,0c0,0.6-0.4,1-1,1H1c-0.6,0-1-0.4-1-1l0,0
				C0,8.4,0.4,8,1,8z"/>
			<path id="Rectangle-Copy-12_1_" class="st5" d="M1,24h51c0.6,0,1,0.4,1,1l0,0c0,0.6-0.4,1-1,1H1c-0.6,0-1-0.4-1-1l0,0
				C0,24.4,0.4,24,1,24z"/>
			<path id="Rectangle-Copy-9_1_" class="st5" d="M1,16h55c0.6,0,1,0.4,1,1l0,0c0,0.6-0.4,1-1,1H1c-0.6,0-1-0.4-1-1l0,0
				C0,16.4,0.4,16,1,16z"/>
			<path id="Rectangle-Copy-10_1_" class="st5" d="M1,12h66c0.6,0,1,0.4,1,1l0,0c0,0.6-0.4,1-1,1H1c-0.6,0-1-0.4-1-1l0,0
				C0,12.4,0.4,12,1,12z"/>
			<path id="Rectangle-Copy-11_1_" class="st5" d="M1,20h66c0.6,0,1,0.4,1,1l0,0c0,0.6-0.4,1-1,1H1c-0.6,0-1-0.4-1-1l0,0
				C0,20.4,0.4,20,1,20z"/>
		</g>
		<g id="Group-Copy_1_" transform="translate(4.000000, 126.000000)">
			<path class="st2" d="M2,0h15c1.1,0,2,0.9,2,2l0,0c0,1.1-0.9,2-2,2H2C0.9,4,0,3.1,0,2l0,0C0,0.9,0.9,0,2,0z"/>
			<path class="st5" d="M1,8h51c0.6,0,1,0.4,1,1l0,0c0,0.6-0.4,1-1,1H1c-0.6,0-1-0.4-1-1l0,0C0,8.4,0.4,8,1,8z"/>
			<path class="st5" d="M1,24h51c0.6,0,1,0.4,1,1l0,0c0,0.6-0.4,1-1,1H1c-0.6,0-1-0.4-1-1l0,0C0,24.4,0.4,24,1,24z"/>
			<path class="st5" d="M1,16h55c0.6,0,1,0.4,1,1l0,0c0,0.6-0.4,1-1,1H1c-0.6,0-1-0.4-1-1l0,0C0,16.4,0.4,16,1,16z"/>
			<path class="st5" d="M1,12h66c0.6,0,1,0.4,1,1l0,0c0,0.6-0.4,1-1,1H1c-0.6,0-1-0.4-1-1l0,0C0,12.4,0.4,12,1,12z"/>
			<path class="st5" d="M1,20h66c0.6,0,1,0.4,1,1l0,0c0,0.6-0.4,1-1,1H1c-0.6,0-1-0.4-1-1l0,0C0,20.4,0.4,20,1,20z"/>
		</g>
		<g id="Group-Copy-3_1_" transform="translate(4.000000, 159.000000)">
			<path class="st2" d="M2,0h31c1.1,0,2,0.9,2,2l0,0c0,1.1-0.9,2-2,2H2C0.9,4,0,3.1,0,2l0,0C0,0.9,0.9,0,2,0z"/>
			<path class="st5" d="M1,8h95c0.6,0,1,0.4,1,1l0,0c0,0.6-0.4,1-1,1H1c-0.6,0-1-0.4-1-1l0,0C0,8.4,0.4,8,1,8z"/>
			<path class="st5" d="M1,12h123c0.6,0,1,0.4,1,1l0,0c0,0.6-0.4,1-1,1H1c-0.6,0-1-0.4-1-1l0,0C0,12.4,0.4,12,1,12z"/>
		</g>
		<g id="Group-Copy-2_1_" transform="translate(81.000000, 126.000000)">
			<path class="st2" d="M2,0h17c1.1,0,2,0.9,2,2l0,0c0,1.1-0.9,2-2,2H2C0.9,4,0,3.1,0,2l0,0C0,0.9,0.9,0,2,0z"/>
			<path class="st5" d="M1,8h41c0.6,0,1,0.4,1,1l0,0c0,0.6-0.4,1-1,1H1c-0.6,0-1-0.4-1-1l0,0C0,8.4,0.4,8,1,8z"/>
			<path class="st5" d="M1,24h41c0.6,0,1,0.4,1,1l0,0c0,0.6-0.4,1-1,1H1c-0.6,0-1-0.4-1-1l0,0C0,24.4,0.4,24,1,24z"/>
			<path class="st5" d="M1,16h44c0.6,0,1,0.4,1,1l0,0c0,0.6-0.4,1-1,1H1c-0.6,0-1-0.4-1-1l0,0C0,16.4,0.4,16,1,16z"/>
			<path class="st5" d="M1,12h53c0.6,0,1,0.4,1,1l0,0c0,0.6-0.4,1-1,1H1c-0.6,0-1-0.4-1-1l0,0C0,12.4,0.4,12,1,12z"/>
			<path class="st5" d="M1,20h53c0.6,0,1,0.4,1,1l0,0c0,0.6-0.4,1-1,1H1c-0.6,0-1-0.4-1-1l0,0C0,20.4,0.4,20,1,20z"/>
		</g>
		<path id="Rectangle-Copy-4_1_" class="st0" d="M116,9h11c1.1,0,2,0.9,2,2l0,0c0,1.1-0.9,2-2,2h-11c-1.1,0-2-0.9-2-2l0,0
			C114,9.9,114.9,9,116,9z"/>
	</g>
</g>
<g>
	<g>
		<defs>
			<polygon id="SVGID_1_" points="0,181 140,0 0,0 			"/>
		</defs>
		<clipPath id="SVGID_2_">
			<use xlink:href="#SVGID_1_"  style="overflow:visible;"/>
		</clipPath>
		<g id="web-illustration" class="st6">
			<rect id="Rectangle" class="st0" width="140" height="181"/>
			<path class="st1" d="M13.5,122h14.1c3,0,5.5,1.9,5.5,4.2v11.4c0,2.3-2.5,4.2-5.5,4.2H13.5c-3,0-5.5-1.9-5.5-4.2v-11.4
				C8.1,123.8,10.5,122,13.5,122z"/>
			<path class="st2" d="M0,0h140v13.4l0,0H0V0z"/>
			<g class="st3">
				<path class="st4" d="M9.7,8.1h2.5V9H8.5V3.3h1.2V8.1z"/>
				<path class="st4" d="M18.6,6.3c0,0.6-0.1,1.1-0.3,1.5c-0.2,0.4-0.5,0.7-0.8,1s-0.8,0.3-1.3,0.3S15.3,9,14.9,8.8s-0.7-0.5-0.9-1
					s-0.3-0.9-0.3-1.5V6c0-0.6,0.1-1.1,0.3-1.5s0.5-0.8,0.9-1s0.8-0.3,1.3-0.3c0.5,0,0.9,0.1,1.3,0.3s0.7,0.6,0.9,1s0.3,0.9,0.3,1.5
					L18.6,6.3L18.6,6.3z M17.4,6c0-0.6-0.1-1-0.3-1.4s-0.5-0.5-0.9-0.5s-0.7,0.2-0.9,0.5S15,5.4,15,5.9v0.3c0,0.6,0.1,1,0.3,1.4
					c0.2,0.4,0.5,0.5,0.9,0.5c0.4,0,0.7-0.2,0.9-0.5s0.3-0.8,0.3-1.3V6z"/>
				<path class="st4" d="M25.3,8.3c-0.2,0.3-0.5,0.4-0.9,0.6s-0.8,0.2-1.3,0.2S22.2,9,21.8,8.8s-0.7-0.5-0.9-0.9S20.6,7,20.6,6.5V6
					c0-0.6,0.1-1.1,0.3-1.5s0.5-0.7,0.8-1s0.8-0.3,1.3-0.3c0.7,0,1.2,0.2,1.6,0.5s0.6,0.8,0.7,1.4h-1.1c-0.1-0.3-0.2-0.6-0.3-0.7
					S23.4,4.2,23,4.2s-0.7,0.1-0.9,0.4s-0.3,0.7-0.3,1.3v0.4c0,0.6,0.1,1,0.3,1.4c0.2,0.4,0.6,0.5,1,0.5s0.8-0.1,0.9-0.3v-1h-1V6
					h2.2L25.3,8.3L25.3,8.3z"/>
				<path class="st4" d="M32.2,6.3c0,0.6-0.1,1.1-0.3,1.5c-0.2,0.4-0.5,0.7-0.8,1s-0.8,0.3-1.3,0.3S28.9,9,28.5,8.8s-0.7-0.5-0.9-1
					s-0.3-0.9-0.3-1.5V6c0-0.6,0.1-1.1,0.3-1.5s0.5-0.8,0.9-1s0.8-0.3,1.3-0.3s0.9,0.1,1.3,0.3s0.7,0.6,0.9,1s0.3,0.9,0.3,1.5
					L32.2,6.3L32.2,6.3z M31,6c0-0.6-0.1-1-0.3-1.4s-0.5-0.5-0.9-0.5s-0.7,0.2-0.9,0.5s-0.3,0.8-0.3,1.3v0.3c0,0.6,0.1,1,0.3,1.4
					s0.5,0.5,0.9,0.5s0.7-0.2,0.9-0.5S31,6.8,31,6.3V6z"/>
			</g>
			<path class="st0" d="M68,5h8c1.1,0,2,0.9,2,2l0,0c0,1.1-0.9,2-2,2h-8c-1.1,0-2-0.9-2-2l0,0C66,5.9,66.9,5,68,5z"/>
			<path id="Rectangle-Copy-14" class="st0" d="M87.5,5h18c1.1,0,2,0.9,2,2l0,0c0,1.1-0.9,2-2,2h-18c-1.1,0-2-0.9-2-2l0,0
				C85.5,5.9,86.4,5,87.5,5z"/>
			<path id="Rectangle-Copy" class="st2" d="M11,41h22c1.1,0,2,0.9,2,2l0,0c0,1.1-0.9,2-2,2H11c-1.1,0-2-0.9-2-2l0,0
				C9,41.9,9.9,41,11,41z"/>
			<path id="Rectangle-Copy-5" class="st5" d="M10,49h36c0.6,0,1,0.4,1,1l0,0c0,0.6-0.4,1-1,1H10c-0.6,0-1-0.4-1-1l0,0
				C9,49.4,9.4,49,10,49z"/>
			<path id="Rectangle-Copy-7" class="st5" d="M10,57h36c0.6,0,1,0.4,1,1l0,0c0,0.6-0.4,1-1,1H10c-0.6,0-1-0.4-1-1l0,0
				C9,57.4,9.4,57,10,57z"/>
			<path id="Rectangle-Copy-6" class="st5" d="M10,53h66c0.6,0,1,0.4,1,1l0,0c0,0.6-0.4,1-1,1H10c-0.6,0-1-0.4-1-1l0,0
				C9,53.4,9.4,53,10,53z"/>
			<g id="Group-Copy" transform="translate(4.000000, 126.000000)">
				<path class="st2" d="M7,19.2h15c1.1,0,2,0.9,2,2l0,0c0,1.1-0.9,2-2,2H7c-1.1,0-2-0.9-2-2l0,0C5,20.1,5.9,19.2,7,19.2z"/>
				<path class="st5" d="M5.4,27.2h19.9c0.2,0,0.4,0.4,0.4,1l0,0c0,0.6-0.2,1-0.4,1H5.4c-0.2,0-0.4-0.4-0.4-1l0,0
					C5,27.6,5.2,27.2,5.4,27.2z"/>
				<path class="st5" d="M5.4,43.2h19.9c0.2,0,0.4,0.4,0.4,1l0,0c0,0.6-0.2,1-0.4,1H5.4c-0.2,0-0.4-0.4-0.4-1l0,0
					C5,43.7,5.2,43.2,5.4,43.2z"/>
				<path class="st5" d="M5.4,35.2h21.4c0.2,0,0.4,0.4,0.4,1l0,0c0,0.6-0.2,1-0.4,1H5.4c-0.2,0-0.4-0.4-0.4-1l0,0
					C5,35.7,5.2,35.2,5.4,35.2z"/>
				<path class="st5" d="M5.4,31.2h25.7c0.2,0,0.4,0.4,0.4,1l0,0c0,0.6-0.2,1-0.4,1H5.4c-0.2,0-0.4-0.4-0.4-1l0,0
					C5,31.6,5.2,31.2,5.4,31.2z"/>
				<path class="st5" d="M5.4,39.2h25.7c0.2,0,0.4,0.4,0.4,1l0,0c0,0.6-0.2,1-0.4,1H5.4c-0.2,0-0.4-0.4-0.4-1l0,0
					C5,39.7,5.2,39.2,5.4,39.2z"/>
			</g>
			<path class="st1" d="M48.8,122h14.1c3,0,5.5,1.9,5.5,4.2v11.4c0,2.3-2.5,4.2-5.5,4.2H48.8c-3,0-5.5-1.9-5.5-4.2v-11.4
				C43.3,123.8,45.8,122,48.8,122z"/>
			<g id="Group-Copy_2_" transform="translate(4.000000, 126.000000)">
				<path class="st2" d="M42.3,19.2h15c1.1,0,2,0.9,2,2l0,0c0,1.1-0.9,2-2,2h-15c-1.1,0-2-0.9-2-2l0,0
					C40.3,20.1,41.2,19.2,42.3,19.2z"/>
				<path class="st5" d="M40.6,27.2h19.9c0.2,0,0.4,0.4,0.4,1l0,0c0,0.6-0.2,1-0.4,1H40.6c-0.2,0-0.4-0.4-0.4-1l0,0
					C40.3,27.6,40.4,27.2,40.6,27.2z"/>
				<path class="st5" d="M40.6,43.2h19.9c0.2,0,0.4,0.4,0.4,1l0,0c0,0.6-0.2,1-0.4,1H40.6c-0.2,0-0.4-0.4-0.4-1l0,0
					C40.3,43.7,40.4,43.2,40.6,43.2z"/>
				<path class="st5" d="M40.6,35.2H62c0.2,0,0.4,0.4,0.4,1l0,0c0,0.6-0.2,1-0.4,1H40.6c-0.2,0-0.4-0.4-0.4-1l0,0
					C40.3,35.7,40.4,35.2,40.6,35.2z"/>
				<path class="st5" d="M40.6,31.2h25.7c0.2,0,0.4,0.4,0.4,1l0,0c0,0.6-0.2,1-0.4,1H40.6c-0.2,0-0.4-0.4-0.4-1l0,0
					C40.3,31.6,40.4,31.2,40.6,31.2z"/>
				<path class="st5" d="M40.6,39.2h25.7c0.2,0,0.4,0.4,0.4,1l0,0c0,0.6-0.2,1-0.4,1H40.6c-0.2,0-0.4-0.4-0.4-1l0,0
					C40.3,39.7,40.4,39.2,40.6,39.2z"/>
			</g>
			<path class="st1" d="M82.5,122h14.1c3,0,5.5,1.9,5.5,4.2v11.4c0,2.3-2.5,4.2-5.5,4.2H82.5c-3,0-5.5-1.9-5.5-4.2v-11.4
				C77,123.8,79.5,122,82.5,122z"/>
			<g id="Group-Copy_4_" transform="translate(4.000000, 126.000000)">
				<path class="st2" d="M76,19.2h15c1.1,0,2,0.9,2,2l0,0c0,1.1-0.9,2-2,2H76c-1.1,0-2-0.9-2-2l0,0C74,20.1,74.9,19.2,76,19.2z"/>
				<path class="st5" d="M74.3,27.2h19.9c0.2,0,0.4,0.4,0.4,1l0,0c0,0.6-0.2,1-0.4,1H74.3c-0.2,0-0.4-0.4-0.4-1l0,0
					C74,27.6,74.1,27.2,74.3,27.2z"/>
				<path class="st5" d="M74.3,43.2h19.9c0.2,0,0.4,0.4,0.4,1l0,0c0,0.6-0.2,1-0.4,1H74.3c-0.2,0-0.4-0.4-0.4-1l0,0
					C74,43.7,74.1,43.2,74.3,43.2z"/>
				<path class="st5" d="M74.3,35.2h21.4c0.2,0,0.4,0.4,0.4,1l0,0c0,0.6-0.2,1-0.4,1H74.3c-0.2,0-0.4-0.4-0.4-1l0,0
					C74,35.7,74.1,35.2,74.3,35.2z"/>
				<path class="st5" d="M74.3,31.2H100c0.2,0,0.4,0.4,0.4,1l0,0c0,0.6-0.2,1-0.4,1H74.3c-0.2,0-0.4-0.4-0.4-1l0,0
					C74,31.6,74.1,31.2,74.3,31.2z"/>
				<path class="st5" d="M74.3,39.2H100c0.2,0,0.4,0.4,0.4,1l0,0c0,0.6-0.2,1-0.4,1H74.3c-0.2,0-0.4-0.4-0.4-1l0,0
					C74,39.7,74.1,39.2,74.3,39.2z"/>
			</g>
			<path class="st1" d="M114.4,122h14.1c3,0,5.5,1.9,5.5,4.2v11.4c0,2.3-2.5,4.2-5.5,4.2h-14.1c-3,0-5.5-1.9-5.5-4.2v-11.4
				C109,123.8,111.4,122,114.4,122z"/>
			<g id="Group-Copy_3_" transform="translate(4.000000, 126.000000)">
				<path class="st2" d="M107.9,19.2h15c1.1,0,2,0.9,2,2l0,0c0,1.1-0.9,2-2,2h-15c-1.1,0-2-0.9-2-2l0,0
					C105.9,20.1,106.8,19.2,107.9,19.2z"/>
				<path class="st5" d="M106.3,27.2h19.9c0.2,0,0.4,0.4,0.4,1l0,0c0,0.6-0.2,1-0.4,1h-19.9c-0.2,0-0.4-0.4-0.4-1l0,0
					C105.9,27.6,106.1,27.2,106.3,27.2z"/>
				<path class="st5" d="M106.3,43.2h19.9c0.2,0,0.4,0.4,0.4,1l0,0c0,0.6-0.2,1-0.4,1h-19.9c-0.2,0-0.4-0.4-0.4-1l0,0
					C105.9,43.7,106.1,43.2,106.3,43.2z"/>
				<path class="st5" d="M106.3,35.2h21.4c0.2,0,0.4,0.4,0.4,1l0,0c0,0.6-0.2,1-0.4,1h-21.4c-0.2,0-0.4-0.4-0.4-1l0,0
					C105.9,35.7,106.1,35.2,106.3,35.2z"/>
				<path class="st5" d="M106.3,31.2H132c0.2,0,0.4,0.4,0.4,1l0,0c0,0.6-0.2,1-0.4,1h-25.7c-0.2,0-0.4-0.4-0.4-1l0,0
					C105.9,31.6,106.1,31.2,106.3,31.2z"/>
				<path class="st5" d="M106.3,39.2H132c0.2,0,0.4,0.4,0.4,1l0,0c0,0.6-0.2,1-0.4,1h-25.7c-0.2,0-0.4-0.4-0.4-1l0,0
					C105.9,39.7,106.1,39.2,106.3,39.2z"/>
			</g>
			<path id="Rectangle-Copy-4" class="st0" d="M116,5h11c1.1,0,2,0.9,2,2l0,0c0,1.1-0.9,2-2,2h-11c-1.1,0-2-0.9-2-2l0,0
				C114,5.9,114.9,5,116,5z"/>
			<path class="st1" d="M0,35.8c0,0,57-11,78,10.8c23,20.8,62,11.2,62,11.2V13.4H0V35.8z"/>
			<path class="st1" d="M28.9,109.5h-15c-2.7,0-4.9-2.2-4.9-4.9V73.4c0-2.7,2.2-4.9,4.9-4.9h15c2.7,0,4.9,2.2,4.9,4.9v31.2
				C33.8,107.3,31.6,109.5,28.9,109.5z"/>
			<path class="st1" d="M62.8,109.5h-15c-2.7,0-4.9-2.2-4.9-4.9V73.4c0-2.7,2.2-4.9,4.9-4.9h15c2.7,0,4.9,2.2,4.9,4.9v31.2
				C67.7,107.3,65.5,109.5,62.8,109.5z"/>
			<path class="st1" d="M96.7,109.5h-15c-2.7,0-4.9-2.2-4.9-4.9V73.4c0-2.7,2.2-4.9,4.9-4.9h15c2.7,0,4.9,2.2,4.9,4.9v31.2
				C101.6,107.3,99.4,109.5,96.7,109.5z"/>
			<path class="st1" d="M130.6,109.5h-15c-2.7,0-4.9-2.2-4.9-4.9V73.4c0-2.7,2.2-4.9,4.9-4.9h15c2.7,0,4.9,2.2,4.9,4.9v31.2
				C135.5,107.3,133.3,109.5,130.6,109.5z"/>
			<path class="st5" d="M12.2,104.3h13.9c0.1,0,0.3,0.4,0.3,1l0,0c0,0.6-0.1,1-0.3,1H12.2c-0.1,0-0.3-0.4-0.3-1l0,0
				C11.9,104.7,12,104.3,12.2,104.3z"/>
			<path class="st2" d="M12.1,100.7h10.7c0.1,0,0.2,0.4,0.2,1l0,0c0,0.6-0.1,1-0.2,1H12.1c-0.1,0-0.2-0.4-0.2-1l0,0
				C11.9,101.1,12,100.7,12.1,100.7z"/>
			<path class="st5" d="M46.2,104.3h13.9c0.1,0,0.3,0.4,0.3,1l0,0c0,0.6-0.1,1-0.3,1H46.2c-0.1,0-0.3-0.4-0.3-1l0,0
				C45.9,104.7,46.1,104.3,46.2,104.3z"/>
			<path class="st2" d="M46.2,100.7h10.7c0.1,0,0.2,0.4,0.2,1l0,0c0,0.6-0.1,1-0.2,1H46.2c-0.1,0-0.2-0.4-0.2-1l0,0
				C45.9,101.1,46,100.7,46.2,100.7z"/>
			<path class="st5" d="M80.3,104.3h13.9c0.1,0,0.3,0.4,0.3,1l0,0c0,0.6-0.1,1-0.3,1H80.3c-0.1,0-0.3-0.4-0.3-1l0,0
				C80,104.7,80.1,104.3,80.3,104.3z"/>
			<path class="st2" d="M80.2,100.7h10.7c0.1,0,0.2,0.4,0.2,1l0,0c0,0.6-0.1,1-0.2,1H80.2c-0.1,0-0.2-0.4-0.2-1l0,0
				C80,101.1,80.1,100.7,80.2,100.7z"/>
			<path class="st5" d="M114.3,104.3h13.9c0.1,0,0.3,0.4,0.3,1l0,0c0,0.6-0.1,1-0.3,1h-13.9c-0.1,0-0.3-0.4-0.3-1l0,0
				C114,104.7,114.1,104.3,114.3,104.3z"/>
			<path class="st2" d="M114.2,100.7h10.7c0.1,0,0.2,0.4,0.2,1l0,0c0,0.6-0.1,1-0.2,1h-10.7c-0.1,0-0.2-0.4-0.2-1l0,0
				C114,101.1,114.1,100.7,114.2,100.7z"/>
		</g>
	</g>
</g>
</svg>
