<?xml version="1.0" encoding="utf-8"?>
<!-- Generator: Adobe Illustrator 24.0.1, SVG Export Plug-In . SVG Version: 6.00 Build 0)  -->
<svg version="1.1" id="Layer_1" xmlns="http://www.w3.org/2000/svg" xmlns:xlink="http://www.w3.org/1999/xlink" x="0px" y="0px"
	 viewBox="0 0 140 181" style="enable-background:new 0 0 140 181;" xml:space="preserve">
<style type="text/css">
	.st0{fill:#EDF7FC;}
	.st1{fill:none;stroke:#0096D9;stroke-width:2;stroke-linecap:round;stroke-miterlimit:10;}
</style>
<g id="Layer_2_1_">
	<rect class="st0" width="140" height="181"/>
</g>
<g>
	<path class="st1" d="M46.4,126.6c5.9,1.7,12.3,2.6,19.1,2.6c6.5,0,12.7-0.8,18.4-2.4"/>
	<path class="st1" d="M19.5,77.5c-4.1,5.2-5.1,9.3-5.1,15.7c0,10.5,6.1,19.9,16.4,26.4"/>
	<path class="st1" d="M92.5,62.6c-4.9-2.7-9.3-4.1-14.3-4.8"/>
	<path class="st1" d="M116.2,88.3c-1.1-5.7-4-10.9-8.4-15.4"/>
	<path class="st1" d="M100.1,85.5c0-2.7-2.2-4.9-4.9-4.9s-4.9,2.2-4.9,4.9"/>
	<circle class="st1" cx="48.8" cy="64.1" r="18.6"/>
	<path class="st1" d="M116.7,88.1L116.7,88.1c5.7-0.6,10.6,3.9,10.6,9.6v2.9c0,3.7-2.1,7-5.4,8.6l-21.9,10.4"/>
	<path class="st1" d="M30.8,119.6l-5.4,12.8c-0.6,1.3,0.2,2.9,1.7,3.1c0.1,0,0.2,0,0.3,0h8.1c3.5-0.9,11.2-8.9,11.2-8.9"/>
	<path class="st1" d="M99.9,119.6l6.2,11.9c0.7,1.4-0.1,3.2-1.6,3.4c-0.1,0-0.2,0-0.3,0h-6.9c-4.3,0-13.3-8.2-13.3-8.2"/>
	<path class="st1" d="M107.8,72.9c0,0,6.7-12.3,4.6-13.7s-19.9,3.4-19.9,3.4"/>
</g>
</svg>
