<?xml version="1.0" encoding="utf-8"?>
<!-- Generator: Adobe Illustrator 24.0.1, SVG Export Plug-In . SVG Version: 6.00 Build 0)  -->
<svg version="1.1" xmlns="http://www.w3.org/2000/svg" xmlns:xlink="http://www.w3.org/1999/xlink" x="0px" y="0px"
	 viewBox="0 0 878 790.1" style="enable-background:new 0 0 878 790.1;" xml:space="preserve">
<style type="text/css">
	.st0{fill:#FFFFFF;}
	.st1{fill:#D55366;}
	.st2{fill:none;stroke:#FFFFFF;stroke-width:3;stroke-linecap:round;stroke-miterlimit:10;}
	.st3{fill:none;stroke:#D55366;stroke-width:3;stroke-linecap:round;stroke-miterlimit:10;}
</style>
<g id="Layer_2">
	<rect x="-17.9" y="-28.4" class="st0" width="913.9" height="847"/>
</g>
<g id="Layer_1">
	<path class="st1" d="M313.9,183.7l-5.3-4.8l-5.8-0.3l-0.6-3.9c0,0,2.8-7.7-3.5-11.8c-5.9-4.2-5.9-5.4-14.2-3.3s-26-3.5-26-3.5
		l-10-3.5l-39.8-8.9c0,0-10.5-3.2-11.4-7.5c2.2-1.2,9.2-3.7,6.1-12.1c-5.7-9-14.3-20.5-31.6-28.1s-27.6-11.8-36.5-12.2
		s-41.1-0.3-41.1-0.3s-12-0.5-22-8.4S46.9,52,36.8,49.1c-0.7-0.6-1.4-1.8-1.4-1.8s17.9-7,29.3,1.5c0,0,3.7,18.2,39,19
		c35.3,0.8,73.7,13.9,73.7,13.9s19.4,13.9,40.4,26.9c15,9.2,15,9.2,15,9.2s7.3,4.8,23.4,1c11.8-3.2,20.1,2.5,20.1,2.5l4.2,3.2l2,1.8
		c0,0,9.2,2.5,13.3,7c0.9,1.4,0.3,1.7,0.3,1.7s6.2,2.3,12.6,2.9c1.5,0.6,1,1.7,1,1.7l-2.4,4.3l2.2,1.2c0,0-0.6,10.6,10.6,18.2
		l0.3,3.1l39.1,44l3.1,0.7c6.2,12,16.8,12.7,16.8,12.7l0.9,2.3l4.5-1.9c0,0,1.2-0.4,1.6,1.2c-0.1,6.4,1.4,12.9,1.4,12.9
		s0.4-0.5,1.7,0.6c4,4.6,5.4,14,5.4,14l1.6,2.2l2.7,4.6c0,0,4.7,8.9,0.1,20.2c-5.6,15.5-1.7,23.3-1.7,23.3s0,0,7.4,16
		c10.4,22.5,21.9,43.4,21.9,43.4s8.4,39.7,5.1,74.9c-3.4,35.2,14.3,41,14.3,41c7,12.3-2,29.3-2,29.3s-1.1-0.9-1.6-1.6
		c-1.7-10.3-15-27.4-21.6-38.2s-5.7-22.8-5.7-22.8s3.9-32,4.6-40.9c0.7-8.8-2.2-19.6-7.8-37.7s-15.9-28-24.2-34.7
		c-8-4.1-11.3,2.6-12.7,4.6c-4.1-1.4-6-12.2-6-12.2l-4.1-40.6l-2.3-10.3c0,0-3.5-18.2-0.4-26.2c3-8,1.9-8.1-1.6-14.5
		c-3.3-6.7-11.3-4.9-11.3-4.9l-3.8-1l0.3-5.8l-4.1-5.8L313.9,183.7z"/>
	<path class="st2" d="M303.5,173.8"/>
	<polyline class="st3" points="51.3,53.3 126.8,371.4 440.4,491.5 	"/>
	<path class="st2" d="M305.7,147.5c-0.9,1.4-2.2,3-3.9,4.7c-1.6,1.6-3.2,2.9-4.6,3.7"/>
	<path class="st2" d="M316.3,165.4c-0.9,1.4-2.2,3-3.9,4.7c-1.6,1.6-3.2,2.9-4.6,3.7"/>
	<path class="st2" d="M357.5,210.7c-0.9,1.4-2.2,3-3.9,4.7c-1.6,1.6-3.2,2.9-4.6,3.7"/>
	<path class="st2" d="M361.8,214.9c-0.9,1.4-2.2,3-3.9,4.7c-1.6,1.6-3.2,2.9-4.6,3.7"/>
	<line class="st2" x1="215.6" y1="132.8" x2="247.3" y2="141"/>
	<path class="st2" d="M252.2,146.3c0,0,23.6,11.9,35.5,4.1"/>
	<path class="st2" d="M307.8,154.4"/>
	<path class="st2" d="M123.8,79.6c0,0,22.4-0.2,46.2,12.2"/>
	<line class="st2" x1="186.3" y1="90.8" x2="221.3" y2="114.3"/>
	<path class="st2" d="M297.1,137.4c0.3,0.1,8.8,2.7,8.8,2.7l-1.8,2.8"/>
	<path class="st2" d="M282.6,129.2c0,0,9,1.3,10,6.1"/>
	
		<ellipse transform="matrix(0.1616 -0.9869 0.9869 0.1616 96.5696 369.5601)" class="st2" cx="265.8" cy="127.9" rx="5.6" ry="9.7"/>
	<path class="st2" d="M378.4,226.7c-1.5,0.7-3.3,1.8-5.1,3.3c-1.8,1.4-3.2,2.8-4.2,4.1"/>
	<line class="st2" x1="381.8" y1="317.9" x2="377.6" y2="285.5"/>
	<path class="st2" d="M373,280c0,0-8.9-24.9,0.3-35.7"/>
	<path class="st2" d="M371.8,223.8"/>
	<path class="st2" d="M443.2,500.3c0,0,4.4-6.8,2.3-17.8"/>
	<path class="st2" d="M436.9,475c0,0-11.7-11.6-7.1-38"/>
	<path class="st2" d="M423.1,415.7c0,0,3-22.2-6.3-47.3"/>
	<line class="st2" x1="417.8" y1="353.2" x2="398.8" y2="315.5"/>
	<path class="st2" d="M385.3,237.3c0-0.3-0.8-9.2-0.8-9.2l-3.1,1.1"/>
	<path class="st2" d="M391.3,252.5c0,0-0.1-9.1-4.8-10.7"/>
	
		<ellipse transform="matrix(0.9993 -3.697858e-02 3.697858e-02 0.9993 -9.6716 14.7112)" class="st2" cx="392.9" cy="268.8" rx="5.6" ry="9.7"/>
	<g>
		<path class="st1" d="M130.3,377.8c-1.2,0-2.3-0.5-3.1-1.4c-1.5-1.7-1.3-4.3,0.4-5.8l243.8-209.8c1.7-1.5,4.3-1.3,5.8,0.4
			c1.5,1.7,1.3,4.3-0.4,5.8L133,376.8C132.2,377.5,131.2,377.8,130.3,377.8z"/>
	</g>
	<path class="st1" d="M411.7,135.1c-5.7-7.4-12-12-14.2-10.3l-29.8,23c-2.2,1.7,0.6,9,6.3,16.4c5.7,7.4,12,12,14.2,10.3l29.8-23
		C420.2,149.8,417.4,142.5,411.7,135.1z"/>
	<path class="st2" d="M415.6,146.7c0.3,1.3,0.1,2.3-0.5,2.8c-1.8,1.4-6.9-2.3-11.4-8.2c-1.7-2.2-3.1-4.4-4-6.3
		c-0.1-0.3-0.3-0.5-0.4-0.8"/>
	<path class="st2" d="M398,129.6c0-0.7,0.2-1.2,0.6-1.5c1.8-1.4,6.9,2.3,11.4,8.2c1.5,2,2.8,3.9,3.7,5.7"/>
	<path class="st2" d="M385.8,173c-2.8-1.2-6.9-4.7-10.6-9.6c-3.5-4.5-5.9-9.1-6.5-12.1"/>
	<line class="st2" x1="400.4" y1="162.2" x2="410.3" y2="154.4"/>
	<line class="st2" x1="371.9" y1="147.8" x2="386.3" y2="136.6"/>
	<line class="st2" x1="274.2" y1="251.8" x2="301.6" y2="227.8"/>
	<line class="st2" x1="198.9" y1="313.4" x2="215.6" y2="299.2"/>
	<polygon class="st1" points="134.9,375 151,387.4 179.3,357.2 174.3,341 	"/>
	<polygon class="st1" points="130.3,368.3 120.5,355.7 154.6,332.2 169.7,334.3 	"/>
	<line class="st2" x1="171.3" y1="343.9" x2="154.3" y2="358.3"/>
	<line class="st2" x1="134.4" y1="365" x2="146.1" y2="354.5"/>
	<line class="st2" x1="169.5" y1="347.8" x2="171.3" y2="352.9"/>
	<line class="st2" x1="164.5" y1="353.9" x2="166.5" y2="360.7"/>
	<line class="st2" x1="140.2" y1="356.1" x2="135.5" y2="356.1"/>
	<line class="st2" x1="135.5" y1="361" x2="128.2" y2="361"/>
	<line class="st2" x1="128.5" y1="374.7" x2="130.3" y2="373"/>
	<ellipse class="st2" cx="129.8" cy="373.8" rx="3.6" ry="4"/>
	<line class="st2" x1="165.4" y1="337.9" x2="173.8" y2="330.8"/>
	<line class="st2" x1="121.2" y1="355.2" x2="128" y2="350.5"/>
	<line class="st2" x1="151.6" y1="386.8" x2="159.6" y2="378.2"/>
	<line class="st2" x1="332" y1="205.6" x2="338.8" y2="199.7"/>
	<line class="st2" x1="337.2" y1="190.2" x2="343" y2="185.2"/>
	<path class="st1" d="M676.5,772.6C676.5,772.6,668.5,773.3,676.5,772.6c13.4,0.7,35.9-22.5,35.9-22.5
		c107.6-21.7,135.1-99.6,135.1-99.6s8.8-16.7-1.7-45.7c-7.9-21.9-23.3-40.3-43.1-52.6c-52.5-32.6-69.7-1.3-69.7-1.3
		s-2.2-26.1-33.7-17c-55.8,16-56.1,119.2-58,127.9c-10.5,0.7-32.6,13.8-32.6,13.8s6.5-4.3,0,0c0,0,0,2.5,0.5,6.7
		C611.5,698.8,622.3,742.9,676.5,772.6z"/>
	<path class="st2" d="M732.5,546.9c0,0,4.5,23.6-8,58"/>
	<path class="st2" d="M736.3,609.8c0,0,27.2-4.3,27-47.8"/>
	<path class="st2" d="M659.7,681.5c0,0,38.4-4.9,63-42.4"/>
	<path class="st2" d="M710.1,751.6c-1.3,1-6.7-3.7-14.4-12c-1.4-1.6-3-3.2-4.5-5.1c-1.8-2.1-3.7-4.3-5.7-6.7
		c-4.5-5.3-9.3-11.3-14.2-17.7c-7.9-10.3-14.9-20-20.1-28"/>
	<path class="st2" d="M734.6,582.9c0-0.7,4.6-11.2,18.1-20.9"/>
	<path class="st2" d="M837.7,609.8c0,0,9.2,25.4-5.8,48.9"/>
	<path class="st2" d="M796.3,701.8c0,0-24.6,24.6-71.8,37.8"/>
	<path class="st1" d="M646.1,674"/>
	<path class="st1" d="M649.4,679.4"/>
	<line class="st2" x1="640.7" y1="676.8" x2="622.9" y2="686"/>
	<path class="st2" d="M612.7,688.6c-1.2-1.7-3.5-6.4-3.5-6.4"/>
	<path class="st2" d="M642.2,663.5c0,0,0.6,4,3.7,7.7"/>
	<path class="st2" d="M627.8,722c0,0,7,19.8,35.5,37.2"/>
	<path class="st2" d="M752.7,542.3c0.2,0,16.9-4.7,33.5,7.2"/>
	<path class="st1" d="M612.8,230.4c5.8,6.6,30.1,6.6,30.1,6.6s23.9-15.9,47.1-29.7c23.2-13.8,23.9-113.8,36.2-94.2
		c12.3,19.6,78.3,30.4,84,35.5c5.8,5.1,40.6,6.5,40.6,6.5s2.9,21-8,48.5s-52.2,94.2-60.1,105.8c-8,11.6-14.5,14.5-30.4,67.4
		S669,465.2,669,465.2s-41.3,12.3-80.8,10.1c-39.5-2.2-33.7-32.6-29.3-45.6s58.7-45.6,58.7-45.6s5.8-42,8-55.1
		c1.9-11.3-16.5-67.3-14.7-95.2C610.8,233.8,611.3,229.1,612.8,230.4z"/>
	<path class="st2" d="M612.8,451.1c0,0,83.7-16.3,106.1-85.5"/>
	<path class="st2" d="M731.3,322.8c-0.4-1.8,12-44.6,33.7-68.8"/>
	<line class="st2" x1="632.4" y1="381.9" x2="660.7" y2="378.6"/>
	<path class="st2" d="M625.2,394.9c2.5,0.7,21.4,13.4,21.4,13.4"/>
	<line class="st2" x1="745.1" y1="142.4" x2="752" y2="167"/>
	<line class="st2" x1="778" y1="156.5" x2="758.1" y2="177.9"/>
	<path class="st2" d="M648.6,248.6c9,39.8,5.7,67.4,5.7,67.4"/>
	<path class="st2" d="M810.3,148.6c0,0,4.5,21.2-6.9,38.8"/>
	<path class="st1" d="M376.5,636.3c-1-20.9-14.6-21-15.3-21.3c-32.8-16.3-70.6-6.6-70.6-6.6l-2.7-11.6c0,0-26.9-11.6-29.6-12.1
		c-2.7-0.5-56.3-30.3-139.7-37.8c-83.5-7.5-82,43.4-82,43.4l-1.1,42.1c0,1.8,0.5,3.6,1.6,5c7.8,10.1,40.2,51.6,53.1,63.5
		c7.3,18.2,9.9,24.3,17.2,31.3c6,5.8,30.7,21,49.2,31.1c3.8,2.1,7.4,4,10.5,5.5c18,9,23.8,8.2,41.7,8.5c18,0.2,132.5-47.6,147-55.3
		c14.6-7.8,19.4-32.3,19.4-32.3S377.4,657.1,376.5,636.3z M185.8,620.2c-21.8-0.2-85.9,5.1-89.5,26.9c0,0-37.6-27.9-47.6-43.7
		c9.2-11.6,28.9-27.9,75.7-22.1c46.8,5.8,73.5,8.7,104.8,30.1C196.7,618.8,207.6,620.5,185.8,620.2z"/>
	<path class="st2" d="M169.4,764.6c-7.1-8.4-12.6-19.4-11.6-50.3"/>
	<path class="st2" d="M221.4,774.8"/>
	<path class="st2" d="M341.5,623.2c0,0,32.5-16,34,8.5"/>
	<path class="st2" d="M191.4,664.7c8.4-3.2,19.1-5.8,32.4-7.3c8.9-1,17.7-2.4,26.1-4.1c25.3-5,48.1-12.5,64.6-18.8"/>
	<path class="st2" d="M240.8,654.9c-35,3.4-51.4,23.5-51.4,23.5"/>
	<path class="st2" d="M211.4,634.2c-3.9,0.5-7.9,1-11.9,1.5c-13.3,1.7-27.3,3.6-39.7,5.6c-17.8,2.8-32.4,5.7-37.6,8
		c-12.9,5.8-25.7,32.3-18.4,63.6"/>
	<path class="st2" d="M199.5,619.7c32.7,0,73.1-18.1,77.8-24c0.1-0.1,0.1-0.2,0.2-0.3"/>
	<path class="st2" d="M97.5,646.7"/>
	<path class="st2" d="M165.5,579.4c-0.1-0.2-54-17.2-87.7-4.9"/>
	<path class="st2" d="M188.2,569.4c6.6,1.9,33.5,7.4,53.9,20.1"/>
	<polyline class="st2" points="42.9,624.1 42.4,633.8 61.3,655.9 	"/>
	<path class="st2" d="M97.7,640.4c0,0-12.6,19.7-10.7,42.5"/>
	<path class="st2" d="M262.1,621c0,0,18.7-10.7,29-12.8"/>
</g>
</svg>
