<?xml version="1.0" encoding="utf-8"?>
<!-- Generator: Adobe Illustrator 24.0.1, SVG Export Plug-In . SVG Version: 6.00 Build 0)  -->
<svg version="1.1" id="Layer_1" xmlns="http://www.w3.org/2000/svg" xmlns:xlink="http://www.w3.org/1999/xlink" x="0px" y="0px"
	 viewBox="0 0 878 790.1" style="enable-background:new 0 0 878 790.1;" xml:space="preserve">
<style type="text/css">
	.st0{fill:#666666;}
	.st1{fill:#010001;}
	.st2{fill:none;stroke:#010001;stroke-miterlimit:10;}
</style>
<g id="Layer_2_1_">
	<rect class="st0" width="881.3" height="790.1"/>
</g>
<g>
	<g>
		<path class="st1" d="M605,695.2l-1.2-0.3c-2.5-0.5-57.1-2.7-93.1-4l-1,0l-40.4-71.6c-0.1-0.2-6.9-24.1-22.8-31.3
			c-23.2,4.6-36,7.1-43,8.5c-5.1,1-7.5,1.5-8.8,1.4l-39.7,1.7l-0.5,58.2l-105.1-20.1l-0.1-1.3c-0.7-13.6-3.6-81.9,1.5-89
			c5.4-7.4,56.6-27.7,75-31.1c-3-6-10.4-23.4-6-41.2l0.6-2.3l2,1.3c0.5,0.3,45.8,29,99.8,29c0.8,0,1.5,0,2.3,0
			c56-0.9,92.6-2.1,138-15.8c48.4-10.7,69.8-16.6,70-16.7l2.2-0.6l0,2.2c0.2,38.3-33.8,76.7-38.8,82.1c0.7,6.7,1.7,14,2.7,21.7
			c3.6,27.5,8,61.7,5.5,97.3l-0.1,0.4c-1.4,4.7,0.4,11.4,1.5,15.4c0.9,3.3,1.3,4.7,0.2,5.6L605,695.2z M511.8,687.5
			c25.4,1,79.3,3.1,90.9,3.9c-0.1-0.5-0.3-1.1-0.4-1.7c-1.2-4.3-3.1-11.5-1.5-17.1c2.4-35.2-2-69.1-5.5-96.4c-1-8-2-15.6-2.7-22.6
			l-0.1-0.8l0.5-0.6c0.4-0.4,37.2-39.7,38.3-78.1c-6.6,1.7-28.1,7.3-67.9,16.1c-45.6,13.8-82.5,15-138.8,15.9
			c-49.4,0.7-92.2-22.6-101.9-28.3c-3.6,19.4,7.2,38.3,7.3,38.5l1.3,2.2l-2.6,0.3c-15.7,1.9-70.4,23.8-75,30.1
			c-3.4,4.7-2.4,54.3-1,85.5l98.5,18.9l0.4-57.4l44.1-1.8c2.4-0.4,11.6-2.1,45.6-8.9c-13.4-7.2-13.5-15.1-13.5-15.4h3.4
			c0,0.1,0.4,7.8,16.1,14.6c17.1,7.4,24.4,30.9,25.1,33.5L511.8,687.5z"/>
	</g>
	<g>
		<path class="st1" d="M389.4,703.9h-201v-29.5h201V703.9z M191.8,700.5H386v-22.6H191.8V700.5z"/>
	</g>
	<g>
		<path class="st1" d="M294.3,687.6c-8.8,0-18.6-0.3-29.4-1.2c-24.3-1.9-31.3-11-32.9-18.3c-2.9-13.3,10.1-30.5,32.2-42.7
			c41.3-22.7,69.1,6.1,85.7,23.4c3.7,3.9,7,7.2,9.5,9.1l0.7,0.5l0.1,19.1l-0.9,0.5C358.2,678.5,339.3,687.6,294.3,687.6z
			 M293.7,620.6c-8.5,0-17.8,2.3-27.9,7.8c-20.5,11.3-33.1,27.3-30.5,39c1.9,8.8,12.5,14.3,29.8,15.6c58.6,4.5,86.3-5.5,91.6-7.7
			l0-15.2c-2.6-2.1-5.7-5.3-9.3-9C335.6,639,317.9,620.6,293.7,620.6z"/>
	</g>
	<g>
		<path class="st1" d="M545.8,724.5c-8.8,0-18.5-0.3-29.4-1.2c-24.3-1.9-31.3-11-32.9-18.3c-2.9-13.3,10.1-30.5,32.2-42.7
			c41.3-22.7,69.1,6.1,85.7,23.4c3.7,3.9,7,7.2,9.5,9.1l0.7,0.5l0.1,19.1l-0.9,0.5C609.8,715.3,590.9,724.5,545.8,724.5z
			 M545.3,657.4c-8.5,0-17.8,2.3-27.9,7.8c-20.5,11.3-33.1,27.3-30.5,39c1.9,8.8,12.5,14.3,29.8,15.6c58.6,4.5,86.3-5.5,91.6-7.7
			l0-15.2c-2.6-2.1-5.7-5.3-9.3-9C587.2,675.8,569.5,657.4,545.3,657.4z"/>
	</g>
	<g>
		<path class="st2" d="M318.1,479.2"/>
	</g>
	<g>
		<path class="st1" d="M298.3,408.1c-21,0-34.2-6.2-34.9-6.5l1.5-3.1c0.2,0.1,18.4,8.6,45.4,5.5c1.2-6.1,6.5-32,11.6-38.3
			c5.3-6.6,17.1-23.8,17.3-24l2.8,1.9c-0.5,0.7-12,17.5-17.4,24.2c-4.2,5.2-9.4,29.2-11.1,38l-0.2,1.2l-1.2,0.2
			C307.1,407.9,302.5,408.1,298.3,408.1z"/>
	</g>
	<g>
		<path class="st1" d="M692.6,391.2l-3-7.8c-9.1-23.6-24.5-31.3-24.6-31.3c-0.1-0.1-20.4-8.8-36.7-5.3c-7.9,1.7-15.5,5-22.1,7.9
			c-7.6,3.3-14.1,6.2-19.1,5.6l0.4-3.4c4,0.5,10.2-2.2,17.3-5.3c6.8-3,14.5-6.3,22.8-8.1c17.4-3.7,38,5.2,38.9,5.6
			c0.7,0.3,13.4,6.6,23,25.5c-1.5-24-12.6-44.2-19.5-52.9c-36.3-59.4-98.9-65.5-99.5-65.6l-1.6-0.1V126.2c0-15.5-6.1-30-17.1-40.8
			S526,68.8,510.5,69.1L413,70.9c-25,0.5-44.9,20.4-45.3,45.4l-2.4,147.4l-4.7,6.6c-8.9,5.5-32.5,21.1-34.9,27.5
			c-3.1,8.1-13.1,52.4-13.2,52.8l-9.1,40l-3.3-0.8l9.1-40c0.4-1.8,10.1-45,13.3-53.3c3.2-8.3,31.4-26.1,36-28.9l3.4-5l2.4-146.4
			c0.4-26.8,21.8-48.3,48.7-48.8l97.5-1.8c16.5-0.3,31.9,5.9,43.6,17.3c11.7,11.5,18.2,26.9,18.2,43.3v126.5
			c10.1,1.4,66.6,11.5,100.4,66.9c7.9,10,21.2,34.7,20.3,63.3L692.6,391.2z"/>
	</g>
	<g>
		<path class="st1" d="M557.4,353.8c-2.5-3.5-6.8-9.4-7.7-10.2l2.4-2.4c1.4,1.3,7,9.1,8.1,10.7L557.4,353.8z"/>
	</g>
	<g>
		<path class="st1" d="M269.1,402c-1.7,0-3.4-0.1-5.2-0.2c-18.9-1.7-33-26.7-32.2-38.8c0.8-11.6,10.9-45.6,31.3-61.9
			c-0.6-6.5-3.4-42.9,11.8-56.5l0.4-0.4c10.9-9.8,24.5-22.1,37.4-19c7.4,1.7,13.2,8.1,17.9,19.4c5.9,0.5,11.6,10.2,12.9,12.6
			c10.2,12.6-14.5,41-18.4,45.3c0.1,7.3,0.7,63.8-15.3,78.5C294.6,395.2,284.4,402,269.1,402z M308.6,228.1
			c-10.3,0-21.7,10.2-31,18.6l-0.4,0.4c-15.1,13.6-10.6,54.2-10.6,54.6l0.1,1l-0.8,0.6c-19.7,15.1-30,49-30.7,60
			c-0.7,10.7,12.2,33.7,29.1,35.1c17.1,1.5,26.8-4.6,43.2-19.8c15.5-14.4,14.2-76,14.2-76.6l0-0.7l0.5-0.5
			c7.8-8.4,26.3-32.3,18.6-41.5l-0.2-0.3c-2.6-4.9-7.8-11.5-10.8-11l-1.4,0.2l-0.5-1.3c-4.2-10.8-9.6-17-15.9-18.5
			C310.8,228.3,309.7,228.1,308.6,228.1z"/>
	</g>
	<g>
		<path class="st1" d="M318.2,280.2c-0.2,0-0.5,0-0.7,0c-2.4-0.1-4.3-1.3-5.4-3.2c-2.5-4.2-1-10.7,0.4-13.8
			c2.2-4.7,14.3-16.6,15.7-17.9l2.4,2.4c-3.6,3.5-13.4,13.5-15,17c-1.5,3.1-2.1,8.1-0.6,10.6c0.6,1,1.5,1.5,2.7,1.6
			c5,0.3,11.6-4.3,13.8-6.1l2.2,2.6C333.4,273.5,325.3,280.2,318.2,280.2z"/>
	</g>
	<g>
		<path class="st1" d="M316.5,258.9c-7.1-20.8-26.9-22.1-27.7-22.2l0.2-3.4c0.2,0,22.8,1.5,30.8,24.5L316.5,258.9z"/>
	</g>
	<g>
		<path class="st1" d="M310.9,271.2c-11-25.2-33.7-23.7-34.7-23.6l-0.3-3.4c0.3,0,26.2-1.8,38.1,25.6L310.9,271.2z"/>
	</g>
	<g>
		<path class="st1" d="M498.8,176.1c-10.5,0-19-8.5-19-19c0-10.5,8.5-19,19-19s19,8.5,19,19C517.8,167.6,509.3,176.1,498.8,176.1z
			 M498.8,141.5c-8.6,0-15.6,7-15.6,15.6c0,8.6,7,15.6,15.6,15.6s15.6-7,15.6-15.6C514.4,148.5,507.4,141.5,498.8,141.5z"/>
	</g>
	<g>
		<path class="st1" d="M424,176.1c-10.5,0-19-8.5-19-19c0-10.5,8.5-19,19-19s19,8.5,19,19C443,167.6,434.5,176.1,424,176.1z
			 M424,141.5c-8.6,0-15.6,7-15.6,15.6c0,8.6,7,15.6,15.6,15.6c8.6,0,15.6-7,15.6-15.6C439.6,148.5,432.6,141.5,424,141.5z"/>
	</g>
	<g>
		
			<rect x="481.3" y="153" transform="matrix(0.9906 -0.1368 0.1368 0.9906 -16.479 69.6237)" class="st1" width="34.3" height="3.4"/>
	</g>
	<g>
		
			<rect x="419.5" y="139.1" transform="matrix(0.2337 -0.9723 0.9723 0.2337 174.9696 526.0464)" class="st1" width="3.4" height="25.8"/>
	</g>
	<g>
		<path class="st1" d="M421.7,163.6c-1.2,0-2.2-1-2.2-2.2c0-1.2,1-2.2,2.2-2.2s2.2,1,2.2,2.2C423.9,162.6,422.9,163.6,421.7,163.6z
			 M421.7,160.2c-0.7,0-1.2,0.5-1.2,1.2c0,0.7,0.5,1.2,1.2,1.2c0.7,0,1.2-0.5,1.2-1.2C422.9,160.7,422.4,160.2,421.7,160.2z"/>
	</g>
	<g>
		<path class="st1" d="M497.1,164.9c-1.3,0-2.4-1.1-2.4-2.4c0-1.3,1.1-2.4,2.4-2.4s2.4,1.1,2.4,2.4
			C499.5,163.9,498.4,164.9,497.1,164.9z M497.1,161.5c-0.6,0-1,0.5-1,1c0,0.6,0.5,1,1,1c0.6,0,1-0.5,1-1
			C498.2,162,497.7,161.5,497.1,161.5z"/>
	</g>
	<g>
		<path class="st1" d="M481.1,220.1c-0.3,0-0.6-0.1-0.8-0.2c-12.2-6.8-49.8,0.1-50.2,0.2c-0.9,0.2-1.8-0.4-2-1.4
			c-0.2-0.9,0.4-1.8,1.4-2c1.6-0.3,39.2-7.2,52.5,0.2c0.8,0.5,1.1,1.5,0.7,2.3C482.3,219.8,481.7,220.1,481.1,220.1z"/>
	</g>
	<g>
		<path class="st1" d="M520.9,204c-3.7,0-8.2-3.3-15.6-8.9l-0.8-0.6l-0.2-0.4c-5.3-10.9-19.9-12.9-28.1-13.2
			c-3.6-0.1-7.2,1.1-10.2,3.5c-6.3,5-18.6,12.2-29.4,3.4c-11.3-9.2-15.6-5.6-23.4,1c-1.1,0.9-2.2,1.8-3.3,2.8
			c-2.9,2.3-5.5,3-7.8,1.9c-4.8-2.2-5.2-11.6-5.2-12.6l3.4-0.1c0.1,3.4,1.2,8.7,3.3,9.6c1.2,0.6,2.9-0.5,4.2-1.5
			c1.1-0.9,2.2-1.8,3.3-2.7c8-6.7,14.2-12,27.8-1c9,7.3,19.6,1,25.1-3.4c3.6-2.9,8-4.4,12.4-4.2c8.9,0.3,24.7,2.6,30.9,14.8l0.2,0.1
			c12.5,9.3,13.8,9.8,17.1,5.9c4.2-4.9,4.8-6.8,4.9-6.8l3.3,0.9c-0.1,0.4-0.8,2.6-5.5,8.2C525,202.9,523.1,204,520.9,204z"/>
	</g>
	<g>
		<path class="st1" d="M472.8,235.1c-9.2,0-17.5-4.9-20.2-6.6c-8.2,3.8-15.3,4.6-21,2.2c-6.3-2.6-8.7-8.2-9.2-9.4
			c-1.7-2.8-5.1-9.2-2.9-12.2c0.7-0.9,2-1.8,4.8-1.1c5.9,1.4,23.1-4.2,29.2-6.5l0.8-0.3l0.7,0.4c13.4,8.2,33,7.7,33.2,7.7l0.9,0
			l0.5,0.8c0.2,0.2,4,6,2.4,12.4c-1,4.1-3.8,7.4-8.4,10C480.2,234.3,476.4,235.1,472.8,235.1z M453,224.5l0.8,0.6
			c0.2,0.1,15.8,11.2,28.3,4.2c3.7-2.1,6-4.7,6.7-7.7c0.9-3.8-0.7-7.5-1.5-9c-4.2,0.1-20.7-0.5-33.3-7.8c-4.5,1.7-23,8.2-30.4,6.4
			c-1-0.2-1.3-0.1-1.3-0.1c-0.5,0.8,1.1,5,3.2,8.5l0.2,0.3c0,0,1.9,5.2,7.4,7.5c5,2.1,11.4,1.2,19.1-2.5L453,224.5z"/>
	</g>
	<g>
		<path class="st1" d="M309.8,283.4c-1.1,0-2.4-0.1-3.8-0.4c-3.4-0.7-7.8-3.3-9.7-6.9c-5.8-11.1-29-11.9-29.3-11.9l0.1-3.4
			c1,0,25.4,0.9,32.2,13.8c1.2,2.3,4.4,4.6,7.4,5.2c6.7,1.4,9.4-2.1,9.5-2.2l2.8,2C318.9,279.6,316.2,283.4,309.8,283.4z"/>
	</g>
	<g>
		<path class="st1" d="M289.8,291.9c-0.5,0-1-0.1-1.5-0.2c-4.1-1.4-10.8-5.3-11.9-6l-12.4-4.1l1.1-3.2l13,4.3
			c0.1,0,7.4,4.4,11.4,5.8c2,0.7,6.9-3,10.2-6.1c-1.9-3.3-7.9-13.2-14.6-14.3l0.6-3.4c9.7,1.7,17.3,16.6,17.6,17.2l0.5,1.1l-0.8,0.9
			C301.5,285.3,294.8,291.9,289.8,291.9z"/>
	</g>
	<g>
		<path class="st1" d="M621.4,437.8c-2.4,0-3.8-0.1-4-0.1c-1.1-0.2-24.8-4.4-37.6-11c-4.1,1.4-23.4,7.9-35.1,4.4l-6.1-2.2
			c-2.5,1.5-10.5,5.8-16.8,2.2c-5.5-3.1-17-12.5-7.7-33.5c-2.5-3-3.8-7.3-3.8-11.9c0.1-5.8,2.4-11.4,6.3-15.6
			c-2.2-2.8-3.9-6.8-3.2-10.8c0.7-3.8,3.6-6.9,8.5-9.1c12.8-5.9,33.7-1.4,49,3.5c15,4.7,20.9,3.4,38-4c19.4-8.4,37.5-9.9,51.1-4.4
			c14.4,5.9,30.3,31.7,30.9,32.8l0.1,0.2c0.5,1.1,3.5,18.5-3.4,33.1c-4.3,9.2-11.6,15.4-21.6,18.4
			C643.3,436.8,628.1,437.8,621.4,437.8z M580.1,422.9l0.7,0.4c12.1,6.6,36.8,10.9,37.1,11c0,0,16.8,1.6,47.3-7.6
			c29.1-8.8,23.3-44.4,22.8-47c-1.6-2.5-16.4-26-29.2-31.2c-12.7-5.2-29.9-3.7-48.5,4.3c-17.8,7.7-24.8,9-40.4,4.1
			c-14.7-4.7-34.7-9.1-46.5-3.6c-3.8,1.8-6.1,4-6.6,6.7c-0.6,3.3,1.4,6.9,3.4,9l1.2,1.3l-1.3,1.2c-3.9,3.6-6.2,8.8-6.4,14.3
			c-0.1,4.2,1.2,8,3.6,10.3l0.8,0.8l-0.5,1.1c-8.6,18.5,0,26.8,5.9,30.2c5.5,3.1,13.8-2.5,13.9-2.5l0.7-0.5l7.6,2.7
			c11.7,3.5,33.4-4.5,33.6-4.6L580.1,422.9z"/>
	</g>
	<g>
		<path class="st1" d="M448.5,506.8c-71,0-118.8-19.2-123.6-26.4c-12.4-8.8-14.5-21.8-16.4-33.3l-0.2-0.9c-2-12,1.3-70.5,19.1-87.3
			c16.5-15.6,19.5-45.3,19.5-45.6l3.4,0.3c-0.1,1.3-3.1,31.3-20.5,47.8c-16.7,15.7-19.9,73-18.1,84.3l0.2,0.9
			c1.8,11,3.9,23.4,15.3,31.3l0.5,0.3l0.2,0.5c2.6,6.4,101.2,46.6,234.7,8.4c0.6-0.1,45.1-8.7,71.4-17.1c6.7-2.2,11.5-6,14.3-11.5
			c5.6-11.2,0.9-25.6,0.8-25.7l3.2-1.1c0.2,0.6,5.3,15.8-1,28.3c-3.2,6.3-8.7,10.7-16.3,13.2c-26.5,8.5-71.2,17.1-71.7,17.2
			C521.3,502.4,482.3,506.8,448.5,506.8z"/>
	</g>
	<g>
		<polygon class="st1" points="458.8,173.4 429.4,173.4 439.6,101.6 443,102.1 433.3,170 456,170 467.3,106 470.7,106.6 		"/>
	</g>
	<g>
		<path class="st1" d="M398.9,253.5h-10.7l2.3-134.8c0-0.5,0.8-8.9,9.1-14.9c9.1-6.7,23.3-7.9,42.2-3.5l-0.8,3.3
			c-17.6-4-31.2-3-39.4,2.9c-7.1,5.1-7.7,12.1-7.8,12.4L391.6,250h3.9c0.2-13.8,1.3-107.6,2.2-132.4l0-0.6l0.4-0.4
			c14.2-17.1,33.4-7,39.7-3.7c0.7,0.4,1.2,0.6,1.5,0.7l-0.5,3.4c-0.6,0-1.1-0.3-2.6-1.1c-5.6-3-22.7-11.9-35.1,2.4
			c-0.9,27.6-2.2,132.4-2.2,133.4L398.9,253.5z"/>
	</g>
	<g>
		<rect x="432" y="171" transform="matrix(0.848 -0.5301 0.5301 0.848 -27.0974 256.5923)" class="st1" width="3.4" height="9"/>
	</g>
	<g>
		<path class="st1" d="M467,280c-55.8,0-103.2-14.9-104-15.2l1-3.3c1.2,0.4,123.5,38.8,205.6-8.8l1.7,3
			C539.4,274.2,501.6,280,467,280z"/>
	</g>
	<g>
		<path class="st1" d="M451.8,261.6c-35.4,0-54-7.7-55.2-8.3l1.3-3.1c0.5,0.2,45.9,19,130.1-2.3c-0.6-35-2.2-120.4-2.7-128.6
			c-3.9-3-28.2-20.3-45.1-7.9l-12.2,66.9l-11.2-5l1.4-3.1l7.2,3.2l11.6-64l0.5-0.4c20.5-15.9,49.2,7,50.4,8l0.3,0.4
			c0.4,0.5,0.9,1.4,3.1,131.8l0,1.3l-1.3,0.3C498.4,259,472.3,261.6,451.8,261.6z"/>
	</g>
	<g>
		<path class="st2" d="M389.9,251.8"/>
	</g>
	<g>
		<path class="st1" d="M454.9,266.2c-43.9,0-64.7-12.2-65.9-13l1.8-2.9c0.4,0.3,43,25.1,134.7,3.5c0.9-0.2,1.6-0.8,2.1-1.6
			c0.5-0.8,0.6-1.7,0.4-2.6l3.3-0.8c0.5,1.8,0.2,3.7-0.8,5.2c-1,1.6-2.5,2.7-4.3,3.1C497.8,263.8,474.2,266.2,454.9,266.2z"/>
	</g>
	<g>
		<path class="st1" d="M443.5,417.4l-0.7-1.5c-1.1-2.3-10.5-22.3-11-26.2c-0.2-1.7-3.9-1.7-4.9-1.6l-1.9,0.2l0-15.4
			c0-1.1-0.2-1.4-0.2-1.4c-0.1,0.1-1.1,0.6-1.8,1.2l-1.7,1.5l-9.1-20.6c-0.2-6.6-0.6-17.4-1.1-19.9c-0.3,0-0.7,0-1,0.1
			c-1.2,0.1-2.9,0.3-4.1-1c-0.8-0.8-1-2-0.8-3.6c0.5-3.4-2.9-16.8-5.3-24.9c-0.2-1.9-1.8-15.4-0.5-22l-3.6-0.8l-0.1-1.3
			c-0.1-1.6-1-16.1,1.6-21.5c1.6-3.3-0.2-12.5-1.8-17.5l3.3-1c0.5,1.5,4.3,14.4,1.6,20c-1.7,3.6-1.6,13.6-1.4,18.5l4.8,1.1l-0.7,1.9
			c-1.6,3.9-0.5,17.2,0.1,22c0.6,1.9,6.1,20.9,5.3,26.1c-0.1,0.6,0,0.9,0,0.9c0-0.1,0.8-0.2,1.2-0.2c1.3-0.1,3.8-0.3,4.5,2.1
			c0.7,2.5,1.2,17,1.3,20.7l7,15.7c1.1-0.6,2.5-1,3.7-0.4c1.4,0.6,2.1,2.1,2.1,4.4v11.8c2.9,0.1,6.3,1.2,6.8,4.7
			c0.3,2.4,6,15.1,10,23.5c3.5-1.9,7.7-5,7.9-7.2c0.1-0.6,0.1-1.5,0.2-2.6c0.8-11.9,1.9-18.6,5.4-19.5c2.2-0.6,3.9,1.4,4.8,2.6
			c-0.2-1.7-0.5-3.7-0.7-5.4c-1-7.1-1.3-10.1-0.1-11.5c0.4-0.5,1-0.8,1.7-0.8c2.9,0,6,3.6,7.8,6.2c3.5-4.7,12.4-16.7,17.7-23.1
			c3.4-4.1,2.4-11.2,1.7-16.3c-0.6-4-0.9-6.7,0.3-8.3c0.5-0.6,1.2-1,2.1-1.1c2.9-0.2,5.3,1,6.9,2.2c2.6-7.2,10.4-29.1,10.4-35.8
			c0.6-4.6,2.4-6.2,3.8-6.7c0.7-0.3,2-0.5,3.6,0.3c0.4-4.3-0.2-16.2-1.2-26.9l-0.1-0.7l0.5-0.6c0.1-0.1,10.7-11.9,11.2-21.5l3.4,0.2
			c-0.5,9.6-9.3,20.4-11.5,23c2.6,28.8,0.5,29.9-0.6,30.5c-0.8,0.4-1.6,0.3-2.3-0.3c-0.8-0.6-1.4-0.9-1.9-0.8
			c-0.5,0.2-1.3,1.3-1.6,3.8c0,8.4-11,37.9-11.5,39.2l-1,2.7l-1.9-2.2c0,0-2.5-2.8-5.7-2.8c0,0-0.1,0-0.1,0
			c-0.2,0.9,0.2,3.5,0.4,5.4c0.8,5.8,1.9,13.7-2.4,19c-6.7,8-18.9,24.8-19,24.9l-1.5,2.1l-1.3-2.2c-1.6-2.5-3.9-5.3-5.4-6.3
			c0,1.9,0.5,5.6,0.8,8c1.1,7.8,1.3,10.5-0.8,11.3c-1.9,0.7-3.5-1.6-4.4-2.9c-1.1-1.6-1.6-1.8-1.6-1.8c-0.7,0.5-1.9,3.8-2.8,16.4
			c-0.1,1.2-0.1,2.1-0.2,2.7c-0.6,5.5-10.3,10.2-11.4,10.8L443.5,417.4z"/>
	</g>
</g>
</svg>
