<?xml version="1.0" encoding="utf-8"?>
<!-- Generator: Adobe Illustrator 24.0.1, SVG Export Plug-In . SVG Version: 6.00 Build 0)  -->
<svg version="1.1" id="Layer_1" xmlns="http://www.w3.org/2000/svg" xmlns:xlink="http://www.w3.org/1999/xlink" x="0px" y="0px"
	 viewBox="0 0 878 790.1" style="enable-background:new 0 0 878 790.1;" xml:space="preserve">
<style type="text/css">
	.st0{fill:#666666;}
	.st1{fill:#DECC5A;}
	.st2{fill:#FFE472;}
	.st3{fill:#A6734C;}
	.st4{fill:#010101;}
	.st5{fill:#7A5235;}
	.st6{fill:#D59064;}
	.st7{fill:#A6A5A6;}
	.st8{fill:#D4D3D3;}
	.st9{fill:#888989;}
	.st10{fill:none;}
	.st11{fill:#332217;}
	.st12{fill:#F9E37C;}
	.st13{fill:#CAC9C9;}
	.st14{fill:#F6B3A2;}
	.st15{fill:#A9A9AA;}
	.st16{fill:#E2E1E1;}
	.st17{fill:#FFFFFF;stroke:#010101;stroke-miterlimit:10;}
	.st18{fill:#FFFFFF;}
	.st19{fill:#7F7D7D;}
	.st20{fill:#A6A5A6;stroke:#010101;stroke-miterlimit:10;}
	.st21{fill:#DA9282;}
	.st22{fill:none;stroke:#010101;stroke-miterlimit:10;}
	.st23{fill:#F1E6E3;}
	.st24{fill:#621A0C;}
	.st25{fill:#4B130B;}
	.st26{fill:#CDCDD3;}
	.st27{opacity:0.42;}
	.st28{fill:#E2DFDF;}
	.st29{clip-path:url(#SVGID_2_);}
</style>
<g id="Layer_2_1_">
	<rect x="0.1" class="st0" width="881.3" height="790.1"/>
</g>
<g>
	<g>
		<g>
			<path class="st1" d="M545.8,620.5c0,0,10.7-4.2,35.1-7.4s78,13.8,102.8,11.5c24.8-2.3,46.3-8.3,51.2,8.7s0.7,51.9-24.4,61.2
				c-25.1,9.2-48.1-24.2-116.5-13.5c-68.4,10.7-86.1-39.7-86.1-39.7s1.4-0.8,3.9-1.8c2.5-0.9,4.1-1.7,4.1-1.7s6.1,4.3,14.4,0
				c6.6-4.4,7.5-6.4,7.5-6.4l3.5-5C541.3,626.5,545.2,623.7,545.8,620.5z"/>
		</g>
		<g>
			<g>
				<path class="st2" d="M611.3,651.5c0-3.3,14.8-6.1,33.9-6.4c-2.4-0.1-4.8-0.1-7.3-0.1c-21.1,0-38.2,2.9-38.2,6.5
					c0,3.6,17.1,6.5,38.2,6.5c1.5,0,3,0,4.4,0C624.6,657.3,611.3,654.6,611.3,651.5z"/>
			</g>
			<g>
				<path class="st2" d="M649.6,645c-1.5,0-3,0-4.4,0c17.6,0.6,30.9,3.2,30.9,6.4c0,3.3-14.8,6.1-33.9,6.4c2.4,0.1,4.8,0.1,7.3,0.1
					c21.1,0,32.8-3,32.8-6.6C682.4,647.8,670.7,645,649.6,645z"/>
			</g>
			<g>
				<path class="st2" d="M640.8,640.2c-2.1,0-4.1,0-6.1,0.1c24.5,1,54.5,5.8,54.5,11.4c0,5.9-32,10.6-58.6,11.3
					c3.3,0.1,6.7,0.2,10.2,0.2c29.4,0,53.2-5.1,53.2-11.5C694,645.4,670.2,640.2,640.8,640.2z"/>
			</g>
			<g>
				<path class="st2" d="M636.1,640c2.1,0,4.1,0,6.1,0.1c-24.5,1-54.5,5.8-54.5,11.4c0,5.9,32,10.6,58.6,11.3
					c-3.3,0.1-6.7,0.2-10.2,0.2c-29.4,0-53.2-5.1-53.2-11.5C582.9,645.1,606.7,640,636.1,640z"/>
			</g>
		</g>
		<g>
			<path class="st2" d="M665.2,624.9c0,0,16.1,3.5,29.5,1.4c13.4-2.1,33.6-2.5,35,3.6s7,20.4,7,20.9c0.1-3.9,1.5-20-5.9-24.5
				c-7.4-4.5-16.4-5.2-31.8-3.4C683.7,624.6,665.2,624.9,665.2,624.9z"/>
		</g>
		<g>
			<path class="st3" d="M635,506.2l-4.2,4.7l-6.3,10.9l-4.1,13.6l-1.9,9.8l-1.5,8.9l-0.5,10.7v20.6l1.9,17.6l7.6,25.4l8,11.8l-5,2.7
				l-48.4,11.6l-54.9,3.4l-53.1-4.5l-44.6-12.7l-4.5-1.8c0,0-0.4-4-0.6-4.3c-0.2-0.3-5.5-9.4-5.6-9.7c-0.1-0.4-2.3-8.9-2.3-8.9
				l-3.1-15.1l-2.1-25l2.4-31.9l3.1-17.9l11.4-20.6l38.9-10.4l41.9-6l45.2,0l41,5.7l37.9,9.7L635,506.2z"/>
		</g>
		<g>
			<path class="st4" d="M532.6,658.7c-44.2,0-86.1-8.5-118-23.8l0.6-1.2c31.6,15.3,73.3,23.7,117.4,23.7c42.9,0,83.9-8.1,115.2-22.7
				l0.6,1.2C616.8,650.6,575.7,658.7,532.6,658.7z"/>
		</g>
		<g>
			<path class="st4" d="M416,512.6l-0.6-1.2c31.7-15.1,73.3-23.5,117.2-23.5c43.7,0,85.2,8.3,116.9,23.3l-0.6,1.2
				c-31.5-15-72.8-23.2-116.3-23.2C488.9,489.2,447.5,497.5,416,512.6z"/>
		</g>
		<g>
			<path class="st4" d="M530.1,658.7c-43.1,0-84.2-8.1-115.8-22.8l0.6-1.2c31.4,14.6,72.3,22.7,115.2,22.7c44,0,85.7-8.4,117.4-23.7
				l0.6,1.2C616.3,650.2,574.4,658.7,530.1,658.7z"/>
		</g>
		<g>
			<path class="st4" d="M646.7,512.3c-31.5-15-72.9-23.3-116.6-23.3c-43.5,0-84.8,8.2-116.3,23.2l-0.6-1.2
				c31.7-15,73.2-23.3,116.9-23.3c43.8,0,85.4,8.3,117.2,23.5L646.7,512.3z"/>
		</g>
		<g>
			<path class="st4" d="M634.9,557.5c-31.6-5.6-73.1-8.7-116.7-8.7c-43.6,0-84.9,3.1-116.5,8.7l-0.2-1.3
				c31.6-5.6,73.1-8.7,116.7-8.7c43.8,0,85.3,3.1,117,8.8L634.9,557.5z"/>
		</g>
		<g>
			<path class="st4" d="M518.1,604.3c-43.6,0-85-0.4-116.6-1.3l0-1.3c31.6,0.8,73,1.3,116.6,1.3c43.7,0,85.2-0.5,116.8-1.3l0,1.3
				C603.4,603.8,561.9,604.3,518.1,604.3z"/>
		</g>
		<g>
			<path class="st4" d="M632.2,523.5c-31.7-14.6-73.2-22.4-116.9-21.8c-35.1,0.5-68.8,6.2-97.2,16.7l-0.5-1.3
				c28.6-10.5,62.4-16.3,97.6-16.8c43.9-0.6,85.5,7.2,117.4,21.9L632.2,523.5z"/>
		</g>
		<g>
			<path class="st5" d="M634,640.1c0,0-8-11.8-11.6-21.4c-99.2,24.3-207.5-2.8-207.5-2.8l7.9,18.7l1.4,2c0,0,11.9,5.7,33.1,11.1
				c21.3,4.4,21.3,4.4,21.3,4.4s18.4,3.6,46.7,4.3c28.4,0.7,54.4-3.4,64.2-5.4S624.1,643.7,634,640.1z"/>
		</g>
		<g>
			<path class="st4" d="M527.6,642.9c-3.2,0-6.4,0-9.6-0.1c-34.5-0.5-67.6-3.8-95.8-9.5l0.3-1.3c28.1,5.7,61.2,9,95.5,9.5
				c43.7,0.7,85.2-3.2,116.9-10.9l0.3,1.3C605.8,639,567.8,642.9,527.6,642.9z"/>
		</g>
		<g>
			<path class="st6" d="M424.1,511c0,0,21.4-8.2,32-10.3c10.5-2.1,27.2-5.4,27.2-5.4h97c0,0,31.3,5.6,51.3,14
				c1.6-1.7,0.6-2.5,0.6-2.5s-21.9-7.9-27-8.4c-5.2-1.2-16.6-3.6-16.6-3.6s-6.4-1.2-6.9-1.2c-0.5,0.1-99.2,0-99.2,0s-5.6,0.9-6,1
				s-19.1,4.1-19.1,4.1s-22.7,5.8-31.6,10.3"/>
		</g>
		<g>
			<ellipse class="st7" cx="640.1" cy="573.3" rx="23.6" ry="68.7"/>
			<path class="st4" d="M640.1,642.7c-13.6,0-24.3-30.5-24.3-69.4s10.7-69.4,24.3-69.4c13.6,0,24.3,30.5,24.3,69.4
				S653.7,642.7,640.1,642.7z M640.1,505.2c-12.6,0-22.9,30.5-22.9,68s10.3,68,22.9,68c12.6,0,22.9-30.5,22.9-68
				S652.7,505.2,640.1,505.2z"/>
		</g>
		<g>
			<path class="st7" d="M607.8,648.9c-13,0.1-23.7-33.9-23.9-75.9s10.2-76.1,23.2-76.1l-13.4-2.4c-13,0.1-23.4,35.2-23.2,78.6
				c0.2,43.3,10.9,78.4,24,78.4L607.8,648.9z"/>
			<path class="st4" d="M594.5,652.1c-13.7,0-24.5-34.7-24.7-79c-0.2-44.4,10.3-79.2,23.9-79.2l13.5,2.4l-0.1,1.3
				c-12.6,0.1-22.8,33.9-22.6,75.5c0.2,41.5,10.6,75.2,23.2,75.2c0,0,0,0,0,0l0.1,1.3L594.5,652.1
				C594.5,652.1,594.5,652.1,594.5,652.1z M593.6,495.2c-12.5,0.1-22.6,35-22.4,77.9c0.2,42.9,10.6,77.7,23.3,77.7c0,0,0,0,0,0
				l10-1.9c-12-5-21-36.5-21.2-75.9c-0.2-39.3,8.6-70.9,20.5-76.1L593.6,495.2z"/>
		</g>
		<g>
			<path class="st7" d="M531.9,657.9c-13,0.1-23.8-37.8-24-84.6c-0.2-46.8,10.2-84.7,23.2-84.8l13.4-0.1c-13,0.1-23.4,38-23.2,84.8
				c0.2,46.8,11,84.6,24,84.6L531.9,657.9z"/>
			<path class="st4" d="M531.8,658.6c-6.6,0-12.8-9-17.4-25.2c-4.5-16-7.1-37.4-7.2-60c-0.2-47.9,10.3-85.4,23.9-85.5l13.4-0.1
				l0,1.3c-12.6,0.1-22.7,37.8-22.5,84.1c0.1,22.6,2.6,43.8,7.2,59.7c4.4,15.4,10.2,24.2,16.1,24.2c0,0,0,0,0,0l0,1.3L531.8,658.6
				C531.9,658.6,531.8,658.6,531.8,658.6z M540.1,489.2l-9,0c-12.6,0.1-22.7,37.8-22.5,84.1c0.1,22.6,2.6,43.8,7.2,59.7
				c4.4,15.4,10.2,24.2,16.1,24.2c0,0,0,0,0,0l9,0c-4.9-3-9.5-11.3-13.1-23.9c-4.5-16-7.1-37.4-7.2-60
				C520.4,530.7,528.7,496.3,540.1,489.2z"/>
		</g>
		<g>
			<path class="st7" d="M479.5,492.6c-13,0.1-23.4,36.3-23.2,81s10.9,80.9,24,80.8l-13.4-2.4c-13,0.1-23.8-35-24-78.4
				c-0.2-43.3,10.2-78.5,23.2-78.6L479.5,492.6z"/>
			<path class="st4" d="M480.2,655.1c-0.9,0-1.8-0.2-2.7-0.5l-10.8-1.9c0,0,0,0,0,0c-6.5,0-12.7-8.3-17.3-23.4
				c-4.5-14.9-7.1-34.6-7.2-55.6c-0.1-21,2.3-40.8,6.7-55.7c4.5-15.1,10.6-23.5,17.2-23.5l10.6-2c0.9-0.3,1.8-0.5,2.8-0.5l0.1,1.3
				l-2.6,0.5c-11.5,4.4-20.3,38.6-20.1,79.9c0.1,21.6,2.6,41.8,7.1,57c3.8,12.8,8.7,20.8,13.8,22.7l2.5,0.4L480.2,655.1
				C480.2,655.1,480.2,655.1,480.2,655.1z M466.9,651.4l7.4,1.3c-4.3-3.6-8.2-11-11.4-21.7c-4.5-15.3-7.1-35.7-7.2-57.4
				c-0.2-38.7,7.3-70.4,17.8-79.2l-7.2,1.4c-6,0-11.8,8.3-16.1,22.6c-4.4,14.8-6.7,34.4-6.6,55.3c0.1,20.9,2.6,40.5,7.1,55.3
				C455.1,643.2,460.9,651.4,466.9,651.4C466.8,651.4,466.8,651.4,466.9,651.4z"/>
		</g>
		<g>
			<path class="st8" d="M459.7,499.9c0,0,6-1.3,10-2.1c1.7-2.3,1.7-2.3,1.7-2.3l-5.4,0.9C466,496.4,462.4,496.3,459.7,499.9z"/>
		</g>
		<g>
			<path class="st8" d="M589.1,497.4l10.1,2c0,0,1.5-1.5,2.5-2c-1.2-0.4-8.4-1.6-8.4-1.6S590.9,496,589.1,497.4z"/>
		</g>
		<g>
			<path class="st8" d="M632.5,509.9c0,0,6.8-0.3,11.2,3c1.2-1.2,2.9-2.2,4.4-2.3C646.9,509.3,640.8,501,632.5,509.9z"/>
		</g>
		<g>
			<ellipse class="st9" cx="648.5" cy="573.3" rx="15.2" ry="61.4"/>
			<path class="st4" d="M648.5,635.4c-8.9,0-15.8-27.3-15.8-62.1c0-34.8,7-62.1,15.8-62.1s15.8,27.3,15.8,62.1
				C664.3,608.1,657.4,635.4,648.5,635.4z M648.5,512.5c-7.9,0-14.5,27.8-14.5,60.8c0,32.9,6.6,60.8,14.5,60.8s14.5-27.8,14.5-60.8
				C663,540.3,656.3,512.5,648.5,512.5z"/>
		</g>
		<g>
			<path class="st4" d="M643.7,630.5l-1.1-0.7c5.6-9.4,9.3-31.6,9.3-56.5c0-24.9-3.6-47-9.3-56.5l1.1-0.7c5.8,9.6,9.5,32.1,9.5,57.2
				C653.2,598.4,649.5,620.8,643.7,630.5z"/>
		</g>
		<g>
			<path class="st4" d="M414.2,635.4c-8.9,0-15.8-27.3-15.8-62.1c0-34.8,7-62.1,15.8-62.1v1.3c-7.9,0-14.5,27.8-14.5,60.8
				c0,32.9,6.6,60.8,14.5,60.8V635.4z"/>
		</g>
		<g>
			<path class="st7" d="M423.1,638.9c-19.5-1.6-24-27.7-24-65.6c0-37.9,6.4-68.7,23.6-68.7c0,0,2.7,0.4,4,1.7
				c-2.4,1.6-6.4,9.1-7,10.2c-5.2,9.4-9.4,31.2-9.4,56.8c0,25.6,3.9,47.6,9.4,56.8C419.6,630.1,425.3,636.6,423.1,638.9z"/>
			<path class="st4" d="M423.3,639.6l-0.3,0c-21.6-1.7-24.6-32.9-24.6-66.3c0-25.9,3.2-69.4,24.3-69.4c0.2,0,3.1,0.4,4.4,1.9
				l0.5,0.6l-0.7,0.4c-1.4,0.9-3.6,4.1-6.6,9.6l-0.2,0.4c-5.6,10-9.3,32.7-9.3,56.5c0,24.9,3.6,47,9.3,56.5c0.6,0.6,6,6.9,3.4,9.6
				L423.3,639.6z M422.6,505.2c-8.5,0-22.8,8.8-22.8,68.1c0,32.6,2.8,62.9,23,64.9c0.9-1.6-2-5.8-3.7-7.7
				c-5.8-9.7-9.6-32.2-9.6-57.3c0-24,3.8-47,9.5-57.1l0.2-0.4c1-1.9,4-7.3,6.3-9.5C424.6,505.6,423.1,505.3,422.6,505.2z"/>
		</g>
		<g>
			<path class="st3" d="M643,518.7c0,0,4.7,9.8,6.1,24.2c1.1,3,1.8,19.2,1.8,19.2s0.4,17.6,0,22.9c-0.1,8-1.8,23.4-3.7,29.4
				c-1.5,8.3-4.5,13.2-4.5,13.2s-5.3-9.3-7.2-33.1c-1.1-13.7-1-25.5-1-25.5s-0.5-15.9,2.9-31.3C639,530.6,639.1,526.3,643,518.7z"/>
		</g>
		<g>
			<path class="st10" d="M635.6,594.6c-1.5-17.2-1-25.5-1-25.5s-0.5-15.9,2.9-31.3"/>
		</g>
		<g>
			<path class="st8" d="M421.1,510.9c0,0-4.5-1.2-8.3-0.3c1.3-2,7-6.2,11.6-4.3C421.1,510.9,421.1,510.9,421.1,510.9z"/>
		</g>
		<g>
			<path class="st9" d="M403.6,614.6c0,0,6.5,1.1,9.5,1.4c0.5,1.5,3.2,12.7,5.4,15c2.1,2.7,4.2,6.1,3.9,6.7
				c-1.1-0.2-5.8-0.8-10.1-4.7c-4.4-5.3-6-9.8-6.1-10.1S403.6,614.6,403.6,614.6z"/>
		</g>
		<g>
			<path class="st9" d="M449.5,622.2c0,0,6.2,1.1,10.6,1.5c0.7,2.4,0.7,2.4,0.7,2.4s6.2,22.2,11.5,25.5c-1.7-0.4-5.3-1-5.3-1
				s-3.4,0.5-7-4C455.8,641.7,452.2,634,449.5,622.2z"/>
		</g>
		<g>
			<path class="st9" d="M515.4,628.6c0,0,7.5,0.6,10.5,0.3c0.7,2,6,23.2,13,27.8c-3.4,0.1-8.1,0-8.1,0S522.2,656,515.4,628.6z"/>
		</g>
		<g>
			<path class="st9" d="M578.5,626.3c0,0,6.9-0.7,10.7-1.2c1.2,4.5,6.3,19.9,13.3,23.6c-3.7,0.5-8.3,1.5-8.3,1.5
				S586.1,652,578.5,626.3z"/>
		</g>
		<g>
			<path class="st9" d="M623.6,618.6c0,0,6.4-0.7,12.4-2.6c1.2,4.1,4.5,19.4,12.5,20.3c-2.2,2.2-7.8,8.4-15.2,1.3
				C626.2,630.1,623.6,618.6,623.6,618.6z"/>
		</g>
		<g>
			<path class="st5" d="M635.3,551.8c0,0,3.3-14.9,7.5-14.6c2.2,0.2,4.8,4.2,7.6,16.7c0,0-0.7-17.6-4-25.1c-2-6.4-3.5-10.2-3.5-10.2
				S637.7,527.6,635.3,551.8z"/>
		</g>
		<g>
			<ellipse class="st11" cx="644.7" cy="549" rx="3.4" ry="7.3"/>
		</g>
		<g>
			<g>
				<path class="st5" d="M644.7,541.7c-0.3,0-0.6,0.1-0.9,0.3c1.4,0.9,2.4,3.7,2.4,7s-1,6.1-2.4,7c0.3,0.2,0.6,0.3,0.9,0.3
					c1.9,0,3.4-3.3,3.4-7.3C648,545,646.5,541.7,644.7,541.7z"/>
			</g>
		</g>
		<g>
			<path class="st1" d="M649.2,633.3c-2.4,0.4-4.5-2.2-5.2-3.3c-0.2-0.3-0.3-0.6-0.3-0.9v-60.8v-12.2c0,0,0.7-0.5,1-1.1
				c1.6,0.5,1.6,0.5,1.6,0.5v70.3c0,0.8,0.3,1.6,0.9,2.1c1,0.8,2.8,1.7,6,1.5C653.3,629.3,651.1,633,649.2,633.3
				c-2.6,0.9-5.5-3.8-5.5-3.8"/>
		</g>
		<g>
			<path class="st1" d="M654.9,632.9c0,0,1.9,4.3-0.7,5C652.4,637.2,653.6,635.5,654.9,632.9z"/>
		</g>
		<g>
			<path class="st2" d="M653,632.4c0,0,1.7,4-0.6,4.6C650.6,636.3,651.7,634.8,653,632.4z"/>
		</g>
		<g>
			<path class="st2" d="M647.8,646.9c0,0,1.7,4-0.6,4.6C645.5,650.8,646.6,649.2,647.8,646.9z"/>
		</g>
		<g>
			<path class="st12" d="M643.7,582.7c0,0,0.5-3.8,0.7-3.1s0.2,3.1,0.3,2.6s0.1-2.8,0.4-2.3c0.2,0.4,0.2,2.8,0.2,2.8
				s0.6-4.7,0.7-3.8s0.4,2.9,0.4,4.1s0,2.8,0,2.8s-0.2,5.1-0.7-0.5c-0.1,0.9-0.4,5.2-0.8,1.1c-0.1-1.3-0.3,1.7-0.7,1.6
				c-0.3-0.1-0.5-2.3-0.5-2.3V582.7z"/>
		</g>
		<g>
			<path class="st12" d="M643.7,615.5c0,0,0.5-4.3,0.7-3.5c0.2,0.8,0.2,3.5,0.3,3s0.1-3.2,0.4-2.7c0.2,0.5,0.2,3.1,0.2,3.1
				s0.6-5.4,0.7-4.3s0.4,3.3,0.4,4.6s0,3.2,0,3.2s-0.2,5.8-0.7-0.6c-0.1,1.1-0.4,6-0.8,1.2c-0.1-1.5-0.3,2-0.7,1.8
				c-0.3-0.1-0.5-2.6-0.5-2.6V615.5z"/>
		</g>
		<g>
			<path class="st12" d="M645.6,555.2l0.7,0.2v2.3c0,0-0.2,0.4-0.3-0.1c-0.1-0.5-0.1,0.8-0.3,0.6s-0.4-0.8-0.5-0.4
				c-0.1,0.4-0.4,0.7-0.5,0.3c-0.1-0.5-0.4,0.2-0.6,0.4c-0.1,0.2-0.5-0.3-0.5-0.5c0-0.3,0-1.9,0-1.9s0.4,0,0.3-0.1s0.1-0.2,0.2-0.1
				c0.1,0.1,0.3,0.1,0.3-0.1c-0.1-0.2,0.1-0.4,0.3-0.2c0.3,0.2,0.5,0.2,0.4,0C645.2,555.3,645.1,555.2,645.6,555.2z"/>
		</g>
		<g>
			<path class="st4" d="M648.5,615.6c-0.4,0-0.7-0.3-0.7-0.7v-83.7c0-0.4,0.3-0.7,0.7-0.7c0.4,0,0.7,0.3,0.7,0.7V615
				C649.2,615.3,648.9,615.6,648.5,615.6z"/>
		</g>
		<g>
			<rect x="640.2" y="520.3" class="st4" width="1.3" height="106.1"/>
		</g>
	</g>
	<g>
		<g>
			<path class="st3" d="M431.3,454l-5.6,5.1l-13,7.5l-16.3,4.9l-11.7,2.2l-10.6,1.8l-12.7,0.6h-24.6l-21-2.3l-30.3-9.1l-14.1-9.6
				l-3.3,6L254.3,519l-4.1,65.5l5.3,63.3l15.1,53.2l2.1,5.4c0,0,4.8,0.5,5.2,0.7s11.2,6.5,11.6,6.7s10.7,2.7,10.7,2.7l18.1,3.7
				l29.9,2.5l38-2.8l21.4-3.7l24.5-13.6l12.4-46.4l7.2-50l0-53.9l-6.8-48.9l-11.6-45.2L431.3,454z"/>
		</g>
		<g>
			<path class="st4" d="M278,716.9c-18.3-37.9-28.4-87.9-28.4-140.6c0-51.4,9.7-100.4,27.2-138l1.2,0.6
				c-17.5,37.4-27.1,86.3-27.1,137.5c0,52.6,10,102.3,28.3,140.1L278,716.9z"/>
		</g>
		<g>
			<path class="st4" d="M425,715.9l-1.2-0.6c17.9-37.6,27.8-87,27.8-139.1c0-51.9-9.8-101.2-27.7-138.8l1.2-0.6
				c17.9,37.8,27.8,87.3,27.8,139.4C453,628.5,443,678.1,425,715.9z"/>
		</g>
		<g>
			<path class="st4" d="M276.8,717.1c-17.5-37.6-27.2-86.6-27.2-138c0-52.7,10.1-102.7,28.4-140.6l1.2,0.6
				c-18.2,37.8-28.3,87.5-28.3,140.1c0,51.2,9.6,100.1,27.1,137.5L276.8,717.1z"/>
		</g>
		<g>
			<path class="st4" d="M425.4,718.5l-1.2-0.6c17.9-37.6,27.7-86.9,27.7-138.8c0-52.1-9.9-101.5-27.8-139.1l1.2-0.6
				c18,37.8,28,87.4,28,139.7C453.2,631.2,443.4,680.7,425.4,718.5z"/>
		</g>
		<g>
			<path class="st4" d="M371.6,732.6l-1.3-0.2c6.7-37.7,10.4-87,10.4-139c0-52.1-3.7-101.6-10.4-139.3l1.3-0.2
				c6.7,37.8,10.5,87.3,10.5,139.5C382,645.4,378.3,694.9,371.6,732.6z"/>
		</g>
		<g>
			<path class="st4" d="M316,732.5c-1-37.7-1.5-87.1-1.5-139.1c0-52.1,0.5-101.7,1.5-139.4l1.3,0c-1,37.7-1.5,87.2-1.5,139.4
				c0,52,0.5,101.4,1.5,139.1L316,732.5z"/>
		</g>
		<g>
			<path class="st4" d="M418.1,713.2l-1.3-0.5c12.5-34,19.4-74.1,19.9-116c0.7-52.1-8.6-101.6-26-139.5l1.2-0.6
				c17.5,38,26.8,87.8,26.2,140C437.6,638.8,430.6,679.1,418.1,713.2z"/>
		</g>
		<g>
			<path class="st5" d="M271.5,455.2c0,0,14.1,9.6,25.5,13.8c-29,118.4,3.3,247.5,3.3,247.5l-22.3-9.4l-2.4-1.7
				c0,0-6.8-14.2-13.3-39.5c-5.3-25.4-5.3-25.4-5.3-25.4s-4.3-21.9-5.1-55.7c-0.8-33.9,4-64.9,6.4-76.5
				C260.8,496.6,267.3,467,271.5,455.2z"/>
		</g>
		<g>
			<path class="st4" d="M279.8,707.7c-6.8-33.6-10.7-73.1-11.3-114.2c-0.8-52.2,3.8-101.8,13-139.8l1.3,0.3
				c-9.2,37.8-13.8,87.3-13,139.4c0.6,41,4.5,80.4,11.3,114L279.8,707.7z"/>
		</g>
		<g>
			<path class="st6" d="M425.6,705.6c0,0,9.8-25.6,12.3-38.1s6.5-32.5,6.5-32.5l2.7-24.9c2.2-19.9,2.3-39.9,0.3-59.8l-3-30.9
				c0,0-6.6-37.3-16.7-61.1c2-2,2.9-0.7,2.9-0.7s9.4,26.1,10,32.2c1.5,6.3,4.3,19.8,4.3,19.8s1.5,7.7,1.4,8.3
				c0,0.3,4.8,31.1,4.8,61.2c0,28.9-4.8,57.1-4.8,57.1s-1.1,6.7-1.2,7.2c0,0.5-4.8,22.8-4.8,22.8s-6.9,27.1-12.2,37.7"/>
		</g>
		<g>
			<ellipse class="st7" cx="351.3" cy="448" rx="82" ry="28.1"/>
			<path class="st4" d="M351.3,476.8c-45.6,0-82.6-12.9-82.6-28.8s37.1-28.8,82.6-28.8s82.6,12.9,82.6,28.8S396.8,476.8,351.3,476.8
				z M351.3,420.5c-44.8,0-81.3,12.3-81.3,27.5s36.5,27.5,81.3,27.5s81.3-12.3,81.3-27.5S396.1,420.5,351.3,420.5z"/>
		</g>
		<g>
			<path class="st7" d="M261.1,486.5c-0.1,15.5,40.5,28.3,90.5,28.6c50.1,0.2,90.7-12.2,90.8-27.7l2.8,16
				c-0.1,15.5-42,27.9-93.7,27.7s-93.5-13-93.5-28.6L261.1,486.5z"/>
			<path class="st4" d="M353,531.6c-0.5,0-1,0-1.5,0c-25.1-0.1-48.6-3.2-66.3-8.6c-18-5.5-27.8-12.8-27.8-20.7l3-16.1l1.3,0.1
				c0,7.1,9.4,14.2,26,19.4c17,5.4,39.7,8.4,63.9,8.5c24.1,0.1,46.9-2.7,64-7.9c16.6-5.1,26.1-12,26.2-19.1l1.3-0.1l2.8,16
				c0,8-10,15.2-28,20.5C400.5,528.8,377.5,531.6,353,531.6z M261.1,490.1l-2.3,12.5c0,7,9.8,14,26.9,19.3c17.6,5.4,41,8.4,65.9,8.5
				c24.9,0.1,48.4-2.7,66-7.9c17.1-5.1,27-12,27-19.1l-2.2-12.4c-2.5,6.4-11.7,12.3-26.4,16.8c-17.2,5.3-40,8.1-64.4,8
				c-24.3-0.1-47.1-3.2-64.3-8.6C272.6,502.5,263.5,496.5,261.1,490.1z"/>
		</g>
		<g>
			<path class="st7" d="M250.3,577c-0.1,15.5,45.1,28.3,100.9,28.6c55.8,0.3,101.1-12.1,101.1-27.7l0.1-16
				c-0.1,15.5-45.4,27.9-101.1,27.7s-101-13.1-100.9-28.6L250.3,577z"/>
			<path class="st4" d="M352.9,606.3c-0.6,0-1.2,0-1.7,0c-27-0.1-52.5-3.2-71.6-8.6c-19.4-5.5-30-12.8-30-20.7l0.7,0l-0.7,0l0.1-16
				l1.3,0c0,7.1,10.5,14.2,29,19.4c19,5.4,44.3,8.4,71.2,8.5c27,0.1,52.2-2.7,71.3-7.9c18.5-5.1,29.2-12,29.2-19.1l1.3,0l-0.1,16
				c0,7.8-10.7,15.1-30.2,20.4C404.1,603.5,379.3,606.3,352.9,606.3z M251,565.8L251,577c0,7.1,10.5,14.2,29,19.4
				c19,5.4,44.3,8.4,71.2,8.5c27,0.1,52.2-2.7,71.3-7.9c18.5-5.1,29.2-12,29.2-19.1l0.1-11.2c-3.4,6-13.4,11.4-28.8,15.7
				c-19.2,5.2-44.6,8-71.6,7.9c-27-0.1-52.5-3.2-71.6-8.6C264.3,577.4,254.4,571.8,251,565.8z"/>
		</g>
		<g>
			<path class="st7" d="M447.5,639.5c-0.1,15.5-43.3,27.9-96.7,27.7c-53.3-0.2-96.5-13-96.4-28.6l2.9,16
				c-0.1,15.5,41.8,28.3,93.5,28.6c51.7,0.2,93.6-12.2,93.7-27.7L447.5,639.5z"/>
			<path class="st4" d="M352.3,683.8c-0.5,0-1,0-1.5,0c-52.9-0.2-94.2-13.1-94.1-29.2l-2.3-12.7c-0.4-1.1-0.6-2.1-0.6-3.2l1.3-0.1
				l0.5,2.9c2.3,6.1,11.9,12,27.2,16.6c18.1,5.4,42.3,8.4,68,8.5c0.5,0,1.1,0,1.6,0c48.7,0,88.7-10.5,93.8-24.1l0.6-3.1l1.3,0.1
				c0,1.1-0.2,2.2-0.6,3.3l-2.4,12.8c0,7.7-10,15-28,20.3C399.8,681,376.8,683.8,352.3,683.8z M256.4,645.3l1.6,9.1
				c-0.1,15.3,41.6,27.8,92.8,28c24.9,0.1,48.4-2.7,66-7.9c17.1-5.1,27-12,27-19.1l1.7-9.2c-9.9,12.6-47.2,21.6-93.1,21.6
				c-0.5,0-1.1,0-1.6,0c-25.8-0.1-50.1-3.2-68.4-8.6C269.4,655.4,260.5,650.6,256.4,645.3z"/>
		</g>
		<g>
			<path class="st8" d="M438.8,663.1c0,0,1.5-7.1,2.5-11.9c2.8-2,2.8-2,2.8-2l-1.1,6.4C443,655.6,443.1,659.9,438.8,663.1z"/>
		</g>
		<g>
			<path class="st8" d="M441.8,508.7l-2.4-12c0,0,1.8-1.7,2.4-3c0.4,1.5,2,10,2,10S443.5,506.7,441.8,508.7z"/>
		</g>
		<g>
			<path class="st8" d="M426.8,457c0,0,0.3-8.1-3.6-13.4c1.5-1.4,2.6-3.5,2.8-5.2C427.6,439.8,437.5,447.1,426.8,457z"/>
		</g>
		<g>
			<path class="st9" d="M351.3,419.8c-40.5,0-73.3,8.1-73.3,18.1c0,5.5,9.9,10.4,25.6,13.7c12.8,2.7,29.5,4.4,47.7,4.4
				c40.5,0,73.3-8.1,73.3-18.1C424.5,427.9,391.7,419.8,351.3,419.8z"/>
			<path class="st4" d="M351.3,456.7c-17.6,0-34.5-1.6-47.9-4.4c-16.8-3.6-26.1-8.7-26.1-14.4c0-10.5,32.5-18.8,73.9-18.8
				s73.9,8.2,73.9,18.8C425.2,448.4,392.7,456.7,351.3,456.7z M351.3,420.5c-39.4,0-72.6,8-72.6,17.4c0,4.9,9.4,9.8,25,13.1
				c13.2,2.8,30.1,4.3,47.6,4.3c39.4,0,72.6-8,72.6-17.4S390.6,420.5,351.3,420.5z"/>
		</g>
		<g>
			<path class="st4" d="M283.8,444.9l-0.7-1.1c11.5-6.9,38.2-11.3,68.1-11.3c29.9,0,56.6,4.4,68.1,11.3l-0.7,1.1
				c-11.3-6.7-37.7-11.1-67.4-11.1C321.6,433.8,295.1,438.2,283.8,444.9z"/>
		</g>
		<g>
			<path class="st4" d="M351.3,736.1c-41.5,0-73.9-8.2-73.9-18.8h1.3c0,9.4,33.3,17.4,72.6,17.4s72.6-8,72.6-17.4h1.3
				C425.2,727.9,392.7,736.1,351.3,736.1z"/>
		</g>
		<g>
			<path class="st7" d="M273,706.8c1.9,23.3,33,28.6,78.3,28.6s82-7.7,82-28.1c0,0-0.4-3.3-2-4.7c-1.9,2.9-10.8,7.6-12.2,8.4
				c-11.2,6.2-37.2,11.2-67.8,11.2c-30.6,0-56.8-4.6-67.8-11.2C283.5,711,275.8,704.1,273,706.8z"/>
			<path class="st4" d="M351.3,736.1c-39.8,0-76.9-3.5-79-29.3l0-0.3l0.2-0.2c3.1-3,10.6,3.4,11.4,4.1c11.2,6.7,37.6,11,67.3,11
				c28.4,0,55.5-4.5,67.4-11.1l0.5-0.3c6.5-3.6,10.4-6.2,11.4-7.9l0.4-0.7l0.6,0.5c1.7,1.6,2.2,5,2.2,5.1
				C433.9,732.4,382.1,736.1,351.3,736.1z M273.7,707.1c2.3,24.3,38.6,27.7,77.6,27.7c70.7,0,81.3-17.2,81.3-27.5c0,0,0,0,0,0
				c0,0-0.3-2.3-1.3-3.7c-2.5,2.7-9.1,6.4-11.4,7.6l-0.5,0.3c-12.1,6.7-39.4,11.3-68.1,11.3c-29.9,0-56.7-4.4-68.1-11.3
				C281.2,709.9,275.8,705.8,273.7,707.1z"/>
		</g>
		<g>
			<path class="st3" d="M416.3,444.5c0,0-11.7-5.6-28.8-7.3c-3.6-1.3-22.9-2.2-22.9-2.2s-21-0.5-27.4,0c-9.5,0.1-28,2.2-35,4.4
				c-9.9,1.7-15.8,5.3-15.8,5.3s11.1,6.3,39.5,8.6c16.4,1.3,30.4,1.2,30.4,1.2s18.9,0.5,37.3-3.4
				C402.2,449.2,407.3,449.2,416.3,444.5z"/>
		</g>
		<g>
			<path class="st10" d="M325.8,453.3c20.5,1.8,30.4,1.2,30.4,1.2s18.9,0.5,37.3-3.4"/>
		</g>
		<g>
			<path class="st8" d="M425.7,709.1c0,0,1.4,5.3,0.3,9.9c2.4-1.5,7.4-8.4,5.1-13.8C425.7,709.1,425.7,709.1,425.7,709.1z"/>
		</g>
		<g>
			<path class="st9" d="M302,730c0,0-1.3-7.8-1.6-11.3c-1.8-0.5-15.2-3.8-17.9-6.4c-3.2-2.5-7.3-5-8-4.7c0.3,1.3,0.9,6.9,5.6,12
				c6.3,5.3,11.6,7.2,12,7.3S302,730,302,730z"/>
		</g>
		<g>
			<path class="st9" d="M292.9,675.3c0,0-1.3-7.4-1.8-12.7c-2.9-0.9-2.9-0.9-2.9-0.9s-26.4-7.4-30.4-13.7c0.4,2,1.2,6.3,1.2,6.3
				s-0.7,4,4.7,8.4C269.6,667.7,278.9,672,292.9,675.3z"/>
		</g>
		<g>
			<path class="st9" d="M285.3,596.7c0,0-0.8-9-0.3-12.6c-2.4-0.8-27.7-7.1-33.1-15.5c-0.1,4,0,9.6,0,9.6S252.6,588.5,285.3,596.7z"
				/>
		</g>
		<g>
			<path class="st9" d="M288.1,521.5c0,0,0.8-8.3,1.5-12.7c-5.4-1.5-23.7-7.5-28.1-15.9c-0.7,4.4-1.7,9.9-1.7,9.9
				S257.4,512.4,288.1,521.5z"/>
		</g>
		<g>
			<path class="st9" d="M297.3,467.6c0,0,0.8-7.7,3.1-14.8c-4.8-1.4-23.1-5.4-24.2-14.9c-2.6,2.6-10,9.3-1.5,18.1
				C283.5,464.5,297.3,467.6,297.3,467.6z"/>
		</g>
		<g>
			<path class="st5" d="M376.9,453.6c0,0,17.8-3.9,17.4-9c-0.2-2.6-5-5.7-20-9.1c0,0,21,0.9,29.9,4.7c7.6,2.4,12.1,4.2,12.1,4.2
				S405.8,450.8,376.9,453.6z"/>
		</g>
		<g>
			<ellipse class="st11" cx="380.2" cy="442.5" rx="8.8" ry="4"/>
		</g>
		<g>
			<g>
				<path class="st5" d="M388.9,442.5c0,0.4-0.2,0.8-0.4,1.1c-1.1-1.7-4.4-2.9-8.4-2.9s-7.3,1.2-8.4,2.9c-0.2-0.4-0.4-0.7-0.4-1.1
					c0-2.2,3.9-4,8.8-4C385,438.5,388.9,440.3,388.9,442.5z"/>
			</g>
		</g>
		<g>
			<path class="st4" d="M401.4,438.6h-99.8c-0.4,0-0.7-0.3-0.7-0.7s0.3-0.7,0.7-0.7h99.8c0.4,0,0.7,0.3,0.7,0.7
				S401.8,438.6,401.4,438.6z"/>
		</g>
		<g>
			<rect x="288" y="446.4" class="st4" width="126.5" height="1.3"/>
		</g>
	</g>
	<g>
		<path class="st13" d="M375.2,207.9c0,0,0.1,29.4-5.3,37.5c-5.4,8.1-18.5,29.3-19.3,36c-0.7,6.6-5.8,34.1,7.7,42.7
			c13.5,8.5,20.9,11,20.9,11s81,7.9,97.9,5.7c16.9-2.2,39.9-7.3,39.9-7.3l37.3-8.5c0,0,16.3-4.4,17.4-4.8s16.8-6.1,11.1-27
			c12.8-3.6,14.6-4.4,14.6-4.4l8.1-7.3L610,269l0.3-19.4c0,0-8.8-31.1-14.7-35.4c-1.2-0.9-3.2-7.1-9.9-9.3
			c-26.9-8.8-89.1-20.8-89.1-20.8h-87.8L375.2,207.9z"/>
		<path class="st4" d="M468.4,341.8c-26.2,0-86.3-5.8-89.2-6.1l-0.1,0c-0.3-0.1-7.7-2.6-21.1-11.1c-12.7-8-9.5-32-8.3-41.1
			c0.1-0.9,0.2-1.6,0.3-2.2c0.8-7.3,15.5-30.5,19.4-36.3c5.2-7.8,5.2-36.9,5.2-37.1l0-0.3l34.1-24.1h88c0.7,0.1,62.7,12.1,89.3,20.8
			c5.3,1.7,7.8,5.8,9.2,8c0.4,0.6,0.8,1.2,1,1.4c6,4.3,14.6,34.5,14.9,35.7l0,0.1l0,0.1l-0.4,19.6l-4.4,12.6l-8.4,7.5
			c-0.1,0-1.9,0.9-14,4.3c5.2,20.5-10,26.6-11.7,27.2c-1.1,0.4-16.8,4.7-17.4,4.8l-37.3,8.5c-0.2,0.1-23.2,5.2-40,7.3
			C475.2,341.7,472.2,341.8,468.4,341.8z M379.5,334.4c2.9,0.3,81.2,7.8,97.6,5.7c16.7-2.1,39.6-7.2,39.9-7.3l37.3-8.5
			c5.6-1.5,16.5-4.5,17.3-4.8c1.7-0.6,16-6.4,10.7-26.2l-0.2-0.6l0.6-0.2c11.2-3.2,13.9-4.2,14.4-4.4l7.9-7.1l4.2-12.2l0.3-19.2
			c-0.5-1.9-8.9-31-14.4-34.9c-0.4-0.3-0.8-0.9-1.3-1.8c-1.4-2.2-3.6-5.9-8.4-7.5c-26.6-8.7-88.4-20.6-89-20.7l-87.4,0l-33.2,23.4
			c0,3.5-0.2,29.8-5.4,37.5c-5.7,8.5-18.5,29.3-19.2,35.7c-0.1,0.6-0.2,1.4-0.3,2.3c-1.2,8.8-4.2,32.2,7.7,39.8
			C371.3,331.5,378.7,334.1,379.5,334.4z"/>
	</g>
	<g>
		<path class="st13" d="M569.6,320.8c0,0-78.9,19.7-92.4,20s-97.8,3.6-118.8-16.7c-1.9,0.5-4.2,19.7,3.3,27.5
			c-13.9,3.7-41.7,19-41.7,19s-5-1.1-4.6,23.4s1,39.2,1,39.2s16.2-13.1,27.1-11.3c10.9,1.7,42.3,23.4,42.3,23.4l1.1-38.6l20.4-0.9
			c0.2,0,0.4,0,0.5-0.1l32.9-6.3l3.3,0.1c0,0,9.8,8,12.4,14c2.6,6,24.5,45.6,24.5,45.6l69.6,11.2l-1.9-8.4c0,0,2.2-2.2,1.7-4.8
			s-2.4-56.3-4.4-68.3c-2-12-2-12-2-12S573.2,342.4,569.6,320.8z"/>
		<path class="st4" d="M551.3,471l-70.9-11.5l-0.2-0.3c-0.9-1.6-22-39.8-24.5-45.7c-2.3-5.3-10.7-12.4-12-13.6l-3,0l-32.8,6.3
			c-0.2,0-0.4,0.1-0.6,0.1l-19.7,0.9l-1.1,39.2l-1-0.7c-0.3-0.2-31.4-21.6-42-23.3c-10.5-1.7-26.4,11-26.6,11.2l-1,0.8l-0.1-1.3
			c0-0.1-0.6-15.1-1-39.3c-0.3-16.6,1.9-22,3.8-23.5c0.5-0.4,1-0.5,1.3-0.6c2.2-1.2,27.1-14.7,40.7-18.6c-5.5-6.8-5.2-19.9-3.7-25.4
			c0.5-1.9,1.1-2.3,1.5-2.4l0.4-0.1l0.3,0.3c9.1,8.7,36.6,18.7,116.1,16.6l2.2-0.1c13.3-0.3,91.5-19.8,92.3-20l0.7-0.2l0.1,0.7
			c1.5,9.1-2.4,21.4-11.6,36.5c-6.2,10.2-12.8,18.2-14,19.7l1.9,11.7c1.3,8.2,2.7,35.2,3.5,53.1c0.4,8,0.7,14.4,0.8,15.2
			c0.4,2.4-1.1,4.4-1.7,5.1L551.3,471z M481.3,458.3l68.3,11l-1.7-7.8l0.3-0.3c0,0,1.9-2,1.6-4.2c-0.1-0.8-0.4-5.8-0.8-15.3
			c-0.9-17.9-2.2-44.9-3.5-53l-2-12.3l0.2-0.2c0.3-0.3,28.3-33.6,25.6-54.6c-8.4,2.1-78.9,19.5-91.8,19.8l-2.2,0.1
			c-78.7,2.1-106.9-7.7-116.6-16.5c-0.4,0.8-0.9,3-1.2,6.6c-0.2,3.2-0.4,13.9,4.9,19.5l0.8,0.8l-1.1,0.3
			c-13.6,3.6-41.3,18.7-41.5,18.9l-0.2,0.1l-0.2-0.1c0,0-0.2,0-0.6,0.4c-1,1-3.4,5.2-3.2,22.3c0.3,20.1,0.8,33.8,0.9,37.9
			c3.8-2.9,17-12.2,26.6-10.6c10,1.6,36,19,41.6,22.8l1.1-38l21-0.9c0.1,0,0.3,0,0.4,0l32.9-6.3l3.6,0.1l0.2,0.1
			c0.4,0.3,10,8.2,12.6,14.2C459.3,418.6,479.3,454.8,481.3,458.3z"/>
	</g>
	<g>
		<g>
			<line class="st13" x1="369.4" y1="311.7" x2="375.2" y2="287.5"/>
			<path class="st4" d="M369.4,312.3c-0.1,0-0.1,0-0.2,0c-0.4-0.1-0.6-0.4-0.5-0.8l5.8-24.2c0.1-0.4,0.4-0.6,0.8-0.5
				c0.4,0.1,0.6,0.4,0.5,0.8l-5.8,24.2C370,312.1,369.7,312.3,369.4,312.3z"/>
		</g>
		<g>
			<line class="st13" x1="362.1" y1="308.1" x2="367.9" y2="283.9"/>
			<path class="st4" d="M362.1,308.8c-0.1,0-0.1,0-0.2,0c-0.4-0.1-0.6-0.4-0.5-0.8l5.8-24.2c0.1-0.4,0.4-0.6,0.8-0.5
				c0.4,0.1,0.6,0.4,0.5,0.8l-5.8,24.2C362.6,308.6,362.4,308.8,362.1,308.8z"/>
		</g>
		<g>
			<line class="st13" x1="361.4" y1="289.4" x2="378.7" y2="297.7"/>
			<path class="st4" d="M378.7,298.4c-0.1,0-0.2,0-0.3-0.1l-17.2-8.3c-0.3-0.2-0.5-0.6-0.3-0.9c0.2-0.3,0.6-0.5,0.9-0.3l17.2,8.3
				c0.3,0.2,0.5,0.6,0.3,0.9C379.2,298.3,378.9,298.4,378.7,298.4z"/>
		</g>
		<g>
			<line class="st13" x1="357.9" y1="298.6" x2="375.1" y2="306.9"/>
			<path class="st4" d="M375.1,307.6c-0.1,0-0.2,0-0.3-0.1l-17.2-8.3c-0.3-0.2-0.5-0.6-0.3-0.9c0.2-0.3,0.6-0.5,0.9-0.3l17.2,8.3
				c0.3,0.2,0.5,0.6,0.3,0.9C375.6,307.4,375.3,307.6,375.1,307.6z"/>
		</g>
	</g>
	<g>
		<path class="st7" d="M408.9,184.2l-10.3-10.1l-12.9-4.9l1.9-96.3c0,0,1.1-25.6,32.1-29.1c32.3-0.6,70.4-1.3,70.4-1.3
			s37.8,4.4,37.8,37.8c0,33.4,0.5,88.9,0.5,88.9l-26.1,10l-5.7,5H408.9z"/>
		<path class="st4" d="M496.9,184.8h-88.3l-10.4-10.2l-13.2-5l1.9-96.8c0-0.3,1.5-26.3,32.6-29.7c32.3-0.6,70.5-1.3,70.5-1.3
			c0.5,0,38.5,4.9,38.5,38.4c0,33,0.5,88.3,0.5,88.9l0,0.5l-26.4,10.1L496.9,184.8z M409.1,183.5h87.2l5.7-4.9l25.6-9.9
			c0-5.4-0.5-57-0.5-88.4c0-32.4-36.8-37.1-37.2-37.1c0,0-38.1,0.7-70.3,1.3c-29.9,3.3-31.4,27.4-31.4,28.4l-1.9,95.9l12.7,4.9
			L409.1,183.5z"/>
	</g>
	<g>
		<path class="st14" d="M497.7,78c0.7,0.5,1.3,53,1.3,53l-3.3,3.3l-4.1,1.3l-7.6-5.2l-4.2-6c0,0-6.9-3.6-8.4-3.6s-10.2-1.3-10.2-1.3
			l-9.2,4.9l-8.7,2.3l-7.6-3.2c0,0-5.5-1-6.4-1.9c-0.9-0.8-6.8,0.9-6.8,0.9l-5.7,5.2l-4.8-0.2l-2.2-5.9l0.6-43.6
			c0,0,10.2-14.6,27.3-1c-4.7,36.5-2.8,32.7-2.8,32.7l3.3,5.2l21.3-1.3l5-41.2C464.3,72.5,475.2,62.5,497.7,78z"/>
	</g>
	<g>
		<line class="st13" x1="525.5" y1="248.9" x2="531.3" y2="224.7"/>
		<path class="st4" d="M525.5,249.6c-0.1,0-0.1,0-0.2,0c-0.4-0.1-0.6-0.4-0.5-0.8l5.8-24.2c0.1-0.4,0.4-0.6,0.8-0.5
			c0.4,0.1,0.6,0.4,0.5,0.8l-5.8,24.2C526.1,249.4,525.8,249.6,525.5,249.6z"/>
	</g>
	<g>
		<line class="st13" x1="518.2" y1="245.3" x2="524" y2="221.1"/>
		<path class="st4" d="M518.2,246c-0.1,0-0.1,0-0.2,0c-0.4-0.1-0.6-0.4-0.5-0.8l5.8-24.2c0.1-0.4,0.4-0.6,0.8-0.5
			c0.4,0.1,0.6,0.4,0.5,0.8l-5.8,24.2C518.7,245.8,518.5,246,518.2,246z"/>
	</g>
	<g>
		<line class="st13" x1="517.5" y1="226.7" x2="534.8" y2="234.9"/>
		<path class="st4" d="M534.8,235.6c-0.1,0-0.2,0-0.3-0.1l-17.2-8.3c-0.3-0.2-0.5-0.6-0.3-0.9c0.2-0.3,0.6-0.5,0.9-0.3l17.2,8.3
			c0.3,0.2,0.5,0.6,0.3,0.9C535.2,235.5,535,235.6,534.8,235.6z"/>
	</g>
	<g>
		<line class="st13" x1="513.9" y1="235.8" x2="531.2" y2="244.1"/>
		<path class="st4" d="M531.2,244.8c-0.1,0-0.2,0-0.3-0.1l-17.2-8.3c-0.3-0.2-0.5-0.6-0.3-0.9c0.2-0.3,0.6-0.5,0.9-0.3l17.2,8.3
			c0.3,0.2,0.5,0.6,0.3,0.9C531.7,244.7,531.4,244.8,531.2,244.8z"/>
	</g>
	<g>
		<path class="st13" d="M317.5,271.1c0,0,11.1,0.5,19.5-5.3c8.4-5.8,9.1-6.3,11.1-8.6c2-2.4,10-18.5,9.5-34.2
			c1.1-2.8,1.1-2.8,1.1-2.8l16.5-12.2l0.5,10.2l-1.1,11.1l-2.4,9.9c0,0-0.2,3.2-2.3,6.4s-10,13.7-10,13.7l-3.5,6.6l-5.2,2.7
			c0,0-9.9,3.6-11.6,3.9c-1.7,0.3-12.2,0.9-12.2,0.9L317.5,271.1z"/>
		<path class="st4" d="M327.4,274l-10.1-2.3l0.2-1.3c0.1,0,11,0.4,19.1-5.2l0.6-0.4c7.8-5.4,8.4-5.8,10.3-8.1
			c1.7-2,9.9-17.9,9.4-33.8l0-0.1l1.3-3.1l0.2-0.1l17.5-12.9l0.5,11.4l-1.1,11.2l-2.4,10c0,0-0.2,3.3-2.4,6.6
			c-2.1,3.2-9.7,13.3-10,13.8l-3.5,6.7l-5.4,2.8c-0.5,0.2-10.1,3.6-11.8,3.9C338,273.4,327.9,273.9,327.4,274L327.4,274z
			 M322.5,271.5l5,1.1c1-0.1,10.4-0.6,12-0.9c1.3-0.2,8.1-2.6,11.5-3.9l5-2.6l3.4-6.4c0.1-0.2,7.9-10.7,10-13.8c2-3,2.2-6,2.2-6
			l2.4-10l1.1-11l-0.4-8.8l-15.3,11.3l-1,2.5c0.4,15.4-7.3,31.7-9.7,34.5c-2,2.4-2.8,3-10.6,8.3l-0.6,0.4
			C332.4,269.8,326.5,271,322.5,271.5z"/>
	</g>
	<g>
		<path class="st15" d="M583,303.1c0,0-48.2,25.1-108.7,25.9c-0.5,18.6,0,11,0,11l11.1-1.5l12.9-2.4l36.4-7.8c0,0,0.1,0,0.1,0
			l36.3-9.1C571.1,319,582.2,315.8,583,303.1z"/>
	</g>
	<g>
		<path class="st15" d="M357.6,321.8l21.1,10.7l0.8-17.4c-25.2-0.2-29.2-11.8-29.2-11.8S351.9,316.3,357.6,321.8z"/>
	</g>
	<g>
		<path class="st16" d="M587.3,208.6c0,0,11.9,12.8,21.7,44.3c0.1-3.1,0.1-3.1,0.1-3.1s-9.2-35.5-20.1-42.4
			C587.3,208.6,587.3,208.6,587.3,208.6z"/>
	</g>
	<g>
		<path class="st7" d="M442.9,398.9c-40.1,8-35.3,6.8-35.3,6.8l-20.4,1.2c-0.3,0-0.6,0.3-0.6,0.6l-0.3,39.1l-69.9-13.4
			c0,0-7.4-48.3,0.8-60.4c8.1-12,33.3-19.9,44.5-21.2c0,0-8.4-14.4-4.8-28.9c0,0,8,5.2,20.9,10.3"/>
		<path class="st4" d="M387,447.4l-71.2-13.6l-0.1-0.5c-0.3-2-7.3-48.6,0.9-60.9c8.1-11.9,32.4-19.7,44-21.3
			c-1.8-3.4-7.5-15.8-4.4-28.5l0.2-0.9l0.8,0.5c0.1,0.1,8.1,5.2,20.8,10.2l-0.5,1.2c-10.5-4.2-17.9-8.4-20.2-9.8
			c-2.9,13.8,4.8,27.4,4.9,27.5l0.5,0.9l-1,0.1c-11,1.3-35.9,9-44,20.9c-7.6,11.2-1.5,54.5-0.8,59.5l68.7,13.2l0.3-38.3
			c0-0.7,0.5-1.2,1.2-1.3l20.4-1.2l0,0c0.9-0.1,6.1-1,35.2-6.9l0.3,1.3c-13.9,2.8-24,4.8-29.9,5.9c-3.7,0.7-5.2,1-5.9,1l-20.1,1.1
			L387,447.4z"/>
	</g>
	<g>
		<path class="st17" d="M354.5,325.4"/>
	</g>
	<g>
		<path class="st13" d="M317.5,271.1c0,0,16.8,7.7,39-5.3"/>
		<path class="st4" d="M330.4,274c-0.6,0-1.3,0-1.8,0c-7-0.3-11.2-2.2-11.4-2.3l0.6-1.2c0.2,0.1,16.8,7.4,38.4-5.2l0.7,1.1
			C346.2,272.5,336.9,274,330.4,274z"/>
	</g>
	<g>
		<path class="st4" d="M611.3,262.5l-1.2-3c-6.3-16.4-17.1-21.7-17.2-21.8c-0.1-0.1-14.2-6.1-25.5-3.7c-5.5,1.2-10.7,3.4-15.3,5.4
			c-5.1,2.2-9.6,4.2-12.9,3.8l0.2-1.3c2.9,0.3,7.2-1.5,12.2-3.7c4.7-2,9.9-4.3,15.5-5.5c11.8-2.5,25.8,3.5,26.4,3.8
			c0.4,0.2,10,4.9,16.6,19.5c-0.4-17.7-8.6-32.7-13.6-39.1c-25-41-68.2-45.2-68.7-45.2l-0.6-0.1V83c0-10.8-4.2-20.9-11.9-28.4
			c-7.7-7.5-17.8-11.6-28.6-11.4l-67,1.3c-17.4,0.3-31.3,14.2-31.6,31.7l-1.7,93l-1.3,0l1.7-93c0.3-18.2,14.8-32.7,32.9-33l67-1.3
			c11.1-0.2,21.6,4,29.6,11.8c7.9,7.8,12.3,18.2,12.3,29.3v87.3c5.4,0.7,45.3,6.9,69,45.7c5.4,6.8,14.5,23.7,13.8,43.2L611.3,262.5z
			"/>
	</g>
	<g>
		<path class="st18" d="M514.4,231.4c0.9,0.9,5.4,7.2,5.4,7.2"/>
		<path class="st4" d="M519.3,239c-1.2-1.7-4.6-6.4-5.3-7.1l0.9-0.9c0.9,0.9,5,6.6,5.5,7.3L519.3,239z"/>
	</g>
	<g>
		<circle class="st18" cx="478.6" cy="104.2" r="11.9"/>
		<path class="st4" d="M478.6,116.7c-6.9,0-12.6-5.6-12.6-12.6s5.6-12.6,12.6-12.6c6.9,0,12.6,5.6,12.6,12.6
			S485.5,116.7,478.6,116.7z M478.6,92.9c-6.2,0-11.2,5-11.2,11.2c0,6.2,5,11.2,11.2,11.2c6.2,0,11.2-5,11.2-11.2
			C489.8,98,484.8,92.9,478.6,92.9z"/>
	</g>
	<g>
		<circle class="st18" cx="427.3" cy="104.2" r="11.9"/>
		<path class="st4" d="M427.3,116.7c-6.9,0-12.6-5.6-12.6-12.6s5.6-12.6,12.6-12.6c6.9,0,12.6,5.6,12.6,12.6
			S434.2,116.7,427.3,116.7z M427.3,92.9c-6.2,0-11.2,5-11.2,11.2c0,6.2,5,11.2,11.2,11.2c6.2,0,11.2-5,11.2-11.2
			C438.5,98,433.5,92.9,427.3,92.9z"/>
	</g>
	<g>
		<path class="st14" d="M466.9,104.2l23.3-3.2l-0.3-0.8c-1.7-4.6-6-7.8-11.2-7.8c-6.2,0-11.4,4.8-11.9,10.9L466.9,104.2z"/>
		<path class="st4" d="M466.2,104.9l0.1-1.8c0.5-6.5,6-11.5,12.5-11.5c5.3,0,10,3.3,11.8,8.2l0.5,1.6L466.2,104.9z M478.8,92.9
			c-5.8,0-10.7,4.5-11.2,10.3l0,0.2l21.8-3l0-0.1C487.8,95.9,483.5,92.9,478.8,92.9z"/>
	</g>
	<g>
		<path class="st14" d="M416.5,100.3l23.2,4.1l0-0.9c-0.2-4.8-3.3-9.3-8.2-10.9c-5.9-1.9-12.3,1.1-14.6,6.7L416.5,100.3z"/>
		<path class="st4" d="M440.4,105.2l-24.8-4.4l0.6-1.7c2.5-6,9.3-9.1,15.5-7.1c5,1.6,8.5,6.2,8.7,11.5L440.4,105.2z M417.4,99.7
			l21.6,3.8l0-0.1c-0.2-4.7-3.3-8.8-7.8-10.2c-5.5-1.8-11.6,1-13.8,6.3L417.4,99.7z"/>
	</g>
	<g>
		<circle class="st18" cx="425.7" cy="107.1" r="0.3"/>
		<path class="st4" d="M425.7,108.1c-0.6,0-1-0.5-1-1c0-0.6,0.5-1,1-1c0.6,0,1,0.4,1,1C426.7,107.7,426.2,108.1,425.7,108.1z
			 M425.7,106.8c-0.2,0-0.3,0.1-0.3,0.3c0,0.4,0.7,0.4,0.7,0C426,106.9,425.9,106.8,425.7,106.8z"/>
	</g>
	<g>
		<circle class="st18" cx="477.5" cy="107.9" r="0.5"/>
		<path class="st4" d="M477.5,109c-0.6,0-1.1-0.5-1.1-1.1c0-0.6,0.5-1.1,1.1-1.1s1.1,0.5,1.1,1.1C478.6,108.5,478.1,109,477.5,109z
			 M477.5,107.7c-0.1,0-0.2,0.1-0.2,0.2c0,0.2,0.4,0.2,0.4,0C477.7,107.8,477.6,107.7,477.5,107.7z"/>
	</g>
	<g>
		<path class="st13" d="M471.9,341.2c17.3-1.3,33.1-3.9,50.9-9.3c33.6-7.4,48.1-11.5,48.1-11.5c0.2,27.6-26.7,56-26.7,56
			c2.2,20.9,7.9,50.6,5.7,82c-1.7,5.7,2.6,14.4,1.3,14c-1.3-0.4-64.3-2.8-64.3-2.8l-27.3-48.3c0,0-4.9-17.3-16.6-22.4
			c-11.8-5.1-11.8-11.1-11.8-11.1"/>
		<path class="st4" d="M551.2,473.1c-0.1,0-0.2,0-0.3,0c-1.7-0.4-46.8-2.1-64.1-2.8l-0.4,0l-27.6-48.8c0-0.2-4.9-17.1-16.3-22
			c-12-5.2-12.2-11.4-12.2-11.7h1.3c0,0.1,0.2,5.7,11.4,10.5c11.7,5,16.6,21.3,17,22.8l27.1,47.9c10.7,0.4,57.1,2.2,63.4,2.8
			c-0.1-0.5-0.3-1.2-0.5-1.8c-0.8-2.9-2.1-7.8-1-11.5c1.7-24.2-1.4-47.6-3.8-66.4c-0.7-5.5-1.4-10.7-1.9-15.5l0-0.3l0.2-0.2
			c0.3-0.3,26.1-27.9,26.5-54.6c-3.6,1-18.4,4.9-47.2,11.2c-16.5,5-32.3,7.9-51,9.3l-0.1-1.3c18.6-1.4,34.3-4.3,50.7-9.3
			c33.3-7.4,47.9-11.4,48.1-11.5l0.8-0.2l0,0.9c0.2,26.2-24.1,53.4-26.7,56.2c0.5,4.6,1.2,9.7,1.8,15.1c2.4,18.9,5.5,42.3,3.8,66.7
			l0,0.1c-1,3.4,0.2,8.1,1,10.9c0.6,2.1,0.8,2.9,0.3,3.4C551.6,473.1,551.4,473.1,551.2,473.1z M551.3,471.8
			C551.3,471.8,551.3,471.8,551.3,471.8C551.3,471.8,551.3,471.8,551.3,471.8z"/>
	</g>
	<g>
		<path class="st7" d="M390.8,453.2c0,0,5-23.9,5.5-25c0.4-1.1-8.8,7.2-8.8,7.2L394,416c0-0.1-0.1-0.2-0.2-0.2l-8.3,1.9
			c0,0-39.9-13.5-70.2-3.9l-7.9-2.2c0,0,9,16.1,7.9,15.9c-1.1-0.2-11.2-3.3-11.2-3.3l7.5,11.4c0,0,22-17.7,39.9-12.7
			c6.8,2,6.8,2,6.8,2s13.6,5.6,19.1,11.8c5.5,6.3,12.6,12.3,12.6,12.3L390.8,453.2"/>
		<path class="st4" d="M390.8,456.6l-1.3-7.1c-1.1-1-7.5-6.6-12.5-12.3c-5.4-6.1-18.8-11.6-18.9-11.7l-6.7-1.9
			c-17.4-4.9-39.1,12.4-39.3,12.6l-0.6,0.5l-8.9-13.5l1.8,0.5c2.3,0.7,7.9,2.4,10.2,3c-0.9-2.3-4.4-8.9-7.7-14.7l-0.8-1.4l9.2,2.6
			c29.1-9.1,67.3,3,70.3,3.9l8.1-1.9c0.3-0.1,0.6,0,0.8,0.2c0.2,0.2,0.3,0.5,0.2,0.8l-5.8,17c7-6.2,7.3-6,7.8-5.7l0.4,0.3l-0.2,0.6
			c-0.3,0.8-3.4,15.3-5.4,24.9L390.8,456.6z M344.8,421.4c2.3,0,4.7,0.3,6.9,0.9l6.8,2c0.6,0.3,13.9,5.7,19.4,12
			c5.4,6.2,12.5,12.2,12.5,12.3l0.2,0.2l0.2,1c1.2-5.5,3.4-16.1,4.4-20.2c-1.6,1.3-4.6,3.9-7.4,6.3l-1.9,1.7l7.1-20.9l-7.5,1.7
			l-0.2-0.1c-0.4-0.1-40.1-13.3-69.8-3.9l-0.2,0.1l-6.6-1.8c7.9,14.2,7.4,14.8,7.2,15.2l-0.2,0.3l-0.5-0.1c-0.9-0.2-6.6-1.9-9.5-2.8
			l6.1,9.2c1.6-1.2,6.5-4.8,12.8-7.9C330,424.1,337.4,421.4,344.8,421.4z"/>
	</g>
	<g>
		<path class="st7" d="M554.3,485.9c0,0,5.8-31.6,6.2-32.7c0.4-1.1-8.2,6.7-8.8,7.2c0,0,0,0,0,0l6.6-19.6c0,0,0,0,0,0l-8.5,2
			c0,0,0,0,0,0c-0.1-0.1-28.3-21.4-83.2-3.4c0,0,0,0,0,0l-12.3-5.5c0,0,0,0,0,0c1,1,15.8,16.6,14.7,16.4c-1.1-0.2-10.6-3.1-11.2-3.3
			c0,0,0,0,0,0l15.2,20.4c0,0,0,0,0,0c0.3-0.3,25-24.4,42.8-19.4l6.8,2c0,0,0,0,0,0c0,0,13.6,5.6,19.1,11.8
			c5.5,6.2,12.5,12.3,12.6,12.3c0,0,0,0,0,0L554.3,485.9"/>
		<path class="st4" d="M554.9,486.1l-1.3-0.1l0-11.5c-1.2-1-7.5-6.6-12.4-12.2c-5.4-6.1-18.8-11.6-18.9-11.7l-6.7-1.9
			c-17.2-4.8-41.9,19-42.2,19.2l-0.2,0.2l-0.7-0.1l-0.2-0.3L456.9,447l0.5-0.8l0.5,0.1c3.6,1.1,7.4,2.2,9.5,2.8
			c-2.3-2.7-8.2-9.1-13.7-14.9l-0.4-0.4l0.6-0.9l0.5,0.2l12.1,5.4c28.4-9.3,49.5-7.8,62.2-5c12.7,2.8,19.7,7.4,21.1,8.4l8.6-2
			l0.5,0.6l-0.1,0.4l-5.8,17.2c7-6.2,7.3-6,7.8-5.7l0.4,0.3l-0.2,0.6C560.8,454.5,557.2,473.5,554.9,486.1z M554.9,474.3l0,4.4
			c1.5-8.1,3.7-19.8,4.6-24.1c-1.7,1.4-5,4.2-7.4,6.3l-0.4,0.4l-0.8-0.6l0.2-0.5l6.3-18.5l-7.2,1.7l-0.3,0.2l-0.4-0.2
			c-0.3-0.2-28.6-21.1-82.6-3.4l-0.3,0l-0.1,0l-9.4-4.2c13.1,13.9,12.9,14.3,12.6,14.8l-0.2,0.4l-0.5-0.1c-0.8-0.2-5.9-1.7-9.4-2.7
			l13.5,18.2c3.9-3.6,26.2-23.7,42.9-19l6.8,2c0.2,0.1,13.8,5.6,19.4,12c5.4,6.1,12.2,12,12.5,12.3l0.3,0.3L554.9,474.3z"/>
	</g>
	<g>
		<path class="st19" d="M551.1,431.9c0,0,11.5,1.6,7.2,8.8l-6.2,1.4c-1.1,0.3-2.2-0.7-2-1.8L551.1,431.9z"/>
		<path class="st4" d="M551.7,442.9c-0.6,0-1.1-0.2-1.6-0.6c-0.6-0.5-0.8-1.3-0.8-2l1.1-9.1l0.7,0.1c0.3,0,6.6,1,8.3,4.6
			c0.7,1.5,0.5,3.3-0.6,5.2l-0.1,0.2l-6.5,1.5C552.1,442.9,551.9,442.9,551.7,442.9z M551.6,432.7l-0.9,7.8c0,0.3,0.1,0.6,0.3,0.9
			c0.2,0.2,0.6,0.3,0.9,0.2l5.9-1.4c0.8-1.4,0.9-2.7,0.4-3.7C557.2,434.1,553.2,433.1,551.6,432.7z"/>
	</g>
	<g>
		<path class="st19" d="M307.5,411.6c0,0-6.8-2.6,6.2-4.3l1.4,5.4c0.1,0.5-0.3,0.9-0.8,0.8L307.5,411.6z"/>
		<path class="st4" d="M314.5,414.2c-0.1,0-0.2,0-0.4,0l-6.9-1.9c-0.4-0.2-2.4-1-2.2-2.4c0.1-1.1,1.2-2.3,8.6-3.2l0.6-0.1l1.6,6
			c0.1,0.5,0,0.9-0.3,1.2C315.2,414.1,314.8,414.2,314.5,414.2z M307.7,411l6.8,1.9l-1.3-4.8c-6.6,0.9-6.8,1.9-6.8,2
			C306.4,410.2,307,410.7,307.7,411z"/>
	</g>
	<g>
		<path class="st19" d="M387.5,411.5l6.3,4c0.1,0.1,0.1,0.3-0.1,0.3l-6.5,1.5c-0.7,0.2-1.3-0.5-1.1-1.2L387.5,411.5z"/>
		<path class="st4" d="M386.9,418c-0.4,0-0.8-0.2-1.2-0.5c-0.4-0.4-0.5-1-0.4-1.5l1.7-5.5l7,4.5c0.3,0.2,0.4,0.5,0.4,0.9
			c-0.1,0.3-0.3,0.6-0.6,0.7l-6.5,1.5C387.2,418,387.1,418,386.9,418z M387.8,412.5l-1.1,3.8c0,0.1,0,0.2,0.1,0.3
			c0,0,0.1,0.1,0.2,0.1l5.4-1.2L387.8,412.5z"/>
	</g>
	<g>
		<path class="st20" d="M387.5,435.4"/>
	</g>
	<g>
		<path class="st20" d="M386,437.9"/>
	</g>
	<g>
		<path class="st19" d="M454.2,433.7c0,0,2.8-8,9.8-4.5c5.5,9.1,5.5,9.1,5.5,9.1l-2.9,0.9L454.2,433.7z"/>
		<path class="st4" d="M466.6,440l-13.2-5.9l0.2-0.6c0.1-0.2,1.4-4,4.7-5.4c1.8-0.7,3.8-0.6,6,0.5l0.2,0.1l6,10L466.6,440z
			 M455.1,433.4l11.6,5.2l1.9-0.6l-5-8.2c-1.7-0.8-3.3-1-4.7-0.4C456.8,430.2,455.6,432.4,455.1,433.4z"/>
	</g>
	<g>
		<path class="st4" d="M537.1,329.6c-0.2,0-0.5-0.1-0.6-0.3c-0.2-0.3-0.1-0.7,0.3-0.9c0.2-0.1,16.6-9.3,14.6-20.1
			c-0.1-0.4,0.2-0.7,0.5-0.8c0.4-0.1,0.7,0.2,0.8,0.5c2.2,11.7-14.5,21.1-15.2,21.5C537.3,329.6,537.2,329.6,537.1,329.6z"/>
	</g>
	<g>
		<path class="st4" d="M474.7,339.8c-0.3,0-0.5-0.1-0.6-0.1c-0.3-0.1-0.5-0.5-0.3-0.9c0.1-0.3,0.5-0.5,0.8-0.4c0.1,0,1.7,0.3,5-3.8
			c0.2-0.3,0.7-0.3,0.9-0.1c0.3,0.2,0.3,0.7,0.1,0.9C477.6,339.2,475.6,339.8,474.7,339.8z"/>
	</g>
	<g>
		<path class="st4" d="M489.8,339.5c-0.3,0-0.5-0.1-0.6-0.4c-0.2-0.3,0-0.7,0.3-0.9c0.2-0.1,20-9.3,21.9-18.3
			c0.1-0.4,0.4-0.6,0.8-0.5c0.4,0.1,0.6,0.4,0.5,0.8c-2,9.6-21.8,18.8-22.6,19.2C490,339.5,489.9,339.5,489.8,339.5z"/>
	</g>
	<g>
		<path class="st13" d="M363.7,317.3c0,0,0.3,5.5,8.7,13.4"/>
		<path class="st4" d="M372.3,331.4c-0.2,0-0.3-0.1-0.5-0.2c-8.5-7.9-8.8-13.6-8.9-13.8c0-0.4,0.3-0.7,0.6-0.7
			c0.4,0,0.7,0.3,0.7,0.6c0,0.1,0.4,5.4,8.4,12.9c0.3,0.3,0.3,0.7,0,0.9C372.7,331.3,372.5,331.4,372.3,331.4z"/>
	</g>
	<g>
		<path class="st15" d="M486.8,280.7c0,0-4.4,12.4,4.6,15.3c8.8,2.8,14.1-2.4,14.1-2.4s20.5,5.6,29.2,0c9.7,4.6,32.4,10.6,48,4.1
			c0.2-4.6,0.2-4.6,0.2-4.6l-32.9-5.7c0,0-14.7-3.4-15.9-3.6s-21.1,0.2-23.4,0S486.8,280.7,486.8,280.7z"/>
	</g>
	<g>
		<path class="st15" d="M370.1,213.7c0,0,1.1,31.3-26,56.3c0,0,5.1-1.2,11.4-5c0.7-2,4.5-7.8,7.1-11.4c2.6-3.6,6.3-8.7,6.3-8.7
			s3.1-6.1,4.7-19.6c0,0,1.2-12.8,0.5-14.4C372.3,212.2,370.1,213.7,370.1,213.7z"/>
	</g>
	<g>
		<path class="st14" d="M609.7,256.6c0.3,0.6,5,27.4-16.4,33.8c-21.5,6.5-33,5.3-33,5.3s-17.3-3-25.8-7.7c0,0-15.3,5.7-23.9,3.2
			c-4.7-1.7-4.7-1.7-4.7-1.7s-6.3,4.4-10.8,1.8c-4.5-2.6-10.7-9-4.5-22.2c-4.2-4.2-3.8-13.4,2-18.6c-2.3-2.4-5.9-8.8,2.6-12.7
			c8.4-3.9,22.4-0.9,32.8,2.4c10.4,3.3,14.9,2.4,26.9-2.8c12-5.2,24.5-6.9,34.2-3c4.8,2,10.6,6.7,14.5,11.7S609.7,256.6,609.7,256.6
			z"/>
		<path class="st4" d="M562.8,296.4c-1.7,0-2.6-0.1-2.7-0.1c-0.7-0.1-17.2-3-25.8-7.6c-2.2,0.8-15.9,5.5-24,3.1l-4.4-1.6
			c-1.3,0.9-6.9,4.1-11.2,1.6c-3.7-2.1-11.4-8.4-5-22.7c-1.8-2-2.7-4.9-2.7-8.1c0.1-4,1.7-7.9,4.5-10.7c-1.6-1.9-2.9-4.6-2.4-7.3
			c0.5-2.4,2.3-4.4,5.6-5.9c8.6-4,22.9-0.9,33.3,2.4c10.2,3.2,14.6,2.4,26.5-2.7c13.2-5.7,25.5-6.7,34.7-3c4.9,2,10.7,6.7,14.8,11.9
			c4,5,6.2,10.3,6.2,10.5v0c0.3,0.8,2.3,12.5-2.3,22.3c-2.9,6.2-7.8,10.4-14.5,12.4C577.8,295.8,567.4,296.4,562.8,296.4z
			 M534.4,287.3l0.3,0.1c8.4,4.5,25.5,7.6,25.6,7.6c0.1,0,11.7,1.1,32.7-5.2c5.9-1.8,10.3-5.3,13.1-10.5c5.3-9.8,3-22.1,2.9-22.4
			c-0.2-0.4-2.3-5.5-6-10.2c-4-5.1-9.6-9.6-14.3-11.5c-8.9-3.6-20.8-2.6-33.7,3c-12.3,5.3-16.8,6.2-27.4,2.8
			c-10.2-3.2-24.1-6.3-32.3-2.5c-2.8,1.3-4.4,2.9-4.8,4.9c-0.5,2.5,1,5.1,2.5,6.6l0.5,0.5l-0.5,0.5c-2.8,2.6-4.5,6.3-4.5,10.2
			c-0.1,3,0.9,5.8,2.6,7.5l0.3,0.3l-0.2,0.4c-6.3,13.5,0.9,19.5,4.2,21.4c4.1,2.3,10-1.7,10.1-1.8l0.3-0.2l5,1.8
			c8.2,2.4,23.3-3.1,23.4-3.2L534.4,287.3z M609,256.8L609,256.8C609,256.8,609,256.8,609,256.8L609,256.8z"/>
	</g>
	<g>
		<path class="st4" d="M474.4,342.2l-0.1-1.3c16.1-1.8,32.4-5,48.3-9.6c0.4-0.1,31-6,49.1-11.8c4.8-1.5,8.2-4.3,10.1-8.1
			c4-7.9,0.6-17.9,0.6-18l1.3-0.4c0.1,0.4,3.6,10.7-0.7,19.1c-2.1,4.2-5.8,7.2-10.9,8.8c-18.2,5.8-48.9,11.7-49.2,11.8
			C506.9,337.2,490.6,340.4,474.4,342.2z"/>
	</g>
	<g>
		<path class="st4" d="M381,335.7c-11.5-3.3-20.2-7.3-21.4-9.9c-8.4-5.9-9.8-14.8-11.1-22.6l-0.1-0.6c-1.2-7.5,3.4-37.9,15.7-49.6
			c11.4-10.8,10.8-41.2,10.8-41.5l1.3,0c0,1.3,0.7,31.3-11.2,42.5c-11.3,10.6-16.7,40.1-15.3,48.4l0.1,0.7
			c1.3,7.6,2.7,16.3,10.7,21.8l0.2,0.1l0.1,0.2c0.5,1.5,7.4,5.4,20.6,9.3L381,335.7z"/>
	</g>
	<g>
		<path class="st7" d="M555,486.2c0,0-18.3,9.2-64.1,5.7c-33.2-2.5-24.6-26.1,0-39.7c34-18.8,54.5,15.3,64.1,22.2L555,486.2z"/>
		<path class="st4" d="M511,493.3c-6,0-12.7-0.2-20.2-0.8c-16.4-1.3-21.1-7.3-22.2-12.2c-1.9-8.8,7.1-20.6,21.9-28.8
			c28-15.4,46.9,4.2,58.2,16c2.6,2.7,4.8,5,6.6,6.3l0.3,0.2l0,12.5l-0.4,0.2C554.7,487.1,541.8,493.3,511,493.3z M510.6,447.3
			c-5.9,0-12.4,1.6-19.4,5.5c-14.3,7.9-23,19.1-21.2,27.3c1.4,6.3,8.8,10.2,21,11.1c41.7,3.2,60.6-4.2,63.4-5.4l0-11
			c-1.8-1.4-4-3.7-6.5-6.3C539.6,460,527.4,447.3,510.6,447.3z"/>
	</g>
	<g>
		<path class="st21" d="M437.6,117.5l25.4-0.7l4.6-36.9c0,0,26.9-1.6,30,11.7c2,0.5,0.7-1.7,0.7-1.7l-1.2-8l-7-3.8l-11.7-3.9
			L464,75.4l-0.5,5.6l-1.3,9.8l-3.9,22.9l-19,1.1L437.6,117.5z"/>
	</g>
	<g>
		<path class="st21" d="M413.1,127.9l0.8-47.6c0,0,13-9.3,22.4,1.8c1.9-6.8,1.9-6.8,1.9-6.8l-16.9-4l-11,5.7l-0.6,50L413.1,127.9z"
			/>
	</g>
	<g>
		<polyline class="st7" points="439.2,66.2 434.8,109.7 452.7,109.7 458.2,69.2 		"/>
		<polygon class="st4" points="453.3,110.4 434,110.4 438.5,66.1 439.8,66.3 435.5,109.1 452.1,109.1 457.5,69.2 458.8,69.3 		"/>
	</g>
	<g>
		<path class="st4" d="M409.5,169.8h-6.4l1.5-92.1c0-0.2,0.4-4.6,4.9-8c5.9-4.4,15.8-5,29.3-1.9l-0.3,1.3
			c-16.4-3.8-24.4-1.2-28.2,1.7c-4.1,3-4.4,6.9-4.4,7l-1.5,90.7h3.7c0.1-7.4,0.9-74,1.5-91.4l0-0.2l0.2-0.2
			c8.9-9.7,22.2-4.1,26.6-2.3c0.5,0.2,1,0.4,1.1,0.4l-0.1,1.3c-0.3,0-0.6-0.1-1.5-0.5c-4.1-1.7-16.7-7-24.9,1.8
			c-0.6,18.7-1.5,91.1-1.5,91.8L409.5,169.8z"/>
	</g>
	<g>
		<polygon class="st4" points="437.7,115.7 434.2,110.1 435.3,109.4 438.4,114.3 459.3,113 459.4,114.4 		"/>
	</g>
	<g>
		<path class="st18" d="M493.8,183.7c11.8-2.6,23.4-6.7,34.1-12.9"/>
		<path class="st4" d="M493.9,184.4l-0.3-1.3c12.6-2.8,24-7.1,33.9-12.8l0.7,1.2C518.2,177.2,506.6,181.6,493.9,184.4z"/>
	</g>
	<g>
		<path class="st4" d="M446.3,175.4c-5.5,0-10.4-0.3-14.4-0.7c-15.2-1.5-23-4.8-23.4-4.9l0.5-1.2c0.3,0.1,31.8,13.2,90-1.6
			c-0.5-29.7-1.5-84.9-1.9-89c-2.1-1.6-19.7-14.6-31.9-5.5l-5.8,41.1l-7.1-3.2l0.5-1.2l5.5,2.5l5.6-39.9l0.2-0.2
			c13.8-10.7,33.8,5.3,34,5.5l0.1,0.1c0.1,0.2,0.5,0.8,2.1,90.2l0,0.5l-0.5,0.1C478.1,173.7,460,175.4,446.3,175.4z"/>
	</g>
	<g>
		<path class="st22" d="M403.8,169.2"/>
	</g>
	<g>
		<path class="st4" d="M448.7,178.5c-9.1,0-16.6-0.8-22.4-1.7c-15.3-2.5-22.5-6.9-22.8-7l0.7-1.1c0.3,0.2,29.6,17.4,92.9,2.5
			c0.7-0.2,1.4-0.6,1.8-1.3c0.4-0.7,0.5-1.4,0.3-2.2l1.3-0.3c0.3,1.1,0.1,2.2-0.5,3.2c-0.6,1-1.5,1.6-2.6,1.9
			C477.8,177,461.6,178.5,448.7,178.5z"/>
	</g>
	<g>
		<path class="st23" d="M409.8,198.1c0,0,3.5,31.1-13.5,49.1c-12.3,13.1-15.6,61.7-16.4,87.5c-0.3,9.8-0.3,16.2-0.3,16.2l93.6,5.2
			c0,0-2.6-82.5,8.9-102.6s10.7-59.3,10.7-59.3"/>
		<path class="st4" d="M473.8,356.9l-94.9-5.3l0-0.6c0-0.1,0-6.6,0.3-16.3c0.9-27.2,4.2-74.9,16.6-87.9
			c16.6-17.6,13.4-48.3,13.3-48.6l1.3-0.1c0,0.3,3.4,31.6-13.7,49.6c-12.1,12.8-15.3,60-16.2,87.1c-0.3,7.9-0.3,13.7-0.3,15.6
			l92.2,5.2c-0.2-8.7-2-83,9-102.3c11.2-19.7,10.7-58.6,10.6-59l1.3,0c0,0.4,0.6,39.7-10.8,59.7c-11.2,19.7-8.8,101.5-8.8,102.3
			L473.8,356.9z"/>
	</g>
	<g>
		<polygon class="st7" points="540.9,206.6 502.3,179.2 538.9,165.1 582.8,189.3 		"/>
		<path class="st4" d="M540.8,207.3L500.9,179l38.1-14.6l45.3,25L540.8,207.3z M503.7,179.4l37.3,26.5l40.3-16.6l-42.4-23.4
			L503.7,179.4z"/>
	</g>
	<g>
		<path class="st7" d="M538.9,226.6c0,0-45.4-35.8-45.2-36.8c0.3-1,8.5-10.5,8.5-10.5l38.6,27.4L538.9,226.6"/>
		<path class="st4" d="M539.5,227.8l-1-0.8c-45.8-36.1-45.6-37-45.4-37.5c0.3-1,6.1-7.9,8.6-10.8l0.4-0.5l39.4,28L539.5,227.8z
			 M494.6,189.7c2.5,2.7,26.9,22.2,43.8,35.6l1.8-18.4l-37.8-26.8C499,184.1,495.4,188.5,494.6,189.7z"/>
	</g>
	<g>
		<polygon class="st7" points="582.8,189.3 593.2,204.9 538.9,226.6 540.9,206.6 		"/>
		<path class="st4" d="M538.2,227.6l2.1-21.5l42.8-17.7l11.1,16.8L538.2,227.6z M541.5,207.1l-1.8,18.5l52.4-20.9l-9.6-14.5
			L541.5,207.1z"/>
	</g>
	<g>
		<path class="st7" d="M400.2,174.7l9.6,10.3l-51,35.1c0,0,0.1-14.7,0-15.2C358.6,204.4,400.2,174.7,400.2,174.7"/>
		<path class="st4" d="M358,221.4l0-1.3c0-5.7,0.1-14.4,0-15.1c-0.1-0.6-0.2-0.9,41.7-30.9l0.5-0.3l10.5,11.3L358,221.4z
			 M359.4,205.2c0.1,1.7,0,8,0,13.7l49.4-34l-8.7-9.3C384.5,186.7,361.6,203.2,359.4,205.2z"/>
	</g>
	<g>
		<polyline class="st7" points="358.7,204.9 362.9,201.4 366.5,198.8 400.2,174.7 385.7,169.2 372.5,163.4 365.6,166.7 		"/>
		<polygon class="st4" points="359.1,205.4 358.3,204.4 362.4,200.8 398.8,174.9 385.5,169.8 372.5,164.1 365.9,167.3 365.3,166.1 
			372.5,162.7 386,168.6 401.6,174.5 363.3,201.9 		"/>
	</g>
	<g>
		<path class="st18" d="M415.5,222.5c0,0-6.7,23-10.1,27.9c0,0-16.4,15.1-17,93.3c45.5,2.9,73,3.9,73,3.9s-2.3-55.6,8.8-89.5
			c1.1-3.4,2.8-6.5,5.1-9.1c2.8-3.1,7.9-13,11.5-44.1"/>
		<path class="st4" d="M462.1,348.4l-0.7,0c-0.3,0-28-1-73-3.9l-0.6,0l0-0.6c0.6-76,15.9-92.5,17.2-93.7c3.3-4.9,9.9-27.5,9.9-27.7
			l1.3,0.4c-0.3,0.9-6.8,23.2-10.2,28.1l-0.1,0.1c-0.2,0.1-16.1,15.9-16.8,92.2c40.6,2.6,67,3.7,71.6,3.9c-0.2-6.6-1.4-57.5,8.9-89
			c1.2-3.7,3-6.8,5.3-9.4c2.7-2.9,7.7-12.5,11.3-43.7l1.3,0.2c-3.5,30-8.3,40.7-11.6,44.5c-2.2,2.4-3.8,5.4-5,8.9
			c-11,33.4-8.8,88.7-8.8,89.3L462.1,348.4z"/>
	</g>
	<g>
		<path class="st14" d="M362.3,165.5c-9.8-24.8-25.7-10.2-36.6-0.3s-7.6,38.5-7.6,38.5c-13.9,10.6-19.5,32.1-21.6,42
			c-2.7,13.3,8.7,24.3,21,25.4c12.3,1.1,19.4-3.5,30.6-13.9c11.2-10.4,10.1-53.5,10.1-53.5s19.9-21.6,12.8-30
			C371,173.6,366.2,164.8,362.3,165.5z"/>
		<path class="st4" d="M320.9,271.9c-1.1,0-2.3-0.1-3.5-0.2c-7-0.6-13.7-4.4-17.9-10c-3.6-4.8-4.9-10.6-3.7-16.2
			c2.9-13.9,8.9-32.4,21.5-42.2c-0.4-3.6-2.6-29.2,7.9-38.7l0.3-0.3c7.4-6.7,16.6-15,25.2-13c4.9,1.2,8.9,5.5,12,13.3
			c4,0,8.2,7.3,8.8,8.4c7,8.5-10.6,28.3-12.7,30.7c0.1,4,0.6,43.6-10.3,53.7C338.1,267.2,331.2,271.9,320.9,271.9z M348,152.5
			c-7.3,0-15.2,7.1-21.6,12.9l-0.3,0.3c-10.5,9.5-7.5,37.6-7.4,37.9l0,0.4l-0.3,0.2c-12.5,9.5-18.5,27.9-21.3,41.6
			c-1.4,6.8,1.1,12,3.5,15.2c3.9,5.3,10.3,8.8,17,9.4c11.9,1.1,18.9-3.4,30.1-13.7c10.8-10.1,9.9-52.6,9.9-53l0-0.3l0.2-0.2
			c0.2-0.2,19.5-21.2,12.8-29.1l-0.1-0.1c-1.3-2.3-5.2-8.3-8-7.8l-0.5,0.1l-0.2-0.5c-3-7.6-6.8-11.9-11.3-13
			C349.6,152.5,348.8,152.5,348,152.5z"/>
	</g>
	<g>
		<path class="st4" d="M354.6,188.2c-0.1,0-0.3,0-0.4,0c-1.5-0.1-2.6-0.8-3.3-2c-1.5-2.6-0.7-6.8,0.3-9c1.5-3.2,10.3-11.8,10.7-12.2
			l0.9,1c-0.1,0.1-9,8.8-10.4,11.8c-0.9,2-1.6,5.7-0.4,7.7c0.5,0.8,1.2,1.3,2.3,1.3c4.3,0.2,9.8-4.3,9.8-4.3l0.9,1
			C364.7,183.7,359.3,188.2,354.6,188.2z"/>
	</g>
	<g>
		<path class="st24" d="M409.5,119.5c0,0,0.6,12.7,7.3,7.3c6.7-5.3,10.1-10.4,19.8-2.5c6.8,5.5,14.6,0.9,18.7-2.3
			c2.2-1.8,4.9-2.7,7.7-2.7c6.2,0.2,16.5,1.8,20.3,9.7c8.4,6.2,10.5,7.9,13.7,4.1c0.5-0.6,0.9-1.1,1.3-1.5l0.8-1l0.5,25.1
			c-0.1,14.5-3.2,17.9-3.2,17.9s-1.7,22.2-3.7,20.5s-3.8-0.9-4.3,2.8c0,5.8-7.8,26.6-7.8,26.6s-2.2-2.6-5.1-2.4s2.7,11.6-2,17.2
			c-4.7,5.6-13.1,17.2-13.1,17.2s-3.2-5.2-5.3-5.2c-2.2,0,3.3,19.1-1.3,12s-5,9.2-5.3,12.5c-0.3,3.2-7.1,6.4-7.1,6.4
			s-7.1-15-7.5-17.6c-0.3-2.6-4.7-2.1-4.7-2.1s0-5.4,0-9.3c0-3.9-3.3-1-3.3-1l-5.5-12.2c0,0-0.3-12.5-0.8-14.2
			c-0.5-1.7-4.5,1.1-4-2.4c0.5-3.4-3.7-17.6-3.7-17.6s-1.4-12.1,0-15.7c-2.8-0.6-2.8-0.6-2.8-0.6s-0.7-10.6,1-14.2
			c1.7-3.5-1.2-12.9-1.2-12.9l0.6-38.5L409.5,119.5"/>
		<path class="st4" d="M440.9,282.3l-0.3-0.6c-0.7-1.5-7.2-15.2-7.5-17.8c-0.2-1.9-3.9-1.6-3.9-1.6l-0.7,0.1v-10
			c0-0.9-0.2-1.3-0.4-1.4c-0.4-0.2-1.3,0.3-1.9,0.8l-0.7,0.6l-5.9-13.3c-0.1-5-0.5-12.8-0.8-14c-0.1-0.2-0.6-0.2-1.2-0.1
			c-0.8,0.1-1.8,0.2-2.4-0.5c-0.4-0.4-0.6-1.1-0.4-2c0.4-2.7-2.5-13.4-3.6-17.3c-0.1-0.6-1.3-11.1-0.2-15.4l-2.6-0.6l0-0.5
			c0-0.4-0.7-10.9,1.1-14.5c1.3-2.7-0.4-9.9-1.2-12.4l0-0.1l0-0.1l0.7-42l1.3,0c0.1,1.9,0.8,6.9,2.9,7.8c0.9,0.4,2,0,3.3-1
			c0.8-0.6,1.5-1.3,2.2-1.9c5.3-4.5,9.5-8,18.4-0.7c6.4,5.2,14,0.8,17.9-2.3c2.4-1.9,5.3-2.9,8.2-2.8c6,0.2,16.7,1.7,20.8,10
			l0.2,0.2c8.3,6.2,9.7,7.1,12.4,4c0.5-0.6,0.9-1.1,1.3-1.5l1.9-2.5l0.5,27c-0.1,12.9-2.6,17.3-3.2,18.2c-0.6,7.6-1.8,20.2-3.7,20.9
			c-0.3,0.1-0.7,0.1-1-0.2c-0.4-0.3-1.2-0.9-1.8-0.6c-0.7,0.3-1.2,1.4-1.4,3c0,5.8-7.5,25.9-7.8,26.8l-0.4,1.1l-0.7-0.9
			c0,0-2-2.3-4.6-2.1c-0.1,0-0.1,0-0.1,0.1c-0.4,0.5-0.1,2.5,0.2,4.3c0.5,3.9,1.3,9.2-1.6,12.6c-4.6,5.5-13,17-13.1,17.2l-0.6,0.8
			l-0.5-0.8c-1.2-1.9-3.3-4.5-4.5-4.8c-0.2,0.9,0.2,4.1,0.5,6.3c0.7,5,0.8,6.8-0.2,7.2c-0.8,0.3-1.5-0.5-2.4-1.8
			c-0.8-1.2-1.3-1.5-1.6-1.5c-1.1,0.3-1.9,4.2-2.4,11.8c-0.1,0.8-0.1,1.4-0.1,1.9c-0.4,3.5-6.8,6.6-7.5,7L440.9,282.3z M429.9,260.9
			c1.8,0,4.3,0.6,4.5,2.8c0.2,1.9,5,12.3,7.1,16.8c2.1-1.1,6-3.5,6.2-5.6c0-0.4,0.1-1,0.1-1.8c0.5-7.6,1.3-12.4,3.4-13
			c1.5-0.4,2.6,1.4,3,2c0.3,0.5,0.5,0.8,0.7,1c0.1-1.1-0.3-3.7-0.5-5.4c-0.6-4.6-0.9-6.7-0.2-7.5c0.2-0.2,0.5-0.4,0.8-0.4
			c2,0,4.3,3,5.4,4.6c2-2.7,8.7-11.7,12.6-16.4c2.5-3,1.8-8,1.3-11.6c-0.4-2.5-0.6-4.4,0.1-5.3c0.3-0.3,0.6-0.5,1.1-0.5
			c2.2-0.2,4,1,4.9,1.8c1.5-4.2,7.4-20.5,7.4-25.4c0.4-2.9,1.5-3.8,2.3-4.2c0.6-0.2,1.6-0.3,2.9,0.6c1-1.7,2.2-11.2,2.8-19.8l0-0.2
			l0.2-0.2c0,0,2.9-3.6,3.1-17.5l-0.4-23.2c-0.3,0.3-0.6,0.7-0.9,1.1c-3.6,4.2-6.1,2.4-14.3-3.8l-0.5-0.4l-0.1-0.1
			c-3.7-7.7-14-9.2-19.8-9.4c-2.6-0.1-5.2,0.8-7.3,2.5c-4.2,3.4-12.4,8.1-19.6,2.3c-8.1-6.6-11.4-3.9-16.7,0.7
			c-0.7,0.6-1.5,1.2-2.3,1.9c-1.8,1.4-3.3,1.8-4.7,1.2c-1.1-0.5-1.9-1.6-2.4-2.9l-0.6,35.8c0.3,1.1,2.8,9.7,1.1,13.3
			c-1.4,2.9-1.1,11.2-1,13.3l3.1,0.7l-0.3,0.7c-1.3,3.4,0,15.2,0,15.4c0.1,0.5,4.2,14.2,3.7,17.8c-0.1,0.7,0,0.9,0.1,0.9
			c0.2,0.2,0.8,0.1,1.3,0.1c0.9-0.1,2.2-0.2,2.6,1.1c0.5,1.7,0.8,12.4,0.9,14.2l5.1,11.4c0.7-0.4,1.7-0.9,2.6-0.5
			c0.8,0.3,1.1,1.2,1.1,2.6v8.6C429.8,260.9,429.8,260.9,429.9,260.9z"/>
	</g>
	<g>
		<path class="st7" d="M464.2,75.8c0,0,16.2-6.9,33.5,6.4c0.1-6.1,0.1-4.2,0.1-4.2s-17-15.7-33-6.3
			C463.8,75.7,464.2,75.8,464.2,75.8z"/>
		<path class="st4" d="M498.3,83.5l-1-0.8c-16.7-12.9-32.6-6.4-32.8-6.3l-0.2,0.1l-0.5-0.1l-0.2-0.3c-0.2-0.2-0.5-0.7,0.5-4.6
			l0.1-0.3l0.2-0.1c14.6-8.6,30.2,3.4,33.2,5.9c0,0,0.1,0,0.1,0c0.4,0,0.5,0,0.6,0.7l0.1,0l0,0.7c0,0.8,0,1.9,0,3.7L498.3,83.5z
			 M474.8,73.4c6.1,0,14,1.5,22.2,7.5c0-1.3,0-2.1,0-2.5c-1.9-1.7-17.3-14.4-31.7-6.2c-0.3,1.4-0.5,2.2-0.5,2.7
			C466.4,74.3,470,73.4,474.8,73.4z"/>
	</g>
	<g>
		<path class="st25" d="M415.3,129.1l-3.6,41.6l-1.6-9.8l0.4-33.2C410.5,127.6,412.3,130.1,415.3,129.1z"/>
	</g>
	<g>
		<path class="st26" d="M538.9,166.1l-10.2,4.2c0,0,10.6-4.6,28.9,6.4C551.3,173.3,538.9,166.1,538.9,166.1z"/>
	</g>
	<g class="st27">
		<path class="st18" d="M369.9,174.2c0,0,0.1,8-3,12.6c-2.4,3.6-7.7,11.3-10,14.1c-0.7,0.8-1.1,1.9-1.2,3
			c-0.3,7.9-1.9,40.9-7.4,51.2c0,0,1.7-1.4,3.4-5.9c0.9-2.4,2-6.2,2.6-9.9c1.9-7.8,2.7-22.2,2.7-26.5c0.1-4.3,0.2-9.9,0.2-9.9
			s6.3-7,9.7-12.6C369.5,185.7,373.4,178.2,369.9,174.2z"/>
	</g>
	<g>
		<path class="st15" d="M349.5,264.5c0,0-5.5,2.7-10.9,2c-0.8,0.6-8,5.4-12.5,5.5c1.4,0.2,10.6,0.9,18.2-2
			C347,267.3,349.5,264.5,349.5,264.5z"/>
	</g>
	<g>
		<path class="st21" d="M315.8,269.6c-8.3-1.3-14.9-7.1-16.7-12c14.7,7.6,36.3,8.2,36.3,8.2S327.9,271.5,315.8,269.6z"/>
	</g>
	<g class="st27">
		<path class="st18" d="M369.6,177.9c0,0-1.5-6.8-7.8-10.4c0.9-0.8,0.9-0.8,0.9-0.8s3,0.1,7.1,7.6
			C369.8,175,369.6,177.9,369.6,177.9z"/>
	</g>
	<g>
		<path class="st21" d="M297.6,245.2c0.1-0.4,4.3,10.6,12,17c-4.1-0.8-10.5-4.6-10.5-4.6S296,253.7,297.6,245.2z"/>
	</g>
	<g>
		<path class="st21" d="M303.9,256.1c0.1,0.1,7.6,6.2,13,7.4c1.7,1.3-4,1.1-4.2,1s-11-4.3-10.9-4.6
			C302,259.6,303.9,256.1,303.9,256.1z"/>
	</g>
	<g>
		<path class="st14" d="M435.6,123.5c0,0-3.6-2.2,2.5-8.5"/>
		<path class="st4" d="M435.2,124c0,0-1.1-0.7-1.3-2.3c-0.2-2,1-4.4,3.7-7.2l1,0.9c-3,3.1-3.5,5-3.3,6.1c0.1,0.9,0.7,1.3,0.7,1.3
			L435.2,124z"/>
	</g>
	<g>
		<path class="st7" d="M440.7,399.3c0,0-18.9-31.6-24.1-34.6c-5.2-3.1-54.9-13.1-54.9-13.1l-18.8,4.4c-0.1,0-0.1,0.1,0,0.2l32.3,1.6
			l16.7,28.4l-7.6,9.3l7.6,4.9l-4.8,6c-0.1,0.1,0,0.2,0.1,0.3C389.7,407,411.7,410.1,440.7,399.3z"/>
		<path class="st4" d="M398,408c-6.1,0-10-0.6-11-0.7c-0.3,0-0.5-0.2-0.6-0.5c-0.1-0.3-0.1-0.6,0.1-0.8l4.3-5.4l-7.6-4.9l7.8-9.5
			l-16.2-27.7l-32.5-1.6l-0.1-0.6c0-0.4,0.2-0.7,0.6-0.8l18.9-4.5l0.1,0c2,0.4,49.8,10.1,55.1,13.2c5.3,3.1,23.6,33.6,24.4,34.8
			l0.4,0.7l-0.8,0.3C423,406.6,407.7,408,398,408z M388.2,406.1c4.9,0.6,25.2,2.5,51.5-7.1c-6.6-11-19.6-31.4-23.5-33.7
			c-4.9-2.9-51.6-12.4-54.5-13l-14.6,3.4l28.5,1.4l17.1,29.1l-7.5,9.1l7.6,4.9L388.2,406.1z"/>
	</g>
	<g>
		<path class="st7" d="M416.5,364.7h53c0,0-15.8,36.8-20.7,35.7s-8.2-1.1-8.2-1.1L416.5,364.7z"/>
		<path class="st4" d="M449,401.1c-0.1,0-0.2,0-0.3,0c-4.8-1-8-1.1-8.1-1.1l-0.3,0l-0.2-0.3L415.2,364h55.3l-0.4,0.9
			C467.5,371.1,454.4,401.1,449,401.1z M441,398.7c1,0,3.9,0.2,8,1.1c2.7,0.6,12-16.9,19.5-34.4h-50.7L441,398.7z"/>
	</g>
	<g>
		<path class="st7" d="M544.1,376.4c-5.5-3.5-74.6-11.8-74.6-11.8l-20.7,35.7l17.4,38.1c0.2,0.4,0.7,0.6,1.1,0.5
			c6.4-2.1,51.5-15.8,82.4,3.7C551.1,431.9,544.1,376.4,544.1,376.4z"/>
		<path class="st4" d="M550.3,443.9l-0.9-0.6c-30.9-19.4-76.7-5.3-81.8-3.6c-0.8,0.2-1.6-0.1-1.9-0.9l-17.6-38.5l21.1-36.4l0.4,0.1
			c2.8,0.3,69.3,8.3,74.9,11.8l0.3,0.2l0,0.3c0.3,2.3,6.9,55.7,5.7,66.5L550.3,443.9z M508.9,431.8c13.4,0,27.9,2.3,40.3,9.8
			c0.7-12.2-5.2-60.3-5.7-64.8c-5.6-2.7-50.1-8.6-73.6-11.5l-20.3,35l17.3,37.8c0.1,0.1,0.2,0.2,0.3,0.1
			C470.3,437.4,488.3,431.8,508.9,431.8z"/>
	</g>
	<g>
		<path class="st13" d="M332.9,361c-0.4,0.1-0.4,0.7,0,0.8c11.4,3.3,90.6,25.7,121.4,24.4c33.2-1.4,54.6,3,57.7,3s51.3-0.5,56.2-4.5
			c1.7-1.4-0.4-9.7,0-19.9c0.3-8.6,0.8-18.5,1.4-26.7c0.6-9.9,1.2-17.5,1.2-17.5s-77.9,21.4-96.5,21l-1.2,14.6l-93.6-5.2
			c0,0,1.3-15.2-0.7-16.9c-2.1-1.7-21.9-11.3-21.9-11.3c-1.3-0.1-0.5,12.1,0.3,20.4c0.4,4.3-2.1,8.3-6.1,9.9l-6.7,2.7L332.9,361z"/>
		<path class="st4" d="M512,389.8c-0.7,0-2.1-0.2-4.3-0.5c-8.1-1.1-27.1-3.6-53.3-2.5c-31.2,1.3-112.5-21.8-121.6-24.5
			c-0.5-0.1-0.8-0.5-0.8-1c0-0.5,0.3-0.9,0.7-1l11.3-5.3l6.7-2.7c3.7-1.5,6.1-5.3,5.7-9.3c-1.7-19.4-0.7-20.4-0.3-20.8
			c0.2-0.2,0.5-0.3,0.7-0.3l0.2,0.1c0.8,0.4,20,9.7,22.1,11.4c2,1.7,1.4,12.5,1,16.8l92.3,5.2l1.1-14.6l0.6,0
			c18.3,0.4,95.5-20.8,96.3-21l0.9-0.2l-0.1,0.9c0,0.1-0.6,7.7-1.2,17.5c-0.7,10.4-1.1,19.4-1.4,26.7c-0.2,4.5,0.2,8.6,0.4,11.9
			c0.4,4.7,0.6,7.5-0.7,8.6C563.3,389.5,512.5,389.8,512,389.8z M467.4,385.2c19.6,0,33.8,1.9,40.5,2.8c2.1,0.3,3.6,0.5,4.2,0.5
			c7.8,0,51.5-0.8,55.8-4.3c0.7-0.6,0.4-3.9,0.2-7.4c-0.3-3.3-0.6-7.5-0.4-12c0.3-7.3,0.7-16.3,1.4-26.7c0.5-7.8,1-14.2,1.1-16.6
			c-9.1,2.5-76.6,20.7-95.2,20.8l-1.2,14.7l-94.9-5.3l0.1-0.7c0.6-7.2,0.6-15.4-0.5-16.3c-1.6-1.3-15.5-8.2-21.3-11
			c-0.2,1-0.6,4.8,0.7,19.5c0.4,4.6-2.3,8.9-6.5,10.6l-6.7,2.7l-10.7,5c12,3.4,90.2,25.5,120.5,24.2
			C458.9,385.3,463.3,385.2,467.4,385.2z"/>
	</g>
	<g>
		<polyline class="st7" points="482.1,386.3 474.3,393.8 472.1,403.7 464.2,403.7 456.6,417.4 		"/>
		<polygon class="st4" points="457.2,417.7 456,417.1 463.9,403.1 471.6,403.1 473.7,393.5 481.7,385.9 482.6,386.8 474.9,394.2 
			472.6,404.4 464.6,404.4 		"/>
	</g>
	<g>
		<path class="st13" d="M568.2,364.7c0,0-13.2,13.7-25.4,8.3"/>
		<path class="st4" d="M548.9,374.9c-2.1,0-4.3-0.4-6.4-1.4c-0.3-0.1-0.5-0.5-0.3-0.9s0.5-0.5,0.9-0.3c11.6,5.2,24.6-8,24.7-8.1
			c0.3-0.3,0.7-0.3,0.9,0c0.3,0.3,0.3,0.7,0,0.9C568.3,365.6,559.2,374.9,548.9,374.9z"/>
	</g>
	<g>
		<path class="st13" d="M489.8,364.7c27.3,4.8,39.8,2.3,59.3-1.6"/>
		<path class="st4" d="M516.3,368c-7.5,0-15.9-0.8-26.6-2.6c-0.4-0.1-0.6-0.4-0.5-0.8c0.1-0.4,0.4-0.6,0.8-0.5
			c27.1,4.8,39.8,2.3,58.9-1.6l0.1,0c0.4-0.1,0.7,0.2,0.8,0.5c0.1,0.4-0.2,0.7-0.5,0.8l-0.2,0C537.3,366.1,528,368,516.3,368z"/>
	</g>
	<g>
		<g>
			<line class="st13" x1="553.2" y1="359.8" x2="563.5" y2="337.1"/>
			<path class="st4" d="M553.2,360.4c-0.1,0-0.2,0-0.3-0.1c-0.3-0.2-0.5-0.5-0.3-0.9l10.3-22.7c0.2-0.3,0.5-0.5,0.9-0.3
				c0.3,0.2,0.5,0.5,0.3,0.9L553.8,360C553.7,360.3,553.5,360.4,553.2,360.4z"/>
		</g>
		<g>
			<line class="st13" x1="546.7" y1="354.9" x2="557" y2="332.2"/>
			<path class="st4" d="M546.7,355.5c-0.1,0-0.2,0-0.3-0.1c-0.3-0.2-0.5-0.5-0.3-0.9l10.3-22.7c0.2-0.3,0.5-0.5,0.9-0.3
				s0.5,0.5,0.3,0.9l-10.3,22.7C547.2,355.4,546.9,355.5,546.7,355.5z"/>
		</g>
		<g>
			<line class="st13" x1="549.6" y1="336.4" x2="565" y2="347.8"/>
			<path class="st4" d="M565,348.5c-0.1,0-0.3,0-0.4-0.1l-15.3-11.4c-0.3-0.2-0.4-0.6-0.1-0.9c0.2-0.3,0.6-0.4,0.9-0.1l15.3,11.4
				c0.3,0.2,0.4,0.6,0.1,0.9C565.4,348.4,565.2,348.5,565,348.5z"/>
		</g>
		<g>
			<line class="st13" x1="544.4" y1="344.7" x2="559.7" y2="356.2"/>
			<path class="st4" d="M559.7,356.8c-0.1,0-0.3,0-0.4-0.1L544,345.3c-0.3-0.2-0.4-0.6-0.1-0.9c0.2-0.3,0.6-0.4,0.9-0.1l15.3,11.4
				c0.3,0.2,0.4,0.6,0.1,0.9C560.1,356.8,559.9,356.8,559.7,356.8z"/>
		</g>
	</g>
	<g>
		<path class="st13" d="M440.7,385.6c0,0-24-5.2-34.2-13.1"/>
		<path class="st4" d="M440.7,386.3c0,0-0.1,0-0.1,0c-1-0.2-24.2-5.3-34.5-13.2c-0.3-0.2-0.3-0.6-0.1-0.9c0.2-0.3,0.6-0.3,0.9-0.1
			c10,7.7,33.7,12.9,34,12.9c0.4,0.1,0.6,0.4,0.5,0.8C441.2,386.1,441,386.3,440.7,386.3z"/>
	</g>
	<g>
		<path class="st21" d="M316.4,229.3c0,0-0.1,0-0.1,0c-3.1-0.7-7-2.3-11.4-4.8c-0.3-0.2-0.4-0.6-0.3-0.9c0.2-0.3,0.6-0.4,0.9-0.3
			c4.2,2.4,8,4,11,4.6c0.4,0.1,0.6,0.4,0.5,0.8C316.9,229.1,316.7,229.3,316.4,229.3z"/>
	</g>
	<g>
		<path class="st21" d="M310.6,240.5c0,0-0.1,0-0.1,0c-4.3-1-7.7-2.2-10-3.6c-0.3-0.2-0.4-0.6-0.2-0.9c0.2-0.3,0.6-0.4,0.9-0.2
			c2.2,1.3,5.5,2.5,9.6,3.4c0.4,0.1,0.6,0.4,0.5,0.8C311.2,240.3,310.9,240.5,310.6,240.5z"/>
	</g>
	<g>
		<path class="st21" d="M307.8,250.6c0,0-0.1,0-0.1,0c-4.9-1.1-7.6-1.9-9.9-3.5c-0.3-0.2-0.4-0.6-0.2-0.9c0.2-0.3,0.6-0.4,0.9-0.2
			c1.9,1.3,4.1,2.1,9.4,3.3c0.4,0.1,0.6,0.4,0.5,0.8C308.4,250.3,308.1,250.6,307.8,250.6z"/>
	</g>
	<g>
		<path class="st14" d="M351.4,185.8c0,0-5.3,11.6-13.2,10.7c-3.6-0.4-6-3.4-7.4-7.4"/>
		<path class="st4" d="M339.1,197.3c-0.3,0-0.6,0-0.9,0c-3.6-0.4-6.3-3.1-7.9-7.9l1.3-0.4c1,3,3,6.6,6.8,7
			c7.3,0.8,12.4-10.2,12.5-10.4l1.2,0.6C351.8,186.6,346.8,197.3,339.1,197.3z"/>
	</g>
	<g>
		<path class="st13" d="M512,389.1c0,0,22.7-0.5,32.8-6.2"/>
		<path class="st4" d="M512.1,389.8l0-1.3c0.2,0,22.6-0.6,32.5-6.1l0.6,1.2C535,389.2,513,389.8,512.1,389.8z"/>
	</g>
	<g>
		<path class="st13" d="M437.6,368.4c0,0,30.8,6.5,50.1,5.9"/>
		<path class="st4" d="M485,375c-19.2,0-47.3-5.9-47.6-5.9c-0.4-0.1-0.6-0.4-0.5-0.8c0.1-0.4,0.4-0.6,0.8-0.5c0.3,0.1,31,6.5,50,5.8
			c0,0,0,0,0,0c0.4,0,0.7,0.3,0.7,0.6c0,0.4-0.3,0.7-0.6,0.7C486.9,375,486,375,485,375z"/>
	</g>
	<g class="st27">
		<path class="st18" d="M569,235c0,0,16.3-3.4,32.2,10.3c-8.4-9.1-15.9-13.2-30-11.4C570.5,234,569.8,234.8,569,235"/>
	</g>
	<g>
		<path class="st28" d="M355.7,351c-1.6,1.5-3.2,2.2-6.6,3.9c-3.4,1.6-13.8,6.3-13.8,6.3l2,0.7c0,0,1,0.2,10.4-4.8
			c10.1-3.1,11-8.4,11-8.4s0,0,1.1-4.2c-1.3-5.1-0.7-18.5-1.2-19.6l-1.4-0.8l0.7,16.2l0.3,4.7C358.2,345,358,348.9,355.7,351z"/>
	</g>
	<g>
		<path class="st25" d="M491.6,135.6c0,0,3.6,28.3-1.8,33.6c-0.3,10.8,0,16.7,0,16.7s-4.9,7.8-6.9,17s-3.2,14.4-3.2,14.4l-6.6-2.3
			c0,0-3.5,0.9-3.6,4.1c-0.1,3.1,1.7,12.5,0,15.9c-1.7,3.3-8.2,14-8.2,14s-8.7-4.1-9.6-0.5c-0.9,3.6-2.9,9.2-2.9,9.2
			s-5.8,12.2-5.8,13.6c-0.1,1.4-1.8,10.2-1.8,10.2s6.6-2.5,7-5.7c0.4-3.2,0.8-15.6,3.2-14.9c2.4,0.7,3.8,3.3,3.8,3.3
			s0.2-3.3,0.2-3.8c-0.1-0.5-0.9-7.8-0.9-7.8l0.5-2l3.4,2.5l2.2,2.2l14.3-19.7l0.1-8.1l-0.1-6.3l5.8,2.2l5.8-15.9l2.1-11.5l1.6-2.4
			l3.2,0.4l3-20.2l2.3-6.9v-35.5c0,0-3.9,4.8-4.2,4.3S491.6,135.6,491.6,135.6z"/>
	</g>
	<g>
		<path class="st25" d="M424.9,139.2c0,0,18.3-6,23.2-7.8c0.5-0.2,1-0.2,1.5,0c3.7,1.3,19.3,8.4,22.4,8.6c-0.6,1.1-0.6,1.1-0.6,1.1
			l-13.1-1.4l-10.3-4c0,0-12.9,3.9-13.5,4s-8.7,1-8.7,1L424.9,139.2z"/>
	</g>
	<g>
		<path class="st14" d="M448,135.6c0,0-15.4,5.8-20.7,4.5s0,7.5,0,7.5s4,11.8,19.8,4.1c0,0,11.3,8.2,20.7,3
			c9.4-5.2,3.7-13.7,3.7-13.7S457.7,141.5,448,135.6z"/>
		<path d="M460.8,157.2c-6.5,0-12.3-3.7-13.8-4.6c-5.6,2.7-10.4,3.2-14.3,1.6c-4.3-1.8-5.8-5.6-6-6.2c-0.7-1.1-3.4-6-2-7.9
			c0.5-0.7,1.5-0.9,2.8-0.6c5.1,1.2,20.2-4.5,20.3-4.5l0.3-0.1l0.3,0.2c9.4,5.7,22.9,5.4,23.1,5.4l0.4,0l0.2,0.3
			c0.1,0.2,2.6,3.9,1.6,8.1c-0.6,2.6-2.5,4.8-5.5,6.5C465.7,156.7,463.2,157.2,460.8,157.2z M447.1,151l0.3,0.2
			c0.1,0.1,11.1,7.9,20,2.9c2.7-1.5,4.3-3.4,4.8-5.6c0.7-3-0.7-5.9-1.2-6.8c-2.3,0-14.2-0.1-23.1-5.4c-2.3,0.8-15.7,5.7-20.8,4.4
			c-0.3-0.1-1.2-0.2-1.4,0.1c-0.6,0.8,0.6,4,2.1,6.4l0.1,0.1c0,0,1.3,3.8,5.3,5.5c3.6,1.5,8.1,0.9,13.5-1.7L447.1,151z"/>
	</g>
	<g>
		<path class="st4" d="M466.5,146.9c-0.1,0-0.2,0-0.3-0.1c-8.5-4.7-34.6,0-34.8,0.1c-0.4,0.1-0.7-0.2-0.8-0.5
			c-0.1-0.4,0.2-0.7,0.5-0.8c1.1-0.2,26.8-4.9,35.7,0.1c0.3,0.2,0.4,0.6,0.3,0.9C467,146.8,466.7,146.9,466.5,146.9z"/>
	</g>
	<g>
		<path class="st15" d="M474.2,357.4l1.1-14.7l5.6-0.4c-3.1,12.9-0.9,20.8-0.9,20.8l-95.1-6.5l0-4.1L474.2,357.4z"/>
	</g>
	<g>
		<path class="st19" d="M388,377.2l5.4,9l-7.3,9l7.5,4.9l-4.4,5.5l3.4,0.2l5.1-6.8l-5.8-5l6.8-8.1c0,0-2.8-6.1-3-7L388,377.2z"/>
	</g>
	<g>
		<polygon class="st19" points="474,387.2 469.4,389.6 468.1,398.5 461.2,398.5 454.8,409.8 456.8,414.7 463.5,402.7 471.2,402.7 
			473.1,393.3 479.7,387.2 		"/>
	</g>
	<g>
		<path class="st21" d="M489.1,278.8c0,0,8,7.4,14,6c1.7-0.4,3.4-0.3,5,0.2c4.5,1.4,13.5,3.3,24.3-1.8c1.3-0.6,2.8-0.6,4.2-0.1
			c8.6,3.3,40.5,13.7,70.1-6.3l-0.5,1.2c0,0-1,2.1-1.7,3s-2.9,4.1-5.7,5.6s-4.2,2.4-7.3,3.1c-3.3,0.9-6.7,1.8-6.7,1.8
			s-9.4,2.2-12,2.3c-3.4,0.4-7,1.1-12.4,0.7c-5-1-10.8-2.2-14-3.2c-3.3-1-9.9-2.9-12-4.6c-0.3,0.2-8.3,2.9-12.2,3.3
			c-4.3,0.6-3.7,1-7.7,0.6c-0.6,0-2.8-0.1-4.7-0.9c-2-0.8-4.2-1.5-4.2-1.5s-4.2,3.1-7.7,2.7c-0.8,0-1.7-0.2-2.4-0.6
			c-0.6-0.4-5.5-3.5-6-7.5C489.1,280.4,489.1,278.8,489.1,278.8S484.6,277.4,489.1,278.8z"/>
	</g>
	<g>
		<path class="st19" d="M391.7,378.1c6.9,1.8,34.6,6.7,34.6,6.7s13.6,1.9,17.7,2.3c4.1,0.4,13.3,0,22,0c6.8-1.3,35.3,1.8,46.5,3.1
			c8.9,0.4,31.9-1.1,31.9-1.1l0.9,7.9c0,0-22.9,1.4-36.2,0.7c-1,0-2-0.3-3-0.6c-10.9-4.4-42.6-4.5-47.7-4.3
			c-5.2,0.2-33.2-1.3-50.8-5c-17.7-3.7-48.4-17.6-48.4-17.6S386.3,376.7,391.7,378.1z"/>
	</g>
	<g>
		<line class="st7" x1="452.9" y1="393.5" x2="456.6" y2="386.3"/>
		
			<rect x="450.7" y="389.3" transform="matrix(0.4589 -0.8885 0.8885 0.4589 -100.3854 615.0405)" class="st4" width="8.1" height="1.3"/>
	</g>
	<g>
		<line class="st7" x1="430.1" y1="384.4" x2="436.5" y2="393.2"/>
		
			<rect x="432.6" y="383.4" transform="matrix(0.8114 -0.5844 0.5844 0.8114 -145.5414 326.542)" class="st4" width="1.3" height="10.9"/>
	</g>
	<g>
		<line class="st7" x1="474.3" y1="393.8" x2="482.1" y2="386.3"/>
		
			<rect x="472.8" y="389.4" transform="matrix(0.7226 -0.6913 0.6913 0.7226 -136.9886 438.8152)" class="st4" width="10.8" height="1.3"/>
	</g>
	<g>
		<line class="st7" x1="391.9" y1="386.2" x2="385.8" y2="375.4"/>
		
			<rect x="388.1" y="374.6" transform="matrix(0.8699 -0.4933 0.4933 0.8699 -137.241 241.3611)" class="st4" width="1.3" height="12.4"/>
	</g>
	<g>
		<path class="st26" d="M486.1,43.8c0,0,33.5,6,37.8,37.3c2,25.5,2.8,23.3,2.8,23.3V80.5C526.7,80.5,524.9,44.3,486.1,43.8z"/>
	</g>
	<g class="st27">
		<path class="st18" d="M491,243.4c0,0,8.9-6,18-4.8c0,0,15.5,3.8,28.2,6c12.1,0.8,34-10.7,34-10.7s-6.5,0.7-10.5,2.4
			s-9.8,3.9-10.7,4.4c-0.9,0.5-10,3-13.1,2.6c-3-0.4-3.5-0.3-4.6-0.6s-18.2-5.7-25.8-5.5c-6.5,0.1-7.9,0.6-7.9,0.6
			S491.6,239.5,491,243.4z"/>
	</g>
	<g>
		<path class="st13" d="M345.1,356.2c0,0,2.2,2.9,6.1,4.3"/>
		<path class="st4" d="M351.2,361.1c-0.1,0-0.2,0-0.2,0c-4-1.4-6.3-4.4-6.4-4.5c-0.2-0.3-0.2-0.7,0.1-0.9c0.3-0.2,0.7-0.2,0.9,0.1
			c0,0,2.1,2.7,5.8,4.1c0.3,0.1,0.5,0.5,0.4,0.9C351.8,360.9,351.5,361.1,351.2,361.1z"/>
	</g>
	<g>
		<path class="st13" d="M389.4,363c-15.1-0.8-32-13.7-32-13.7s-1.5,4.4,2.3,6.8"/>
		<path class="st4" d="M389.4,363.7C389.4,363.7,389.4,363.7,389.4,363.7c-13.4-0.7-27.9-10.6-31.5-13.2c-0.2,1.3-0.1,3.6,2.2,5.1
			c0.3,0.2,0.4,0.6,0.2,0.9c-0.2,0.3-0.6,0.4-0.9,0.2c-3.3-2.2-3.1-5.9-2.6-7.6l0.3-0.9l0.7,0.6c0.2,0.1,16.9,12.8,31.6,13.5
			c0.4,0,0.6,0.3,0.6,0.7C390,363.4,389.7,363.7,389.4,363.7z"/>
	</g>
	<g>
		<path class="st26" d="M335.3,363.8c0,0-12.1,6.6-13.7,10.5c-1.6,3.9-5.5,13.5-3.5,37.5l-1.9,0.5l-1.2-5.1c0,0-2.4-24.9,3.5-34.3
			c1.6-2.3,10.3-9.8,13.6-10.4C335.3,363.8,335.3,363.8,335.3,363.8z"/>
	</g>
	<g>
		<path class="st16" d="M366.1,253.7c0,0-10.4,16-13.2,37.1c-0.5,4-0.8,7.8-0.8,12c0,2,1,7,1.5,8.9c1,3.6,3.3,7.6,4.1,10.1
			c0,0-2.7-3.9-3.1-3.9C354.1,318,340.1,291.8,366.1,253.7z"/>
	</g>
	<g>
		<path class="st26" d="M312.4,414.2l5.5,11c0,0,0.3,2.8-0.1,3.6c-0.4,0.8-1.9,1-1.9,1l-5.1-0.9l2.1,4.2l-1,0.8l0,0l-5-7.6l8.3,2.4
			c0,0,1.7-0.1,1.4-1.5c-0.4-1.4-1.2-3.4-1.2-3.4s-5.6-10.4-5.5-10.3C309.9,413.5,312.4,414.2,312.4,414.2z"/>
	</g>
	<g>
		<path class="st26" d="M494.1,451.7c-4.4,1.5-14.2,8.1-19.4,14.6c-3.4,4.3-4.7,9.7-4.8,10.7s-0.2,1.9,1.1,5.6
			c1.9,3.9,8.3,6.1,8.3,6.1c-20.5-13.6,15.2-37,15.2-37H494.1z"/>
	</g>
	<g>
		<path class="st26" d="M463.9,439.3l8.7,10c0,0,0.6,4.5-3,3.4c-3.7-1.1-4.6-1.1-4.6-1.1l8.9,12.2l-1,1.5c0,0-12.2-16.3-12-16.3
			s7.9,2.3,7.9,2.3s2.4-0.5,0.8-2.5c-1.6-2-10.4-11.7-10.4-11.7L463.9,439.3z"/>
	</g>
	<g>
		<path class="st26" d="M441.2,66.2l-3.7,37.7c-0.2,2.2,1.4,4.1,3.6,4.2l7.3,0.4l-12.4,0l4.2-42.2L441.2,66.2z"/>
	</g>
	<g>
		<path class="st21" d="M330.2,190.9c0.1-0.1,2.8,8.5,10.9,6.5c5.6-1.8,8.3-6.2,8.3-6.2l2.2-3.4c0,0,3.1,1.4,6.6,0.1
			c-3.7,3.5-6.4,3.8-6.9,3.7s-4.6,8.8-11.6,7.8C332,198.9,330.5,195.6,330.2,190.9z"/>
	</g>
	<g>
		<path class="st21" d="M584.3,280.3c-0.1,0-0.1,0-0.2,0c-0.4-0.1-0.6-0.5-0.5-0.8c3.7-12.6,0.7-21.5-2.6-26.8
			c-3.5-5.7-7.9-8.5-8-8.6c-0.3-0.2-0.4-0.6-0.2-0.9c0.2-0.3,0.6-0.4,0.9-0.2c0.2,0.1,18.5,11.8,11.1,36.8
			C584.8,280.1,584.6,280.3,584.3,280.3z"/>
	</g>
	<g>
		<path class="st21" d="M571.7,281.4c-0.1,0-0.1,0-0.2,0c-0.4-0.1-0.6-0.5-0.5-0.8c3.7-12.6,0.7-21.5-2.6-26.8
			c-3.5-5.7-7.9-8.5-8-8.6c-0.3-0.2-0.4-0.6-0.2-0.9c0.2-0.3,0.6-0.4,0.9-0.2c0.2,0.1,18.5,11.8,11.1,36.8
			C572.3,281.2,572,281.4,571.7,281.4z"/>
	</g>
	<g>
		<path class="st21" d="M596,280.3c-0.1,0-0.1,0-0.2,0c-0.4-0.1-0.6-0.5-0.5-0.8c3.7-12.6,0.6-21.5-2.6-26.8
			c-3.5-5.7-7.9-8.5-7.9-8.5c-0.3-0.2-0.4-0.6-0.2-0.9c0.2-0.3,0.6-0.4,0.9-0.2c0.2,0.1,18.5,11.8,11.1,36.8
			C596.5,280.1,596.2,280.3,596,280.3z"/>
	</g>
	<g>
		<path class="st4" d="M595.2,281.4c-0.1,0-0.1,0-0.2,0c-0.4-0.1-0.6-0.5-0.5-0.8c3.7-12.6,0.7-21.5-2.6-26.8
			c-3.5-5.7-7.9-8.5-8-8.6c-0.3-0.2-0.4-0.6-0.2-0.9c0.2-0.3,0.6-0.4,0.9-0.2c0.2,0.1,18.5,11.8,11.1,36.8
			C595.7,281.2,595.5,281.4,595.2,281.4z"/>
	</g>
	<g>
		<path class="st4" d="M582.6,281.4c-0.1,0-0.1,0-0.2,0c-0.4-0.1-0.6-0.5-0.5-0.8c3.7-12.6,0.7-21.5-2.6-26.8
			c-3.5-5.7-7.9-8.5-8-8.6c-0.3-0.2-0.4-0.6-0.2-0.9c0.2-0.3,0.6-0.4,0.9-0.2c0.2,0.1,18.5,11.8,11.1,36.8
			C583.2,281.2,582.9,281.4,582.6,281.4z"/>
	</g>
	<g>
		<path class="st4" d="M570.1,281.4c-0.1,0-0.1,0-0.2,0c-0.4-0.1-0.6-0.5-0.5-0.8c3.7-12.6,0.7-21.5-2.6-26.8
			c-3.5-5.7-7.9-8.5-8-8.6c-0.3-0.2-0.4-0.6-0.2-0.9c0.2-0.3,0.6-0.4,0.9-0.2c0.2,0.1,18.5,11.8,11.1,36.8
			C570.6,281.2,570.4,281.4,570.1,281.4z"/>
	</g>
	<g>
		<path class="st4" d="M308.7,249.1c0,0-0.1,0-0.1,0c-8.6-1.9-13.3-4.7-14-8.4c-0.9-4.6,4.9-8.7,5.1-8.8c0.3-0.2,0.7-0.1,0.9,0.2
			c0.2,0.3,0.1,0.7-0.2,0.9c-0.1,0-5.3,3.7-4.6,7.5c0.6,3.1,5.1,5.6,13,7.4c0.4,0.1,0.6,0.4,0.5,0.8
			C309.3,248.9,309,249.1,308.7,249.1z"/>
	</g>
	<g>
		<path class="st4" d="M312,239.7c0,0-0.1,0-0.1,0c-8.6-1.9-13.3-4.7-14-8.4c-0.9-4.6,4.9-8.7,5.1-8.8c0.3-0.2,0.7-0.1,0.9,0.2
			c0.2,0.3,0.1,0.7-0.2,0.9c-0.1,0-5.3,3.7-4.6,7.5c0.6,3.1,5.1,5.6,13,7.4c0.4,0.1,0.6,0.4,0.5,0.8
			C312.6,239.5,312.3,239.7,312,239.7z"/>
	</g>
	<g>
		<path class="st4" d="M317,227.8c0,0-0.1,0-0.1,0c-8.6-1.9-13.3-4.7-14-8.4c-0.9-4.6,4.9-8.7,5.1-8.8c0.3-0.2,0.7-0.1,0.9,0.2
			c0.2,0.3,0.1,0.7-0.2,0.9c-0.1,0-5.3,3.7-4.6,7.5c0.6,3.1,5.1,5.6,13,7.4c0.4,0.1,0.6,0.4,0.5,0.8
			C317.6,227.6,317.3,227.8,317,227.8z"/>
	</g>
	<g>
		<polygon class="st26" points="450.9,399.5 458,412.5 456.8,414.7 450.2,400.4 		"/>
	</g>
	<g>
		<polygon class="st26" points="458.9,415.6 469.4,437.2 467,437.9 458,417.4 		"/>
	</g>
	<g>
		<polygon class="st19" points="452.5,110.9 456.5,112.8 438.7,113.8 436.5,110.7 		"/>
	</g>
	<g>
		<path class="st26" d="M398.5,53.6c0,0-6.3,14.5-6.7,20.5c-0.3,6-2.6,95.1-2.6,95.1l-2.4-0.9l2-95
			C388.8,73.2,390.2,61.5,398.5,53.6z"/>
	</g>
	<g>
		<defs>
			<path id="SVGID_1_" d="M301.6,450.3c46.6,10.7,95.6,0.8,95.6,0.8l1.7-42c0,0-11.8,10.5-13.1,10.3c-1.3-0.2-34.4,0.2-38,0
				c-3.6-0.2-35.7-4.7-37-4.9c-1.3-0.2-7.2-8.3-7.2-9.3C303.7,404.1,301.6,450.3,301.6,450.3z"/>
		</defs>
		<clipPath id="SVGID_2_">
			<use xlink:href="#SVGID_1_"  style="overflow:visible;"/>
		</clipPath>
		<g class="st29">
			<path class="st7" d="M390.1,460.9c0,0-18.3,9.2-64.1,5.7c-33.2-2.5-24.6-26.1,0-39.7c34-18.8,54.5,15.3,64.1,22.2L390.1,460.9z"
				/>
			<path class="st4" d="M346.1,468c-6,0-12.7-0.2-20.2-0.8c-16.4-1.3-21.1-7.3-22.2-12.2c-1.9-8.8,7.1-20.6,21.9-28.8
				c28-15.4,46.9,4.2,58.2,16c2.6,2.7,4.8,5,6.6,6.3l0.3,0.2l0,12.5l-0.4,0.2C389.8,461.8,376.9,468,346.1,468z M345.7,422
				c-5.9,0-12.4,1.6-19.4,5.5c-14.3,7.9-23,19.1-21.2,27.3c1.4,6.3,8.8,10.2,21,11.1c41.6,3.2,60.6-4.2,63.4-5.4l0-11
				c-1.8-1.4-4-3.7-6.5-6.3C374.7,434.7,362.5,422,345.7,422z"/>
		</g>
	</g>
	<g>
		<path class="st26" d="M308.5,451.7c1.5-12.3,21.4-25.4,21.4-25.4h-0.4c-4.4,1.5-14.2,8.1-19.4,14.6c-3,3.8-4.3,8.4-4.7,10.2"/>
	</g>
</g>
</svg>
