<?xml version="1.0" encoding="utf-8"?>
<!-- Generator: Adobe Illustrator 24.0.1, SVG Export Plug-In . SVG Version: 6.00 Build 0)  -->
<svg version="1.1" id="Layer_1" xmlns="http://www.w3.org/2000/svg" xmlns:xlink="http://www.w3.org/1999/xlink" x="0px" y="0px"
	 viewBox="0 0 140 181" style="enable-background:new 0 0 140 181;" xml:space="preserve">
<style type="text/css">
	.st0{fill:#E6E6E6;}
	.st1{fill:#DECC5A;}
	.st2{fill:#FFE472;}
	.st3{fill:#A6734C;}
	.st4{fill:#010101;}
	.st5{fill:#7A5235;}
	.st6{fill:#D59064;}
	.st7{fill:#A6A5A6;}
	.st8{fill:#D4D3D3;}
	.st9{fill:#888989;}
	.st10{fill:none;}
	.st11{fill:#332217;}
	.st12{fill:#F9E37C;}
	.st13{fill:#CAC9C9;}
	.st14{fill:#F6B3A2;}
	.st15{fill:#A9A9AA;}
	.st16{fill:#E2E1E1;}
	.st17{fill:#FFFFFF;stroke:#010101;stroke-miterlimit:10;}
	.st18{fill:#FFFFFF;}
	.st19{fill:#7F7D7D;}
	.st20{fill:#A6A5A6;stroke:#010101;stroke-miterlimit:10;}
	.st21{fill:#DA9282;}
	.st22{fill:none;stroke:#010101;stroke-miterlimit:10;}
	.st23{fill:#F1E6E3;}
	.st24{fill:#621A0C;}
	.st25{fill:#4B130B;}
	.st26{fill:#CDCDD3;}
	.st27{opacity:0.42;}
	.st28{fill:#E2DFDF;}
	.st29{clip-path:url(#SVGID_2_);}
</style>
<g id="Layer_2_1_">
	<rect class="st0" width="140" height="181"/>
</g>
<g>
	<g>
		<g>
			<path class="st1" d="M82.2,144.1c0,0,2.5-1,8.1-1.7c5.7-0.7,18.1,3.2,23.8,2.7s10.7-1.9,11.9,2s0.2,12-5.7,14.2
				c-5.8,2.1-11.1-5.6-27-3.1s-19.9-9.2-19.9-9.2s0.3-0.2,0.9-0.4c0.6-0.2,1-0.4,1-0.4s1.4,1,3.3,0c1.5-1,1.7-1.5,1.7-1.5l0.8-1.1
				C81.1,145.5,82,144.8,82.2,144.1z"/>
		</g>
		<g>
			<g>
				<path class="st2" d="M97.3,151.3c0-0.8,3.4-1.4,7.8-1.5c-0.6,0-1.1,0-1.7,0c-4.9,0-8.9,0.7-8.9,1.5c0,0.8,4,1.5,8.9,1.5
					c0.3,0,0.7,0,1,0C100.4,152.6,97.3,152,97.3,151.3z"/>
			</g>
			<g>
				<path class="st2" d="M106.2,149.8c-0.3,0-0.7,0-1,0c4.1,0.1,7.2,0.7,7.2,1.5c0,0.8-3.4,1.4-7.8,1.5c0.6,0,1.1,0,1.7,0
					c4.9,0,7.6-0.7,7.6-1.5C113.8,150.4,111.1,149.8,106.2,149.8z"/>
			</g>
			<g>
				<path class="st2" d="M104.2,148.7c-0.5,0-1,0-1.4,0c5.7,0.2,12.6,1.3,12.6,2.6c0,1.4-7.4,2.5-13.6,2.6c0.8,0,1.6,0.1,2.4,0.1
					c6.8,0,12.3-1.2,12.3-2.7C116.5,149.9,111,148.7,104.2,148.7z"/>
			</g>
			<g>
				<path class="st2" d="M103.1,148.6c0.5,0,1,0,1.4,0c-5.7,0.2-12.6,1.3-12.6,2.6c0,1.4,7.4,2.5,13.6,2.6c-0.8,0-1.6,0.1-2.4,0.1
					c-6.8,0-12.3-1.2-12.3-2.7C90.8,149.8,96.3,148.6,103.1,148.6z"/>
			</g>
		</g>
		<g>
			<path class="st2" d="M109.8,145.1c0,0,3.7,0.8,6.8,0.3c3.1-0.5,7.8-0.6,8.1,0.8c0.3,1.4,1.6,4.7,1.6,4.8c0-0.9,0.3-4.6-1.4-5.7
				c-1.7-1-3.8-1.2-7.4-0.8C114.1,145.1,109.8,145.1,109.8,145.1z"/>
		</g>
		<g>
			<path class="st3" d="M102.8,117.6l-1,1.1l-1.5,2.5l-0.9,3.2l-0.4,2.3l-0.4,2.1l-0.1,2.5v4.8L99,140l1.8,5.9l1.9,2.7l-1.2,0.6
				L90.2,152l-12.7,0.8l-12.3-1l-10.3-2.9l-1-0.4c0,0-0.1-0.9-0.1-1c0-0.1-1.3-2.2-1.3-2.3c0-0.1-0.5-2.1-0.5-2.1l-0.7-3.5l-0.5-5.8
				l0.5-7.4l0.7-4.2l2.6-4.8l9-2.4l9.7-1.4l10.5,0l9.5,1.3l8.8,2.2L102.8,117.6z"/>
		</g>
		<g>
			<path class="st4" d="M79.1,152.9c-10.2,0-19.9-2-27.3-5.5l0.1-0.3c7.3,3.5,17,5.5,27.2,5.5c9.9,0,19.4-1.9,26.7-5.3l0.1,0.3
				C98.6,151.1,89.1,152.9,79.1,152.9z"/>
		</g>
		<g>
			<path class="st4" d="M52.1,119.1l-0.1-0.3c7.3-3.5,17-5.4,27.1-5.4c10.1,0,19.7,1.9,27.1,5.4l-0.1,0.3
				c-7.3-3.5-16.9-5.4-26.9-5.4C69,113.7,59.4,115.6,52.1,119.1z"/>
		</g>
		<g>
			<path class="st4" d="M78.5,152.9c-10,0-19.5-1.9-26.8-5.3l0.1-0.3c7.3,3.4,16.7,5.3,26.7,5.3c10.2,0,19.9-1.9,27.2-5.5l0.1,0.3
				C98.5,151,88.8,152.9,78.5,152.9z"/>
		</g>
		<g>
			<path class="st4" d="M105.5,119.1c-7.3-3.5-16.9-5.4-27-5.4c-10.1,0-19.6,1.9-26.9,5.4l-0.1-0.3c7.3-3.5,17-5.4,27.1-5.4
				c10.1,0,19.8,1.9,27.1,5.4L105.5,119.1z"/>
		</g>
		<g>
			<path class="st4" d="M102.8,129.5c-7.3-1.3-16.9-2-27-2c-10.1,0-19.7,0.7-27,2l-0.1-0.3c7.3-1.3,16.9-2,27-2
				c10.1,0,19.8,0.7,27.1,2L102.8,129.5z"/>
		</g>
		<g>
			<path class="st4" d="M75.8,140.3c-10.1,0-19.7-0.1-27-0.3l0-0.3c7.3,0.2,16.9,0.3,27,0.3c10.1,0,19.7-0.1,27.1-0.3l0,0.3
				C95.5,140.2,85.9,140.3,75.8,140.3z"/>
		</g>
		<g>
			<path class="st4" d="M102.2,121.7c-7.3-3.4-17-5.2-27.1-5.1c-8.1,0.1-15.9,1.4-22.5,3.9l-0.1-0.3c6.6-2.4,14.4-3.8,22.6-3.9
				c10.2-0.1,19.8,1.7,27.2,5.1L102.2,121.7z"/>
		</g>
		<g>
			<path class="st5" d="M102.6,148.7c0,0-1.9-2.7-2.7-5c-23,5.6-48-0.6-48-0.6l1.8,4.3l0.3,0.5c0,0,2.8,1.3,7.7,2.6
				c4.9,1,4.9,1,4.9,1s4.3,0.8,10.8,1c6.6,0.2,12.6-0.8,14.9-1.3C94.6,150.7,100.3,149.5,102.6,148.7z"/>
		</g>
		<g>
			<path class="st4" d="M78,149.3c-0.7,0-1.5,0-2.2,0c-8-0.1-15.6-0.9-22.2-2.2l0.1-0.3c6.5,1.3,14.2,2.1,22.1,2.2
				c10.1,0.2,19.7-0.7,27.1-2.5l0.1,0.3C96.1,148.4,87.3,149.3,78,149.3z"/>
		</g>
		<g>
			<path class="st6" d="M54,118.8c0,0,5-1.9,7.4-2.4c2.4-0.5,6.3-1.3,6.3-1.3h22.4c0,0,7.2,1.3,11.9,3.2c0.4-0.4,0.1-0.6,0.1-0.6
				s-5.1-1.8-6.2-1.9c-1.2-0.3-3.9-0.8-3.9-0.8s-1.5-0.3-1.6-0.3c-0.1,0-23,0-23,0s-1.3,0.2-1.4,0.2s-4.4,0.9-4.4,0.9
				s-5.3,1.3-7.3,2.4"/>
		</g>
		<g>
			<ellipse class="st7" cx="104" cy="133.2" rx="5.5" ry="15.9"/>
			<path class="st4" d="M104,149.2c-3.1,0-5.6-7.1-5.6-16.1s2.5-16.1,5.6-16.1c3.1,0,5.6,7.1,5.6,16.1S107.1,149.2,104,149.2z
				 M104,117.4c-2.9,0-5.3,7.1-5.3,15.8c0,8.7,2.4,15.8,5.3,15.8c2.9,0,5.3-7.1,5.3-15.8C109.3,124.5,106.9,117.4,104,117.4z"/>
		</g>
		<g>
			<path class="st7" d="M96.5,150.7c-3,0-5.5-7.9-5.5-17.6c0-9.7,2.4-17.6,5.4-17.6l-3.1-0.6c-3,0-5.4,8.2-5.4,18.2
				c0,10,2.5,18.2,5.5,18.1L96.5,150.7z"/>
			<path class="st4" d="M93.5,151.4c-3.2,0-5.7-8-5.7-18.3c0-10.3,2.4-18.3,5.5-18.3l3.1,0.6l0,0.3c-2.9,0-5.3,7.9-5.2,17.5
				c0,9.6,2.5,17.4,5.4,17.4c0,0,0,0,0,0l0,0.3L93.5,151.4C93.5,151.4,93.5,151.4,93.5,151.4z M93.2,115.1c-2.9,0-5.2,8.1-5.2,18
				c0,9.9,2.5,18,5.4,18c0,0,0,0,0,0l2.3-0.4c-2.8-1.2-4.9-8.5-4.9-17.6c0-9.1,2-16.4,4.7-17.6L93.2,115.1z"/>
		</g>
		<g>
			<path class="st7" d="M78.9,152.8c-3,0-5.5-8.8-5.6-19.6s2.4-19.6,5.4-19.6l3.1,0c-3,0-5.4,8.8-5.4,19.6s2.5,19.6,5.6,19.6
				L78.9,152.8z"/>
			<path class="st4" d="M78.9,152.9c-1.5,0-3-2.1-4-5.8c-1.1-3.7-1.6-8.6-1.7-13.9c-0.1-11.1,2.4-19.8,5.5-19.8l3.1,0l0,0.3
				c-2.9,0-5.3,8.8-5.2,19.5c0,5.2,0.6,10.1,1.7,13.8c1,3.6,2.4,5.6,3.7,5.6c0,0,0,0,0,0l0,0.3L78.9,152.9
				C78.9,152.9,78.9,152.9,78.9,152.9z M80.8,113.7l-2.1,0c-2.9,0-5.3,8.8-5.2,19.5c0,5.2,0.6,10.1,1.7,13.8c1,3.6,2.4,5.6,3.7,5.6
				c0,0,0,0,0,0l2.1,0c-1.1-0.7-2.2-2.6-3-5.5c-1.1-3.7-1.6-8.6-1.7-13.9C76.3,123.3,78.2,115.3,80.8,113.7z"/>
		</g>
		<g>
			<path class="st7" d="M66.8,114.5c-3,0-5.4,8.4-5.4,18.8c0,10.3,2.5,18.7,5.5,18.7l-3.1-0.6c-3,0-5.5-8.1-5.5-18.1
				c0-10,2.4-18.2,5.4-18.2L66.8,114.5z"/>
			<path class="st4" d="M67,152.1c-0.2,0-0.4,0-0.6-0.1l-2.5-0.4c0,0,0,0,0,0c-1.5,0-2.9-1.9-4-5.4c-1.1-3.4-1.6-8-1.7-12.9
				c0-4.9,0.5-9.4,1.5-12.9c1-3.5,2.5-5.4,4-5.4l2.5-0.5c0.2-0.1,0.4-0.1,0.6-0.1l0,0.3l-0.6,0.1c-2.7,1-4.7,8.9-4.6,18.5
				c0,5,0.6,9.7,1.7,13.2c0.9,3,2,4.8,3.2,5.3l0.6,0.1L67,152.1C67,152.1,67,152.1,67,152.1z M63.9,151.3l1.7,0.3
				c-1-0.8-1.9-2.5-2.6-5c-1.1-3.5-1.6-8.3-1.7-13.3c0-9,1.7-16.3,4.1-18.3l-1.7,0.3c-1.4,0-2.7,1.9-3.7,5.2c-1,3.4-1.6,8-1.5,12.8
				c0,4.8,0.6,9.4,1.7,12.8C61.2,149.4,62.5,151.3,63.9,151.3C63.9,151.3,63.9,151.3,63.9,151.3z"/>
		</g>
		<g>
			<path class="st8" d="M62.2,116.2c0,0,1.4-0.3,2.3-0.5c0.4-0.5,0.4-0.5,0.4-0.5l-1.3,0.2C63.7,115.4,62.9,115.3,62.2,116.2z"/>
		</g>
		<g>
			<path class="st8" d="M92.2,115.6l2.3,0.5c0,0,0.3-0.4,0.6-0.5c-0.3-0.1-2-0.4-2-0.4S92.6,115.3,92.2,115.6z"/>
		</g>
		<g>
			<path class="st8" d="M102.3,118.5c0,0,1.6-0.1,2.6,0.7c0.3-0.3,0.7-0.5,1-0.5C105.6,118.4,104.2,116.4,102.3,118.5z"/>
		</g>
		<g>
			<ellipse class="st9" cx="105.9" cy="133.2" rx="3.5" ry="14.2"/>
			<path class="st4" d="M105.9,147.6c-2.1,0-3.7-6.3-3.7-14.4c0-8.1,1.6-14.4,3.7-14.4s3.7,6.3,3.7,14.4
				C109.6,141.2,108,147.6,105.9,147.6z M105.9,119.1c-1.8,0-3.4,6.4-3.4,14.1s1.5,14.1,3.4,14.1s3.4-6.4,3.4-14.1
				S107.8,119.1,105.9,119.1z"/>
		</g>
		<g>
			<path class="st4" d="M104.8,146.4l-0.3-0.2c1.3-2.2,2.2-7.3,2.2-13.1c0-5.8-0.8-10.9-2.1-13.1l0.3-0.2c1.3,2.2,2.2,7.4,2.2,13.2
				C107,139,106.2,144.2,104.8,146.4z"/>
		</g>
		<g>
			<path class="st4" d="M51.7,147.6c-2.1,0-3.7-6.3-3.7-14.4c0-8.1,1.6-14.4,3.7-14.4v0.3c-1.8,0-3.4,6.4-3.4,14.1
				s1.5,14.1,3.4,14.1V147.6z"/>
		</g>
		<g>
			<path class="st7" d="M53.8,148.4c-4.5-0.4-5.6-6.4-5.6-15.2c0-8.8,1.5-15.9,5.5-15.9c0,0,0.6,0.1,0.9,0.4
				c-0.6,0.4-1.5,2.1-1.6,2.4c-1.2,2.2-2.2,7.2-2.2,13.2c0,5.9,0.9,11,2.2,13.2C52.9,146.3,54.3,147.8,53.8,148.4z"/>
			<path class="st4" d="M53.8,148.5L53.8,148.5c-5.1-0.4-5.8-7.6-5.8-15.4c0-6,0.7-16.1,5.6-16.1c0,0,0.7,0.1,1,0.4l0.1,0.1
				l-0.2,0.1c-0.3,0.2-0.8,1-1.5,2.2l-0.1,0.1c-1.3,2.3-2.2,7.6-2.2,13.1c0,5.8,0.8,10.9,2.2,13.1C53.2,146.4,54.5,147.9,53.8,148.5
				L53.8,148.5z M53.6,117.4c-2,0-5.3,2-5.3,15.8c0,7.5,0.6,14.6,5.3,15c0.2-0.4-0.5-1.3-0.9-1.8c-1.4-2.3-2.2-7.4-2.2-13.3
				c0-5.6,0.9-10.9,2.2-13.2l0.1-0.1c0.2-0.4,0.9-1.7,1.5-2.2C54.1,117.5,53.8,117.4,53.6,117.4z"/>
		</g>
		<g>
			<path class="st3" d="M104.7,120.5c0,0,1.1,2.3,1.4,5.6c0.3,0.7,0.4,4.5,0.4,4.5s0.1,4.1,0,5.3c0,1.9-0.4,5.4-0.9,6.8
				c-0.3,1.9-1,3.1-1,3.1s-1.2-2.1-1.7-7.7c-0.2-3.2-0.2-5.9-0.2-5.9s-0.1-3.7,0.7-7.2C103.8,123.3,103.8,122.3,104.7,120.5z"/>
		</g>
		<g>
			<path class="st10" d="M103,138.1c-0.4-4-0.2-5.9-0.2-5.9s-0.1-3.7,0.7-7.2"/>
		</g>
		<g>
			<path class="st8" d="M53.3,118.7c0,0-1-0.3-1.9-0.1c0.3-0.5,1.6-1.4,2.7-1C53.3,118.7,53.3,118.7,53.3,118.7z"/>
		</g>
		<g>
			<path class="st9" d="M49.2,142.7c0,0,1.5,0.3,2.2,0.3c0.1,0.4,0.7,2.9,1.3,3.5c0.5,0.6,1,1.4,0.9,1.5c-0.3-0.1-1.3-0.2-2.3-1.1
				c-1-1.2-1.4-2.3-1.4-2.3C49.8,144.6,49.2,142.7,49.2,142.7z"/>
		</g>
		<g>
			<path class="st9" d="M59.9,144.5c0,0,1.4,0.3,2.5,0.4c0.2,0.6,0.2,0.6,0.2,0.6s1.4,5.1,2.7,5.9c-0.4-0.1-1.2-0.2-1.2-0.2
				s-0.8,0.1-1.6-0.9C61.3,149,60.5,147.2,59.9,144.5z"/>
		</g>
		<g>
			<path class="st9" d="M75.1,146c0,0,1.7,0.1,2.4,0.1c0.2,0.5,1.4,5.4,3,6.4c-0.8,0-1.9,0-1.9,0S76.7,152.3,75.1,146z"/>
		</g>
		<g>
			<path class="st9" d="M89.7,145.4c0,0,1.6-0.2,2.5-0.3c0.3,1,1.4,4.6,3.1,5.5c-0.8,0.1-1.9,0.3-1.9,0.3S91.5,151.4,89.7,145.4z"/>
		</g>
		<g>
			<path class="st9" d="M100.2,143.7c0,0,1.5-0.2,2.9-0.6c0.3,0.9,1,4.5,2.9,4.7c-0.5,0.5-1.8,1.9-3.5,0.3
				C100.8,146.3,100.2,143.7,100.2,143.7z"/>
		</g>
		<g>
			<path class="st5" d="M102.9,128.2c0,0,0.8-3.5,1.7-3.4c0.5,0,1.1,1,1.8,3.9c0,0-0.2-4.1-0.9-5.8c-0.5-1.5-0.8-2.4-0.8-2.4
				S103.5,122.6,102.9,128.2z"/>
		</g>
		<g>
			<ellipse class="st11" cx="105.1" cy="127.6" rx="0.8" ry="1.7"/>
		</g>
		<g>
			<g>
				<path class="st5" d="M105.1,125.9c-0.1,0-0.1,0-0.2,0.1c0.3,0.2,0.6,0.9,0.6,1.6c0,0.8-0.2,1.4-0.6,1.6c0.1,0,0.1,0.1,0.2,0.1
					c0.4,0,0.8-0.8,0.8-1.7C105.8,126.6,105.5,125.9,105.1,125.9z"/>
			</g>
		</g>
		<g>
			<path class="st1" d="M106.1,147.1c-0.6,0.1-1-0.5-1.2-0.8c0-0.1-0.1-0.1-0.1-0.2V132v-2.8c0,0,0.2-0.1,0.2-0.3
				c0.4,0.1,0.4,0.1,0.4,0.1v16.3c0,0.2,0.1,0.4,0.2,0.5c0.2,0.2,0.7,0.4,1.4,0.3C107.1,146.1,106.6,147,106.1,147.1
				c-0.6,0.2-1.3-0.9-1.3-0.9"/>
		</g>
		<g>
			<path class="st1" d="M107.4,147c0,0,0.4,1-0.2,1.2C106.9,148,107.1,147.6,107.4,147z"/>
		</g>
		<g>
			<path class="st2" d="M107,146.9c0,0,0.4,0.9-0.1,1.1C106.4,147.8,106.7,147.4,107,146.9z"/>
		</g>
		<g>
			<path class="st2" d="M105.8,150.2c0,0,0.4,0.9-0.1,1.1C105.2,151.1,105.5,150.8,105.8,150.2z"/>
		</g>
		<g>
			<path class="st12" d="M104.8,135.4c0,0,0.1-0.9,0.2-0.7c0,0.2,0,0.7,0.1,0.6c0-0.1,0-0.6,0.1-0.5c0,0.1,0,0.6,0,0.6
				s0.1-1.1,0.2-0.9c0,0.2,0.1,0.7,0.1,0.9s0,0.6,0,0.6s-0.1,1.2-0.2-0.1c0,0.2-0.1,1.2-0.2,0.2c0-0.3-0.1,0.4-0.2,0.4
				c-0.1,0-0.1-0.5-0.1-0.5V135.4z"/>
		</g>
		<g>
			<path class="st12" d="M104.8,143c0,0,0.1-1,0.2-0.8c0,0.2,0,0.8,0.1,0.7c0-0.1,0-0.7,0.1-0.6c0,0.1,0,0.7,0,0.7s0.1-1.2,0.2-1
				s0.1,0.8,0.1,1.1c0,0.3,0,0.7,0,0.7s-0.1,1.3-0.2-0.1c0,0.2-0.1,1.4-0.2,0.3c0-0.3-0.1,0.5-0.2,0.4c-0.1,0-0.1-0.6-0.1-0.6V143z"
				/>
		</g>
		<g>
			<path class="st12" d="M105.3,129l0.2,0.1v0.5c0,0,0,0.1-0.1,0s0,0.2-0.1,0.1s-0.1-0.2-0.1-0.1s-0.1,0.2-0.1,0.1
				c0-0.1-0.1,0-0.1,0.1c0,0-0.1-0.1-0.1-0.1s0-0.4,0-0.4s0.1,0,0.1,0c0,0,0,0,0.1,0c0,0,0.1,0,0.1,0c0-0.1,0-0.1,0.1,0
				C105.2,129.1,105.2,129.1,105.3,129C105.2,129,105.2,129,105.3,129z"/>
		</g>
		<g>
			<path class="st4" d="M105.9,143c-0.1,0-0.2-0.1-0.2-0.2v-19.4c0-0.1,0.1-0.2,0.2-0.2s0.2,0.1,0.2,0.2v19.4
				C106.1,142.9,106,143,105.9,143z"/>
		</g>
		<g>
			<rect x="104" y="120.9" class="st4" width="0.3" height="24.6"/>
		</g>
	</g>
	<g>
		<g>
			<path class="st3" d="M55.7,105.6l-1.3,1.2l-3,1.7l-3.8,1.1l-2.7,0.5l-2.5,0.4l-2.9,0.1h-5.7l-4.9-0.5l-7-2.1l-3.3-2.2l-0.8,1.4
				l-3.2,13.4l-1,15.2l1.2,14.7l3.5,12.3L19,164c0,0,1.1,0.1,1.2,0.2c0.1,0,2.6,1.5,2.7,1.5s2.5,0.6,2.5,0.6l4.2,0.8l6.9,0.6
				l8.8-0.7l5-0.8l5.7-3.2l2.9-10.7l1.7-11.6l0-12.5L58.8,117l-2.7-10.5L55.7,105.6z"/>
		</g>
		<g>
			<path class="st4" d="M20.2,166.4c-4.2-8.8-6.6-20.4-6.6-32.6c0-11.9,2.2-23.3,6.3-32l0.3,0.1c-4,8.7-6.3,20-6.3,31.8
				c0,12.2,2.3,23.7,6.6,32.4L20.2,166.4z"/>
		</g>
		<g>
			<path class="st4" d="M54.2,166.2l-0.3-0.1c4.2-8.7,6.4-20.2,6.4-32.2c0-12-2.3-23.4-6.4-32.1l0.3-0.1c4.2,8.7,6.4,20.2,6.4,32.3
				C60.7,145.9,58.4,157.4,54.2,166.2z"/>
		</g>
		<g>
			<path class="st4" d="M19.9,166.5c-4.1-8.7-6.3-20.1-6.3-32c0-12.2,2.3-23.8,6.6-32.6l0.3,0.1c-4.2,8.7-6.6,20.3-6.6,32.4
				c0,11.9,2.2,23.2,6.3,31.8L19.9,166.5z"/>
		</g>
		<g>
			<path class="st4" d="M54.3,166.8l-0.3-0.1c4.1-8.7,6.4-20.1,6.4-32.1c0-12.1-2.3-23.5-6.4-32.2l0.3-0.1
				c4.2,8.8,6.5,20.2,6.5,32.3C60.7,146.6,58.5,158,54.3,166.8z"/>
		</g>
		<g>
			<path class="st4" d="M41.8,170.1l-0.3-0.1c1.6-8.7,2.4-20.1,2.4-32.2c0-12.1-0.9-23.5-2.4-32.2l0.3-0.1
				c1.6,8.7,2.4,20.2,2.4,32.3C44.2,149.9,43.4,161.3,41.8,170.1z"/>
		</g>
		<g>
			<path class="st4" d="M29,170c-0.2-8.7-0.3-20.2-0.3-32.2c0-12.1,0.1-23.5,0.4-32.3l0.3,0c-0.2,8.7-0.4,20.2-0.4,32.3
				c0,12,0.1,23.5,0.3,32.2L29,170z"/>
		</g>
		<g>
			<path class="st4" d="M52.6,165.6l-0.3-0.1c2.9-7.9,4.5-17.1,4.6-26.9c0.2-12.1-2-23.5-6-32.3l0.3-0.1c4.1,8.8,6.2,20.3,6.1,32.4
				C57.1,148.3,55.5,157.7,52.6,165.6z"/>
		</g>
		<g>
			<path class="st5" d="M18.7,105.8c0,0,3.3,2.2,5.9,3.2c-6.7,27.4,0.8,57.3,0.8,57.3l-5.2-2.2l-0.6-0.4c0,0-1.6-3.3-3.1-9.2
				c-1.2-5.9-1.2-5.9-1.2-5.9s-1-5.1-1.2-12.9c-0.2-7.8,0.9-15,1.5-17.7C16.2,115.4,17.7,108.6,18.7,105.8z"/>
		</g>
		<g>
			<path class="st4" d="M20.6,164.3c-1.6-7.8-2.5-16.9-2.6-26.4c-0.2-12.1,0.9-23.6,3-32.4l0.3,0.1c-2.1,8.8-3.2,20.2-3,32.3
				c0.1,9.5,1,18.6,2.6,26.4L20.6,164.3z"/>
		</g>
		<g>
			<path class="st6" d="M54.3,163.8c0,0,2.3-5.9,2.8-8.8c0.6-2.9,1.5-7.5,1.5-7.5l0.6-5.8c0.5-4.6,0.5-9.2,0.1-13.8l-0.7-7.2
				c0,0-1.5-8.6-3.9-14.2c0.5-0.5,0.7-0.2,0.7-0.2s2.2,6,2.3,7.5c0.3,1.4,1,4.6,1,4.6s0.3,1.8,0.3,1.9c0,0.1,1.1,7.2,1.1,14.2
				c0,6.7-1.1,13.2-1.1,13.2s-0.3,1.6-0.3,1.7c0,0.1-1.1,5.3-1.1,5.3s-1.6,6.3-2.8,8.7"/>
		</g>
		<g>
			<ellipse class="st7" cx="37.1" cy="104.2" rx="19" ry="6.5"/>
			<path class="st4" d="M37.1,110.8c-10.5,0-19.1-3-19.1-6.7s8.6-6.7,19.1-6.7s19.1,3,19.1,6.7S47.7,110.8,37.1,110.8z M37.1,97.8
				c-10.4,0-18.8,2.9-18.8,6.4s8.4,6.4,18.8,6.4s18.8-2.9,18.8-6.4S47.5,97.8,37.1,97.8z"/>
		</g>
		<g>
			<path class="st7" d="M16.2,113.1c0,3.6,9.4,6.6,21,6.6c11.6,0.1,21-2.8,21-6.4l0.7,3.7c0,3.6-9.7,6.5-21.7,6.4s-21.7-3-21.6-6.6
				L16.2,113.1z"/>
			<path class="st4" d="M37.5,123.5c-0.1,0-0.2,0-0.3,0c-5.8,0-11.3-0.7-15.4-2c-4.2-1.3-6.4-3-6.4-4.8l0.7-3.7l0.3,0
				c0,1.6,2.2,3.3,6,4.5c3.9,1.2,9.2,1.9,14.8,2c5.6,0,10.9-0.6,14.8-1.8c3.8-1.2,6.1-2.8,6.1-4.4l0.3,0l0.7,3.7
				c0,1.8-2.3,3.5-6.5,4.8C48.5,122.9,43.2,123.5,37.5,123.5z M16.2,113.9l-0.5,2.9c0,1.6,2.3,3.3,6.2,4.5c4.1,1.2,9.5,1.9,15.3,2
				c5.8,0,11.2-0.6,15.3-1.8c4-1.2,6.3-2.8,6.3-4.4l-0.5-2.9c-0.6,1.5-2.7,2.9-6.1,3.9c-4,1.2-9.3,1.9-14.9,1.8
				c-5.6,0-10.9-0.7-14.9-2C18.9,116.8,16.8,115.4,16.2,113.9z"/>
		</g>
		<g>
			<path class="st7" d="M13.8,134c0,3.6,10.4,6.6,23.4,6.6c12.9,0.1,23.4-2.8,23.4-6.4l0-3.7c0,3.6-10.5,6.5-23.4,6.4
				s-23.4-3-23.4-6.6L13.8,134z"/>
			<path class="st4" d="M37.5,140.8c-0.1,0-0.3,0-0.4,0c-6.3,0-12.1-0.7-16.6-2c-4.5-1.3-6.9-3-6.9-4.8l0.2,0l-0.2,0l0-3.7l0.3,0
				c0,1.6,2.4,3.3,6.7,4.5c4.4,1.2,10.3,2,16.5,2c6.2,0,12.1-0.6,16.5-1.8c4.3-1.2,6.8-2.8,6.8-4.4l0.3,0l0,3.7c0,1.8-2.5,3.5-7,4.7
				C49.4,140.2,43.6,140.8,37.5,140.8z M13.9,131.4l0,2.6c0,1.6,2.4,3.3,6.7,4.5c4.4,1.2,10.3,2,16.5,2c6.2,0,12.1-0.6,16.5-1.8
				c4.3-1.2,6.8-2.8,6.8-4.4l0-2.6c-0.8,1.4-3.1,2.6-6.7,3.6c-4.4,1.2-10.3,1.9-16.6,1.8c-6.3,0-12.1-0.7-16.6-2
				C17,134.1,14.7,132.8,13.9,131.4z"/>
		</g>
		<g>
			<path class="st7" d="M59.4,148.5c0,3.6-10,6.5-22.4,6.4c-12.3-0.1-22.3-3-22.3-6.6l0.7,3.7c0,3.6,9.7,6.6,21.6,6.6
				s21.7-2.8,21.7-6.4L59.4,148.5z"/>
			<path class="st4" d="M37.4,158.8c-0.1,0-0.2,0-0.3,0c-12.2-0.1-21.8-3-21.8-6.8l-0.5-3c-0.1-0.2-0.1-0.5-0.1-0.7l0.3,0l0.1,0.7
				c0.5,1.4,2.8,2.8,6.3,3.8c4.2,1.2,9.8,1.9,15.8,2c0.1,0,0.2,0,0.4,0c11.3,0,20.5-2.4,21.7-5.6l0.1-0.7l0.3,0c0,0.3,0,0.5-0.1,0.8
				l-0.6,3c0,1.8-2.3,3.5-6.5,4.7C48.4,158.1,43,158.8,37.4,158.8z M15.2,149.9l0.4,2.1c0,3.5,9.6,6.4,21.5,6.5
				c5.8,0,11.2-0.6,15.3-1.8c4-1.2,6.3-2.8,6.3-4.4l0.4-2.1c-2.3,2.9-10.9,5-21.6,5c-0.1,0-0.3,0-0.4,0c-6,0-11.6-0.7-15.8-2
				C18.2,152.2,16.1,151.1,15.2,149.9z"/>
		</g>
		<g>
			<path class="st8" d="M57.4,154c0,0,0.4-1.6,0.6-2.8c0.6-0.5,0.6-0.5,0.6-0.5l-0.3,1.5C58.4,152.2,58.4,153.2,57.4,154z"/>
		</g>
		<g>
			<path class="st8" d="M58.1,118.2l-0.6-2.8c0,0,0.4-0.4,0.6-0.7c0.1,0.3,0.5,2.3,0.5,2.3S58.5,117.8,58.1,118.2z"/>
		</g>
		<g>
			<path class="st8" d="M54.6,106.2c0,0,0.1-1.9-0.8-3.1c0.3-0.3,0.6-0.8,0.6-1.2C54.8,102.3,57.1,104,54.6,106.2z"/>
		</g>
		<g>
			<path class="st9" d="M37.1,97.6c-9.4,0-17,1.9-17,4.2c0,1.3,2.3,2.4,5.9,3.2c3,0.6,6.8,1,11,1c9.4,0,17-1.9,17-4.2
				S46.5,97.6,37.1,97.6z"/>
			<path class="st4" d="M37.1,106.2c-4.1,0-8-0.4-11.1-1c-3.9-0.8-6-2-6-3.3c0-2.4,7.5-4.3,17.1-4.3s17.1,1.9,17.1,4.3
				C54.3,104.3,46.7,106.2,37.1,106.2z M37.1,97.8c-9.1,0-16.8,1.8-16.8,4c0,1.1,2.2,2.3,5.8,3c3.1,0.6,7,1,11,1
				c9.1,0,16.8-1.8,16.8-4S46.2,97.8,37.1,97.8z"/>
		</g>
		<g>
			<path class="st4" d="M21.5,103.4l-0.2-0.3c2.7-1.6,8.8-2.6,15.8-2.6c6.9,0,13.1,1,15.8,2.6l-0.2,0.3c-2.6-1.6-8.7-2.6-15.6-2.6
				C30.3,100.9,24.1,101.9,21.5,103.4z"/>
		</g>
		<g>
			<path class="st4" d="M37.1,170.9c-9.6,0-17.1-1.9-17.1-4.3h0.3c0,2.2,7.7,4,16.8,4s16.8-1.8,16.8-4h0.3
				C54.3,169,46.7,170.9,37.1,170.9z"/>
		</g>
		<g>
			<path class="st7" d="M19,164.1c0.4,5.4,7.6,6.6,18.1,6.6s19-1.8,19-6.5c0,0-0.1-0.8-0.5-1.1c-0.4,0.7-2.5,1.8-2.8,1.9
				c-2.6,1.4-8.6,2.6-15.7,2.6c-7.1,0-13.2-1.1-15.7-2.6C21.4,165.1,19.7,163.5,19,164.1z"/>
			<path class="st4" d="M37.1,170.9c-9.2,0-17.8-0.8-18.3-6.8l0-0.1l0.1-0.1c0.7-0.7,2.5,0.8,2.6,1c2.6,1.5,8.7,2.6,15.6,2.6
				c6.6,0,12.9-1,15.6-2.6l0.1-0.1c1.5-0.8,2.4-1.4,2.6-1.8l0.1-0.2l0.1,0.1c0.4,0.4,0.5,1.2,0.5,1.2
				C56.3,170,44.3,170.9,37.1,170.9z M19.2,164.2c0.5,5.6,8.9,6.4,18,6.4c16.4,0,18.8-4,18.8-6.4c0,0,0,0,0,0c0,0-0.1-0.5-0.3-0.8
				c-0.6,0.6-2.1,1.5-2.6,1.8l-0.1,0.1c-2.8,1.6-9.1,2.6-15.8,2.6c-6.9,0-13.1-1-15.8-2.6C20.9,164.8,19.7,163.8,19.2,164.2z"/>
		</g>
		<g>
			<path class="st3" d="M52.2,103.4c0,0-2.7-1.3-6.7-1.7c-0.8-0.3-5.3-0.5-5.3-0.5s-4.9-0.1-6.3,0c-2.2,0-6.5,0.5-8.1,1
				c-2.3,0.4-3.7,1.2-3.7,1.2s2.6,1.5,9.1,2c3.8,0.3,7,0.3,7,0.3s4.4,0.1,8.6-0.8C48.9,104.4,50.1,104.4,52.2,103.4z"/>
		</g>
		<g>
			<path class="st10" d="M31.2,105.4c4.8,0.4,7,0.3,7,0.3s4.4,0.1,8.6-0.8"/>
		</g>
		<g>
			<path class="st8" d="M54.4,164.6c0,0,0.3,1.2,0.1,2.3c0.6-0.4,1.7-1.9,1.2-3.2C54.4,164.6,54.4,164.6,54.4,164.6z"/>
		</g>
		<g>
			<path class="st9" d="M25.7,169.5c0,0-0.3-1.8-0.4-2.6c-0.4-0.1-3.5-0.9-4.1-1.5c-0.7-0.6-1.7-1.2-1.8-1.1
				c0.1,0.3,0.2,1.6,1.3,2.8c1.5,1.2,2.7,1.7,2.8,1.7C23.5,168.8,25.7,169.5,25.7,169.5z"/>
		</g>
		<g>
			<path class="st9" d="M23.6,156.8c0,0-0.3-1.7-0.4-2.9c-0.7-0.2-0.7-0.2-0.7-0.2s-6.1-1.7-7-3.2c0.1,0.5,0.3,1.5,0.3,1.5
				s-0.2,0.9,1.1,1.9C18.2,155,20.4,156,23.6,156.8z"/>
		</g>
		<g>
			<path class="st9" d="M21.9,138.6c0,0-0.2-2.1-0.1-2.9c-0.6-0.2-6.4-1.6-7.7-3.6c0,0.9,0,2.2,0,2.2S14.3,136.7,21.9,138.6z"/>
		</g>
		<g>
			<path class="st9" d="M22.5,121.2c0,0,0.2-1.9,0.3-3c-1.2-0.3-5.5-1.7-6.5-3.7c-0.2,1-0.4,2.3-0.4,2.3S15.4,119.1,22.5,121.2z"/>
		</g>
		<g>
			<path class="st9" d="M24.6,108.7c0,0,0.2-1.8,0.7-3.4c-1.1-0.3-5.4-1.3-5.6-3.5c-0.6,0.6-2.3,2.1-0.4,4.2
				C21.4,108,24.6,108.7,24.6,108.7z"/>
		</g>
		<g>
			<path class="st5" d="M43.1,105.5c0,0,4.1-0.9,4-2.1c0-0.6-1.1-1.3-4.6-2.1c0,0,4.9,0.2,6.9,1.1c1.8,0.6,2.8,1,2.8,1
				S49.8,104.8,43.1,105.5z"/>
		</g>
		<g>
			<ellipse class="st11" cx="43.8" cy="102.9" rx="2" ry="0.9"/>
		</g>
		<g>
			<g>
				<path class="st5" d="M45.9,102.9c0,0.1,0,0.2-0.1,0.3c-0.2-0.4-1-0.7-1.9-0.7s-1.7,0.3-1.9,0.7c-0.1-0.1-0.1-0.2-0.1-0.3
					c0-0.5,0.9-0.9,2-0.9C44.9,102,45.9,102.4,45.9,102.9z"/>
			</g>
		</g>
		<g>
			<path class="st4" d="M48.7,102H25.6c-0.1,0-0.2-0.1-0.2-0.2s0.1-0.2,0.2-0.2h23.1c0.1,0,0.2,0.1,0.2,0.2S48.8,102,48.7,102z"/>
		</g>
		<g>
			<rect x="22.5" y="103.8" class="st4" width="29.3" height="0.3"/>
		</g>
	</g>
	<g>
		<path class="st13" d="M42.7,48.6c0,0,0,6.8-1.2,8.7c-1.3,1.9-4.3,6.8-4.5,8.3c-0.2,1.5-1.3,7.9,1.8,9.9c3.1,2,4.8,2.5,4.8,2.5
			s18.7,1.8,22.7,1.3c3.9-0.5,9.2-1.7,9.2-1.7l8.6-2c0,0,3.8-1,4-1.1c0.2-0.1,3.9-1.4,2.6-6.3c3-0.8,3.4-1,3.4-1l1.9-1.7l1-2.9
			l0.1-4.5c0,0-2-7.2-3.4-8.2c-0.3-0.2-0.7-1.6-2.3-2.2c-6.2-2-20.6-4.8-20.6-4.8H50.5L42.7,48.6z"/>
		<path class="st4" d="M64.3,79.6c-6.1,0-20-1.3-20.6-1.4l0,0c-0.1,0-1.8-0.6-4.9-2.6c-2.9-1.9-2.2-7.4-1.9-9.5c0-0.2,0-0.4,0.1-0.5
			c0.2-1.7,3.6-7.1,4.5-8.4c1.2-1.8,1.2-8.5,1.2-8.6l0-0.1l7.9-5.6h20.4c0.2,0,14.5,2.8,20.7,4.8c1.2,0.4,1.8,1.3,2.1,1.9
			c0.1,0.1,0.2,0.3,0.2,0.3c1.4,1,3.4,8,3.5,8.3l0,0l0,0l-0.1,4.5l-1,2.9l-2,1.7c0,0-0.4,0.2-3.2,1c1.2,4.7-2.3,6.1-2.7,6.3
			c-0.3,0.1-3.9,1.1-4,1.1l-8.6,2c-0.1,0-5.4,1.2-9.3,1.7C65.8,79.6,65.1,79.6,64.3,79.6z M43.7,77.9c0.7,0.1,18.8,1.8,22.6,1.3
			c3.9-0.5,9.2-1.7,9.2-1.7l8.6-2c1.3-0.4,3.8-1,4-1.1c0.4-0.1,3.7-1.5,2.5-6.1l0-0.1l0.1,0c2.6-0.7,3.2-1,3.3-1l1.8-1.6l1-2.8
			l0.1-4.4c-0.1-0.4-2.1-7.2-3.3-8.1c-0.1-0.1-0.2-0.2-0.3-0.4c-0.3-0.5-0.8-1.4-2-1.7c-6.1-2-20.5-4.8-20.6-4.8l-20.2,0l-7.7,5.4
			c0,0.8,0,6.9-1.2,8.7c-1.3,2-4.3,6.8-4.4,8.3c0,0.1,0,0.3-0.1,0.5c-0.3,2-1,7.5,1.8,9.2C41.8,77.2,43.5,77.8,43.7,77.9z"/>
	</g>
	<g>
		<path class="st13" d="M87.7,74.7c0,0-18.3,4.6-21.4,4.6c-3.1,0.1-22.6,0.8-27.5-3.9c-0.4,0.1-1,4.6,0.8,6.4
			c-3.2,0.9-9.7,4.4-9.7,4.4s-1.2-0.2-1.1,5.4c0.1,5.7,0.2,9.1,0.2,9.1s3.8-3,6.3-2.6c2.5,0.4,9.8,5.4,9.8,5.4l0.3-8.9l4.7-0.2
			c0,0,0.1,0,0.1,0l7.6-1.5l0.8,0c0,0,2.3,1.9,2.9,3.2c0.6,1.4,5.7,10.6,5.7,10.6l16.1,2.6l-0.4-1.9c0,0,0.5-0.5,0.4-1.1
			c-0.1-0.6-0.6-13-1-15.8c-0.5-2.8-0.5-2.8-0.5-2.8S88.5,79.7,87.7,74.7z"/>
		<path class="st4" d="M83.4,109.5L67,106.8l0-0.1c-0.2-0.4-5.1-9.2-5.7-10.6c-0.5-1.2-2.5-2.9-2.8-3.1l-0.7,0l-7.6,1.5
			c0,0-0.1,0-0.1,0l-4.6,0.2l-0.3,9.1l-0.2-0.2c-0.1-0.1-7.3-5-9.7-5.4c-2.4-0.4-6.1,2.6-6.2,2.6l-0.2,0.2l0-0.3
			c0,0-0.1-3.5-0.2-9.1c-0.1-3.8,0.4-5.1,0.9-5.4c0.1-0.1,0.2-0.1,0.3-0.1c0.5-0.3,6.3-3.4,9.4-4.3c-1.3-1.6-1.2-4.6-0.9-5.9
			c0.1-0.4,0.2-0.5,0.3-0.6l0.1,0l0.1,0.1c2.1,2,8.5,4.3,26.9,3.8l0.5,0c3.1-0.1,21.2-4.6,21.4-4.6l0.2,0l0,0.2
			c0.4,2.1-0.5,5-2.7,8.4c-1.4,2.4-3,4.2-3.2,4.6l0.4,2.7c0.3,1.9,0.6,8.2,0.8,12.3c0.1,1.9,0.2,3.3,0.2,3.5c0.1,0.6-0.2,1-0.4,1.2
			L83.4,109.5z M67.2,106.6l15.8,2.6l-0.4-1.8l0.1-0.1c0,0,0.4-0.5,0.4-1c0-0.2-0.1-1.3-0.2-3.5c-0.2-4.1-0.5-10.4-0.8-12.3
			l-0.5-2.8l0-0.1c0.1-0.1,6.6-7.8,5.9-12.6c-1.9,0.5-18.3,4.5-21.3,4.6l-0.5,0c-18.2,0.5-24.7-1.8-27-3.8c-0.1,0.2-0.2,0.7-0.3,1.5
			c0,0.7-0.1,3.2,1.1,4.5l0.2,0.2L39.6,82c-3.2,0.8-9.6,4.3-9.6,4.4l-0.1,0l-0.1,0c0,0-0.1,0-0.1,0.1c-0.2,0.2-0.8,1.2-0.7,5.2
			c0.1,4.7,0.2,7.8,0.2,8.8c0.9-0.7,3.9-2.8,6.2-2.5c2.3,0.4,8.3,4.4,9.6,5.3l0.3-8.8l4.9-0.2c0,0,0.1,0,0.1,0l7.6-1.5l0.8,0l0,0
			c0.1,0.1,2.3,1.9,2.9,3.3C62.2,97.4,66.8,105.7,67.2,106.6z"/>
	</g>
	<g>
		<g>
			<line class="st13" x1="41.3" y1="72.6" x2="42.7" y2="67"/>
			<path class="st4" d="M41.3,72.8C41.3,72.8,41.3,72.8,41.3,72.8c-0.1,0-0.2-0.1-0.1-0.2l1.3-5.6c0-0.1,0.1-0.1,0.2-0.1
				c0.1,0,0.1,0.1,0.1,0.2l-1.3,5.6C41.5,72.7,41.4,72.8,41.3,72.8z"/>
		</g>
		<g>
			<line class="st13" x1="39.6" y1="71.8" x2="41" y2="66.2"/>
			<path class="st4" d="M39.6,71.9C39.6,71.9,39.6,71.9,39.6,71.9c-0.1,0-0.2-0.1-0.1-0.2l1.3-5.6c0-0.1,0.1-0.1,0.2-0.1
				c0.1,0,0.1,0.1,0.1,0.2l-1.3,5.6C39.8,71.9,39.7,71.9,39.6,71.9z"/>
		</g>
		<g>
			<line class="st13" x1="39.5" y1="67.5" x2="43.5" y2="69.4"/>
			<path class="st4" d="M43.5,69.5C43.5,69.5,43.4,69.5,43.5,69.5l-4.1-1.9c-0.1,0-0.1-0.1-0.1-0.2c0-0.1,0.1-0.1,0.2-0.1l4,1.9
				c0.1,0,0.1,0.1,0.1,0.2C43.6,69.5,43.5,69.5,43.5,69.5z"/>
		</g>
		<g>
			<line class="st13" x1="38.7" y1="69.6" x2="42.6" y2="71.5"/>
			<path class="st4" d="M42.6,71.7C42.6,71.7,42.6,71.6,42.6,71.7l-4.1-1.9c-0.1,0-0.1-0.1-0.1-0.2c0-0.1,0.1-0.1,0.2-0.1l4,1.9
				c0.1,0,0.1,0.1,0.1,0.2C42.8,71.6,42.7,71.7,42.6,71.7z"/>
		</g>
	</g>
	<g>
		<path class="st7" d="M50.5,43.1l-2.4-2.3l-3-1.1l0.4-22.3c0,0,0.3-5.9,7.4-6.7c7.5-0.1,16.3-0.3,16.3-0.3s8.7,1,8.8,8.7
			c0,7.7,0.1,20.6,0.1,20.6l-6,2.3l-1.3,1.1H50.5z"/>
		<path class="st4" d="M70.8,43.2H50.4L48,40.9L45,39.7l0.4-22.4c0-0.1,0.4-6.1,7.6-6.9c7.5-0.1,16.3-0.3,16.3-0.3
			c0.1,0,8.9,1.1,8.9,8.9c0,7.6,0.1,20.4,0.1,20.6l0,0.1l-6.1,2.3L70.8,43.2z M50.5,42.9h20.2l1.3-1.1l5.9-2.3
			c0-1.3-0.1-13.2-0.1-20.5c0-7.5-8.5-8.6-8.6-8.6c0,0-8.8,0.2-16.3,0.3c-6.9,0.8-7.3,6.3-7.3,6.6l-0.4,22.2l2.9,1.1L50.5,42.9z"/>
	</g>
	<g>
		<path class="st14" d="M71,18.5c0.2,0.1,0.3,12.3,0.3,12.3l-0.8,0.8l-1,0.3l-1.8-1.2l-1-1.4c0,0-1.6-0.8-1.9-0.8s-2.4-0.3-2.4-0.3
			l-2.1,1.1l-2,0.5L56.7,29c0,0-1.3-0.2-1.5-0.4c-0.2-0.2-1.6,0.2-1.6,0.2L52.3,30L51.2,30l-0.5-1.4l0.1-10.1c0,0,2.4-3.4,6.3-0.2
			c-1.1,8.5-0.7,7.6-0.7,7.6l0.8,1.2l4.9-0.3l1.2-9.5C63.3,17.2,65.8,14.9,71,18.5z"/>
	</g>
	<g>
		<line class="st13" x1="77.5" y1="58.1" x2="78.8" y2="52.5"/>
		<path class="st4" d="M77.5,58.2C77.5,58.2,77.5,58.2,77.5,58.2c-0.1,0-0.2-0.1-0.1-0.2l1.3-5.6c0-0.1,0.1-0.1,0.2-0.1
			c0.1,0,0.1,0.1,0.1,0.2l-1.3,5.6C77.6,58.2,77.5,58.2,77.5,58.2z"/>
	</g>
	<g>
		<line class="st13" x1="75.8" y1="57.2" x2="77.1" y2="51.6"/>
		<path class="st4" d="M75.8,57.4C75.8,57.4,75.8,57.4,75.8,57.4c-0.1,0-0.2-0.1-0.1-0.2l1.3-5.6c0-0.1,0.1-0.1,0.2-0.1
			c0.1,0,0.1,0.1,0.1,0.2l-1.3,5.6C75.9,57.3,75.8,57.4,75.8,57.4z"/>
	</g>
	<g>
		<line class="st13" x1="75.6" y1="52.9" x2="79.6" y2="54.8"/>
		<path class="st4" d="M79.6,55C79.6,55,79.6,55,79.6,55l-4.1-1.9c-0.1,0-0.1-0.1-0.1-0.2c0-0.1,0.1-0.1,0.2-0.1l4,1.9
			c0.1,0,0.1,0.1,0.1,0.2C79.7,55,79.7,55,79.6,55z"/>
	</g>
	<g>
		<line class="st13" x1="74.8" y1="55" x2="78.8" y2="57"/>
		<path class="st4" d="M78.8,57.1C78.8,57.1,78.7,57.1,78.8,57.1l-4.1-1.9c-0.1,0-0.1-0.1-0.1-0.2c0-0.1,0.1-0.1,0.2-0.1l4,1.9
			c0.1,0,0.1,0.1,0.1,0.2C78.9,57.1,78.8,57.1,78.8,57.1z"/>
	</g>
	<g>
		<path class="st13" d="M29.3,63.2c0,0,2.6,0.1,4.5-1.2c1.9-1.3,2.1-1.4,2.6-2c0.5-0.6,2.3-4.3,2.2-7.9c0.3-0.6,0.3-0.6,0.3-0.6
			l3.8-2.8l0.1,2.4l-0.3,2.6L42,55.8c0,0,0,0.7-0.5,1.5c-0.5,0.7-2.3,3.2-2.3,3.2L38.3,62l-1.2,0.6c0,0-2.3,0.8-2.7,0.9
			c-0.4,0.1-2.8,0.2-2.8,0.2L29.3,63.2z"/>
		<path class="st4" d="M31.6,63.9l-2.3-0.5l0-0.3c0,0,2.5,0.1,4.4-1.2l0.1-0.1c1.8-1.2,1.9-1.3,2.4-1.9c0.4-0.5,2.3-4.1,2.2-7.8l0,0
			l0.3-0.7l0,0l4.1-3l0.1,2.6l-0.3,2.6l-0.6,2.3c0,0,0,0.8-0.5,1.5c-0.5,0.7-2.2,3.1-2.3,3.2l-0.8,1.5l-1.3,0.7
			c-0.1,0-2.3,0.8-2.7,0.9C34.1,63.7,31.7,63.9,31.6,63.9L31.6,63.9z M30.5,63.3l1.2,0.3c0.2,0,2.4-0.1,2.8-0.2
			c0.3-0.1,1.9-0.6,2.7-0.9l1.1-0.6l0.8-1.5c0,0,1.8-2.5,2.3-3.2c0.5-0.7,0.5-1.4,0.5-1.4l0.6-2.3l0.2-2.6l-0.1-2L39,51.5l-0.2,0.6
			c0.1,3.6-1.7,7.3-2.2,8c-0.5,0.6-0.7,0.7-2.4,1.9l-0.1,0.1C32.8,62.9,31.4,63.2,30.5,63.3z"/>
	</g>
	<g>
		<path class="st15" d="M90.8,70.6c0,0-11.1,5.8-25.2,6c-0.1,4.3,0,2.5,0,2.5l2.6-0.3l3-0.5l8.4-1.8c0,0,0,0,0,0l8.4-2.1
			C88,74.3,90.6,73.6,90.8,70.6z"/>
	</g>
	<g>
		<path class="st15" d="M38.6,74.9l4.9,2.5l0.2-4c-5.8-0.1-6.8-2.7-6.8-2.7S37.3,73.7,38.6,74.9z"/>
	</g>
	<g>
		<path class="st16" d="M91.8,48.7c0,0,2.8,3,5,10.3c0-0.7,0-0.7,0-0.7s-2.1-8.2-4.6-9.8C91.8,48.7,91.8,48.7,91.8,48.7z"/>
	</g>
	<g>
		<path class="st7" d="M58.3,92.8c-9.3,1.9-8.2,1.6-8.2,1.6l-4.7,0.3c-0.1,0-0.1,0.1-0.1,0.1l-0.1,9.1l-16.2-3.1
			c0,0-1.7-11.2,0.2-14c1.9-2.8,7.7-4.6,10.3-4.9c0,0-1.9-3.3-1.1-6.7c0,0,1.9,1.2,4.8,2.4"/>
		<path class="st4" d="M45.4,104l-16.5-3.2l0-0.1c-0.1-0.5-1.7-11.3,0.2-14.1c1.9-2.8,7.5-4.6,10.2-4.9c-0.4-0.8-1.7-3.7-1-6.6
			l0.1-0.2l0.2,0.1c0,0,1.9,1.2,4.8,2.4l-0.1,0.3c-2.4-1-4.1-2-4.7-2.3c-0.7,3.2,1.1,6.3,1.1,6.4l0.1,0.2l-0.2,0
			c-2.5,0.3-8.3,2.1-10.2,4.8c-1.8,2.6-0.4,12.6-0.2,13.8l15.9,3l0.1-8.9c0-0.2,0.1-0.3,0.3-0.3l4.7-0.3l0,0c0.2,0,1.4-0.2,8.2-1.6
			l0.1,0.3c-3.2,0.6-5.6,1.1-6.9,1.4c-0.9,0.2-1.2,0.2-1.4,0.2l-4.6,0.3L45.4,104z"/>
	</g>
	<g>
		<path class="st17" d="M37.9,75.8"/>
	</g>
	<g>
		<path class="st13" d="M29.3,63.2c0,0,3.9,1.8,9-1.2"/>
		<path class="st4" d="M32.3,63.9c-0.1,0-0.3,0-0.4,0c-1.6-0.1-2.6-0.5-2.6-0.5l0.1-0.3c0,0,3.9,1.7,8.9-1.2l0.2,0.3
			C36,63.5,33.8,63.9,32.3,63.9z"/>
	</g>
	<g>
		<path class="st4" d="M97.3,61.2l-0.3-0.7c-1.5-3.8-3.9-5-4-5c0,0-3.3-1.4-5.9-0.9c-1.3,0.3-2.5,0.8-3.5,1.3c-1.2,0.5-2.2,1-3,0.9
			l0-0.3c0.7,0.1,1.7-0.4,2.8-0.9c1.1-0.5,2.3-1,3.6-1.3c2.7-0.6,6,0.8,6.1,0.9c0.1,0,2.3,1.1,3.8,4.5c-0.1-4.1-2-7.6-3.2-9.1
			C88.1,41.2,78.1,40.2,78,40.2l-0.1,0V19.6c0-2.5-1-4.8-2.8-6.6s-4.1-2.7-6.6-2.6L53,10.7c-4,0.1-7.3,3.3-7.3,7.3l-0.4,21.5l-0.3,0
			l0.4-21.5c0.1-4.2,3.4-7.6,7.6-7.6l15.5-0.3c2.6,0,5,0.9,6.8,2.7c1.8,1.8,2.9,4.2,2.9,6.8v20.2c1.3,0.2,10.5,1.6,16,10.6
			c1.3,1.6,3.4,5.5,3.2,10L97.3,61.2z"/>
	</g>
	<g>
		<path class="st18" d="M74.9,54c0.2,0.2,1.3,1.7,1.3,1.7"/>
		<path class="st4" d="M76,55.8c-0.3-0.4-1.1-1.5-1.2-1.6l0.2-0.2c0.2,0.2,1.2,1.5,1.3,1.7L76,55.8z"/>
	</g>
	<g>
		<circle class="st18" cx="66.6" cy="24.6" r="2.8"/>
		<path class="st4" d="M66.6,27.5c-1.6,0-2.9-1.3-2.9-2.9s1.3-2.9,2.9-2.9c1.6,0,2.9,1.3,2.9,2.9S68.2,27.5,66.6,27.5z M66.6,21.9
			c-1.4,0-2.6,1.2-2.6,2.6c0,1.4,1.2,2.6,2.6,2.6c1.4,0,2.6-1.2,2.6-2.6C69.2,23.1,68,21.9,66.6,21.9z"/>
	</g>
	<g>
		<circle class="st18" cx="54.7" cy="24.6" r="2.8"/>
		<path class="st4" d="M54.7,27.5c-1.6,0-2.9-1.3-2.9-2.9s1.3-2.9,2.9-2.9c1.6,0,2.9,1.3,2.9,2.9S56.3,27.5,54.7,27.5z M54.7,21.9
			c-1.4,0-2.6,1.2-2.6,2.6c0,1.4,1.2,2.6,2.6,2.6c1.4,0,2.6-1.2,2.6-2.6C57.3,23.1,56.2,21.9,54.7,21.9z"/>
	</g>
	<g>
		<path class="st14" d="M63.9,24.6l5.4-0.8l-0.1-0.2c-0.4-1.1-1.4-1.8-2.6-1.8c-1.4,0-2.6,1.1-2.7,2.5L63.9,24.6z"/>
		<path class="st4" d="M63.8,24.7l0-0.4c0.1-1.5,1.4-2.7,2.9-2.7c1.2,0,2.3,0.8,2.7,1.9l0.1,0.4L63.8,24.7z M66.7,21.9
			c-1.3,0-2.5,1-2.6,2.4l0,0l5-0.7l0,0C68.7,22.6,67.8,21.9,66.7,21.9z"/>
	</g>
	<g>
		<path class="st14" d="M52.2,23.6l5.4,1l0-0.2c0-1.1-0.8-2.2-1.9-2.5c-1.4-0.4-2.8,0.2-3.4,1.6L52.2,23.6z"/>
		<path class="st4" d="M57.8,24.8l-5.7-1l0.1-0.4c0.6-1.4,2.2-2.1,3.6-1.6c1.2,0.4,2,1.4,2,2.7L57.8,24.8z M52.4,23.5l5,0.9l0,0
			c0-1.1-0.8-2-1.8-2.4C54.4,21.6,53,22.3,52.4,23.5L52.4,23.5z"/>
	</g>
	<g>
		<circle class="st18" cx="54.4" cy="25.2" r="0.1"/>
		<path class="st4" d="M54.4,25.5c-0.1,0-0.2-0.1-0.2-0.2c0-0.1,0.1-0.2,0.2-0.2c0.1,0,0.2,0.1,0.2,0.2
			C54.6,25.4,54.5,25.5,54.4,25.5z M54.4,25.2C54.3,25.2,54.3,25.2,54.4,25.2C54.3,25.3,54.4,25.3,54.4,25.2
			C54.4,25.2,54.4,25.2,54.4,25.2z"/>
	</g>
	<g>
		<circle class="st18" cx="66.4" cy="25.4" r="0.1"/>
		<path class="st4" d="M66.4,25.7c-0.1,0-0.3-0.1-0.3-0.3s0.1-0.3,0.3-0.3c0.1,0,0.3,0.1,0.3,0.3S66.5,25.7,66.4,25.7z M66.4,25.4
			C66.3,25.4,66.3,25.4,66.4,25.4C66.3,25.5,66.4,25.5,66.4,25.4C66.4,25.4,66.4,25.4,66.4,25.4z"/>
	</g>
	<g>
		<path class="st13" d="M65.1,79.4c4-0.3,7.7-0.9,11.8-2.2c7.8-1.7,11.1-2.7,11.1-2.7c0,6.4-6.2,13-6.2,13c0.5,4.8,1.8,11.7,1.3,19
			c-0.4,1.3,0.6,3.3,0.3,3.2c-0.3-0.1-14.9-0.7-14.9-0.7L62.2,98c0,0-1.1-4-3.9-5.2s-2.7-2.6-2.7-2.6"/>
		<path class="st4" d="M83.4,110C83.4,110,83.4,110,83.4,110c-0.5-0.1-10.9-0.5-14.9-0.7l-0.1,0L62.1,98c0,0-1.1-4-3.8-5.1
			c-2.8-1.2-2.8-2.6-2.8-2.7h0.3c0,0,0.1,1.3,2.6,2.4c2.7,1.2,3.8,4.9,3.9,5.3l6.3,11.1c2.5,0.1,13.2,0.5,14.7,0.6
			c0-0.1-0.1-0.3-0.1-0.4c-0.2-0.7-0.5-1.8-0.2-2.7c0.4-5.6-0.3-11-0.9-15.4c-0.2-1.3-0.3-2.5-0.4-3.6l0-0.1l0-0.1
			c0.1-0.1,6-6.5,6.1-12.7c-0.8,0.2-4.3,1.1-10.9,2.6c-3.8,1.2-7.5,1.8-11.8,2.2l0-0.3c4.3-0.3,7.9-1,11.7-2.1
			c7.7-1.7,11.1-2.6,11.1-2.7l0.2-0.1l0,0.2c0,6.1-5.6,12.4-6.2,13c0.1,1.1,0.3,2.3,0.4,3.5c0.6,4.4,1.3,9.8,0.9,15.4l0,0
			c-0.2,0.8,0.1,1.9,0.2,2.5c0.1,0.5,0.2,0.7,0.1,0.8C83.5,110,83.5,110,83.4,110z M83.4,109.7C83.4,109.7,83.4,109.7,83.4,109.7
			C83.4,109.7,83.4,109.7,83.4,109.7z"/>
	</g>
	<g>
		<path class="st7" d="M46.3,105.4c0,0,1.2-5.5,1.3-5.8s-2,1.7-2,1.7l1.5-4.5c0,0,0,0,0,0l-1.9,0.4c0,0-9.2-3.1-16.3-0.9L27,95.7
			c0,0,2.1,3.7,1.8,3.7c-0.3-0.1-2.6-0.8-2.6-0.8l1.7,2.6c0,0,5.1-4.1,9.2-2.9c1.6,0.5,1.6,0.5,1.6,0.5s3.2,1.3,4.4,2.7
			c1.3,1.5,2.9,2.9,2.9,2.9L46.3,105.4"/>
		<path class="st4" d="M46.3,106.2l-0.3-1.7c-0.3-0.2-1.7-1.5-2.9-2.8c-1.2-1.4-4.3-2.7-4.4-2.7l-1.6-0.4c-4-1.1-9.1,2.9-9.1,2.9
			l-0.1,0.1l-2.1-3.1l0.4,0.1c0.5,0.2,1.8,0.6,2.4,0.7c-0.2-0.5-1-2.1-1.8-3.4l-0.2-0.3l2.1,0.6c6.7-2.1,15.6,0.7,16.3,0.9l1.9-0.4
			c0.1,0,0.1,0,0.2,0.1c0,0.1,0.1,0.1,0,0.2l-1.3,3.9c1.6-1.4,1.7-1.4,1.8-1.3l0.1,0.1l0,0.1c-0.1,0.2-0.8,3.6-1.3,5.8L46.3,106.2z
			 M35.6,98c0.5,0,1.1,0.1,1.6,0.2l1.6,0.5c0.1,0.1,3.2,1.3,4.5,2.8c1.3,1.4,2.9,2.8,2.9,2.8l0,0l0,0.2c0.3-1.3,0.8-3.7,1-4.7
			c-0.4,0.3-1.1,0.9-1.7,1.5l-0.4,0.4l1.6-4.8l-1.7,0.4l0,0c-0.1,0-9.3-3.1-16.2-0.9l0,0L27.3,96c1.8,3.3,1.7,3.4,1.7,3.5l-0.1,0.1
			l-0.1,0c-0.2,0-1.5-0.4-2.2-0.6l1.4,2.1c0.4-0.3,1.5-1.1,3-1.8C32.2,98.6,33.9,98,35.6,98z"/>
	</g>
	<g>
		<path class="st7" d="M84.1,113c0,0,1.3-7.3,1.4-7.6c0.1-0.2-1.9,1.5-2,1.7c0,0,0,0,0,0l1.5-4.5c0,0,0,0,0,0l-2,0.5c0,0,0,0,0,0
			c0,0-6.6-5-19.3-0.8c0,0,0,0,0,0l-2.8-1.3c0,0,0,0,0,0c0.2,0.2,3.7,3.9,3.4,3.8c-0.3,0-2.5-0.7-2.6-0.8c0,0,0,0,0,0l3.5,4.7
			c0,0,0,0,0,0c0.1-0.1,5.8-5.6,9.9-4.5l1.6,0.5c0,0,0,0,0,0c0,0,3.2,1.3,4.4,2.7c1.3,1.4,2.9,2.8,2.9,2.9c0,0,0,0,0,0L84.1,113"/>
		<path class="st4" d="M84.3,113l-0.3,0l0-2.7c-0.3-0.2-1.7-1.5-2.9-2.8c-1.2-1.4-4.3-2.7-4.4-2.7l-1.6-0.4c-4-1.1-9.7,4.4-9.8,4.4
			l-0.1,0.1l-0.2,0l0-0.1l-3.6-4.8l0.1-0.2l0.1,0c0.8,0.2,1.7,0.5,2.2,0.7c-0.5-0.6-1.9-2.1-3.2-3.4l-0.1-0.1l0.1-0.2l0.1,0l2.8,1.3
			c6.6-2.1,11.5-1.8,14.4-1.2c2.9,0.7,4.6,1.7,4.9,2l2-0.5l0.1,0.1l0,0.1l-1.4,4c1.6-1.4,1.7-1.4,1.8-1.3l0.1,0.1l0,0.1
			C85.6,105.7,84.8,110.1,84.3,113z M84.3,110.2l0,1c0.3-1.9,0.8-4.6,1.1-5.6c-0.4,0.3-1.2,1-1.7,1.5l-0.1,0.1l-0.2-0.1l0-0.1
			l1.4-4.3l-1.7,0.4l-0.1,0l-0.1-0.1c-0.1-0.1-6.6-4.9-19.1-0.8l-0.1,0l0,0l-2.2-1c3,3.2,3,3.3,2.9,3.4l-0.1,0.1l-0.1,0
			c-0.2,0-1.4-0.4-2.2-0.6l3.1,4.2c0.9-0.8,6.1-5.5,9.9-4.4l1.6,0.5c0,0,3.2,1.3,4.5,2.8c1.2,1.4,2.8,2.8,2.9,2.8L84.3,110.2
			L84.3,110.2z"/>
	</g>
	<g>
		<path class="st19" d="M83.4,100.4c0,0,2.7,0.4,1.7,2l-1.4,0.3c-0.3,0.1-0.5-0.2-0.5-0.4L83.4,100.4z"/>
		<path class="st4" d="M83.5,103c-0.1,0-0.3,0-0.4-0.1c-0.1-0.1-0.2-0.3-0.2-0.5l0.2-2.1l0.2,0c0.1,0,1.5,0.2,1.9,1.1
			c0.2,0.4,0.1,0.8-0.1,1.2l0,0.1l-1.5,0.3C83.6,103,83.6,103,83.5,103z M83.5,100.6l-0.2,1.8c0,0.1,0,0.1,0.1,0.2
			c0.1,0.1,0.1,0.1,0.2,0.1l1.4-0.3c0.2-0.3,0.2-0.6,0.1-0.9C84.8,100.9,83.9,100.7,83.5,100.6z"/>
	</g>
	<g>
		<path class="st19" d="M27,95.7c0,0-1.6-0.6,1.4-1l0.3,1.3c0,0.1-0.1,0.2-0.2,0.2L27,95.7z"/>
		<path class="st4" d="M28.6,96.3C28.6,96.3,28.6,96.3,28.6,96.3l-1.7-0.5c-0.1,0-0.5-0.2-0.5-0.5c0-0.2,0.3-0.5,2-0.7l0.1,0
			l0.4,1.4c0,0.1,0,0.2-0.1,0.3C28.8,96.3,28.7,96.3,28.6,96.3z M27,95.6l1.6,0.4l-0.3-1.1c-1.5,0.2-1.6,0.5-1.6,0.5
			C26.7,95.4,26.9,95.5,27,95.6z"/>
	</g>
	<g>
		<path class="st19" d="M45.5,95.7l1.5,0.9c0,0,0,0.1,0,0.1l-1.5,0.3c-0.2,0-0.3-0.1-0.3-0.3L45.5,95.7z"/>
		<path class="st4" d="M45.4,97.2c-0.1,0-0.2,0-0.3-0.1C45,97,45,96.9,45,96.8l0.4-1.3l1.6,1c0.1,0,0.1,0.1,0.1,0.2
			c0,0.1-0.1,0.1-0.1,0.2L45.4,97.2C45.4,97.2,45.4,97.2,45.4,97.2z M45.6,96l-0.3,0.9c0,0,0,0,0,0.1c0,0,0,0,0.1,0l1.3-0.3L45.6,96
			z"/>
	</g>
	<g>
		<path class="st20" d="M45.5,101.2"/>
	</g>
	<g>
		<path class="st20" d="M45.2,101.8"/>
	</g>
	<g>
		<path class="st19" d="M61,100.9c0,0,0.6-1.9,2.3-1c1.3,2.1,1.3,2.1,1.3,2.1l-0.7,0.2L61,100.9z"/>
		<path class="st4" d="M63.8,102.3l-3-1.4l0-0.1c0,0,0.3-0.9,1.1-1.2c0.4-0.2,0.9-0.1,1.4,0.1l0,0l1.4,2.3L63.8,102.3z M61.2,100.8
			l2.7,1.2l0.4-0.1l-1.1-1.9c-0.4-0.2-0.8-0.2-1.1-0.1C61.6,100.1,61.3,100.5,61.2,100.8z"/>
	</g>
	<g>
		<path class="st4" d="M80.2,76.7c-0.1,0-0.1,0-0.1-0.1c0-0.1,0-0.2,0.1-0.2c0,0,3.9-2.2,3.4-4.7c0-0.1,0-0.2,0.1-0.2
			c0.1,0,0.2,0,0.2,0.1C84.3,74.5,80.4,76.6,80.2,76.7C80.2,76.7,80.2,76.7,80.2,76.7z"/>
	</g>
	<g>
		<path class="st4" d="M65.7,79.1c-0.1,0-0.1,0-0.1,0c-0.1,0-0.1-0.1-0.1-0.2c0-0.1,0.1-0.1,0.2-0.1c0,0,0.4,0.1,1.2-0.9
			c0.1-0.1,0.2-0.1,0.2,0c0.1,0.1,0.1,0.2,0,0.2C66.4,79,65.9,79.1,65.7,79.1z"/>
	</g>
	<g>
		<path class="st4" d="M69.2,79c-0.1,0-0.1,0-0.1-0.1c0-0.1,0-0.2,0.1-0.2c0,0,4.6-2.2,5.1-4.2c0-0.1,0.1-0.1,0.2-0.1
			c0.1,0,0.1,0.1,0.1,0.2C74,76.8,69.5,78.9,69.2,79C69.2,79,69.2,79,69.2,79z"/>
	</g>
	<g>
		<path class="st13" d="M40,73.9c0,0,0.1,1.3,2,3.1"/>
		<path class="st4" d="M42,77.2c0,0-0.1,0-0.1,0c-2-1.8-2-3.1-2.1-3.2c0-0.1,0.1-0.2,0.1-0.2c0.1,0,0.2,0.1,0.2,0.1c0,0,0.1,1.3,2,3
			c0.1,0.1,0.1,0.2,0,0.2C42.1,77.1,42,77.2,42,77.2z"/>
	</g>
	<g>
		<path class="st15" d="M68.5,65.4c0,0-1,2.9,1.1,3.5c2,0.7,3.3-0.6,3.3-0.6s4.7,1.3,6.8,0c2.3,1.1,7.5,2.5,11.1,1
			c0-1.1,0-1.1,0-1.1L83.2,67c0,0-3.4-0.8-3.7-0.8c-0.3,0-4.9,0-5.4,0C73.5,66.1,68.5,65.4,68.5,65.4z"/>
	</g>
	<g>
		<path class="st15" d="M41.5,49.9c0,0,0.3,7.3-6,13c0,0,1.2-0.3,2.6-1.2c0.2-0.5,1-1.8,1.6-2.6c0.6-0.8,1.5-2,1.5-2
			s0.7-1.4,1.1-4.5c0,0,0.3-3,0.1-3.3C42,49.6,41.5,49.9,41.5,49.9z"/>
	</g>
	<g>
		<path class="st14" d="M97,59.8c0.1,0.1,1.2,6.3-3.8,7.8s-7.6,1.2-7.6,1.2s-4-0.7-6-1.8c0,0-3.5,1.3-5.5,0.7
			c-1.1-0.4-1.1-0.4-1.1-0.4s-1.5,1-2.5,0.4c-1-0.6-2.5-2.1-1-5.1c-1-1-0.9-3.1,0.5-4.3c-0.5-0.6-1.4-2,0.6-2.9
			c1.9-0.9,5.2-0.2,7.6,0.6c2.4,0.8,3.4,0.6,6.2-0.6c2.8-1.2,5.7-1.6,7.9-0.7c1.1,0.5,2.4,1.5,3.4,2.7S97,59.8,97,59.8z"/>
		<path class="st4" d="M86.1,69.1c-0.4,0-0.6,0-0.6,0c-0.2,0-4-0.7-6-1.8C79,67.5,75.8,68.6,74,68l-1-0.4c-0.3,0.2-1.6,0.9-2.6,0.4
			c-0.8-0.5-2.6-1.9-1.2-5.2c-0.4-0.5-0.6-1.1-0.6-1.9c0-0.9,0.4-1.8,1-2.5c-0.4-0.4-0.7-1.1-0.5-1.7c0.1-0.6,0.5-1,1.3-1.4
			c2-0.9,5.3-0.2,7.7,0.6c2.4,0.7,3.4,0.5,6.1-0.6c3.1-1.3,5.9-1.6,8-0.7c1.1,0.5,2.5,1.5,3.4,2.8c0.9,1.2,1.4,2.4,1.4,2.4v0
			c0.1,0.2,0.5,2.9-0.5,5.2c-0.7,1.4-1.8,2.4-3.4,2.9C89.6,68.9,87.2,69.1,86.1,69.1z M79.5,67L79.5,67c2,1.1,6,1.8,6,1.8
			c0,0,2.7,0.3,7.6-1.2c1.4-0.4,2.4-1.2,3-2.4c1.2-2.3,0.7-5.1,0.7-5.2c0-0.1-0.5-1.3-1.4-2.4c-0.9-1.2-2.2-2.2-3.3-2.7
			c-2.1-0.8-4.8-0.6-7.8,0.7c-2.8,1.2-3.9,1.4-6.3,0.6c-2.4-0.7-5.6-1.5-7.5-0.6c-0.6,0.3-1,0.7-1.1,1.1c-0.1,0.6,0.2,1.2,0.6,1.5
			l0.1,0.1l-0.1,0.1c-0.6,0.6-1,1.5-1,2.4c0,0.7,0.2,1.3,0.6,1.7l0.1,0.1l0,0.1c-1.5,3.1,0.2,4.5,1,4.9c0.9,0.5,2.3-0.4,2.3-0.4
			l0.1,0l1.2,0.4C76,68.3,79.4,67,79.5,67L79.5,67z M96.8,59.9L96.8,59.9C96.8,59.9,96.8,59.9,96.8,59.9L96.8,59.9z"/>
	</g>
	<g>
		<path class="st4" d="M65.6,79.7l0-0.3c3.7-0.4,7.5-1.2,11.2-2.2c0.1,0,7.2-1.4,11.4-2.7c1.1-0.4,1.9-1,2.3-1.9
			c0.9-1.8,0.1-4.2,0.1-4.2l0.3-0.1c0,0.1,0.8,2.5-0.2,4.4c-0.5,1-1.3,1.7-2.5,2c-4.2,1.4-11.3,2.7-11.4,2.7
			C73.2,78.5,69.4,79.2,65.6,79.7z"/>
	</g>
	<g>
		<path class="st4" d="M44,78.2c-2.7-0.8-4.7-1.7-5-2.3c-1.9-1.4-2.3-3.4-2.6-5.2l0-0.2c-0.3-1.7,0.8-8.8,3.6-11.5
			c2.6-2.5,2.5-9.5,2.5-9.6l0.3,0c0,0.3,0.2,7.3-2.6,9.8c-2.6,2.5-3.9,9.3-3.6,11.2l0,0.2c0.3,1.8,0.6,3.8,2.5,5.1l0,0l0,0
			c0.1,0.3,1.7,1.3,4.8,2.1L44,78.2z"/>
	</g>
	<g>
		<path class="st7" d="M84.3,113c0,0-4.2,2.1-14.9,1.3c-7.7-0.6-5.7-6.1,0-9.2c7.9-4.3,12.6,3.5,14.8,5.1L84.3,113z"/>
		<path class="st4" d="M74.1,114.7c-1.4,0-2.9-0.1-4.7-0.2c-3.8-0.3-4.9-1.7-5.1-2.8c-0.4-2,1.6-4.8,5.1-6.7
			c6.5-3.6,10.9,1,13.5,3.7c0.6,0.6,1.1,1.2,1.5,1.5l0.1,0l0,2.9l-0.1,0C84.2,113.2,81.2,114.7,74.1,114.7z M74,104
			c-1.4,0-2.9,0.4-4.5,1.3c-3.3,1.8-5.3,4.4-4.9,6.3c0.3,1.4,2,2.4,4.9,2.6c9.6,0.7,14-1,14.7-1.3l0-2.6c-0.4-0.3-0.9-0.8-1.5-1.4
			C80.7,106.9,77.9,104,74,104z"/>
	</g>
	<g>
		<path class="st21" d="M57.1,27.6l5.9-0.2l1.1-8.6c0,0,6.2-0.4,7,2.7c0.5,0.1,0.2-0.4,0.2-0.4l-0.3-1.8l-1.6-0.9l-2.7-0.9l-3.4,0.3
			l-0.1,1.3l-0.3,2.3l-0.9,5.3L57.5,27L57.1,27.6z"/>
	</g>
	<g>
		<path class="st21" d="M51.4,30.1l0.2-11c0,0,3-2.2,5.2,0.4c0.5-1.6,0.5-1.6,0.5-1.6L53.4,17l-2.5,1.3l-0.1,11.6L51.4,30.1z"/>
	</g>
	<g>
		<polyline class="st7" points="57.5,15.8 56.5,25.8 60.6,25.8 61.9,16.5 		"/>
		<polygon class="st4" points="60.7,26 56.3,26 57.3,15.7 57.6,15.8 56.6,25.7 60.5,25.7 61.7,16.4 62,16.5 		"/>
	</g>
	<g>
		<path class="st4" d="M50.6,39.8h-1.5l0.4-21.3c0-0.1,0.1-1.1,1.1-1.8c1.4-1,3.7-1.2,6.8-0.4l-0.1,0.3c-3.8-0.9-5.6-0.3-6.5,0.4
			c-0.9,0.7-1,1.6-1,1.6l-0.4,21h0.9c0-1.7,0.2-17.1,0.4-21.2l0-0.1l0,0c2.1-2.3,5.1-1,6.2-0.5c0.1,0,0.2,0.1,0.3,0.1l0,0.3
			c-0.1,0-0.1,0-0.3-0.1c-1-0.4-3.9-1.6-5.8,0.4c-0.1,4.3-0.3,21.1-0.4,21.3L50.6,39.8z"/>
	</g>
	<g>
		<polygon class="st4" points="57.1,27.2 56.3,25.9 56.6,25.8 57.3,26.9 62.1,26.6 62.2,26.9 		"/>
	</g>
	<g>
		<path class="st18" d="M70.1,43c2.7-0.6,5.4-1.6,7.9-3"/>
		<path class="st4" d="M70.2,43.1l-0.1-0.3c2.9-0.6,5.6-1.6,7.8-3l0.2,0.3C75.8,41.5,73.1,42.5,70.2,43.1z"/>
	</g>
	<g>
		<path class="st4" d="M59.1,41c-1.3,0-2.4-0.1-3.3-0.2c-3.5-0.3-5.3-1.1-5.4-1.1l0.1-0.3c0.1,0,7.4,3.1,20.8-0.4
			c-0.1-6.9-0.4-19.7-0.4-20.6c-0.5-0.4-4.6-3.4-7.4-1.3l-1.3,9.5L60.5,26l0.1-0.3l1.3,0.6l1.3-9.2l0,0c3.2-2.5,7.8,1.2,7.9,1.3l0,0
			c0,0.1,0.1,0.2,0.5,20.9l0,0.1l-0.1,0C66.5,40.7,62.3,41,59.1,41z"/>
	</g>
	<g>
		<path class="st22" d="M49.3,39.6"/>
	</g>
	<g>
		<path class="st4" d="M59.7,41.8c-2.1,0-3.8-0.2-5.2-0.4c-3.5-0.6-5.2-1.6-5.3-1.6l0.2-0.3c0.1,0,6.9,4,21.5,0.6
			c0.2,0,0.3-0.1,0.4-0.3c0.1-0.2,0.1-0.3,0.1-0.5l0.3-0.1c0.1,0.3,0,0.5-0.1,0.7c-0.1,0.2-0.4,0.4-0.6,0.4
			C66.4,41.4,62.7,41.8,59.7,41.8z"/>
	</g>
	<g>
		<path class="st23" d="M50.7,46.3c0,0,0.8,7.2-3.1,11.4c-2.9,3-3.6,14.3-3.8,20.3c-0.1,2.3-0.1,3.8-0.1,3.8l21.7,1.2
			c0,0-0.6-19.1,2-23.8c2.7-4.7,2.5-13.7,2.5-13.7"/>
		<path class="st4" d="M65.5,83.1l-22-1.2l0-0.1c0,0,0-1.5,0.1-3.8c0.2-6.3,1-17.3,3.8-20.4c3.8-4.1,3.1-11.2,3.1-11.2l0.3,0
			c0,0.1,0.8,7.3-3.2,11.5c-2.8,3-3.6,13.9-3.8,20.2c-0.1,1.8-0.1,3.2-0.1,3.6l21.4,1.2c-0.1-2-0.5-19.2,2.1-23.7
			c2.6-4.6,2.5-13.6,2.5-13.7l0.3,0c0,0.1,0.1,9.2-2.5,13.8c-2.6,4.6-2,23.5-2,23.7L65.5,83.1z"/>
	</g>
	<g>
		<polygon class="st7" points="81,48.3 72.1,41.9 80.6,38.7 90.7,44.3 		"/>
		<path class="st4" d="M81,48.4l-9.2-6.6l8.8-3.4l10.5,5.8L81,48.4z M72.4,42l8.6,6.1l9.3-3.9l-9.8-5.4L72.4,42z"/>
	</g>
	<g>
		<path class="st7" d="M80.6,52.9c0,0-10.5-8.3-10.5-8.5c0.1-0.2,2-2.4,2-2.4l8.9,6.3L80.6,52.9"/>
		<path class="st4" d="M80.7,53.2L80.5,53c-10.6-8.4-10.5-8.6-10.5-8.7c0.1-0.2,1.4-1.8,2-2.5l0.1-0.1l9.1,6.5L80.7,53.2z
			 M70.3,44.4c0.6,0.6,6.2,5.2,10.2,8.2l0.4-4.3l-8.8-6.2C71.3,43.1,70.5,44.1,70.3,44.4z"/>
	</g>
	<g>
		<polygon class="st7" points="90.7,44.3 93.1,47.9 80.6,52.9 81,48.3 		"/>
		<path class="st4" d="M80.4,53.1l0.5-5l9.9-4.1l2.6,3.9L80.4,53.1z M81.2,48.4l-0.4,4.3l12.1-4.8l-2.2-3.4L81.2,48.4z"/>
	</g>
	<g>
		<path class="st7" d="M48.5,40.9l2.2,2.4l-11.8,8.1c0,0,0-3.4,0-3.5S48.5,40.9,48.5,40.9"/>
		<path class="st4" d="M38.7,51.7l0-0.3c0-1.3,0-3.3,0-3.5c0-0.1-0.1-0.2,9.7-7.2l0.1-0.1l2.4,2.6L38.7,51.7z M39,47.9
			c0,0.4,0,1.8,0,3.2l11.4-7.9l-2-2.2C44.8,43.7,39.5,47.5,39,47.9z"/>
	</g>
	<g>
		<polyline class="st7" points="38.9,47.9 39.8,47.1 40.7,46.5 48.5,40.9 45.1,39.6 42,38.3 40.5,39 		"/>
		<polygon class="st4" points="39,48 38.8,47.8 39.7,46.9 48.1,40.9 45.1,39.7 42,38.4 40.5,39.2 40.4,38.9 42,38.1 45.2,39.5 
			48.8,40.8 39.9,47.2 		"/>
	</g>
	<g>
		<path class="st18" d="M52,52c0,0-1.6,5.3-2.3,6.5c0,0-3.8,3.5-3.9,21.6c10.5,0.7,16.9,0.9,16.9,0.9s-0.5-12.9,2-20.7
			c0.3-0.8,0.6-1.5,1.2-2.1c0.7-0.7,1.8-3,2.7-10.2"/>
		<path class="st4" d="M62.8,81.1l-0.2,0c-0.1,0-6.5-0.2-16.9-0.9l-0.1,0l0-0.1c0.1-17.6,3.7-21.4,4-21.7c0.8-1.1,2.3-6.4,2.3-6.4
			l0.3,0.1c-0.1,0.2-1.6,5.4-2.4,6.5l0,0c0,0-3.7,3.7-3.9,21.3c9.4,0.6,15.5,0.9,16.6,0.9c0-1.5-0.3-13.3,2.1-20.6
			c0.3-0.9,0.7-1.6,1.2-2.2c0.6-0.7,1.8-2.9,2.6-10.1l0.3,0c-0.8,6.9-1.9,9.4-2.7,10.3c-0.5,0.6-0.9,1.2-1.2,2.1
			c-2.5,7.7-2,20.5-2,20.7L62.8,81.1z"/>
	</g>
	<g>
		<path class="st14" d="M39.7,38.7c-2.3-5.8-6-2.4-8.5-0.1s-1.8,8.9-1.8,8.9c-3.2,2.5-4.5,7.4-5,9.7c-0.6,3.1,2,5.6,4.9,5.9
			c2.8,0.3,4.5-0.8,7.1-3.2s2.3-12.4,2.3-12.4s4.6-5,3-7C41.7,40.6,40.6,38.6,39.7,38.7z"/>
		<path class="st4" d="M30.1,63.4c-0.3,0-0.5,0-0.8,0c-1.6-0.1-3.2-1-4.1-2.3c-0.8-1.1-1.1-2.4-0.9-3.8c0.7-3.2,2.1-7.5,5-9.8
			c-0.1-0.8-0.6-6.8,1.8-9l0.1-0.1c1.7-1.5,3.9-3.5,5.8-3c1.1,0.3,2.1,1.3,2.8,3.1c0.9,0,1.9,1.7,2,2c1.6,2-2.4,6.6-2.9,7.1
			c0,0.9,0.1,10.1-2.4,12.4C34.1,62.3,32.5,63.4,30.1,63.4z M36.4,35.7c-1.7,0-3.5,1.6-5,3l-0.1,0.1c-2.4,2.2-1.7,8.7-1.7,8.8l0,0.1
			l-0.1,0.1c-2.9,2.2-4.3,6.5-4.9,9.6c-0.3,1.6,0.3,2.8,0.8,3.5c0.9,1.2,2.4,2,3.9,2.2c2.8,0.2,4.4-0.8,7-3.2
			c2.5-2.3,2.3-12.2,2.3-12.3l0-0.1l0,0c0,0,4.5-4.9,3-6.7l0,0c-0.3-0.5-1.2-1.9-1.8-1.8l-0.1,0l0-0.1c-0.7-1.7-1.6-2.8-2.6-3
			C36.7,35.8,36.6,35.7,36.4,35.7z"/>
	</g>
	<g>
		<path class="st4" d="M37.9,44c0,0-0.1,0-0.1,0c-0.3,0-0.6-0.2-0.8-0.5c-0.3-0.6-0.2-1.6,0.1-2.1c0.3-0.7,2.4-2.7,2.5-2.8l0.2,0.2
			c0,0-2.1,2-2.4,2.7c-0.2,0.5-0.4,1.3-0.1,1.8c0.1,0.2,0.3,0.3,0.5,0.3c1,0.1,2.3-1,2.3-1l0.2,0.2C40.2,43,39,44,37.9,44z"/>
	</g>
	<g>
		<path class="st24" d="M50.6,28.1c0,0,0.1,2.9,1.7,1.7c1.5-1.2,2.3-2.4,4.6-0.6c1.6,1.3,3.4,0.2,4.3-0.5c0.5-0.4,1.1-0.6,1.8-0.6
			c1.4,0,3.8,0.4,4.7,2.3c1.9,1.4,2.4,1.8,3.2,1c0.1-0.1,0.2-0.3,0.3-0.4l0.2-0.2l0.1,5.8c0,3.4-0.7,4.2-0.7,4.2s-0.4,5.1-0.8,4.7
			c-0.5-0.4-0.9-0.2-1,0.6c0,1.3-1.8,6.2-1.8,6.2s-0.5-0.6-1.2-0.5c-0.7,0,0.6,2.7-0.5,4c-1.1,1.3-3,4-3,4s-0.7-1.2-1.2-1.2
			c-0.5,0,0.8,4.4-0.3,2.8c-1.1-1.6-1.2,2.1-1.2,2.9c-0.1,0.7-1.7,1.5-1.7,1.5s-1.7-3.5-1.7-4.1c-0.1-0.6-1.1-0.5-1.1-0.5
			s0-1.2,0-2.1s-0.8-0.2-0.8-0.2l-1.3-2.8c0,0-0.1-2.9-0.2-3.3c-0.1-0.4-1,0.2-0.9-0.5c0.1-0.8-0.8-4.1-0.8-4.1s-0.3-2.8,0-3.6
			c-0.7-0.1-0.7-0.1-0.7-0.1s-0.2-2.5,0.2-3.3c0.4-0.8-0.3-3-0.3-3l0.1-8.9L50.6,28.1"/>
		<path class="st4" d="M57.9,65.8l-0.1-0.1c-0.2-0.4-1.7-3.5-1.7-4.1c-0.1-0.4-0.9-0.4-0.9-0.4l-0.2,0v-2.3c0-0.2,0-0.3-0.1-0.3
			c-0.1,0-0.3,0.1-0.4,0.2l-0.2,0.1L53,55.8c0-1.2-0.1-3-0.2-3.2c0,0-0.1,0-0.3,0c-0.2,0-0.4,0-0.6-0.1c-0.1-0.1-0.1-0.3-0.1-0.5
			c0.1-0.6-0.6-3.1-0.8-4c0-0.1-0.3-2.6,0-3.6l-0.6-0.1l0-0.1c0-0.1-0.2-2.5,0.2-3.4c0.3-0.6-0.1-2.3-0.3-2.9l0,0l0,0l0.2-9.7l0.3,0
			c0,0.4,0.2,1.6,0.7,1.8c0.2,0.1,0.5,0,0.8-0.2c0.2-0.1,0.4-0.3,0.5-0.4c1.2-1,2.2-1.8,4.3-0.2c1.5,1.2,3.2,0.2,4.1-0.5
			c0.6-0.4,1.2-0.7,1.9-0.6c1.4,0,3.9,0.4,4.8,2.3l0.1,0c1.9,1.4,2.3,1.6,2.9,0.9c0.1-0.1,0.2-0.2,0.3-0.4l0.4-0.6l0.1,6.3
			c0,3-0.6,4-0.8,4.2c-0.1,1.8-0.4,4.7-0.9,4.9c-0.1,0-0.2,0-0.2,0c-0.1-0.1-0.3-0.2-0.4-0.1c-0.2,0.1-0.3,0.3-0.3,0.7
			c0,1.3-1.7,6-1.8,6.2l-0.1,0.2L67,52.3c0,0-0.5-0.5-1.1-0.5c0,0,0,0,0,0c-0.1,0.1,0,0.6,0,1c0.1,0.9,0.3,2.1-0.4,2.9
			c-1.1,1.3-3,3.9-3,4l-0.1,0.2l-0.1-0.2c-0.3-0.4-0.8-1.1-1.1-1.1c-0.1,0.2,0,1,0.1,1.5c0.2,1.2,0.2,1.6,0,1.7
			c-0.2,0.1-0.4-0.1-0.6-0.4c-0.2-0.3-0.3-0.4-0.4-0.3c-0.2,0.1-0.4,1-0.5,2.7c0,0.2,0,0.3,0,0.4c-0.1,0.8-1.6,1.5-1.7,1.6
			L57.9,65.8z M55.3,60.9c0.4,0,1,0.1,1.1,0.6c0.1,0.4,1.2,2.8,1.6,3.9c0.5-0.2,1.4-0.8,1.4-1.3c0-0.1,0-0.2,0-0.4
			c0.1-1.8,0.3-2.9,0.8-3c0.3-0.1,0.6,0.3,0.7,0.5c0.1,0.1,0.1,0.2,0.2,0.2c0-0.3-0.1-0.8-0.1-1.3c-0.1-1.1-0.2-1.6,0-1.7
			c0-0.1,0.1-0.1,0.2-0.1c0.5,0,1,0.7,1.2,1.1c0.5-0.6,2-2.7,2.9-3.8c0.6-0.7,0.4-1.8,0.3-2.7c-0.1-0.6-0.1-1,0-1.2
			c0.1-0.1,0.1-0.1,0.2-0.1c0.5,0,0.9,0.2,1.1,0.4c0.4-1,1.7-4.8,1.7-5.9c0.1-0.7,0.3-0.9,0.5-1c0.1-0.1,0.4-0.1,0.7,0.1
			c0.2-0.4,0.5-2.6,0.7-4.6l0-0.1l0,0c0,0,0.7-0.8,0.7-4.1l-0.1-5.4c-0.1,0.1-0.1,0.2-0.2,0.2c-0.8,1-1.4,0.5-3.3-0.9l-0.1-0.1l0,0
			c-0.9-1.8-3.2-2.1-4.6-2.2c-0.6,0-1.2,0.2-1.7,0.6c-1,0.8-2.9,1.9-4.5,0.5c-1.9-1.5-2.6-0.9-3.9,0.2c-0.2,0.1-0.3,0.3-0.5,0.4
			c-0.4,0.3-0.8,0.4-1.1,0.3c-0.3-0.1-0.4-0.4-0.6-0.7l-0.1,8.3c0.1,0.3,0.7,2.2,0.3,3.1c-0.3,0.7-0.2,2.6-0.2,3.1l0.7,0.2l-0.1,0.2
			c-0.3,0.8,0,3.5,0,3.6c0,0.1,1,3.3,0.8,4.1c0,0.2,0,0.2,0,0.2c0,0,0.2,0,0.3,0c0.2,0,0.5,0,0.6,0.2c0.1,0.4,0.2,2.9,0.2,3.3
			l1.2,2.6c0.2-0.1,0.4-0.2,0.6-0.1c0.2,0.1,0.3,0.3,0.3,0.6L55.3,60.9C55.3,60.9,55.3,60.9,55.3,60.9z"/>
	</g>
	<g>
		<path class="st7" d="M63.3,18c0,0,3.8-1.6,7.7,1.5c0-1.4,0-1,0-1s-3.9-3.6-7.6-1.5C63.2,18,63.3,18,63.3,18z"/>
		<path class="st4" d="M71.2,19.8l-0.2-0.2c-3.9-3-7.6-1.5-7.6-1.5l0,0l-0.1,0l0-0.1c0-0.1-0.1-0.2,0.1-1.1l0-0.1l0.1,0
			c3.4-2,7,0.8,7.7,1.4c0,0,0,0,0,0c0.1,0,0.1,0,0.1,0.2l0,0l0,0.2c0,0.2,0,0.4,0,0.9L71.2,19.8z M65.7,17.4c1.4,0,3.2,0.4,5.1,1.7
			c0-0.3,0-0.5,0-0.6c-0.4-0.4-4-3.3-7.3-1.4c-0.1,0.3-0.1,0.5-0.1,0.6C63.8,17.6,64.6,17.4,65.7,17.4z"/>
	</g>
	<g>
		<path class="st25" d="M52,30.3L51.1,40l-0.4-2.3l0.1-7.7C50.8,30,51.3,30.6,52,30.3z"/>
	</g>
	<g>
		<path class="st26" d="M80.6,38.9l-2.4,1c0,0,2.4-1.1,6.7,1.5C83.4,40.6,80.6,38.9,80.6,38.9z"/>
	</g>
	<g class="st27">
		<path class="st18" d="M41.4,40.8c0,0,0,1.9-0.7,2.9c-0.6,0.8-1.8,2.6-2.3,3.3c-0.2,0.2-0.3,0.4-0.3,0.7c-0.1,1.8-0.4,9.5-1.7,11.9
			c0,0,0.4-0.3,0.8-1.4c0.2-0.6,0.5-1.4,0.6-2.3c0.4-1.8,0.6-5.1,0.6-6.1s0-2.3,0-2.3s1.5-1.6,2.2-2.9
			C41.4,43.4,42.3,41.7,41.4,40.8z"/>
	</g>
	<g>
		<path class="st15" d="M36.7,61.7c0,0-1.3,0.6-2.5,0.5c-0.2,0.1-1.9,1.3-2.9,1.3c0.3,0,2.5,0.2,4.2-0.5
			C36.2,62.3,36.7,61.7,36.7,61.7z"/>
	</g>
	<g>
		<path class="st21" d="M28.9,62.8c-1.9-0.3-3.5-1.6-3.9-2.8c3.4,1.8,8.4,1.9,8.4,1.9S31.7,63.3,28.9,62.8z"/>
	</g>
	<g class="st27">
		<path class="st18" d="M41.4,41.6c0,0-0.4-1.6-1.8-2.4c0.2-0.2,0.2-0.2,0.2-0.2s0.7,0,1.6,1.8C41.4,41,41.4,41.6,41.4,41.6z"/>
	</g>
	<g>
		<path class="st21" d="M24.7,57.2c0-0.1,1,2.5,2.8,3.9c-1-0.2-2.4-1.1-2.4-1.1S24.3,59.2,24.7,57.2z"/>
	</g>
	<g>
		<path class="st21" d="M26.2,59.7c0,0,1.8,1.4,3,1.7c0.4,0.3-0.9,0.3-1,0.2c0,0-2.5-1-2.5-1.1C25.7,60.6,26.2,59.7,26.2,59.7z"/>
	</g>
	<g>
		<path class="st14" d="M56.7,29c0,0-0.8-0.5,0.6-2"/>
		<path class="st4" d="M56.6,29.2c0,0-0.3-0.2-0.3-0.5c-0.1-0.5,0.2-1,0.9-1.7l0.2,0.2c-0.7,0.7-0.8,1.2-0.8,1.4
			c0,0.2,0.2,0.3,0.2,0.3L56.6,29.2z"/>
	</g>
	<g>
		<path class="st7" d="M57.8,92.9c0,0-4.4-7.3-5.6-8s-12.7-3-12.7-3l-4.4,1c0,0,0,0,0,0l7.5,0.4l3.9,6.6L44.8,92l1.8,1.1l-1.1,1.4
			c0,0,0,0.1,0,0.1C46,94.7,51.1,95.4,57.8,92.9z"/>
		<path class="st4" d="M48,94.9c-1.4,0-2.3-0.1-2.5-0.2c-0.1,0-0.1-0.1-0.1-0.1c0-0.1,0-0.1,0-0.2l1-1.2L44.5,92l1.8-2.2l-3.8-6.4
			L35,83.1l0-0.1c0-0.1,0-0.2,0.1-0.2l4.4-1l0,0c0.5,0.1,11.5,2.3,12.7,3c1.2,0.7,5.5,7.8,5.6,8.1l0.1,0.2L57.9,93
			C53.7,94.6,50.2,94.9,48,94.9z M45.7,94.5c1.1,0.1,5.8,0.6,11.9-1.7c-1.5-2.6-4.5-7.3-5.4-7.8c-1.1-0.7-11.9-2.9-12.6-3l-3.4,0.8
			l6.6,0.3l4,6.7L45,92l1.8,1.1L45.7,94.5z"/>
	</g>
	<g>
		<path class="st7" d="M52.2,84.9h12.3c0,0-3.6,8.5-4.8,8.3c-1.1-0.2-1.9-0.3-1.9-0.3L52.2,84.9z"/>
		<path class="st4" d="M59.8,93.3C59.7,93.3,59.7,93.3,59.8,93.3c-1.2-0.2-1.9-0.3-1.9-0.3l-0.1,0l0-0.1l-5.8-8.3h12.8l-0.1,0.2
			C64.1,86.4,61,93.3,59.8,93.3z M57.9,92.7c0.2,0,0.9,0.1,1.8,0.3c0.6,0.1,2.8-3.9,4.5-8H52.5L57.9,92.7z"/>
	</g>
	<g>
		<path class="st7" d="M81.8,87.6c-1.3-0.8-17.3-2.7-17.3-2.7l-4.8,8.3l4,8.8c0,0.1,0.2,0.1,0.3,0.1c1.5-0.5,11.9-3.7,19.1,0.9
			C83.4,100.4,81.8,87.6,81.8,87.6z"/>
		<path class="st4" d="M83.2,103.2l-0.2-0.1c-7.2-4.5-17.8-1.2-18.9-0.8c-0.2,0.1-0.4,0-0.4-0.2l-4.1-8.9l4.9-8.4l0.1,0
			c0.7,0.1,16,1.9,17.3,2.7l0.1,0l0,0.1c0.1,0.5,1.6,12.9,1.3,15.4L83.2,103.2z M73.6,100.4c3.1,0,6.5,0.5,9.3,2.3
			c0.2-2.8-1.2-14-1.3-15c-1.3-0.6-11.6-2-17-2.7l-4.7,8.1l4,8.8c0,0,0,0,0.1,0C64.7,101.7,68.9,100.4,73.6,100.4z"/>
	</g>
	<g>
		<path class="st13" d="M32.9,84c-0.1,0-0.1,0.2,0,0.2c2.6,0.8,21,6,28.1,5.7c7.7-0.3,12.7,0.7,13.4,0.7s11.9-0.1,13-1
			c0.4-0.3-0.1-2.3,0-4.6c0.1-2,0.2-4.3,0.3-6.2c0.1-2.3,0.3-4.1,0.3-4.1s-18,5-22.3,4.9l-0.3,3.4l-21.7-1.2c0,0,0.3-3.5-0.2-3.9
			s-5.1-2.6-5.1-2.6c-0.3,0-0.1,2.8,0.1,4.7c0.1,1-0.5,1.9-1.4,2.3l-1.6,0.6L32.9,84z"/>
		<path class="st4" d="M74.4,90.7c-0.2,0-0.5,0-1-0.1c-1.9-0.2-6.3-0.8-12.3-0.6c-7.2,0.3-26-5-28.2-5.7c-0.1,0-0.2-0.1-0.2-0.2
			c0-0.1,0.1-0.2,0.2-0.2l2.6-1.2L37,82c0.9-0.3,1.4-1.2,1.3-2.1c-0.4-4.5-0.2-4.7-0.1-4.8c0,0,0.1-0.1,0.2-0.1l0.1,0
			c0.2,0.1,4.6,2.2,5.1,2.6c0.5,0.4,0.3,2.9,0.2,3.9l21.4,1.2l0.3-3.4l0.1,0c4.2,0.1,22.1-4.8,22.3-4.9l0.2-0.1l0,0.2
			c0,0-0.1,1.8-0.3,4.1c-0.2,2.4-0.3,4.5-0.3,6.2c0,1,0,2,0.1,2.8c0.1,1.1,0.1,1.7-0.2,2C86.2,90.6,74.5,90.7,74.4,90.7z M64,89.6
			c4.5,0,7.8,0.4,9.4,0.6c0.5,0.1,0.8,0.1,1,0.1c1.8,0,11.9-0.2,12.9-1c0.2-0.1,0.1-0.9,0-1.7c-0.1-0.8-0.1-1.7-0.1-2.8
			c0.1-1.7,0.2-3.8,0.3-6.2c0.1-1.8,0.2-3.3,0.3-3.8c-2.1,0.6-17.7,4.8-22,4.8l-0.3,3.4l-22-1.2l0-0.2c0.1-1.7,0.1-3.6-0.1-3.8
			c-0.4-0.3-3.6-1.9-4.9-2.5c-0.1,0.2-0.1,1.1,0.2,4.5c0.1,1.1-0.5,2.1-1.5,2.5l-1.6,0.6l-2.5,1.2C35.9,84.9,54,90,61,89.7
			C62.1,89.6,63.1,89.6,64,89.6z"/>
	</g>
	<g>
		<polyline class="st7" points="67.4,89.9 65.6,91.6 65.1,93.9 63.3,93.9 61.5,97.1 		"/>
		<polygon class="st4" points="61.7,97.2 61.4,97 63.2,93.8 65,93.8 65.5,91.5 67.3,89.8 67.5,90 65.8,91.7 65.2,94.1 63.4,94.1 		
			"/>
	</g>
	<g>
		<path class="st13" d="M87.4,84.9c0,0-3.1,3.2-5.9,1.9"/>
		<path class="st4" d="M82.9,87.3c-0.5,0-1-0.1-1.5-0.3c-0.1,0-0.1-0.1-0.1-0.2c0-0.1,0.1-0.1,0.2-0.1c2.7,1.2,5.7-1.9,5.7-1.9
			c0.1-0.1,0.2-0.1,0.2,0c0.1,0.1,0.1,0.2,0,0.2C87.4,85.1,85.3,87.3,82.9,87.3z"/>
	</g>
	<g>
		<path class="st13" d="M69.2,84.9c6.3,1.1,9.2,0.5,13.7-0.4"/>
		<path class="st4" d="M75.3,85.6c-1.7,0-3.7-0.2-6.2-0.6c-0.1,0-0.1-0.1-0.1-0.2c0-0.1,0.1-0.1,0.2-0.1c6.3,1.1,9.2,0.5,13.6-0.4
			l0,0c0.1,0,0.2,0,0.2,0.1c0,0.1,0,0.2-0.1,0.2l0,0C80.2,85.2,78,85.6,75.3,85.6z"/>
	</g>
	<g>
		<g>
			<line class="st13" x1="83.9" y1="83.7" x2="86.3" y2="78.5"/>
			<path class="st4" d="M83.9,83.9C83.9,83.9,83.8,83.9,83.9,83.9c-0.1,0-0.2-0.1-0.1-0.2l2.4-5.2c0-0.1,0.1-0.1,0.2-0.1
				c0.1,0,0.1,0.1,0.1,0.2L84,83.8C84,83.9,83.9,83.9,83.9,83.9z"/>
		</g>
		<g>
			<line class="st13" x1="82.4" y1="82.6" x2="84.8" y2="77.4"/>
			<path class="st4" d="M82.4,82.8C82.4,82.8,82.3,82.8,82.4,82.8c-0.1,0-0.2-0.1-0.1-0.2l2.4-5.2c0-0.1,0.1-0.1,0.2-0.1
				c0.1,0,0.1,0.1,0.1,0.2l-2.4,5.2C82.5,82.7,82.4,82.8,82.4,82.8z"/>
		</g>
		<g>
			<line class="st13" x1="83.1" y1="78.3" x2="86.6" y2="81"/>
			<path class="st4" d="M86.6,81.1C86.6,81.1,86.5,81.1,86.6,81.1L83,78.4c-0.1-0.1-0.1-0.1,0-0.2c0.1-0.1,0.1-0.1,0.2,0l3.5,2.6
				c0.1,0.1,0.1,0.1,0,0.2C86.7,81.1,86.7,81.1,86.6,81.1z"/>
		</g>
		<g>
			<line class="st13" x1="81.8" y1="80.3" x2="85.4" y2="82.9"/>
			<path class="st4" d="M85.4,83.1C85.4,83.1,85.3,83,85.4,83.1l-3.6-2.7c-0.1-0.1-0.1-0.1,0-0.2c0.1-0.1,0.1-0.1,0.2,0l3.5,2.6
				c0.1,0.1,0.1,0.1,0,0.2C85.5,83,85.4,83.1,85.4,83.1z"/>
		</g>
	</g>
	<g>
		<path class="st13" d="M57.8,89.7c0,0-5.6-1.2-7.9-3"/>
		<path class="st4" d="M57.8,89.9C57.8,89.9,57.8,89.9,57.8,89.9c-0.3-0.1-5.6-1.2-8-3.1c-0.1-0.1-0.1-0.1,0-0.2
			c0.1-0.1,0.1-0.1,0.2,0c2.3,1.8,7.8,3,7.9,3c0.1,0,0.1,0.1,0.1,0.2C58,89.8,57.9,89.9,57.8,89.9z"/>
	</g>
	<g>
		<path class="st21" d="M29,53.5C29,53.5,29,53.5,29,53.5c-0.7-0.2-1.7-0.5-2.7-1.1c-0.1,0-0.1-0.1-0.1-0.2c0-0.1,0.1-0.1,0.2-0.1
			c1,0.6,1.9,0.9,2.5,1.1c0.1,0,0.1,0.1,0.1,0.2C29.2,53.5,29.1,53.5,29,53.5z"/>
	</g>
	<g>
		<path class="st21" d="M27.7,56.1C27.7,56.1,27.7,56.1,27.7,56.1c-1-0.2-1.8-0.5-2.4-0.8c-0.1,0-0.1-0.1-0.1-0.2
			c0-0.1,0.1-0.1,0.2-0.1c0.5,0.3,1.3,0.6,2.2,0.8c0.1,0,0.1,0.1,0.1,0.2C27.8,56.1,27.8,56.1,27.7,56.1z"/>
	</g>
	<g>
		<path class="st21" d="M27.1,58.4C27.1,58.4,27.1,58.4,27.1,58.4c-1.2-0.3-1.8-0.4-2.3-0.8c-0.1,0-0.1-0.1,0-0.2
			c0-0.1,0.1-0.1,0.2,0c0.4,0.3,1,0.5,2.2,0.8c0.1,0,0.1,0.1,0.1,0.2C27.2,58.4,27.1,58.4,27.1,58.4z"/>
	</g>
	<g>
		<path class="st14" d="M37.2,43.5c0,0-1.2,2.7-3,2.5c-0.8-0.1-1.4-0.8-1.7-1.7"/>
		<path class="st4" d="M34.3,46.1c-0.1,0-0.1,0-0.2,0c-0.8-0.1-1.5-0.7-1.8-1.8l0.3-0.1c0.2,0.7,0.7,1.5,1.6,1.6
			c1.7,0.2,2.9-2.4,2.9-2.4l0.3,0.1C37.3,43.6,36.1,46.1,34.3,46.1z"/>
	</g>
	<g>
		<path class="st13" d="M74.4,90.5c0,0,5.3-0.1,7.6-1.4"/>
		<path class="st4" d="M74.4,90.7l0-0.3c0.1,0,5.2-0.1,7.5-1.4l0.1,0.3C79.7,90.5,74.6,90.7,74.4,90.7z"/>
	</g>
	<g>
		<path class="st13" d="M57.1,85.7c0,0,7.1,1.5,11.6,1.4"/>
		<path class="st4" d="M68.1,87.3c-4.5,0-10.9-1.4-11-1.4c-0.1,0-0.1-0.1-0.1-0.2c0-0.1,0.1-0.1,0.2-0.1c0.1,0,7.2,1.5,11.6,1.4
			c0,0,0,0,0,0c0.1,0,0.2,0.1,0.2,0.1c0,0.1-0.1,0.2-0.1,0.2C68.5,87.3,68.3,87.3,68.1,87.3z"/>
	</g>
	<g class="st27">
		<path class="st18" d="M87.6,54.8c0,0,3.8-0.8,7.5,2.4c-1.9-2.1-3.7-3.1-6.9-2.6C87.9,54.6,87.7,54.8,87.6,54.8"/>
	</g>
	<g>
		<path class="st28" d="M38.2,81.7c-0.4,0.3-0.7,0.5-1.5,0.9C35.8,83,33.4,84,33.4,84l0.5,0.2c0,0,0.2,0,2.4-1.1
			c2.3-0.7,2.5-2,2.5-2s0,0,0.2-1c-0.3-1.2-0.2-4.3-0.3-4.5l-0.3-0.2l0.2,3.8l0.1,1.1C38.7,80.3,38.7,81.2,38.2,81.7z"/>
	</g>
	<g>
		<path class="st25" d="M69.6,31.8c0,0,0.8,6.6-0.4,7.8c-0.1,2.5,0,3.9,0,3.9s-1.1,1.8-1.6,3.9c-0.5,2.1-0.7,3.3-0.7,3.3l-1.5-0.5
			c0,0-0.8,0.2-0.8,0.9c0,0.7,0.4,2.9,0,3.7c-0.4,0.8-1.9,3.2-1.9,3.2s-2-0.9-2.2-0.1c-0.2,0.8-0.7,2.1-0.7,2.1s-1.3,2.8-1.4,3.2
			c0,0.3-0.4,2.4-0.4,2.4s1.5-0.6,1.6-1.3c0.1-0.7,0.2-3.6,0.7-3.5c0.6,0.2,0.9,0.8,0.9,0.8s0.1-0.8,0-0.9c0-0.1-0.2-1.8-0.2-1.8
			l0.1-0.5l0.8,0.6l0.5,0.5l3.3-4.6l0-1.9l0-1.4l1.4,0.5l1.3-3.7l0.5-2.7l0.4-0.6l0.7,0.1l0.7-4.7l0.5-1.6v-8.2c0,0-0.9,1.1-1,1
			C70.2,31.7,69.6,31.8,69.6,31.8z"/>
	</g>
	<g>
		<path class="st25" d="M54.2,32.7c0,0,4.2-1.4,5.4-1.8c0.1,0,0.2,0,0.3,0c0.9,0.3,4.5,1.9,5.2,2C65,33.1,65,33.1,65,33.1l-3-0.3
			l-2.4-0.9c0,0-3,0.9-3.1,0.9s-2,0.2-2,0.2L54.2,32.7z"/>
	</g>
	<g>
		<path class="st14" d="M59.5,31.8c0,0-3.6,1.4-4.8,1.1c-1.2-0.3,0,1.7,0,1.7s0.9,2.7,4.6,1c0,0,2.6,1.9,4.8,0.7
			c2.2-1.2,0.8-3.2,0.8-3.2S61.8,33.2,59.5,31.8z"/>
		<path d="M62.5,36.8c-1.5,0-2.9-0.8-3.2-1.1c-1.3,0.6-2.4,0.7-3.3,0.4c-1-0.4-1.3-1.3-1.4-1.4c-0.2-0.3-0.8-1.4-0.5-1.8
			c0.1-0.2,0.3-0.2,0.6-0.1c1.2,0.3,4.7-1,4.7-1l0.1,0l0.1,0c2.2,1.3,5.3,1.2,5.3,1.2l0.1,0l0,0.1c0,0,0.6,0.9,0.4,1.9
			c-0.1,0.6-0.6,1.1-1.3,1.5C63.6,36.7,63,36.8,62.5,36.8z M59.3,35.4L59.3,35.4c0.1,0.1,2.6,1.9,4.7,0.7c0.6-0.3,1-0.8,1.1-1.3
			c0.2-0.7-0.2-1.4-0.3-1.6c-0.5,0-3.3,0-5.4-1.2c-0.5,0.2-3.6,1.3-4.8,1c-0.1,0-0.3-0.1-0.3,0c-0.1,0.2,0.1,0.9,0.5,1.5l0,0
			c0,0,0.3,0.9,1.2,1.3C56.9,36.2,58,36.1,59.3,35.4L59.3,35.4z"/>
	</g>
	<g>
		<path class="st4" d="M63.8,34.5C63.8,34.5,63.8,34.4,63.8,34.5c-2-1.1-8.1,0-8.1,0c-0.1,0-0.2,0-0.2-0.1c0-0.1,0-0.2,0.1-0.2
			c0.3,0,6.2-1.1,8.3,0c0.1,0,0.1,0.1,0.1,0.2C63.9,34.4,63.9,34.5,63.8,34.5z"/>
	</g>
	<g>
		<path class="st15" d="M65.6,83.2l0.3-3.4l1.3-0.1c-0.7,3-0.2,4.8-0.2,4.8l-22-1.5l0-1L65.6,83.2z"/>
	</g>
	<g>
		<path class="st19" d="M45.6,87.8l1.2,2.1L45.2,92l1.7,1.1l-1,1.3l0.8,0.1l1.2-1.6l-1.3-1.2l1.6-1.9c0,0-0.6-1.4-0.7-1.6L45.6,87.8
			z"/>
	</g>
	<g>
		<polygon class="st19" points="65.6,90.1 64.5,90.6 64.2,92.7 62.6,92.7 61.1,95.3 61.6,96.5 63.1,93.7 64.9,93.7 65.4,91.5 
			66.9,90.1 		"/>
	</g>
	<g>
		<path class="st21" d="M69.1,65c0,0,1.8,1.7,3.2,1.4c0.4-0.1,0.8-0.1,1.2,0c1,0.3,3.1,0.8,5.6-0.4c0.3-0.1,0.7-0.1,1,0
			c2,0.8,9.4,3.2,16.2-1.5l-0.1,0.3c0,0-0.2,0.5-0.4,0.7c-0.2,0.2-0.7,0.9-1.3,1.3c-0.6,0.4-1,0.6-1.7,0.7c-0.8,0.2-1.6,0.4-1.6,0.4
			s-2.2,0.5-2.8,0.5c-0.8,0.1-1.6,0.3-2.9,0.2c-1.2-0.2-2.5-0.5-3.3-0.7c-0.8-0.2-2.3-0.7-2.8-1.1c-0.1,0-1.9,0.7-2.8,0.8
			c-1,0.1-0.9,0.2-1.8,0.1c-0.1,0-0.6,0-1.1-0.2s-1-0.4-1-0.4s-1,0.7-1.8,0.6c-0.2,0-0.4-0.1-0.5-0.1c-0.1-0.1-1.3-0.8-1.4-1.7
			C69,65.4,69.1,65,69.1,65S68,64.7,69.1,65z"/>
	</g>
	<g>
		<path class="st19" d="M46.5,88c1.6,0.4,8,1.6,8,1.6s3.2,0.4,4.1,0.5c0.9,0.1,3.1,0,5.1,0c1.6-0.3,8.2,0.4,10.8,0.7
			c2.1,0.1,7.4-0.3,7.4-0.3l0.2,1.8c0,0-5.3,0.3-8.4,0.2c-0.2,0-0.5-0.1-0.7-0.1c-2.5-1-9.9-1-11-1c-1.2,0.1-7.7-0.3-11.8-1.2
			C46.1,89.4,39,86.2,39,86.2S45.2,87.7,46.5,88z"/>
	</g>
	<g>
		<line class="st7" x1="60.7" y1="91.6" x2="61.5" y2="89.9"/>
		
			<rect x="60.2" y="90.6" transform="matrix(0.4589 -0.8885 0.8885 0.4589 -47.548 103.3687)" class="st4" width="1.9" height="0.3"/>
	</g>
	<g>
		<line class="st7" x1="55.4" y1="89.4" x2="56.9" y2="91.5"/>
		<rect x="56" y="89.2" transform="matrix(0.8114 -0.5844 0.5844 0.8114 -42.2879 49.8561)" class="st4" width="0.3" height="2.5"/>
	</g>
	<g>
		<line class="st7" x1="65.6" y1="91.6" x2="67.4" y2="89.9"/>
		
			<rect x="65.3" y="90.6" transform="matrix(0.7226 -0.6913 0.6913 0.7226 -44.2827 71.1667)" class="st4" width="2.5" height="0.3"/>
	</g>
	<g>
		<line class="st7" x1="46.5" y1="89.8" x2="45.1" y2="87.4"/>
		
			<rect x="45.7" y="87.2" transform="matrix(0.8699 -0.4933 0.4933 0.8699 -37.7442 34.136)" class="st4" width="0.3" height="2.9"/>
	</g>
	<g>
		<path class="st26" d="M68.4,10.6c0,0,7.8,1.4,8.7,8.6c0.5,5.9,0.7,5.4,0.7,5.4v-5.5C77.7,19.1,77.3,10.7,68.4,10.6z"/>
	</g>
	<g class="st27">
		<path class="st18" d="M69.5,56.8c0,0,2.1-1.4,4.2-1.1c0,0,3.6,0.9,6.5,1.4c2.8,0.2,7.9-2.5,7.9-2.5s-1.5,0.2-2.4,0.6
			c-0.9,0.4-2.3,0.9-2.5,1c-0.2,0.1-2.3,0.7-3,0.6c-0.7-0.1-0.8-0.1-1.1-0.1c-0.3-0.1-4.2-1.3-6-1.3c-1.5,0-1.8,0.1-1.8,0.1
			S69.6,55.9,69.5,56.8z"/>
	</g>
	<g>
		<path class="st13" d="M35.7,82.9c0,0,0.5,0.7,1.4,1"/>
		<path class="st4" d="M37.1,84C37.1,84,37.1,84,37.1,84c-1-0.3-1.5-1-1.5-1.1c-0.1-0.1,0-0.2,0-0.2c0.1-0.1,0.2,0,0.2,0
			c0,0,0.5,0.6,1.3,0.9c0.1,0,0.1,0.1,0.1,0.2C37.2,84,37.2,84,37.1,84z"/>
	</g>
	<g>
		<path class="st13" d="M46,84.5c-3.5-0.2-7.4-3.2-7.4-3.2s-0.3,1,0.5,1.6"/>
		<path class="st4" d="M46,84.6C46,84.6,45.9,84.6,46,84.6c-3.1-0.2-6.5-2.4-7.3-3.1c0,0.3,0,0.8,0.5,1.2c0.1,0,0.1,0.1,0,0.2
			c0,0.1-0.1,0.1-0.2,0c-0.8-0.5-0.7-1.4-0.6-1.8l0.1-0.2l0.2,0.1c0,0,3.9,3,7.3,3.1c0.1,0,0.2,0.1,0.1,0.2
			C46.1,84.6,46,84.6,46,84.6z"/>
	</g>
	<g>
		<path class="st26" d="M33.4,84.7c0,0-2.8,1.5-3.2,2.4s-1.3,3.1-0.8,8.7L29,95.9l-0.3-1.2c0,0-0.6-5.8,0.8-7.9
			c0.4-0.5,2.4-2.3,3.1-2.4C33.4,84.7,33.4,84.7,33.4,84.7z"/>
	</g>
	<g>
		<path class="st16" d="M40.6,59.2c0,0-2.4,3.7-3.1,8.6c-0.1,0.9-0.2,1.8-0.2,2.8c0,0.5,0.2,1.6,0.3,2.1c0.2,0.8,0.8,1.8,0.9,2.3
			c0,0-0.6-0.9-0.7-0.9C37.8,74.1,34.5,68,40.6,59.2z"/>
	</g>
	<g>
		<path class="st26" d="M28.1,96.3l1.3,2.6c0,0,0.1,0.7,0,0.8c-0.1,0.2-0.4,0.2-0.4,0.2l-1.2-0.2l0.5,1l-0.2,0.2l0,0l-1.1-1.8
			l1.9,0.6c0,0,0.4,0,0.3-0.4c-0.1-0.3-0.3-0.8-0.3-0.8s-1.3-2.4-1.3-2.4S28.1,96.3,28.1,96.3z"/>
	</g>
	<g>
		<path class="st26" d="M70.2,105c-1,0.4-3.3,1.9-4.5,3.4c-0.8,1-1.1,2.2-1.1,2.5c0,0.2,0,0.4,0.3,1.3c0.4,0.9,1.9,1.4,1.9,1.4
			C62,110.4,70.3,105,70.2,105L70.2,105z"/>
	</g>
	<g>
		<path class="st26" d="M63.2,102.2l2,2.3c0,0,0.2,1-0.7,0.8c-0.8-0.3-1.1-0.2-1.1-0.2l2.1,2.8l-0.2,0.4c0,0-2.8-3.8-2.8-3.8
			c0,0,1.8,0.5,1.8,0.5s0.6-0.1,0.2-0.6c-0.4-0.5-2.4-2.7-2.4-2.7L63.2,102.2z"/>
	</g>
	<g>
		<path class="st26" d="M58,15.8l-0.9,8.7c0,0.5,0.3,1,0.8,1l1.7,0.1l-2.9,0l1-9.8L58,15.8z"/>
	</g>
	<g>
		<path class="st21" d="M32.3,44.6c0,0,0.6,2,2.5,1.5c1.3-0.4,1.9-1.4,1.9-1.4l0.5-0.8c0,0,0.7,0.3,1.5,0c-0.9,0.8-1.5,0.9-1.6,0.8
			c-0.1,0-1.1,2-2.7,1.8C32.7,46.5,32.3,45.7,32.3,44.6z"/>
	</g>
	<g>
		<path class="st21" d="M91.1,65.3C91.1,65.3,91.1,65.3,91.1,65.3c-0.1,0-0.2-0.1-0.1-0.2c0.9-2.9,0.2-5-0.6-6.2
			c-0.8-1.3-1.8-2-1.8-2c-0.1,0-0.1-0.1,0-0.2c0-0.1,0.1-0.1,0.2,0c0,0,4.3,2.7,2.6,8.5C91.2,65.3,91.1,65.3,91.1,65.3z"/>
	</g>
	<g>
		<path class="st21" d="M88.2,65.6C88.2,65.6,88.1,65.6,88.2,65.6c-0.1,0-0.2-0.1-0.1-0.2c0.9-2.9,0.2-5-0.6-6.2
			c-0.8-1.3-1.8-2-1.8-2c-0.1,0-0.1-0.1,0-0.2c0-0.1,0.1-0.1,0.2,0c0,0,4.3,2.7,2.6,8.5C88.3,65.5,88.2,65.6,88.2,65.6z"/>
	</g>
	<g>
		<path class="st21" d="M93.8,65.3C93.8,65.3,93.8,65.3,93.8,65.3c-0.1,0-0.2-0.1-0.1-0.2c0.9-2.9,0.1-5-0.6-6.2
			c-0.8-1.3-1.8-2-1.8-2c-0.1,0-0.1-0.1,0-0.2c0-0.1,0.1-0.1,0.2,0c0,0,4.3,2.7,2.6,8.5C93.9,65.3,93.9,65.3,93.8,65.3z"/>
	</g>
	<g>
		<path class="st4" d="M93.6,65.6C93.6,65.6,93.6,65.6,93.6,65.6c-0.1,0-0.2-0.1-0.1-0.2c0.9-2.9,0.2-5-0.6-6.2
			c-0.8-1.3-1.8-2-1.8-2c-0.1,0-0.1-0.1,0-0.2s0.1-0.1,0.2,0c0,0,4.3,2.7,2.6,8.5C93.7,65.5,93.7,65.6,93.6,65.6z"/>
	</g>
	<g>
		<path class="st4" d="M90.7,65.6C90.7,65.6,90.7,65.6,90.7,65.6c-0.1,0-0.2-0.1-0.1-0.2c0.9-2.9,0.2-5-0.6-6.2
			c-0.8-1.3-1.8-2-1.8-2c-0.1,0-0.1-0.1,0-0.2c0-0.1,0.1-0.1,0.2,0c0,0,4.3,2.7,2.6,8.5C90.8,65.5,90.8,65.6,90.7,65.6z"/>
	</g>
	<g>
		<path class="st4" d="M87.8,65.6C87.8,65.6,87.8,65.6,87.8,65.6c-0.1,0-0.2-0.1-0.1-0.2c0.9-2.9,0.2-5-0.6-6.2
			c-0.8-1.3-1.8-2-1.8-2c-0.1,0-0.1-0.1,0-0.2s0.1-0.1,0.2,0c0,0,4.3,2.7,2.6,8.5C87.9,65.5,87.9,65.6,87.8,65.6z"/>
	</g>
	<g>
		<path class="st4" d="M27.3,58.1C27.3,58.1,27.2,58.1,27.3,58.1c-2-0.4-3.1-1.1-3.3-2c-0.2-1.1,1.1-2,1.2-2c0.1,0,0.2,0,0.2,0
			c0,0.1,0,0.2,0,0.2c0,0-1.2,0.9-1.1,1.7c0.1,0.7,1.2,1.3,3,1.7c0.1,0,0.1,0.1,0.1,0.2C27.4,58.1,27.3,58.1,27.3,58.1z"/>
	</g>
	<g>
		<path class="st4" d="M28,55.9C28,55.9,28,55.9,28,55.9c-2-0.4-3.1-1.1-3.3-2c-0.2-1.1,1.1-2,1.2-2c0.1,0,0.2,0,0.2,0
			c0,0.1,0,0.2,0,0.2c0,0-1.2,0.9-1.1,1.7c0.1,0.7,1.2,1.3,3,1.7c0.1,0,0.1,0.1,0.1,0.2C28.2,55.9,28.1,55.9,28,55.9z"/>
	</g>
	<g>
		<path class="st4" d="M29.2,53.2C29.2,53.2,29.2,53.2,29.2,53.2c-2-0.4-3.1-1.1-3.3-2c-0.2-1.1,1.1-2,1.2-2c0.1,0,0.2,0,0.2,0
			c0,0.1,0,0.2,0,0.2c0,0-1.2,0.9-1.1,1.7c0.1,0.7,1.2,1.3,3,1.7c0.1,0,0.1,0.1,0.1,0.2C29.3,53.1,29.3,53.2,29.2,53.2z"/>
	</g>
	<g>
		<polygon class="st26" points="60.2,92.9 61.8,96 61.6,96.5 60,93.2 		"/>
	</g>
	<g>
		<polygon class="st26" points="62.1,96.7 64.5,101.7 63.9,101.8 61.8,97.1 		"/>
	</g>
	<g>
		<polygon class="st19" points="60.6,26.1 61.5,26.5 57.4,26.8 56.9,26.1 		"/>
	</g>
	<g>
		<path class="st26" d="M48.1,12.8c0,0-1.5,3.4-1.5,4.8c-0.1,1.4-0.6,22-0.6,22l-0.6-0.2l0.5-22C45.8,17.4,46.1,14.7,48.1,12.8z"/>
	</g>
	<g>
		<defs>
			<path id="SVGID_1_" d="M25.6,104.7c10.8,2.5,22.1,0.2,22.1,0.2l0.4-9.7c0,0-2.7,2.4-3,2.4s-8,0.1-8.8,0c-0.8-0.1-8.3-1.1-8.6-1.1
				c-0.3-0.1-1.7-1.9-1.7-2.2C26.1,94,25.6,104.7,25.6,104.7z"/>
		</defs>
		<clipPath id="SVGID_2_">
			<use xlink:href="#SVGID_1_"  style="overflow:visible;"/>
		</clipPath>
		<g class="st29">
			<path class="st7" d="M46.1,107.2c0,0-4.2,2.1-14.9,1.3c-7.7-0.6-5.7-6.1,0-9.2c7.9-4.3,12.6,3.5,14.8,5.1L46.1,107.2z"/>
			<path class="st4" d="M35.9,108.8c-1.4,0-2.9-0.1-4.7-0.2c-3.8-0.3-4.9-1.7-5.1-2.8c-0.4-2,1.6-4.8,5.1-6.7
				c6.5-3.6,10.9,1,13.5,3.7c0.6,0.6,1.1,1.2,1.5,1.5l0.1,0l0,2.9l-0.1,0C46,107.4,43.1,108.8,35.9,108.8z M35.8,98.1
				c-1.4,0-2.9,0.4-4.5,1.3c-3.3,1.8-5.3,4.4-4.9,6.3c0.3,1.4,2,2.4,4.9,2.6c9.6,0.7,14-1,14.7-1.3l0-2.6c-0.4-0.3-0.9-0.8-1.5-1.4
				C42.6,101.1,39.7,98.1,35.8,98.1z"/>
		</g>
	</g>
	<g>
		<path class="st26" d="M27.2,105c0.3-2.8,5-5.9,5-5.9h-0.1c-1,0.4-3.3,1.9-4.5,3.4c-0.7,0.9-1,1.9-1.1,2.4"/>
	</g>
</g>
</svg>
