<?xml version="1.0" encoding="utf-8"?>
<!-- Generator: Adobe Illustrator 24.0.1, SVG Export Plug-In . SVG Version: 6.00 Build 0)  -->
<svg version="1.1" id="Layer_1" xmlns="http://www.w3.org/2000/svg" xmlns:xlink="http://www.w3.org/1999/xlink" x="0px" y="0px"
	 viewBox="0 0 878 790.1" style="enable-background:new 0 0 878 790.1;" xml:space="preserve">
<style type="text/css">
	.st0{fill:none;stroke:#000000;stroke-width:0.75;stroke-miterlimit:10;}
	.st1{fill:none;stroke:#000000;stroke-width:0.75;stroke-miterlimit:9.9995;}
	.st2{fill:none;stroke:#000000;stroke-width:0.75;stroke-miterlimit:9.9999;}
	.st3{fill:none;stroke:#000000;stroke-width:0.75;stroke-miterlimit:10.0002;}
	.st4{clip-path:url(#SVGID_2_);fill:none;stroke:#000000;stroke-miterlimit:10;}
	.st5{fill:none;stroke:#FFFFFF;stroke-width:3;stroke-linecap:round;stroke-miterlimit:10;}
	.st6{fill:none;stroke:#000000;stroke-miterlimit:10;}
	.st7{fill:none;stroke:#000000;stroke-width:1;stroke-miterlimit:10;}
	.st8{fill:none;stroke:#000000;stroke-width:1;stroke-miterlimit:10.0002;}
	.st9{fill:none;stroke:#000000;stroke-width:1;stroke-miterlimit:9.9997;}
</style>
<g>
	<g>
		<g>
			<path class="st0" d="M109.6,310.7c-0.6,0-1.2-0.2-1.7-0.9c-0.1-0.1-0.4-0.3-0.4-0.7c0-0.2,0.1-0.5,0.4-0.7
				c0.8-0.7,2.3-2.4,2.3-2.4c0-0.1,0.2-0.2,0.3-0.2c0,0,0.1,0,0.1,0.1l0,0l0,0c0,0,0.1,0.4,0.4,0.6c0.3,0.2,0.8,0.3,1.4,0.1
				c0,0,0.1-0.1,0.2,0c0,0,0.1,0.1,0.1,0.1c0,0.2-1,3-1.1,3.3l0,0l0,0C111.5,310,110.6,310.7,109.6,310.7z M110.4,305.9
				c-0.1,0-0.2,0.1-0.2,0.1c0,0-1.5,1.6-2.3,2.4c-0.2,0.2-0.4,0.4-0.4,0.7c0,0.4,0.4,0.6,0.4,0.6l0,0c1.2,1.7,3.3,0.4,3.5,0.2
				c0.4-1.2,1.1-3.1,1.1-3.2c0-0.1,0-0.1,0-0.1c-0.1,0-0.1,0-0.2,0c-0.6,0.1-1.1,0.1-1.5-0.1C110.5,306.3,110.4,306,110.4,305.9
				L110.4,305.9L110.4,305.9z"/>
			<path class="st0" d="M109.6,310.8c-0.7,0-1.3-0.3-1.7-0.9c-0.1-0.1-0.4-0.4-0.4-0.8c0-0.3,0.1-0.6,0.4-0.9
				c0.8-0.7,2.2-2.4,2.3-2.4c0.1-0.1,0.2-0.2,0.4-0.2l0,0c0.1,0,0.1,0.1,0.2,0.1l0,0v0.1l0,0c0,0,0.1,0.3,0.4,0.6
				c0.3,0.2,0.7,0.2,1.3,0.1c0,0,0.2-0.1,0.3,0c0.1,0,0.1,0.1,0.1,0.2s-0.4,1.2-1.1,3.3v0.1l-0.1,0.1
				C111.6,310.2,110.6,310.8,109.6,310.8z M110.4,306L110.4,306c-0.1,0.1-1.5,1.7-2.4,2.4c-0.2,0.2-0.3,0.4-0.3,0.6
				c0,0.3,0.3,0.6,0.3,0.6l0,0c1.1,1.5,3,0.4,3.3,0.2c0.5-1.3,0.9-2.7,1.1-3l0,0c-0.7,0.2-1.2,0.1-1.6-0.2
				C110.5,306.4,110.4,306.2,110.4,306z"/>
		</g>
	</g>
	<g>
		<g>
			<path class="st0" d="M158.6,224.8L158.6,224.8l33.7-58.8c-3,0.1-4-1.5-4.1-1.9l-32.7,58.9l-0.1-0.1l32.7-59v0.1
				c0,0,0.7,2.1,4.1,1.9h0.1l-0.1,0.1L158.6,224.8z"/>
			<path class="st0" d="M158.6,224.9l-0.3-0.2l0.1-0.1l33.7-58.5H192c-2.5,0-3.5-1.2-3.8-1.8L155.5,223l-0.3-0.2l0.1-0.1l32.9-59.2
				l0.1,0.4c0,0,0.7,2,4,1.9h0.3l-0.2,0.2L158.6,224.9z"/>
		</g>
	</g>
	<g>
		<g>
			<polygon class="st0" points="110.5,305.9 110.4,305.9 116.7,294.3 147.2,239 147.7,237.8 155.6,223.3 155.7,223.3 147.8,237.9 
				147.2,239 116.8,294.4 			"/>
			<polygon class="st0" points="110.5,306.1 110.3,305.9 110.4,305.8 116.6,294.3 147.1,238.9 147.6,237.8 155.5,223.1 155.9,223.3 
				155.8,223.4 147.9,237.9 147.4,239 116.9,294.4 			"/>
		</g>
	</g>
	<g>
		<g>
			<polygon class="st0" points="112.5,306.6 112.5,306.6 150,239.2 150,239.2 			"/>
			<polygon class="st0" points="112.6,306.8 112.3,306.6 112.3,306.5 149.9,239 150.2,239.2 150.2,239.2 			"/>
		</g>
	</g>
	<g>
		<g>
			<path class="st0" d="M147.7,238.1L147.7,238.1c-0.1-0.3-0.1-1.1-0.4-1.1h-0.1l0.1-0.1l-1-0.8l-0.1,0.2l-0.9-0.5
				c-0.2,0.2-0.9,1.3-1.2,1.4c-0.2,0.1-1-0.1-1.3-0.4c-0.1-0.1-0.2-0.2-0.2-0.2c0,0-0.2-1.9,0.9-3.5c1-1.5,2.1-2.4,2.2-2.4
				c0.1,0,1.5,0.8,1.7,1.1c0,0.1,0.1,0.1,0,0.1l-0.9,1.8l1.5,0.9l0,0c0,0,0.2,0.5,1.1,0.4v0.1c-0.9,0.1-1.1-0.3-1.1-0.4l-1.5-1
				l1-1.9l0,0c-0.1-0.3-1.5-1.1-1.7-1.1s-1.2,0.9-2.2,2.4c-1.1,1.6-0.9,3.5-0.9,3.5s0,0.1,0.2,0.2c0.4,0.2,1.1,0.4,1.2,0.4
				c0.2-0.1,0.9-1.1,1.1-1.4v-0.1l0.9,0.4l0.1-0.2l1.2,0.9l-0.1,0.1C147.7,237.1,147.7,238,147.7,238.1z"/>
			<path class="st0" d="M147.8,238.2h-0.3v-0.1c0-0.4-0.1-0.9-0.2-1L147,237l0.1-0.1l-0.7-0.6l-0.1,0.2l-0.9-0.5
				c-0.4,0.5-0.9,1.2-1.2,1.4s-1.1-0.2-1.4-0.4c-0.1-0.1-0.2-0.2-0.2-0.3c0,0-0.2-1.9,0.9-3.6c0.9-1.4,2.1-2.4,2.4-2.4
				c0.2,0,1.7,0.8,1.9,1.2c0.1,0.1,0.1,0.2,0,0.2l-0.9,1.7l1.4,0.9v0.1c0,0,0.2,0.4,0.9,0.3h0.1v0.3h-0.1c-0.8,0.1-1.2-0.3-1.2-0.4
				l-1.6-1l1-1.9c-0.2-0.2-1.3-0.9-1.5-0.9c-0.2,0.1-1.1,0.9-2,2.3c-1,1.5-0.9,3.3-0.9,3.4l0,0c0,0,0.1,0,0.1,0.1
				c0.4,0.2,1,0.4,1.1,0.4c0.1-0.1,0.7-0.7,1.1-1.4l0.1-0.1l0.9,0.4l0.1-0.2l1.4,1.1l-0.1,0.1c0.2,0.4,0.2,1.1,0.2,1.2L147.8,238.2z
				"/>
		</g>
	</g>
	<g>
		<g>
			<polygon class="st0" points="150,239 150,239 158.1,224.8 158.2,224.8 			"/>
			<polygon class="st0" points="150.1,239.2 149.8,239 149.8,239 158.1,224.6 158.4,224.8 			"/>
		</g>
	</g>
	<g>
		<g>
			<path class="st0" d="M155.9,223"/>
		</g>
	</g>
	<g>
		<g>
			<path class="st0" d="M157.8,224.8c-0.5,0-1-0.1-1.4-0.4c-0.8-0.6-1-1.5-1-1.5h0.1c0,0,0.2,1,0.9,1.5c0.6,0.4,1.2,0.5,2.1,0.3v0.1
				C158.3,224.8,158.1,224.8,157.8,224.8z"/>
			<path class="st0" d="M157.8,224.9c-0.6,0-1-0.1-1.4-0.4c-0.9-0.6-1.1-1.7-1.1-1.7v-0.1l0.3-0.1v0.1c0,0.1,0.2,0.9,0.9,1.4
				c0.5,0.4,1.2,0.4,2,0.2h0.1l0.1,0.3h-0.1C158.3,224.9,158.1,224.9,157.8,224.9z"/>
		</g>
	</g>
	<g>
		<g>
			<path class="st0" d="M240.8,361.7c-0.4,0-0.9-0.1-1.5-0.1h-0.1l0.1-3.8h0.1c2.2,0.4,3.3-0.9,3.7-1.2c0.1-0.1,0.1-0.1,0.1-0.1l0,0
				l0,0l0.1,0.1l0,0c0.1,0.2,0.7,2.3,1.2,3.7l0,0l0,0C244.4,360,243.4,361.7,240.8,361.7z M239.4,361.4c3.4,0.7,4.8-1.2,5-1.4
				c-0.1-0.1-0.3-1-0.6-1.8c-0.4-1.1-0.5-1.5-0.6-1.7l0,0c-0.3,0.4-1.5,1.6-3.7,1.3L239.4,361.4z"/>
			<path class="st0" d="M240.8,361.8c-0.5,0-1-0.1-1.5-0.2h-0.1v-0.1l0.1-4h0.2c2.1,0.4,3.2-0.8,3.5-1.2l0.1-0.1l0,0l0.2-0.1
				l0.2,0.2l-0.1,0.1c0.1,0.4,0.6,2,1.2,3.6v0.1v0.1C244.5,360.1,243.5,361.8,240.8,361.8z M239.5,361.3c3.1,0.6,4.4-1,4.7-1.3
				c-0.1-0.2-0.3-1-0.6-1.7c-0.2-0.8-0.4-1.2-0.5-1.5c-0.4,0.5-1.5,1.4-3.5,1.2L239.5,361.3z"/>
		</g>
	</g>
	<g>
		<g>
			<polygon class="st0" points="243.1,356.5 236.7,318.5 228.5,269.9 226.8,259 226.9,259 228.6,269.9 236.7,318.5 243.2,356.5 			
				"/>
			<polygon class="st0" points="243,356.6 236.6,318.5 228.4,269.9 226.7,258.9 227,258.9 227,259 228.7,269.9 236.9,318.5 
				243.3,356.6 			"/>
		</g>
	</g>
	<g>
		<g>
			<polygon class="st0" points="239.5,357.7 234.2,325.1 223.5,260.4 223.6,260.3 234.3,325.1 239.6,357.7 			"/>
			<polygon class="st0" points="239.4,357.9 239.3,357.8 234.1,325.1 223.4,260.3 223.7,260.2 223.7,260.3 234.4,325 239.7,357.8 
							"/>
		</g>
	</g>
	<g>
		<g>
			<path class="st0" d="M230.3,260.5c-0.1,0-0.2,0-0.2,0c-0.1,0-0.1-0.1-0.1-0.1l-0.4-2l-1.7,0.2l0,0c0,0-0.4-0.2-1.1,0.4l-0.1-0.1
				c0.6-0.6,1.1-0.5,1.1-0.4l1.8-0.2l0.4,2l0,0c0.3,0.1,1.9-0.2,1.9-0.3c0.1-0.1,0.4-1.4,0.2-3.2c-0.2-1.9-1.5-3.2-1.5-3.3
				c0,0-0.1-0.1-0.2,0c-0.4,0.1-1.1,0.4-1.2,0.6s-0.1,1.4,0,1.8v0.1l-1,0.2l0.1,0.2l-1.4,0.1v-0.2c-0.4,0.1-0.9-0.6-1-0.6l0,0l0,0
				l-2.7-16.3h0.1l2.7,16.2c0.2,0.2,0.7,0.6,0.9,0.5h0.1v0.2l1.2-0.1l-0.1-0.2l1-0.2c0-0.3-0.1-1.6,0-1.9c0.1-0.2,0.8-0.6,1.2-0.6
				c0.1,0,0.2,0,0.3,0.1c0,0,1.3,1.4,1.5,3.3c0.2,1.8-0.1,3.2-0.2,3.3C232,260.2,230.9,260.5,230.3,260.5z"/>
			<path class="st0" d="M230.3,260.6c-0.1,0-0.2,0-0.2,0c-0.1-0.1-0.2-0.1-0.2-0.2l-0.4-1.9l-1.6,0.2h-0.1c0,0-0.4-0.2-0.9,0.4
				l-0.1,0.1l-0.2-0.2l0.1-0.1c0.6-0.6,1.1-0.6,1.2-0.5l1.9-0.3l0.4,2.1c0.3,0.1,1.5-0.2,1.8-0.3c0.1-0.2,0.3-1.4,0.1-3.2
				c-0.2-1.9-1.4-3.1-1.4-3.2c0,0-0.1,0-0.1,0c-0.4,0.1-1,0.4-1.1,0.5c-0.1,0.1-0.1,1,0,1.7v0.1l-0.9,0.2l0.1,0.2l-1.7,0.1v-0.2
				c-0.4-0.1-0.9-0.6-0.9-0.6l0,0v-0.1l-2.7-16.4l0.3-0.1v0.1l2.7,16.2c0.2,0.2,0.6,0.6,0.7,0.5l0.2-0.1v0.2l0.9-0.1l-0.1-0.2
				l1.1-0.2c-0.1-0.6-0.1-1.5,0.1-1.8c0.2-0.2,0.9-0.6,1.3-0.7c0.2,0,0.3,0,0.4,0.1c0,0,1.4,1.4,1.5,3.4c0.2,1.7-0.1,3.3-0.2,3.4
				C232.1,260.3,230.9,260.6,230.3,260.6z"/>
		</g>
	</g>
	<g>
		<g>
			<polygon class="st0" points="223.4,260.4 219.9,240.4 220,240.3 223.6,260.3 			"/>
			<polygon class="st0" points="223.4,260.5 219.8,240.3 220.1,240.2 220.2,240.3 223.7,260.5 			"/>
		</g>
	</g>
	<g>
		<g>
			<path class="st0" d="M220.8,240.7c-0.5,0-1.1-0.1-1.6-0.3l0,0l0,0l-11.4-71.9l-0.6-2.1c-0.2-0.1-1.2-0.5-1.4-2.7
				c-0.1-0.8,0-1.4,0.4-1.7c0.4-0.4,1.1-0.3,1.1-0.3h4l0,0c0.1,0.1,1.7,2.8,1.2,3.8c-0.1,0.2-0.4,0.4-0.9,0.4l0.1,1.9l12.4,71.5l0,0
				C224.1,239.4,222.8,240.7,220.8,240.7z M219.3,240.3c2.6,1,4.6-0.9,4.8-1.1l-12.4-71.4l-0.2-2h0.1c0.4,0,0.7-0.1,0.8-0.3
				c0.5-0.9-1-3.5-1.2-3.7h-4c0,0-0.6-0.1-1.1,0.3c-0.3,0.3-0.4,0.9-0.3,1.6c0.3,2.3,1.4,2.6,1.4,2.6l0,0l0.6,2.2L219.3,240.3z"/>
			<path class="st0" d="M220.8,240.8c-0.6,0-1.1-0.1-1.6-0.3h-0.1l-0.1-0.1l-11.4-72l-0.5-2c-0.3-0.1-1.2-0.7-1.5-2.7
				c-0.1-0.9,0-1.4,0.4-1.8c0.5-0.5,1.2-0.4,1.2-0.3h4l0.1,0.1c0.2,0.3,1.8,2.9,1.2,4c-0.2,0.3-0.4,0.4-0.8,0.4l0.1,1.7l12.4,71.5
				l-0.1,0.1C224.2,239.4,222.9,240.8,220.8,240.8z M219.4,240.3c2.4,0.9,4.1-0.7,4.5-1l-12.4-71.4l-0.2-2.2h0.2
				c0.4,0,0.6-0.1,0.7-0.2c0.4-0.7-0.5-2.5-1.1-3.5h-3.9c-0.1,0-0.6-0.1-1,0.2c-0.3,0.3-0.4,0.8-0.3,1.5c0.2,2.2,1.3,2.5,1.3,2.5
				h0.1l0.1,0.1l0.6,2.2L219.4,240.3z"/>
		</g>
	</g>
	<g>
		<g>
			<path class="st0" d="M215.2,279.5c-0.9,0-1.6-0.5-1.7-0.5l0,0l0.1-2.2l0.1,0.1c0,0,0.7,0.8,2.8,0.2h0.1l0.1,2l0,0
				C216.2,279.3,215.6,279.5,215.2,279.5z M213.6,278.9c0.2,0.1,1.6,1,3,0l-0.1-1.9c-1.8,0.6-2.6,0.1-2.8-0.1L213.6,278.9z"/>
			<path class="st0" d="M215.2,279.6c-1,0-1.7-0.5-1.7-0.5l-0.1-0.1V279l0.1-2.5l0.2,0.3c0,0,0.7,0.7,2.7,0.1l0.2-0.1l0.1,2.2
				l-0.1,0.1C216.3,279.4,215.8,279.6,215.2,279.6z M213.7,278.8c0.3,0.2,1.5,0.8,2.8,0l-0.1-1.6c-1.4,0.4-2.2,0.2-2.6-0.1
				L213.7,278.8z"/>
		</g>
	</g>
	<g>
		<g>
			<polygon class="st0" points="214,277.1 209.5,226.1 208.4,213.3 208.5,213.3 209.6,226.1 214,277.1 			"/>
			<polygon class="st0" points="213.8,277.2 213.8,277.1 208.3,213.2 208.6,213.2 208.6,213.3 209.7,226.1 214.2,277.2 			"/>
		</g>
	</g>
	<g>
		<g>
			<polygon class="st0" points="216.4,277.1 212.2,225.6 211.2,212.9 211.2,212.9 212.4,225.6 216.4,277.1 			"/>
			<polygon class="st0" points="216.3,277.2 216.3,277.1 212.1,225.7 211,212.8 211.4,212.8 211.4,212.9 212.5,225.6 216.6,277.2 
							"/>
		</g>
	</g>
	<g>
		<g>
			<path class="st0" d="M209.4,213.5c-0.9,0-1.5-0.4-1.5-0.4l0,0l0,0l-3.5-46.9c-0.2,0-1-0.1-1.4-0.7c-0.2-0.3-0.3-0.7-0.2-1.2
				c0.1-0.5,0.1-0.9,0.2-1.2c0.1-0.8,0.1-1.1,0.9-1.2c1.1-0.1,2.4-0.2,2.4-0.2v0.1c0,0-1.3,0.1-2.4,0.2c-0.7,0.1-0.7,0.3-0.8,1.1
				c-0.1,0.3-0.1,0.7-0.2,1.2c-0.1,0.4,0,0.8,0.2,1.1c0.4,0.6,1.4,0.6,1.4,0.6h0.1v0.1l3.5,46.9c0.2,0.1,1.9,1,3.7-0.6l-2.3-33.9
				h0.1l2.3,33.9l0,0C210.9,213.3,210.1,213.5,209.4,213.5z"/>
			<path class="st0" d="M209.4,213.6c-0.9,0-1.5-0.4-1.5-0.4l-0.1-0.1v-0.1l-3.5-46.8c-0.3-0.1-1-0.2-1.4-0.7
				c-0.2-0.3-0.3-0.7-0.2-1.2c0.1-0.4,0.1-0.8,0.2-1.1c0.1-0.8,0.1-1.2,1-1.3l2.5-0.2l0.1,0.3h-0.1c0,0-1.3,0.1-2.4,0.2
				c-0.6,0.1-0.6,0.2-0.7,0.9c-0.1,0.3-0.1,0.7-0.2,1.2c-0.1,0.4,0,0.7,0.2,1c0.4,0.6,1.2,0.6,1.3,0.6h0.1v0.1l3.5,46.8
				c0.4,0.2,1.9,0.8,3.5-0.6l-2.3-33.9h0.3l2.4,34.1l-0.1,0.1C211.1,213.3,210.3,213.6,209.4,213.6z"/>
		</g>
	</g>
	<g>
		<g>
			<path class="st0" d="M182.5,154.4"/>
		</g>
	</g>
	<g>
		<g>
			<path class="st0" d="M192.7,166c-0.1,0-0.2,0-0.3,0v-0.1c0.5,0.1,0.9-0.1,1.2-0.3c0.9-0.7,1.1-2.5,1.2-3.6
				c0.1-0.3,0.1-0.6,0.1-0.7c0.1-0.9-1.9-1.5-3.4-2c-0.7-0.2-1.3-0.4-1.5-0.6c-0.1-0.1-0.2-0.1-0.2-0.1c-0.1,0-0.3,0.2-0.5,0.6
				s-0.5,0.7-0.9,1.3c-1.1,1.2-0.2,3.5-0.2,3.5l-0.1,0.1c0,0-0.9-2.4,0.2-3.7c0.4-0.5,0.7-0.9,0.9-1.2c0.2-0.4,0.4-0.6,0.6-0.6
				c0.1,0,0.2,0,0.3,0.1c0.2,0.1,0.7,0.3,1.4,0.6c1.5,0.5,3.7,1.1,3.5,2.1c-0.1,0.2-0.1,0.4-0.1,0.7c-0.1,1.2-0.3,2.9-1.2,3.7
				C193.4,165.8,193,166,192.7,166z"/>
			<path class="st0" d="M192.7,166.1c-0.1,0-0.2,0-0.3,0h-0.1l0.1-0.3h0.1c0.4,0.1,0.8-0.1,1.1-0.3c0.9-0.7,1.1-2.4,1.2-3.5
				c0.1-0.3,0.1-0.6,0.1-0.7c0.1-0.7-2-1.4-3.3-1.9c-0.8-0.2-1.4-0.4-1.5-0.6c-0.1-0.1-0.1-0.1-0.1-0.1c-0.1,0-0.2,0.2-0.4,0.5
				c-0.2,0.3-0.5,0.8-0.9,1.3c-1.1,1.2-0.1,3.4-0.1,3.4l0.1,0.1l-0.3,0.1L188,164c0,0-1-2.4,0.2-3.8c0.4-0.5,0.7-0.9,0.9-1.2
				c0.2-0.4,0.4-0.7,0.6-0.7c0.1,0,0.2,0.1,0.4,0.2c0.1,0.1,0.8,0.3,1.4,0.5c1.7,0.5,3.8,1.2,3.6,2.2c-0.1,0.2-0.1,0.4-0.1,0.7
				c-0.1,1.2-0.3,3-1.3,3.8C193.5,166,193.1,166.1,192.7,166.1z"/>
		</g>
	</g>
	<g>
		<g>
			<path class="st0" d="M195,161.5C195,161.5,194.9,161.5,195,161.5L195,161.5c0-0.1,0.9,0.1,2.8-7.4c0.6-2.2,0.5-3.5-0.2-4
				c-1.1-0.7-3.5,1.1-3.7,1.2l-4.3,7.2l-0.1-0.1l4.3-7.2l0,0c0.1-0.1,2.6-2,3.8-1.2c0.7,0.5,0.7,1.9,0.2,4.1
				c-1.5,6.1-2.5,7.2-2.8,7.4C195,161.5,195,161.5,195,161.5z"/>
			<path class="st0" d="M195,161.6C194.9,161.6,194.9,161.6,195,161.6l-0.2-0.1l0.1-0.3h0.1c0.1-0.1,1.1-0.6,2.7-7.2
				c0.6-2.1,0.5-3.4-0.1-3.8c-0.8-0.6-2.7,0.6-3.5,1.2l-4.3,7.2l-0.3-0.2l4.4-7.3c0.1-0.1,2.7-2.1,3.9-1.2c0.7,0.5,0.9,1.9,0.2,4.2
				c-1.5,5.9-2.5,7.2-2.8,7.4C195.1,161.6,195,161.6,195,161.6z"/>
		</g>
	</g>
	<g>
		<g>
			<path class="st0" d="M206.2,161.9l-1.1-6.7c-0.1-0.9-0.1-1.7,0.2-2.5c0.4-1.1,1.2-2.4,2.1-2.4c0.9,0,1.7,0.9,2.7,2.9l0,0l1.1,8.5
				h-0.1l-1.1-8.5c-0.9-1.9-1.7-2.9-2.6-2.8c-0.9,0-1.6,1.3-2,2.4c-0.3,0.7-0.4,1.6-0.2,2.4L206.2,161.9L206.2,161.9z"/>
			<path class="st0" d="M206,162.1l-1.1-6.8c-0.1-0.9-0.1-1.7,0.2-2.5c0.4-1.1,1.2-2.5,2.2-2.5c0,0,0,0,0.1,0c0.9,0,1.8,1,2.7,3l0,0
				l1.2,8.6l-0.3,0.1v-0.1l-1.1-8.4c-0.9-1.8-1.7-2.8-2.4-2.8l0,0c-0.9,0-1.5,1.2-1.9,2.3c-0.3,0.7-0.4,1.5-0.2,2.4l1.1,6.8
				L206,162.1z"/>
		</g>
	</g>
	<g>
		<g>
			<path class="st0" d="M203.2,162.2c0-0.1-1-5.6,0.2-8.7l0.1,0.1C202.3,156.6,203.3,162.2,203.2,162.2L203.2,162.2z"/>
			<path class="st0" d="M203.1,162.3v-0.1h0.1l0,0h-0.1c-0.1-0.2-1-5.8,0.2-8.8l0.1-0.1l0.3,0.1l-0.1,0.1c-1.2,3-0.2,8.5-0.2,8.6
				v0.1L203.1,162.3z"/>
		</g>
	</g>
	<g>
		<g>
			<path class="st0" d="M203,153.5c-2.4,0-3.8-0.3-4.8-0.7l0.1-0.1c1.7,0.7,5.1,1.2,11.8,0v-7.2c-2,0.7-4.1,1-6,1
				c-3.9,0-7.1-1.1-7.6-1.3l0,0l0,0v4.8h-0.1v-4.8c0-0.1,0-0.1,0.1-0.1c0.1,0,0.1,0,0.1,0c0.7,0.2,7.5,2.5,13.6,0.2h0.1v7.4h-0.1
				C207,153.3,204.7,153.5,203,153.5z"/>
			<path class="st0" d="M203,153.6c-2,0-3.7-0.2-4.9-0.7l-0.1-0.1l0.1-0.3l0.1,0.1c1.7,0.7,5,1.2,11.6,0v-6.9c-1.8,0.6-3.8,1-5.9,1
				c-3.7,0-6.7-0.9-7.6-1.2v4.8H196v-5c0-0.1,0.1-0.2,0.1-0.2c0.1-0.1,0.1-0.1,0.2-0.1c0.7,0.2,7.5,2.5,13.6,0.2l0.2-0.1v7.7h-0.1
				C207.3,153.3,204.9,153.6,203,153.6z"/>
		</g>
	</g>
	<g>
		<g>
			<path class="st0" d="M196.1,145.1c0,0-0.2-0.4,0.1-0.7c0.3-0.6,1.3-0.8,2.9-0.8v0.1c-2,0-2.6,0.4-2.8,0.7
				c-0.2,0.3-0.1,0.6-0.1,0.6L196.1,145.1z"/>
			<path class="st0" d="M196.1,145.3l-0.1-0.1c0,0-0.2-0.4,0.1-0.9c0.4-0.6,1.4-0.9,3-0.9h0.1v0.4h-0.1c-2,0-2.6,0.4-2.7,0.7
				c-0.2,0.2-0.1,0.5-0.1,0.5l0.1,0.1L196.1,145.3z"/>
		</g>
	</g>
	<g>
		<g>
			<path class="st0" d="M203.8,145.4c-2.8,0-4.6-0.9-4.6-1l0,0l0.3-3.5c0-0.1,0-0.1,0-0.1c0.1-0.1,0.1,0,0.2,0v0.1
				c-0.1-0.1-0.1-0.1-0.1-0.1s0,0,0,0.1l0,0l0,0l-0.3,3.5c0.3,0.2,3.8,1.9,8.5,0.3V141c-2,0.6-4,0.8-5.7,0.6v-0.1
				c1.7,0.3,3.7,0.1,5.8-0.6h0.1v3.8l0,0C206.3,145.2,204.9,145.4,203.8,145.4z"/>
			<path class="st0" d="M203.8,145.5c-2.8,0-4.7-1-4.7-1l-0.1-0.1v-0.1l0.3-3.5c-0.1-0.1,0-0.2,0.1-0.2c0.1-0.1,0.2-0.1,0.4,0
				l0.1,0.1l-0.1,0.3l-0.1-0.1l-0.3,3.3c0.6,0.3,3.9,1.7,8.3,0.3v-3.3c-2,0.6-3.9,0.7-5.6,0.5h-0.1l0.1-0.3h0.1
				c1.7,0.2,3.7,0.1,5.7-0.6l0.2-0.1v4l-0.1,0.1C206.5,145.3,205.1,145.5,203.8,145.5L203.8,145.5L203.8,145.5z"/>
		</g>
	</g>
	<g>
		<g>
			<path class="st0" d="M209.6,145.5L209.6,145.5c0.2-0.1,0.4-0.2,0.4-0.3c0-0.3-1.3-0.7-2.2-1v-0.1c0.2,0.1,2.2,0.6,2.2,1.1
				C210,145.3,209.9,145.4,209.6,145.5z"/>
			<path class="st0" d="M209.5,145.7l-0.1-0.3l0.1-0.1c0.2-0.1,0.2-0.1,0.2-0.1c0-0.1-0.9-0.6-2-0.9l-0.1-0.1l0.1-0.3l0.1,0.1
				c0.7,0.2,2.3,0.7,2.3,1.2C210.1,145.5,209.7,145.6,209.5,145.7L209.5,145.7z"/>
		</g>
	</g>
	<g>
		<g>
			<path class="st0" d="M191.4,128.3l4.9-2.4l0,0c0-0.1-2.5-11.9-2.8-13.7c0-0.1,0-0.2,0.1-0.3c0.9-1.1,8.3-1.3,12.6-1.4
				c1.3,0,2.3-0.1,2.7-0.1c1.9-0.2,2.3,1.6,2.3,1.6l1.5,10c0,0.1,0.2,1.7-0.6,2.4c-0.2,0.2-0.5,0.3-0.9,0.3c-1.7,0-14.7,1.2-15,1.3
				l-4.5,2.1l9.3-1v0.1L191.4,128.3z M209.2,110.6c-0.1,0-0.2,0-0.2,0c-0.4,0.1-1.4,0.1-2.7,0.1c-4.1,0.1-11.6,0.2-12.6,1.4
				c-0.1,0.1-0.1,0.2-0.1,0.2c0.2,1.7,2.7,13.5,2.8,13.6c0.8-0.1,13.3-1.3,15-1.3c0.3,0,0.6-0.1,0.8-0.2c0.7-0.6,0.5-2.2,0.5-2.2
				l-1.5-10C211.1,112,210.8,110.6,209.2,110.6z"/>
			<path class="st0" d="M190.6,128.4l5.4-2.6c-0.2-1.1-2.5-11.9-2.7-13.6c0-0.1,0-0.3,0.1-0.4c0.9-1.1,6.8-1.3,12.7-1.4
				c1.3,0,2.3-0.1,2.7-0.1c0.1,0,0.2,0,0.3,0c1.7,0,2.1,1.6,2.2,1.7l1.5,10c0,0.1,0.3,1.7-0.6,2.5c-0.2,0.2-0.6,0.3-0.9,0.3
				c-1.7,0-13.6,1.1-15,1.3l-3.8,1.8l8.7-0.9l0.1,0.3L190.6,128.4z M209.2,110.7c-0.1,0-0.2,0-0.2,0c-0.4,0.1-1.4,0.1-2.6,0.1h-0.1
				c-3.8,0.1-11.6,0.2-12.5,1.3c-0.1,0.1-0.1,0.1-0.1,0.2c0.2,1.7,2.5,12.2,2.7,13.5l0.9-0.2l-0.3,0.1c2.7-0.2,12.8-1.2,14.4-1.2
				c0.3,0,0.6-0.1,0.7-0.2c0.7-0.6,0.4-2.1,0.4-2.1l-1.5-10C211,112,210.7,110.7,209.2,110.7z"/>
		</g>
	</g>
	<g>
		<g>
			<polygon class="st0" points="204.5,126.9 204.5,126.8 209.3,126.3 212,124.5 212,124.6 209.3,126.4 209.3,126.4 			"/>
			<polygon class="st0" points="204.4,127 204.3,126.7 209.2,126.2 212,124.4 212.2,124.7 209.3,126.5 			"/>
		</g>
	</g>
	<g>
		<g>
			<path class="st0" d="M191.6,128.2l-2.7-13.5c0,0-0.1-0.2,0.1-0.5c0.1-0.1,0.2-0.2,0.4-0.2c0.6-0.1,4.6-2.3,4.7-2.3l0.1,0.1
				c-0.2,0.1-4.1,2.2-4.7,2.3c-0.1,0-0.2,0.1-0.3,0.2c-0.1,0.2-0.1,0.4-0.1,0.4l2.7,13.5L191.6,128.2z"/>
			<path class="st0" d="M191.6,128.3v-0.1l-2.7-13.5c0,0-0.1-0.3,0.1-0.6c0.1-0.2,0.2-0.2,0.5-0.3c0.5-0.1,4.2-2,4.6-2.3l0.1-0.1
				l0.1,0.3l-0.1,0.1c-0.2,0.1-4.2,2.2-4.8,2.4c-0.1,0-0.2,0.1-0.2,0.1c-0.1,0.1-0.1,0.3-0.1,0.3l2.8,13.6L191.6,128.3z"/>
		</g>
	</g>
	<g>
		<g>
			<path class="st0" d="M198,123.1l-1.1-7.4l8.5-0.4v0.1l1.1,7.1L198,123.1z M197.1,115.8l1.1,7.2l8.4-0.6l-1-7L197.1,115.8z"/>
			<path class="st0" d="M197.9,123.2v-0.1l-1.1-7.5l8.8-0.4l1.1,7.4L197.9,123.2z M197.2,115.9l1,6.9l8.1-0.6l-1-6.7L197.2,115.9z"
				/>
		</g>
	</g>
	<g>
		<g>
			<path class="st0" d="M186.6,127.1c-0.1,0-0.1,0-0.1,0c-0.4-0.2-1.1-0.8-1.1-0.9c-2.5-1.7-0.7-6.6-0.7-6.6l0,0l4.7-2.4l0.1,0.1
				l-4.7,2.4c-0.1,0.3-1.8,4.9,0.6,6.5c0,0,0.7,0.7,1.1,0.8c0.3,0.1,2.9-0.8,4.6-1.4v0.1C190.8,125.9,187.4,127.1,186.6,127.1z"/>
			<path class="st0" d="M186.6,127.3c-0.1,0-0.1,0-0.1,0c-0.4-0.2-1.1-0.8-1.1-0.9c-2.6-1.8-0.7-6.7-0.7-6.7v-0.1l0.1-0.1l4.8-2.5
				l0.1,0.3l-4.8,2.4c-0.2,0.5-1.6,4.8,0.6,6.3c0.4,0.3,0.8,0.7,1.1,0.8c0.2,0.1,2.2-0.6,4.5-1.4l0.1-0.1l0.1,0.3l-0.1,0.1
				C190.6,126.1,187.4,127.3,186.6,127.3z"/>
		</g>
	</g>
	<g>
		<g>
			<path class="st0" d="M187.7,126.9c-2.1-1.2-2.5-3.3-2.4-4.8c0.1-1.6,0.7-3,0.7-3l0.1,0.1c0,0-0.6,1.4-0.7,3
				C185.3,123.6,185.7,125.6,187.7,126.9L187.7,126.9z"/>
			<path class="st0" d="M187.8,127.1l-0.1-0.1c-2.2-1.3-2.5-3.4-2.5-5c0.1-1.6,0.6-2.9,0.7-3l0.1-0.1l0.3,0.1l-0.1,0.1
				c0,0-0.6,1.3-0.6,2.9c-0.1,1.5,0.2,3.5,2.3,4.6l0.1,0.1L187.8,127.1z"/>
		</g>
	</g>
	<g>
		<g>
			<path class="st0" d="M189.1,126.5c-1.7-0.9-2.5-2.5-2.4-4.8c0.1-1.7,0.7-3.3,0.7-3.3l0.1,0.1c0,0-0.6,1.5-0.7,3.3
				C186.7,123.3,187,125.4,189.1,126.5L189.1,126.5z"/>
			<path class="st0" d="M189.1,126.7l-0.1-0.1c-1.7-0.9-2.5-2.6-2.4-5c0.1-1.8,0.7-3.3,0.7-3.3l0.1-0.1l0.3,0.1l-0.1,0.1
				c0,0-0.6,1.5-0.7,3.2c-0.1,1.5,0.2,3.7,2.2,4.6l0.1,0.1L189.1,126.7z"/>
		</g>
	</g>
	<g>
		<g>
			<path class="st0" d="M190.1,126c-1.7-0.9-2.5-2.5-2.4-4.8c0.1-1.7,0.7-3.3,0.7-3.3l0.1,0.1c0,0-0.6,1.5-0.7,3.3
				C187.7,122.9,188,125,190.1,126L190.1,126z"/>
			<path class="st0" d="M190.1,126.2l-0.1-0.1c-1.7-0.9-2.5-2.6-2.4-5c0.1-1.7,0.6-3.2,0.7-3.3l0.1-0.1l0.3,0.1l-0.1,0.1
				c0,0.1-0.6,1.5-0.7,3.2c-0.1,1.5,0.2,3.7,2.2,4.6l0.1,0.1L190.1,126.2z"/>
		</g>
	</g>
	<g>
		<g>
			<polygon class="st0" points="195.6,111.3 195.3,110.3 198,109.6 198.2,110.9 198.1,111 197.9,109.7 195.4,110.4 195.7,111.2 			
				"/>
			<polygon class="st0" points="195.5,111.4 195.2,110.2 198.1,109.4 198.3,111.1 198,111.1 197.8,109.9 195.6,110.4 195.8,111.4 
							"/>
		</g>
	</g>
	<g>
		<g>
			<path class="st0" d="M201.2,110.8l-0.2-1.3c-0.3,0-2.6,0.1-3,0.2v-0.1c0.5-0.1,3-0.2,3.1-0.2h0.1l0.2,1.4L201.2,110.8z"/>
			<path class="st0" d="M201.1,110.9l-0.2-1.3c-1,0-2.5,0.1-2.9,0.2h-0.1l-0.1-0.3h0.1c0.5-0.1,2.8-0.2,3.1-0.2h0.1l0.2,1.6H201.1z"
				/>
		</g>
	</g>
	<g>
		<g>
			<polygon class="st0" points="198.6,109.6 198.5,108.3 199.6,108.3 199.7,109.5 199.6,109.5 199.5,108.5 198.6,108.5 198.7,109.6 
							"/>
			<polygon class="st0" points="198.5,109.7 198.4,108.2 199.7,108.2 199.9,109.6 199.5,109.6 199.4,108.6 198.7,108.6 198.8,109.7 
							"/>
		</g>
	</g>
	<g>
		<g>
			<polygon class="st0" points="196.6,110 196.5,108.8 198.5,108.3 198.5,108.5 196.5,108.9 196.7,110 			"/>
			<polygon class="st0" points="196.5,110.1 196.3,108.8 198.6,108.2 198.6,108.5 196.7,109 196.9,110.1 			"/>
		</g>
	</g>
	<g>
		<g>
			<path class="st0" d="M201.2,126.8C201.1,126.8,201.1,126.8,201.2,126.8c-0.1,0-0.2-0.1-0.2-0.1c0-0.1,0-0.1,1.3-0.3
				c0.5-0.1,1.1-0.1,1.5-0.2c0.8-0.1,0.8,0,0.8,0.1c0,0.1,0,0.1-0.1,0.1c0,0-0.1,0-0.1,0.1l-0.1-0.1c0,0,0,0,0.1,0
				C204,126.2,201.5,126.5,201.2,126.8C201.1,126.7,201.1,126.7,201.2,126.8L201.2,126.8C201.2,126.7,201.2,126.7,201.2,126.8
				L201.2,126.8z"/>
			<path class="st0" d="M201.2,127H201c-0.1,0-0.2-0.1-0.2-0.1l-0.1-0.1l0.1-0.1c0-0.1,0.1-0.2,1.4-0.4c0.5-0.1,1.1-0.1,1.5-0.2
				c0.7-0.1,0.9,0,0.9,0.1h0.2l-0.2,0.1c0,0.1-0.1,0.1-0.1,0.1c0,0-0.1,0-0.1,0.1l-0.1,0.1l-0.1-0.1c0,0,0,0-0.1,0
				c-0.6,0-2.5,0.2-3,0.4L201.2,127z"/>
		</g>
	</g>
	<g>
		<g>
			<path class="st0" d="M201.1,126.3c-0.1,0-0.1,0-0.1-0.1c0,0,0-0.1,0-0.1c0.2-0.2,3.3-0.7,3.6-0.4c0.1,0,0.1,0.1,0,0.1v0.4h-0.1
				v-0.4l0,0c0,0-0.1-0.1-0.4-0.1C203.1,125.8,201.3,126.1,201.1,126.3C201,126.3,201,126.3,201.1,126.3L201.1,126.3z"/>
			<path class="st0" d="M201.2,126.5h-0.1c-0.1,0-0.1-0.1-0.2-0.1l-0.1-0.1h-0.1l0.1-0.1c0-0.1,0-0.1,0.1-0.1
				c0.2-0.2,3.4-0.7,3.7-0.4c0.1,0.1,0.1,0.1,0.1,0.2v0.6h-0.3V126c-0.1,0-0.1,0-0.3,0C203.2,126,201.7,126.2,201.2,126.5
				L201.2,126.5z"/>
		</g>
	</g>
	<g>
		<g>
			<path class="st0" d="M201,126.7c0-0.2,0-0.4,0-0.4h0.1H201l0.1-0.1c0,0,0,0,0.1,0.1l0,0l0,0c0,0.1,0,0.2,0.1,0.4H201z"/>
			<path class="st0" d="M200.9,126.8v-0.2c0-0.1,0-0.2,0-0.2h-0.2l0.2-0.2V126h0.1l0,0l0,0l0.1-0.1h0.1c0.1,0,0.1,0,0.2,0.1h-0.1
				l0,0h0.1c0,0.1,0,0.2,0.1,0.5v0.1L200.9,126.8z"/>
		</g>
	</g>
	<g>
		<g>
			<path class="st0" d="M202.8,130.7c-0.4,0-0.7-0.1-1.2-0.2v-0.1c1.9,0.5,2.9-0.3,3.1-0.4l-0.4-3.8h0.1l0.4,3.9l0,0
				C204.8,130.1,204.1,130.7,202.8,130.7z"/>
			<path class="st0" d="M202.8,130.9L202.8,130.9c-0.4,0-0.8-0.1-1.2-0.2l-0.1-0.1l0.1-0.3l0.1,0.1c1.7,0.4,2.7-0.2,2.9-0.4
				l-0.4-3.9l0.3-0.1v0.1l0.4,4l-0.1,0.1C204.9,130.2,204.1,130.9,202.8,130.9z"/>
		</g>
	</g>
	<g>
		<g>
			<polygon class="st0" points="201.6,130.6 201.1,126.7 201.2,126.7 201.7,130.6 			"/>
			<polygon class="st0" points="201.5,130.7 201,126.5 201.3,126.5 201.8,130.6 			"/>
		</g>
	</g>
	<g>
		<g>
			<path class="st0" d="M202.5,131c-0.4,0-0.8-0.1-0.9-0.2c-0.1-0.1-0.2-0.2-0.2-0.4c0-0.2,0.3-0.4,0.3-0.4l0.1,0.1
				c0,0-0.2,0.2-0.2,0.4c0,0.1,0.1,0.2,0.2,0.3c0.5,0.4,3,0,3.5-0.2c0.1-0.1,0.1-0.1,0.1-0.2c0-0.2-0.3-0.4-0.4-0.6l0.1-0.1
				c0,0,0.5,0.4,0.4,0.6c0,0.1-0.1,0.2-0.2,0.2C204.6,130.9,203.4,131,202.5,131z"/>
			<path class="st0" d="M202.5,131.2c-0.5,0-0.9-0.1-1-0.2c-0.2-0.2-0.2-0.4-0.2-0.5c0-0.3,0.4-0.5,0.4-0.6l0.1-0.1l0.2,0.3
				l-0.1,0.1c-0.1,0.1-0.2,0.1-0.2,0.2c0,0.1,0.1,0.1,0.1,0.2c0.4,0.3,2.8,0,3.3-0.2l0.1-0.1c0-0.1-0.2-0.3-0.4-0.4l-0.1-0.1
				l0.2-0.2l0.1,0.1c0.1,0.1,0.5,0.4,0.5,0.7c0,0.1-0.1,0.2-0.2,0.4C204.7,131,203.4,131.2,202.5,131.2z"/>
		</g>
	</g>
	<g>
		<g>
			<polygon class="st0" points="201.8,136.9 201.3,130.6 201.3,130.6 201.9,136.9 			"/>
			<polygon class="st0" points="201.7,137.1 201.7,136.9 201.1,130.4 201.5,130.4 201.5,130.6 202,137.1 			"/>
		</g>
	</g>
	<g>
		<g>
			<path class="st0" d="M203.6,137.5c-0.7,0-1.3-0.2-1.6-0.2v-0.1c0.4,0.1,2.4,0.7,3.4-0.4l-0.3-6.3h0.1l0.3,6.4l0,0
				C204.9,137.3,204.2,137.5,203.6,137.5z"/>
			<path class="st0" d="M203.6,137.6c-0.7,0-1.4-0.2-1.6-0.2l-0.1-0.1l0.1-0.3l0.1,0.1c0.4,0.1,2.2,0.6,3.3-0.4l-0.3-6.4h0.3
				l0.3,6.5l-0.1,0.1C205.1,137.4,204.4,137.6,203.6,137.6z"/>
		</g>
	</g>
	<g>
		<g>
			<path class="st0" d="M200.8,136.4L200.8,136.4c0.2-0.2,0.5-0.4,0.9-0.5v0.1C201.3,136.1,201,136.3,200.8,136.4z"/>
			<path class="st0" d="M200.8,136.6l-0.2-0.3l0.1-0.1c0.2-0.2,0.6-0.3,1-0.4l0.1-0.1l0.1,0.3l-0.1,0.1
				C201.4,136.2,201.1,136.4,200.8,136.6L200.8,136.6z"/>
		</g>
	</g>
	<g>
		<g>
			<path class="st0" d="M203.6,138.7c-0.6,0-1.1-0.1-1.5-0.2v-0.1c0.5,0.1,1,0.1,1.5,0.1c1.9,0,3.3-0.6,3.3-1.4
				c0-0.5-0.6-0.9-1.5-1.2v-0.1c1.1,0.2,1.6,0.7,1.6,1.3C207,138,205.6,138.7,203.6,138.7z"/>
			<path class="st0" d="M203.6,138.8c-0.6,0-1.1-0.1-1.5-0.2H202l0.1-0.3h0.1c0.4,0.1,1,0.1,1.5,0.1c1.9,0,3.2-0.7,3.2-1.3
				c0-0.4-0.6-0.8-1.5-1.1l-0.1-0.1l0.1-0.3l0.1,0.1c1.1,0.3,1.7,0.8,1.7,1.4C207.2,138,205.6,138.8,203.6,138.8z"/>
		</g>
	</g>
	<g>
		<g>
			<path class="st0" d="M201.3,142.7c-0.9,0-1.8-0.6-1.9-0.6l0,0l0,0c0,0,0-0.3,0.2-3.2c0.1-1.4,0.6-2.4,1.2-2.5
				c0.4-0.1,0.9,0.2,1.1,0.8c0.2,0.4,0.2,1.3,0.2,2.5c0,0.7-0.1,1.5-0.1,2c-0.1,0.6-0.1,0.9-0.1,0.9l0,0l0,0
				C201.8,142.7,201.5,142.7,201.3,142.7z M199.5,142.1c0.2,0.1,1.4,0.8,2.4,0.5c0-0.1,0.1-0.4,0.1-0.9c0.1-0.5,0.1-1.2,0.1-2
				c0.1-1.2-0.1-2-0.2-2.4c-0.2-0.6-0.6-0.8-1-0.7c-0.6,0.1-1.1,1-1.1,2.4C199.6,141.3,199.5,141.9,199.5,142.1z"/>
			<path class="st0" d="M201.3,142.8c-1,0-1.9-0.6-1.9-0.6l-0.1-0.1v-0.1V142c0-0.1,0.1-0.5,0.2-3.2c0.1-1.5,0.6-2.5,1.3-2.6
				c0.5-0.1,1,0.2,1.2,0.9c0.2,0.4,0.2,1.3,0.2,2.5c0,0.8-0.1,1.5-0.1,2c-0.1,0.5-0.1,0.9-0.1,1v0.1l-0.1,0.1
				C201.8,142.8,201.6,142.8,201.3,142.8z M199.7,141.9c0.2,0.2,1.2,0.7,2.1,0.4c0-0.1,0.1-0.4,0.1-0.8c0.1-0.5,0.1-1.2,0.1-1.9
				c0.1-1.2-0.1-2-0.2-2.4c-0.2-0.5-0.5-0.7-0.9-0.7c-0.6,0.1-0.9,0.9-1.1,2.3C199.7,141,199.7,141.8,199.7,141.9z"/>
		</g>
	</g>
	<g>
		<g>
			<path class="st0" d="M207.4,140.8L207.4,140.8c0.1-1.1,0.2-3.7-0.1-4.7c-0.2-0.4-0.5-0.7-0.9-0.7c-0.3,0-0.6,0.2-0.9,0.6
				l-0.1-0.1c0.2-0.4,0.6-0.7,0.9-0.7c0.4,0,0.7,0.4,0.9,0.8C207.7,137,207.5,139.4,207.4,140.8z"/>
			<path class="st0" d="M207.5,141l-0.3-0.1v-0.1c0.1-1.1,0.3-3.7-0.1-4.6c-0.2-0.4-0.4-0.7-0.7-0.7c-0.2,0-0.6,0.2-0.7,0.6
				l-0.1,0.1l-0.3-0.2l0.1-0.1c0.2-0.5,0.6-0.7,1-0.7h0.1c0.4,0,0.8,0.4,1.1,0.9c0.4,0.9,0.2,3.4,0.1,4.8V141z"/>
		</g>
	</g>
	<g>
		<g>
			<polygon class="st0" points="204.9,140.3 204.9,140.3 204.9,139.7 205,139.7 			"/>
			<polygon class="st0" points="205.1,140.4 204.7,140.4 204.8,139.6 205.1,139.6 			"/>
		</g>
	</g>
	<g>
		<g>
			<path class="st0" d="M207.7,141.1c-0.1-0.1-0.2-0.2-0.4-0.2c-0.5-0.2-1.3-0.4-2.5-0.5c-0.4-0.1-0.8-0.1-1.2-0.1
				c-0.6-0.1-1.1-0.1-1.5-0.1v-0.1c0.5,0,1,0,1.5,0.1c0.4,0.1,0.9,0.1,1.2,0.1c1.2,0.1,2,0.3,2.5,0.5
				C207.5,140.8,207.7,141,207.7,141.1L207.7,141.1z"/>
			<path class="st0" d="M207.7,141.3L207.7,141.3c-0.1-0.1-0.2-0.2-0.4-0.2c-0.4-0.2-1.3-0.4-2.4-0.5c-0.4-0.1-0.8-0.1-1.2-0.1
				c-0.5-0.1-1.1-0.1-1.5-0.1h-0.1V140h0.1c0.5,0,1,0,1.5,0.1c0.4,0.1,0.9,0.1,1.2,0.1c1.2,0.1,2,0.3,2.5,0.5
				c0.2,0.1,0.4,0.2,0.4,0.3l0.1,0.1L207.7,141.3z"/>
		</g>
	</g>
	<g>
		<g>
			<path class="st0" d="M199.4,140.9L199.4,140.9L199.4,140.9c0-0.1,0.1-0.1,0.1-0.2l0.1,0.1C199.5,140.8,199.5,140.8,199.4,140.9
				L199.4,140.9z"/>
			<path class="st0" d="M199.4,141.1l-0.1-0.2l-0.1-0.1l0.1-0.1c0.1-0.1,0.1-0.1,0.2-0.1l0.1-0.1l0.1,0.3l-0.1,0.1
				c-0.1,0.1-0.1,0.1-0.2,0.1L199.4,141.1z"/>
		</g>
	</g>
	<g>
		<g>
			<path class="st0" d="M202.7,108.1l-4.6-0.1l0,0c0,0-0.3-0.3-0.2-0.8c0.1-0.6,0.5-1.2,1.4-1.9l0,0l4.6,0.1l0,0
				C204.4,106.7,202.8,108,202.7,108.1L202.7,108.1z M198.1,108l4.5,0.1c0.1-0.1,1.5-1.4,1.1-2.5l-4.5-0.1c-0.9,0.6-1.3,1.2-1.4,1.8
				C197.9,107.6,198.1,107.9,198.1,108z"/>
			<path class="st0" d="M202.7,108.2l-4.6-0.1l-0.1-0.1c0,0-0.4-0.4-0.3-0.9c0.1-0.6,0.6-1.3,1.4-2h0.1h0.1l4.6,0.1l0.1,0.1
				C204.5,106.7,203,108,202.7,108.2L202.7,108.2L202.7,108.2z M198.2,107.8l4.4,0.1c0.2-0.2,1.4-1.3,1.1-2.3l-4.4-0.1
				c-0.8,0.6-1.2,1.2-1.3,1.7C198,107.5,198.1,107.7,198.2,107.8z"/>
		</g>
	</g>
	<g>
		<g>
			<path class="st0" d="M194,109.1L194,109.1c-0.1,0-0.6-0.2-0.6-0.7c-0.1-0.4,0.2-0.7,0.9-1.2l0,0l4.9-2l0.1,0.1l-4.9,2
				c-0.6,0.4-0.9,0.8-0.9,1.1c0.1,0.4,0.5,0.6,0.6,0.6l4.1-1.1v0.1L194,109.1z"/>
			<path class="st0" d="M194,109.3L194,109.3c-0.1-0.1-0.7-0.2-0.7-0.7c-0.1-0.4,0.2-0.9,1-1.3l0,0l5-2l0.1,0.3l-5,2
				c-0.6,0.4-0.8,0.7-0.8,1c0,0.2,0.3,0.4,0.4,0.4l4.1-1.1l0.1,0.3L194,109.3z"/>
		</g>
	</g>
	<g>
		<g>
			<path class="st0" d="M194,107.6"/>
		</g>
	</g>
	<g>
		<g>
			<path class="st0" d="M199.7,104.9"/>
		</g>
	</g>
	<g>
		<g>
			<path class="st0" d="M198.6,107.5l0.9-1.6h1.7l-0.9,1.6H198.6z M199.4,106l-0.7,1.5h1.4l0.8-1.5H199.4z"/>
			<path class="st0" d="M198.3,107.7l1-1.9h1.9l-1.1,1.9H198.3z M199.5,106.1l-0.6,1.2h1.1l0.7-1.2L199.5,106.1z"/>
		</g>
	</g>
	<g>
		<g>
			<path class="st0" d="M201.8,107.5c-0.2,0-0.3-0.1-0.4-0.1c-0.1-0.1-0.1-0.1-0.2-0.2c-0.1-0.1,0.1-0.3,0.2-0.6l0.1-0.1
				c0.1-0.2,0.3-0.4,0.6-0.4c0.2-0.1,0.5,0,0.6,0.1c0.1,0.1,0.1,0.1,0.1,0.2c0.1,0.1-0.1,0.3-0.2,0.5c-0.1,0.1-0.1,0.2-0.1,0.2
				c-0.1,0.2-0.3,0.4-0.6,0.4C201.8,107.5,201.8,107.5,201.8,107.5z M202.2,106.2c-0.1,0-0.1,0-0.2,0c-0.1,0-0.4,0.1-0.6,0.4
				l-0.1,0.1c-0.1,0.2-0.2,0.4-0.2,0.6c0,0.1,0.1,0.1,0.1,0.1c0.1,0.1,0.4,0.1,0.6,0.1c0.2,0,0.4-0.1,0.5-0.4l0,0
				c0.1-0.1,0.1-0.2,0.1-0.2c0.1-0.2,0.2-0.3,0.2-0.4c0-0.1-0.1-0.1-0.1-0.1C202.5,106.2,202.3,106.2,202.2,106.2z"/>
			<path class="st0" d="M201.7,107.7c-0.2,0-0.4-0.1-0.5-0.1c-0.1-0.1-0.2-0.1-0.2-0.2c-0.1-0.2,0.1-0.4,0.2-0.7l0.1-0.1
				c0.1-0.2,0.4-0.4,0.7-0.4c0.2-0.1,0.6,0,0.7,0.1c0.1,0.1,0.2,0.1,0.2,0.2c0.1,0.2-0.1,0.4-0.2,0.6c-0.1,0.1-0.1,0.2-0.1,0.2
				C202.3,107.5,202.1,107.7,201.7,107.7C201.9,107.7,201.8,107.7,201.7,107.7z M202.2,106.4c-0.1,0-0.1,0-0.1,0
				c-0.1,0-0.4,0.1-0.4,0.2l-0.1,0.1c-0.1,0.2-0.2,0.4-0.2,0.4l0.1,0.1c0.1,0.1,0.3,0.1,0.5,0.1c0.1,0,0.3-0.1,0.4-0.2
				c0.1-0.1,0.1-0.2,0.1-0.2v-0.1c0.1-0.1,0.2-0.2,0.1-0.3l0,0c0,0,0,0-0.1,0C202.5,106.4,202.3,106.4,202.2,106.4z"/>
		</g>
	</g>
	<g>
		<g>
			<polygon class="st0" points="199.6,108.8 199.6,108.7 202.6,108 202.6,108.1 			"/>
			<polygon class="st0" points="199.5,109 199.4,108.6 202.8,107.8 202.8,108.1 			"/>
		</g>
	</g>
	<g>
		<g>
			
				<rect x="195.3" y="107.8" transform="matrix(1.019278e-02 -0.9999 0.9999 1.019278e-02 84.2518 303.2724)" class="st1" width="0.1" height="2.5"/>
			<polygon class="st0" points="196.7,109.3 193.9,109.3 193.9,108.9 196.7,109 			"/>
		</g>
	</g>
	<g>
		<g>
			<polygon class="st0" points="72.5,304.5 72.5,304.4 75.9,192.1 76,192.1 72.5,304.3 78.5,302.1 82.2,191.3 82.3,191.3 
				78.6,302.1 			"/>
			<polygon class="st0" points="72.4,304.7 72.4,304.4 75.8,191.9 76.1,191.9 76.1,192.1 72.7,304.2 78.4,302 82.1,191.1 
				82.4,191.2 82.4,191.3 78.7,302.2 78.7,302.2 			"/>
		</g>
	</g>
	<g>
		<g>
			<polygon class="st0" points="72.5,304.5 69.1,302.2 69.1,302.2 72.5,192.4 73.4,192.9 112.5,186.4 112.5,186.5 73.3,192.9 
				72.5,192.5 69.2,302.1 72.5,304.3 			"/>
			<polygon class="st0" points="72.5,304.7 69,302.2 69,302.2 72.4,192.1 73.4,192.8 112.6,186.3 112.7,186.6 112.5,186.6 
				73.3,193.1 72.7,192.7 69.3,302.1 72.7,304.3 			"/>
		</g>
	</g>
	<g>
		<g>
			<path class="st0" d="M50.9,148.4"/>
		</g>
	</g>
	<g>
		<g>
			<polygon class="st0" points="72.4,192.4 18,156.4 18,151.8 18.1,151.8 44.4,149.1 44.4,149.2 18.1,151.9 18.1,156.4 72.5,192.4 
							"/>
			<polygon class="st0" points="72.5,192.6 72.4,192.6 17.9,156.5 17.9,151.7 18.1,151.7 44.5,148.9 44.5,149.3 44.4,149.3 
				18.2,152 18.2,156.3 72.7,192.3 			"/>
		</g>
	</g>
	<g>
		<g>
			<polygon class="st0" points="73.3,192.9 73.3,185.9 18.1,151.9 18.1,151.8 73.3,185.9 73.4,192.9 			"/>
			<polygon class="st0" points="73.2,193.1 73.2,186.1 17.9,151.9 18.1,151.7 18.1,151.7 73.5,185.8 73.5,185.9 73.5,193.1 			"/>
		</g>
	</g>
	<g>
		<g>
			<polygon class="st0" points="73.3,186 73.3,185.9 112.5,180.2 112.5,180.3 			"/>
			<polygon class="st0" points="73.2,186.1 73.2,185.8 73.3,185.8 112.6,180.1 112.7,180.4 112.5,180.4 			"/>
		</g>
	</g>
	<g>
		<g>
			
				<rect x="-13.3" y="213.6" transform="matrix(1.360552e-02 -0.9999 0.9999 1.360552e-02 -180.6807 244.0183)" class="st2" width="93.3" height="0.1"/>
			<polygon class="st0" points="32.9,260.4 32.6,260.4 32.6,260.3 33.8,166.8 34.1,166.8 34.1,166.9 			"/>
		</g>
	</g>
	<g>
		<g>
			<rect x="27.9" y="163" class="st0" width="0.1" height="96.2"/>
			<polygon class="st0" points="28.1,259.3 27.7,259.3 27.7,259.2 27.8,162.9 28.1,162.9 28.1,163 			"/>
		</g>
	</g>
	<g>
		<g>
			<path class="st0" d="M25.3,258.9L25.3,258.9L25.3,258.9L25.3,258.9c0-0.5,0.4-96.4,0.4-97.4h0.1c0,0-0.1,24.3-0.2,48.6
				c-0.1,12.2-0.1,24.3-0.1,33.4c0,4.6-0.1,8.4-0.1,11c0,1.3,0,2.4,0,3.1c0,0.4,0,0.6,0,0.8C25.3,258.9,25.3,258.9,25.3,258.9z"/>
			<path class="st0" d="M25.2,259L25.2,259L25.2,259l-0.1-0.2c0-0.4,0.2-35.1,0.4-95.3v-2.2h0.3v0.1c0,0-0.1,24.3-0.2,48.6
				c-0.1,12.2-0.1,24.3-0.1,33.4c0,4.6-0.1,8.4-0.1,11c0,1.3,0,2.4,0,3.1v0.8c0,0.2,0,0.3-0.1,0.4v0.1l0,0h-0.1L25.2,259z"/>
		</g>
	</g>
	<g>
		<g>
			<path class="st0" d="M52.1,98.1c-0.5-0.1-1.1-0.2-1.2-0.3L49,97.4l1.1-0.6h0.3v0.1h-0.3l-0.9,0.5l1.7,0.4l0,0
				c0.1,0.1,0.7,0.2,1.1,0.3L52.1,98.1z"/>
			<path class="st0" d="M52.2,98.3h-0.1c-0.9-0.2-1.1-0.3-1.2-0.3l-2.2-0.5l1.4-0.8h0.4v0.4h-0.4l-0.6,0.3l1.4,0.3l0,0
				c0.1,0,0.6,0.2,1.1,0.3h0.1L52.2,98.3z"/>
		</g>
	</g>
	<g>
		<g>
			<path class="st0" d="M52.1,97.2c-0.3-0.1-0.9-0.2-0.9-0.2l0.1-0.1V97v-0.1C51.3,96.9,51.8,97.1,52.1,97.2L52.1,97.2z"/>
			<path class="st0" d="M52.2,97.3h-0.1c-0.9-0.2-0.9-0.2-1-0.2l-0.1-0.1l0.2-0.2l0.1,0.1c0.1,0,0.4,0.1,0.9,0.2h0.1L52.2,97.3z"/>
		</g>
	</g>
	<g>
		<g>
			<path class="st0" d="M31.4,261.9c-0.6,0-1.2-0.3-1.5-0.6c-0.4-0.3-0.1-0.7,0.1-1.1c0.1-0.2,0.2-0.4,0.3-0.6c0.1-0.5,0-2.5,0-2.5
				v-0.1h0.6v-0.4c0-0.1,0.2-5.7,0.1-6.2c-0.1-0.5-0.1-13.4-0.1-14l0.2-11.4c0-0.1,0.3-9.1,0.1-10.1s-0.2-9.7-0.2-10.1
				c0-0.1,0.2-10.6-0.1-11.8c-0.2-1.2,0-8.9,0-9.2l0.1-9.7v-11.3c0.2-1.7,0.4-4.3,0.2-4.6c-0.2-0.3,1.4-4.5,1.5-4.9
				c0.3-0.8,3.7-10.8,3.8-11.4c0.1-0.7,4.6-13.9,4.8-14.4c0.9-3,2.7-8.6,2.7-8.7c0-0.1,2.3-8.5,2.5-9.3c0.2-0.6,0.2-1.1,0.2-1.1l0,0
				l0.9-3.1l-1.4-0.3l2.6-7.6h0.1l-2.5,7.5l1.3,0.3l-0.9,3.2c0,0.1-0.1,0.6-0.2,1.1c-0.2,0.7-2.5,9.2-2.5,9.3c0,0.1-2.6,8.4-2.7,8.7
				c-0.1,0.1-4.6,13.7-4.8,14.4c-0.1,0.7-3.5,10.6-3.8,11.5c-0.4,0.9-1.7,4.6-1.5,4.8c0.1,0.3-0.2,4.1-0.2,4.6v11.3l-0.1,9.7
				c0,0.1-0.2,8,0,9.2c0.2,1.2,0.1,11.4,0.1,11.9c0,0.1,0,9.1,0.2,10.1c0.2,1-0.1,9.7-0.1,10.1l-0.2,11.4c0,0.1-0.1,13.5,0.1,14
				c0.1,0.5-0.1,6-0.1,6.2v0.4h-0.6c0,0.3,0.1,2,0,2.5c0,0.2-0.1,0.4-0.3,0.7c-0.2,0.4-0.4,0.7-0.1,1c0.4,0.2,1.1,0.7,1.7,0.6
				c0.2-0.1,0.4-0.2,0.6-0.4c0.2-0.3,0.2-0.6,0.2-0.8c-0.1-0.2-0.1-0.2-0.1-0.2l0,0l-0.5-0.5l-0.2-2.8h-0.3l0.2-5.5
				c0-0.2,0-17.7-0.1-19.6c0-0.6,0-2,0.1-3.8c0.1-4.1,0.2-10.3,0.1-12.9c-0.2-1.9-0.1-7.6,0-12.5c0.1-4.8,0.1-9.3-0.1-9.8
				c-0.2-0.6-0.2-5-0.2-8.9c0-3.8,0.1-8.2,0.2-8.6c0.1-0.6,0.1-5.3,0.1-8.1c0-0.9,0-1.5,0-1.9c0-0.7,0.1-7.3,1.4-9
				c1.2-1.5,6.1-19.5,6.2-19.7l5.8-18.1l3-11.3c0.4-2.1,0.5-2.1,0.6-2.1l0,0l0,0c0.1,0.1,1.6,0.2,2.6,0.4l1.1-3.9h0.1l-1.1,4h-0.1
				c-2-0.2-2.5-0.4-2.7-0.4c-0.1,0.2-0.3,1.3-0.5,2l-3,11.3l-5.8,18.1c-0.2,0.7-5,18.1-6.2,19.7c-1.3,1.7-1.3,8.3-1.3,9
				c0,0.4,0,1.1,0,1.9c0.1,3,0.1,7.6-0.1,8.1c-0.1,0.4-0.2,4.1-0.2,8.5c0,3.9,0.1,8.2,0.2,8.9c0.2,0.6,0.1,4.9,0.1,9.9
				c-0.1,5-0.1,10.6,0,12.5c0.2,2.6,0.1,8.8-0.1,12.9c-0.1,1.8-0.1,3.2-0.1,3.8c0,1.9,0.1,19.4,0.1,19.6l-0.2,5.4h0.3l0.2,2.8
				l0.4,0.4c0,0,0.1,0.1,0.2,0.3c0.1,0.2,0,0.6-0.2,0.9c-0.1,0.2-0.4,0.4-0.6,0.4C31.6,261.9,31.6,261.9,31.4,261.9z"/>
			<path class="st0" d="M31.4,262c-0.6,0-1.2-0.3-1.6-0.6c-0.4-0.4-0.1-0.9,0.1-1.3c0.1-0.2,0.2-0.4,0.2-0.6c0.1-0.5,0-2.5,0-2.5
				v-0.2h0.5v-0.2c0.1-1.2,0.2-5.8,0.1-6.1c-0.1-0.5-0.1-11.8-0.1-14l0.2-11.4c0.1-0.9,0.3-9.1,0.1-10c-0.2-0.9-0.2-8.5-0.2-10.1
				v-0.1c0-0.1,0.2-10.6-0.1-11.8c-0.2-1.2,0-8.4,0-9.2l0.1-9.7v-11.3c0.2-2.4,0.3-4.3,0.2-4.5c-0.2-0.4,1.5-5,1.5-5
				c0.3-0.8,3.7-10.8,3.8-11.4c0.1-0.7,4.6-13.9,4.8-14.4c1.1-3.4,2.7-8.5,2.7-8.7c0-0.1,2.3-8.5,2.5-9.3c0.2-0.6,0.2-1,0.2-1.1
				v-0.1l0.9-3l-1.4-0.3l0.1-0.1l2.7-7.7l0.3,0.1l-2.6,7.4l1.3,0.3l-0.9,3.3c0,0.1-0.1,0.6-0.2,1.1c-0.2,0.7-2.5,9.2-2.5,9.2
				c0,0.1-2.3,7.3-2.7,8.7l-0.1,0.1c-1.1,3.2-4.6,13.7-4.7,14.2c-0.1,0.7-3.5,10.7-3.8,11.5c-0.4,1.2-1.6,4.5-1.5,4.8
				c0.1,0.3-0.1,3.3-0.2,4.6v11.3l-0.1,9.7c0,0.9-0.2,8,0,9.2c0.2,1.2,0.1,11.4,0.1,11.9c0,0.9,0,9.2,0.2,10c0.2,1-0.1,9.7-0.1,10.1
				L31,236.4c0,6.2,0,13.5,0.1,13.9c0.2,0.6-0.1,6.2-0.1,6.3v0.6h-0.6c0,0.6,0.1,2,0,2.4c0,0.2-0.2,0.5-0.3,0.7
				c-0.2,0.4-0.4,0.7-0.2,0.8c0.4,0.3,1.1,0.6,1.7,0.6c0.2-0.1,0.4-0.1,0.5-0.3c0.2-0.3,0.2-0.6,0.2-0.7c0-0.1-0.1-0.2-0.1-0.2h-0.1
				l-0.5-0.5l-0.2-2.7h-0.3l0.2-5.6c0-0.1,0-17.7-0.1-19.6c0-0.6,0-2.1,0.1-3.8c0.1-4.1,0.2-10.3,0.1-12.9c-0.2-1.9-0.1-7.6,0-12.5
				v-0.1c0.1-4.5,0.1-9.2,0-9.8c-0.2-0.6-0.2-5-0.2-8.9c0-3.2,0.1-8.1,0.2-8.6c0.1-0.6,0.1-5.4,0.1-8c0-0.9,0-1.5,0-1.9
				c0-0.7,0.1-7.4,1.4-9.2c1-1.3,4.9-14.9,6.2-19.6l5.8-18.1l2.9-11.3c0.5-2.2,0.5-2.2,0.6-2.2h0.1h0.1c0.2,0.1,1.4,0.2,2.5,0.4
				l1.1-3.9l0.3,0.2l-1.2,4.2h-0.1c-1.4-0.2-2.2-0.3-2.5-0.4c-0.1,0.3-0.2,1.2-0.4,1.9l-3,11.3l-5.8,18.1c-0.2,0.7-5,18.1-6.3,19.7
				c-1.2,1.7-1.3,8.2-1.3,8.9c0,0.4,0,1.1,0,1.9c0.1,3,0.1,7.6-0.1,8.2c-0.1,0.3-0.2,3.7-0.2,8.5s0.1,8.4,0.2,8.9
				c0.2,0.6,0.1,4.7,0.1,9.9c-0.1,5-0.1,10.6,0,12.5c0.2,2.6,0.1,8.8-0.1,12.9v0.1c-0.1,1.7-0.1,3.1-0.1,3.7c0,1.6,0.1,14,0.1,19.3
				v0.3l-0.2,5.3h0.2l0.2,2.9l0.4,0.4c0,0,0.2,0.1,0.2,0.4c0.1,0.2,0,0.6-0.2,1c-0.2,0.2-0.4,0.4-0.7,0.5
				C31.6,262,31.6,262,31.4,262z"/>
		</g>
	</g>
	<g>
		<g>
			<path class="st0" d="M50.8,97.5c-0.2,0-0.5-0.2-0.5-0.2l0,0l0,0c0,0,0-0.1,0.4-1.4l1.4-4.4h0.1l-1.4,4.4
				c-0.1,0.4-0.4,1.2-0.4,1.3c0.1,0.1,0.4,0.2,0.6,0.2l1.3-4.5h0.1L51,97.4l0,0C50.9,97.5,50.9,97.5,50.8,97.5z"/>
			<path class="st0" d="M50.8,97.6c-0.2,0-0.6-0.2-0.6-0.2l0,0v-0.1c0-0.1-0.1-0.1,0.4-1.5l1.5-4.5l0.3,0.1L50.9,96
				c-0.1,0.4-0.3,1-0.4,1.2c0.1,0.1,0.2,0.1,0.3,0.1l1.3-4.6l0.3,0.1l-1.4,4.8H51C50.9,97.6,50.9,97.6,50.8,97.6z"/>
		</g>
	</g>
	<g>
		<g>
			<path class="st0" d="M54.2,84.6L54.2,84.6L54.2,84.6c0.1-0.3,3.1-11.5,4.7-17.4l5.2-17.9l3.3-10.9c0,0,0.6-1.7,3.3-1.7h0.1
				c2.7,0,10.2,0.6,10.6,1l-0.1,0.1c-0.4-0.3-7.7-0.9-10.6-0.9h-0.1c-2.6,0-3.2,1.6-3.2,1.6l-3.3,10.9l-5.2,17.9
				c0,0.1-1.2,4.4-2.4,8.7c-0.7,2.5-1.2,4.5-1.6,5.9C54.2,84.6,54.2,84.6,54.2,84.6z"/>
			<path class="st0" d="M54.2,84.7H54v-0.1L54,84.5l0.1-0.1c0.1-0.3,2.9-10.5,4.7-17.3l5.2-17.9l3.3-10.8c0,0,0.6-1.8,3.3-1.8h0.1
				c2.5,0,10.2,0.6,10.7,1l0.1,0.1l-0.2,0.2l-0.1-0.1c-0.4-0.2-7.6-0.9-10.5-0.9h-0.1c-2.5,0-3,1.5-3,1.5l-3.3,10.9l-5.2,17.9
				c0,0.1-1.2,4.4-2.4,8.7c-0.7,2.5-1.2,4.5-1.6,5.9C54.3,84.7,54.3,84.7,54.2,84.7z"/>
		</g>
	</g>
	<g>
		<g>
			<path class="st0" d="M54.8,84.5L54.8,84.5l3-10.2l2.7-10l2.8-9.3l2.8-9.5c0-0.1,1.4-5.2,2.1-7.1c0.5-1.4,1.2-1.3,1.7-1.2
				c0.2,0.1,0.4,0.1,0.7,0C71.4,37,81.1,38,81.3,38v0.1c-0.1,0-9.9-1.1-10.6-0.8c-0.2,0.1-0.4,0-0.7,0c-0.6-0.1-1.2-0.2-1.7,1.1
				c-0.7,1.9-2.1,7-2.1,7.1L63.4,55l-2.8,9.3l-2.7,10L54.8,84.5z"/>
			<path class="st0" d="M54.9,84.6l-0.3-0.1l0.1-0.1l3-10.2l2.7-10l2.9-9.3l2.8-9.5c0.2-0.9,1.5-5.3,2.1-7.1
				c0.6-1.5,1.3-1.4,1.9-1.3c0.2,0.1,0.4,0.1,0.6,0c0.7-0.2,10.6,0.8,10.6,0.8h0.1l-0.1,0.3h-0.1c-0.4-0.1-9.9-1.1-10.5-0.8
				c-0.2,0.1-0.5,0.1-0.7,0c-0.6-0.1-1.1-0.2-1.5,1.1c-0.7,1.9-2.1,7-2.1,7.1L63.5,55l-2.8,9.3l-2.7,10L54.9,84.6z"/>
		</g>
	</g>
	<g>
		<g>
			<path class="st0" d="M170.3,204.3L170.3,204.3l19.7-3.8c0,0,1.4-0.4,2-2.2l0.7-1.9l8.6-0.9v0.1l-8.5,0.9l-0.7,1.8
				c-0.7,1.8-2,2.2-2,2.3L170.3,204.3z"/>
			<path class="st0" d="M170.3,204.5l-0.1-0.3h0.1l19.7-3.8c0,0,1.3-0.4,1.9-2.1l0.7-1.9l8.8-1l0.1,0.3h-0.1l-8.5,0.9l-0.6,1.7
				c-0.7,1.9-2.1,2.3-2.2,2.4L170.3,204.5z"/>
		</g>
	</g>
	<g>
		<g>
			<path class="st0" d="M201.3,195.5L201.3,195.5c0-0.1,2.4-0.5,2.8-0.8c0.4-0.3,0.6-1.8,0.6-1.8l1-10.6h0.1l-1,10.6
				c0,0.1-0.2,1.5-0.7,1.9C203.6,195.1,201.3,195.5,201.3,195.5z"/>
			<path class="st0" d="M201.2,195.7l-0.1-0.3h0.1c0.9-0.2,2.4-0.5,2.7-0.7c0.2-0.2,0.5-1,0.6-1.7l1-10.8l0.3,0.1l-1,10.8
				c-0.1,0.4-0.3,1.6-0.7,2C203.6,195.2,201.8,195.6,201.2,195.7L201.2,195.7z"/>
		</g>
	</g>
	<g>
		<g>
			<path class="st0" d="M133.4,209L133.4,209l0.7-6.1l1.9-16.5l0.4-6.1c0.4-6-3.2-13.3-3.2-13.4v-0.1h0.1l57.7-10.4v0.1l-57.6,10.4
				c0.3,0.7,3.6,7.6,3.2,13.4l-0.4,6.1l-1.9,16.5L133.4,209z"/>
			<path class="st0" d="M133.5,209.1l-0.3-0.1l0.8-6.3l1.9-16.5l0.4-6.1c0.4-5.9-3.2-13.2-3.2-13.3l-0.1-0.2l0.2-0.1l57.8-10.5
				l0.1,0.3H191l-57.4,10.4c0.6,1.3,3.5,7.8,3.2,13.3l-0.4,6.1l-1.9,16.6L133.5,209.1z"/>
		</g>
	</g>
	<g>
		<g>
			<path class="st0" d="M208.6,156.6"/>
		</g>
	</g>
	<g>
		<g>
			<path class="st0" d="M209.4,144.6L209.4,144.6c0.2-4.9,0.7-11.3,1.2-19.2h0.1C210.1,133.3,209.8,139.8,209.4,144.6z"/>
			<path class="st0" d="M209.5,144.8h-0.3v-0.1c0.3-4.9,0.7-11.3,1.2-19.2v-0.1h0.3v0.1c-0.5,7.9-0.9,14.3-1.2,19.2V144.8z"/>
		</g>
	</g>
	<g>
		<g>
			<path class="st0" d="M211.4,113.5L211.4,113.5c1.9-30.3,4.3-66.2,4.5-67.7l-41.2-0.7V45l41.3,0.7v0.1
				C215.9,46.1,213.5,82.8,211.4,113.5z"/>
			<path class="st0" d="M211.6,113.7h-0.3v-0.1c1.9-28,4.1-61.1,4.5-67.5v-0.1l-41.2-0.7v-0.4h0.1l41.5,0.7v0.2
				c0,0.2-2.5,36.9-4.5,67.8L211.6,113.7z"/>
		</g>
	</g>
	<g>
		<g>
			<polygon class="st0" points="112.5,180 112.5,180 115.3,43.8 120.1,44 120.1,44 115.4,44 			"/>
			<polygon class="st0" points="112.7,180.2 112.3,180.1 112.3,180 115.2,43.7 120.2,43.8 120.2,44.2 115.5,44.1 			"/>
		</g>
	</g>
	<g>
		<g>
			<polygon class="st0" points="53,84.1 51.9,34.3 115.3,43.8 115.3,44 52,34.4 53.1,84.1 			"/>
			<polygon class="st0" points="52.9,84.3 52.9,84.1 51.7,34.2 51.9,34.2 115.5,43.7 115.4,44.1 115.3,44.1 52.1,34.6 53.2,84.3 			
				"/>
		</g>
	</g>
	<g>
		<g>
			<polygon class="st0" points="215.9,45.8 149.5,37.2 51.9,34.4 51.9,34.2 149.5,37.2 215.9,45.7 			"/>
			<polygon class="st0" points="216,45.9 215.9,45.9 149.4,37.3 51.8,34.5 51.8,34.1 51.9,34.1 149.5,37 216.1,45.6 			"/>
		</g>
	</g>
	<g>
		<g>
			<polygon class="st0" points="79.8,118.2 79.8,118.2 80.2,95.2 114,95.2 77.1,83.5 56.3,84.4 51.9,84.8 51.9,84.7 56.3,84.3 
				77.1,83.4 77.1,83.4 114.6,95.3 80.3,95.3 			"/>
			<polygon class="st0" points="80,118.4 79.7,118.4 79.7,118.2 80.1,95.1 113.1,95.1 77.1,83.6 56.3,84.5 51.8,84.9 51.8,84.6 
				56.3,84.2 77.1,83.3 77.2,83.3 115.4,95.5 80.4,95.5 			"/>
		</g>
	</g>
	<g>
		<g>
			<path class="st0" d="M50.3,105.6L50.3,105.6c-0.1-0.1-0.1-0.1,1.8-6.1h0.1C51.6,101.5,50.4,105.4,50.3,105.6L50.3,105.6
				L50.3,105.6z"/>
			<path class="st0" d="M50.3,105.8l-0.2-0.1c-0.1-0.1-0.1-0.1,1.8-6.3l0.1-0.1l0.3,0.1l-0.1,0.1c-0.9,2.8-1.8,5.9-1.8,6.1v0.1
				L50.3,105.8L50.3,105.8z"/>
		</g>
	</g>
	<g>
		<g>
			<path class="st0" d="M49.8,105.5c-0.2,0-1.9-0.2-2-0.3v-0.1v0.1v-0.1C47.9,105.2,49.1,105.4,49.8,105.5L49.8,105.5z"/>
			<path class="st0" d="M49.9,105.7h-0.1c-1.3-0.2-1.9-0.2-2-0.3h-0.1l0.1-0.3h0.1c0.1,0,1.2,0.2,2,0.2H50L49.9,105.7z"/>
		</g>
	</g>
	<g>
		<g>
			<polygon class="st0" points="76.6,93.9 76.6,93.9 77.1,83.5 77.2,83.5 			"/>
			<polygon class="st0" points="76.8,94 76.4,94 76.4,93.9 76.9,83.3 77.3,83.3 77.3,83.5 			"/>
		</g>
	</g>
	<g>
		<g>
			<polygon class="st0" points="80,118.4 80,118.4 52.2,105.7 52.2,105.7 51.9,84.6 80.2,95.2 80.2,95.3 52,84.8 52.3,105.7 
				80,118.3 113.8,118.1 114.2,95.3 114.3,95.3 113.8,118.2 			"/>
			<polygon class="st0" points="80,118.5 80,118.5 52.1,105.8 52.1,105.7 51.7,84.4 80.3,95.2 80.3,95.5 80.2,95.4 52.1,84.9 
				52.4,105.6 80.1,118.2 113.6,118 114.1,95.2 114.4,95.2 114.4,95.3 114,118.4 113.8,118.4 			"/>
		</g>
	</g>
	<g>
		<g>
			<path class="st0" d="M78.6,123.9L78.6,123.9l-30.1-13.7v-5l30.3,13l0,0L78.6,123.9z M48.6,110.1l30,13.7l0.1-5.5l-30.1-12.9
				V110.1z"/>
			<path class="st0" d="M78.7,124.1l-30.4-13.9v-5.2l0.2,0.1l30.3,13.1v0.1L78.7,124.1z M48.7,110l29.7,13.6l0.1-5.2l-29.8-12.8
				C48.7,105.5,48.7,110,48.7,110z"/>
		</g>
	</g>
	<g>
		<g>
			<path class="st0" d="M78.7,118.2"/>
		</g>
	</g>
	<g>
		<g>
			<path class="st0" d="M79,118.3c-0.3,0-0.3,0-0.4-0.1h0.1v-0.1c0.1,0,0.6,0,1,0v0.1C79.4,118.3,79.2,118.3,79,118.3z"/>
			<path class="st0" d="M79,118.4c-0.3,0-0.4,0-0.4-0.1l-0.1-0.1l0.1-0.1l0.1-0.1l0.1,0.1c0.1,0,0.4,0,0.9,0h0.1v0.4h-0.1
				C79.4,118.4,79.2,118.4,79,118.4z"/>
		</g>
	</g>
	<g>
		<g>
			<polygon class="st0" points="52.2,105.7 51.1,105.5 51.1,105.5 52.2,105.5 			"/>
			<polygon class="st0" points="52.3,105.8 50.9,105.7 51,105.4 52.4,105.4 			"/>
		</g>
	</g>
	<g>
		<g>
			<polygon class="st0" points="78.1,140.8 78.1,140.8 49.6,126.5 49.3,110.4 49.4,110.4 49.6,126.4 78.1,140.7 109.4,138.9 
				110.1,123.3 110.2,123.3 109.4,139 			"/>
			<polygon class="st0" points="78.1,141 78.1,140.9 49.5,126.5 49.5,126.5 49.1,110.3 49.5,110.3 49.5,110.4 49.8,126.3 
				78.1,140.6 109.2,138.8 110,123.2 110.4,123.2 110.4,123.4 109.6,139.2 109.4,139.2 			"/>
		</g>
	</g>
	<g>
		<g>
			<polygon class="st0" points="78,140.7 77.9,140.7 78.5,123.8 78.5,123.8 110.7,123.2 110.7,118.2 110.9,118.2 110.9,123.4 
				110.8,123.4 78.6,123.9 			"/>
			<polygon class="st0" points="78.1,140.8 77.7,140.8 78.4,123.7 78.5,123.7 110.6,123.1 110.6,118.1 111,118.1 111,123.5 
				110.8,123.5 78.7,124.1 			"/>
		</g>
	</g>
	<g>
		<g>
			<polygon class="st0" points="79.7,146 79.7,146 49,131.4 49.1,126.9 50.2,126.7 50.2,126.8 49.2,127 49.1,131.3 79.8,146 
				110.7,144.5 111,139.1 109.4,138.7 109.4,138.7 111,139 110.9,144.7 110.8,144.7 			"/>
			<polygon class="st0" points="79.7,146.1 79.7,146.1 48.9,131.4 49,126.8 50.3,126.5 50.3,126.8 49.3,127.1 49.2,131.2 
				79.8,145.8 110.6,144.4 110.9,139.2 109.2,138.8 109.3,138.5 111.2,138.9 111,144.8 110.8,144.8 			"/>
		</g>
	</g>
	<g>
		<g>
			<polygon class="st0" points="79.3,162.3 79.7,146 80,140.7 80,140.7 111,139.1 111,139.2 80.1,140.8 79.8,146 79.4,162.2 
				109.6,160.2 110.1,144.6 110.2,144.6 109.7,160.3 			"/>
			<polygon class="st0" points="79.2,162.4 79.2,162.3 79.6,146 79.9,140.6 80,140.6 111.1,139 111.1,139.3 80.2,140.9 79.9,146 
				79.5,162.1 109.5,160.1 110,144.5 110.4,144.5 110.4,144.7 109.8,160.4 109.7,160.4 			"/>
		</g>
	</g>
	<g>
		<g>
			<polygon class="st0" points="62.9,133.2 49.1,127 49.2,127 62.9,133.1 			"/>
			<polygon class="st0" points="63,133.3 49,127.1 49.1,126.8 63.1,133 			"/>
		</g>
	</g>
	<g>
		<g>
			<polygon class="st0" points="79.3,162.3 50.1,146 50.1,131.9 50.1,131.9 50.2,146 79.4,162.2 			"/>
			<polygon class="st0" points="79.4,162.4 79.2,162.4 50,146.1 50,131.7 50.3,131.7 50.3,145.9 79.5,162.2 			"/>
		</g>
	</g>
	<g>
		<g>
			<path class="st0" d="M82,168.4l0.2-5.3h0.1l30.2-2.7l-2.8-1.3l0.1-0.1l3.1,1.4h-0.2l0,0l-0.1,4.6L82,168.4z M82.3,163.2l-0.2,5.1
				l30.4-3.3l0.1-4.6L82.3,163.2z"/>
			<path class="st0" d="M81.8,168.6l0.3-5.6h0.1l29.7-2.7l-2.5-1.1l0.1-0.3l3.7,1.7l-0.6,0.1l-0.1,4.6h-0.1L81.8,168.6z M82.4,163.3
				l-0.2,4.9l30.1-3.2l0.1-4.3L82.4,163.3z"/>
		</g>
	</g>
	<g>
		<g>
			<polygon class="st0" points="82.2,163.2 80.1,162.2 80.2,162.1 82.3,163 			"/>
			<polygon class="st0" points="82.3,163.3 80,162.3 80.1,162 82.4,163 			"/>
		</g>
	</g>
	<g>
		<g>
			<polygon class="st0" points="82,168.4 50.9,151 51,146.5 51.1,146.5 51.1,150.9 82,168.4 			"/>
			<polygon class="st0" points="82,168.6 81.9,168.6 50.8,151 50.9,146.4 51.2,146.4 51.2,150.9 82.1,168.3 			"/>
		</g>
	</g>
	<g>
		<g>
			<polygon class="st0" points="81.8,183.2 51.1,165.9 51.4,151.2 51.4,151.2 51.3,165.8 81.6,183 82.2,168.4 82.3,168.4 			"/>
			<polygon class="st0" points="81.9,183.3 81.7,183.3 51,166 51,165.9 51.3,151.1 51.6,151.1 51.4,165.8 81.6,182.8 82.1,168.2 
				82.4,168.2 			"/>
		</g>
	</g>
	<g>
		<g>
			<path class="st0" d="M133.5,212.2c-0.3,0-0.6-0.1-0.7-0.2c-0.1-0.1-0.1-0.2-0.1-0.2s0.3-1.6,0.6-2.4c0.2-0.7-0.4-1.1-0.5-1.2
				c-0.3,0.1-5,1.1-12.5,2.8c-2.5,0.6-4.5,0.2-5.9-0.9c-2-1.7-2-4.6-2-4.6l0.2-15.6c0-0.1,0.4-4.8,0.2-7.9c-0.1-2.9-2.2-3.3-2.3-3.4
				l-28.8,4.5V183l28.9-4.5l0,0c0,0,2.3,0.4,2.4,3.5c0.1,3-0.2,7.9-0.2,7.9l-0.2,15.6c0,0,0,2.9,2,4.6c1.4,1.1,3.3,1.4,5.8,0.9
				c7.7-1.7,12.5-2.8,12.5-2.8l0,0l0,0c0,0,0.7,0.5,0.5,1.3c-0.2,0.7-0.6,2.4-0.6,2.4s0,0.1,0.1,0.2c0.1,0.1,0.4,0.2,1.5,0.1
				c1.8-0.4,30.7-7.2,31-7.2v0.1c-0.3,0.1-29.2,6.9-31,7.2C134.1,212.2,133.8,212.2,133.5,212.2z"/>
			<path class="st0" d="M133.5,212.4c-0.4,0-0.6-0.1-0.7-0.2s-0.1-0.3-0.1-0.4l0,0c0,0,0.3-1.6,0.6-2.4c0.2-0.5-0.2-0.9-0.4-1l0,0
				c-1.5,0.4-5.9,1.4-12.4,2.8c-2.5,0.6-4.6,0.2-6-0.9c-2-1.7-2-4.7-2-4.7l0.2-15.7c0.1-0.8,0.3-5.1,0.2-7.9c-0.1-2.7-2-3.2-2.2-3.3
				l-29,4.5l-0.1-0.3h0.1l28.9-4.5l0,0c0,0,2.4,0.4,2.5,3.6c0.1,3-0.2,7.9-0.2,7.9l-0.2,15.6c0,0,0,2.8,1.9,4.5
				c1.3,1.1,3.2,1.4,5.7,0.9c7.7-1.7,12.5-2.8,12.5-2.8h0.1h0.1c0.2,0.1,0.8,0.7,0.6,1.4c-0.2,0.7-0.6,2.4-0.6,2.4l0,0
				c0,0,0,0,0,0.1c0.1,0.1,0.3,0.2,1.4,0c1.8-0.4,30.8-7.2,31-7.2h0.1l0.1,0.3h-0.1c-0.2,0.1-29.2,6.9-31,7.2
				C134.1,212.3,133.8,212.4,133.5,212.4z"/>
		</g>
	</g>
	<g>
		<g>
			
				<rect x="104.1" y="171.9" transform="matrix(1.562023e-02 -0.9999 0.9999 1.562023e-02 -62.9073 280.0486)" class="st3" width="13.4" height="0.1"/>
			<polygon class="st0" points="110.9,178.8 110.5,178.8 110.7,165.1 111.1,165.1 			"/>
		</g>
	</g>
	<g>
		<g>
			<polygon class="st0" points="179.4,152.8 142.9,139.6 138.6,139.8 138.6,139.8 142.9,139.5 142.9,139.5 179.5,152.8 			"/>
			<polygon class="st0" points="179.6,153 179.4,153 142.9,139.7 138.5,140 138.5,139.7 142.9,139.3 142.9,139.3 179.6,152.7 			"/>
		</g>
	</g>
	<g>
		<g>
			<polygon class="st0" points="142.9,139.5 142.9,139.5 145.8,69.8 145.8,69.8 			"/>
			<polygon class="st0" points="143,139.6 142.7,139.6 142.7,139.5 145.6,69.7 145.9,69.7 145.9,69.8 			"/>
		</g>
	</g>
	<g>
		<g>
			<path class="st0" d="M159.1,157.2c-1.4,0-2.8,0-4.3-0.1c-3-0.1-5.4-0.6-7.4-1.5c-1.9-0.9-3.3-2.2-4.5-4
				c-2.2-3.4-3.3-8.4-4.7-15.5c-1.4-7.1-0.5-22.2,0.5-33.6c1.1-12.4,2.5-23.1,2.5-23.3c0.4-3.3,3.3-8.3,3.4-8.3l0,0l6.3-6.2
				c2.9-2.8,6.9-4.6,12-5.4c5-0.7,10.6-0.6,16-0.2c2.7,0.2,5.1,1.2,7.2,3.2c1.7,1.5,3.2,3.7,4.5,6.2c2.2,4.4,2.9,8.8,2.9,8.8l0,0
				l0,0l-3.5,36.4h-0.1l3.5-36.4c-0.1-0.2-0.8-4.5-2.9-8.8c-2-4-5.6-9-11.6-9.3c-10.6-0.7-21.5-0.8-28,5.6l-6.3,6.1
				c-0.1,0.2-3,5-3.3,8.3c0,0.1-1.4,10.9-2.5,23.3c-1,11.4-1.9,26.5-0.5,33.6c1.4,7.2,2.5,12.1,4.7,15.5c2.4,3.6,6,5.3,11.9,5.4
				c12.8,0.3,22.2-0.6,26.7-5.6c3.9-4.5,7.9-10.8,7.9-23.3v-1.7h0.1v1.7c0,5.4-0.7,10-2.2,14c-1.2,3.3-3.1,6.3-5.7,9.3
				C177.6,156.1,169.7,157.2,159.1,157.2z"/>
			<path class="st0" d="M159.1,157.4c-1.4,0-2.7,0-4.3-0.1c-3-0.1-5.5-0.6-7.5-1.5c-1.9-0.9-3.4-2.2-4.6-4
				c-2.3-3.4-3.3-8.4-4.7-15.6c-1.4-7.1-0.5-22.2,0.5-33.7c1.1-12.3,2.5-23.2,2.5-23.3c0.4-3.4,3.3-8.3,3.4-8.4v-0.1l6.3-6.2
				c2.9-2.8,6.9-4.6,12.1-5.4c5-0.7,10.7-0.6,16.1-0.2c2.7,0.2,5.1,1.2,7.3,3.2c1.7,1.5,3.2,3.7,4.5,6.3c2.2,4.5,2.9,8.8,2.9,8.9
				v0.1l-3.6,36.5l-0.3-0.1v-0.1l3.5-36.4c-0.1-0.4-0.8-4.5-2.9-8.7c-2-4-5.6-8.9-11.5-9.3c-10.5-0.7-21.4-0.8-27.9,5.6l-6.3,6.1
				c-0.2,0.4-3,5.1-3.3,8.2c0,0.1-1.4,11-2.5,23.3c-1,11.4-1.9,26.5-0.5,33.5c1.4,7.1,2.4,12.1,4.6,15.5c2.4,3.5,5.9,5.2,11.8,5.3
				c12.7,0.3,22.2-0.5,26.6-5.6c3.9-4.5,7.9-10.8,7.9-23.2v-1.9h0.3v1.9c0,5.4-0.7,10.1-2.2,14.1c-1.2,3.3-3.1,6.3-5.7,9.3
				C178.1,155.6,171.3,157.4,159.1,157.4z"/>
		</g>
	</g>
	<g>
		<g>
			<path class="st0" d="M46.9,138.5c-1.4,0-2.7-0.1-3.3-0.6l-0.1-0.1c-0.1-0.1-0.1-0.2-0.1-0.3c0.3-0.9,6.4-1.7,6.6-1.7v0.1
				c-2.2,0.2-6.3,0.9-6.6,1.6c0,0.1,0,0.1,0.1,0.2c0,0,0.1,0,0.1,0.1c1.1,0.9,6.4,0.4,6.4,0.4v0.1C50,138.4,48.5,138.5,46.9,138.5z"
				/>
			<path class="st0" d="M46.9,138.6c-1.7,0-2.8-0.2-3.3-0.6l-0.1-0.1c-0.2-0.2-0.2-0.3-0.1-0.4c0.3-0.9,5.7-1.6,6.7-1.7h0.1l0.1,0.3
				h-0.1c-3,0.4-6.3,1.1-6.4,1.5c0,0,0,0.1,0.1,0.1c0,0,0,0,0.1,0.1c0.9,0.7,5,0.5,6.3,0.3h0.1l0.1,0.3h-0.1
				C50.1,138.4,48.5,138.6,46.9,138.6z"/>
		</g>
	</g>
	<g>
		<g>
			<path class="st0" d="M48.6,160.9c-1.9,0-3.3-0.8-3.4-0.8l0,0l0,0L44.1,145l-0.3-1.1l-0.4-6.1h0.1l0.4,6.1l0.3,1.1l1.1,15.2
				c0.3,0.1,3.4,1.7,5.9,0.1l0.1,0.1C50.4,160.8,49.5,160.9,48.6,160.9z"/>
			<path class="st0" d="M48.6,161.1c-1.9,0-3.4-0.8-3.5-0.9l-0.1-0.1v-0.1L44,144.8l-0.2-1l-0.4-6.3h0.3l0.4,6.3l0.2,1l1.1,15.1
				c0.6,0.2,3.4,1.5,5.8,0.1l0.1-0.1l0.2,0.3l-0.1,0.1C50.6,160.8,49.6,161.1,48.6,161.1z"/>
		</g>
	</g>
	<g>
		<g>
			<path class="st0" d="M47.4,144.4c-1.9,0-3.4-0.6-3.5-0.6v-0.1c0.1,0,3.6,1.2,6.2,0l0.1,0.1C49.3,144.3,48.3,144.4,47.4,144.4z"/>
			<path class="st0" d="M47.4,144.5c-1.8,0-3.4-0.5-3.5-0.6l-0.1-0.1l0.1-0.3l0.1,0.1c0.1,0,3.5,1.2,6.1,0l0.1-0.1l0.1,0.3l-0.1,0.1
				C49.4,144.4,48.5,144.5,47.4,144.5z"/>
		</g>
	</g>
	<g>
		<g>
			<polygon class="st0" points="45.8,159.4 45.1,145.4 45.1,145.4 45.9,159.4 			"/>
			<polygon class="st0" points="45.7,159.5 45.7,159.4 44.9,145.3 45.3,145.2 45.3,145.3 46,159.5 			"/>
		</g>
	</g>
	<g>
		<g>
			<polygon class="st0" points="47.8,159.6 47.2,145.7 47.3,145.7 47.9,159.6 			"/>
			<polygon class="st0" points="47.7,159.7 47.7,159.6 47,145.6 47.4,145.5 47.4,145.7 48,159.7 			"/>
		</g>
	</g>
	<g>
		<g>
			<polygon class="st0" points="50.1,159.6 49.8,146 49.9,146 50.1,159.6 			"/>
			<polygon class="st0" points="50,159.7 49.7,145.9 50,145.9 50.3,159.7 			"/>
		</g>
	</g>
	<g>
		<g>
			<path class="st0" d="M211.9,169.3L211.9,169.3l48.5-9.4c0.2-1.9,0.4-4.6,0.4-4.9c-1.3,0.2-48.2,8.4-48.6,8.5v-0.1
				c11.3-2,48.3-8.5,48.6-8.5l0,0c0.1,0,0.1,0.1-0.1,2.5c-0.1,1.2-0.2,2.5-0.2,2.5v0.1h-0.1L211.9,169.3z"/>
			<path class="st0" d="M211.9,169.5l-0.1-0.3h0.1l48.3-9.3c0.2-2,0.4-4.1,0.4-4.6c-2.7,0.4-40.5,7.1-48.2,8.4l-0.4,0.1l-0.1-0.3
				h0.1c18-3.2,48.3-8.5,48.7-8.5h0.1c0.2,0.1,0.2,0.1,0,2.7c-0.1,1.2-0.2,2.5-0.2,2.5v0.1h-0.1L211.9,169.5z"/>
		</g>
	</g>
	<g>
		<g>
			<path class="st0" d="M260.7,154.9L207,137.1v1.2c0,0.8-1.5,1.5-3.4,1.5c-0.5,0-1-0.1-1.5-0.1v-0.1c0.4,0.1,0.9,0.1,1.4,0.1
				c1.9,0,3.3-0.6,3.3-1.4v-1.4l53.8,17.9V154.9z"/>
			<path class="st0" d="M260.8,155.1l-53.6-17.8v1.1c0,0.9-1.5,1.6-3.5,1.6c-0.5,0-1.1-0.1-1.5-0.1h-0.1l0.1-0.3h0.1
				c0.4,0.1,0.9,0.1,1.4,0.1c1.9,0,3.2-0.7,3.2-1.3v-1.5l0.2,0.1l53.9,17.9L260.8,155.1z"/>
		</g>
	</g>
	<g>
		<g>
			<polygon class="st0" points="181.7,220.7 183.6,201.7 183.7,201.7 181.8,220.6 184.9,220 186.7,201.1 186.8,201.1 184.9,220 			
				"/>
			<polygon class="st0" points="181.6,220.9 181.6,220.7 183.5,201.5 183.8,201.6 182,220.4 184.8,219.9 186.6,200.9 186.9,201 
				185.1,220.1 			"/>
		</g>
	</g>
	<g>
		<g>
			<polygon class="st0" points="181.8,220.7 178.5,219.4 178.5,219.4 180.2,202.3 180.4,202.3 178.6,219.4 181.8,220.6 			"/>
			<polygon class="st0" points="181.8,220.9 178.3,219.5 178.4,219.4 180.2,202.2 180.5,202.2 180.5,202.3 178.7,219.2 182,220.5 
							"/>
		</g>
	</g>
	<g>
		<g>
			<path class="st0" d="M239.8,251.3l-3.1-1.7l7.1-86.5h0.1l-7.1,86.4L239.8,251.3l4.2-0.5c0.3-1.9,7.5-88.3,7.6-89.2h0.1
				c0,0.2-1.9,22.5-3.7,44.6c-1.1,12.9-2,23.3-2.6,30.7c-0.4,4.4-0.7,7.8-0.9,10.1c-0.4,3.9-0.4,3.9-0.4,3.9l0,0l0,0L239.8,251.3z"
				/>
			<path class="st0" d="M239.8,251.4l-3.2-1.8v-0.1l7.1-86.6h0.3v0.1l-7.1,86.3l2.9,1.7l4.1-0.4c0.4-3.4,6.3-74.3,7.5-88.6l0.1-0.6
				h0.3v0.1c0,0.3-1.9,22.8-3.7,44.6c-1.1,13.4-2,23.5-2.6,30.7c-0.4,4.4-0.7,7.8-0.9,10.1c-0.2,2.9-0.3,3.7-0.4,3.9v0.1H244l0,0
				H244l0,0L239.8,251.4z"/>
		</g>
	</g>
	<g>
		<g>
			<polygon class="st0" points="239.9,251.2 239.8,251.2 247.5,162.4 247.5,162.4 			"/>
			<polygon class="st0" points="240,251.4 239.7,251.4 239.7,251.2 247.3,162.2 247.6,162.3 247.6,162.4 			"/>
		</g>
	</g>
	<g>
		<g>
			<path class="st0" d="M38.3,269L38.3,269l-16.7-3.3l0.1-4.8h0.1l16.6,3L38.3,269z M21.7,265.7l16.5,3.3l0.1-4.9l-16.5-3
				L21.7,265.7z"/>
			<path class="st0" d="M38.4,269.2l-0.2-0.1l-16.8-3.3l0.1-5l16.9,3L38.4,269.2z M21.8,265.5l16.3,3.2l0.1-4.6l-16.2-2.9
				L21.8,265.5z"/>
		</g>
	</g>
	<g>
		<g>
			<polygon class="st0" points="38.3,269 38.2,268.9 41.5,266.9 41.7,261.9 38.3,264.1 38.3,263.9 41.7,261.8 41.6,267 			"/>
			<polygon class="st0" points="38.3,269.2 38.1,268.9 41.4,266.8 41.5,262.2 38.3,264.2 38.1,263.9 41.9,261.6 41.7,267 			"/>
		</g>
	</g>
	<g>
		<g>
			<polygon class="st0" points="41.7,261.9 24.6,258.7 21.8,261 21.7,261 24.6,258.6 41.7,261.8 			"/>
			<polygon class="st0" points="41.8,262 24.6,258.9 21.7,261.2 21.5,261 24.5,258.5 24.6,258.5 41.8,261.7 			"/>
		</g>
	</g>
	<g>
		<g>
			<path class="st0" d="M31.3,262.3c-0.7,0-1.3-0.3-1.5-0.7c-0.2-0.2-0.2-0.5-0.1-0.7l0.1,0.1c-0.1,0.2-0.1,0.4,0.1,0.6
				c0.4,0.5,1.2,0.9,2.1,0.6c0.4-0.1,0.7-0.3,0.8-0.6c0.2-0.4-0.1-0.9-0.1-0.9l0.1-0.1c0,0,0.3,0.5,0.1,1c-0.1,0.3-0.4,0.6-0.9,0.7
				C31.7,262.3,31.5,262.3,31.3,262.3z"/>
			<path class="st0" d="M31.3,262.4c-0.7,0-1.4-0.3-1.7-0.7c-0.2-0.3-0.2-0.6-0.1-0.8l0.1-0.1l0.3,0.2l-0.1,0.1
				c-0.1,0.1-0.1,0.3,0.1,0.4c0.3,0.4,1.1,0.8,2,0.6c0.4-0.1,0.7-0.3,0.7-0.6c0.1-0.4-0.1-0.8-0.1-0.8l-0.1-0.1l0.3-0.2l0.1,0.1
				c0.1,0.1,0.3,0.6,0.1,1.1c-0.1,0.4-0.4,0.6-1,0.7C31.8,262.4,31.5,262.4,31.3,262.4z"/>
		</g>
	</g>
	<g>
		<g>
			<path class="st0" d="M26.9,261c-0.2,0-0.4,0-0.6,0c-0.9-0.1-1.9-0.3-1.8-0.6c0-0.3,1-0.4,1.9-0.3c0.5,0.1,0.9,0.1,1.3,0.2
				c0.4,0.1,0.6,0.2,0.6,0.4l0,0c0,0.1-0.2,0.2-0.6,0.3C27.4,261,27.2,261,26.9,261z M25.8,260.1c-0.7,0-1.2,0.1-1.2,0.2
				s0.6,0.4,1.7,0.5c0.5,0.1,0.9,0,1.3,0c0.4-0.1,0.5-0.1,0.5-0.2l0,0c0-0.1-0.1-0.2-0.5-0.2c-0.3-0.1-0.8-0.2-1.2-0.2
				C26.1,260.1,25.9,260.1,25.8,260.1z"/>
			<path class="st0" d="M26.9,261.1c-0.2,0-0.4,0-0.6,0c-0.3,0-2-0.2-1.9-0.7s1.7-0.4,2-0.4c0.5,0.1,0.9,0.1,1.3,0.2
				c0.3,0.1,0.6,0.2,0.6,0.5s-0.4,0.4-0.7,0.4C27.4,261.1,27.2,261.1,26.9,261.1z M24.8,260.3c0.2,0.1,0.7,0.2,1.6,0.4
				c0.5,0.1,0.9,0,1.2,0c0.2,0,0.3-0.1,0.4-0.1c-0.1-0.1-0.2-0.1-0.4-0.1c-0.3-0.1-0.7-0.2-1.2-0.2c-0.2,0-0.4,0-0.6,0
				C25.2,260.2,24.9,260.3,24.8,260.3z"/>
		</g>
	</g>
	<g>
		<g>
			<path class="st0" d="M36.7,262.7c-0.2,0-0.4,0-0.6,0c-0.5-0.1-0.9-0.1-1.3-0.2c-0.4-0.1-0.6-0.2-0.6-0.4c0-0.1,0.2-0.2,0.6-0.3
				c0.4-0.1,0.8-0.1,1.3,0c0.9,0.1,1.9,0.3,1.8,0.6l0,0C37.9,262.6,37.4,262.7,36.7,262.7z M35.6,261.9c-0.2,0-0.5,0-0.7,0.1
				c-0.4,0.1-0.5,0.1-0.5,0.2s0.1,0.2,0.5,0.2c0.3,0.1,0.8,0.2,1.2,0.2c1.1,0.1,1.8-0.1,1.8-0.2c0-0.1-0.6-0.4-1.7-0.5
				C36,261.9,35.8,261.9,35.6,261.9z"/>
			<path class="st0" d="M36.7,262.8c-0.2,0-0.4,0-0.6,0c-0.5-0.1-0.9-0.1-1.3-0.2c-0.3-0.1-0.6-0.2-0.6-0.5c0-0.2,0.4-0.4,0.7-0.4
				c0.4-0.1,0.8-0.1,1.3,0c0.4,0.1,2,0.2,1.9,0.7C38.1,262.7,37.6,262.8,36.7,262.8z M34.5,262.1c0.1,0.1,0.2,0.1,0.4,0.1
				c0.3,0.1,0.7,0.2,1.2,0.2c0.9,0.1,1.4-0.1,1.6-0.1c-0.2-0.1-0.7-0.2-1.6-0.4c-0.5-0.1-0.9,0-1.2,0
				C34.7,262.1,34.6,262.1,34.5,262.1z"/>
		</g>
	</g>
	<g>
		<g>
			<path class="st0" d="M174.4,46.6l-30.6-0.9l-32.5-2.4l0.2-3.8h0.1l32.4-1.4c0.3,0,31.1,1.8,31.3,1.8l0,0l0,0
				C175.3,40.2,174.6,45.1,174.4,46.6L174.4,46.6z M111.3,43.3l32.4,2.3l30.6,0.9c0.4-2.5,0.9-6.1,0.8-6.5c-1-0.1-30-1.7-31.3-1.8
				l-32.4,1.4L111.3,43.3z M175.2,40.1L175.2,40.1L175.2,40.1z"/>
			<path class="st0" d="M174.5,46.8h-0.1l-30.6-0.9l-32.6-2.4l0.2-4.1h0.1l32.4-1.4l2.4,0.1c7.1,0.4,28.8,1.7,29,1.7h0.1l0.1,0.1
				c0.1,0.1,0.2,0.2-0.8,6.7L174.5,46.8z M111.4,43.2l32.3,2.3l30.5,0.9c0.4-2.7,0.8-5.6,0.8-6.3c-1.3-0.1-12-0.7-30.3-1.7l-0.9-0.1
				l-32.2,1.4L111.4,43.2z"/>
		</g>
	</g>
	<g>
		<g>
			<polygon class="st0" points="143.7,45.7 143.7,45.7 143.8,38.3 143.9,38.3 			"/>
			<polygon class="st0" points="143.8,45.8 143.5,45.8 143.5,45.7 143.7,38.1 144,38.2 144,38.3 			"/>
		</g>
	</g>
</g>
<g>
	<g>
		<defs>
			<rect id="SVGID_1_" x="44.3" y="344.7" width="800.6" height="423.3"/>
		</defs>
		<clipPath id="SVGID_2_">
			<use xlink:href="#SVGID_1_"  style="overflow:visible;"/>
		</clipPath>
		<path class="st4" d="M189.9,568.5l34.4,0.5l-3-6.4 M247.2,609.9l3-3.3l2.9-3.1l-5.2-11.7l-54-123 M183.7,468.4L246.8,609l0.3,0.8
			v0.1h-5.3l-0.1-0.3c0,0-12.7-29.1-13-29.6l-1-2.1l-31.2-0.6 M188,566.8c0,0,32.5,0.5,35.3,0.6c0.1,0,0.1-0.1,0.1-0.1l-44.2-98.8
			 M151.8,551.6c-0.1,0.3-0.8,5.9-0.8,5.9 M147.8,546c-0.3,0.1-1.1,13-1.1,13 M155.8,467.8l-7.4,71.6 M160.3,468.1l-7.4,75.3
			 M168.1,468.1l-9.2,82.7 M340.6,632h0.5v2.3c0,0,2.6,1.6,1.6,3.1c-1,1.5-2.6,1.3-3,0.8s-0.8-1.4-0.3-3.1c0,0,0.1-0.8,0.8-0.8
			l-0.1-2.3H340.6l-0.1-1.5c0,0,0.1-6.2-0.5-9.1c-0.6-2.9-2.6-25.9-1.5-32c1-6,0.1-14.2-3-28.1 M335.1,633.3l-0.4,0.1l0.1,2.6
			c0,0-1.8,1.4-0.1,2.9s2.9,0.4,3,0.3c0.3-0.1,0.6-2.8-0.4-3c-1.4-0.4-1.8-0.3-1.8-0.3L335.1,633.3L335.1,633.3z M332.8,553.9
			l0.1,0.5 M333.5,562.3c0,0,0.8,6.5,0.3,12.3c-0.5,5.8-1.3,17-0.3,21.8c1,4.8,1.9,19.6,1.6,22.2c-0.3,2.5-1.8,10.3,0,14.9
			 M331.4,555.1c0,0,1.3-0.1,2.5-1 M360.8,447.4c0,0-8.2,4.9-12,8.8c-3.8,3.9-11,2.1-13.7,5.4s-9.8,7.4-7.7,19.1
			c2.1,11.6,2.3,6.2,3.3,12.7c1,6.5-0.8,23.3,0.6,29.7c1.4,6.3,2.9,18.1,1.8,22.5c-1.1,4.3-0.3,8.4-0.3,8.4s-1.5,0.9-1.5,1
			s1.6,7.6,1.6,7.6l2.6-1.3l-1.8-7.6l-1,0.4 M354.4,426.5c0,0-1.9,0.1-2.5,1c-0.8,1-3.7,6-2,9.2s1.6,3,1.6,3 M360.4,426.7
			c-0.1,0-5.8-0.3-5.8-0.3s-0.8,1.1,0.1,1.5l3,0.4 M143.3,752.6c0,0-29.7-20.1-33.5-24.4c-3.8-4.3-11.3-20.5-1.3-25.9
			c0,0,4-3.3,7.7-1.6 M116.2,701.2c0,0-7.9-1.8-10.2,3.8c-2.4,5.5,2.1,16.4,5.4,18.9c3.3,2.6,34,21.9,34,21.9l2.5-1l4.9,6l-7.2,4.3
			l-5.2-6.3l4.8-3 M254.5,732l1,8.2c0,0,8.6-2.4,8.6-2.6c0-0.3-1.5-7.6-1.5-7.6l-7.7,1.8 M217,658c1.1,0.5,9.8-0.5,19.9,11.2
			s5.5,18.3,15.4,38.3c9.8,20,9.9,23,9.9,23l-8.6,1.9c0,0-7.7-20.9-11.1-29c-3.4-8.2-6.9-14.6-6.8-17.8c0.1-3.1,0.9-8.2-3.1-11.5
			s-10.7-7.7-14-8.2 M123.5,650.1c0,0-6-19-4-33.7c2-14.7,8.6-27.7,15.7-31.6c7.1-3.9,29.3-12.5,34.8-12.1
			c5.3,0.4,12.5-2.5,26.2,4.2 M118,713.6c0.1,0.4,2.3,5.4,23.5,2.8 M155.2,556.5c0,0,2.1-1.8,7.7-2 M136.6,562.9
			c0,0,11.3-4.8,18.4-6.3c0,0-7.2-10.8-7.6-11c-0.4-0.1-4.5-8.6-7.1-8.9c-2.5-0.4-4.4,2-7.1,8.6
			C130.8,551.8,136.6,562.9,136.6,562.9l-7.7,4.2L105,487.9 M150.6,708.9l-22.2-88.3c1.8-1.3,30.3-22,66.7-24.4c0,0,2.5-0.1,3.5,0.4
			c0.9,0.5,19.8,84,19.8,84S171.5,713.3,150.6,708.9z M131.6,625.5c3.9-1,66.2-23.4,66.2-23.4 M125.1,649.3c0,0-11.6-48.2,11.3-60.6
			c22.9-12.3,46.8-20.3,61.7-7.8 M222.9,683.3c0,0-44.6,29.2-57.9,32.6c-13.3,3.4-23.5,0.4-23.5,0.4L125.3,649c0,0-8.4,4.8-16.2,4.4
			 M129,567.2c-0.4,0.3-3.1,1.6-4.8,4.2c-1.6,2.5-14.1,10.5-18.6,28.1c-4.5,17.8,7.3,73.5,7.3,73.5l4.8,39.3c0,0,2.8,13.1,10.1,15.4
			c7.3,2.3,21.3,6.3,29.7,3.7c8.4-2.6,67.5-34.1,67.5-34.1s2.5,3.5-2.4-15.4c-4.8-18.9-15.1-68.5-15.1-70.4
			c0-1.9-7.4-34.5-17.1-42.6c-9.7-8.1-10.5-15.4-28.8-14.4c-0.5,0-10.8-18.9-21.8-17.9c-11,1-14,11.2-13.3,22 M51,687.3
			c0,0,10.2-8.2,10.5-8.2c0.3,0,7.4-32.4,7.4-32.4l39.7,2.4 M145.1,467.6L98,491.5L85.1,490v-8.6c0,0,0-5.2,0-5.4 M98,476.7l-0.1,6
			v8.8 M85.9,490.1L44.7,686.6l5.9,0.8l40.8-196.4 M100.6,490.1L71.4,633.6l34.1,2.1 M102.4,489.4c0,0.8,23,80.3,23,80.3 M141,561.2
			l-5.8-19.5 M134.1,538l-16.7-56.2 M787,482.5l-39.8-55l-6.4,0.4 M81,466.1l6.8-4.3 M98.2,476.7L81,475.9V466l17.1,0.5 M98.2,466.6
			c-0.1,0.3,0,9.9,0,9.9l20.5-9.3 M527.4,436l11.2,0.1 M572.3,436.6l177.5,2.6l-9.4-12l-572.1-8.4l-24.3,11.3l189.4,2.9
			 M759.3,452.7v1.5 M522.8,448.5l236.6,4.2l-9.1-12L568.9,438 M553.3,437.8l-26.4-0.4 M331.4,434.5l-188.9-2.8l-22.7,9.7l198.5,3.5
			 M773.9,472.8l-13.2-18.5 M760.7,454.2l-238.4-4.4 M316.8,446.1l-197.7-3.7l-31.4,15.5 M729.1,480.8l-45.8,120.9l-10.2,26.6
			l2.3,4.3 M733.1,481.1L686,606.4l-10.6,26.3h6.5l13.2-33.1l33,1.5 M732.4,589.5l-32.6-1.1L740,481.1 M768.4,522.4l15.1,68.8
			l-37.4-0.9 M749.4,602.6l35.8,1.4l8.8,33.1l6.4,0.4l-26.2-123.7 M738.9,612l18.5,53.6 M771.3,668.7c0,0-24.7-73.9-25.3-76.7
			l-0.3-0.9 M789.4,497.6l55.2,240l-6.3,0.6 M808.3,688.7h16.9h1.5l11.5,49.5l-4.4-3l-9.6-45.1l-0.4-1.3 M782.4,514.1l37.7,160
			l-39-1.9 M719.3,670.7l2.3-5.7l49.7-151.1h11.1h3.1l37.4,160.2l0.4,1.3c-0.1,0-39.4-1.5-39.4-1.5 M701.4,685.3l-7.4,25.8
			 M705,689.7l-9.9,30.1 M768.6,497.7l-61.2,185.2 M786.5,493.3l2.8,4.3h-20.7l-4.7-6l-6,18.3l-54.3,168.6 M758.1,481.4
			c0.3,0.4,7.2,11.6,7.2,11.6 M765.2,481.8c-0.1,0.1,0,11.1,0,11.1s21.3,0.5,21.3,0.4s0.5-10.8,0.5-10.8L765.2,481.8z M515.9,468.5
			l258,4.5l-0.1,8.8l-686-15.5v-8.6l207.6,6 M368.6,415.8c0,0-1,1,0,2.5 M792.8,730.8c0.3-0.4,4.5-1.6,5.2-7.6
			c0.6-5.9,2.8-22.2,2.8-22.2l1.3-11.6c0,0,1.6-4.5-3.4-7.8c-5-3.4-19.4-10.1-19.4-10.1 M796.1,737.6c0.4-0.6,4.7-3.1,6.7-8.1
			c2-4.9,4.3-29.6,4.3-29.6l1.8-17c0,0-10.3-8.2-15.2-10.1c-0.6-0.3-10.6-5-15-5.2c-4.4-0.1-4.2,2.1-4.2,2.1 M742.7,739.6
			c1.5-0.1,29.6-4.2,33.5-4.5 M786.6,733.8c-1.3,0.3-17.3,2.8-25.6,1c-8.3-1.8-23.2-7.9-23.2-7.9 M786.8,725.5
			c0.1,0.6,3,6.7-2.8,11.5c-5.9,4.8-21.2,9.4-33.1,5.5c-3-1-16.9-5.7-21.5-10.7 M729.5,720.4c1.4,0.4,29.7,10.7,40.4,9.9
			c10.7-0.8,16.4-5.4,16.4-5.4 M763.1,712.4c0,0-21.7,0.9-36.8-3.8c0,0,11,8.4,31.1,9.9c20.1,1.5,27.5,0.3,27.5,0.3
			s-7.4,6.3-18.5,7.4c-11.1,1.1-37,0.4-37,0.4 M772,712.6c3.3,1.5,8.3,6.3,15.9,6.4 M724.8,697.1c-0.1,0.1,9.7,13.2,34.1,15.2
			 M789.2,711.8c-0.9,0.3-52.6,5.2-64.8-10.6 M725.7,696.1c0.1,0.1-2.5,1.8-1.6,4.2c0.9,2.4-0.1,2.8-0.1,2.8 M788.2,704.7
			c0,0,2.3,6.3,0.4,8.2c-1.9,2-1,4.9-1,4.9s1.3,3.9,0.3,5.4c-1,1.4-1,1.9-1,1.9c6.5,4.8,10.1,10.3,9.2,15.5
			c-1.9,11-22.9,16.5-46.8,12.3c-7.8-1.4-14.9-3.5-20.9-6.3 M752,753.4c-0.3,0-13.3,11.5-16.2,12.5c-2.9,1-10.6,4.7-14.9-2.5
			c0,0-1.3-4.3-1.1-5.3c0.1-1,4-32.5,4-32.5s1.3-13.7-6.3-22c-7.4-8.4-20.5-23.2-20.5-23.2s-1.5-0.4-1.6,2.5
			c-0.1,2.9-1.3,32-1.6,32.2c-0.4,0.3,1.8,9.6,8.8,10.7c7.1,1.3,6.5,1.3,6.5,1.3 M743.8,751.9c0,0-10.2,8.3-11.1,8.7
			s-5.8,3.4-5.8-1.3c0-4.8,4-34.5,2.1-42.3s-5.4-15.7-8.8-18.9c-3.3-3-19.1-23.4-19.4-23c0,0-8.8-4-10.3,1.1
			c-1.5,5-2.8,38.5-2.8,38.5s0.6,13.2,7.3,15.7c6.7,2.5,15.9,2.9,15.9,2.9 M722.5,743.7c-9.2-5.4-14.5-12.1-13.5-18.4
			c1-5.7,3.9-9.3,13-11.6 M763,698.5c-0.9-0.9-0.9-2.5-0.9-3.1c0.5-2.8,5.3-4.4,10.7-3.4c3.3,0.6,6.2,1.1,7.6,4.2 M778.6,686.3
			c-0.5,2.8-5.3,4.4-10.7,3.4c-5.4-1-9.4-4-8.9-6.8c0.5-2.8,5.3-4.4,10.7-3.4C775.2,680.4,779.1,683.4,778.6,686.3z M737,692.2
			c1.4-2.1,5.7-3.1,10.3-2.3c5.4,1,9.4,4,8.9,6.8c0,0.4-0.1,0.6-0.4,1 M755.8,683.8c-0.5,2.8-5.3,4.4-10.7,3.4s-9.4-4-8.9-6.8
			c0.5-2.8,5.3-4.4,10.7-3.4C752.3,677.9,756.3,680.9,755.8,683.8z M785.5,691.2c-1.1,6.3-15.1,9.1-31.4,6.3
			c-16.2-2.9-28.5-10.2-27.3-16.5c1.1-6.3,15.1-9.1,31.4-6.3C774.4,677.5,786.6,684.9,785.5,691.2z M787,689.2
			c-1.4,7.8-16.2,11.7-33.1,8.7c-17-3-29.6-11.7-28.2-19.5c1.4-7.8,16.2-11.7,33.1-8.7S788.4,681.4,787,689.2z M800.4,693.7
			c-1.9,11-22.9,16.5-46.8,12.3c-23.9-4.2-41.8-16.5-39.9-27.6c1.9-11,22.9-16.5,46.8-12.3S802.3,682.7,800.4,693.7z M744.7,683.9
			l6.2-2.3c0,0,0.5-3.1-0.6-3.9c-1.1-0.8-1.6-2.5-1.9-3.3c-0.3-0.6-5.4-4.4-5.5-4.3c-0.1,0.1-1.5-0.8-1.5-0.8 M746.5,674
			c0,0.1-0.1,1.8-1.4,3.4c-1.4,1.6-1.9,5.8-1.9,5.8s0.8,0.8,1.3,0.6c0,0,0.3-5.3,1.4-6c1.6-1.1,1.4-3,1.4-3
			c-5.4-10.3-33.1-9.2-38.4-12c-5.3-2.8-11.5-3.9-22-6.8c-10.6-2.9-34.4-20.7-38.8-25.7c-4.3-5-12.1-48.7-12.1-48.7
			s-1-31.1-0.8-34.8s4.3-12.8,4.9-17.3c0.6-4.3-3-11.1-6.4-13c-3.4-2-8.3-19.8-8.3-19.8s-13.3-11.1-15.9-14.2
			c-2.6-3.1-10.5-29.2-14.9-30c-4.3-0.8-5.2-2.8-5-4.8c0.1-2-3.7-2.6-3-4.9c0.1-0.6,0.3-1.3,0.3-1.9c0.1-1.6-0.3-3.4-1.1-4.8
			c-1.3-2-4.3-1-4.3-1l-10.2-0.5c-1.4-1.4,0-2.9,0-2.9s8.8,0.5,9.7,0.6c0.9,0.1,3.7,0.9,5.2,4.2l0.8,2.3 M580.9,432.6
			c0,0-0.5,1.9,0.5,2.6 M533.5,426.9l7.4-2.8l31.1,3.3 M565.8,429.8l0.1,9.2 M572.2,436.7l-6.3,2.3l-32.6-3.4l0.1-8.6l32.2,2.6
			l6.3-2.1L572.2,436.7z M531.3,428.9c0.1,0,0.4,0.6,2,1.4 M488.3,420.4c0,0,6.7,0.6,12.7-3.7c6-4.3,11.2-10.8,16.9-9.1
			c5.8,1.8,14.1,7.3,14.1,7.3s9.9,7.9,11.1,6.2c1.1-1.8-3.4-4.7-5.9-5.4c-2.4-0.8-6.3-1.1-10.2,0c-3.9,1.1-11.6,1.5-14.9,4.7
			c-3.3,3.1-7.3,6.5-7.3,6.5s-6.9,1.9-0.4,3.7c6.5,1.8,13.6,2.5,18.4,0.4c4.8-2,8.3-2,8.3-2s1-1.1,2.3-0.9 M359.5,416.9
			c0,0-2.9-0.8-8.3,3.3c-5.4,4-9.9,4.9-10.5,3c-0.5-1.9-0.4-2.6,1.5-4.4c1.9-1.6,15.5-5.4,15.5-5.4s10.7-2.3,12.5,1.3l0.5,1.3
			 M377.5,416.1l-17.4-0.5c0,0-0.5,0.5-0.6,1.1c-0.1,0.5,0,1,0.5,1.4l13.1,0.3 M304.1,445.7l0.5,0.5 M305.4,444.9l0.4,0.5l-5.3,4
			l0.4,0.6l5.3-3.8l0.3-0.3l-0.5-0.5 M301.7,448.1c-0.3,0.5-0.9,0.8-1.6,0.5c-0.6-0.3-1.1-0.9-0.9-1.4c0.3-0.5,0.9-0.8,1.6-0.5
			C301.6,446.9,302,447.6,301.7,448.1z M301.5,448.5l3.9-2.9 M304.7,446.1c0.6-0.4,1-0.6,1-1.3c0-0.6-0.5-1.3-1.3-1.3l-4.7,3.1
			 M282.5,452l-1.1,1l1.5-0.4 M282.3,451.9c0,0,0.8-0.1,0.5,0.9 M286.5,452c-0.1,0-3.7,0.8-3.7,0.8 M284.7,449.5
			c-0.1,0-2.4,2.4-2.4,2.4 M289.9,446.4l8.4-5c0,0,0.9-0.3,1.4,0.3c0.3,0.3,0.4,0.5,0.3,1.1c0,0.1-4.4,3.3-8.2,5.7
			c0,0,0,0.3-0.1,0.3c-2.6,1.8-5,3.3-5,3.3s-0.5-2.8-2-2.5l0,0l5.2-2.9c0,0,2,0.1,2,2.1 M320.5,406.5c0,0-2-2.3-3.7,0 M326,406.5
			c0,0,3.5-1.9,6.4,0c0,0,1.9-1.5,3.1-0.4 M320.5,406.4c0,0,2.5-1.8,5.5,0 M332.7,403l-0.6,28.1 M320.2,403.1l1.9,28.6 M326,403.4
			l0.6,28.7 M316.6,402.6l3.7,0.5l5.7,0.3l6.8-0.4l3.1-1.4 M336.9,389.1l-3,41 M315.2,389.1l4.3,41 M333.8,430.2
			c0,1-3.3,1.9-7.2,1.9c-3.9,0-7.2-0.9-7.2-1.9 M336.1,398.5c0,1.4-4.5,2.5-9.9,2.5c-5.5,0-9.9-1.1-9.9-2.5s4.5-2.5,9.9-2.5
			C331.7,395.9,336.1,397.1,336.1,398.5z M336.9,389c0,1.4-4.8,2.5-10.8,2.5c-5.9,0-10.8-1.1-10.8-2.5c0-1.4,4.8-2.5,10.8-2.5
			C331.9,386.5,336.9,387.6,336.9,389z M424.5,430.1l-10.7-0.5 M413.3,430.4l0.5-1l-10.8-0.6 M404.7,426.4l21.7,1l-2.4,3.8
			l-21.8-1.3L404.7,426.4z M380.7,417.6c-0.3,0.1-9.3,5.3-9.3,5.3l102.9,5.7l4.5-5.9L380.7,417.6z M477.9,440.3c0,0,3.1,5,5.4,5.5
			c2.3,0.5,0.3-2,0-2.3s-3.7-2.8-3.7-2.8 M477.5,440.6c0,0,0.8,0.1,0.8-0.6 M477,440.1c0,0,1-1.1,1.9-0.8c0.9,0.4-0.6,2.1-1,2.1
			S476.4,441.2,477,440.1z M476.2,439.9c0.1-0.1,1.8-2,3.5-1.4c1.6,0.6-1.1,3.8-1.9,3.9C477.1,442.5,475.1,441.8,476.2,439.9z
			 M354.9,442.5c0.3-0.3,1.5-2.6,1.5-2.6l0.8,3l1.8-2.1l0.9,3.7l1.8-2.5l0.9,1.8l2.1-1.5l0.4,1.9l1.6-1.8l0.5,2l1.4-1.9l1,2.4l1-2.1
			l1,2.3l1.1-2l0.8,2l1.1-1.6l0.8,1.8l2.5-1.6l0.3,1.9l1.4-1.9l0.3,2l1.8-2l0.8,2.4l1.4-2.1l1.1,2.1l1-2l1.3,2.3l1.5-2.3l1,2.4
			l0.9-2.3l1.1,2.5l1.1-2.4l0.5,2.5l1.4-2.4l0.8,2.4l1.5-2.5l1,2.6l1.6-2.5l0.5,2.6c0,0,1.8-2.6,1.8-2.5c0,0-0.1,2.6,0,2.6
			c0.1,0,1.6-2.8,1.6-2.8s0.3,2.8,0.4,2.8s1.1-2.8,1.1-2.8l0.8,2.8c0,0,2-2.6,2-2.5s0.5,2.8,0.5,2.8l1.3-2.8l1,2.8l1-3l0.5,3.1
			l1.6-3.1l0.5,2.9l2-2.4l1,2.5l2.3-2.9l1,3.1c0,0,2.8-3.4,2.8-3.3c0,0.1,0.6,3.4,0.6,3.4c0.1,0,0.9-2.5,0.9-2.5l1.8,2.5l0.4-2.8
			l1.5,2.5c0,0,1.1-3,1.1-2.8s1.3,2.3,1.3,2.3l2-2.4l0.9,2.3l1.5-2.4l0.5,2.3l1.6-2.3l1.1,3l1.3-3.1c0,0,0.6,3.4,0.8,3.3
			c0.1-0.1,1.1-3.7,1.3-3.3c0.3,0.3,0.8,3.4,0.9,3.1c0.3-0.3,0.6-3,0.6-3l1.5,3.1l1.6-3.3l1.3,3.1l1-3l1.3,2.9l0.9-2.9l1,2.6
			c0,0,0.3-2.6,0.4-2.6s1.5,3.1,1.6,3.1c0,0,0.9-3.5,1.1-3.1c0.3,0.4,0.8,2.8,0.8,2.8l0.5-3c0,0,1.1,3.4,1.3,3.3
			c0.1-0.1,0.5-3.1,0.5-3.1l0.8,3.1c0-0.1,1.6-2.9,1.6-2.9s1.1,2.4,1.3,2.3c0.1,0,1.1-3,1.1-3s1.6,3.1,1.9,3
			c0.3-0.1-0.3-2.9-0.3-2.9c0.1,0,1.8,2.5,1.8,2.5c0.1,0-0.5-2.9-0.5-2.9l3.3,2.8c0,0-2.6-2.9-2.5-2.9c0.1,0,4,2.1,4,2.1l-1.6-2.1
			l1.9,2.5c0,0-0.1-2.9,0-2.9c0.1,0,1.3,1.6,1.3,1.6s-0.4-2.1-0.3-2c0.1,0,1.5,1.5,1.5,1.5l0.5-2.3l1.6,1.4l0.6-2l0.8,0.5l0.1-1.1
			 M352.2,434.7c0,0,11.3,4.4,26.6,5.3c15.2,0.9,40,2,40,2s31.2,2,45.1,0c13.9-2,20.5-16.4,20.5-16.4s6.3,2.6,1.8,8.9
			c-4.4,6.3-5.3,7.1-5.3,7.1 M478.9,444.2c0,0-6.5,6.9-17.5,6.8s-103.9,0.1-107.9-5.8c-3.9-6-1.4-10.5-1.4-10.5l4.4-3.7
			 M488.7,432.1l36.6,1c0,0,3.4-0.4,1.6,4c-1.8,4.4-11.1,31.1-11.1,31.1s0.4,3.1-8.3,3.3c-8.6,0.1-51.2-0.3-51.2-0.3l-160.2-2.5
			c0,0-5.5-0.9,0.4-5.8s30.1-24.6,30.1-24.6l10.7-8.2c0,0,0-0.9,5.5-0.5c5.5,0.4,13,0.4,13,0.4 M511.3,446.4c0-0.6,0.6-13.7,2.6-7.9
			 M505.7,434c0,0-2.6-0.4-2.1,3 M505.3,434.5c0,0-1.4-0.4-1.3,1.9 M506.6,433.2c0,0-3.7,3.8-4,6.5 M488.3,433.7v-1l0.4-0.1
			 M488.2,431.7l-0.4,0.4v1.1 M487.5,431l-0.4,0.9l-0.1,1.1 M486.6,430.4l-0.6,1v1.1 M489,435.2c0.9-3.9-3.9-3.9-4-3.9
			c0,0-6.7-0.5-7.2-0.5 M488.8,436.2c1.1-5.3-2.3-5.9-2.3-5.9l-6.2-0.6l-1.4-0.1c-0.3,0.1-1.3,1.3-1.3,1.3l0.1,0.9h0.8l5.2,0.4
			c0,0,5.4,0.3,5.2,3c-0.1,1-0.4,2.4-0.6,3.8c0,0.1,0,0.4-0.1,0.5v0.1c-0.4,2-0.6,3.9-0.3,4.9c0.6,1.8,1.4,2.9-0.3,4
			c-1.5,1.1-2.8,4.4-2.9,4.7c-0.1,0.1-5.2,3.8-5.2,3.8s-1.4,3-1,7.6c0.3,4.4-4.8,7.7-4.9,8.7c-0.3,1-0.8,10.2,0,13.6
			s0.4,10.5-0.4,14.6c-0.8,4.2,2.5,17.3,3.4,18.5c0.9,1.3-0.1,14.4-1.4,17.5c-1.3,3-2.5,7.1-5,5.8c-2.5-1.3-3.7-5.7-3.1-7.7
			s3.3-14.5,3.8-15.4c0.5-0.9,4.3-10.1,4.8-14.5c0.4-4.3-1.1-7.8-1.1-7.8s-2.5-7.3-0.3-15.6c2.3-8.2,2.1-16,2.3-16.5
			c0.1-0.6,6.9-6.5,7.2-9.6c0.3-2.9-1.6-6.3,0-7.4c1.5-1.1,5.4-3.7,5.5-3.7c0.1,0,3-8.3,9.2-7.3c0,0-3.4,8.6,1.1,9.4
			c6.7,1.4,12.6-0.3,13.1-2c0.5-1.6,1.4-5.5,1.4-5.5s-0.1-5.8-7.2-6.4c-7.1-0.6-8.4,4.4-8.4,4.4 M478.5,431.8
			c-2.5,2.6-4.9,4.8-6.2,4.9c-2.5,0.3-110.9-4.4-110.9-4.4s-8.8-1.3-4.3-3.7c4.5-2.4,21.7-13.2,21.7-13.2l1.4-0.9l108,4
			c0,0,0.8,1.8-2.4,5c-1.3,1.3-3.3,3.7-5.5,6 M390.6,415c0,0-3.8-0.1-8.1-0.4s-3.4-4-3.4-4l2.3-55.4c0,0-1.1-10.2,4.5-10.2
			c5.5,0.1,39.3,1,39.3,1l59.4,2c0,0,6.7-0.5,6.4,5.8c-0.3,6.3-2.8,63.5-2.8,63.5s-0.3,2.6-1.4,2.8l-11.7,12.7l-3.8,4 M387,350.7
			l-1.4,55.9l98,5.2l2.1-58.7L387,350.7z"/>
	</g>
</g>
<path class="st5" d="M125.2,330.4c0,0,6.4-3.1,15.6-0.1"/>
<path class="st5" d="M147.6,339.4c0,0,8.8,11.3,32,10.2"/>
<g>
	<path class="st6" d="M515.8,219.5l12.4-9.8c0,0,1-48.2,1.4-69.1c0.4-21-3.5-21.6-3.5-21.6s-95.8,33.7-105.3,36.2
		s-8.3,10.7-8.3,10.7l6.7,118.8c4.6,2.1,11.2-0.6,11.2-0.6l25.1-18.2c0,0,15.7-11.7,24.7-17.2c8.9-5.4,10.6,2,10.6,2l8.6,19.4
		c0,0,15.9,1.4,13.1-7.4c0,0-8-10.2-12.3-18.2c-4.3-8,0.5-12.8,0.5-12.8l12-10.1"/>
	
		<ellipse transform="matrix(0.9725 -0.2329 0.2329 0.9725 -49.3512 123.1032)" class="st7" cx="496.6" cy="270.5" rx="40.8" ry="20.1"/>
	<path class="st6" d="M536.5,267.3c0.3,10.4-14.7,22.1-35.2,27c-21.9,5.2-41.8,0.7-44.4-10.1c-0.3-1.3-0.4-2.8-0.1-4.1"/>
	<path class="st6" d="M504.1,193.2l1.1,12.5c0,0,1.8,0.4,1.8-1.1c0,0,3.4,0.3,3.8-1.1c0.4-1.4,0-4.3,0-4.3l0.6-0.5l-0.3-8.6l1-0.8
		c0,0,0.1-1.4-0.6-1.1c-0.8,0.3-4.7,3.5-5.4,3.4C505.5,191.2,504.1,193.2,504.1,193.2z"/>
	<path class="st6" d="M509.6,204.4c0,0,2.8,10,8.2,21.3c0,0,1.4-0.9,1.8-0.8c0.4,0.1,4.8,8.7,4.8,8.7s-2.3,2.5-5.4,3.2l-4.5-8
		c-0.2-0.3-0.1-0.8,0.3-0.9l1.1-0.6c-6-11.9-8.9-22.3-8.9-22.3"/>
	<path class="st6" d="M522.8,235.1c0,0,10.2,16.4,15.9,27.7c5.8,11.2,16,22.7,21.5,25.4c5.4,2.7,15.8,7.7,31.1,7.1
		s9.7,27.3,9.7,27.3"/>
	<path class="st6" d="M521,236.1c0,0,9.6,15.4,15.3,26.6c5.8,11.2,16,23.9,21.5,26.5s15.5,8.7,30.8,8.1s10,25.1,10,25.1"/>
	<path class="st6" d="M468.5,220.2"/>
	<path class="st6" d="M470.4,212.9c0,0.3,0.3,5.9,0.3,5.9l-0.8,0.9l-1.4,0.5l-1.4-5.1l-1.5,0.9l1.3,4.8l1.7-0.6"/>
	<path class="st6" d="M469.5,219.8c0,0,1.5,5.8,5.9,7.1c0,0,22.6,10,32.4,11c9.8,1,38.3,3.9,46.2,4.4c8,0.5,8.7,1.4,14.3,0
		c5.4-1.4,23.2-8.1,24-7.6c0.8,0.5,4.7,3.3,4.7,3.3"/>
	<path class="st6" d="M467.7,220.4c0,0,3.4,7.3,6.6,8.5c6.2,2.4,27,9,28.8,9.4c1.7,0.4,10.9,1.4,10.9,1.4l16.9,1.5
		c0,0,26.1,2.4,29.7,2.8c3.5,0.4,13.1-0.8,14.6-1.5c1.4-0.8,14.9-6.4,16.2-6c1.3,0.4,5.8,3,5.8,3"/>
	<path class="st6" d="M511.8,211l3-2.8c0,0,2.5-2.1,2.4-11c-0.1-8.8-0.6-12.4-0.6-12.4l-63.9,39l0.8,22l0.1,1.7c0,0,1.3,3.7,5.6,1
		C463.6,246,481,235,481,235s1.8-0.8,4.3-2.2"/>
	<path class="st6" d="M487.4,231.7c4.3-2.5,9.6-5.9,11.1-8.7l11.2-10.2"/>
	<path class="st6" d="M510.7,208.1l2.2-1.6c0,0,1.5-0.5,1.4-8.6s-0.7-11.2-0.7-11.2"/>
	<polyline class="st6" points="481.8,229.5 490.6,223.6 508.5,209.7 	"/>
	<path class="st6" d="M453.8,245.2c0.5,4.3,8.3-2.1,8.3-2.1l17.8-12.1"/>
	<path class="st6" d="M372.4,304.8c2.4-0.8,5.1-1.2,7.8-0.3c4.2,1.4,5.8,3,6.6,4c0.8,1,3.7,7.7,3.4,11.1c-0.3,3.4-2.5,8.2-2.5,8.2"
		/>
	<path class="st6" d="M363.1,327.9c0,0-4.9-6.3-2.8-11.9c2.3-5.6,5.3-8.5,8.5-9.8c0.8-0.3,1.6-0.7,2.5-1"/>
	<path class="st6" d="M370.4,308.6c0,0,3,1.5,4.6-1.8"/>
	<path class="st6" d="M372.9,308.6c0,0-0.8-3.9-3.3-4.6c0,0,0.1-0.6,1-0.9c0,0,2.8,2.3,3.5,4.9"/>
	<path class="st6" d="M542.7,99l-1.2,13.1l-6.5,68.3l-1.8,53.3l9.6-107.2c0,0-0.1,0.5,0-6.6C543,113,542.7,99,542.7,99z"/>
	<path class="st6" d="M542.7,99c1.5-1.4,2.4,3.3,2.4,3.3s8.8,38.3,7.7,51.8c-0.1,0.7-0.1,1.4-0.2,2.1c-1.1,12.2-2,19.5-2,19.5
		s-13,54.8-15.2,57.6c-2.1,2.8-2.4,1.8-2.4,0.6"/>
	<path class="st6" d="M559.1,229.5c-2.2,0.3-4.2,0.5-5.1,0.5c-2.9,0.1-17.8,1.6-17.8,1.6"/>
	<path class="st6" d="M570.9,201.4c2,6.2,3.9,13.4,3.9,16.7c0,5.3-0.5,8-2.3,8.8c-1.1,0.6-7.6,1.6-12.6,2.4"/>
	<path class="st6" d="M552.2,160.1c1.5-0.1,4.7,6,4.7,6.2c0,0,8.7,20.9,10.9,26.3c0.7,1.7,1.6,4.4,2.6,7.4"/>
	<path class="st6" d="M567.1,202.1c-5.2-14.2-13-34.4-15.6-34.7"/>
	<path class="st6" d="M559.3,227.7c6.2-0.9,11.4-2,12.1-2.7c1.8-2.1,2.4-6,0.8-9.2c-0.5-1-2.4-6.1-4.7-12.6"/>
	<path class="st6" d="M536.6,230.6c0,0,11.7-1.1,21.5-2.6"/>
	<path class="st6" d="M569,202.5c3.1,8.2,5.9,15.7,5.8,16.7c-0.1,2.5,0,2.5,0,2.5"/>
	<path class="st6" d="M551.6,165.9c0,0,2.6-1.2,5.5,7.5l2.9,6c0,0,4.5,11.3,8.5,21.8"/>
	<path class="st6" d="M533.3,230.9c0,0-4-0.3-4.3-1.2c-0.3-0.9,0.5-13.6,0.5-13.6s0-2.3,2.3-2.4c2.3-0.1,2.3,0,2.3,0"/>
	<path class="st6" d="M533.4,231.8c0,0-4.3-0.3-4.4-0.8c-0.1-0.5,0-1.4,0-1.4"/>
	<path class="st6" d="M541.7,212.3c0,0,13.6,0.1,18,0c4.4-0.1,10.2-0.6,10.4-2.6"/>
	<path class="st6" d="M556.5,243.7c-0.8,0.7-1.6,1.5-2.5,2.5c-1.8,2.2-13,18.8-11.1,23.7"/>
	<path class="st6" d="M541.7,212.7c0,0,3-0.1,5.8,2.5c2.9,2.6,2.9,3.2,2.9,3.2s6.5,6.1,8.7,9.4c2.3,3.4,1.4,7.2,1.4,7.2
		s-1.2,6.8-2,7.2c-0.1,0.1-0.4,0.2-0.6,0.4"/>
	<path class="st6" d="M551.1,283.8c1.4,2,4.1,8.5,4.1,8.5s0.5,0.1,0.8,0.8c0.3,0.6,0.6,1.3,0.6,1.3s0.5-0.4,0.6,0
		c0.1,0.4,2.4,4.7,2.4,4.7l-2.5,2.3l-1.8-5.2l-0.5-1.4c0,0-1-1.7-0.5-2c0.5-0.3-6.1-12.6-7.3-13.7"/>
	<polyline class="st6" points="557.1,301.2 556.5,301.6 554.4,295.9 555.3,295.9 	"/>
	<path class="st6" d="M558.7,300c0,0,0.6,0.9,0.6,1.2l-1,1.1l-0.7-1.3"/>
	<line class="st6" x1="555.1" y1="295.4" x2="554.4" y2="295.9"/>
	<path class="st6" d="M556.5,242.5c1.1-1,1-0.4,1.2-1.1c0.5-1.1,2.1-7.6,2-8.6c-0.1-0.7,0.3-1.4-0.6-3.2c-0.3-0.5-0.7-1.1-1.2-1.7
		c-0.4-0.6-1-1.2-1.6-2c-4.4-4.8-6.8-7.3-8.5-7.6c-1.7-0.3-1.7,0.3-2.8,0c-1-0.3-4.5-1.2-4.5-1.2"/>
	<path class="st6" d="M541.9,268.3c0,0,0.9-8.8,8.6-18.7c2.4-3,3.9-4.8,4.9-6"/>
	<path class="st6" d="M541.3,213.6c0,0,7.3,3.1,9,4.7"/>
	<path class="st6" d="M543.1,206.9c0,0,3.7,1.1,5.5,0.6c1.6-0.4,8.3,0,18.4-5.4c1.4-0.8,3-1.6,4.5-2.7c12.5-8.2,18.2-2.4,22.7-0.9
		c4.6,1.4,15.9,6.4,13.1,8.5c-2.8,2.1-0.9,3.4-4.6,3s-10,18.8-10.3,23.7"/>
	<path class="st6" d="M542.9,208c0,0,4.1,1.1,6.9,0.6c2.8-0.5,9.4-1.7,11-2.4c0.9-0.4,4-1.7,6.8-3.1c1.2-0.6,2.5-1.2,3.4-1.7
		c0.6-0.3,1.1-0.7,1.3-0.9c1.5-1.4,8.3-5.4,13.4-3.8c4.9,1.7,12.1,4,14.3,4.9c2.1,0.9,5.6,3.4,5.6,3.4s1.3,0.6,1,0.9
		c-0.3,0.3-1,2.8-1.5,2.8s-3.8,0.3-4.8,1.7s-8.6,16-8.5,23.4"/>
	<line class="st6" x1="413.7" y1="184" x2="307.3" y2="281.9"/>
	<line class="st6" x1="535.4" y1="177.9" x2="528.2" y2="178"/>
	<line class="st6" x1="557" y1="177.5" x2="550.2" y2="177.6"/>
	<polyline class="st6" points="588.3,195.6 587,177 561.8,177.4 	"/>
	<line class="st6" x1="590.8" y1="234.9" x2="588.5" y2="197.7"/>
	<line class="st6" x1="594.8" y1="295.6" x2="591" y2="236.5"/>
	<line class="st6" x1="597" y1="327.9" x2="595.1" y2="299.3"/>
	<path class="st6" d="M647.3,328l-20.6-28.9c0,0-3.9-5.4,6.4-7.3c10.3-1.8,33.7-6,33.7-6"/>
	<path class="st6" d="M633,291.9c0,0,0.4-2.8,1-3.3s18.4-3.2,18.4-3.2l14.6-2.4"/>
	<path class="st6" d="M667.1,284.3c0,0-31.1,5.8-31.1,5.6s-1.1,0-2-1.3"/>
	<path class="st6" d="M632.1,327.9c0,0-6.3-7.6-6.3-10.2s0.3-3.8,2.1-4.8c1.8-1,7.1-2,7.1-2"/>
	<path class="st6" d="M653.1,285.4l1-12c0,0,1.1-8,5.1-9.4c3.9-1.4,11.6-4,18.6-4.6c6.9-0.5,12-2.5,16.8,3.4l-2.5,2.3"/>
	<path class="st6" d="M675,263.5c0,0-12.4,1.1-14.6,4.3c-2.2,3.2-2.5,3.7-2.9,6.6c-0.4,2.9-0.7,10.3-0.7,10.3"/>
	<polyline class="st6" points="674.8,263.1 681.1,269.7 706.8,294.4 	"/>
	<polyline class="st6" points="719.6,308.1 739.1,327 736.4,328 	"/>
	<path class="st6" d="M724.2,307.5l19.3,18.4l11.2-2.5c0,0,8.1-2,12,4.6"/>
	<path class="st6" d="M657.2,328c0,0-7.2-11.9-7.1-16.3c0.1-4.4,0.3-9.7,6-11c5.8-1.3,15.5-3.3,15.5-3.3"/>
	<path class="st6" d="M660.1,327.9c0,0-8.7-14.4-8.5-16.9c0.3-2.6-3.2-8.5,6.7-10.7"/>
	<polyline class="st6" points="735.2,318.1 783.7,300.2 784.6,306.4 740.6,323.2 	"/>
	<polyline class="st6" points="731.3,319.4 713.5,325.7 713.5,328.1 	"/>
	<polyline class="st6" points="783.7,300.2 782.2,299.6 734.2,317.1 	"/>
	<polyline class="st6" points="730.2,318.4 712.2,325.2 712.2,325.8 711.3,325 711.3,324 728.9,317.1 	"/>
	<polyline class="st6" points="732.9,315.8 780.6,299.1 780.7,299.8 780.9,300 	"/>
	<polyline class="st6" points="683.4,300.2 712,326.2 711.9,327.9 679.7,299.5 	"/>
	<line class="st6" x1="711.3" y1="324" x2="684.8" y2="300.5"/>
	<polyline class="st6" points="709.9,328 677.8,299.2 677.7,300.2 708.5,328.1 	"/>
	<line class="st6" x1="780.6" y1="299.1" x2="753.4" y2="280.8"/>
	<path class="st6" d="M779,308.5l12.7,13.8c0,0,0.9,0.3-2.1,0.5c-3,0.3-24.4,3.2-24.4,3.2"/>
	<path class="st6" d="M786.2,316.3c0,0,13.2,10.2,13.2,10.9s0,0.8,0,0.8"/>
	
		<ellipse transform="matrix(0.9893 -0.1459 0.1459 0.9893 -34.4634 100.7032)" class="st7" cx="669.3" cy="285.3" rx="1.7" ry="9.4"/>
	
		<ellipse transform="matrix(0.9893 -0.1459 0.1459 0.9893 -34.3579 100.9226)" class="st7" cx="670.8" cy="284.7" rx="3.5" ry="12.6"/>
	
		<ellipse transform="matrix(0.9893 -0.1459 0.1459 0.9893 -34.3077 100.9779)" class="st7" cx="671.2" cy="284.4" rx="3.8" ry="13.1"/>
	<path class="st6" d="M675.5,271.7l0.6-0.1c0,0,0-1.1,1-1.3c1-0.1,4.2-0.2,4.2-0.2"/>
	<path class="st6" d="M683.8,272.2c0,0,1.8,3.7,2.6,7.7c1,5.3,1.1,9.2,1.1,9.2"/>
	<path class="st6" d="M677.6,270.1c0,0,4.3,4,5.2,16.1"/>
	<path class="st6" d="M676.2,271.6c0,0,3.8,0.1,5.2,13.9"/>
	<polyline class="st6" points="674.6,282 676.7,283.9 676.9,285.2 680.7,287.5 681.3,300.5 683.5,300 	"/>
	<path class="st6" d="M691.7,290.8l-2.9,1.2l0.4,10v1c0,0,13.6,5.9,27.5,4.8c14-1,23.6-4,23.7-4c0.1,0,13.6-6,14.1-11.4l-1.6-12.8"
		/>
	<line class="st6" x1="680.7" y1="287.5" x2="683.2" y2="286.7"/>
	<polyline class="st6" points="683.4,288.2 682.4,288.6 683.2,299.8 689.2,302.5 	"/>
	<polyline class="st6" points="682.4,288.6 684.8,289.6 685.1,289.1 690.4,291.3 	"/>
	<line class="st6" x1="685.9" y1="288.5" x2="685.1" y2="289.1"/>
	<path class="st6" d="M688.8,292c0,0,9,4.7,20.1,4.6c11.1-0.1,30.4-2.8,36.9-7.3c6.5-4.5,10.7-9.2,3.4-13.8
		c-7.3-4.4-10.5-5.1-10.5-5.1l-1.5,1c0,0,17.9,7.3,11.2,12c0,0-6.5,6.4-15.4,8.5c-11.6,2.8-25.5,2.5-25.5,2.5c-8.3,0-21.6-6-21.6-6
		l-0.5,0.5l-2.1-0.8l-0.1-1.5l-2.9-2.4v-1.4l-1.1-1.4c-0.3-6.2-2.8-9-3.7-9.9c-0.2-0.2-0.4-0.3-0.4-0.3c-3.2-1.8-5.8,0.1-5.8,0.1"/>
	<line class="st6" x1="681.3" y1="300.5" x2="674.4" y2="296.3"/>
	<line class="st6" x1="677.8" y1="299.2" x2="678.9" y2="299.1"/>
	<path class="st6" d="M737.1,271.6l-1.1,9.8c0,0,4.5,1,9.4,4.7"/>
	<polyline class="st6" points="738.2,270.8 734.4,269.5 733.2,270.4 737.1,271.9 	"/>
	<polyline class="st6" points="733.2,270.4 732.6,271.3 726.7,270.2 727.6,269.8 733,270.8 	"/>
	<path class="st6" d="M735.9,281.3"/>
	<path class="st6" d="M729.2,277.1l-2.6,1.5l-1.7-9.8c0,0,0.8-1.5,2.5-1.3l0.5,2.3"/>
	<path class="st6" d="M726.7,270.2l1.1,6.8c2.1-0.1,8.4,2,8.4,2"/>
	<path class="st6" d="M724.9,268.9l-7.8-1.5c0,0-3.5-3.5-6.4-5.4c-2.9-2-12.5-3.7-15.9,0.6c-0.8,1,1.8-2.1,3-3.3
		c3.7-3.5,13.6-1.4,14.9,1.1c1.3,2.6,5.9,5.4,5.9,5.4l8.8,1.7"/>
	<path class="st6" d="M726.5,278.6l-7.6-0.9l-1.8,0.4c0,0-2.4,6.7-6.4,7.7c-4,1-6.5,1.1-7.7,0.5"/>
	<path class="st6" d="M690.1,273.7c0,0.3-0.6-6.1,2-8.7c0,0-1-3.4-5.8-2.9s-7.2,0.9-7.2,0.9l32.1,31.4"/>
	
		<ellipse transform="matrix(0.1571 -0.9876 0.9876 0.1571 321.5711 925.686)" class="st8" cx="703.1" cy="274.5" rx="6.9" ry="8.2"/>
	
		<ellipse transform="matrix(0.1571 -0.9876 0.9876 0.1571 321.5711 925.686)" class="st8" cx="703.1" cy="274.5" rx="5.8" ry="6.8"/>
	<path class="st6" d="M717.2,278.1c0,0,2.5-12.5-11.4-15c-5-0.9-10-1.8-14.8,3.4"/>
	<path class="st6" d="M717.1,267.3"/>
	<path class="st6" d="M719,277.8"/>
	<path class="st6" d="M719,277.8c0,0-0.3-5.2-2-10.5"/>
	<line class="st6" x1="770.6" y1="179.2" x2="878" y2="269.8"/>
	<line class="st6" x1="697.1" y1="175.6" x2="731.8" y2="175.1"/>
	<polyline class="st6" points="601.9,328.1 593,177 640.4,176.3 	"/>
	<path class="st6" d="M654.3,160.7l2.4,16.8l28.5,52.3L692,243c0,0,2.1,0.8,2.5-0.3l3.4-138.4c0,0,0-2.8-4.3-4.8
		c-4.3-2.1-34.2-19.7-34.2-19.7s-1-0.3-1.3,0.9c-0.3,1.1-2.3,11.4-3.4,28c-1.1,16.7-1.8,35.7-1.7,36.9"/>
	<path class="st6" d="M692.1,243c0.8-1,0.9-5.3,0.9-5.3l2.8-132.2c0,0,0.1-3.5-3.7-4.9s-34-19.7-34-19.7"/>
	<path class="st6" d="M686.8,232.8c0,0-35.4-2.9-44.6-3.5c-9.1-0.6-5.2-11.7-5.2-11.7l11.6-37.4c0,0,4.2-13.5,6-19.8
		c1.7-6.4,5.2-7.6,5.2-7.6l0.3-1.8c0,0-4.3,1.7-5.4,5.9c-1.1,4.2-8.7,26.5-8.7,26.5l-11.7,36.1c0,0-1.4,5.3,0.5,7.6
		c2,2.3,5.1,4.6,14.4,4.8c9.2,0.3,38.3,2.2,38.3,2.2"/>
	<line class="st6" x1="674.8" y1="210.9" x2="638.9" y2="211.5"/>
	<path class="st6" d="M633.8,224.9c-0.3-0.5-5-18-5-18l8.6-24.4l12.1-31.1c0,0,2.3-6,5.6-7.1l4.9,6.6"/>
	<path class="st6" d="M639.7,188.8c-0.2,1.5-0.1,2.7,0.4,2.8c0.7,0.2,2-2.2,2.8-5.2c0.8-3.1,0.9-5.8,0.2-5.9c-0.7-0.1-2,2.2-2.8,5.2
		c-0.1,0.4-0.2,0.8-0.3,1.2"/>
	<path class="st6" d="M638.6,188.7c-0.1,1.8,0.1,3.1,0.8,3.3c1,0.3,2.7-2.3,3.6-5.6s0.8-6.4-0.2-6.7s-2.7,2.3-3.6,5.6
		c-0.1,0.4-0.2,0.8-0.3,1.1c0,0.1,0,0.1,0,0.2"/>
	<path class="st6" d="M663.9,191h-3.5l0,0v0.4v2.3l0,0h4.9"/>
	<path class="st6" d="M660.5,191.4c-1.8,0.1-5.4-0.6-5.4-0.6l-8.9-2.4"/>
	<path class="st6" d="M660.5,193.2c0,0-2.4,0.4-7.2-1.1c-4.8-1.5-7.8-2-7.8-2"/>
	<path class="st6" d="M642.6,187.3c0,0-1-0.2-2.5-0.5c-1.8-0.3-4.5-0.8-6.5-0.8c-3.7-0.1-9.6-0.3-12.8,5.2c-3.3,5.4-3.8,7.4-3.8,7.4
		l-2.6,13.6c0,0-1.4,8.5-2.3,10.2c-0.8,1.7-12,22.7-12.5,23.4c-0.5,0.6-3.2,7.8-3.7,9.2s-2.1,5.8-2.8,5.6c-0.6-0.1-0.6,0-0.6,0"/>
	<path class="st6" d="M592.8,263.1c0.1,0,2.1-0.3,2.7-1.7c0.6-1.4,2.3-5.6,3.7-9.4c1.4-3.8,3-7.4,3.2-7.6c0.1-0.1,4.8-8.5,4.8-8.5
		l5.4-10.5c0,0,1.7-2.5,2.4-6.8c0.6-4.3,3.8-19.8,3.8-19.8s4-9.6,7.8-10.2c3.8-0.6,4.9-1,8.2-0.5c3.3,0.5,7.2,1.1,7.2,1.1"/>
	<path class="st6" d="M772.9,253.1l-15.4-18.6l-27.5-0.9c0,0-0.9,0.3,0.6,2.1c1.5,1.8,23.6,33.2,23.6,33.2l31.1,0.6
		c0,0,0.5-0.4-1-2.3C782.7,265.5,772.9,253.1,772.9,253.1z"/>
	<path class="st6" d="M730,233.7l-0.8,2.6l24.3,34.5c0,0,1,0.8,3.5,0.6c2.3-0.1,24.4,0,27.9,0c0.3,0,0.5-0.2,0.5-0.5v-1.4"/>
	<path class="st6" d="M743,225.6c-12.1-3.8-23-1.8-23-1.8s-4-2.3,0.6-5.2c4.7-3,21.6,0.6,22.9,1.5C746,221.8,745.5,226.5,743,225.6z
		"/>
	<path class="st6" d="M720,223.8c0,0,15,2.6,18.6,2.1c3.5-0.5,3.5-0.5,3.5-0.5"/>
	<path class="st6" d="M765.7,182.2v1c0,0-0.6,4.7-3.2,5.6c-2.5,0.9-10.5,2.6-10.5,2.6s-1.8,0.5-5.4-0.6c-3.7-1.1-11.9-4.3-11.9-4.3
		s-2-1.4-2-3s0-3.3,0-3.3l3.4,1.1c0,0,1.5,5.1,4.6,1.7l9.2,2.4c0,0,2.1,0.1,4.4-0.4C756.3,184.7,762.9,182.9,765.7,182.2
		c0.8-0.3,1.3-0.4,1.3-0.4s0.9-0.5,1-0.8v-0.1c-0.1-0.3-0.1-0.3-0.1-0.3v-0.4c0,0,0.1,0.3-2.3,0.8c-2.4,0.5-5.9,1.7-7.7,2
		c-1.8,0.3-4.8,1.7-6.2,1.4c-1.3-0.3-10.5-2.3-10.5-2.3l-0.6,0.9"/>
	<path class="st6" d="M768,182"/>
	<path class="st6" d="M740.4,183.5c-1.8,0.7-3.2-2.8-3.2-2.8s-5.4-2.1-5.4-2.4s0.5-0.6,0.6-0.6l1-0.4"/>
	<path class="st6" d="M732.8,180.2l-2.4-1.5c-0.2-0.1-0.2-0.3-0.2-0.5c0.2-0.5,0.7-1.3,1.7-1.6"/>
	<path class="st6" d="M735.8,178.4c0,0-2.4-1-3-1.3c-0.6-0.3-1.5-1.1-1.5-1.1s0.6-1,1-1.3c0.4-0.3,1.7-1.8,3-2.1
		c1.2-0.2,9.8-2,9.8-2s15.8,2.6,19.7,4c3.9,1.4,4.4,2,4.4,2l0.8,1.3c0,0,1.3,1.3-0.4,1.8c-1.7,0.5-1.7,0.5-1.7,0.5
		s-8.6,2.9-11.9,2.9S735.8,178.4,735.8,178.4z"/>
	<polyline class="st6" points="411.9,125.4 393.6,135.3 395.3,188.9 390.5,192.9 387.3,125.2 373.3,125.4 376.9,192.9 390.6,192.9 	
		"/>
	<polyline class="st6" points="511.8,124.3 373.7,125.2 372.5,125.2 372.5,120.9 523.9,120.1 	"/>
	<line class="st6" x1="540.4" y1="124" x2="528.4" y2="124.1"/>
	<polyline class="st6" points="548.5,120 623.8,119.4 623.8,123.4 549.3,124 	"/>
	<line class="st6" x1="527.2" y1="120.1" x2="540.8" y2="120"/>
	<polyline class="st6" points="412.9,170.7 411.2,170.6 408.9,126.9 	"/>
	<line class="st6" x1="419.5" y1="125.2" x2="421.4" y2="155.1"/>
	<line class="st6" x1="425.8" y1="153.5" x2="424.2" y2="124.9"/>
	<line class="st6" x1="609.2" y1="176.7" x2="609.2" y2="123.5"/>
	<line class="st6" x1="623.8" y1="123.5" x2="623.8" y2="176.7"/>
	<polyline class="st6" points="608.1,176.5 608.4,132 605.5,123.5 604.6,169.5 604.1,167.9 604.6,123.5 	"/>
	<line class="st6" x1="388.1" y1="115.9" x2="372.4" y2="121.2"/>
	<line class="st6" x1="417.7" y1="105.9" x2="412" y2="107.8"/>
	<line class="st6" x1="537" y1="103.9" x2="475.5" y2="104.4"/>
	<polyline class="st6" points="623.8,119.4 616.2,103.1 607.5,103.1 	"/>
	<line class="st6" x1="604.6" y1="169.5" x2="608.2" y2="169.4"/>
	<polygon class="st6" points="605.9,108.2 607.5,103.2 609.3,97.7 589.3,98 589.5,103.4 589.7,109.2 591.5,109.2 591.2,110.3 
		589.6,110.3 592.2,113 608.2,112.6 605.3,109.3 604.1,109.3 604.2,108.2 	"/>
	<path class="st6" d="M591.5,109.2l0.9-2.8l12-0.1c0,0,0.4,1.3-0.3,2"/>
	<line class="st6" x1="606.6" y1="105.9" x2="608" y2="105.9"/>
	<ellipse class="st6" cx="608" cy="106" rx="0.4" ry="0.1"/>
	<path class="st6" d="M608.4,106c0,0,0.1,3.2-2.3,4.1"/>
	<path class="st6" d="M605.6,109.6c0,0,2-0.6,2-3.5"/>
	<polyline class="st6" points="609.3,97.7 609.1,97 589.3,97.3 589.3,98 	"/>
	<path class="st6" d="M608.3,97v-1.4c0,0-1.7-1-3.9,0.1V97"/>
	<path class="st6" d="M561.2,83.2c1.1,0.5,6.7,0.1,6.7,0.1"/>
	<polyline class="st6" points="568.5,110.3 579.1,110.2 579.1,112.1 568.4,112.1 	"/>
	<polyline class="st6" points="562.1,112 553.3,112.1 553.5,110.3 562.1,110.3 	"/>
	<polyline class="st6" points="579.1,110.2 580.5,109.7 580.5,110.5 579.1,112.1 	"/>
	<line class="st6" x1="568.5" y1="109.8" x2="580.5" y2="109.7"/>
	<polyline class="st6" points="553.5,110.3 555.8,109.8 562.2,109.8 	"/>
	<line class="st6" x1="561.8" y1="105.8" x2="546" y2="106.1"/>
	<path class="st6" d="M542.1,106.4l-5,0.1l-1.7-33.7c0,0-0.4-0.6,2.6-0.5c3,0.1,55.7-0.4,55.7-0.4s0.4,0,0.4,2s-0.4,23.4-0.4,23.4"
		/>
	<polyline class="st6" points="589.6,105.8 586.7,105.8 568.3,105.9 	"/>
	<polyline class="st6" points="568.6,114.7 576.5,114.7 572.3,116.8 553,116.8 557.1,114.6 562.1,114.6 	"/>
	<polyline class="st6" points="576.5,115.4 572.3,117.6 553,117.6 	"/>
	<line class="st6" x1="553" y1="117.5" x2="553" y2="116.8"/>
	<line class="st6" x1="576.6" y1="115.4" x2="576.6" y2="114.6"/>
	<line class="st6" x1="572.3" y1="117.5" x2="572.3" y2="116.8"/>
	<path class="st6" d="M568.5,115.1l-0.1-3.2v-0.5v-2.1l-0.6-26.1l0.6-2.8c0,0-3.7-1-8.1,0l0.8,2.7l0.7,26.3l0.1,2v0.5l0.1,3.2"/>
	<path class="st6" d="M447.4,110.5l8.1,0.1l-5.2,2.8c0,0-2.8-0.1-2.9-4c-0.1-3.9-0.8-22-0.8-22s-0.1-1.7,0.3-2l-0.5-0.1"/>
	<path class="st6" d="M455.5,110.6v0.6l-5.8,3c0,0-2.1-0.9-2.9-3.2c-0.5-1.3-0.8-24.3-0.8-24.3s-0.1-1.3,0.3-1.5h-8.6
		c0,0-0.3,0.5-0.4,2.6c-0.1,2.1-3.9,24.5-3.9,24.5s-0.1,1.7,0.9,1.7c1,0,15.4,0.1,15.4,0.1"/>
	<path class="st6" d="M447.3,105.4l26.4,0.3c0,0,1.7-0.1,1.5-2.6c-0.1-2.5-2.8-37.5-2.8-37.5s0-1-4-1c-4,0-53.3-0.1-53.3-0.1
		s-2.1,0-1.8,3.3c0.2,2.8,2.4,28.1,3.1,35.9c0.1,1.3,1.2,2.3,2.4,2.1l15.7-0.4"/>
	<line class="st6" x1="633.9" y1="78.5" x2="633.9" y2="77.4"/>
	<polyline class="st6" points="632.4,77.4 639.7,82.7 593.8,83.8 	"/>
	<polyline class="st6" points="639.7,82.7 639.7,84.9 593.8,86 	"/>
	<polyline class="st6" points="638.9,84.9 638.7,124.9 630.8,125.2 629.7,124.2 629.7,91.4 625.4,87.7 625.2,116.3 629.7,116 	"/>
	<polyline class="st6" points="630.8,125.2 630.8,123.5 630.8,84.9 	"/>
	<polyline class="st6" points="625.2,116.3 623.5,114.6 623.5,85 	"/>
	<polyline class="st6" points="424.3,112 424,112.1 424.2,115.8 388.1,116.9 388.1,115.7 388.1,113 424,112.1 	"/>
	<polyline class="st6" points="424.2,115.8 425.5,114.9 425.5,113.3 	"/>
	<line class="st6" x1="392.5" y1="112.1" x2="423.8" y2="111.4"/>
	<polyline class="st6" points="388.1,113 389.8,112.1 390.5,112.1 	"/>
	<polygon class="st6" points="392.2,112.7 390.5,111.4 390.5,112.7 	"/>
	<path class="st6" d="M392.7,112.5l-0.5,0.3L392.7,112.5z"/>
	<path class="st6" d="M391.5,111.2l-0.9,0.1L391.5,111.2z"/>
	<line class="st6" x1="392.7" y1="112.5" x2="391.5" y2="111.2"/>
	<path class="st6" d="M411.6,109.7L404,98.1h-3.2l-2-2.5l-9,0.3l0.4-0.4l9.6-0.4l2,2.6h3.3l6.8,10.2l0.9,1.4
		c0.1,0.1,0.1,0.4-0.1,0.4l-0.5,0.2C411.9,109.9,411.7,109.9,411.6,109.7z"/>
	<polyline class="st6" points="398,109.8 397.7,109.8 389.8,95.8 	"/>
	<line class="st6" x1="412" y1="109.8" x2="406.6" y2="109.8"/>
	<polyline class="st6" points="404.7,111.8 406.1,106.3 407,107.2 405.8,111.8 	"/>
	<line class="st6" x1="405.7" y1="106.3" x2="406.1" y2="106.3"/>
	<polyline class="st6" points="405.5,106.3 399.3,106.4 397.1,112 	"/>
	<path class="st6" d="M404.3,97.7l0.5-0.9c0-0.1,0-0.2-0.1-0.2h-2.3c0,0-0.1,0-0.1,0.1l-0.6,1.1h2.6V97.7z"/>
	<path class="st6" d="M404.9,96.5c0,0,4.4,3.2,6.9,10.5l-0.3,0.4"/>
	<polyline class="st6" points="410.5,105.9 410.6,105.7 406.3,98.7 405.9,99 	"/>
	<line class="st6" x1="404" y1="98.1" x2="405" y2="97.7"/>
	<line class="st6" x1="400.8" y1="98.1" x2="401.7" y2="97.7"/>
	<line class="st6" x1="398.9" y1="95.6" x2="399.8" y2="95.1"/>
	<polyline class="st6" points="447.3,106.7 457.9,106.7 457.9,108.7 447.2,108.7 	"/>
	<polyline class="st6" points="457.9,106.7 459.3,106.2 459.3,106.9 457.9,108.7 	"/>
	<line class="st6" x1="447.3" y1="106.2" x2="459.3" y2="106.2"/>
	<path class="st6" d="M594,75.2l7.1-0.1c0,0,0.4,0,0.5-1.3c0.1-1.3-0.1-21.3-0.1-21.3s0-0.8-3-0.8s-29.7,0.5-29.7,0.5s-1-0.1-1,1.7
		c0,1.8-0.3,18.2-0.3,18.2"/>
	<line class="st6" x1="601.6" y1="71.8" x2="593.9" y2="71.8"/>
	<path class="st6" d="M567.4,68.5c0.2-0.2-0.3-16.8-0.3-16.8l3.7-0.8l1.8-0.4l0.3,1.7"/>
	<path class="st6" d="M570.7,50.8l-5.6-0.9c-0.3,0-0.5,0.2-0.5,0.4l-0.6,18.9l3.5,1"/>
	<line class="st6" x1="564" y1="67" x2="567.3" y2="67.8"/>
	<polyline class="st6" points="565,69.5 546.5,69.4 543.1,72.2 	"/>
	<path class="st6" d="M530.7,80.7c2.5-0.1,4.9-0.2,4.9-0.2"/>
	<path class="st6" d="M523.2,78.4c0,0,0.6,2.5,3.2,2.5c0.7,0,1.7,0,2.9-0.1"/>
	<path class="st6" d="M536.1,87.5c0,0-12.6,0.8-16.6,0.9c-4,0.1-5.6-4-5.6-4s-4.3-18-5.8-22.2s0.3-4.6,0.3-4.6l10.2-1.4l4.4,21.2"/>
	<path class="st6" d="M536.1,86.7l-18,0.9c0,0-2.5-0.8-3.3-3.2c-0.8-2.4-6.4-26.3-6.4-26.3l10.1-1.5"/>
	<path class="st6" d="M513.4,78.9l14-0.8c1-0.1,1.8,0.7,1.8,1.7V87"/>
	<path class="st6" d="M513.3,77.6l9.9-0.4l5.8-0.2c1-0.1,1.8,0.7,1.8,1.7v8.3"/>
	<path class="st6" d="M521.8,72.3l12.6-0.8c0.5,0,1,0.3,1.3,0.7"/>
	<path class="st6" d="M521.8,71.2l14-0.7c0.9-0.1,1.6,0.7,1.6,1.7"/>
	<line class="st6" x1="522.3" y1="79.1" x2="517.3" y2="81.9"/>
	<line class="st6" x1="518.7" y1="78.5" x2="516.6" y2="79.8"/>
	<line class="st6" x1="521.5" y1="76.9" x2="520.7" y2="77.3"/>
	<line class="st6" x1="520.9" y1="74.6" x2="515.8" y2="77.4"/>
	<line class="st6" x1="519.8" y1="72" x2="514.8" y2="74.9"/>
	<line class="st6" x1="519.8" y1="68.7" x2="513.8" y2="71.2"/>
	<line class="st6" x1="518.7" y1="66.2" x2="512.8" y2="68.3"/>
	<line class="st6" x1="518.1" y1="62.8" x2="512.1" y2="65.4"/>
	<line class="st6" x1="517.1" y1="60.4" x2="511" y2="62.5"/>
	<line class="st6" x1="525.2" y1="81.9" x2="521.8" y2="85.1"/>
	<line class="st6" x1="528.3" y1="82.3" x2="524.9" y2="85.4"/>
	<line class="st6" x1="531.5" y1="82.6" x2="528.1" y2="85.6"/>
	<line class="st6" x1="534.6" y1="82.3" x2="531.2" y2="85.4"/>
	<path class="st6" d="M523.7,88.1c0,0,2.5,1.3,2.5,2.9c0,1.5,0.5,13,0.5,13"/>
	<path class="st6" d="M532.4,87.8c0,0-2.5,1.3-2.5,2.9c0,1.6,0.4,13.4,0.4,13.4"/>
	<path class="st6" d="M638.9,88.7c3.2-0.6,4.4-4,4.4-4s4.3-18,5.8-22.2c1.4-4.2-0.3-4.6-0.3-4.6l-10.1-1.3l-4.4,21.2"/>
	<path class="st6" d="M639.1,88c0,0,0.1,0,0.3-0.1c0.7-0.3,2.4-1.2,3-3c0.8-2.4,6.4-26.3,6.4-26.3l-10.1-1.5"/>
	<line class="st6" x1="643.8" y1="79.2" x2="634.1" y2="78.8"/>
	<line class="st6" x1="643.9" y1="78" x2="633.9" y2="77.8"/>
	<line class="st6" x1="635.3" y1="72.7" x2="627.6" y2="72.2"/>
	<line class="st6" x1="635.4" y1="71.6" x2="626.4" y2="71.2"/>
	<line class="st6" x1="634.9" y1="79.5" x2="639.8" y2="82.4"/>
	<line class="st6" x1="638.4" y1="78.9" x2="640.6" y2="80.2"/>
	<line class="st6" x1="635.7" y1="77.3" x2="636.4" y2="77.7"/>
	<line class="st6" x1="636.3" y1="75" x2="641.2" y2="77.8"/>
	<line class="st6" x1="637.3" y1="72.3" x2="642.3" y2="75.2"/>
	<line class="st6" x1="637.3" y1="69.1" x2="643.4" y2="71.6"/>
	<line class="st6" x1="638.4" y1="66.5" x2="644.4" y2="68.7"/>
	<line class="st6" x1="639.1" y1="63.3" x2="645.1" y2="65.8"/>
	<line class="st6" x1="640.1" y1="60.8" x2="646.1" y2="62.8"/>
	<polyline class="st6" points="602.9,69.1 623.5,69.1 624.7,69.8 633.9,77.4 593.9,77.8 	"/>
	<polyline class="st6" points="601.4,55.3 608.2,53.4 608.2,66 601.7,69.1 	"/>
	<polyline class="st6" points="601.6,68.4 607.7,65.7 607.7,54 601.5,55.9 	"/>
	<path class="st6" d="M602.9,68.7c0,0-0.7,2,0,2.2c0.5,0.2,1.8,0.2,2.4,0.3c0,0,0.1,0.1,0,0.1l-2.8,1.7c-0.2,0.2-0.5,0.2-0.8,0.2
		l0,0"/>
	
		<ellipse transform="matrix(0.9997 -2.326159e-02 2.326159e-02 0.9997 -2.5062 9.2342)" class="st9" cx="395.7" cy="112.3" rx="1.7" ry="0.1"/>
	
		<ellipse transform="matrix(0.9997 -2.326159e-02 2.326159e-02 0.9997 -2.5025 9.3441)" class="st9" cx="400.4" cy="112.2" rx="1.7" ry="0.1"/>
	
		<ellipse transform="matrix(0.9997 -2.326159e-02 2.326159e-02 0.9997 -2.499 9.4492)" class="st9" cx="404.9" cy="112.1" rx="1.7" ry="0.1"/>
	
		<ellipse transform="matrix(0.9997 -2.326159e-02 2.326159e-02 0.9997 -2.4977 9.5615)" class="st9" cx="409.7" cy="112.1" rx="1.7" ry="0.1"/>
	
		<ellipse transform="matrix(0.9997 -2.326159e-02 2.326159e-02 0.9997 -2.4915 9.6832)" class="st9" cx="415" cy="111.9" rx="1.7" ry="0.1"/>
	
		<ellipse transform="matrix(0.9997 -2.326159e-02 2.326159e-02 0.9997 -2.4876 9.8098)" class="st9" cx="420.4" cy="111.8" rx="1.7" ry="0.1"/>
	<path class="st6" d="M413.6,112.1v-1.3c0,0,0.9-0.3,0.9-0.9h0.7h0.3c0,0.6,0.9,0.9,0.9,0.9v1.3"/>
	<path class="st6" d="M419.2,111.9v-1.1c0,0,0.9-0.3,0.9-0.9h0.7h0.3c0,0.6,0.9,0.9,0.9,0.9v1.1"/>
	<path class="st6" d="M438.7,100.1c0-0.1,0-0.4,0-0.5c0.1-1.4,1.2-2.5,2.6-2.4c1.3,0.1,2.3,1.3,2.1,2.8c-0.1,1.4-1.2,2.5-2.6,2.4
		c-0.8-0.1-1.5-0.7-2-1.5"/>
	<path class="st6" d="M439.1,100c0-0.1,0-0.3,0-0.4c0.1-1.3,1.1-2.4,2.4-2.3c1.1,0.1,2.1,1.3,2,2.7c-0.1,1.3-1.1,2.4-2.4,2.3
		c-0.8-0.1-1.4-0.6-1.7-1.4"/>
	<path class="st6" d="M443.4,99.9c0,0-2.3-0.3-4.7,0.2c-1.5,0.3-3.1,1-4.2,2.4c-3,3.5-3.7,10.1-5.3,10c-1.7-0.1-6.7-6.4-9.7-6.3
		c-3,0.1-4.8,2.1-4.9,3.7"/>
	<path class="st6" d="M420.6,107.3c-1.7-0.6-3.7-0.5-5.1,2.5"/>
	<path class="st6" d="M443.2,100.6c-0.8-0.4-4.4-0.1-7,1.3c-2.6,1.4-5.2,9.4-5.2,10.1c0,0.2-0.1,0.4-0.3,0.5
		c-0.6,0.6-1.5,0.7-2.3,0.3c-1-0.5-2.8-1.5-4.2-3.1c0,0-0.7-0.7-1.5-1.4"/>
	<path class="st6" d="M547.3,110.5c6.5-1.8,11.5-4.3,11.9-7.3c0,0-0.3-1-1.1-0.4"/>
	<path class="st6" d="M421.1,109.8c-0.1-1,0.3-1.1,0.3-1.1s1.4,2.3,3.9,4.5c3,2.7,7.6,5.4,13.2,4.6c10.5-1.5,22.5-5.6,32-2.6
		c9.6,3,44.7,1.4,46.6,0.9c1.1-0.3,13.6-1.6,24.7-4.1"/>
	<path class="st6" d="M541.9,110.7c-11,2.5-23.2,3.8-24.2,4.1c-2,0.5-37.1,2.1-46.6-0.9c-9.6-3-21.6,1-32,2.6
		c-8.6,1.2-15.1-6.3-16.6-8.3c-0.1-0.2-0.3-0.4-0.4-0.5c-0.2-0.3-0.6-0.5-1-0.4c-0.1,0-0.1,0-0.2,0.1c-1,0.4-0.7,2.7-0.7,2.7"/>
	<path class="st6" d="M558.1,102.9c-0.3,2.3-1.6,3.2-5.9,4.8c-1.5,0.6-3.3,1.1-5.1,1.6"/>
</g>
</svg>
